{
    "accessors" : [{
        "bufferView" : 0,
        "componentType" : 5121,
        "count" : 372,
        "max" : [191],
        "min" : [0],
        "type" : "SCALAR"
    },{
        "bufferView" : 1,
        "componentType" : 5126,
        "count" : 192,
        "max" : [1,1,1],
        "min" : [-1,-1,-1],
        "type" : "VEC3"
    },{
        "bufferView" : 2,
        "componentType" : 5126,
        "count" : 192,
        "max" : [0.995185,1,0.995185],
        "min" : [-0.995185,-1,-0.995185],
        "type" : "VEC3"
    },{
        "bufferView" : 3,
        "componentType" : 5126,
        "count" : 192,
        "max" : [1,1],
        "min" : [0,0],
        "type" : "VEC2"
    }],
    "asset" : {
        "generator" : "Khronos Blender glTF 2.0 exporter",
        "version" : "2.0"
    },
    "bufferViews" : [{
        "buffer" : 0,
        "byteLength" : 372,
        "byteOffset" : 0,
        "target" : 34963
    },{
        "buffer" : 0,
        "byteLength" : 2304,
        "byteOffset" : 372,
        "target" : 34962
    },{
        "buffer" : 0,
        "byteLength" : 2304,
        "byteOffset" : 2676,
        "target" : 34962
    },{
        "buffer" : 0,
        "byteLength" : 1536,
        "byteOffset" : 4980,
        "target" : 34962
    }],
    "buffers" : [{
        "byteLength" : 6516,
        "uri" : "untitled.bin"
    }],
    "images" : [{
        "name" : "redwhite",
        "uri" : "redwhite.jpg"
    }],
    "materials" : [{
        "name" : "Material.002",
        "pbrMetallicRoughness" : {
            "baseColorFactor" : [0.64,0.64,0.64,1],
            "metallicFactor" : 0
        }
    },{
        "name" : "Material.005",
        "pbrMetallicRoughness" : {
            "baseColorFactor" : [0.64,0.64,0.64,1],
            "baseColorTexture" : {
                "index" : 0
            },
            "metallicFactor" : 0
        }
    }],
    "meshes" : [{
        "name" : "Cylinder",
        "primitives" : [{
            "attributes" : {
                "NORMAL" : 2,
                "POSITION" : 1,
                "TEXCOORD_0" : 3
            },
            "indices" : 0,
            "material" : 1
        }]
    }],
    "nodes" : [{
        "name" : "Camera",
        "rotation" : [0.483536,0.336872,-0.208704,0.780483],
        "translation" : [7.48113,5.34367,6.50764]
    },{
        "name" : "Cube",
        "translation" : [1.26918,1.41321,1.1828]
    },{
        "mesh" : 0,
        "name" : "Cylinder",
        "rotation" : [0.707107,0,-0,0.707107],
        "translation" : [0.156204,1.32218,0.0428861]
    },{
        "name" : "Lamp",
        "rotation" : [0.169076,0.75588,-0.272171,0.570948],
        "scale" : [1,1,1],
        "translation" : [-9.397,5.90386,-1.00545]
    }],
    "samplers" : [{}],
    "scene" : 0,
    "scenes" : [{
        "name" : "Scene",
        "nodes" : [2,1,3,0]
    }],
    "textures" : [{
        "sampler" : 0,
        "source" : 0
    }]
}
