<?xml version="1.0"?>
<svg xmlns="http://www.w3.org/2000/svg" xmlns:xlink="http://www.w3.org/1999/xlink" version="1.1" viewBox="0 0 224 224" width="50px" height="50px"><g fill="none" fill-rule="nonzero" stroke="none" stroke-width="1" stroke-linecap="butt" stroke-linejoin="miter" stroke-miterlimit="10" stroke-dasharray="" stroke-dashoffset="0" font-family="none" font-weight="none" font-size="none" text-anchor="none" style="mix-blend-mode: normal"><path d="M0,224v-224h224v224z" fill="none"/><g fill="#ffffff"><g id="surface1"><path d="M187.88,38.64c-2.975,0.105 -5.705,1.68 -7.28,4.2l-84.28,128.94l-54.6,-47.18c-2.345,-2.4325 -5.8625,-3.3425 -9.1,-2.3275c-3.22,0.9975 -5.6175,3.7275 -6.1775,7.0525c-0.56,3.3425 0.7875,6.7025 3.5175,8.715l62.44,54.04c1.96,1.6625 4.55,2.3975 7.0875,2.03c2.555,-0.385 4.8125,-1.8375 6.2125,-3.99l90.02,-137.48c1.925,-2.8175 2.0825,-6.4575 0.42,-9.4325c-1.6625,-2.9575 -4.865,-4.725 -8.26,-4.5675z"/></g></g></g></svg>
