<?xml version="1.0" standalone="no"?>
<!DOCTYPE svg PUBLIC "-//W3C//DTD SVG 1.1//EN" "http://www.w3.org/Graphics/SVG/1.1/DTD/svg11.dtd" >
<svg xmlns="http://www.w3.org/2000/svg" xmlns:xlink="http://www.w3.org/1999/xlink" version="1.1">
<metadata>
Created by FontForge 20171206 at Mon Dec 24 15:44:39 2018
 By fw_worker
Copyright (c) 2014 by Daniel Herna'ndez. All rights reserved.
</metadata>
<defs>
<font id="iCielAndesRounded-Light" horiz-adv-x="700" >
  <font-face 
    font-family="iCiel Andes Rounded Light"
    font-weight="350"
    font-stretch="normal"
    units-per-em="1000"
    panose-1="2 0 0 0 0 0 0 0 0 0"
    ascent="750"
    descent="-250"
    x-height="482"
    cap-height="700"
    bbox="-742 -254 1044 1031"
    underline-thickness="50"
    underline-position="-75"
    unicode-range="U+001D-FB04"
  />
<missing-glyph horiz-adv-x="414" 
 />
    <glyph glyph-name="fl" unicode="fl" horiz-adv-x="587" 
d="M134 431h-59c-7 0 -11 4 -11 11v27c0 9 4 13 12 13h58v85c0 49 13 87 38 116c27 30 65 45 114 45c27 0 52 -5 74 -15c9 -3 16 -8 23 -13c6 -4 11 -8 15 -12c5 -4 6 -10 3 -17l-14 -27c-4 -6 -9 -6 -14 -1c-3 3 -7 7 -11 10c-5 4 -11 7 -17 10c-17 8 -35 12 -55 12
c-29 0 -51 -10 -68 -29c-17 -20 -25 -47 -25 -81v-83h169c8 0 12 -4 12 -13v-27c0 -7 -4 -11 -11 -11h-170v-418c0 -9 -4 -13 -12 -13h-39c-8 0 -12 4 -12 12v419zM533 713v-615c0 -31 10 -47 31 -50h3l4 -2c3 -2 4 -5 4 -9v-27c0 -8 -10 -12 -30 -12c-51 0 -76 31 -76 94
v622c0 8 4 12 13 12h39c8 0 12 -4 12 -13z" />
    <glyph glyph-name="ff" unicode="ff" horiz-adv-x="655" 
d="M421 431h-224v-418c0 -9 -4 -13 -12 -13h-39c-8 0 -12 4 -12 12v419h-59c-7 0 -11 4 -11 11v27c0 9 4 13 12 13h58v85c0 49 13 87 38 116c27 30 65 45 114 45c27 0 52 -5 74 -15c9 -3 16 -8 23 -13c6 -4 11 -8 15 -12c6 -5 7 -10 3 -17l-14 -27c-3 -7 -8 -7 -14 -1
c-3 3 -7 7 -11 10c-5 4 -11 7 -17 10c-17 8 -35 12 -55 12c-29 0 -51 -10 -68 -29c-17 -20 -25 -47 -25 -81v-83h224v85c0 49 13 87 38 116c27 30 65 45 114 45c27 0 52 -5 74 -15c9 -3 16 -8 23 -13c6 -4 11 -8 15 -12c6 -5 7 -10 3 -17l-14 -27c-3 -6 -8 -6 -13 -1l-5 5
l-7 5c-5 4 -11 7 -17 10c-16 8 -34 12 -54 12c-29 0 -51 -10 -68 -29c-17 -20 -26 -47 -26 -81v-83h169c9 0 13 -4 13 -13v-27c0 -7 -4 -11 -12 -11h-170v-418c0 -9 -4 -13 -12 -13h-39c-8 0 -12 4 -12 12v419z" />
    <glyph glyph-name="fi" unicode="fi" horiz-adv-x="561" 
d="M511 599c-10 -9 -22 -13 -35 -13s-25 4 -34 13s-14 21 -14 34s5 24 14 33s21 14 34 14s25 -5 35 -14c9 -9 14 -20 14 -33s-5 -25 -14 -34zM444 431h-247v-418c0 -9 -4 -13 -12 -13h-39c-8 0 -12 4 -12 12v419h-59c-7 0 -11 4 -11 11v27c0 9 4 13 12 13h58v85
c0 49 12 88 36 116c25 30 62 45 109 45c28 0 53 -5 74 -15c9 -3 16 -8 23 -13c6 -4 11 -8 15 -12c6 -4 7 -10 3 -17l-14 -27c-3 -6 -8 -6 -13 -1l-5 5l-7 5c-5 4 -11 7 -17 10c-16 8 -34 12 -54 12c-27 0 -48 -10 -63 -29c-16 -20 -24 -47 -24 -81v-83h298c8 0 12 -4 12 -13
v-371c0 -31 10 -47 31 -50h3l4 -2c3 -2 4 -5 4 -9v-27c0 -8 -10 -12 -29 -12c-51 0 -76 31 -76 94v339z" />
    <glyph glyph-name="ffi" unicode="ffi" horiz-adv-x="848" 
d="M799 599c-10 -9 -22 -13 -35 -13s-25 4 -35 13c-9 9 -14 21 -14 34s5 24 14 33c10 9 22 14 35 14s25 -5 35 -14c9 -9 14 -20 14 -33s-5 -25 -14 -34zM795 469v-371c0 -31 10 -47 31 -50c3 0 5 -1 7 -2c2 -2 3 -5 3 -9v-27c0 -8 -10 -12 -29 -12c-51 0 -76 31 -76 94v339
h-247v-418c0 -9 -4 -13 -12 -13h-39c-8 0 -12 4 -12 12v419h-224v-418c0 -9 -4 -13 -12 -13h-39c-8 0 -12 4 -12 12v419h-59c-7 0 -11 4 -11 11v27c0 9 4 13 12 13h58v85c0 49 13 87 38 116c27 30 65 45 114 45c27 0 52 -5 74 -15c9 -3 16 -8 23 -13c6 -4 11 -8 15 -12
c5 -4 6 -10 3 -17l-14 -27c-4 -6 -9 -6 -14 -1c-3 3 -7 7 -11 10c-5 4 -11 7 -17 10c-17 8 -35 12 -55 12c-29 0 -51 -10 -68 -29c-17 -20 -25 -47 -25 -81v-83h224v85c0 49 13 87 38 116c27 30 65 45 114 45c27 0 52 -5 74 -15c9 -3 16 -8 23 -13c6 -4 11 -8 15 -12
c5 -4 6 -10 3 -17l-14 -27c-3 -6 -8 -6 -13 -1l-5 5l-7 5c-5 4 -11 7 -17 10c-16 8 -34 12 -54 12c-29 0 -51 -10 -68 -29c-17 -20 -26 -47 -26 -81v-83l299 -1c8 0 12 -4 12 -12z" />
    <glyph glyph-name="ffl" unicode="ffl" horiz-adv-x="875" 
d="M421 431h-224v-418c0 -9 -4 -13 -12 -13h-39c-8 0 -12 4 -12 12v419h-59c-7 0 -11 4 -11 11v27c0 9 4 13 12 13h58v85c0 49 13 87 38 116c27 30 65 45 114 45c27 0 52 -5 74 -15c9 -3 16 -8 23 -13c6 -4 11 -8 15 -12c5 -4 6 -10 3 -17l-14 -27c-3 -7 -8 -7 -14 -1
c-3 3 -7 7 -11 10c-5 4 -11 7 -17 10c-17 8 -35 12 -55 12c-29 0 -51 -10 -68 -29c-17 -20 -25 -47 -25 -81v-83h224v85c0 49 13 87 38 116c27 30 65 45 114 45c27 0 52 -5 74 -15c9 -3 16 -8 23 -13c6 -4 11 -8 15 -12c5 -4 6 -10 3 -17l-14 -27c-3 -6 -8 -6 -13 -1l-5 5
l-7 5c-5 4 -11 7 -17 10c-16 8 -34 12 -54 12c-29 0 -51 -10 -68 -29c-17 -20 -26 -47 -26 -81v-83h169c9 0 13 -4 13 -13v-27c0 -7 -4 -11 -12 -11h-170v-418c0 -9 -4 -13 -12 -13h-39c-8 0 -12 4 -12 12v419zM862 37v-27c0 -8 -10 -12 -29 -12c-51 0 -76 31 -76 94v622
c0 8 4 12 12 12h39c8 0 12 -4 12 -13v-615c0 -31 10 -47 31 -50h3l4 -2c3 -2 4 -5 4 -9z" />
    <glyph glyph-name=".notdef" horiz-adv-x="414" 
 />
    <glyph glyph-name="N" unicode="n" horiz-adv-x="545" 
d="M130 13v372c0 29 -10 46 -31 49c-3 0 -5 1 -7 3c-3 3 -4 6 -4 11v24c0 8 10 12 30 12c19 0 35 -6 48 -18c13 -13 20 -31 20 -54v-39c9 33 25 60 50 80c29 23 64 35 107 35c58 0 101 -18 130 -55c26 -33 39 -77 39 -133v-202c0 -31 10 -47 31 -50c3 0 5 -1 7 -3
c3 -3 4 -6 4 -11v-22c0 -9 -10 -14 -29 -14c-51 0 -76 31 -76 94v208c0 40 -10 72 -29 96c-21 26 -52 39 -92 39c-43 0 -77 -18 -102 -54c-22 -31 -33 -67 -33 -106v-263c0 -8 -4 -12 -12 -12h-39c-8 0 -12 4 -12 13z" />
    <glyph glyph-name="H" unicode="h" horiz-adv-x="535" 
d="M152 12v702c0 8 4 12 12 12h38c8 0 12 -4 12 -13v-333c10 31 27 57 52 76c27 21 60 32 99 32c57 0 101 -18 130 -55c26 -33 39 -77 39 -133v-202c0 -31 10 -47 30 -50h3l4 -2c3 -2 4 -5 4 -9v-27c0 -8 -10 -12 -29 -12c-51 0 -76 31 -76 94v213c0 38 -10 69 -30 92
c-22 25 -52 38 -91 38c-42 0 -76 -18 -102 -54c-22 -31 -33 -66 -33 -105v-263c0 -9 -4 -13 -12 -13h-38c-8 0 -12 4 -12 12z" />
    <glyph glyph-name="U" unicode="u" horiz-adv-x="535" 
d="M563 34v-24c0 -8 -10 -12 -29 -12c-46 0 -69 26 -69 77v20c-30 -67 -86 -101 -168 -101c-102 0 -153 56 -153 169v307c0 8 4 12 12 12h38c8 0 12 -4 12 -13v-299c0 -82 36 -123 109 -123c43 0 79 19 108 56c23 30 35 60 35 91v276c0 8 4 12 12 12h40c8 0 12 -4 12 -13
v-370c0 -31 10 -48 31 -51c7 -1 10 -6 10 -14z" />
    <glyph glyph-name="M" unicode="m" horiz-adv-x="857" 
d="M824 300v-202c0 -33 10 -50 31 -50c7 0 11 -5 11 -14v-22c0 -9 -10 -14 -29 -14c-51 0 -76 31 -76 94v208c0 40 -10 72 -29 96c-21 26 -51 39 -91 39c-39 0 -70 -16 -95 -48c-21 -27 -32 -60 -35 -99v-190c0 -33 10 -50 31 -50c7 0 10 -5 10 -14v-22
c0 -9 -10 -14 -29 -14c-51 0 -76 31 -76 94v208c0 41 -9 73 -28 96c-21 26 -52 39 -92 39c-42 0 -76 -18 -101 -54c-22 -31 -33 -67 -33 -106v-263c0 -8 -4 -12 -12 -12h-39c-8 0 -12 4 -12 13v372c0 29 -10 46 -31 49c-3 0 -5 1 -7 3c-3 3 -4 6 -4 11v24c0 8 10 12 30 12
c19 0 35 -6 48 -18c13 -13 20 -31 20 -54v-39c20 77 72 115 157 115c82 0 134 -38 157 -115c26 77 78 115 156 115c57 0 100 -18 129 -55c26 -33 39 -77 39 -133z" />
    <glyph glyph-name="L" unicode="l" horiz-adv-x="224" 
d="M253 37v-27c0 -8 -10 -12 -29 -12c-51 0 -76 31 -76 94v621c0 8 4 12 13 12h39c8 0 12 -4 12 -12v-615c0 -31 10 -47 31 -50c3 0 5 -1 7 -2c2 -2 3 -5 3 -9z" />
    <glyph glyph-name="I" unicode="i" horiz-adv-x="222" 
d="M199 599c-9 -9 -21 -13 -34 -13s-25 4 -35 13c-9 9 -14 21 -14 34s5 24 14 33c10 9 22 14 35 14s25 -5 34 -14c10 -9 15 -20 15 -33s-5 -25 -15 -34zM236 37v-27c0 -8 -10 -12 -29 -12c-51 0 -76 31 -76 94v380c0 9 4 13 12 13h39c8 0 12 -4 12 -13v-374
c0 -31 10 -47 31 -50h3l4 -2c3 -2 4 -5 4 -9z" />
    <glyph glyph-name="C" unicode="c" horiz-adv-x="483" 
d="M160 429c36 39 87 59 153 59c55 0 97 -14 127 -42c27 -26 41 -60 41 -102v-14c-1 -6 -1 -11 -2 -16c-3 -13 -10 -19 -19 -19h-23c-11 0 -17 4 -17 11c0 2 0 6 1 13s1 12 1 16c0 30 -9 54 -27 71c-19 19 -47 29 -82 29c-99 0 -149 -64 -149 -193c0 -70 18 -122 54 -156
c28 -26 62 -39 102 -39c29 0 56 7 81 21c9 5 18 12 26 19c6 5 11 11 16 17c7 9 13 10 19 4l17 -18c6 -6 7 -12 3 -18c-5 -7 -12 -15 -19 -22c-11 -10 -22 -19 -34 -26c-33 -20 -72 -30 -116 -30c-59 0 -107 18 -144 54c-45 43 -67 108 -67 193c0 83 19 145 58 188z" />
    <glyph glyph-name="D" unicode="d" horiz-adv-x="547" 
d="M450 167v165c0 1 -1 4 -2 7c-1 4 -3 8 -5 13c-6 13 -14 24 -23 35c-29 32 -66 48 -111 48c-42 0 -76 -16 -102 -48c-29 -35 -43 -85 -43 -148c0 -62 15 -110 44 -145c27 -31 61 -47 102 -47c49 0 87 20 114 60c8 13 15 27 20 42c2 5 3 9 4 14zM554 37v-27
c0 -8 -9 -12 -28 -12c-47 0 -70 24 -70 72v22l-3 -7l-3 -5l-4 -7c-7 -12 -16 -23 -27 -33c-31 -31 -73 -46 -124 -46c-53 0 -98 19 -133 58c-40 44 -60 106 -60 187c0 84 20 148 60 191c35 39 82 58 139 58c46 0 84 -12 115 -37c10 -8 18 -17 25 -27c3 -3 5 -6 7 -9l1 -3
l1 -2v304c0 8 4 12 12 12h39c8 0 12 -4 12 -13v-612c0 -33 10 -50 31 -53c3 0 5 -1 7 -2c2 -2 3 -5 3 -9z" />
    <glyph glyph-name="Q" unicode="q" horiz-adv-x="537" 
d="M450 168v164c0 1 -1 4 -2 7c-1 4 -3 8 -5 13c-7 13 -15 24 -24 35c-28 32 -65 48 -110 48c-43 0 -77 -16 -103 -48c-28 -35 -42 -85 -42 -148c0 -61 15 -110 45 -145c27 -31 60 -47 101 -47c49 0 86 20 113 60c9 13 16 27 21 43c2 5 3 9 4 14zM468 492h33
c8 0 12 -4 12 -13v-710c0 -9 -4 -13 -12 -13h-40c-7 0 -11 4 -11 12v320l-2 -4l-2 -5l-3 -6c-3 -5 -7 -10 -10 -15c-5 -6 -10 -12 -15 -17c-31 -31 -71 -47 -122 -47c-53 0 -98 19 -133 58c-41 44 -61 106 -61 187c0 84 20 148 59 191c35 39 81 58 138 58
c45 0 84 -13 117 -39c10 -8 19 -17 28 -28l5 -5l3 -5c2 -3 3 -4 4 -5v74c0 8 4 12 12 12z" />
    <glyph glyph-name="B" unicode="b" horiz-adv-x="537" 
d="M196 0h-32c-8 0 -12 4 -12 12v702c0 8 4 12 12 12h38c8 0 12 -4 12 -13v-317l1 1l1 3l3 5l3 6c7 11 16 22 26 31c31 31 71 46 120 46c55 0 100 -19 135 -56c39 -43 59 -106 59 -187c0 -85 -20 -150 -59 -193c-35 -39 -81 -58 -138 -58c-47 0 -87 13 -119 40
c-10 9 -19 18 -27 29l-4 6l-3 5c-2 3 -3 4 -4 5v-67c0 -8 -4 -12 -12 -12zM214 319v-162c0 -1 0 -4 1 -7c1 -5 3 -9 5 -14c6 -13 13 -26 22 -37c28 -35 65 -52 112 -52c44 0 79 16 104 48c27 35 41 84 41 149c0 64 -15 113 -44 147c-26 29 -60 44 -102 44
c-46 0 -83 -19 -111 -58c-14 -19 -23 -39 -28 -58z" />
    <glyph glyph-name="P" unicode="p" horiz-adv-x="548" 
d="M193 319v-164c0 -1 0 -4 1 -7c1 -5 3 -9 5 -14c6 -13 13 -25 22 -36c27 -34 64 -51 111 -51c44 0 79 16 105 48c27 35 41 84 41 149c0 64 -15 113 -45 147c-26 29 -60 44 -102 44c-45 0 -82 -19 -110 -58c-14 -19 -23 -39 -28 -58zM88 447v25c0 8 10 12 30 12
c19 0 35 -6 48 -17c14 -13 21 -31 21 -54v-20l1 3l2 4c3 4 5 8 8 12c7 12 16 23 27 32c31 29 72 44 121 44c56 0 101 -19 136 -56c39 -43 59 -105 59 -187c0 -85 -20 -150 -60 -193c-35 -39 -81 -58 -138 -58c-47 0 -87 14 -118 41c-15 13 -26 27 -32 40v-307
c0 -8 -4 -12 -12 -12h-39c-8 0 -12 4 -12 13v616c0 29 -10 45 -31 49h-3l-4 2c-3 3 -4 6 -4 11z" />
    <glyph glyph-name="E" unicode="e" horiz-adv-x="488" 
d="M472 245h-306v-12c1 -67 20 -117 56 -149c27 -25 60 -37 99 -37c29 0 55 7 79 21c9 5 17 12 25 19c6 5 12 11 17 17c8 8 14 10 17 6l21 -21c6 -5 7 -10 2 -17c-2 -3 -4 -6 -7 -9c-3 -4 -7 -8 -11 -12c-10 -10 -21 -19 -33 -26c-33 -21 -72 -31 -117 -31
c-59 0 -108 18 -145 54c-45 43 -67 108 -67 193c0 165 69 247 208 247c118 0 177 -75 177 -226c0 -11 -5 -17 -15 -17zM167 290h260c0 97 -40 145 -121 145c-83 0 -130 -48 -139 -145z" />
    <glyph glyph-name="O" unicode="o" horiz-adv-x="520" 
d="M160 58c-39 44 -58 105 -58 183s19 139 58 183c37 43 87 64 151 64c63 0 114 -21 151 -64c38 -44 57 -105 57 -183s-19 -139 -57 -183c-37 -43 -88 -64 -151 -64c-64 0 -114 21 -151 64zM415 95c28 34 42 83 42 146s-14 111 -42 146c-26 32 -61 48 -104 48
s-78 -16 -104 -48c-29 -35 -43 -83 -43 -146s14 -112 42 -146c27 -32 62 -48 105 -48s78 16 104 48z" />
    <glyph glyph-name="R" unicode="r" horiz-adv-x="372" 
d="M130 12v372c0 30 -11 47 -32 50h-3l-3 2c-3 2 -4 5 -4 8v27c0 9 10 13 29 13c46 0 69 -25 69 -74v-38c9 33 25 60 49 81c28 23 63 35 105 35c11 0 22 -1 31 -3c4 -1 8 -1 11 -2s5 -2 8 -3c7 -2 9 -6 6 -12l-17 -38c-3 -6 -7 -8 -13 -6l-6 2l-9 2c-8 1 -17 2 -26 2
c-41 0 -75 -18 -100 -53c-21 -30 -32 -64 -32 -102v-262c0 -9 -4 -13 -12 -13h-39c-8 0 -12 4 -12 12z" />
    <glyph glyph-name="F" unicode="f" horiz-adv-x="368" 
d="M134 431h-59c-7 0 -11 4 -11 11v27c0 9 4 13 12 13h58v85c0 49 13 87 38 116c27 30 65 45 114 45c27 0 52 -5 74 -15c9 -3 16 -8 23 -13c6 -4 11 -8 15 -12c5 -4 6 -10 3 -17l-14 -27c-4 -6 -9 -6 -14 -1c-3 3 -7 7 -11 10c-5 4 -11 7 -17 10c-17 8 -35 12 -55 12
c-29 0 -51 -10 -68 -29c-17 -20 -25 -47 -25 -81v-83h169c8 0 12 -4 12 -13v-27c0 -7 -4 -11 -11 -11h-170v-418c0 -9 -4 -13 -12 -13h-39c-8 0 -12 4 -12 12v419z" />
    <glyph glyph-name="space" unicode=" " horiz-adv-x="243" 
 />
    <glyph glyph-name="J" unicode="j" horiz-adv-x="215" 
d="M41 605c-9 -8 -19 -12 -32 -12s-23 4 -32 12s-13 18 -13 31s4 23 13 32c9 8 19 12 32 12s23 -4 32 -12c9 -9 13 -19 13 -32s-4 -23 -13 -31zM41 469v-546c0 -113 -50 -170 -149 -170c-18 0 -35 2 -50 7c-5 2 -11 4 -17 7c-3 2 -7 4 -11 6c-7 3 -8 8 -5 15l11 26
c3 6 7 8 11 6l3 -1l4 -2c5 -2 9 -4 12 -5c12 -4 24 -6 36 -6c61 0 92 40 92 119v545c0 8 4 12 12 12h39c8 0 12 -4 12 -13z" />
    <glyph glyph-name="T" unicode="t" horiz-adv-x="402" 
d="M207 482h180c8 0 12 -4 12 -12v-27c0 -8 -4 -12 -12 -12h-180v-265c0 -79 33 -118 98 -118c20 0 39 5 57 15c7 3 13 7 19 12l6 5l3 2l2 2c5 5 9 4 11 -2l14 -28c3 -4 2 -8 -2 -13c-2 -2 -4 -4 -7 -6s-6 -4 -9 -7c-8 -6 -16 -11 -25 -15c-24 -13 -49 -19 -75 -19
c-104 0 -156 57 -156 170v267h-64c-9 0 -13 4 -13 12v27c0 8 4 12 13 12h64v138c0 8 4 12 12 12h39c9 0 13 -4 13 -13v-137z" />
    <glyph glyph-name="K" unicode="k" horiz-adv-x="531" 
d="M588 36v-25c0 -9 -9 -13 -28 -13c-34 0 -61 13 -81 38c-8 10 -16 23 -23 39l-9 22l-9 23c-15 40 -30 68 -43 84c-22 25 -51 38 -88 38h-93v-230c0 -8 -4 -12 -12 -12h-38c-8 0 -12 4 -12 12v702c0 8 4 12 12 12h38c8 0 12 -4 12 -12v-426h93c49 0 89 19 118 58
c25 34 38 75 39 124c0 8 4 12 12 12h35c8 0 12 -4 12 -13c-1 -48 -11 -89 -31 -124c-23 -39 -55 -65 -98 -78c25 -9 45 -26 61 -51c6 -10 12 -22 18 -36l8 -19l7 -18c12 -32 23 -54 32 -66c15 -19 34 -29 58 -29c7 0 10 -4 10 -12z" />
    <glyph glyph-name="S" unicode="s" horiz-adv-x="465" 
d="M427 310h-26c-11 0 -15 3 -14 10l1 6l1 7c1 6 1 12 1 17c0 57 -40 85 -119 85c-77 0 -116 -30 -116 -89c0 -31 16 -54 47 -67c12 -5 28 -10 48 -14l27 -5l28 -5c47 -9 81 -20 102 -33c31 -20 47 -51 47 -93c0 -43 -15 -76 -45 -99c-31 -24 -76 -36 -135 -36
c-53 0 -99 12 -138 35c-14 9 -26 18 -37 29c-5 5 -9 9 -12 13s-6 8 -8 11c-3 5 -2 10 2 15l25 26c5 5 9 4 13 -1c3 -3 5 -7 8 -10c3 -4 7 -8 11 -11c10 -10 20 -18 31 -25c30 -19 64 -29 102 -29c81 0 121 27 121 80c0 27 -16 47 -47 60c-12 5 -28 9 -48 13l-27 6l-27 5
c-47 9 -82 21 -103 36c-31 22 -47 55 -47 98c0 41 14 74 41 99c31 29 76 44 137 44c62 0 108 -14 139 -42c25 -23 38 -54 38 -91v-13c-1 -5 -2 -10 -3 -14c-3 -11 -9 -17 -18 -18z" />
    <glyph glyph-name="V" unicode="v" horiz-adv-x="500" 
d="M312 0h-54c-5 0 -9 4 -14 13l-172 456c-1 3 -1 6 2 9s6 4 10 4h43c7 0 11 -3 14 -9l145 -402l147 402c2 6 7 9 14 9h40c4 0 7 -1 10 -4c2 -3 2 -6 1 -9l-172 -456c-4 -9 -9 -13 -14 -13z" />
    <glyph glyph-name="W" unicode="w" horiz-adv-x="745" 
d="M587 0h-53c-7 0 -11 4 -13 13l-108 356l-111 -355c-3 -9 -8 -14 -14 -14h-52c-6 0 -11 4 -14 13l-144 455c-1 4 -1 7 1 10s5 4 9 4h44c7 0 11 -3 13 -10l118 -402l120 394c3 7 8 11 13 11h38c6 0 10 -4 12 -12l115 -393l117 402c2 7 7 10 14 10h40c4 0 7 -1 10 -4
c2 -3 2 -7 1 -10l-142 -454c-3 -9 -8 -14 -14 -14z" />
    <glyph glyph-name="Y" unicode="y" horiz-adv-x="499" 
d="M492 469l-229 -604c-29 -75 -75 -112 -138 -112c-12 0 -23 1 -33 3c-9 1 -16 3 -22 6c-6 2 -9 6 -8 13l6 32c1 7 4 9 10 7s12 -3 19 -4c8 -1 16 -2 24 -2c38 0 66 24 85 73l42 114l-182 474c-3 9 0 13 11 13h41c8 0 13 -3 15 -10l149 -399l145 400c2 6 7 9 15 9h40
c11 0 14 -4 10 -13z" />
    <glyph glyph-name="Z" unicode="z" horiz-adv-x="453" 
d="M441 0h-342c-7 0 -11 4 -11 12v23c0 11 4 22 11 31l282 365h-282c-7 0 -11 4 -11 11v28c0 8 4 12 12 12h341c8 0 12 -4 12 -12v-24c0 -9 -4 -20 -12 -31l-278 -364h278c8 0 12 -4 12 -12v-27c0 -8 -4 -12 -12 -12z" />
    <glyph glyph-name="X" unicode="x" horiz-adv-x="479" 
d="M464 0h-43c-6 0 -11 2 -14 7l-135 195l-134 -193c-4 -6 -9 -9 -14 -9h-45c-4 0 -7 1 -9 3c-3 3 -3 6 0 9l163 231l-163 227c-3 3 -3 6 0 9c3 2 6 3 10 3h47c6 0 11 -3 15 -9l130 -189l135 190c3 5 8 8 14 8h43c5 0 8 -1 10 -3c3 -3 3 -5 1 -8l-163 -228l163 -232
c2 -3 2 -5 -1 -8c-2 -2 -5 -3 -10 -3z" />
    <glyph glyph-name="G" unicode="g" horiz-adv-x="512" 
d="M341 1h-101c-34 -1 -61 -9 -80 -26c-20 -17 -30 -41 -30 -72c0 -65 53 -97 158 -97c112 0 168 34 168 103c0 61 -38 92 -115 92zM386 400c-25 23 -57 35 -95 35c-39 0 -70 -11 -95 -34c-25 -24 -38 -55 -38 -92c0 -38 13 -69 38 -92c24 -23 55 -34 94 -34s71 11 96 34
c26 23 39 54 39 92c0 37 -13 67 -39 91zM243 48h96c53 0 96 -12 128 -35c34 -25 51 -60 51 -105c0 -103 -76 -155 -227 -155c-149 0 -223 49 -223 147c0 37 12 67 37 90c8 8 17 15 28 21l12 6l5 2l4 2c-1 1 -3 2 -6 3l-4 2l-5 2c-9 4 -16 8 -22 13c-19 15 -28 34 -28 57
c0 43 22 69 67 80l-2 2l-3 3c-3 3 -6 5 -8 8c-8 8 -15 17 -20 26c-18 27 -27 58 -27 92c0 53 19 97 57 131c37 32 82 48 137 48c19 0 38 -3 56 -9l10 -3l8 -3c5 -2 7 -3 8 -3c35 -2 62 5 80 21c14 12 23 28 26 48c2 8 6 12 13 11l27 -4c5 -1 8 -3 10 -6l2 -4v-3
c-2 -32 -15 -56 -38 -72c-17 -12 -40 -19 -67 -21c3 -2 5 -4 7 -6l9 -9c8 -9 15 -18 21 -27c16 -27 24 -56 24 -89c0 -55 -19 -99 -58 -132c-37 -32 -82 -48 -137 -48c-20 0 -40 3 -59 9c-7 2 -13 4 -18 7c-3 1 -5 2 -6 3l-3 1l-1 1c-38 0 -57 -17 -57 -50
c0 -35 32 -52 96 -52z" />
    <glyph glyph-name="A" unicode="A" horiz-adv-x="643" 
d="M574 11l-73 196h-302l-73 -196c-2 -7 -7 -11 -14 -11h-40c-4 0 -7 1 -10 3c-3 3 -3 6 -2 9l252 675c5 9 10 13 15 13h47c5 0 10 -4 14 -13l253 -675c1 -3 1 -6 -2 -9c-3 -2 -6 -3 -10 -3h-41c-7 0 -12 4 -14 11zM350 613l-131 -352h262z" />
    <glyph glyph-name="B" unicode="B" horiz-adv-x="625" 
d="M420 0h-226c-8 0 -12 4 -12 12v676c0 8 4 12 12 12h213c144 0 216 -59 216 -178c0 -57 -15 -100 -44 -128c-11 -10 -23 -18 -37 -23c-11 -4 -21 -6 -30 -6v-2c13 0 28 -2 43 -7c19 -6 37 -15 52 -27c41 -32 61 -79 61 -141c0 -66 -26 -115 -77 -148
c-43 -27 -100 -40 -171 -40zM247 56h172c52 0 93 9 124 27c39 23 59 60 59 112c0 93 -57 140 -170 140h-185v-279zM247 385h179c87 0 130 43 130 130c0 86 -52 129 -157 129h-152v-259z" />
    <glyph glyph-name="C" unicode="C" horiz-adv-x="635" 
d="M618 148l26 -27c5 -5 5 -10 0 -16c-3 -3 -6 -7 -9 -11c-4 -5 -9 -11 -14 -16c-13 -14 -28 -26 -45 -37c-47 -31 -100 -47 -159 -47c-91 0 -163 27 -216 82c-58 61 -87 152 -87 272c0 119 28 210 83 273c51 57 119 85 206 85c85 0 150 -28 194 -84c15 -20 26 -42 35 -67
c3 -9 6 -18 8 -27c2 -7 3 -14 4 -20c1 -8 -2 -13 -11 -14l-36 -7c-8 -1 -13 2 -14 9c-1 5 -2 11 -4 17c-1 8 -3 16 -6 23c-7 19 -17 35 -28 50c-33 42 -80 63 -141 63c-65 0 -117 -23 -156 -68c-45 -53 -67 -130 -67 -233c0 -104 25 -182 74 -233c41 -43 96 -64 164 -64
c45 0 86 13 124 38c13 9 26 20 37 31c5 5 9 9 13 14l5 5l4 5c6 8 11 9 16 4z" />
    <glyph glyph-name="D" unicode="D" horiz-adv-x="659" 
d="M394 0h-200c-8 0 -12 4 -12 12v676c0 8 4 12 12 12h164c99 0 178 -28 237 -84c65 -62 98 -153 98 -273c0 -115 -28 -201 -83 -260c-52 -55 -124 -83 -216 -83zM247 56h147c73 0 129 23 169 70c43 50 64 122 64 217c0 101 -25 177 -76 229c-47 48 -111 72 -194 72h-110
v-588z" />
    <glyph glyph-name="E" unicode="E" horiz-adv-x="553" 
d="M578 0h-384c-8 0 -12 4 -12 12v676c0 8 4 12 12 12h384c9 0 13 -4 13 -12v-32c0 -8 -4 -12 -13 -12h-331v-268h282c8 0 12 -4 12 -12v-31c0 -8 -4 -12 -13 -12h-281v-265h331c9 0 13 -4 13 -12v-32c0 -8 -4 -12 -13 -12z" />
    <glyph glyph-name="F" unicode="F" horiz-adv-x="534" 
d="M247 319v-307c0 -8 -4 -12 -12 -12h-41c-8 0 -12 4 -12 12v676c0 8 4 12 12 12h384c9 0 13 -4 13 -12v-32c0 -8 -4 -12 -13 -12h-331v-270h282c8 0 12 -4 12 -12v-31c0 -8 -4 -12 -13 -12h-281z" />
    <glyph glyph-name="G" unicode="G" horiz-adv-x="652" 
d="M652 334v-79c0 -80 -20 -143 -60 -188c-43 -49 -106 -73 -188 -73c-85 0 -153 27 -204 82c-57 62 -86 153 -86 272s28 210 83 273c51 57 119 85 206 85c75 0 134 -23 178 -69c33 -35 54 -77 63 -127c1 -7 -3 -12 -12 -13l-36 -7c-7 -1 -12 1 -13 8c-8 41 -24 74 -49 100
c-32 34 -75 51 -130 51c-65 0 -117 -23 -156 -68c-45 -53 -67 -130 -67 -233s24 -181 72 -232c39 -43 90 -65 152 -65c122 0 183 68 183 204v40h-172c-8 0 -12 4 -12 12v27c0 8 4 12 12 12h224c8 0 12 -4 12 -12z" />
    <glyph glyph-name="H" unicode="H" horiz-adv-x="679" 
d="M679 688v-676c0 -8 -4 -12 -12 -12h-41c-8 0 -12 4 -12 12v304h-367v-304c0 -8 -4 -12 -12 -12h-41c-8 0 -12 4 -12 12v676c0 8 4 12 12 12h41c8 0 12 -4 12 -12v-316h367v316c0 8 4 12 12 12h41c8 0 12 -4 12 -12z" />
    <glyph glyph-name="I" unicode="I" horiz-adv-x="247" 
d="M247 688v-676c0 -8 -4 -12 -12 -12h-41c-8 0 -12 4 -12 12v676c0 8 4 12 12 12h41c8 0 12 -4 12 -12z" />
    <glyph glyph-name="J" unicode="J" horiz-adv-x="454" 
d="M309 193v495c0 8 4 12 12 12h41c8 0 12 -4 12 -12v-490c0 -68 -18 -120 -55 -155c-34 -33 -80 -49 -137 -49c-40 0 -77 9 -110 28c-11 7 -22 14 -33 22c-3 3 -7 7 -11 10l-4 4l-3 3c-5 5 -5 10 0 15l27 29c5 6 11 6 16 1l3 -3l3 -3c3 -3 6 -5 9 -8c7 -7 16 -14 25 -19
c25 -15 51 -23 78 -23c85 0 127 48 127 143z" />
    <glyph glyph-name="P" unicode="P" horiz-adv-x="586" 
d="M235 0h-41c-8 0 -12 4 -12 12v676c0 8 4 12 12 12h203c77 0 137 -18 178 -55c43 -37 64 -92 64 -164c0 -71 -22 -124 -65 -161c-40 -35 -97 -52 -170 -52h-157v-256c0 -8 -4 -12 -12 -12zM247 323h147c119 0 179 53 179 158c0 109 -60 163 -181 163h-145v-321z" />
    <glyph glyph-name="L" unicode="L" horiz-adv-x="526" 
d="M247 688v-632h346c8 0 12 -4 12 -12v-32c0 -8 -4 -12 -13 -12h-398c-8 0 -12 4 -12 12v676c0 8 4 12 12 12h41c8 0 12 -4 12 -12z" />
    <glyph glyph-name="R" unicode="R" horiz-adv-x="665" 
d="M746 37v-23c0 -5 -5 -10 -14 -13c-3 -1 -7 -1 -13 -2c-5 -1 -11 -1 -17 -1c-39 0 -72 16 -99 47c-17 19 -38 53 -62 102l-14 28l-14 27c-11 19 -21 35 -31 47c-25 31 -56 47 -91 47h-144v-284c0 -8 -4 -12 -12 -12h-41c-8 0 -12 4 -12 12v675c0 9 4 13 12 13h210
c155 0 232 -68 232 -204c0 -49 -14 -89 -42 -122c-25 -29 -58 -49 -100 -59c21 -9 42 -29 62 -59c7 -11 15 -26 24 -43l12 -23l11 -23c19 -38 36 -65 49 -81c21 -24 43 -36 66 -37h15c9 0 13 -4 13 -12zM247 348h149c51 0 92 12 123 37c33 27 50 63 50 109s-14 82 -43 109
c-30 27 -72 41 -125 41h-154v-296z" />
    <glyph glyph-name="K" unicode="K" horiz-adv-x="664" 
d="M247 366h139c53 0 97 24 134 71c44 57 68 141 71 251c0 8 4 12 12 12h40c8 0 12 -4 12 -13c0 -99 -19 -181 -58 -245c-31 -49 -69 -83 -114 -102c25 -10 48 -31 69 -64c9 -13 18 -29 27 -48l12 -25l13 -25c20 -43 37 -73 50 -90c20 -26 42 -39 65 -39h15
c8 0 12 -4 12 -12v-25c0 -6 -4 -10 -12 -12c-8 -1 -19 -2 -32 -2c-38 0 -71 16 -99 49c-17 20 -38 56 -62 108l-14 29l-14 28c-11 21 -22 37 -32 50c-25 33 -55 49 -90 49h-144v-299c0 -8 -4 -12 -12 -12h-41c-8 0 -12 4 -12 12v676c0 8 4 12 12 12h41c8 0 12 -4 12 -12
v-322z" />
    <glyph glyph-name="O" unicode="O" 
d="M204 76c-60 62 -90 153 -90 273s30 212 90 275c52 55 120 82 203 82s151 -27 204 -82c59 -63 89 -155 89 -275s-30 -211 -89 -273c-52 -55 -120 -82 -204 -82c-83 0 -151 27 -203 82zM564 118c47 52 70 129 70 231c0 103 -23 181 -70 233c-40 45 -92 67 -157 67
s-117 -22 -156 -67c-47 -52 -70 -130 -70 -233c0 -102 23 -179 70 -231c40 -45 92 -67 156 -67c65 0 117 22 157 67z" />
    <glyph glyph-name="Q" unicode="Q" 
d="M621 -173v-34c0 -5 -2 -8 -5 -10l-4 -2h-4c-63 3 -115 25 -157 67c-38 37 -64 87 -77 148c-76 7 -137 38 -182 92c-52 62 -78 149 -78 261c0 120 30 212 90 275c52 55 120 82 203 82s151 -27 204 -82c59 -63 89 -155 89 -275c0 -114 -27 -202 -80 -264
c-47 -54 -109 -84 -187 -90c27 -99 86 -151 176 -156h4l4 -2c3 -2 4 -5 4 -10zM564 118c47 52 70 129 70 231c0 103 -23 181 -70 233c-40 45 -92 67 -157 67s-117 -22 -156 -67c-47 -52 -70 -130 -70 -233c0 -102 23 -179 70 -231c40 -45 92 -67 156 -67c65 0 117 22 157 67
z" />
    <glyph glyph-name="M" unicode="M" horiz-adv-x="814" 
d="M182 12v676c0 8 4 12 12 12h48c9 0 15 -4 20 -13l236 -503h2l237 503c5 9 11 13 20 13h45c8 0 12 -4 12 -12v-676c0 -8 -4 -12 -12 -12h-41c-8 0 -12 4 -12 12v565l-218 -459c-5 -13 -16 -20 -32 -20c-17 0 -29 7 -34 20l-218 459v-565c0 -8 -4 -12 -12 -12h-41
c-8 0 -12 4 -12 12z" />
    <glyph glyph-name="N" unicode="N" horiz-adv-x="677" 
d="M665 0h-52c-8 0 -15 5 -21 14l-345 578v-580c0 -8 -4 -12 -12 -12h-41c-8 0 -12 4 -12 12v676c0 8 4 12 12 12h52c9 0 15 -4 20 -13l346 -587v588c0 8 4 12 12 12h41c8 0 12 -4 12 -12v-676c0 -8 -4 -12 -12 -12z" />
    <glyph glyph-name="U" unicode="U" horiz-adv-x="675" 
d="M609 282v406c0 8 4 12 12 12h41c8 0 12 -4 12 -12v-402c0 -195 -84 -292 -252 -292c-169 0 -254 97 -254 292v402c0 8 4 12 13 12h41c8 0 12 -4 12 -12v-406c0 -154 63 -231 188 -231s187 77 187 231z" />
    <glyph glyph-name="T" unicode="T" horiz-adv-x="594" 
d="M42 700h540c9 0 13 -4 13 -12v-32c0 -8 -4 -12 -13 -12h-236v-632c0 -8 -4 -12 -12 -12h-41c-8 0 -12 4 -12 12v632h-239c-8 0 -12 4 -12 12v32c0 8 4 12 12 12z" />
    <glyph glyph-name="V" unicode="V" horiz-adv-x="636" 
d="M346 77l213 613c2 7 7 10 14 10h47c4 0 7 -1 10 -3c3 -3 3 -6 2 -9l-248 -675c-4 -9 -9 -13 -14 -13h-48c-5 0 -9 4 -14 13l-248 675c-2 8 2 12 12 12h51c7 0 11 -3 14 -10z" />
    <glyph glyph-name="W" unicode="W" horiz-adv-x="973" 
d="M556 687l176 -610l160 613c2 7 7 10 14 10h51c11 0 15 -4 12 -13l-197 -674c-3 -9 -8 -13 -15 -13h-49c-8 0 -14 4 -17 13l-170 584l-169 -584c-4 -9 -9 -13 -16 -13h-48c-9 0 -14 4 -17 13l-197 673c-3 9 1 14 12 14h51c7 0 12 -3 14 -10l160 -613l176 610
c2 9 8 13 17 13h37c7 0 12 -4 15 -13z" />
    <glyph glyph-name="X" unicode="X" horiz-adv-x="598" 
d="M583 0h-47c-6 0 -11 3 -15 10l-197 297l-196 -297c-5 -7 -10 -10 -16 -10h-46c-5 0 -8 1 -11 3c-3 3 -3 6 0 9l225 337l-225 339c-3 3 -3 6 -1 9c3 2 6 3 11 3h51c6 0 11 -3 15 -10l193 -295l193 295c5 7 10 10 16 10h50c5 0 8 -1 10 -3c3 -3 3 -6 0 -9l-226 -338
l226 -338c3 -3 3 -6 0 -9c-2 -2 -5 -3 -10 -3z" />
    <glyph glyph-name="Y" unicode="Y" horiz-adv-x="621" 
d="M361 0h-41c-8 0 -12 4 -12 12v295l-244 381c-3 3 -3 6 0 9c3 2 6 3 10 3h51c6 0 11 -3 15 -10l201 -325l199 325c5 7 10 10 16 10h50c12 0 16 -4 11 -12l-244 -381v-295c0 -8 -4 -12 -12 -12z" />
    <glyph glyph-name="Z" unicode="Z" horiz-adv-x="589" 
d="M577 0h-479c-8 0 -12 4 -12 12v33c0 3 1 6 2 9c1 4 3 8 5 11l417 579h-412c-8 0 -12 4 -12 12v32c0 8 4 12 13 12h479c8 0 12 -4 12 -12v-33c0 -8 -2 -15 -7 -20l-415 -579h410c8 0 12 -4 12 -12v-32c0 -8 -4 -12 -13 -12z" />
    <glyph glyph-name="S" unicode="S" horiz-adv-x="604" 
d="M576 572l-30 -20c-6 -4 -11 -3 -14 2c-2 3 -4 7 -6 10c-3 5 -7 9 -10 13c-10 12 -21 23 -34 32c-37 27 -83 40 -138 40c-56 0 -100 -13 -132 -40c-29 -24 -44 -54 -44 -91c0 -47 22 -81 67 -103c17 -9 40 -16 69 -23l39 -8l40 -8c69 -15 118 -32 148 -52
c45 -31 67 -77 67 -139c0 -55 -21 -99 -62 -134c-45 -38 -106 -57 -185 -57c-76 0 -140 18 -192 54c-18 13 -34 27 -48 42c-5 6 -10 12 -14 17l-5 7c-1 1 -2 3 -3 5c-3 5 -2 10 3 15l25 24c6 5 11 5 15 -1l3 -5l5 -6c4 -5 8 -9 13 -14c13 -13 27 -25 42 -36
c45 -30 97 -45 156 -45c56 0 100 12 133 36c32 23 48 55 48 96c0 49 -22 84 -67 107c-18 9 -41 16 -69 23c-11 3 -24 5 -39 8l-40 8c-69 14 -119 31 -148 50c-45 30 -67 76 -67 138c0 54 20 98 61 133c43 37 102 56 177 56c71 0 130 -16 177 -49c17 -11 31 -24 43 -38
c5 -5 9 -11 13 -17c3 -4 5 -8 7 -12c4 -7 3 -13 -4 -18z" />
    <glyph glyph-name="period" unicode="." horiz-adv-x="221" 
d="M142 73c9 9 20 14 33 14s24 -5 33 -14s13 -20 13 -33s-4 -23 -13 -32s-20 -14 -33 -14s-24 5 -33 14s-14 19 -14 32s5 24 14 33z" />
    <glyph glyph-name="comma" unicode="," horiz-adv-x="226" 
d="M142 73c9 9 20 14 33 14c34 0 51 -19 51 -57c0 -37 -9 -67 -27 -90c-7 -9 -14 -16 -23 -23c-3 -2 -7 -4 -10 -7c-3 -1 -5 -3 -8 -4c-5 -2 -8 -1 -11 4l-12 19c-3 5 -2 8 2 10s8 4 11 7c5 4 9 8 12 12c9 11 14 23 15 36c-13 0 -24 4 -33 13s-14 20 -14 33s5 24 14 33z" />
    <glyph glyph-name="colon" unicode=":" horiz-adv-x="237" 
d="M158 73c9 9 20 14 33 14s24 -5 33 -14s13 -20 13 -33s-4 -23 -13 -32s-20 -14 -33 -14s-24 5 -33 14s-14 19 -14 32s5 24 14 33zM158 491c9 9 20 14 33 14s24 -5 33 -14s13 -20 13 -33s-4 -23 -13 -32s-20 -14 -33 -14s-24 5 -33 14s-14 19 -14 32s5 24 14 33z" />
    <glyph glyph-name="semicolon" unicode=";" horiz-adv-x="247" 
d="M164 73c9 9 20 14 33 14c34 0 51 -19 51 -57c0 -37 -9 -67 -27 -90c-7 -9 -14 -16 -23 -23c-3 -2 -7 -4 -10 -7c-3 -1 -5 -3 -8 -4c-5 -2 -8 -1 -11 4l-12 19c-3 5 -2 8 2 10s8 4 11 7c5 4 9 8 12 12c9 11 14 23 15 36c-13 0 -24 4 -33 13s-14 20 -14 33s5 24 14 33z
M164 491c9 9 20 14 33 14s24 -5 33 -14s13 -20 13 -33s-4 -23 -13 -32s-20 -14 -33 -14s-24 5 -33 14s-14 19 -14 32s5 24 14 33z" />
    <glyph glyph-name="slash" unicode="/" horiz-adv-x="402" 
d="M109 -225h-37c-10 0 -14 4 -12 12l276 909c2 7 7 10 14 10h37c4 0 7 -1 9 -3c2 -3 3 -6 2 -9l-275 -909c-2 -7 -7 -10 -14 -10z" />
    <glyph glyph-name="plus" unicode="+" horiz-adv-x="458" 
d="M444 253h-137v-151c0 -8 -4 -12 -12 -12h-26c-8 0 -12 4 -12 13v150h-136c-9 0 -13 4 -13 12v24c0 8 4 12 13 12h136v145c0 8 4 12 11 12h26c9 0 13 -4 13 -12v-145h137c9 0 13 -4 13 -12v-24c0 -8 -4 -12 -13 -12z" />
    <glyph glyph-name="quotesingle" unicode="'" horiz-adv-x="180" 
d="M135 592l-3 130c0 8 4 12 12 12h25c8 0 12 -4 12 -12l-3 -130c0 -8 -4 -12 -12 -12h-20c-7 0 -11 4 -11 12z" />
    <glyph glyph-name="parenleft" unicode="(" horiz-adv-x="283" 
d="M225 -71c13 -33 28 -63 45 -91c6 -10 12 -20 18 -29c3 -3 5 -7 7 -10s4 -5 6 -8c5 -6 3 -11 -6 -15l-29 -14c-8 -4 -14 -3 -18 2c-5 6 -9 12 -14 19c-7 10 -13 20 -20 31c-17 30 -33 63 -47 98c-41 101 -61 211 -61 329c0 119 20 229 61 330c14 35 30 67 47 97
c7 11 13 21 20 31c5 7 9 13 14 19c4 5 10 6 18 2l28 -14c9 -5 11 -10 6 -15c-2 -3 -4 -5 -6 -8s-4 -7 -7 -10c-6 -9 -12 -19 -18 -30c-17 -29 -31 -59 -44 -91c-38 -96 -57 -200 -57 -311c0 -113 19 -217 57 -312z" />
    <glyph glyph-name="parenright" unicode=")" horiz-adv-x="283" 
d="M196 -88c-14 -35 -30 -68 -47 -98c-7 -11 -13 -21 -20 -31c-5 -7 -9 -13 -14 -19c-4 -5 -10 -5 -18 -2l-29 14c-9 4 -11 9 -6 15c2 3 4 5 6 8s4 7 7 10c6 9 12 19 18 29c17 28 32 58 45 91c38 95 57 199 57 312c0 112 -19 216 -56 311c-13 33 -28 63 -44 91
c-7 11 -13 21 -19 30c-5 7 -9 13 -13 18c-5 5 -3 10 6 15l28 14c8 3 14 3 18 -2c5 -6 9 -12 14 -19c7 -10 13 -20 20 -31c17 -30 33 -62 47 -97c41 -101 61 -211 61 -330c0 -118 -20 -228 -61 -329z" />
    <glyph glyph-name="asterisk" unicode="*" horiz-adv-x="431" 
d="M160 501l82 93l-123 15c-8 1 -11 5 -10 13l2 16c0 7 5 9 15 8l118 -24l-49 109c-3 7 -2 12 4 15l15 7c7 3 12 1 15 -8l43 -114l76 103c5 8 11 9 17 4l12 -9c7 -5 7 -11 1 -18l-84 -96l124 -15c9 -1 13 -6 12 -13l-1 -14c-1 -9 -6 -12 -14 -9l-125 22l53 -111
c3 -8 2 -13 -4 -16l-17 -7c-6 -3 -11 0 -14 8l-45 114l-74 -96c-5 -9 -10 -10 -16 -4l-14 10c-6 5 -6 10 1 17z" />
    <glyph glyph-name="exclam" unicode="!" horiz-adv-x="241" 
d="M168 200l-7 526c0 7 4 11 12 11h47c8 0 12 -4 12 -11l-9 -526c0 -7 -4 -11 -12 -11h-31c-8 0 -12 4 -12 11zM227 66c9 -9 13 -19 13 -31c0 -13 -4 -23 -13 -32s-19 -13 -32 -13c-12 0 -22 4 -31 13s-14 19 -14 32c0 12 5 22 14 31s19 13 31 13c13 0 23 -4 32 -13z" />
    <glyph glyph-name="quotedbl" unicode="&#x22;" horiz-adv-x="283" 
d="M135 592l-3 130c0 8 4 12 12 12h25c8 0 12 -4 12 -12l-3 -130c0 -8 -4 -12 -12 -12h-20c-7 0 -11 4 -11 12zM238 592l-3 130c0 8 4 12 12 12h25c8 0 12 -4 12 -12l-3 -130c0 -8 -4 -12 -12 -12h-20c-7 0 -11 4 -11 12z" />
    <glyph glyph-name="numbersign" unicode="#" horiz-adv-x="618" 
d="M414 188l32 150h-144l-33 -150h145zM221 188l33 150h-97c-9 0 -12 5 -9 16l3 14c2 7 7 10 14 10h98l22 102c2 7 7 11 14 11h22c4 0 7 -1 9 -3c3 -3 4 -6 3 -11l-22 -99h144l23 102c2 7 6 11 13 11h22c5 0 8 -1 10 -3c3 -3 3 -6 2 -11l-22 -99h108c7 0 9 -3 7 -10l-4 -20
c-2 -7 -7 -10 -14 -10h-105l-33 -150h98c9 0 12 -4 10 -13l-4 -16c-1 -7 -6 -10 -14 -10h-99l-21 -96c-2 -7 -7 -10 -14 -10h-22c-4 0 -7 1 -9 3c-3 2 -4 5 -3 10l21 93h-144l-21 -96c-2 -7 -7 -10 -14 -10h-22c-4 0 -7 1 -9 3c-3 2 -4 5 -3 10l20 93h-103c-4 0 -7 2 -9 5
c-1 3 -1 6 0 10l3 14c2 7 7 10 14 10h104z" />
    <glyph glyph-name="less" unicode="&#x3c;" horiz-adv-x="417" 
d="M98 307l285 184c9 5 13 2 13 -8v-30c0 -7 -4 -14 -13 -19l-242 -160l243 -161c8 -5 12 -11 12 -18v-30c0 -10 -4 -13 -13 -8l-286 184c-7 4 -11 10 -11 18v31c0 7 4 12 12 17z" />
    <glyph glyph-name="equal" unicode="=" horiz-adv-x="518" 
d="M163 391h343c8 0 12 -4 12 -12v-25c0 -8 -4 -12 -12 -12h-344c-8 0 -12 4 -12 12v25c0 8 4 12 13 12zM163 199h343c8 0 12 -4 12 -12v-24c0 -8 -4 -12 -12 -12h-344c-8 0 -12 4 -12 12v24c0 8 4 12 13 12z" />
    <glyph glyph-name="greater" unicode="&#x3e;" horiz-adv-x="417" 
d="M141 491l285 -184c8 -5 12 -10 12 -17v-31c0 -8 -4 -14 -11 -18l-286 -184c-9 -5 -13 -2 -13 8v30c0 7 4 13 11 18l244 161l-242 160c-9 5 -13 12 -13 19v30c0 10 4 13 13 8z" />
    <glyph glyph-name="at" unicode="@" horiz-adv-x="834" 
d="M774 131c-46 -57 -98 -85 -155 -85c-39 0 -60 17 -61 51c0 6 1 14 4 23c1 8 3 15 6 21c-3 -4 -5 -8 -7 -11c-4 -5 -8 -9 -11 -14c-9 -11 -19 -21 -30 -30c-29 -25 -62 -37 -97 -37c-86 0 -129 49 -129 146c0 69 22 130 65 182c44 53 96 80 157 80c35 0 63 -9 86 -27
c7 -5 13 -12 18 -19c2 -3 4 -5 5 -7l1 -3l1 -1l10 37c1 6 6 9 13 9h27c9 0 13 -3 10 -9c0 -1 -4 -17 -13 -49c-3 -9 -5 -16 -7 -23l-7 -25c-5 -21 -10 -39 -15 -56c-27 -103 -42 -159 -43 -169c-1 -19 8 -29 28 -29c39 0 75 24 109 71c38 52 57 115 57 189
c0 70 -23 127 -70 171c-47 45 -111 68 -190 68c-107 0 -196 -39 -267 -117c-69 -77 -104 -172 -104 -286c0 -89 26 -159 77 -208c48 -46 111 -69 190 -69c69 0 132 12 189 37c20 9 39 19 56 31c7 4 13 8 19 13c5 3 9 7 13 10c9 7 16 7 19 0l12 -18c5 -8 3 -15 -4 -21
c-5 -4 -9 -8 -14 -12c-7 -5 -14 -9 -21 -14c-19 -13 -40 -24 -63 -34c-63 -27 -132 -41 -207 -41c-93 0 -168 27 -226 81c-62 58 -93 139 -93 243c0 133 41 243 122 328s182 127 304 127c91 0 165 -27 223 -81c57 -54 86 -123 86 -207c0 -85 -24 -157 -73 -216zM576 215
l38 145c-4 9 -11 17 -21 26c-21 17 -47 26 -79 26c-46 0 -86 -21 -119 -64c-32 -41 -48 -89 -48 -144c0 -71 29 -106 88 -106c37 0 70 15 98 46c11 11 20 24 28 39c7 11 12 22 15 32z" />
    <glyph glyph-name="bracketleft" unicode="[" horiz-adv-x="296" 
d="M330 -244h-150c-8 0 -12 4 -12 12v946c0 8 4 12 12 12h151c8 0 12 -4 12 -12v-32c0 -7 -4 -11 -13 -11h-99v-860h100c8 0 12 -4 12 -11v-32c0 -8 -4 -12 -13 -12z" />
    <glyph glyph-name="backslash" unicode="\" horiz-adv-x="402" 
d="M386 -225h-37c-7 0 -12 3 -14 10l-275 909c-2 8 2 12 12 12h36c7 0 12 -3 14 -10l276 -909c2 -8 -2 -12 -12 -12z" />
    <glyph glyph-name="bracketright" unicode="]" horiz-adv-x="296" 
d="M238 -244h-150c-8 0 -12 4 -12 12v32c0 7 4 11 12 11h99v860h-99c-8 0 -12 4 -12 11v32c0 8 4 12 12 12h150c8 0 12 -4 12 -12v-946c0 -8 -4 -12 -12 -12z" />
    <glyph glyph-name="braceleft" unicode="{" horiz-adv-x="310" 
d="M148 334v233c0 101 48 154 145 158c4 1 7 0 10 -2c4 -3 6 -7 6 -12v-29c0 -5 -2 -8 -6 -10l-5 -2l-4 -1c-58 -5 -87 -42 -87 -111v-236c0 -27 -7 -48 -20 -63c-5 -5 -10 -10 -16 -13c-5 -3 -9 -4 -13 -5c3 -1 7 -3 12 -6c6 -3 12 -8 17 -14c13 -16 20 -36 20 -61v-236
c0 -65 28 -101 85 -110c1 0 3 0 5 -1l5 -3c5 -3 7 -7 7 -12v-29c0 -5 -2 -8 -6 -10l-5 -2h-4c-97 5 -146 58 -146 158v233c0 45 -22 67 -66 67c-5 0 -8 3 -8 10v32c0 7 3 10 8 10c18 0 33 5 45 16c14 12 21 29 21 51z" />
    <glyph glyph-name="braceright" unicode="}" horiz-adv-x="310" 
d="M237 567v-233c0 -22 7 -39 21 -51c12 -11 27 -16 45 -16c5 0 8 -3 8 -10v-32c0 -7 -3 -10 -8 -10c-18 0 -33 -5 -45 -16c-14 -12 -21 -29 -21 -51v-233c0 -100 -49 -153 -146 -158h-4l-5 2c-4 2 -6 5 -6 10v29c0 5 2 9 7 12l6 3l5 1c56 7 84 43 84 110v236
c0 25 7 45 21 61c5 5 10 10 16 14c3 1 5 3 7 4s4 1 5 2c-2 1 -4 1 -6 2s-4 2 -7 3c-6 3 -11 8 -16 13c-13 15 -20 36 -20 63v236c0 69 -29 106 -87 111l-4 1l-5 2c-4 2 -6 5 -6 10v29c0 5 2 9 6 12c3 2 6 3 10 2c97 -4 145 -57 145 -158z" />
    <glyph glyph-name="asciitilde" unicode="~" horiz-adv-x="441" 
d="M201 211h-33c-6 0 -10 2 -11 7l-2 6l-2 9c-2 7 -3 14 -3 21c0 21 6 37 19 50s31 20 54 20c19 0 44 -6 74 -17l16 -7l17 -6c12 -3 23 -5 34 -5c17 0 25 7 25 22c0 11 -2 20 -6 28c-2 4 1 6 8 6h34c5 0 9 -2 10 -7l2 -6l2 -8c1 -7 2 -14 2 -21c0 -44 -23 -66 -70 -66
c-24 0 -50 6 -79 18l-16 7l-15 5c-11 4 -20 6 -29 6c-20 0 -30 -10 -30 -29c0 -5 1 -10 2 -15l2 -6l2 -5c3 -5 0 -7 -7 -7z" />
    <glyph glyph-name="tilde" unicode="&#x2dc;" horiz-adv-x="387" 
d="M147 570h-33c-6 0 -10 2 -11 7c-2 5 -4 10 -5 15c-1 7 -2 14 -2 21c0 21 6 37 19 50s31 20 54 20c19 0 44 -6 74 -17l16 -7l17 -6c12 -3 23 -5 34 -5c17 0 25 7 25 22c0 11 -2 20 -6 28c-2 4 1 6 8 6h34c5 0 9 -2 10 -7c4 -8 6 -20 6 -35c0 -44 -23 -66 -70 -66
c-24 0 -50 6 -79 18s-49 18 -60 18c-20 0 -30 -10 -30 -29c0 -5 1 -10 2 -15l2 -6l2 -5c3 -5 0 -7 -7 -7z" />
    <glyph glyph-name="hyphen" unicode="-" horiz-adv-x="404" 
d="M156 298h236c9 0 13 -4 13 -12v-25c0 -8 -4 -12 -13 -12h-237c-7 0 -11 4 -11 12v25c0 8 4 12 12 12z" />
    <glyph glyph-name="paragraph" unicode="&#xb6;" horiz-adv-x="583" 
d="M357 12v264h-70c-67 0 -118 20 -155 59c-35 37 -52 88 -52 152c0 65 17 116 52 153c37 40 88 60 155 60h231c8 0 12 -4 12 -12v-676c0 -8 -4 -12 -12 -12h-18c-8 0 -12 4 -12 12v653h-90v-653c0 -8 -4 -12 -12 -12h-17c-8 0 -12 4 -12 12z" />
    <glyph glyph-name="bullet" unicode="&#x2022;" horiz-adv-x="348" 
d="M323 229c-17 -17 -37 -25 -60 -25c-24 0 -44 8 -60 25c-17 17 -25 37 -25 60c0 24 8 44 25 61c16 17 36 25 60 25c23 0 43 -8 60 -25s25 -37 25 -61c0 -23 -8 -43 -25 -60z" />
    <glyph glyph-name="plusminus" unicode="&#xb1;" horiz-adv-x="491" 
d="M477 291h-137v-151c0 -8 -4 -12 -12 -12h-26c-8 0 -12 4 -12 13v150h-136c-9 0 -13 4 -13 12v24c0 8 4 12 13 12h136v145c0 8 4 12 11 12h26c9 0 13 -4 13 -12v-145h137c9 0 13 -4 13 -12v-24c0 -8 -4 -12 -13 -12zM152 56h326c8 0 12 -4 12 -12v-24c0 -8 -4 -12 -12 -12
h-326c-8 0 -12 4 -12 12v24c0 8 4 12 12 12z" />
    <glyph glyph-name="underscore" unicode="_" horiz-adv-x="412" 
d="M74 0h326c8 0 12 -4 12 -12v-24c0 -8 -4 -12 -12 -12h-326c-8 0 -12 4 -12 12v24c0 8 4 12 12 12z" />
    <glyph glyph-name="logicalnot" unicode="&#xac;" horiz-adv-x="463" 
d="M415 148v107h-242c-9 0 -13 4 -13 12v24c0 8 4 12 13 12h281c8 0 12 -4 12 -12v-144c0 -8 -4 -12 -11 -12h-29c-7 0 -11 4 -11 13z" />
    <glyph glyph-name="guillemotleft" unicode="&#xab;" horiz-adv-x="458" 
d="M112 253v22c0 9 4 18 11 25l119 115c6 6 12 6 18 0l16 -19c6 -5 6 -11 -1 -18l-113 -114l113 -113c7 -7 7 -13 1 -19l-16 -19c-6 -6 -12 -6 -18 0l-119 115c-7 7 -11 15 -11 25zM279 253v22c0 9 4 18 11 25l119 115c6 6 12 6 17 0l17 -19c6 -5 6 -11 -1 -18l-113 -114
l113 -113c7 -7 7 -13 1 -19l-17 -19c-5 -6 -11 -6 -17 0l-119 115c-7 7 -11 15 -11 25z" />
    <glyph glyph-name="guillemotright" unicode="&#xbb;" horiz-adv-x="412" 
d="M285 226l-117 -113c-5 -5 -10 -6 -15 -2l-22 24c-3 5 -2 9 2 14l116 115l-116 116c-4 5 -5 9 -2 14l21 23c5 5 10 4 16 -1l117 -114c9 -8 13 -17 13 -26v-23c0 -10 -4 -19 -13 -27zM452 226l-117 -113c-5 -5 -10 -6 -15 -2l-22 24c-3 4 -3 9 2 14l116 115l-116 116
c-5 5 -5 9 -2 14l21 23c5 5 10 4 16 -1l117 -114c9 -8 13 -17 13 -26v-23c0 -10 -4 -19 -13 -27z" />
    <glyph glyph-name="endash" unicode="&#x2013;" horiz-adv-x="549" 
d="M156 298h381c8 0 12 -4 12 -12v-25c0 -8 -4 -12 -13 -12h-380c-8 0 -12 4 -12 12v25c0 8 4 12 12 12z" />
    <glyph glyph-name="emdash" unicode="&#x2014;" horiz-adv-x="898" 
d="M156 298h731c8 0 12 -4 12 -12v-25c0 -8 -4 -12 -13 -12h-730c-8 0 -12 4 -12 12v25c0 8 4 12 12 12z" />
    <glyph glyph-name="breve" unicode="&#x2d8;" horiz-adv-x="311" 
d="M271 649h30c7 0 10 -4 10 -12c-3 -71 -39 -106 -110 -106c-33 0 -60 9 -79 28c-21 19 -31 45 -32 78c0 3 1 6 2 8c2 3 5 4 8 4h30c7 0 11 -2 11 -7c1 -17 5 -31 12 -42c10 -14 26 -21 47 -22c39 0 59 21 61 64c0 5 3 7 10 7z" />
    <glyph glyph-name="caron" unicode="&#x2c7;" horiz-adv-x="327" 
d="M95 721h31c8 0 14 -4 18 -12l58 -100l59 100c4 8 10 12 18 12h31c11 0 15 -4 10 -12l-75 -139c-4 -8 -10 -12 -18 -12h-48c-7 0 -14 4 -19 12l-75 139c-5 8 -1 12 10 12z" />
    <glyph glyph-name="cedilla" unicode="&#xb8;" horiz-adv-x="266" 
d="M210 -5l-14 -32c18 -1 34 -7 47 -18c15 -13 22 -29 22 -50c0 -22 -8 -39 -24 -52c-15 -12 -36 -18 -61 -18c-15 0 -30 3 -43 9c-5 2 -10 4 -15 7c-4 3 -7 5 -10 8s-4 6 -2 11l10 18c2 5 5 6 9 3l3 -3l5 -2c3 -3 7 -5 11 -7c11 -5 21 -7 32 -7c30 0 45 11 45 34
c0 11 -6 20 -18 27c-13 9 -32 13 -56 13c-4 0 -5 2 -3 7l21 51c2 6 6 9 13 9h21c7 0 10 -3 7 -8z" />
    <glyph glyph-name="circumflex" unicode="&#x2c6;" horiz-adv-x="336" 
d="M133 528h-31c-11 0 -14 4 -9 12l75 86c3 8 9 12 18 12h49c9 0 15 -4 18 -12l75 -86c5 -8 1 -12 -10 -12h-31c-8 0 -14 4 -18 11l-59 49l-59 -49c-4 -7 -10 -11 -18 -11z" />
    <glyph glyph-name="macron" unicode="&#xaf;" horiz-adv-x="369" 
d="M121 649h236c8 0 12 -4 12 -12v-24c0 -8 -4 -12 -13 -12h-236c-8 0 -12 4 -12 12v24c0 8 4 12 13 12z" />
    <glyph glyph-name="ogonek" unicode="&#x2db;" horiz-adv-x="254" 
d="M149 -6c10 9 21 16 34 22c5 3 10 5 15 7c4 2 8 4 12 5c6 2 10 0 11 -5l3 -15c1 -5 -2 -8 -8 -10c-3 -1 -5 -3 -8 -4l-10 -5c-8 -5 -15 -10 -22 -15c-17 -16 -25 -34 -25 -55c0 -29 14 -43 42 -43c8 0 16 2 23 5c5 2 10 5 15 9c5 3 8 3 10 -2l9 -19c2 -5 1 -9 -2 -12
c-3 -2 -5 -4 -8 -6c-5 -3 -9 -6 -13 -8c-13 -5 -26 -8 -39 -8c-53 0 -80 24 -80 73c0 33 14 62 41 86z" />
    <glyph glyph-name="ring" unicode="&#x2da;" horiz-adv-x="253" 
d="M125 582c-14 14 -21 32 -21 53s7 39 21 53c15 14 33 21 54 21s38 -7 52 -21s21 -32 21 -53s-7 -39 -21 -53s-31 -21 -52 -21s-39 7 -54 21zM179 674c-27 0 -40 -13 -40 -39c0 -27 13 -40 40 -40c26 0 39 13 39 40c0 26 -13 39 -39 39z" />
    <glyph glyph-name="acute" unicode="&#xb4;" horiz-adv-x="256" 
d="M145 564h-39c-7 0 -9 3 -6 8l47 105c3 5 8 8 14 8h58c7 0 9 -3 6 -9l-65 -104c-3 -5 -8 -8 -15 -8z" />
    <glyph glyph-name="grave" unicode="`" horiz-adv-x="256" 
d="M264 564h-39c-7 0 -12 3 -16 9l-71 106c-3 6 -1 9 6 9h58c6 0 11 -3 14 -8l54 -108c3 -5 1 -8 -6 -8z" />
    <glyph glyph-name="hungarumlaut" unicode="&#x2dd;" horiz-adv-x="379" 
d="M277 564h-39c-7 0 -9 3 -6 8l76 146c3 5 8 8 14 8h58c3 0 5 -1 6 -3c1 -1 1 -3 -1 -6l-93 -145c-3 -5 -8 -8 -15 -8zM125 564h-39c-7 0 -9 3 -6 8l76 146c2 5 7 8 14 8h58c3 0 5 -1 6 -3c1 -1 0 -3 -1 -6l-93 -145c-3 -5 -8 -8 -15 -8z" />
    <glyph glyph-name="dieresis" unicode="&#xa8;" horiz-adv-x="341" 
d="M100 605c-8 8 -12 18 -12 30c0 11 4 21 12 30c9 9 19 13 30 13s21 -4 30 -13c8 -9 12 -19 12 -30c0 -12 -4 -22 -12 -30c-9 -9 -19 -13 -30 -13s-21 4 -30 13zM270 605c-9 8 -13 18 -13 30c0 11 4 21 13 30c8 9 18 13 29 13c12 0 22 -4 31 -13c8 -9 12 -19 12 -30
c0 -12 -4 -22 -12 -30c-9 -9 -19 -13 -31 -13c-11 0 -21 4 -29 13z" />
    <glyph glyph-name="dotaccent" unicode="&#x2d9;" horiz-adv-x="177" 
d="M105 611c-9 8 -13 18 -13 30c0 11 4 21 13 30c9 8 19 12 30 12s21 -4 30 -12c8 -9 12 -19 12 -30c0 -12 -4 -22 -12 -30c-9 -9 -19 -13 -30 -13s-21 4 -30 13z" />
    <glyph glyph-name="uniF6C3" unicode="&#xf6c3;" horiz-adv-x="187" 
d="M106 -53c9 9 20 14 33 14c33 0 49 -18 49 -54c0 -32 -9 -58 -27 -79c-6 -7 -13 -14 -22 -19c-3 -2 -7 -4 -10 -5s-5 -3 -8 -4c-4 -1 -7 0 -10 4l-13 21c-2 3 -2 5 -1 6l2 1l2 1c4 1 8 3 11 4c5 3 9 5 12 8c9 7 14 14 15 23c-13 0 -24 4 -33 13s-14 20 -14 33s5 24 14 33z
" />
    <glyph glyph-name="notequal" unicode="&#x2260;" horiz-adv-x="510" 
d="M153 391h177l27 86c2 7 7 10 14 10h33c10 0 14 -4 12 -12l-26 -84h106c9 0 13 -4 13 -12v-25c0 -8 -4 -12 -13 -12h-122l-43 -143h165c9 0 13 -4 13 -12v-24c0 -8 -4 -12 -13 -12h-180l-25 -80c-2 -7 -7 -11 -15 -11h-32c-10 0 -14 4 -12 13l24 78h-104
c-8 0 -12 4 -12 12v24c0 8 4 12 13 12h118l44 143h-163c-8 0 -12 4 -12 12v25c0 8 4 12 13 12z" />
    <glyph glyph-name="multiply" unicode="&#xd7;" horiz-adv-x="455" 
d="M447 391l-117 -117l117 -117c6 -6 6 -12 0 -17l-18 -18c-5 -5 -11 -5 -17 1l-117 117l-116 -117c-5 -7 -11 -7 -17 -1l-18 18c-5 5 -5 11 0 17l117 117l-117 117c-5 5 -5 11 0 17l18 18c7 5 12 5 16 -1l117 -117l117 117c6 5 12 6 17 1l18 -18c6 -6 6 -12 0 -17z" />
    <glyph glyph-name="trademark" unicode="&#x2122;" horiz-adv-x="796" 
d="M128 706h272c7 0 11 -4 11 -13v-17c0 -8 -4 -12 -12 -12h-108v-308c0 -8 -4 -12 -12 -12h-28c-8 0 -12 4 -12 13v307h-111c-8 0 -12 4 -12 12v17c0 9 4 13 12 13zM729 357v272l-101 -221c-3 -7 -11 -11 -22 -11c-12 0 -19 4 -22 11l-100 221v-273c0 -8 -4 -12 -12 -12
h-20c-9 0 -13 4 -13 13v337c0 8 4 12 13 12h31c7 0 13 -4 16 -12l107 -242l109 242c1 4 4 7 7 9s7 3 10 3h29c8 0 12 -4 12 -12v-338c0 -8 -4 -12 -12 -12h-20c-8 0 -12 4 -12 13z" />
    <glyph glyph-name="bar" unicode="|" horiz-adv-x="224" 
d="M224 724v-966c0 -8 -4 -12 -12 -12h-32c-8 0 -12 4 -12 12v966c0 8 4 12 12 12h32c8 0 12 -4 12 -12z" />
    <glyph glyph-name="brokenbar" unicode="&#xa6;" horiz-adv-x="226" 
d="M170 367v357c0 8 4 12 12 12h31c9 0 13 -4 13 -13v-357c0 -8 -4 -12 -12 -12h-31c-9 0 -13 4 -13 13zM170 -241v425c0 8 4 12 12 12h31c9 0 13 -4 13 -13v-425c0 -8 -4 -12 -12 -12h-31c-9 0 -13 4 -13 13z" />
    <glyph glyph-name="Aacute" unicode="&#xe1;" horiz-adv-x="504" 
d="M511 37v-26c0 -9 -9 -13 -28 -13c-47 0 -70 25 -70 74v26c-6 -12 -13 -23 -21 -34c-9 -13 -20 -24 -33 -33c-32 -25 -71 -37 -118 -37c-49 0 -86 11 -113 33c-27 21 -40 51 -40 90c0 85 61 127 183 127h136v78c0 75 -39 112 -117 112c-37 0 -67 -9 -88 -26
c-20 -16 -30 -38 -30 -66c0 -5 1 -11 2 -18c1 -5 2 -11 3 -16c2 -6 -1 -9 -10 -9h-31c-9 0 -16 7 -20 21c-1 5 -2 10 -2 17l-1 9v7c0 39 15 71 46 96c32 26 76 39 132 39c119 0 179 -56 179 -168v-221c0 -31 10 -48 31 -51c7 -1 10 -5 10 -11zM407 174v24h-136
c-79 0 -118 -25 -118 -76c0 -25 9 -44 27 -57c19 -14 44 -21 75 -21c27 0 52 7 74 20c17 11 33 26 47 45c15 22 26 44 31 65zM304 564h-39c-7 0 -9 3 -6 8l47 105c3 5 8 8 14 8h58c7 0 9 -3 6 -9l-65 -104c-3 -5 -8 -8 -15 -8z" />
    <glyph glyph-name="A" unicode="a" horiz-adv-x="504" 
d="M511 37v-26c0 -9 -9 -13 -28 -13c-47 0 -70 25 -70 74v26c-6 -12 -13 -23 -21 -34c-9 -13 -20 -24 -33 -33c-32 -25 -71 -37 -118 -37c-49 0 -86 11 -113 33c-27 21 -40 51 -40 90c0 85 61 127 183 127h136v78c0 75 -39 112 -117 112c-37 0 -67 -9 -88 -26
c-20 -16 -30 -38 -30 -66c0 -5 1 -11 2 -18c1 -5 2 -11 3 -16c2 -6 -1 -9 -10 -9h-31c-9 0 -16 7 -20 21c-1 5 -2 10 -2 17l-1 9v7c0 39 15 71 46 96c32 26 76 39 132 39c119 0 179 -56 179 -168v-221c0 -31 10 -48 31 -51c7 -1 10 -5 10 -11zM407 174v24h-136
c-79 0 -118 -25 -118 -76c0 -25 9 -44 27 -57c19 -14 44 -21 75 -21c27 0 52 7 74 20c17 11 33 26 47 45c15 22 26 44 31 65z" />
    <glyph glyph-name="abreve" unicode="&#x103;" horiz-adv-x="504" 
d="M511 37v-26c0 -9 -9 -13 -28 -13c-47 0 -70 25 -70 74v26c-6 -12 -13 -23 -21 -34c-9 -13 -20 -24 -33 -33c-32 -25 -71 -37 -118 -37c-49 0 -86 11 -113 33c-27 21 -40 51 -40 90c0 85 61 127 183 127h136v78c0 75 -39 112 -117 112c-37 0 -67 -9 -88 -26
c-20 -16 -30 -38 -30 -66c0 -5 1 -11 2 -18c1 -5 2 -11 3 -16c2 -6 -1 -9 -10 -9h-31c-9 0 -16 7 -20 21c-1 5 -2 10 -2 17l-1 9v7c0 39 15 71 46 96c32 26 76 39 132 39c119 0 179 -56 179 -168v-221c0 -31 10 -48 31 -51c7 -1 10 -5 10 -11zM407 174v24h-136
c-79 0 -118 -25 -118 -76c0 -25 9 -44 27 -57c19 -14 44 -21 75 -21c27 0 52 7 74 20c17 11 33 26 47 45c15 22 26 44 31 65zM370 649h30c7 0 10 -4 10 -12c-3 -71 -39 -106 -110 -106c-33 0 -60 9 -79 28c-21 19 -31 45 -32 78c0 3 1 6 2 8c2 3 5 4 8 4h30c7 0 11 -2 11 -7
c1 -17 5 -31 12 -42c10 -14 26 -21 47 -22c39 0 59 21 61 64c0 5 3 7 10 7z" />
    <glyph glyph-name="Acircumflex" unicode="&#xe2;" horiz-adv-x="504" 
d="M511 37v-26c0 -9 -9 -13 -28 -13c-47 0 -70 25 -70 74v26c-6 -12 -13 -23 -21 -34c-9 -13 -20 -24 -33 -33c-32 -25 -71 -37 -118 -37c-49 0 -86 11 -113 33c-27 21 -40 51 -40 90c0 85 61 127 183 127h136v78c0 75 -39 112 -117 112c-37 0 -67 -9 -88 -26
c-20 -16 -30 -38 -30 -66c0 -5 1 -11 2 -18c1 -5 2 -11 3 -16c2 -6 -1 -9 -10 -9h-31c-9 0 -16 7 -20 21c-1 5 -2 10 -2 17l-1 9v7c0 39 15 71 46 96c32 26 76 39 132 39c119 0 179 -56 179 -168v-221c0 -31 10 -48 31 -51c7 -1 10 -5 10 -11zM407 174v24h-136
c-79 0 -118 -25 -118 -76c0 -25 9 -44 27 -57c19 -14 44 -21 75 -21c27 0 52 7 74 20c17 11 33 26 47 45c15 22 26 44 31 65zM222 528h-31c-11 0 -14 4 -9 12l75 86c3 8 9 12 18 12h49c9 0 15 -4 18 -12l75 -86c5 -8 1 -12 -10 -12h-31c-8 0 -14 4 -18 11l-59 49l-59 -49
c-4 -7 -10 -11 -18 -11z" />
    <glyph glyph-name="Adieresis" unicode="&#xe4;" horiz-adv-x="504" 
d="M511 37v-26c0 -9 -9 -13 -28 -13c-47 0 -70 25 -70 74v26c-6 -12 -13 -23 -21 -34c-9 -13 -20 -24 -33 -33c-32 -25 -71 -37 -118 -37c-49 0 -86 11 -113 33c-27 21 -40 51 -40 90c0 85 61 127 183 127h136v78c0 75 -39 112 -117 112c-37 0 -67 -9 -88 -26
c-20 -16 -30 -38 -30 -66c0 -5 1 -11 2 -18c1 -5 2 -11 3 -16c2 -6 -1 -9 -10 -9h-31c-9 0 -16 7 -20 21c-1 5 -2 10 -2 17l-1 9v7c0 39 15 71 46 96c32 26 76 39 132 39c119 0 179 -56 179 -168v-221c0 -31 10 -48 31 -51c7 -1 10 -5 10 -11zM407 174v24h-136
c-79 0 -118 -25 -118 -76c0 -25 9 -44 27 -57c19 -14 44 -21 75 -21c27 0 52 7 74 20c17 11 33 26 47 45c15 22 26 44 31 65zM181 605c-8 8 -12 18 -12 30c0 11 4 21 12 30c9 9 19 13 30 13s21 -4 30 -13c8 -9 12 -19 12 -30c0 -12 -4 -22 -12 -30c-9 -9 -19 -13 -30 -13
s-21 4 -30 13zM351 605c-9 8 -13 18 -13 30c0 11 4 21 13 30c8 9 18 13 29 13c12 0 22 -4 31 -13c8 -9 12 -19 12 -30c0 -12 -4 -22 -12 -30c-9 -9 -19 -13 -31 -13c-11 0 -21 4 -29 13z" />
    <glyph glyph-name="Agrave" unicode="&#xe0;" horiz-adv-x="504" 
d="M511 37v-26c0 -9 -9 -13 -28 -13c-47 0 -70 25 -70 74v26c-6 -12 -13 -23 -21 -34c-9 -13 -20 -24 -33 -33c-32 -25 -71 -37 -118 -37c-49 0 -86 11 -113 33c-27 21 -40 51 -40 90c0 85 61 127 183 127h136v78c0 75 -39 112 -117 112c-37 0 -67 -9 -88 -26
c-20 -16 -30 -38 -30 -66c0 -5 1 -11 2 -18c1 -5 2 -11 3 -16c2 -6 -1 -9 -10 -9h-31c-9 0 -16 7 -20 21c-1 5 -2 10 -2 17l-1 9v7c0 39 15 71 46 96c32 26 76 39 132 39c119 0 179 -56 179 -168v-221c0 -31 10 -48 31 -51c7 -1 10 -5 10 -11zM407 174v24h-136
c-79 0 -118 -25 -118 -76c0 -25 9 -44 27 -57c19 -14 44 -21 75 -21c27 0 52 7 74 20c17 11 33 26 47 45c15 22 26 44 31 65zM337 564h-39c-7 0 -12 3 -16 9l-71 106c-3 6 -1 9 6 9h58c6 0 11 -3 14 -8l54 -108c3 -5 1 -8 -6 -8z" />
    <glyph glyph-name="amacron" unicode="&#x101;" horiz-adv-x="504" 
d="M511 37v-26c0 -9 -9 -13 -28 -13c-47 0 -70 25 -70 74v26c-6 -12 -13 -23 -21 -34c-9 -13 -20 -24 -33 -33c-32 -25 -71 -37 -118 -37c-49 0 -86 11 -113 33c-27 21 -40 51 -40 90c0 85 61 127 183 127h136v78c0 75 -39 112 -117 112c-37 0 -67 -9 -88 -26
c-20 -16 -30 -38 -30 -66c0 -5 1 -11 2 -18c1 -5 2 -11 3 -16c2 -6 -1 -9 -10 -9h-31c-9 0 -16 7 -20 21c-1 5 -2 10 -2 17l-1 9v7c0 39 15 71 46 96c32 26 76 39 132 39c119 0 179 -56 179 -168v-221c0 -31 10 -48 31 -51c7 -1 10 -5 10 -11zM407 174v24h-136
c-79 0 -118 -25 -118 -76c0 -25 9 -44 27 -57c19 -14 44 -21 75 -21c27 0 52 7 74 20c17 11 33 26 47 45c15 22 26 44 31 65zM176 649h236c8 0 12 -4 12 -12v-24c0 -8 -4 -12 -13 -12h-236c-8 0 -12 4 -12 12v24c0 8 4 12 13 12z" />
    <glyph glyph-name="aogonek" unicode="&#x105;" horiz-adv-x="504" 
d="M519 -111l10 -20c2 -5 1 -9 -2 -12c-3 -2 -5 -4 -8 -6c-5 -3 -9 -6 -13 -8c-13 -5 -26 -8 -39 -8c-53 0 -80 24 -80 73c0 23 6 43 19 61c9 14 23 26 40 37c-22 12 -33 34 -33 66v26c-6 -12 -13 -23 -21 -34c-9 -13 -20 -24 -33 -33c-32 -25 -71 -37 -118 -37
c-49 0 -86 11 -113 33c-27 21 -40 51 -40 90c0 85 61 127 183 127h136v78c0 75 -39 112 -117 112c-37 0 -67 -9 -88 -26c-20 -16 -30 -38 -30 -66c0 -5 1 -10 2 -17l2 -8l1 -7c1 -7 -2 -11 -10 -11h-31c-9 0 -16 7 -20 20c-1 5 -2 10 -2 17l-1 9v8c0 39 15 71 46 96
c32 26 76 39 132 39c119 0 179 -56 179 -168v-221c0 -32 10 -49 30 -51c7 -1 11 -5 11 -11v-26c0 -5 -4 -9 -13 -12c-7 -2 -13 -5 -20 -9c-9 -5 -16 -10 -23 -16c-17 -15 -26 -34 -26 -55c0 -29 14 -43 43 -43c8 0 16 2 23 5c5 2 10 5 15 9c5 3 8 3 9 -1zM407 174v24h-136
c-79 0 -118 -25 -118 -76c0 -25 9 -44 27 -57c19 -14 44 -21 75 -21c27 0 52 7 74 20c17 11 33 26 47 45c15 22 26 44 31 65z" />
    <glyph glyph-name="Aring" unicode="&#xe5;" horiz-adv-x="504" 
d="M511 37v-26c0 -9 -9 -13 -28 -13c-47 0 -70 25 -70 74v26c-6 -12 -13 -23 -21 -34c-9 -13 -20 -24 -33 -33c-32 -25 -71 -37 -118 -37c-49 0 -86 11 -113 33c-27 21 -40 51 -40 90c0 85 61 127 183 127h136v78c0 75 -39 112 -117 112c-37 0 -67 -9 -88 -26
c-20 -16 -30 -38 -30 -66c0 -5 1 -11 2 -18c1 -5 2 -11 3 -16c2 -6 -1 -9 -10 -9h-31c-9 0 -16 7 -20 21c-1 5 -2 10 -2 17l-1 9v7c0 39 15 71 46 96c32 26 76 39 132 39c119 0 179 -56 179 -168v-221c0 -31 10 -48 31 -51c7 -1 10 -5 10 -11zM407 174v24h-136
c-79 0 -118 -25 -118 -76c0 -25 9 -44 27 -57c19 -14 44 -21 75 -21c27 0 52 7 74 20c17 11 33 26 47 45c15 22 26 44 31 65zM242 582c-14 14 -21 32 -21 53s7 39 21 53c15 14 33 21 54 21s38 -7 52 -21s21 -32 21 -53s-7 -39 -21 -53s-31 -21 -52 -21s-39 7 -54 21z
M296 674c-27 0 -40 -13 -40 -39c0 -27 13 -40 40 -40c26 0 39 13 39 40c0 26 -13 39 -39 39z" />
    <glyph glyph-name="Atilde" unicode="&#xe3;" horiz-adv-x="504" 
d="M511 37v-26c0 -9 -9 -13 -28 -13c-47 0 -70 25 -70 74v26c-6 -12 -13 -23 -21 -34c-9 -13 -20 -24 -33 -33c-32 -25 -71 -37 -118 -37c-49 0 -86 11 -113 33c-27 21 -40 51 -40 90c0 85 61 127 183 127h136v78c0 75 -39 112 -117 112c-37 0 -67 -9 -88 -26
c-20 -16 -30 -38 -30 -66c0 -5 1 -11 2 -18c1 -5 2 -11 3 -16c2 -6 -1 -9 -10 -9h-31c-9 0 -16 7 -20 21c-1 5 -2 10 -2 17l-1 9v7c0 39 15 71 46 96c32 26 76 39 132 39c119 0 179 -56 179 -168v-221c0 -31 10 -48 31 -51c7 -1 10 -5 10 -11zM407 174v24h-136
c-79 0 -118 -25 -118 -76c0 -25 9 -44 27 -57c19 -14 44 -21 75 -21c27 0 52 7 74 20c17 11 33 26 47 45c15 22 26 44 31 65zM189 570h-33c-6 0 -10 2 -11 7c-2 5 -4 10 -5 15c-1 7 -2 14 -2 21c0 21 6 37 19 50s31 20 54 20c19 0 44 -6 74 -17l16 -7l17 -6
c12 -3 23 -5 34 -5c17 0 25 7 25 22c0 11 -2 20 -6 28c-2 4 1 6 8 6h34c5 0 9 -2 10 -7l2 -6l2 -8c1 -7 2 -14 2 -21c0 -44 -23 -66 -70 -66c-15 0 -29 2 -44 6c-10 3 -22 7 -35 12c-29 12 -49 18 -60 18c-20 0 -30 -10 -30 -29c0 -5 1 -10 2 -15l2 -6l2 -5c3 -5 0 -7 -7 -7
z" />
    <glyph glyph-name="cacute" unicode="&#x107;" horiz-adv-x="483" 
d="M160 429c36 39 87 59 153 59c55 0 97 -14 127 -42c27 -26 41 -60 41 -102v-14c-1 -6 -1 -11 -2 -16c-3 -13 -10 -19 -19 -19h-23c-11 0 -17 4 -17 11c0 2 0 6 1 13s1 12 1 16c0 30 -9 54 -27 71c-19 19 -47 29 -82 29c-99 0 -149 -64 -149 -193c0 -70 18 -122 54 -156
c28 -26 62 -39 102 -39c29 0 56 7 81 21c9 5 18 12 26 19c6 5 11 11 16 17c7 9 13 10 19 4l17 -18c6 -6 7 -12 3 -18c-5 -7 -12 -15 -19 -22c-11 -10 -22 -19 -34 -26c-33 -20 -72 -30 -116 -30c-59 0 -107 18 -144 54c-45 43 -67 108 -67 193c0 83 19 145 58 188zM297 564
h-39c-7 0 -9 3 -6 8l47 105c3 5 8 8 14 8h58c7 0 9 -3 6 -9l-65 -104c-3 -5 -8 -8 -15 -8z" />
    <glyph glyph-name="ccaron" unicode="&#x10d;" horiz-adv-x="483" 
d="M211 721h31c8 0 14 -4 18 -12l58 -100l59 100c4 8 10 12 18 12h31c11 0 15 -4 10 -12l-75 -139c-4 -8 -10 -12 -18 -12h-48c-7 0 -14 4 -19 12l-75 139c-5 8 -1 12 10 12zM160 429c36 39 87 59 153 59c55 0 97 -14 127 -42c27 -26 41 -60 41 -102v-14
c-1 -6 -1 -11 -2 -16c-3 -13 -10 -19 -19 -19h-23c-11 0 -17 4 -17 11c0 2 0 6 1 13s1 12 1 16c0 30 -9 54 -27 71c-19 19 -47 29 -82 29c-99 0 -149 -64 -149 -193c0 -70 18 -122 54 -156c28 -26 62 -39 102 -39c29 0 56 7 81 21c9 5 18 12 26 19c6 5 11 11 16 17
c7 9 13 10 19 4l17 -18c6 -6 7 -12 3 -18c-5 -7 -12 -15 -19 -22c-11 -10 -22 -19 -34 -26c-33 -20 -72 -30 -116 -30c-59 0 -107 18 -144 54c-45 43 -67 108 -67 193c0 83 19 145 58 188z" />
    <glyph glyph-name="Ccedilla" unicode="&#xe7;" horiz-adv-x="483" 
d="M160 429c36 39 87 59 153 59c55 0 97 -14 127 -42c27 -26 41 -60 41 -102c0 -17 -2 -29 -5 -38c-3 -7 -8 -11 -16 -11h-20c-13 0 -20 4 -20 11c0 2 0 6 1 13s1 12 1 16c0 30 -9 54 -27 71c-19 19 -47 29 -82 29c-99 0 -149 -64 -149 -193c0 -70 18 -122 54 -156
c28 -26 62 -39 102 -39c29 0 56 7 80 21c9 5 18 12 26 19c5 5 11 11 16 17c7 9 13 11 18 6l19 -20c6 -6 7 -12 3 -18c-3 -3 -5 -6 -8 -9c-3 -4 -7 -8 -10 -12c-9 -9 -20 -17 -31 -24c-30 -19 -65 -30 -104 -32c-4 -9 -8 -20 -13 -32c17 -1 33 -7 46 -18
c15 -13 23 -29 23 -50c0 -22 -8 -39 -24 -52c-15 -12 -36 -18 -61 -18c-16 0 -31 3 -44 9c-11 4 -19 9 -24 15c-3 4 -3 8 -2 11l9 18c1 3 3 4 5 5c1 0 3 -1 5 -2l3 -3l5 -2c3 -3 7 -5 11 -7c11 -5 21 -7 32 -7c29 0 44 11 44 34c0 11 -5 20 -16 27c-13 9 -32 13 -57 13
c-2 0 -3 1 -4 2s-1 3 0 5l22 53c-54 5 -97 25 -129 61c-39 43 -58 105 -58 184c0 83 19 145 58 188z" />
    <glyph glyph-name="ccircumflex" unicode="&#x109;" horiz-adv-x="483" 
d="M160 429c36 39 87 59 153 59c55 0 97 -14 127 -42c27 -26 41 -60 41 -102v-14c-1 -6 -1 -11 -2 -16c-3 -13 -10 -19 -19 -19h-23c-11 0 -17 4 -17 11c0 2 0 6 1 13s1 12 1 16c0 30 -9 54 -27 71c-19 19 -47 29 -82 29c-99 0 -149 -64 -149 -193c0 -70 18 -122 54 -156
c28 -26 62 -39 102 -39c29 0 56 7 81 21c9 5 18 12 26 19c6 5 11 11 16 17c7 9 13 10 19 4l17 -18c6 -6 7 -12 3 -18c-5 -7 -12 -15 -19 -22c-11 -10 -22 -19 -34 -26c-33 -20 -72 -30 -116 -30c-59 0 -107 18 -144 54c-45 43 -67 108 -67 193c0 83 19 145 58 188zM216 528
h-31c-11 0 -14 4 -9 12l75 86c3 8 9 12 18 12h49c9 0 15 -4 18 -12l75 -86c5 -8 1 -12 -10 -12h-31c-8 0 -14 4 -18 11l-59 49l-59 -49c-4 -7 -10 -11 -18 -11z" />
    <glyph glyph-name="cdotaccent" unicode="&#x10b;" horiz-adv-x="483" 
d="M160 429c36 39 87 59 153 59c55 0 97 -14 127 -42c27 -26 41 -60 41 -102v-14c-1 -6 -1 -11 -2 -16c-3 -13 -10 -19 -19 -19h-23c-11 0 -17 4 -17 11c0 2 0 6 1 13s1 12 1 16c0 30 -9 54 -27 71c-19 19 -47 29 -82 29c-99 0 -149 -64 -149 -193c0 -70 18 -122 54 -156
c28 -26 62 -39 102 -39c29 0 56 7 81 21c9 5 18 12 26 19c6 5 11 11 16 17c7 9 13 10 19 4l17 -18c6 -6 7 -12 3 -18c-5 -7 -12 -15 -19 -22c-11 -10 -22 -19 -34 -26c-33 -20 -72 -30 -116 -30c-59 0 -107 18 -144 54c-45 43 -67 108 -67 193c0 83 19 145 58 188zM287 611
c-9 8 -13 18 -13 30c0 11 4 21 13 30c9 8 19 12 30 12s21 -4 30 -12c8 -9 12 -19 12 -30c0 -12 -4 -22 -12 -30c-9 -9 -19 -13 -30 -13s-21 4 -30 13z" />
    <glyph glyph-name="dcaron" unicode="&#x10f;" horiz-adv-x="547" 
d="M579 714c9 9 20 14 33 14c33 0 49 -18 49 -54c0 -32 -9 -58 -27 -79c-6 -7 -13 -14 -22 -19c-3 -2 -7 -4 -10 -5s-5 -3 -8 -4c-4 -1 -7 0 -10 4l-13 21c-2 3 -2 5 -1 6l2 1l2 1c4 1 8 3 11 4c5 3 9 5 12 8c9 7 14 14 15 23c-13 0 -24 4 -33 13s-14 20 -14 33s5 24 14 33z
M450 167v165c0 1 -1 4 -2 7c-1 4 -3 8 -5 13c-6 13 -14 24 -23 35c-29 32 -66 48 -111 48c-42 0 -76 -16 -102 -48c-29 -35 -43 -85 -43 -148c0 -62 15 -110 44 -145c27 -31 61 -47 102 -47c49 0 87 20 114 60c8 13 15 27 20 42c2 5 3 9 4 14zM554 37v-27
c0 -8 -9 -12 -28 -12c-47 0 -70 24 -70 72v22l-3 -7l-3 -5l-4 -7c-7 -12 -16 -23 -27 -33c-31 -31 -73 -46 -124 -46c-53 0 -98 19 -133 58c-40 44 -60 106 -60 187c0 84 20 148 60 191c35 39 82 58 139 58c46 0 84 -12 115 -37c10 -8 18 -17 25 -27c3 -3 5 -6 7 -9l1 -3
l1 -2v304c0 8 4 12 12 12h39c8 0 12 -4 12 -13v-612c0 -33 10 -50 31 -53c3 0 5 -1 7 -2c2 -2 3 -5 3 -9z" />
    <glyph glyph-name="dcroat" unicode="&#x111;" horiz-adv-x="547" 
d="M554 38v-27c0 -8 -9 -12 -28 -12c-47 0 -70 24 -70 72v22l-3 -7l-3 -5l-4 -7c-7 -12 -16 -23 -27 -33c-31 -31 -73 -46 -124 -46c-53 0 -98 19 -133 58c-40 44 -60 106 -60 187c0 84 20 148 60 191c35 39 82 58 139 58c46 0 84 -12 115 -37c10 -8 18 -17 25 -27
c3 -3 5 -6 7 -9l1 -3l1 -2v175h-140c-8 0 -12 4 -12 12v27c0 7 4 11 12 11h140v79c0 8 4 12 12 12h39c8 0 12 -4 12 -13v-78h44c8 0 12 -4 12 -11v-27c0 -8 -4 -12 -13 -12h-43v-484c0 -33 10 -50 31 -53c3 0 5 -1 7 -2c2 -2 3 -5 3 -9zM450 168v165c0 1 -1 4 -2 7
c-1 4 -3 8 -5 13c-6 13 -14 24 -23 35c-29 32 -66 48 -111 48c-42 0 -76 -16 -102 -48c-29 -35 -43 -85 -43 -148c0 -62 15 -110 44 -145c27 -31 61 -47 102 -47c49 0 87 20 114 60c8 13 15 27 20 42c2 5 3 9 4 14z" />
    <glyph glyph-name="Eacute" unicode="&#xe9;" horiz-adv-x="488" 
d="M472 245h-306v-12c1 -67 20 -117 56 -149c27 -25 60 -37 99 -37c29 0 55 7 79 21c9 5 17 12 25 19c6 5 12 11 17 17c8 8 14 10 17 6l21 -21c6 -5 7 -10 2 -17c-2 -3 -4 -6 -7 -9c-3 -4 -7 -8 -11 -12c-10 -10 -21 -19 -33 -26c-33 -21 -72 -31 -117 -31
c-59 0 -108 18 -145 54c-45 43 -67 108 -67 193c0 165 69 247 208 247c118 0 177 -75 177 -226c0 -11 -5 -17 -15 -17zM167 290h260c0 97 -40 145 -121 145c-83 0 -130 -48 -139 -145zM299 564h-39c-7 0 -9 3 -6 8l47 105c3 5 8 8 14 8h58c7 0 9 -3 6 -9l-65 -104
c-3 -5 -8 -8 -15 -8z" />
    <glyph glyph-name="ebreve" unicode="&#x115;" horiz-adv-x="488" 
d="M472 245h-306v-12c1 -67 20 -117 56 -149c27 -25 60 -37 99 -37c29 0 55 7 79 21c9 5 17 12 25 19c6 5 12 11 17 17c8 8 14 10 17 6l21 -21c6 -5 7 -10 2 -17c-2 -3 -4 -6 -7 -9c-3 -4 -7 -8 -11 -12c-10 -10 -21 -19 -33 -26c-33 -21 -72 -31 -117 -31
c-59 0 -108 18 -145 54c-45 43 -67 108 -67 193c0 165 69 247 208 247c118 0 177 -75 177 -226c0 -11 -5 -17 -15 -17zM167 290h260c0 97 -40 145 -121 145c-83 0 -130 -48 -139 -145zM365 649h30c7 0 10 -4 10 -12c-3 -71 -39 -106 -110 -106c-33 0 -60 9 -79 28
c-21 19 -31 45 -32 78c0 3 1 6 2 8c2 3 5 4 8 4h30c7 0 11 -2 11 -7c1 -17 5 -31 12 -42c10 -14 26 -21 47 -22c39 0 59 21 61 64c0 5 3 7 10 7z" />
    <glyph glyph-name="ecaron" unicode="&#x11b;" horiz-adv-x="488" 
d="M202 721h31c8 0 14 -4 18 -12l58 -100l59 100c4 8 10 12 18 12h31c11 0 15 -4 10 -12l-75 -139c-4 -8 -10 -12 -18 -12h-48c-7 0 -14 4 -19 12l-75 139c-5 8 -1 12 10 12zM472 245h-306v-12c1 -67 20 -117 56 -149c27 -25 60 -37 99 -37c29 0 55 7 79 21c9 5 17 12 25 19
c6 5 12 11 17 17c8 8 14 10 17 6l21 -21c6 -5 7 -10 2 -17c-2 -3 -4 -6 -7 -9c-3 -4 -7 -8 -11 -12c-10 -10 -21 -19 -33 -26c-33 -21 -72 -31 -117 -31c-59 0 -108 18 -145 54c-45 43 -67 108 -67 193c0 165 69 247 208 247c118 0 177 -75 177 -226c0 -11 -5 -17 -15 -17z
M167 290h260c0 97 -40 145 -121 145c-83 0 -130 -48 -139 -145z" />
    <glyph glyph-name="Ecircumflex" unicode="&#xea;" horiz-adv-x="488" 
d="M472 245h-306v-12c1 -67 20 -117 56 -149c27 -25 60 -37 99 -37c29 0 55 7 79 21c9 5 17 12 25 19c6 5 12 11 17 17c8 8 14 10 17 6l21 -21c6 -5 7 -10 2 -17c-2 -3 -4 -6 -7 -9c-3 -4 -7 -8 -11 -12c-10 -10 -21 -19 -33 -26c-33 -21 -72 -31 -117 -31
c-59 0 -108 18 -145 54c-45 43 -67 108 -67 193c0 165 69 247 208 247c118 0 177 -75 177 -226c0 -11 -5 -17 -15 -17zM167 290h260c0 97 -40 145 -121 145c-83 0 -130 -48 -139 -145zM217 528h-31c-11 0 -14 4 -9 12l75 86c3 8 9 12 18 12h49c9 0 15 -4 18 -12l75 -86
c5 -8 1 -12 -10 -12h-31c-8 0 -14 4 -18 11l-59 49l-59 -49c-4 -7 -10 -11 -18 -11z" />
    <glyph glyph-name="Edieresis" unicode="&#xeb;" horiz-adv-x="488" 
d="M197 605c-8 8 -12 18 -12 30c0 11 4 21 12 30c9 9 19 13 30 13s21 -4 30 -13c8 -9 12 -19 12 -30c0 -12 -4 -22 -12 -30c-9 -9 -19 -13 -30 -13s-21 4 -30 13zM367 605c-9 8 -13 18 -13 30c0 11 4 21 13 30c8 9 18 13 29 13c12 0 22 -4 31 -13c8 -9 12 -19 12 -30
c0 -12 -4 -22 -12 -30c-9 -9 -19 -13 -31 -13c-11 0 -21 4 -29 13zM472 245h-306v-12c1 -67 20 -117 56 -149c27 -25 60 -37 99 -37c29 0 55 7 79 21c9 5 17 12 25 19c6 5 12 11 17 17c8 8 14 10 17 6l21 -21c6 -5 7 -10 2 -17c-2 -3 -4 -6 -7 -9c-3 -4 -7 -8 -11 -12
c-10 -10 -21 -19 -33 -26c-33 -21 -72 -31 -117 -31c-59 0 -108 18 -145 54c-45 43 -67 108 -67 193c0 165 69 247 208 247c118 0 177 -75 177 -226c0 -11 -5 -17 -15 -17zM167 290h260c0 97 -40 145 -121 145c-83 0 -130 -48 -139 -145z" />
    <glyph glyph-name="edotaccent" unicode="&#x117;" horiz-adv-x="488" 
d="M472 245h-306v-12c1 -67 20 -117 56 -149c27 -25 60 -37 99 -37c29 0 55 7 79 21c9 5 17 12 25 19c6 5 12 11 17 17c8 8 14 10 17 6l21 -21c6 -5 7 -10 2 -17c-2 -3 -4 -6 -7 -9c-3 -4 -7 -8 -11 -12c-10 -10 -21 -19 -33 -26c-33 -21 -72 -31 -117 -31
c-59 0 -108 18 -145 54c-45 43 -67 108 -67 193c0 165 69 247 208 247c118 0 177 -75 177 -226c0 -11 -5 -17 -15 -17zM167 290h260c0 97 -40 145 -121 145c-83 0 -130 -48 -139 -145zM279 611c-9 8 -13 18 -13 30c0 11 4 21 13 30c9 8 19 12 30 12s21 -4 30 -12
c8 -9 12 -19 12 -30c0 -12 -4 -22 -12 -30c-9 -9 -19 -13 -30 -13s-21 4 -30 13z" />
    <glyph glyph-name="Egrave" unicode="&#xe8;" horiz-adv-x="488" 
d="M472 245h-306v-12c1 -67 20 -117 56 -149c27 -25 60 -37 99 -37c29 0 55 7 79 21c9 5 17 12 25 19c6 5 12 11 17 17c8 8 14 10 17 6l21 -21c6 -5 7 -10 2 -17c-2 -3 -4 -6 -7 -9c-3 -4 -7 -8 -11 -12c-10 -10 -21 -19 -33 -26c-33 -21 -72 -31 -117 -31
c-59 0 -108 18 -145 54c-45 43 -67 108 -67 193c0 165 69 247 208 247c118 0 177 -75 177 -226c0 -11 -5 -17 -15 -17zM167 290h260c0 97 -40 145 -121 145c-83 0 -130 -48 -139 -145zM332 564h-39c-7 0 -12 3 -16 9l-71 106c-3 6 -1 9 6 9h58c6 0 11 -3 14 -8l54 -108
c3 -5 1 -8 -6 -8z" />
    <glyph glyph-name="emacron" unicode="&#x113;" horiz-adv-x="488" 
d="M472 245h-306v-12c1 -67 20 -117 56 -149c27 -25 60 -37 99 -37c29 0 55 7 79 21c9 5 17 12 25 19c6 5 12 11 17 17c8 8 14 10 17 6l21 -21c6 -5 7 -10 2 -17c-2 -3 -4 -6 -7 -9c-3 -4 -7 -8 -11 -12c-10 -10 -21 -19 -33 -26c-33 -21 -72 -31 -117 -31
c-59 0 -108 18 -145 54c-45 43 -67 108 -67 193c0 165 69 247 208 247c118 0 177 -75 177 -226c0 -11 -5 -17 -15 -17zM167 290h260c0 97 -40 145 -121 145c-83 0 -130 -48 -139 -145zM192 649h236c8 0 12 -4 12 -12v-24c0 -8 -4 -12 -13 -12h-236c-8 0 -12 4 -12 12v24
c0 8 4 12 13 12z" />
    <glyph glyph-name="eogonek" unicode="&#x119;" horiz-adv-x="488" 
d="M310 488c118 0 177 -75 177 -226c0 -11 -5 -17 -15 -17h-306v-12c1 -67 20 -117 56 -149c27 -25 60 -37 99 -37c29 0 55 7 79 21c9 5 17 12 25 19c6 5 12 11 17 17c8 8 14 10 17 6l21 -21c6 -5 7 -10 2 -17c-2 -3 -4 -5 -6 -8c-3 -3 -6 -7 -9 -10c-8 -8 -17 -15 -26 -22
c-26 -19 -56 -30 -90 -35c-3 -1 -6 -3 -8 -4l-10 -6c-9 -5 -16 -10 -21 -15c-17 -15 -25 -33 -25 -54c0 -29 14 -43 42 -43c8 0 16 2 23 5c5 2 10 5 15 9s8 4 10 -1l9 -20c2 -5 1 -8 -2 -11l-4 -3l-5 -3c-4 -3 -8 -6 -13 -8c-12 -5 -25 -8 -38 -8c-53 0 -80 24 -80 72
c0 36 15 65 45 88c-53 6 -96 27 -129 63c-39 43 -58 104 -58 183c0 165 69 247 208 247zM167 290h260c0 97 -40 145 -121 145c-83 0 -130 -48 -139 -145z" />
    <glyph glyph-name="gbreve" unicode="&#x11f;" horiz-adv-x="512" 
d="M341 1h-101c-34 -1 -61 -9 -80 -26c-20 -17 -30 -41 -30 -72c0 -65 53 -97 158 -97c112 0 168 34 168 103c0 61 -38 92 -115 92zM386 400c-25 23 -57 35 -95 35c-39 0 -70 -11 -95 -34c-25 -24 -38 -55 -38 -92c0 -38 13 -69 38 -92c24 -23 55 -34 94 -34s71 11 96 34
c26 23 39 54 39 92c0 37 -13 67 -39 91zM243 48h96c53 0 96 -12 128 -35c34 -25 51 -60 51 -105c0 -103 -76 -155 -227 -155c-149 0 -223 49 -223 147c0 37 12 67 37 90c8 8 17 15 28 21l12 6l5 2l4 2c-1 1 -3 2 -6 3l-4 2l-5 2c-9 4 -16 8 -22 13c-19 15 -28 34 -28 57
c0 43 22 69 67 80l-2 2l-3 3c-3 3 -6 5 -8 8c-8 8 -15 17 -20 26c-18 27 -27 58 -27 92c0 53 19 97 57 131c37 32 82 48 137 48c19 0 38 -3 56 -9l10 -3l8 -3c5 -2 7 -3 8 -3c35 -2 62 5 80 21c14 12 23 28 26 48c2 8 6 12 13 11l27 -4c5 -1 8 -3 10 -6l2 -4v-3
c-2 -32 -15 -56 -38 -72c-17 -12 -40 -19 -67 -21c3 -2 5 -4 7 -6l9 -9c8 -9 15 -18 21 -27c16 -27 24 -56 24 -89c0 -55 -19 -99 -58 -132c-37 -32 -82 -48 -137 -48c-20 0 -40 3 -59 9c-7 2 -13 4 -18 7c-3 1 -5 2 -6 3l-3 1l-1 1c-38 0 -57 -17 -57 -50
c0 -35 32 -52 96 -52zM370 649h30c7 0 10 -4 10 -12c-3 -71 -39 -106 -110 -106c-33 0 -60 9 -79 28c-21 19 -31 45 -32 78c0 3 1 6 2 8c2 3 5 4 8 4h30c7 0 11 -2 11 -7c1 -17 5 -31 12 -42c10 -14 26 -21 47 -22c39 0 59 21 61 64c0 5 3 7 10 7z" />
    <glyph glyph-name="gcircumflex" unicode="&#x11d;" horiz-adv-x="512" 
d="M341 1h-101c-34 -1 -61 -9 -80 -26c-20 -17 -30 -41 -30 -72c0 -65 53 -97 158 -97c112 0 168 34 168 103c0 61 -38 92 -115 92zM386 400c-25 23 -57 35 -95 35c-39 0 -70 -11 -95 -34c-25 -24 -38 -55 -38 -92c0 -38 13 -69 38 -92c24 -23 55 -34 94 -34s71 11 96 34
c26 23 39 54 39 92c0 37 -13 67 -39 91zM243 48h96c53 0 96 -12 128 -35c34 -25 51 -60 51 -105c0 -103 -76 -155 -227 -155c-149 0 -223 49 -223 147c0 37 12 67 37 90c8 8 17 15 28 21l12 6l5 2l4 2c-1 1 -3 2 -6 3l-4 2l-5 2c-9 4 -16 8 -22 13c-19 15 -28 34 -28 57
c0 43 22 69 67 80l-2 2l-3 3c-3 3 -6 5 -8 8c-8 8 -15 17 -20 26c-18 27 -27 58 -27 92c0 53 19 97 57 131c37 32 82 48 137 48c19 0 38 -3 56 -9l10 -3l8 -3c5 -2 7 -3 8 -3c35 -2 62 5 80 21c14 12 23 28 26 48c2 8 6 12 13 11l27 -4c5 -1 8 -3 10 -6l2 -4v-3
c-2 -32 -15 -56 -38 -72c-17 -12 -40 -19 -67 -21c3 -2 5 -4 7 -6l9 -9c8 -9 15 -18 21 -27c16 -27 24 -56 24 -89c0 -55 -19 -99 -58 -132c-37 -32 -82 -48 -137 -48c-20 0 -40 3 -59 9c-7 2 -13 4 -18 7c-3 1 -5 2 -6 3l-3 1l-1 1c-38 0 -57 -17 -57 -50
c0 -35 32 -52 96 -52zM222 528h-31c-11 0 -14 4 -9 12l75 86c3 8 9 12 18 12h49c9 0 15 -4 18 -12l75 -86c5 -8 1 -12 -10 -12h-31c-8 0 -14 4 -18 11l-59 49l-59 -49c-4 -7 -10 -11 -18 -11z" />
    <glyph glyph-name="gcommaaccent" unicode="&#x123;" horiz-adv-x="512" 
d="M268 682c9 9 20 14 33 14c33 0 49 -18 49 -54c0 -32 -9 -58 -27 -79c-6 -7 -13 -14 -22 -19c-3 -2 -7 -4 -10 -5s-5 -3 -8 -4c-4 -1 -7 0 -10 4l-13 21c-2 3 -2 5 -1 6l2 1l2 1c4 1 8 3 11 4c5 3 9 5 12 8c9 7 14 14 15 23c-13 0 -24 4 -33 13s-14 20 -14 33s5 24 14 33z
M341 1h-101c-34 -1 -61 -9 -80 -26c-20 -17 -30 -41 -30 -72c0 -65 53 -97 158 -97c112 0 168 34 168 103c0 61 -38 92 -115 92zM386 400c-25 23 -57 35 -95 35c-39 0 -70 -11 -95 -34c-25 -24 -38 -55 -38 -92c0 -38 13 -69 38 -92c24 -23 55 -34 94 -34s71 11 96 34
c26 23 39 54 39 92c0 37 -13 67 -39 91zM243 48h96c53 0 96 -12 128 -35c34 -25 51 -60 51 -105c0 -103 -76 -155 -227 -155c-149 0 -223 49 -223 147c0 37 12 67 37 90c8 8 17 15 28 21l12 6l5 2l4 2c-1 1 -3 2 -6 3l-4 2l-5 2c-9 4 -16 8 -22 13c-19 15 -28 34 -28 57
c0 43 22 69 67 80l-2 2l-3 3c-3 3 -6 5 -8 8c-8 8 -15 17 -20 26c-18 27 -27 58 -27 92c0 53 19 97 57 131c37 32 82 48 137 48c19 0 38 -3 56 -9l10 -3l8 -3c5 -2 7 -3 8 -3c35 -2 62 5 80 21c14 12 23 28 26 48c2 8 6 12 13 11l27 -4c5 -1 8 -3 10 -6l2 -4v-3
c-2 -32 -15 -56 -38 -72c-17 -12 -40 -19 -67 -21c3 -2 5 -4 7 -6l9 -9c8 -9 15 -18 21 -27c16 -27 24 -56 24 -89c0 -55 -19 -99 -58 -132c-37 -32 -82 -48 -137 -48c-20 0 -40 3 -59 9c-7 2 -13 4 -18 7c-3 1 -5 2 -6 3l-3 1l-1 1c-38 0 -57 -17 -57 -50
c0 -35 32 -52 96 -52z" />
    <glyph glyph-name="gdotaccent" unicode="&#x121;" horiz-adv-x="512" 
d="M341 1h-101c-34 -1 -61 -9 -80 -26c-20 -17 -30 -41 -30 -72c0 -65 53 -97 158 -97c112 0 168 34 168 103c0 61 -38 92 -115 92zM386 400c-25 23 -57 35 -95 35c-39 0 -70 -11 -95 -34c-25 -24 -38 -55 -38 -92c0 -38 13 -69 38 -92c24 -23 55 -34 94 -34s71 11 96 34
c26 23 39 54 39 92c0 37 -13 67 -39 91zM243 48h96c53 0 96 -12 128 -35c34 -25 51 -60 51 -105c0 -103 -76 -155 -227 -155c-149 0 -223 49 -223 147c0 37 12 67 37 90c8 8 17 15 28 21l12 6l5 2l4 2c-1 1 -3 2 -6 3l-4 2l-5 2c-9 4 -16 8 -22 13c-19 15 -28 34 -28 57
c0 43 22 69 67 80l-2 2l-3 3c-3 3 -6 5 -8 8c-8 8 -15 17 -20 26c-18 27 -27 58 -27 92c0 53 19 97 57 131c37 32 82 48 137 48c19 0 38 -3 56 -9l10 -3l8 -3c5 -2 7 -3 8 -3c35 -2 62 5 80 21c14 12 23 28 26 48c2 8 6 12 13 11l27 -4c5 -1 8 -3 10 -6l2 -4v-3
c-2 -32 -15 -56 -38 -72c-17 -12 -40 -19 -67 -21c3 -2 5 -4 7 -6l9 -9c8 -9 15 -18 21 -27c16 -27 24 -56 24 -89c0 -55 -19 -99 -58 -132c-37 -32 -82 -48 -137 -48c-20 0 -40 3 -59 9c-7 2 -13 4 -18 7c-3 1 -5 2 -6 3l-3 1l-1 1c-38 0 -57 -17 -57 -50
c0 -35 32 -52 96 -52zM270 611c-9 8 -13 18 -13 30c0 11 4 21 13 30c9 8 19 12 30 12s21 -4 30 -12c8 -9 12 -19 12 -30c0 -12 -4 -22 -12 -30c-9 -9 -19 -13 -30 -13s-21 4 -30 13z" />
    <glyph glyph-name="hbar" unicode="&#x127;" horiz-adv-x="535" 
d="M108 12v582h-34c-8 0 -12 4 -12 12v27c0 8 4 12 13 12h33v69c0 8 4 12 12 12h38c8 0 12 -4 12 -13v-68h151c8 0 12 -4 12 -12v-27c0 -8 -4 -12 -12 -12h-151v-214c10 31 27 57 52 76c27 21 60 32 99 32c57 0 101 -18 130 -55c26 -33 39 -77 39 -133v-202
c0 -31 10 -47 30 -50h3l4 -2c3 -2 4 -5 4 -9v-27c0 -8 -10 -12 -29 -12c-51 0 -76 31 -76 94v213c0 38 -10 69 -30 92c-22 25 -52 38 -91 38c-42 0 -76 -18 -102 -54c-22 -31 -33 -66 -33 -105v-263c0 -9 -4 -13 -12 -13h-38c-8 0 -12 4 -12 12z" />
    <glyph glyph-name="hcircumflex" unicode="&#x125;" horiz-adv-x="535" 
d="M152 12v702c0 8 4 12 12 12h38c8 0 12 -4 12 -13v-333c10 31 27 57 52 76c27 21 60 32 99 32c57 0 101 -18 130 -55c26 -33 39 -77 39 -133v-202c0 -31 10 -47 30 -50h3l4 -2c3 -2 4 -5 4 -9v-27c0 -8 -10 -12 -29 -12c-51 0 -76 31 -76 94v213c0 38 -10 69 -30 92
c-22 25 -52 38 -91 38c-42 0 -76 -18 -102 -54c-22 -31 -33 -66 -33 -105v-263c0 -9 -4 -13 -12 -13h-38c-8 0 -12 4 -12 12zM286 825h-31c-11 0 -14 4 -9 12l75 86c3 8 9 12 18 12h49c9 0 15 -4 18 -12l75 -86c5 -8 1 -12 -10 -12h-31c-8 0 -14 4 -18 11l-59 49l-59 -49
c-4 -7 -10 -11 -18 -11z" />
    <glyph glyph-name="lacute" unicode="&#x13a;" horiz-adv-x="224" 
d="M239 37v-27c0 -8 -10 -12 -29 -12c-51 0 -76 31 -76 94v621c0 8 4 12 13 12h39c8 0 12 -4 12 -12v-615c0 -31 10 -47 31 -50c3 0 5 -1 7 -2c2 -2 3 -5 3 -9zM169 814h-39c-7 0 -9 3 -6 8l47 105c3 5 8 8 14 8h58c7 0 9 -3 6 -9l-65 -104c-3 -5 -8 -8 -15 -8z" />
    <glyph glyph-name="lcaron" unicode="&#x13e;" horiz-adv-x="224" 
d="M278 725c9 9 20 14 33 14c33 0 49 -18 49 -54c0 -32 -9 -58 -27 -79c-6 -7 -13 -14 -22 -19c-3 -2 -7 -4 -10 -5s-5 -3 -8 -4c-4 -1 -7 0 -10 4l-13 21c-2 3 -2 5 -1 6l2 1l2 1c4 1 8 3 11 4c5 3 9 5 12 8c9 7 14 14 15 23c-13 0 -24 4 -33 13s-14 20 -14 33s5 24 14 33z
M253 37v-27c0 -8 -10 -12 -29 -12c-51 0 -76 31 -76 94v621c0 8 4 12 13 12h39c8 0 12 -4 12 -12v-615c0 -31 10 -47 31 -50c3 0 5 -1 7 -2c2 -2 3 -5 3 -9z" />
    <glyph glyph-name="lcommaaccent" unicode="&#x13c;" horiz-adv-x="224" 
d="M166 -53c9 9 20 14 33 14c33 0 49 -18 49 -54c0 -32 -9 -58 -27 -79c-6 -7 -13 -14 -22 -19c-3 -2 -7 -4 -10 -5s-5 -3 -8 -4c-4 -1 -7 0 -10 4l-13 21c-2 3 -2 5 -1 6l2 1l2 1c4 1 8 3 11 4c5 3 9 5 12 8c9 7 14 14 15 23c-13 0 -24 4 -33 13s-14 20 -14 33s5 24 14 33z
M253 37v-27c0 -8 -10 -12 -29 -12c-51 0 -76 31 -76 94v621c0 8 4 12 13 12h39c8 0 12 -4 12 -12v-615c0 -31 10 -47 31 -50c3 0 5 -1 7 -2c2 -2 3 -5 3 -9z" />
    <glyph glyph-name="ldot" unicode="&#x140;" horiz-adv-x="261" 
d="M253 37v-27c0 -8 -10 -12 -29 -12c-51 0 -76 31 -76 94v621c0 8 4 12 13 12h39c8 0 12 -4 12 -12v-615c0 -31 10 -47 31 -50c3 0 5 -1 7 -2c2 -2 3 -5 3 -9zM281 155c-9 8 -13 18 -13 30c0 11 4 21 13 30c9 8 19 12 30 12s21 -4 30 -12c8 -9 12 -19 12 -30
c0 -12 -4 -22 -12 -30c-9 -9 -19 -13 -30 -13s-21 4 -30 13z" />
    <glyph glyph-name="Lslash" unicode="&#x142;" horiz-adv-x="277" 
d="M228 37v-27c0 -8 -10 -12 -29 -12c-51 0 -76 31 -76 94v243l-53 -31c-7 -5 -12 -3 -17 5l-10 19c-5 8 -4 14 3 18l77 45v322c0 8 4 12 13 12h39c8 0 12 -4 12 -12v-285l60 35c7 5 13 4 18 -3l12 -20c5 -7 4 -13 -3 -17l-87 -51v-274c0 -31 10 -47 31 -50c3 0 5 -1 7 -2
c2 -2 3 -5 3 -9z" />
    <glyph glyph-name="nacute" unicode="&#x144;" horiz-adv-x="545" 
d="M130 13v372c0 29 -10 46 -31 49c-3 0 -5 1 -7 3c-3 3 -4 6 -4 11v24c0 8 10 12 30 12c19 0 35 -6 48 -18c13 -13 20 -31 20 -54v-39c9 33 25 60 50 80c29 23 64 35 107 35c58 0 101 -18 130 -55c26 -33 39 -77 39 -133v-202c0 -31 10 -47 31 -50c3 0 5 -1 7 -3
c3 -3 4 -6 4 -11v-22c0 -9 -10 -14 -29 -14c-51 0 -76 31 -76 94v208c0 40 -10 72 -29 96c-21 26 -52 39 -92 39c-43 0 -77 -18 -102 -54c-22 -31 -33 -67 -33 -106v-263c0 -8 -4 -12 -12 -12h-39c-8 0 -12 4 -12 13zM325 564h-39c-7 0 -9 3 -6 8l47 105c3 5 8 8 14 8h58
c7 0 9 -3 6 -9l-65 -104c-3 -5 -8 -8 -15 -8z" />
    <glyph glyph-name="ncaron" unicode="&#x148;" horiz-adv-x="545" 
d="M229 721h31c8 0 14 -4 18 -12l58 -100l59 100c4 8 10 12 18 12h31c11 0 15 -4 10 -12l-75 -139c-4 -8 -10 -12 -18 -12h-48c-7 0 -14 4 -19 12l-75 139c-5 8 -1 12 10 12zM130 13v372c0 29 -10 46 -31 49c-3 0 -5 1 -7 3c-3 3 -4 6 -4 11v24c0 8 10 12 30 12
c19 0 35 -6 48 -18c13 -13 20 -31 20 -54v-39c9 33 25 60 50 80c29 23 64 35 107 35c58 0 101 -18 130 -55c26 -33 39 -77 39 -133v-202c0 -31 10 -47 31 -50c3 0 5 -1 7 -3c3 -3 4 -6 4 -11v-22c0 -9 -10 -14 -29 -14c-51 0 -76 31 -76 94v208c0 40 -10 72 -29 96
c-21 26 -52 39 -92 39c-43 0 -77 -18 -102 -54c-22 -31 -33 -67 -33 -106v-263c0 -8 -4 -12 -12 -12h-39c-8 0 -12 4 -12 13z" />
    <glyph glyph-name="ncommaaccent" unicode="&#x146;" horiz-adv-x="545" 
d="M304 -53c9 9 20 14 33 14c33 0 49 -18 49 -54c0 -32 -9 -58 -27 -79c-6 -7 -13 -14 -22 -19c-3 -2 -7 -4 -10 -5s-5 -3 -8 -4c-4 -1 -7 0 -10 4l-13 21c-2 3 -2 5 -1 6l2 1l2 1c4 1 8 3 11 4c5 3 9 5 12 8c9 7 14 14 15 23c-13 0 -24 4 -33 13s-14 20 -14 33s5 24 14 33z
M130 13v372c0 29 -10 46 -31 49c-3 0 -5 1 -7 3c-3 3 -4 6 -4 11v24c0 8 10 12 30 12c19 0 35 -6 48 -18c13 -13 20 -31 20 -54v-39c9 33 25 60 50 80c29 23 64 35 107 35c58 0 101 -18 130 -55c26 -33 39 -77 39 -133v-202c0 -31 10 -47 31 -50c3 0 5 -1 7 -3
c3 -3 4 -6 4 -11v-22c0 -9 -10 -14 -29 -14c-51 0 -76 31 -76 94v208c0 40 -10 72 -29 96c-21 26 -52 39 -92 39c-43 0 -77 -18 -102 -54c-22 -31 -33 -67 -33 -106v-263c0 -8 -4 -12 -12 -12h-39c-8 0 -12 4 -12 13z" />
    <glyph glyph-name="Ntilde" unicode="&#xf1;" horiz-adv-x="545" 
d="M217 570h-33c-6 0 -10 2 -11 7c-2 5 -4 10 -5 15c-1 7 -2 14 -2 21c0 21 6 37 19 50s31 20 54 20c13 0 26 -2 39 -5c9 -3 20 -7 35 -12c30 -12 52 -18 67 -18c17 0 25 7 25 22c0 11 -2 20 -6 28c-2 4 1 6 8 6h34c5 0 9 -2 10 -7c4 -8 6 -20 6 -35c0 -44 -23 -66 -70 -66
c-15 0 -29 2 -44 6c-10 3 -22 7 -35 12c-29 12 -49 18 -60 18c-20 0 -30 -10 -30 -29c0 -5 1 -10 2 -15l2 -6l2 -5c3 -5 0 -7 -7 -7zM130 13v372c0 29 -10 46 -31 49c-3 0 -5 1 -7 3c-3 3 -4 6 -4 11v24c0 8 10 12 30 12c19 0 35 -6 48 -18c13 -13 20 -31 20 -54v-39
c9 33 25 60 50 80c29 23 64 35 107 35c58 0 101 -18 130 -55c26 -33 39 -77 39 -133v-202c0 -31 10 -47 31 -50c3 0 5 -1 7 -3c3 -3 4 -6 4 -11v-22c0 -9 -10 -14 -29 -14c-51 0 -76 31 -76 94v208c0 40 -10 72 -29 96c-21 26 -52 39 -92 39c-43 0 -77 -18 -102 -54
c-22 -31 -33 -67 -33 -106v-263c0 -8 -4 -12 -12 -12h-39c-8 0 -12 4 -12 13z" />
    <glyph glyph-name="Oacute" unicode="&#xf3;" horiz-adv-x="520" 
d="M160 58c-39 44 -58 105 -58 183s19 139 58 183c37 43 87 64 151 64c63 0 114 -21 151 -64c38 -44 57 -105 57 -183s-19 -139 -57 -183c-37 -43 -88 -64 -151 -64c-64 0 -114 21 -151 64zM415 95c28 34 42 83 42 146s-14 111 -42 146c-26 32 -61 48 -104 48
s-78 -16 -104 -48c-29 -35 -43 -83 -43 -146s14 -112 42 -146c27 -32 62 -48 105 -48s78 16 104 48zM315 564h-39c-7 0 -9 3 -6 8l47 105c3 5 8 8 14 8h58c7 0 9 -3 6 -9l-65 -104c-3 -5 -8 -8 -15 -8z" />
    <glyph glyph-name="obreve" unicode="&#x14f;" horiz-adv-x="520" 
d="M160 58c-39 44 -58 105 -58 183s19 139 58 183c37 43 87 64 151 64c63 0 114 -21 151 -64c38 -44 57 -105 57 -183s-19 -139 -57 -183c-37 -43 -88 -64 -151 -64c-64 0 -114 21 -151 64zM415 95c28 34 42 83 42 146s-14 111 -42 146c-26 32 -61 48 -104 48
s-78 -16 -104 -48c-29 -35 -43 -83 -43 -146s14 -112 42 -146c27 -32 62 -48 105 -48s78 16 104 48zM381 649h30c7 0 10 -4 10 -12c-3 -71 -39 -106 -110 -106c-33 0 -60 9 -79 28c-21 19 -31 45 -32 78c0 3 1 6 2 8c2 3 5 4 8 4h30c7 0 11 -2 11 -7c1 -17 5 -31 12 -42
c10 -14 26 -21 47 -22c39 0 59 21 61 64c0 5 3 7 10 7z" />
    <glyph glyph-name="Ocircumflex" unicode="&#xf4;" horiz-adv-x="520" 
d="M160 58c-39 44 -58 105 -58 183s19 139 58 183c37 43 87 64 151 64c63 0 114 -21 151 -64c38 -44 57 -105 57 -183s-19 -139 -57 -183c-37 -43 -88 -64 -151 -64c-64 0 -114 21 -151 64zM415 95c28 34 42 83 42 146s-14 111 -42 146c-26 32 -61 48 -104 48
s-78 -16 -104 -48c-29 -35 -43 -83 -43 -146s14 -112 42 -146c27 -32 62 -48 105 -48s78 16 104 48zM233 528h-31c-11 0 -14 4 -9 12l75 86c3 8 9 12 18 12h49c9 0 15 -4 18 -12l75 -86c5 -8 1 -12 -10 -12h-31c-8 0 -14 4 -18 11l-59 49l-59 -49c-4 -7 -10 -11 -18 -11z
" />
    <glyph glyph-name="Odieresis" unicode="&#xf6;" horiz-adv-x="520" 
d="M200 605c-8 8 -12 18 -12 30c0 11 4 21 12 30c9 9 19 13 30 13s21 -4 30 -13c8 -9 12 -19 12 -30c0 -12 -4 -22 -12 -30c-9 -9 -19 -13 -30 -13s-21 4 -30 13zM370 605c-9 8 -13 18 -13 30c0 11 4 21 13 30c8 9 18 13 29 13c12 0 22 -4 31 -13c8 -9 12 -19 12 -30
c0 -12 -4 -22 -12 -30c-9 -9 -19 -13 -31 -13c-11 0 -21 4 -29 13zM160 58c-39 44 -58 105 -58 183s19 139 58 183c37 43 87 64 151 64c63 0 114 -21 151 -64c38 -44 57 -105 57 -183s-19 -139 -57 -183c-37 -43 -88 -64 -151 -64c-64 0 -114 21 -151 64zM415 95
c28 34 42 83 42 146s-14 111 -42 146c-26 32 -61 48 -104 48s-78 -16 -104 -48c-29 -35 -43 -83 -43 -146s14 -112 42 -146c27 -32 62 -48 105 -48s78 16 104 48z" />
    <glyph glyph-name="Ograve" unicode="&#xf2;" horiz-adv-x="520" 
d="M160 58c-39 44 -58 105 -58 183s19 139 58 183c37 43 87 64 151 64c63 0 114 -21 151 -64c38 -44 57 -105 57 -183s-19 -139 -57 -183c-37 -43 -88 -64 -151 -64c-64 0 -114 21 -151 64zM415 95c28 34 42 83 42 146s-14 111 -42 146c-26 32 -61 48 -104 48
s-78 -16 -104 -48c-29 -35 -43 -83 -43 -146s14 -112 42 -146c27 -32 62 -48 105 -48s78 16 104 48zM348 564h-39c-7 0 -12 3 -16 9l-71 106c-3 6 -1 9 6 9h58c6 0 11 -3 14 -8l54 -108c3 -5 1 -8 -6 -8z" />
    <glyph glyph-name="ohungarumlaut" unicode="&#x151;" horiz-adv-x="520" 
d="M160 58c-39 44 -58 105 -58 183s19 139 58 183c37 43 87 64 151 64c63 0 114 -21 151 -64c38 -44 57 -105 57 -183s-19 -139 -57 -183c-37 -43 -88 -64 -151 -64c-64 0 -114 21 -151 64zM415 95c28 34 42 83 42 146s-14 111 -42 146c-26 32 -61 48 -104 48
s-78 -16 -104 -48c-29 -35 -43 -83 -43 -146s14 -112 42 -146c27 -32 62 -48 105 -48s78 16 104 48zM355 564h-39c-7 0 -9 3 -6 8l76 146c3 5 8 8 14 8h58c3 0 5 -1 6 -3c1 -1 1 -3 -1 -6l-93 -145c-3 -5 -8 -8 -15 -8zM203 564h-39c-7 0 -9 3 -6 8l76 146c2 5 7 8 14 8h58
c3 0 5 -1 6 -3c1 -1 0 -3 -1 -6l-93 -145c-3 -5 -8 -8 -15 -8z" />
    <glyph glyph-name="omacron" unicode="&#x14d;" horiz-adv-x="520" 
d="M201 649h236c8 0 12 -4 12 -12v-24c0 -8 -4 -12 -13 -12h-236c-8 0 -12 4 -12 12v24c0 8 4 12 13 12zM160 58c-39 44 -58 105 -58 183s19 139 58 183c37 43 87 64 151 64c63 0 114 -21 151 -64c38 -44 57 -105 57 -183s-19 -139 -57 -183c-37 -43 -88 -64 -151 -64
c-64 0 -114 21 -151 64zM415 95c28 34 42 83 42 146s-14 111 -42 146c-26 32 -61 48 -104 48s-78 -16 -104 -48c-29 -35 -43 -83 -43 -146s14 -112 42 -146c27 -32 62 -48 105 -48s78 16 104 48z" />
    <glyph glyph-name="Otilde" unicode="&#xf5;" horiz-adv-x="520" 
d="M160 58c-39 44 -58 105 -58 183s19 139 58 183c37 43 87 64 151 64c63 0 114 -21 151 -64c38 -44 57 -105 57 -183s-19 -139 -57 -183c-37 -43 -88 -64 -151 -64c-64 0 -114 21 -151 64zM415 95c28 34 42 83 42 146s-14 111 -42 146c-26 32 -61 48 -104 48
s-78 -16 -104 -48c-29 -35 -43 -83 -43 -146s14 -112 42 -146c27 -32 62 -48 105 -48s78 16 104 48zM211 570h-33c-6 0 -10 2 -11 7c-2 5 -4 10 -5 15c-1 7 -2 14 -2 21c0 21 6 37 19 50s31 20 54 20c13 0 26 -2 39 -5c9 -3 20 -7 35 -12c30 -12 52 -18 67 -18
c17 0 25 7 25 22c0 11 -2 20 -6 28c-2 4 1 6 8 6h34c5 0 9 -2 10 -7c4 -8 6 -20 6 -35c0 -44 -23 -66 -70 -66c-24 0 -50 6 -79 18l-16 7l-15 5c-11 4 -20 6 -29 6c-20 0 -30 -10 -30 -29c0 -5 1 -10 2 -15l2 -6l2 -5c3 -5 0 -7 -7 -7z" />
    <glyph glyph-name="Oslash" unicode="&#xf8;" horiz-adv-x="520" 
d="M198 24l-22 -34c-4 -7 -9 -10 -16 -10h-30c-8 0 -10 4 -5 12l39 60c-41 43 -62 106 -62 189c0 78 19 139 58 183c37 43 87 64 151 64c43 0 81 -11 114 -32l24 37c5 7 10 10 17 10h28c3 0 6 -1 7 -4s1 -5 -2 -8l-41 -63c41 -44 61 -106 61 -187c0 -78 -19 -139 -57 -183
c-37 -43 -88 -64 -151 -64c-43 0 -81 10 -113 30zM198 105l195 302c-24 19 -51 28 -82 28c-43 0 -78 -16 -104 -48c-29 -35 -43 -83 -43 -146c0 -56 11 -101 34 -136zM415 95c28 34 42 83 42 146c0 56 -11 101 -33 134l-194 -303c23 -17 50 -25 81 -25c43 0 78 16 104 48z
" />
    <glyph glyph-name="oslashacute" unicode="&#x1ff;" horiz-adv-x="520" 
d="M198 24l-22 -34c-4 -7 -9 -10 -16 -10h-30c-8 0 -10 4 -5 12l39 60c-41 43 -62 106 -62 189c0 78 19 139 58 183c37 43 87 64 151 64c43 0 81 -11 114 -32l24 37c5 7 10 10 17 10h28c3 0 6 -1 7 -4s1 -5 -2 -8l-41 -63c41 -44 61 -106 61 -187c0 -78 -19 -139 -57 -183
c-37 -43 -88 -64 -151 -64c-43 0 -81 10 -113 30zM198 105l195 302c-24 19 -51 28 -82 28c-43 0 -78 -16 -104 -48c-29 -35 -43 -83 -43 -146c0 -56 11 -101 34 -136zM415 95c28 34 42 83 42 146c0 56 -11 101 -33 134l-194 -303c23 -17 50 -25 81 -25c43 0 78 16 104 48z
M314 564h-39c-7 0 -9 3 -6 8l47 105c3 5 8 8 14 8h58c7 0 9 -3 6 -9l-65 -104c-3 -5 -8 -8 -15 -8z" />
    <glyph glyph-name="racute" unicode="&#x155;" horiz-adv-x="372" 
d="M130 12v372c0 30 -11 47 -32 50h-3l-3 2c-3 2 -4 5 -4 8v27c0 9 10 13 29 13c46 0 69 -25 69 -74v-38c9 33 25 60 49 81c28 23 63 35 105 35c11 0 22 -1 31 -3c4 -1 8 -1 11 -2s5 -2 8 -3c7 -2 9 -6 6 -12l-17 -38c-3 -6 -7 -8 -13 -6l-6 2l-9 2c-8 1 -17 2 -26 2
c-41 0 -75 -18 -100 -53c-21 -30 -32 -64 -32 -102v-262c0 -9 -4 -13 -12 -13h-39c-8 0 -12 4 -12 12zM246 564h-39c-7 0 -9 3 -6 8l47 105c3 5 8 8 14 8h58c7 0 9 -3 6 -9l-65 -104c-3 -5 -8 -8 -15 -8z" />
    <glyph glyph-name="rcaron" unicode="&#x159;" horiz-adv-x="372" 
d="M140 721h31c8 0 14 -4 18 -12l58 -100l59 100c4 8 10 12 18 12h31c11 0 15 -4 10 -12l-75 -139c-4 -8 -10 -12 -18 -12h-48c-7 0 -14 4 -19 12l-75 139c-5 8 -1 12 10 12zM130 12v372c0 30 -11 47 -32 50h-3l-3 2c-3 2 -4 5 -4 8v27c0 9 10 13 29 13c46 0 69 -25 69 -74
v-38c9 33 25 60 49 81c28 23 63 35 105 35c11 0 22 -1 31 -3c4 -1 8 -1 11 -2s5 -2 8 -3c7 -2 9 -6 6 -12l-17 -38c-3 -6 -7 -8 -13 -6l-6 2l-9 2c-8 1 -17 2 -26 2c-41 0 -75 -18 -100 -53c-21 -30 -32 -64 -32 -102v-262c0 -9 -4 -13 -12 -13h-39c-8 0 -12 4 -12 12z" />
    <glyph glyph-name="rcommaaccent" unicode="&#x157;" horiz-adv-x="372" 
d="M127 -53c9 9 20 14 33 14c33 0 49 -18 49 -54c0 -32 -9 -58 -27 -79c-6 -7 -13 -14 -22 -19c-3 -2 -7 -4 -10 -5s-5 -3 -8 -4c-4 -1 -7 0 -10 4l-13 21c-2 3 -2 5 -1 6l2 1l2 1c4 1 8 3 11 4c5 3 9 5 12 8c9 7 14 14 15 23c-13 0 -24 4 -33 13s-14 20 -14 33s5 24 14 33z
M130 12v372c0 30 -11 47 -32 50h-3l-3 2c-3 2 -4 5 -4 8v27c0 9 10 13 29 13c46 0 69 -25 69 -74v-38c9 33 25 60 49 81c28 23 63 35 105 35c11 0 22 -1 31 -3c4 -1 8 -1 11 -2s5 -2 8 -3c7 -2 9 -6 6 -12l-17 -38c-3 -6 -7 -8 -13 -6l-6 2l-9 2c-8 1 -17 2 -26 2
c-41 0 -75 -18 -100 -53c-21 -30 -32 -64 -32 -102v-262c0 -9 -4 -13 -12 -13h-39c-8 0 -12 4 -12 12z" />
    <glyph glyph-name="sacute" unicode="&#x15b;" horiz-adv-x="465" 
d="M427 310h-26c-11 0 -15 3 -14 10l1 6l1 7c1 6 1 12 1 17c0 57 -40 85 -119 85c-77 0 -116 -30 -116 -89c0 -31 16 -54 47 -67c12 -5 28 -10 48 -14l27 -5l28 -5c47 -9 81 -20 102 -33c31 -20 47 -51 47 -93c0 -43 -15 -76 -45 -99c-31 -24 -76 -36 -135 -36
c-53 0 -99 12 -138 35c-14 9 -26 18 -37 29c-5 5 -9 9 -12 13s-6 8 -8 11c-3 5 -2 10 2 15l25 26c5 5 9 4 13 -1c3 -3 5 -7 8 -10c3 -4 7 -8 11 -11c10 -10 20 -18 31 -25c30 -19 64 -29 102 -29c81 0 121 27 121 80c0 27 -16 47 -47 60c-12 5 -28 9 -48 13l-27 6l-27 5
c-47 9 -82 21 -103 36c-31 22 -47 55 -47 98c0 41 14 74 41 99c31 29 76 44 137 44c62 0 108 -14 139 -42c25 -23 38 -54 38 -91v-13c-1 -5 -2 -10 -3 -14c-3 -11 -9 -17 -18 -18zM269 564h-39c-7 0 -9 3 -6 8l47 105c3 5 8 8 14 8h58c7 0 9 -3 6 -9l-65 -104
c-3 -5 -8 -8 -15 -8z" />
    <glyph glyph-name="Scaron" unicode="&#x161;" horiz-adv-x="465" 
d="M171 721h31c8 0 14 -4 18 -12l58 -100l59 100c4 8 10 12 18 12h31c11 0 15 -4 10 -12l-75 -139c-4 -8 -10 -12 -18 -12h-48c-7 0 -14 4 -19 12l-75 139c-5 8 -1 12 10 12zM427 310h-26c-11 0 -15 3 -14 10l1 6l1 7c1 6 1 12 1 17c0 57 -40 85 -119 85
c-77 0 -116 -30 -116 -89c0 -31 16 -54 47 -67c12 -5 28 -10 48 -14l27 -5l28 -5c47 -9 81 -20 102 -33c31 -20 47 -51 47 -93c0 -43 -15 -76 -45 -99c-31 -24 -76 -36 -135 -36c-53 0 -99 12 -138 35c-14 9 -26 18 -37 29c-5 5 -9 9 -12 13s-6 8 -8 11c-3 5 -2 10 2 15
l25 26c5 5 9 4 13 -1c3 -3 5 -7 8 -10c3 -4 7 -8 11 -11c10 -10 20 -18 31 -25c30 -19 64 -29 102 -29c81 0 121 27 121 80c0 27 -16 47 -47 60c-12 5 -28 9 -48 13l-27 6l-27 5c-47 9 -82 21 -103 36c-31 22 -47 55 -47 98c0 41 14 74 41 99c31 29 76 44 137 44
c62 0 108 -14 139 -42c25 -23 38 -54 38 -91v-13c-1 -5 -2 -10 -3 -14c-3 -11 -9 -17 -18 -18z" />
    <glyph glyph-name="scedilla" unicode="&#x15f;" horiz-adv-x="465" 
d="M427 310h-30c-8 0 -11 3 -10 10l1 6l1 7c1 6 1 12 1 17c0 57 -40 85 -119 85c-77 0 -116 -30 -116 -89c0 -31 16 -54 47 -67c12 -5 28 -10 48 -14l27 -5l28 -5c47 -9 81 -20 102 -33c31 -20 47 -51 47 -93c0 -85 -54 -130 -163 -134l-13 -32c17 -1 33 -7 46 -18
c15 -13 23 -29 23 -50c0 -22 -8 -39 -24 -52c-15 -12 -36 -18 -61 -18c-16 0 -31 3 -44 9c-5 2 -10 5 -15 8c-3 2 -6 4 -9 7s-4 7 -2 11l9 18c2 4 5 5 10 3l3 -3l5 -2c3 -3 7 -5 11 -7c11 -5 21 -7 32 -7c29 0 44 11 44 34c0 11 -5 20 -16 27c-13 9 -32 13 -57 13
c-2 0 -3 1 -4 2s-1 3 0 5l22 52c-47 3 -87 16 -120 38c-13 8 -24 17 -34 27c-7 7 -13 15 -18 22c-3 5 -2 10 2 15l25 26c5 5 9 4 13 -1c3 -3 5 -7 8 -10c3 -4 7 -8 11 -11c10 -10 20 -18 31 -25c30 -19 64 -29 102 -29c81 0 121 27 121 80c0 27 -16 47 -47 60
c-12 5 -28 9 -48 13l-27 6l-27 5c-47 9 -82 21 -103 36c-31 22 -47 55 -47 98c0 41 14 74 41 99c31 29 76 44 137 44c62 0 108 -14 139 -42c25 -23 38 -54 38 -91c0 -16 -2 -28 -6 -36c-3 -6 -8 -9 -15 -9z" />
    <glyph glyph-name="scircumflex" unicode="&#x15d;" horiz-adv-x="465" 
d="M427 310h-26c-11 0 -15 3 -14 10l1 6l1 7c1 6 1 12 1 17c0 57 -40 85 -119 85c-77 0 -116 -30 -116 -89c0 -31 16 -54 47 -67c12 -5 28 -10 48 -14l27 -5l28 -5c47 -9 81 -20 102 -33c31 -20 47 -51 47 -93c0 -43 -15 -76 -45 -99c-31 -24 -76 -36 -135 -36
c-53 0 -99 12 -138 35c-14 9 -26 18 -37 29c-5 5 -9 9 -12 13s-6 8 -8 11c-3 5 -2 10 2 15l25 26c5 5 9 4 13 -1c3 -3 5 -7 8 -10c3 -4 7 -8 11 -11c10 -10 20 -18 31 -25c30 -19 64 -29 102 -29c81 0 121 27 121 80c0 27 -16 47 -47 60c-12 5 -28 9 -48 13l-27 6l-27 5
c-47 9 -82 21 -103 36c-31 22 -47 55 -47 98c0 41 14 74 41 99c31 29 76 44 137 44c62 0 108 -14 139 -42c25 -23 38 -54 38 -91v-13c-1 -5 -2 -10 -3 -14c-3 -11 -9 -17 -18 -18zM188 528h-31c-11 0 -14 4 -9 12l75 86c3 8 9 12 18 12h49c9 0 15 -4 18 -12l75 -86
c5 -8 1 -12 -10 -12h-31c-8 0 -14 4 -18 11l-59 49l-59 -49c-4 -7 -10 -11 -18 -11z" />
    <glyph glyph-name="scommaaccent" unicode="&#x219;" horiz-adv-x="465" 
d="M248 -53c9 9 20 14 33 14c33 0 49 -18 49 -54c0 -32 -9 -58 -27 -79c-6 -7 -13 -14 -22 -19c-3 -2 -7 -4 -10 -5s-5 -3 -8 -4c-4 -1 -7 0 -10 4l-13 21c-2 3 -2 5 -1 6l2 1l2 1c4 1 8 3 11 4c5 3 9 5 12 8c9 7 14 14 15 23c-13 0 -24 4 -33 13s-14 20 -14 33s5 24 14 33z
M427 310h-26c-11 0 -15 3 -14 10l1 6l1 7c1 6 1 12 1 17c0 57 -40 85 -119 85c-77 0 -116 -30 -116 -89c0 -31 16 -54 47 -67c12 -5 28 -10 48 -14l27 -5l28 -5c47 -9 81 -20 102 -33c31 -20 47 -51 47 -93c0 -43 -15 -76 -45 -99c-31 -24 -76 -36 -135 -36
c-53 0 -99 12 -138 35c-14 9 -26 18 -37 29c-5 5 -9 9 -12 13s-6 8 -8 11c-3 5 -2 10 2 15l25 26c5 5 9 4 13 -1c3 -3 5 -7 8 -10c3 -4 7 -8 11 -11c10 -10 20 -18 31 -25c30 -19 64 -29 102 -29c81 0 121 27 121 80c0 27 -16 47 -47 60c-12 5 -28 9 -48 13l-27 6l-27 5
c-47 9 -82 21 -103 36c-31 22 -47 55 -47 98c0 41 14 74 41 99c31 29 76 44 137 44c62 0 108 -14 139 -42c25 -23 38 -54 38 -91v-13c-1 -5 -2 -10 -3 -14c-3 -11 -9 -17 -18 -18z" />
    <glyph glyph-name="tbar" unicode="&#x167;" horiz-adv-x="402" 
d="M209 482h180c8 0 12 -4 12 -12v-27c0 -8 -4 -12 -12 -12h-180v-128h146c9 0 13 -4 13 -12v-26c0 -9 -4 -13 -13 -13h-146v-86c0 -79 33 -118 98 -118c20 0 39 5 57 15c7 3 13 7 19 12l6 5l3 2l2 2c5 5 9 4 11 -2l14 -28c3 -4 2 -8 -2 -13c-2 -2 -4 -4 -7 -6s-6 -4 -9 -7
c-8 -6 -16 -11 -25 -15c-24 -13 -49 -19 -75 -19c-104 0 -156 57 -156 170v88h-42c-9 0 -13 4 -13 13v26c0 8 4 12 13 12h42v128h-64c-9 0 -13 4 -13 12v27c0 8 4 12 13 12h64v138c0 8 4 12 12 12h39c9 0 13 -4 13 -13v-137z" />
    <glyph glyph-name="tcaron" unicode="&#x165;" horiz-adv-x="402" 
d="M277 678c9 9 20 14 33 14c33 0 49 -18 49 -54c0 -32 -9 -58 -27 -79c-6 -7 -13 -14 -22 -19c-3 -2 -7 -4 -10 -5s-5 -3 -8 -4c-4 -1 -7 0 -10 4l-13 21c-2 3 -2 5 -1 6l2 1l2 1c4 1 8 3 11 4c5 3 9 5 12 8c9 7 14 14 15 23c-13 0 -24 4 -33 13s-14 20 -14 33s5 24 14 33z
M207 482h180c8 0 12 -4 12 -12v-27c0 -8 -4 -12 -12 -12h-180v-265c0 -79 33 -118 98 -118c20 0 39 5 57 15c7 3 13 7 19 12l6 5l3 2l2 2c5 5 9 4 11 -2l14 -28c3 -4 2 -8 -2 -13c-2 -2 -4 -4 -7 -6s-6 -4 -9 -7c-8 -6 -16 -11 -25 -15c-24 -13 -49 -19 -75 -19
c-104 0 -156 57 -156 170v267h-64c-9 0 -13 4 -13 12v27c0 8 4 12 13 12h64v138c0 8 4 12 12 12h39c9 0 13 -4 13 -13v-137z" />
    <glyph glyph-name="tcedilla" unicode="&#x163;" horiz-adv-x="402" 
d="M231 -81c9 9 20 14 33 14c33 0 49 -18 49 -54c0 -32 -9 -58 -27 -79c-6 -7 -13 -14 -22 -19c-3 -2 -7 -4 -10 -5s-5 -3 -8 -4c-4 -1 -7 0 -10 4l-13 21c-2 3 -2 5 -1 6l2 1l2 1c4 1 8 3 11 4c5 3 9 5 12 8c9 7 14 14 15 23c-13 0 -24 4 -33 13s-14 20 -14 33s5 24 14 33z
M207 482h180c8 0 12 -4 12 -12v-27c0 -8 -4 -12 -12 -12h-180v-265c0 -79 33 -118 98 -118c20 0 39 5 57 15c7 3 13 7 19 12l6 5l3 2l2 2c5 5 9 4 11 -2l14 -28c3 -4 2 -8 -2 -13c-2 -2 -4 -4 -7 -6s-6 -4 -9 -7c-8 -6 -16 -11 -25 -15c-24 -13 -49 -19 -75 -19
c-104 0 -156 57 -156 170v267h-64c-9 0 -13 4 -13 12v27c0 8 4 12 13 12h64v138c0 8 4 12 12 12h39c9 0 13 -4 13 -13v-137z" />
    <glyph glyph-name="Uacute" unicode="&#xfa;" horiz-adv-x="535" 
d="M563 34v-24c0 -8 -10 -12 -29 -12c-46 0 -69 26 -69 77v20c-30 -67 -86 -101 -168 -101c-102 0 -153 56 -153 169v307c0 8 4 12 12 12h38c8 0 12 -4 12 -13v-299c0 -82 36 -123 109 -123c43 0 79 19 108 56c23 30 35 60 35 91v276c0 8 4 12 12 12h40c8 0 12 -4 12 -13
v-370c0 -31 10 -48 31 -51c7 -1 10 -6 10 -14zM358 564h-39c-7 0 -9 3 -6 8l47 105c3 5 8 8 14 8h58c7 0 9 -3 6 -9l-65 -104c-3 -5 -8 -8 -15 -8z" />
    <glyph glyph-name="ubreve" unicode="&#x16d;" horiz-adv-x="535" 
d="M563 34v-24c0 -8 -10 -12 -29 -12c-46 0 -69 26 -69 77v20c-30 -67 -86 -101 -168 -101c-102 0 -153 56 -153 169v307c0 8 4 12 12 12h38c8 0 12 -4 12 -13v-299c0 -82 36 -123 109 -123c43 0 79 19 108 56c23 30 35 60 35 91v276c0 8 4 12 12 12h40c8 0 12 -4 12 -13
v-370c0 -31 10 -48 31 -51c7 -1 10 -6 10 -14zM424 649h30c7 0 10 -4 10 -12c-3 -71 -39 -106 -110 -106c-33 0 -60 9 -79 28c-21 19 -31 45 -32 78c0 3 1 6 2 8c2 3 5 4 8 4h30c7 0 11 -2 11 -7c1 -17 5 -31 12 -42c10 -14 26 -21 47 -22c39 0 59 21 61 64c0 5 3 7 10 7z
" />
    <glyph glyph-name="Ucircumflex" unicode="&#xfb;" horiz-adv-x="535" 
d="M563 34v-24c0 -8 -10 -12 -29 -12c-46 0 -69 26 -69 77v20c-30 -67 -86 -101 -168 -101c-102 0 -153 56 -153 169v307c0 8 4 12 12 12h38c8 0 12 -4 12 -13v-299c0 -82 36 -123 109 -123c43 0 79 19 108 56c23 30 35 60 35 91v276c0 8 4 12 12 12h40c8 0 12 -4 12 -13
v-370c0 -31 10 -48 31 -51c7 -1 10 -6 10 -14zM276 528h-31c-11 0 -14 4 -9 12l75 86c3 8 9 12 18 12h49c9 0 15 -4 18 -12l75 -86c5 -8 1 -12 -10 -12h-31c-8 0 -14 4 -18 11l-59 49l-59 -49c-4 -7 -10 -11 -18 -11z" />
    <glyph glyph-name="Udieresis" unicode="&#xfc;" horiz-adv-x="535" 
d="M225 605c-8 8 -12 18 -12 30c0 11 4 21 12 30c9 9 19 13 30 13s21 -4 30 -13c8 -9 12 -19 12 -30c0 -12 -4 -22 -12 -30c-9 -9 -19 -13 -30 -13s-21 4 -30 13zM395 605c-9 8 -13 18 -13 30c0 11 4 21 13 30c8 9 18 13 29 13c12 0 22 -4 31 -13c8 -9 12 -19 12 -30
c0 -12 -4 -22 -12 -30c-9 -9 -19 -13 -31 -13c-11 0 -21 4 -29 13zM563 34v-24c0 -8 -10 -12 -29 -12c-46 0 -69 26 -69 77v20c-30 -67 -86 -101 -168 -101c-102 0 -153 56 -153 169v307c0 8 4 12 12 12h38c8 0 12 -4 12 -13v-299c0 -82 36 -123 109 -123c43 0 79 19 108 56
c23 30 35 60 35 91v276c0 8 4 12 12 12h40c8 0 12 -4 12 -13v-370c0 -31 10 -48 31 -51c7 -1 10 -6 10 -14z" />
    <glyph glyph-name="uhungarumlaut" unicode="&#x171;" horiz-adv-x="535" 
d="M563 34v-24c0 -8 -10 -12 -29 -12c-46 0 -69 26 -69 77v20c-30 -67 -86 -101 -168 -101c-102 0 -153 56 -153 169v307c0 8 4 12 12 12h38c8 0 12 -4 12 -13v-299c0 -82 36 -123 109 -123c43 0 79 19 108 56c23 30 35 60 35 91v276c0 8 4 12 12 12h40c8 0 12 -4 12 -13
v-370c0 -31 10 -48 31 -51c7 -1 10 -6 10 -14zM398 564h-39c-7 0 -9 3 -6 8l76 146c3 5 8 8 14 8h58c3 0 5 -1 6 -3c1 -1 1 -3 -1 -6l-93 -145c-3 -5 -8 -8 -15 -8zM246 564h-39c-7 0 -9 3 -6 8l76 146c2 5 7 8 14 8h58c3 0 5 -1 6 -3c1 -1 0 -3 -1 -6l-93 -145
c-3 -5 -8 -8 -15 -8z" />
    <glyph glyph-name="Ugrave" unicode="&#xf9;" horiz-adv-x="535" 
d="M563 34v-24c0 -8 -10 -12 -29 -12c-46 0 -69 26 -69 77v20c-30 -67 -86 -101 -168 -101c-102 0 -153 56 -153 169v307c0 8 4 12 12 12h38c8 0 12 -4 12 -13v-299c0 -82 36 -123 109 -123c43 0 79 19 108 56c23 30 35 60 35 91v276c0 8 4 12 12 12h40c8 0 12 -4 12 -13
v-370c0 -31 10 -48 31 -51c7 -1 10 -6 10 -14zM391 564h-39c-7 0 -12 3 -16 9l-71 106c-3 6 -1 9 6 9h58c6 0 11 -3 14 -8l54 -108c3 -5 1 -8 -6 -8z" />
    <glyph glyph-name="umacron" unicode="&#x16b;" horiz-adv-x="535" 
d="M563 34v-24c0 -8 -10 -12 -29 -12c-46 0 -69 26 -69 77v20c-30 -67 -86 -101 -168 -101c-102 0 -153 56 -153 169v307c0 8 4 12 12 12h38c8 0 12 -4 12 -13v-299c0 -82 36 -123 109 -123c43 0 79 19 108 56c23 30 35 60 35 91v276c0 8 4 12 12 12h40c8 0 12 -4 12 -13
v-370c0 -31 10 -48 31 -51c7 -1 10 -6 10 -14zM218 649h236c8 0 12 -4 12 -12v-24c0 -8 -4 -12 -13 -12h-236c-8 0 -12 4 -12 12v24c0 8 4 12 13 12z" />
    <glyph glyph-name="uogonek" unicode="&#x173;" horiz-adv-x="535" 
d="M572 -112l10 -21c3 -3 3 -6 -1 -10c-3 -3 -6 -5 -9 -7c-4 -3 -8 -5 -13 -7c-12 -5 -25 -8 -39 -8c-53 0 -79 24 -79 73c0 22 6 42 19 59c9 14 22 26 39 37c-23 11 -34 35 -34 71v20c-30 -67 -86 -101 -168 -101c-102 0 -153 56 -153 169v307c0 8 4 12 12 12h38
c8 0 12 -4 12 -13v-299c0 -82 36 -123 109 -123c43 0 79 19 108 56c23 30 35 60 35 91v276c0 8 4 12 12 12h40c8 0 12 -4 12 -13v-370c0 -31 10 -48 31 -51c7 -1 10 -6 10 -14v-24c0 -3 -2 -6 -5 -8l-4 -3l-5 -2c-6 -2 -12 -5 -19 -9c-8 -4 -15 -9 -21 -15
c-17 -15 -26 -33 -26 -54c0 -29 14 -44 43 -44c7 0 15 2 22 5c5 2 10 5 15 9c4 3 7 2 9 -1z" />
    <glyph glyph-name="uring" unicode="&#x16f;" horiz-adv-x="535" 
d="M278 582c-14 14 -21 32 -21 53s7 39 21 53c15 14 33 21 54 21s38 -7 52 -21s21 -32 21 -53s-7 -39 -21 -53s-31 -21 -52 -21s-39 7 -54 21zM332 674c-27 0 -40 -13 -40 -39c0 -27 13 -40 40 -40c26 0 39 13 39 40c0 26 -13 39 -39 39zM563 34v-24c0 -8 -10 -12 -29 -12
c-46 0 -69 26 -69 77v20c-30 -67 -86 -101 -168 -101c-102 0 -153 56 -153 169v307c0 8 4 12 12 12h38c8 0 12 -4 12 -13v-299c0 -82 36 -123 109 -123c43 0 79 19 108 56c23 30 35 60 35 91v276c0 8 4 12 12 12h40c8 0 12 -4 12 -13v-370c0 -31 10 -48 31 -51
c7 -1 10 -6 10 -14z" />
    <glyph glyph-name="utilde" unicode="&#x169;" horiz-adv-x="535" 
d="M563 34v-24c0 -8 -10 -12 -29 -12c-46 0 -69 26 -69 77v20c-30 -67 -86 -101 -168 -101c-102 0 -153 56 -153 169v307c0 8 4 12 12 12h38c8 0 12 -4 12 -13v-299c0 -82 36 -123 109 -123c43 0 79 19 108 56c23 30 35 60 35 91v276c0 8 4 12 12 12h40c8 0 12 -4 12 -13
v-370c0 -31 10 -48 31 -51c7 -1 10 -6 10 -14zM244 570h-33c-6 0 -10 2 -11 7c-2 5 -4 10 -5 15c-1 7 -2 14 -2 21c0 21 6 37 19 50s31 20 54 20c19 0 44 -6 74 -17l16 -7l17 -6c12 -3 23 -5 34 -5c17 0 25 7 25 22c0 11 -2 20 -6 28c-2 4 1 6 8 6h34c5 0 9 -2 10 -7
c4 -8 6 -20 6 -35c0 -44 -23 -66 -70 -66c-15 0 -29 2 -44 6c-10 3 -22 7 -35 12c-29 12 -49 18 -60 18c-20 0 -30 -10 -30 -29c0 -5 1 -10 2 -15l2 -6l2 -5c3 -5 0 -7 -7 -7z" />
    <glyph glyph-name="Iacute" unicode="&#xed;" horiz-adv-x="222" 
d="M251 37v-27c0 -8 -10 -12 -29 -12c-51 0 -76 31 -76 94v380c0 9 4 13 12 13h39c8 0 12 -4 12 -13v-374c0 -31 10 -47 31 -50h3l4 -2c3 -2 4 -5 4 -9zM202 564h-39c-7 0 -9 3 -6 8l47 105c3 5 8 8 14 8h58c7 0 9 -3 6 -9l-65 -104c-3 -5 -8 -8 -15 -8z" />
    <glyph glyph-name="dotlessi" unicode="&#x131;" horiz-adv-x="222" 
d="M251 37v-27c0 -8 -10 -12 -29 -12c-51 0 -76 31 -76 94v380c0 9 4 13 12 13h39c8 0 12 -4 12 -13v-374c0 -31 10 -47 31 -50h3l4 -2c3 -2 4 -5 4 -9z" />
    <glyph glyph-name="Icircumflex" unicode="&#xee;" horiz-adv-x="222" 
d="M179 37v-27c0 -8 -10 -12 -29 -12c-51 0 -76 31 -76 94v380c0 9 4 13 12 13h39c8 0 12 -4 12 -13v-374c0 -31 10 -47 31 -50h3l4 -2c3 -2 4 -5 4 -9zM49 528h-31c-11 0 -14 4 -9 12l75 86c3 8 9 12 18 12h49c9 0 15 -4 18 -12l75 -86c5 -8 1 -12 -10 -12h-31
c-8 0 -14 4 -18 11l-59 49l-59 -49c-4 -7 -10 -11 -18 -11z" />
    <glyph glyph-name="Idieresis" unicode="&#xef;" horiz-adv-x="222" 
d="M-26 605c-8 8 -12 18 -12 30c0 11 4 21 12 30c9 9 19 13 30 13s21 -4 30 -13c8 -9 12 -19 12 -30c0 -12 -4 -22 -12 -30c-9 -9 -19 -13 -30 -13s-21 4 -30 13zM144 605c-9 8 -13 18 -13 30c0 11 4 21 13 30c8 9 18 13 29 13c12 0 22 -4 31 -13c8 -9 12 -19 12 -30
c0 -12 -4 -22 -12 -30c-9 -9 -19 -13 -31 -13c-11 0 -21 4 -29 13zM159 37v-27c0 -8 -10 -12 -29 -12c-51 0 -76 31 -76 94v380c0 9 4 13 12 13h39c8 0 12 -4 12 -13v-374c0 -31 10 -47 31 -50h3l4 -2c3 -2 4 -5 4 -9z" />
    <glyph glyph-name="Igrave" unicode="&#xec;" horiz-adv-x="222" 
d="M210 37v-27c0 -8 -10 -12 -29 -12c-51 0 -76 31 -76 94v380c0 9 4 13 12 13h39c8 0 12 -4 12 -13v-374c0 -31 10 -47 31 -50h3l4 -2c3 -2 4 -5 4 -9zM195 564h-39c-7 0 -12 3 -16 9l-71 106c-3 6 -1 9 6 9h58c6 0 11 -3 14 -8l54 -108c3 -5 1 -8 -6 -8z" />
    <glyph glyph-name="imacron" unicode="&#x12b;" horiz-adv-x="222" 
d="M154 37v-27c0 -8 -10 -12 -29 -12c-51 0 -76 31 -76 94v380c0 9 4 13 12 13h39c8 0 12 -4 12 -13v-374c0 -31 10 -47 31 -50h3l4 -2c3 -2 4 -5 4 -9zM-35 649h236c8 0 12 -4 12 -12v-24c0 -8 -4 -12 -13 -12h-236c-8 0 -12 4 -12 12v24c0 8 4 12 13 12z" />
    <glyph glyph-name="iogonek" unicode="&#x12f;" horiz-adv-x="221" 
d="M196 602c-9 -9 -20 -13 -33 -13s-24 4 -33 13s-14 19 -14 32s5 24 14 33s20 13 33 13s24 -4 33 -13s14 -20 14 -33s-5 -23 -14 -32zM243 -111l11 -21c3 -4 2 -7 -2 -10c-3 -3 -6 -5 -9 -7c-4 -3 -8 -5 -13 -7c-12 -5 -25 -8 -38 -8c-53 0 -80 24 -80 73c0 22 6 42 18 59
c9 14 22 26 39 37c-27 13 -40 42 -40 87v380c0 9 4 13 12 13h39c8 0 12 -4 12 -13v-374c0 -31 11 -47 32 -50c3 0 5 -1 7 -2c2 -2 3 -5 3 -8v-28c0 -5 -5 -9 -15 -12c-7 -3 -13 -6 -19 -10c-8 -5 -15 -10 -21 -15c-17 -15 -25 -33 -25 -53c0 -29 14 -44 43 -44
c7 0 15 2 22 5c5 2 9 5 14 9c5 3 8 2 10 -1z" />
    <glyph glyph-name="itilde" unicode="&#x129;" horiz-adv-x="222" 
d="M133 37v-27c0 -8 -10 -12 -29 -12c-51 0 -76 31 -76 94v380c0 9 4 13 12 13h39c8 0 12 -4 12 -13v-374c0 -31 10 -47 31 -50h3l4 -2c3 -2 4 -5 4 -9zM-39 570h-33c-6 0 -10 2 -11 7c-2 5 -4 10 -5 15c-1 7 -2 14 -2 21c0 21 6 37 19 50s31 20 54 20c19 0 44 -6 74 -17
l16 -7l17 -6c12 -3 23 -5 34 -5c17 0 25 7 25 22c0 11 -2 20 -6 28c-2 4 1 6 8 6h34c5 0 9 -2 10 -7c4 -8 6 -20 6 -35c0 -44 -23 -66 -70 -66c-15 0 -29 2 -44 6c-10 3 -22 7 -35 12c-29 12 -49 18 -60 18c-20 0 -30 -10 -30 -29c0 -5 1 -10 2 -15l2 -6l2 -5
c3 -5 0 -7 -7 -7z" />
    <glyph glyph-name="jcircumflex" unicode="&#x135;" horiz-adv-x="215" 
d="M41 469v-546c0 -113 -50 -170 -149 -170c-18 0 -35 2 -50 7c-5 2 -11 4 -17 7c-3 2 -7 4 -11 6c-7 3 -8 8 -5 15l11 26c3 6 7 8 11 6l3 -1l4 -2c5 -2 9 -4 12 -5c12 -4 24 -6 36 -6c61 0 92 40 92 119v545c0 8 4 12 12 12h39c8 0 12 -4 12 -13zM-66 556h-31
c-11 0 -14 4 -9 12l75 138c3 8 9 12 18 12h49c9 0 15 -4 18 -12l75 -138c5 -8 1 -12 -10 -12h-31c-8 0 -14 4 -18 11l-59 101l-59 -101c-4 -7 -10 -11 -18 -11z" />
    <glyph glyph-name="kcommaaccent" unicode="&#x137;" horiz-adv-x="531" 
d="M315 -53c9 9 20 14 33 14c33 0 49 -18 49 -54c0 -32 -9 -58 -27 -79c-6 -7 -13 -14 -22 -19c-3 -2 -7 -4 -10 -5s-5 -3 -8 -4c-4 -1 -7 0 -10 4l-13 21c-2 3 -2 5 -1 6l2 1l2 1c4 1 8 3 11 4c5 3 9 5 12 8c9 7 14 14 15 23c-13 0 -24 4 -33 13s-14 20 -14 33s5 24 14 33z
M588 36v-25c0 -9 -9 -13 -28 -13c-34 0 -61 13 -81 38c-8 10 -16 23 -23 39l-9 22l-9 23c-15 40 -30 68 -43 84c-22 25 -51 38 -88 38h-93v-230c0 -8 -4 -12 -12 -12h-38c-8 0 -12 4 -12 12v702c0 8 4 12 12 12h38c8 0 12 -4 12 -12v-426h93c49 0 89 19 118 58
c25 34 38 75 39 124c0 8 4 12 12 12h35c8 0 12 -4 12 -13c-1 -48 -11 -89 -31 -124c-23 -39 -55 -65 -98 -78c25 -9 45 -26 61 -51c6 -10 12 -22 18 -36l8 -19l7 -18c12 -32 23 -54 32 -66c15 -19 34 -29 58 -29c7 0 10 -4 10 -12z" />
    <glyph glyph-name="wacute" unicode="&#x1e83;" horiz-adv-x="745" 
d="M587 0h-53c-7 0 -11 4 -13 13l-108 356l-111 -355c-3 -9 -8 -14 -14 -14h-52c-6 0 -11 4 -14 13l-144 455c-1 4 -1 7 1 10s5 4 9 4h44c7 0 11 -3 13 -10l118 -402l120 394c3 7 8 11 13 11h38c6 0 10 -4 12 -12l115 -393l117 402c2 7 7 10 14 10h40c4 0 7 -1 10 -4
c2 -3 2 -7 1 -10l-142 -454c-3 -9 -8 -14 -14 -14zM414 564h-39c-7 0 -9 3 -6 8l47 105c3 5 8 8 14 8h58c7 0 9 -3 6 -9l-65 -104c-3 -5 -8 -8 -15 -8z" />
    <glyph glyph-name="wcircumflex" unicode="&#x175;" horiz-adv-x="745" 
d="M587 0h-53c-7 0 -11 4 -13 13l-108 356l-111 -355c-3 -9 -8 -14 -14 -14h-52c-6 0 -11 4 -14 13l-144 455c-1 4 -1 7 1 10s5 4 9 4h44c7 0 11 -3 13 -10l118 -402l120 394c3 7 8 11 13 11h38c6 0 10 -4 12 -12l115 -393l117 402c2 7 7 10 14 10h40c4 0 7 -1 10 -4
c2 -3 2 -7 1 -10l-142 -454c-3 -9 -8 -14 -14 -14zM333 528h-31c-11 0 -14 4 -9 12l75 86c3 8 9 12 18 12h49c9 0 15 -4 18 -12l75 -86c5 -8 1 -12 -10 -12h-31c-8 0 -14 4 -18 11l-59 49l-59 -49c-4 -7 -10 -11 -18 -11z" />
    <glyph glyph-name="wdieresis" unicode="&#x1e85;" horiz-adv-x="745" 
d="M310 605c-8 8 -12 18 -12 30c0 11 4 21 12 30c9 9 19 13 30 13s21 -4 30 -13c8 -9 12 -19 12 -30c0 -12 -4 -22 -12 -30c-9 -9 -19 -13 -30 -13s-21 4 -30 13zM480 605c-9 8 -13 18 -13 30c0 11 4 21 13 30c8 9 18 13 29 13c12 0 22 -4 31 -13c8 -9 12 -19 12 -30
c0 -12 -4 -22 -12 -30c-9 -9 -19 -13 -31 -13c-11 0 -21 4 -29 13zM587 0h-53c-7 0 -11 4 -13 13l-108 356l-111 -355c-3 -9 -8 -14 -14 -14h-52c-6 0 -11 4 -14 13l-144 455c-1 4 -1 7 1 10s5 4 9 4h44c7 0 11 -3 13 -10l118 -402l120 394c3 7 8 11 13 11h38
c6 0 10 -4 12 -12l115 -393l117 402c2 7 7 10 14 10h40c4 0 7 -1 10 -4c2 -3 2 -7 1 -10l-142 -454c-3 -9 -8 -14 -14 -14z" />
    <glyph glyph-name="wgrave" unicode="&#x1e81;" horiz-adv-x="745" 
d="M587 0h-53c-7 0 -11 4 -13 13l-108 356l-111 -355c-3 -9 -8 -14 -14 -14h-52c-6 0 -11 4 -14 13l-144 455c-1 4 -1 7 1 10s5 4 9 4h44c7 0 11 -3 13 -10l118 -402l120 394c3 7 8 11 13 11h38c6 0 10 -4 12 -12l115 -393l117 402c2 7 7 10 14 10h40c4 0 7 -1 10 -4
c2 -3 2 -7 1 -10l-142 -454c-3 -9 -8 -14 -14 -14zM448 564h-39c-7 0 -12 3 -16 9l-71 106c-3 6 -1 9 6 9h58c6 0 11 -3 14 -8l54 -108c3 -5 1 -8 -6 -8z" />
    <glyph glyph-name="Yacute" unicode="&#xfd;" horiz-adv-x="499" 
d="M492 469l-229 -604c-29 -75 -75 -112 -138 -112c-12 0 -23 1 -33 3c-9 1 -16 3 -22 6c-6 2 -9 6 -8 13l6 32c1 7 4 9 10 7s12 -3 19 -4c8 -1 16 -2 24 -2c38 0 66 24 85 73l42 114l-182 474c-3 9 0 13 11 13h41c8 0 13 -3 15 -10l149 -399l145 400c2 6 7 9 15 9h40
c11 0 14 -4 10 -13zM281 564h-39c-7 0 -9 3 -6 8l47 105c3 5 8 8 14 8h58c7 0 9 -3 6 -9l-65 -104c-3 -5 -8 -8 -15 -8z" />
    <glyph glyph-name="ycircumflex" unicode="&#x177;" horiz-adv-x="499" 
d="M492 469l-229 -604c-29 -75 -75 -112 -138 -112c-12 0 -23 1 -33 3c-9 1 -16 3 -22 6c-6 2 -9 6 -8 13l6 32c1 7 4 9 10 7s12 -3 19 -4c8 -1 16 -2 24 -2c38 0 66 24 85 73l42 114l-182 474c-3 9 0 13 11 13h41c8 0 13 -3 15 -10l149 -399l145 400c2 6 7 9 15 9h40
c11 0 14 -4 10 -13zM200 528h-31c-11 0 -14 4 -9 12l75 86c3 8 9 12 18 12h49c9 0 15 -4 18 -12l75 -86c5 -8 1 -12 -10 -12h-31c-8 0 -14 4 -18 11l-59 49l-59 -49c-4 -7 -10 -11 -18 -11z" />
    <glyph glyph-name="Ydieresis" unicode="&#xff;" horiz-adv-x="499" 
d="M492 469l-229 -604c-29 -75 -75 -112 -138 -112c-12 0 -23 1 -33 3c-9 1 -16 3 -22 6c-6 2 -9 6 -8 13l6 32c1 7 4 9 10 7s12 -3 19 -4c8 -1 16 -2 24 -2c38 0 66 24 85 73l42 114l-182 474c-3 9 0 13 11 13h41c8 0 13 -3 15 -10l149 -399l145 400c2 6 7 9 15 9h40
c11 0 14 -4 10 -13zM168 605c-8 8 -12 18 -12 30c0 11 4 21 12 30c9 9 19 13 30 13s21 -4 30 -13c8 -9 12 -19 12 -30c0 -12 -4 -22 -12 -30c-9 -9 -19 -13 -30 -13s-21 4 -30 13zM338 605c-9 8 -13 18 -13 30c0 11 4 21 13 30c8 9 18 13 29 13c12 0 22 -4 31 -13
c8 -9 12 -19 12 -30c0 -12 -4 -22 -12 -30c-9 -9 -19 -13 -31 -13c-11 0 -21 4 -29 13z" />
    <glyph glyph-name="ygrave" unicode="&#x1ef3;" horiz-adv-x="499" 
d="M492 469l-229 -604c-29 -75 -75 -112 -138 -112c-12 0 -23 1 -33 3c-9 1 -16 3 -22 6c-6 2 -9 6 -8 13l6 32c1 7 4 9 10 7s12 -3 19 -4c8 -1 16 -2 24 -2c38 0 66 24 85 73l42 114l-182 474c-3 9 0 13 11 13h41c8 0 13 -3 15 -10l149 -399l145 400c2 6 7 9 15 9h40
c11 0 14 -4 10 -13zM316 564h-39c-7 0 -12 3 -16 9l-71 106c-3 6 -1 9 6 9h58c6 0 11 -3 14 -8l54 -108c3 -5 1 -8 -6 -8z" />
    <glyph glyph-name="zacute" unicode="&#x17a;" horiz-adv-x="453" 
d="M441 0h-342c-7 0 -11 4 -11 12v23c0 11 4 22 11 31l282 365h-282c-7 0 -11 4 -11 11v28c0 8 4 12 12 12h341c8 0 12 -4 12 -12v-24c0 -9 -4 -20 -12 -31l-278 -364h278c8 0 12 -4 12 -12v-27c0 -8 -4 -12 -12 -12zM274 564h-39c-7 0 -9 3 -6 8l47 105c3 5 8 8 14 8h58
c7 0 9 -3 6 -9l-65 -104c-3 -5 -8 -8 -15 -8z" />
    <glyph glyph-name="Zcaron" unicode="&#x17e;" horiz-adv-x="453" 
d="M181 721h31c8 0 14 -4 18 -12l58 -100l59 100c4 8 10 12 18 12h31c11 0 15 -4 10 -12l-75 -139c-4 -8 -10 -12 -18 -12h-48c-7 0 -14 4 -19 12l-75 139c-5 8 -1 12 10 12zM441 0h-342c-7 0 -11 4 -11 12v23c0 11 4 22 11 31l282 365h-282c-7 0 -11 4 -11 11v28
c0 8 4 12 12 12h341c8 0 12 -4 12 -12v-24c0 -9 -4 -20 -12 -31l-278 -364h278c8 0 12 -4 12 -12v-27c0 -8 -4 -12 -12 -12z" />
    <glyph glyph-name="zdotaccent" unicode="&#x17c;" horiz-adv-x="453" 
d="M441 0h-342c-7 0 -11 4 -11 12v23c0 11 4 22 11 31l282 365h-282c-7 0 -11 4 -11 11v28c0 8 4 12 12 12h341c8 0 12 -4 12 -12v-24c0 -9 -4 -20 -12 -31l-278 -364h278c8 0 12 -4 12 -12v-27c0 -8 -4 -12 -12 -12zM273 611c-9 8 -13 18 -13 30c0 11 4 21 13 30
c9 8 19 12 30 12s21 -4 30 -12c8 -9 12 -19 12 -30c0 -12 -4 -22 -12 -30c-9 -9 -19 -13 -30 -13s-21 4 -30 13z" />
    <glyph glyph-name="Aacute" unicode="&#xc1;" horiz-adv-x="643" 
d="M574 11l-73 196h-302l-73 -196c-2 -7 -7 -11 -14 -11h-40c-4 0 -7 1 -10 3c-3 3 -3 6 -2 9l252 675c5 9 10 13 15 13h47c5 0 10 -4 14 -13l253 -675c1 -3 1 -6 -2 -9c-3 -2 -6 -3 -10 -3h-41c-7 0 -12 4 -14 11zM350 613l-131 -352h262zM354 782h-39c-7 0 -9 3 -6 8
l47 105c3 5 8 8 14 8h58c7 0 9 -3 6 -9l-65 -104c-3 -5 -8 -8 -15 -8z" />
    <glyph glyph-name="abreve" unicode="&#x102;" horiz-adv-x="643" 
d="M574 11l-73 196h-302l-73 -196c-2 -7 -7 -11 -14 -11h-40c-4 0 -7 1 -10 3c-3 3 -3 6 -2 9l252 675c5 9 10 13 15 13h47c5 0 10 -4 14 -13l253 -675c1 -3 1 -6 -2 -9c-3 -2 -6 -3 -10 -3h-41c-7 0 -12 4 -14 11zM350 613l-131 -352h262zM421 867h30c7 0 10 -4 10 -12
c-3 -71 -39 -106 -110 -106c-33 0 -60 9 -79 28c-21 19 -31 45 -32 78c0 3 1 6 2 8c2 3 5 4 8 4h30c7 0 11 -2 11 -7c1 -17 5 -31 12 -42c10 -14 26 -21 47 -22c39 0 59 21 61 64c0 5 3 7 10 7z" />
    <glyph glyph-name="Acircumflex" unicode="&#xc2;" horiz-adv-x="643" 
d="M574 11l-73 196h-302l-73 -196c-2 -7 -7 -11 -14 -11h-40c-4 0 -7 1 -10 3c-3 3 -3 6 -2 9l252 675c5 9 10 13 15 13h47c5 0 10 -4 14 -13l253 -675c1 -3 1 -6 -2 -9c-3 -2 -6 -3 -10 -3h-41c-7 0 -12 4 -14 11zM350 613l-131 -352h262zM273 746h-31c-11 0 -14 4 -9 12
l75 86c3 8 9 12 18 12h49c9 0 15 -4 18 -12l75 -86c5 -8 1 -12 -10 -12h-31c-8 0 -14 4 -18 11l-59 49l-59 -49c-4 -7 -10 -11 -18 -11z" />
    <glyph glyph-name="Agrave" unicode="&#xc0;" horiz-adv-x="643" 
d="M574 11l-73 196h-302l-73 -196c-2 -7 -7 -11 -14 -11h-40c-4 0 -7 1 -10 3c-3 3 -3 6 -2 9l252 675c5 9 10 13 15 13h47c5 0 10 -4 14 -13l253 -675c1 -3 1 -6 -2 -9c-3 -2 -6 -3 -10 -3h-41c-7 0 -12 4 -14 11zM350 613l-131 -352h262zM388 782h-39c-7 0 -12 3 -16 9
l-71 106c-3 6 -1 9 6 9h58c6 0 11 -3 14 -8l54 -108c3 -5 1 -8 -6 -8z" />
    <glyph glyph-name="Adieresis" unicode="&#xc4;" horiz-adv-x="643" 
d="M574 11l-73 196h-302l-73 -196c-2 -7 -7 -11 -14 -11h-40c-4 0 -7 1 -10 3c-3 3 -3 6 -2 9l252 675c5 9 10 13 15 13h47c5 0 10 -4 14 -13l253 -675c1 -3 1 -6 -2 -9c-3 -2 -6 -3 -10 -3h-41c-7 0 -12 4 -14 11zM350 613l-131 -352h262zM240 823c-8 8 -12 18 -12 30
c0 11 4 21 12 30c9 9 19 13 30 13s21 -4 30 -13c8 -9 12 -19 12 -30c0 -12 -4 -22 -12 -30c-9 -9 -19 -13 -30 -13s-21 4 -30 13zM410 823c-9 8 -13 18 -13 30c0 11 4 21 13 30c8 9 18 13 29 13c12 0 22 -4 31 -13c8 -9 12 -19 12 -30c0 -12 -4 -22 -12 -30
c-9 -9 -19 -13 -31 -13c-11 0 -21 4 -29 13z" />
    <glyph glyph-name="amacron" unicode="&#x100;" horiz-adv-x="643" 
d="M574 11l-73 196h-302l-73 -196c-2 -7 -7 -11 -14 -11h-40c-4 0 -7 1 -10 3c-3 3 -3 6 -2 9l252 675c5 9 10 13 15 13h47c5 0 10 -4 14 -13l253 -675c1 -3 1 -6 -2 -9c-3 -2 -6 -3 -10 -3h-41c-7 0 -12 4 -14 11zM350 613l-131 -352h262zM231 867h236c8 0 12 -4 12 -12
v-24c0 -8 -4 -12 -13 -12h-236c-8 0 -12 4 -12 12v24c0 8 4 12 13 12z" />
    <glyph glyph-name="aogonek" unicode="&#x104;" horiz-adv-x="643" 
d="M635 -111l10 -20c2 -5 1 -8 -2 -11l-4 -3l-5 -3c-4 -3 -8 -6 -13 -8c-12 -5 -25 -8 -38 -8c-53 0 -80 24 -80 73c0 25 8 47 25 67c6 7 13 14 22 21c7 5 14 10 23 15l-72 195h-302l-73 -196c-2 -7 -7 -11 -14 -11h-40c-4 0 -7 1 -10 3c-3 3 -3 6 -2 9l252 675
c5 9 10 13 15 13h47c5 0 10 -4 14 -13l253 -675c1 -3 1 -6 -2 -9c-3 -2 -6 -3 -10 -3h-14c-3 -1 -7 -3 -10 -4l-11 -6c-9 -5 -16 -11 -23 -16c-17 -15 -26 -33 -26 -54c0 -29 14 -44 43 -44c8 0 16 2 23 5c5 2 10 5 15 9c5 3 8 3 9 -1zM350 613l-131 -352h262z" />
    <glyph glyph-name="Aring" unicode="&#xc5;" horiz-adv-x="643" 
d="M574 11l-73 196h-302l-73 -196c-2 -7 -7 -11 -14 -11h-40c-4 0 -7 1 -10 3c-3 3 -3 6 -2 9l252 675c5 9 10 13 15 13h47c5 0 10 -4 14 -13l253 -675c1 -3 1 -6 -2 -9c-3 -2 -6 -3 -10 -3h-41c-7 0 -12 4 -14 11zM350 613l-131 -352h262zM299 800c-14 14 -21 32 -21 53
s7 39 21 53c15 14 33 21 54 21s38 -7 52 -21s21 -32 21 -53s-7 -39 -21 -53s-31 -21 -52 -21s-39 7 -54 21zM353 892c-27 0 -40 -13 -40 -39c0 -27 13 -40 40 -40c26 0 39 13 39 40c0 26 -13 39 -39 39z" />
    <glyph glyph-name="Atilde" unicode="&#xc3;" horiz-adv-x="643" 
d="M574 11l-73 196h-302l-73 -196c-2 -7 -7 -11 -14 -11h-40c-4 0 -7 1 -10 3c-3 3 -3 6 -2 9l252 675c5 9 10 13 15 13h47c5 0 10 -4 14 -13l253 -675c1 -3 1 -6 -2 -9c-3 -2 -6 -3 -10 -3h-41c-7 0 -12 4 -14 11zM350 613l-131 -352h262zM261 788h-33c-6 0 -10 2 -11 7
c-2 5 -4 10 -5 15c-1 7 -2 14 -2 21c0 21 6 37 19 50s31 20 54 20c19 0 44 -6 74 -17c30 -12 52 -18 67 -18c17 0 25 7 25 22c0 11 -2 20 -6 28c-2 4 1 6 8 6h34c5 0 9 -2 10 -7c4 -8 6 -20 6 -35c0 -44 -23 -66 -70 -66c-15 0 -29 2 -44 6c-10 3 -22 7 -35 12
c-29 12 -49 18 -60 18c-20 0 -30 -10 -30 -29c0 -5 1 -10 2 -15l2 -6l2 -5c3 -5 0 -7 -7 -7z" />
    <glyph glyph-name="cacute" unicode="&#x106;" horiz-adv-x="635" 
d="M618 148l26 -27c5 -5 5 -10 0 -16c-3 -3 -6 -7 -9 -11c-4 -5 -9 -11 -14 -16c-13 -14 -28 -26 -45 -37c-47 -31 -100 -47 -159 -47c-91 0 -163 27 -216 82c-58 61 -87 152 -87 272c0 119 28 210 83 273c51 57 119 85 206 85c85 0 150 -28 194 -84c15 -20 26 -42 35 -67
c3 -9 6 -18 8 -27c2 -7 3 -14 4 -20c1 -8 -2 -13 -11 -14l-36 -7c-8 -1 -13 2 -14 9c-1 5 -2 11 -4 17c-1 8 -3 16 -6 23c-7 19 -17 35 -28 50c-33 42 -80 63 -141 63c-65 0 -117 -23 -156 -68c-45 -53 -67 -130 -67 -233c0 -104 25 -182 74 -233c41 -43 96 -64 164 -64
c45 0 86 13 124 38c13 9 26 20 37 31c5 5 9 9 13 14l5 5l4 5c6 8 11 9 16 4zM384 782h-39c-7 0 -9 3 -6 8l47 105c3 5 8 8 14 8h58c7 0 9 -3 6 -9l-65 -104c-3 -5 -8 -8 -15 -8z" />
    <glyph glyph-name="ccaron" unicode="&#x10c;" horiz-adv-x="635" 
d="M306 939h31c8 0 14 -4 18 -12l58 -100l59 100c4 8 10 12 18 12h31c11 0 15 -4 10 -12l-75 -139c-4 -8 -10 -12 -18 -12h-48c-7 0 -14 4 -19 12l-75 139c-5 8 -1 12 10 12zM618 148l26 -27c5 -5 5 -10 0 -16c-3 -3 -6 -7 -9 -11c-4 -5 -9 -11 -14 -16
c-13 -14 -28 -26 -45 -37c-47 -31 -100 -47 -159 -47c-91 0 -163 27 -216 82c-58 61 -87 152 -87 272c0 119 28 210 83 273c51 57 119 85 206 85c85 0 150 -28 194 -84c15 -20 26 -42 35 -67c3 -9 6 -18 8 -27c2 -7 3 -14 4 -20c1 -8 -2 -13 -11 -14l-36 -7
c-8 -1 -13 2 -14 9c-1 5 -2 11 -4 17c-1 8 -3 16 -6 23c-7 19 -17 35 -28 50c-33 42 -80 63 -141 63c-65 0 -117 -23 -156 -68c-45 -53 -67 -130 -67 -233c0 -104 25 -182 74 -233c41 -43 96 -64 164 -64c45 0 86 13 124 38c13 9 26 20 37 31c5 5 9 9 13 14l5 5l4 5
c6 8 11 9 16 4z" />
    <glyph glyph-name="Ccedilla" unicode="&#xc7;" horiz-adv-x="635" 
d="M618 148l26 -27c5 -5 5 -10 0 -16c-3 -3 -6 -7 -9 -11c-4 -5 -9 -11 -14 -16c-13 -13 -28 -25 -44 -36c-46 -31 -98 -47 -155 -48l-12 -31c17 -1 33 -7 46 -18c15 -13 23 -29 23 -50c0 -22 -8 -39 -24 -52c-15 -12 -36 -18 -61 -18c-16 0 -31 3 -44 9c-5 2 -10 5 -15 8
c-3 2 -6 4 -9 7s-4 7 -2 11l9 18c2 4 5 5 10 3l3 -3l5 -2c3 -3 7 -5 11 -7c11 -5 21 -7 32 -7c29 0 44 11 44 34c0 11 -5 20 -16 27c-13 9 -32 13 -57 13c-2 0 -3 1 -4 2s-1 3 0 5l22 53c-81 7 -145 37 -192 92c-51 61 -77 147 -77 260c0 119 28 210 83 273
c51 57 119 85 206 85c85 0 150 -28 194 -84c15 -20 26 -42 35 -67c3 -9 6 -18 8 -27c2 -7 3 -14 4 -20c1 -8 -2 -13 -11 -14l-36 -7c-8 -1 -13 2 -14 9c-1 5 -2 11 -4 17c-1 8 -3 16 -6 23c-7 19 -17 35 -28 50c-33 42 -80 63 -141 63c-65 0 -117 -23 -156 -68
c-45 -53 -67 -130 -67 -233c0 -104 25 -182 74 -233c41 -43 96 -64 164 -64c45 0 86 13 124 38c13 9 26 20 37 31c5 5 9 9 13 14l5 5l4 5c6 8 11 9 16 4z" />
    <glyph glyph-name="ccircumflex" unicode="&#x108;" horiz-adv-x="635" 
d="M618 148l26 -27c5 -5 5 -10 0 -16c-3 -3 -6 -7 -9 -11c-4 -5 -9 -11 -14 -16c-13 -14 -28 -26 -45 -37c-47 -31 -100 -47 -159 -47c-91 0 -163 27 -216 82c-58 61 -87 152 -87 272c0 119 28 210 83 273c51 57 119 85 206 85c85 0 150 -28 194 -84c15 -20 26 -42 35 -67
c3 -9 6 -18 8 -27c2 -7 3 -14 4 -20c1 -8 -2 -13 -11 -14l-36 -7c-8 -1 -13 2 -14 9c-1 5 -2 11 -4 17c-1 8 -3 16 -6 23c-7 19 -17 35 -28 50c-33 42 -80 63 -141 63c-65 0 -117 -23 -156 -68c-45 -53 -67 -130 -67 -233c0 -104 25 -182 74 -233c41 -43 96 -64 164 -64
c45 0 86 13 124 38c13 9 26 20 37 31c5 5 9 9 13 14l5 5l4 5c6 8 11 9 16 4zM303 746h-31c-11 0 -14 4 -9 12l75 86c3 8 9 12 18 12h49c9 0 15 -4 18 -12l75 -86c5 -8 1 -12 -10 -12h-31c-8 0 -14 4 -18 11l-59 49l-59 -49c-4 -7 -10 -11 -18 -11z" />
    <glyph glyph-name="cdotaccent" unicode="&#x10a;" horiz-adv-x="635" 
d="M618 148l26 -27c5 -5 5 -10 0 -16c-3 -3 -6 -7 -9 -11c-4 -5 -9 -11 -14 -16c-13 -14 -28 -26 -45 -37c-47 -31 -100 -47 -159 -47c-91 0 -163 27 -216 82c-58 61 -87 152 -87 272c0 119 28 210 83 273c51 57 119 85 206 85c85 0 150 -28 194 -84c15 -20 26 -42 35 -67
c3 -9 6 -18 8 -27c2 -7 3 -14 4 -20c1 -8 -2 -13 -11 -14l-36 -7c-8 -1 -13 2 -14 9c-1 5 -2 11 -4 17c-1 8 -3 16 -6 23c-7 19 -17 35 -28 50c-33 42 -80 63 -141 63c-65 0 -117 -23 -156 -68c-45 -53 -67 -130 -67 -233c0 -104 25 -182 74 -233c41 -43 96 -64 164 -64
c45 0 86 13 124 38c13 9 26 20 37 31c5 5 9 9 13 14l5 5l4 5c6 8 11 9 16 4zM385 829c-9 8 -13 18 -13 30c0 11 4 21 13 30c9 8 19 12 30 12s21 -4 30 -12c8 -9 12 -19 12 -30c0 -12 -4 -22 -12 -30c-9 -9 -19 -13 -30 -13s-21 4 -30 13z" />
    <glyph glyph-name="dcaron" unicode="&#x10e;" horiz-adv-x="659" 
d="M295 939h31c8 0 14 -4 18 -12l58 -100l59 100c4 8 10 12 18 12h31c11 0 15 -4 10 -12l-75 -139c-4 -8 -10 -12 -18 -12h-48c-7 0 -14 4 -19 12l-75 139c-5 8 -1 12 10 12zM394 0h-200c-8 0 -12 4 -12 12v676c0 8 4 12 12 12h164c99 0 178 -28 237 -84
c65 -62 98 -153 98 -273c0 -115 -28 -201 -83 -260c-52 -55 -124 -83 -216 -83zM247 56h147c73 0 129 23 169 70c43 50 64 122 64 217c0 101 -25 177 -76 229c-47 48 -111 72 -194 72h-110v-588z" />
    <glyph glyph-name="dcroat" unicode="&#x110;" horiz-adv-x="664" 
d="M351 0h-200c-8 0 -12 4 -12 12v312h-38c-9 0 -13 4 -13 12v27c0 7 4 11 12 11h39v314c0 8 4 12 12 12h164c99 0 178 -28 237 -84c65 -62 98 -153 98 -273c0 -115 -28 -201 -83 -260c-52 -55 -124 -83 -216 -83zM204 56h147c73 0 129 23 169 70c43 50 64 122 64 217
c0 101 -25 177 -76 229c-47 48 -111 72 -194 72h-110v-270h185c8 0 12 -4 12 -11v-27c0 -8 -4 -12 -13 -12h-184v-268z" />
    <glyph glyph-name="Eacute" unicode="&#xc9;" horiz-adv-x="553" 
d="M578 0h-384c-8 0 -12 4 -12 12v676c0 8 4 12 12 12h384c9 0 13 -4 13 -12v-32c0 -8 -4 -12 -13 -12h-331v-268h282c8 0 12 -4 12 -12v-31c0 -8 -4 -12 -13 -12h-281v-265h331c9 0 13 -4 13 -12v-32c0 -8 -4 -12 -13 -12zM390 782h-39c-7 0 -9 3 -6 8l47 105c3 5 8 8 14 8
h58c7 0 9 -3 6 -9l-65 -104c-3 -5 -8 -8 -15 -8z" />
    <glyph glyph-name="ebreve" unicode="&#x114;" horiz-adv-x="553" 
d="M578 0h-384c-8 0 -12 4 -12 12v676c0 8 4 12 12 12h384c9 0 13 -4 13 -12v-32c0 -8 -4 -12 -13 -12h-331v-268h282c8 0 12 -4 12 -12v-31c0 -8 -4 -12 -13 -12h-281v-265h331c9 0 13 -4 13 -12v-32c0 -8 -4 -12 -13 -12zM457 867h30c7 0 10 -4 10 -12
c-3 -71 -39 -106 -110 -106c-33 0 -60 9 -79 28c-21 19 -31 45 -32 78c0 3 1 6 2 8c2 3 5 4 8 4h30c7 0 11 -2 11 -7c1 -17 5 -31 12 -42c10 -14 26 -21 47 -22c39 0 59 21 61 64c0 5 3 7 10 7z" />
    <glyph glyph-name="ecaron" unicode="&#x11a;" horiz-adv-x="553" 
d="M312 939h31c8 0 14 -4 18 -12l58 -100l59 100c4 8 10 12 18 12h31c11 0 15 -4 10 -12l-75 -139c-4 -8 -10 -12 -18 -12h-48c-7 0 -14 4 -19 12l-75 139c-5 8 -1 12 10 12zM578 0h-384c-8 0 -12 4 -12 12v676c0 8 4 12 12 12h384c9 0 13 -4 13 -12v-32
c0 -8 -4 -12 -13 -12h-331v-268h282c8 0 12 -4 12 -12v-31c0 -8 -4 -12 -13 -12h-281v-265h331c9 0 13 -4 13 -12v-32c0 -8 -4 -12 -13 -12z" />
    <glyph glyph-name="Ecircumflex" unicode="&#xca;" horiz-adv-x="553" 
d="M578 0h-384c-8 0 -12 4 -12 12v676c0 8 4 12 12 12h384c9 0 13 -4 13 -12v-32c0 -8 -4 -12 -13 -12h-331v-268h282c8 0 12 -4 12 -12v-31c0 -8 -4 -12 -13 -12h-281v-265h331c9 0 13 -4 13 -12v-32c0 -8 -4 -12 -13 -12zM309 746h-31c-11 0 -14 4 -9 12l75 86
c3 8 9 12 18 12h49c9 0 15 -4 18 -12l75 -86c5 -8 1 -12 -10 -12h-31c-8 0 -14 4 -18 11l-59 49l-59 -49c-4 -7 -10 -11 -18 -11z" />
    <glyph glyph-name="Edieresis" unicode="&#xcb;" horiz-adv-x="553" 
d="M298 823c-8 8 -12 18 -12 30c0 11 4 21 12 30c9 9 19 13 30 13s21 -4 30 -13c8 -9 12 -19 12 -30c0 -12 -4 -22 -12 -30c-9 -9 -19 -13 -30 -13s-21 4 -30 13zM468 823c-9 8 -13 18 -13 30c0 11 4 21 13 30c8 9 18 13 29 13c12 0 22 -4 31 -13c8 -9 12 -19 12 -30
c0 -12 -4 -22 -12 -30c-9 -9 -19 -13 -31 -13c-11 0 -21 4 -29 13zM578 0h-384c-8 0 -12 4 -12 12v676c0 8 4 12 12 12h384c9 0 13 -4 13 -12v-32c0 -8 -4 -12 -13 -12h-331v-268h282c8 0 12 -4 12 -12v-31c0 -8 -4 -12 -13 -12h-281v-265h331c9 0 13 -4 13 -12v-32
c0 -8 -4 -12 -13 -12z" />
    <glyph glyph-name="edotaccent" unicode="&#x116;" horiz-adv-x="553" 
d="M578 0h-384c-8 0 -12 4 -12 12v676c0 8 4 12 12 12h384c9 0 13 -4 13 -12v-32c0 -8 -4 -12 -13 -12h-331v-268h282c8 0 12 -4 12 -12v-31c0 -8 -4 -12 -13 -12h-281v-265h331c9 0 13 -4 13 -12v-32c0 -8 -4 -12 -13 -12zM378 829c-9 8 -13 18 -13 30c0 11 4 21 13 30
c9 8 19 12 30 12s21 -4 30 -12c8 -9 12 -19 12 -30c0 -12 -4 -22 -12 -30c-9 -9 -19 -13 -30 -13s-21 4 -30 13z" />
    <glyph glyph-name="Egrave" unicode="&#xc8;" horiz-adv-x="553" 
d="M578 0h-384c-8 0 -12 4 -12 12v676c0 8 4 12 12 12h384c9 0 13 -4 13 -12v-32c0 -8 -4 -12 -13 -12h-331v-268h282c8 0 12 -4 12 -12v-31c0 -8 -4 -12 -13 -12h-281v-265h331c9 0 13 -4 13 -12v-32c0 -8 -4 -12 -13 -12zM424 782h-39c-7 0 -12 3 -16 9l-71 106
c-3 6 -1 9 6 9h58c6 0 11 -3 14 -8l54 -108c3 -5 1 -8 -6 -8z" />
    <glyph glyph-name="emacron" unicode="&#x112;" horiz-adv-x="553" 
d="M578 0h-384c-8 0 -12 4 -12 12v676c0 8 4 12 12 12h384c9 0 13 -4 13 -12v-32c0 -8 -4 -12 -13 -12h-331v-268h282c8 0 12 -4 12 -12v-31c0 -8 -4 -12 -13 -12h-281v-265h331c9 0 13 -4 13 -12v-32c0 -8 -4 -12 -13 -12zM290 867h236c8 0 12 -4 12 -12v-24
c0 -8 -4 -12 -13 -12h-236c-8 0 -12 4 -12 12v24c0 8 4 12 13 12z" />
    <glyph glyph-name="eogonek" unicode="&#x118;" horiz-adv-x="553" 
d="M570 -6l-10 -5c-9 -5 -16 -10 -22 -15c-17 -16 -26 -34 -26 -54c0 -29 14 -44 42 -44c8 0 16 2 23 5c5 2 10 5 15 9s8 4 10 -1l9 -20c2 -5 2 -8 -1 -11s-6 -5 -9 -7c-4 -3 -8 -5 -13 -7c-12 -5 -25 -8 -39 -8c-53 0 -79 24 -79 73c0 36 16 66 49 91h-325
c-8 0 -12 4 -12 12v676c0 8 4 12 12 12h384c9 0 13 -4 13 -12v-32c0 -8 -4 -12 -13 -12h-331v-268h282c8 0 12 -4 12 -12v-31c0 -8 -4 -12 -13 -12h-281v-265h331c9 0 13 -4 13 -12v-32c0 -5 -4 -10 -13 -14c-3 -1 -5 -3 -8 -4z" />
    <glyph glyph-name="gbreve" unicode="&#x11e;" horiz-adv-x="652" 
d="M652 334v-79c0 -80 -20 -143 -60 -188c-43 -49 -106 -73 -188 -73c-85 0 -153 27 -204 82c-57 62 -86 153 -86 272s28 210 83 273c51 57 119 85 206 85c75 0 134 -23 178 -69c33 -35 54 -77 63 -127c1 -7 -3 -12 -12 -13l-36 -7c-7 -1 -12 1 -13 8c-8 41 -24 74 -49 100
c-32 34 -75 51 -130 51c-65 0 -117 -23 -156 -68c-45 -53 -67 -130 -67 -233s24 -181 72 -232c39 -43 90 -65 152 -65c122 0 183 68 183 204v40h-172c-8 0 -12 4 -12 12v27c0 8 4 12 12 12h224c8 0 12 -4 12 -12zM454 867h30c7 0 10 -4 10 -12c-3 -71 -39 -106 -110 -106
c-33 0 -60 9 -79 28c-21 19 -31 45 -32 78c0 3 1 6 2 8c2 3 5 4 8 4h30c7 0 11 -2 11 -7c1 -17 5 -31 12 -42c10 -14 26 -21 47 -22c39 0 59 21 61 64c0 5 3 7 10 7z" />
    <glyph glyph-name="gcircumflex" unicode="&#x11c;" horiz-adv-x="652" 
d="M652 334v-79c0 -80 -20 -143 -60 -188c-43 -49 -106 -73 -188 -73c-85 0 -153 27 -204 82c-57 62 -86 153 -86 272s28 210 83 273c51 57 119 85 206 85c75 0 134 -23 178 -69c33 -35 54 -77 63 -127c1 -7 -3 -12 -12 -13l-36 -7c-7 -1 -12 1 -13 8c-8 41 -24 74 -49 100
c-32 34 -75 51 -130 51c-65 0 -117 -23 -156 -68c-45 -53 -67 -130 -67 -233s24 -181 72 -232c39 -43 90 -65 152 -65c122 0 183 68 183 204v40h-172c-8 0 -12 4 -12 12v27c0 8 4 12 12 12h224c8 0 12 -4 12 -12zM306 746h-31c-11 0 -14 4 -9 12l75 86c3 8 9 12 18 12h49
c9 0 15 -4 18 -12l75 -86c5 -8 1 -12 -10 -12h-31c-8 0 -14 4 -18 11l-59 49l-59 -49c-4 -7 -10 -11 -18 -11z" />
    <glyph glyph-name="gcommaaccent" unicode="&#x122;" horiz-adv-x="652" 
d="M378 -53c9 9 20 14 33 14c33 0 49 -18 49 -54c0 -32 -9 -58 -27 -79c-6 -7 -13 -14 -22 -19c-3 -2 -7 -4 -10 -5s-5 -3 -8 -4c-4 -1 -7 0 -10 4l-13 21c-2 3 -2 5 -1 6l2 1l2 1c4 1 8 3 11 4c5 3 9 5 12 8c9 7 14 14 15 23c-13 0 -24 4 -33 13s-14 20 -14 33s5 24 14 33z
M652 334v-79c0 -80 -20 -143 -60 -188c-43 -49 -106 -73 -188 -73c-85 0 -153 27 -204 82c-57 62 -86 153 -86 272s28 210 83 273c51 57 119 85 206 85c75 0 134 -23 178 -69c33 -35 54 -77 63 -127c1 -7 -3 -12 -12 -13l-36 -7c-7 -1 -12 1 -13 8c-8 41 -24 74 -49 100
c-32 34 -75 51 -130 51c-65 0 -117 -23 -156 -68c-45 -53 -67 -130 -67 -233s24 -181 72 -232c39 -43 90 -65 152 -65c122 0 183 68 183 204v40h-172c-8 0 -12 4 -12 12v27c0 8 4 12 12 12h224c8 0 12 -4 12 -12z" />
    <glyph glyph-name="gdotaccent" unicode="&#x120;" horiz-adv-x="652" 
d="M652 334v-79c0 -80 -20 -143 -60 -188c-43 -49 -106 -73 -188 -73c-85 0 -153 27 -204 82c-57 62 -86 153 -86 272s28 210 83 273c51 57 119 85 206 85c75 0 134 -23 178 -69c33 -35 54 -77 63 -127c1 -7 -3 -12 -12 -13l-36 -7c-7 -1 -12 1 -13 8c-8 41 -24 74 -49 100
c-32 34 -75 51 -130 51c-65 0 -117 -23 -156 -68c-45 -53 -67 -130 -67 -233s24 -181 72 -232c39 -43 90 -65 152 -65c122 0 183 68 183 204v40h-172c-8 0 -12 4 -12 12v27c0 8 4 12 12 12h224c8 0 12 -4 12 -12zM384 829c-9 8 -13 18 -13 30c0 11 4 21 13 30
c9 8 19 12 30 12s21 -4 30 -12c8 -9 12 -19 12 -30c0 -12 -4 -22 -12 -30c-9 -9 -19 -13 -30 -13s-21 4 -30 13z" />
    <glyph glyph-name="hbar" unicode="&#x126;" horiz-adv-x="695" 
d="M634 688v-113h49c8 0 12 -4 12 -12v-26c0 -8 -4 -12 -12 -12h-49v-513c0 -8 -4 -12 -12 -12h-41c-8 0 -12 4 -12 12v304h-367v-304c0 -8 -4 -12 -12 -12h-41c-8 0 -12 4 -12 12v513h-43c-8 0 -12 4 -12 12v26c0 8 4 12 13 12h42v113c0 8 4 12 12 12h41c8 0 12 -4 12 -12
v-113h367v113c0 8 4 12 12 12h41c8 0 12 -4 12 -12zM202 372h367v153h-367v-153z" />
    <glyph glyph-name="hcircumflex" unicode="&#x124;" horiz-adv-x="679" 
d="M679 688v-676c0 -8 -4 -12 -12 -12h-41c-8 0 -12 4 -12 12v304h-367v-304c0 -8 -4 -12 -12 -12h-41c-8 0 -12 4 -12 12v676c0 8 4 12 12 12h41c8 0 12 -4 12 -12v-316h367v316c0 8 4 12 12 12h41c8 0 12 -4 12 -12zM353 746h-31c-11 0 -14 4 -9 12l75 86c3 8 9 12 18 12
h49c9 0 15 -4 18 -12l75 -86c5 -8 1 -12 -10 -12h-31c-8 0 -14 4 -18 11l-59 49l-59 -49c-4 -7 -10 -11 -18 -11z" />
    <glyph glyph-name="Iacute" unicode="&#xcd;" horiz-adv-x="247" 
d="M234 688v-676c0 -8 -4 -12 -12 -12h-41c-8 0 -12 4 -12 12v676c0 8 4 12 12 12h41c8 0 12 -4 12 -12zM205 782h-39c-7 0 -9 3 -6 8l47 105c3 5 8 8 14 8h58c7 0 9 -3 6 -9l-65 -104c-3 -5 -8 -8 -15 -8z" />
    <glyph glyph-name="Ibreve" unicode="&#x12c;" horiz-adv-x="247" 
d="M169 688v-676c0 -8 -4 -12 -12 -12h-41c-8 0 -12 4 -12 12v676c0 8 4 12 12 12h41c8 0 12 -4 12 -12zM207 867h30c7 0 10 -4 10 -12c-3 -71 -39 -106 -110 -106c-33 0 -60 9 -79 28c-21 19 -31 45 -32 78c0 3 1 6 2 8c2 3 5 4 8 4h30c7 0 11 -2 11 -7c1 -17 5 -31 12 -42
c10 -14 26 -21 47 -22c39 0 59 21 61 64c0 5 3 7 10 7z" />
    <glyph glyph-name="Icircumflex" unicode="&#xce;" horiz-adv-x="247" 
d="M155 688v-676c0 -8 -4 -12 -12 -12h-41c-8 0 -12 4 -12 12v676c0 8 4 12 12 12h41c8 0 12 -4 12 -12zM45 746h-31c-11 0 -14 4 -9 12l75 86c3 8 9 12 18 12h49c9 0 15 -4 18 -12l75 -86c5 -8 1 -12 -10 -12h-31c-8 0 -14 4 -18 11l-59 49l-59 -49c-4 -7 -10 -11 -18 -11z
" />
    <glyph glyph-name="Idieresis" unicode="&#xcf;" horiz-adv-x="247" 
d="M151 688v-676c0 -8 -4 -12 -12 -12h-41c-8 0 -12 4 -12 12v676c0 8 4 12 12 12h41c8 0 12 -4 12 -12zM2 809c-8 8 -12 18 -12 30c0 11 4 21 12 30c9 9 19 13 30 13s21 -4 30 -13c8 -9 12 -19 12 -30c0 -12 -4 -22 -12 -30c-9 -9 -19 -13 -30 -13s-21 4 -30 13zM172 809
c-9 8 -13 18 -13 30c0 11 4 21 13 30c8 9 18 13 29 13c12 0 22 -4 31 -13c8 -9 12 -19 12 -30c0 -12 -4 -22 -12 -30c-9 -9 -19 -13 -31 -13c-11 0 -21 4 -29 13z" />
    <glyph glyph-name="Idotaccent" unicode="&#x130;" horiz-adv-x="247" 
d="M234 688v-676c0 -8 -4 -12 -12 -12h-41c-8 0 -12 4 -12 12v676c0 8 4 12 12 12h41c8 0 12 -4 12 -12zM169 824c-9 8 -13 18 -13 30c0 11 4 21 13 30c9 8 19 12 30 12s21 -4 30 -12c8 -9 12 -19 12 -30c0 -12 -4 -22 -12 -30c-9 -9 -19 -13 -30 -13s-21 4 -30 13z" />
    <glyph glyph-name="Igrave" unicode="&#xcc;" horiz-adv-x="247" 
d="M186 688v-676c0 -8 -4 -12 -12 -12h-41c-8 0 -12 4 -12 12v676c0 8 4 12 12 12h41c8 0 12 -4 12 -12zM191 782h-39c-7 0 -12 3 -16 9l-71 106c-3 6 -1 9 6 9h58c6 0 11 -3 14 -8l54 -108c3 -5 1 -8 -6 -8z" />
    <glyph glyph-name="iogonek" unicode="&#x12e;" horiz-adv-x="248" 
d="M100 -23c-19 -15 -28 -34 -28 -57c0 -29 14 -44 43 -44c8 0 16 2 23 5c6 2 11 5 15 9c5 3 8 3 9 -1l10 -20c2 -5 1 -8 -2 -11c-2 -2 -5 -4 -8 -7c-4 -3 -8 -5 -13 -7c-12 -5 -25 -8 -39 -8c-53 0 -80 24 -80 73c0 26 9 49 27 70c13 15 29 27 50 38v671c0 8 4 12 12 12h41
c8 0 12 -4 12 -12v-676c0 -8 -4 -12 -11 -12c-23 -1 -43 -9 -61 -23z" />
    <glyph glyph-name="itilde" unicode="&#x128;" horiz-adv-x="247" 
d="M132 688v-676c0 -8 -4 -12 -12 -12h-41c-8 0 -12 4 -12 12v676c0 8 4 12 12 12h41c8 0 12 -4 12 -12zM3 776h-33c-6 0 -10 2 -11 7c-2 5 -4 10 -5 15c-1 7 -2 14 -2 21c0 21 6 37 19 50s31 20 54 20c19 0 44 -6 74 -17l16 -7l17 -6c12 -3 23 -5 34 -5c17 0 25 7 25 22
c0 11 -2 20 -6 28c-2 4 1 6 8 6h34c5 0 9 -2 10 -7c4 -8 6 -20 6 -35c0 -44 -23 -66 -70 -66c-15 0 -29 2 -44 6c-10 3 -22 7 -35 12c-29 12 -49 18 -60 18c-20 0 -30 -10 -30 -29c0 -5 1 -10 2 -15l2 -6l2 -5c3 -5 0 -7 -7 -7z" />
    <glyph glyph-name="jcircumflex" unicode="&#x134;" horiz-adv-x="454" 
d="M309 193v495c0 8 4 12 12 12h41c8 0 12 -4 12 -12v-490c0 -68 -18 -120 -55 -155c-34 -33 -80 -49 -137 -49c-40 0 -77 9 -110 28c-11 7 -22 14 -33 22c-3 3 -7 7 -11 10l-4 4l-3 3c-5 5 -5 10 0 15l27 29c5 6 11 6 16 1l3 -3l3 -3c3 -3 6 -5 9 -8c7 -7 16 -14 25 -19
c25 -15 51 -23 78 -23c85 0 127 48 127 143zM118 746h-31c-11 0 -14 4 -9 12l75 86c3 8 9 12 18 12h49c9 0 15 -4 18 -12l75 -86c5 -8 1 -12 -10 -12h-31c-8 0 -14 4 -18 11l-59 49l-59 -49c-4 -7 -10 -11 -18 -11z" />
    <glyph glyph-name="kcommaaccent" unicode="&#x136;" horiz-adv-x="664" 
d="M374 -53c9 9 20 14 33 14c33 0 49 -18 49 -54c0 -32 -9 -58 -27 -79c-6 -7 -13 -14 -22 -19c-3 -2 -7 -4 -10 -5s-5 -3 -8 -4c-4 -1 -7 0 -10 4l-13 21c-2 3 -2 5 -1 6l2 1l2 1c4 1 8 3 11 4c5 3 9 5 12 8c9 7 14 14 15 23c-13 0 -24 4 -33 13s-14 20 -14 33s5 24 14 33z
M247 366h139c53 0 97 24 134 71c44 57 68 141 71 251c0 8 4 12 12 12h40c8 0 12 -4 12 -13c0 -99 -19 -181 -58 -245c-31 -49 -69 -83 -114 -102c25 -10 48 -31 69 -64c9 -13 18 -29 27 -48l12 -25l13 -25c20 -43 37 -73 50 -90c20 -26 42 -39 65 -39h15c8 0 12 -4 12 -12
v-25c0 -6 -4 -10 -12 -12c-8 -1 -19 -2 -32 -2c-38 0 -71 16 -99 49c-17 20 -38 56 -62 108l-14 29l-14 28c-11 21 -22 37 -32 50c-25 33 -55 49 -90 49h-144v-299c0 -8 -4 -12 -12 -12h-41c-8 0 -12 4 -12 12v676c0 8 4 12 12 12h41c8 0 12 -4 12 -12v-322z" />
    <glyph glyph-name="lacute" unicode="&#x139;" horiz-adv-x="526" 
d="M247 688v-632h346c8 0 12 -4 12 -12v-32c0 -8 -4 -12 -13 -12h-398c-8 0 -12 4 -12 12v676c0 8 4 12 12 12h41c8 0 12 -4 12 -12zM397 782h-39c-7 0 -9 3 -6 8l47 105c3 5 8 8 14 8h58c7 0 9 -3 6 -9l-65 -104c-3 -5 -8 -8 -15 -8z" />
    <glyph glyph-name="lcaron" unicode="&#x13d;" horiz-adv-x="526" 
d="M302 678c9 9 20 14 33 14c33 0 49 -18 49 -54c0 -32 -9 -58 -27 -79c-6 -7 -13 -14 -22 -19c-3 -2 -7 -4 -10 -5s-5 -3 -8 -4c-4 -1 -7 0 -10 4l-13 21c-2 3 -2 5 -1 6l2 1l2 1c4 1 8 3 11 4c5 3 9 5 12 8c9 7 14 14 15 23c-13 0 -24 4 -33 13s-14 20 -14 33s5 24 14 33z
M247 688v-632h346c8 0 12 -4 12 -12v-32c0 -8 -4 -12 -13 -12h-398c-8 0 -12 4 -12 12v676c0 8 4 12 12 12h41c8 0 12 -4 12 -12z" />
    <glyph glyph-name="lcommaaccent" unicode="&#x13b;" horiz-adv-x="526" 
d="M345 -90c9 9 20 14 33 14c33 0 49 -18 49 -54c0 -32 -9 -58 -27 -79c-6 -7 -13 -14 -22 -19c-3 -2 -7 -4 -10 -5s-5 -3 -8 -4c-4 -1 -7 0 -10 4l-13 21c-2 3 -2 5 -1 6l2 1l2 1c4 1 8 3 11 4c5 3 9 5 12 8c9 7 14 14 15 23c-13 0 -24 4 -33 13s-14 20 -14 33s5 24 14 33z
M247 688v-632h346c8 0 12 -4 12 -12v-32c0 -8 -4 -12 -13 -12h-398c-8 0 -12 4 -12 12v676c0 8 4 12 12 12h41c8 0 12 -4 12 -12z" />
    <glyph glyph-name="ldot" unicode="&#x13f;" horiz-adv-x="526" 
d="M247 688v-632h346c8 0 12 -4 12 -12v-32c0 -8 -4 -12 -13 -12h-398c-8 0 -12 4 -12 12v676c0 8 4 12 12 12h41c8 0 12 -4 12 -12zM433 196c-9 8 -13 18 -13 30c0 11 4 21 13 30c9 8 19 12 30 12s21 -4 30 -12c8 -9 12 -19 12 -30c0 -12 -4 -22 -12 -30
c-9 -9 -19 -13 -30 -13s-21 4 -30 13z" />
    <glyph glyph-name="Lslash" unicode="&#x141;" horiz-adv-x="544" 
d="M171 688v-289l96 55c9 5 15 3 20 -4l10 -19c4 -8 2 -14 -5 -18l-121 -70v-287h346c8 0 12 -4 12 -12v-32c0 -8 -4 -12 -13 -12h-398c-8 0 -12 4 -12 12v293l-75 -43c-10 -5 -17 -3 -20 5l-10 18c-5 9 -3 15 5 19l100 57v327c0 8 4 12 12 12h41c8 0 12 -4 12 -12z" />
    <glyph glyph-name="nacute" unicode="&#x143;" horiz-adv-x="677" 
d="M665 0h-52c-8 0 -15 5 -21 14l-345 578v-580c0 -8 -4 -12 -12 -12h-41c-8 0 -12 4 -12 12v676c0 8 4 12 12 12h52c9 0 15 -4 20 -13l346 -587v588c0 8 4 12 12 12h41c8 0 12 -4 12 -12v-676c0 -8 -4 -12 -12 -12zM433 782h-39c-7 0 -9 3 -6 8l47 105c3 5 8 8 14 8h58
c7 0 9 -3 6 -9l-65 -104c-3 -5 -8 -8 -15 -8z" />
    <glyph glyph-name="ncaron" unicode="&#x147;" horiz-adv-x="677" 
d="M332 939h31c8 0 14 -4 18 -12l58 -100l59 100c4 8 10 12 18 12h31c11 0 15 -4 10 -12l-75 -139c-4 -8 -10 -12 -18 -12h-48c-7 0 -14 4 -19 12l-75 139c-5 8 -1 12 10 12zM665 0h-52c-8 0 -15 5 -21 14l-345 578v-580c0 -8 -4 -12 -12 -12h-41c-8 0 -12 4 -12 12v676
c0 8 4 12 12 12h52c9 0 15 -4 20 -13l346 -587v588c0 8 4 12 12 12h41c8 0 12 -4 12 -12v-676c0 -8 -4 -12 -12 -12z" />
    <glyph glyph-name="ncommaaccent" unicode="&#x145;" horiz-adv-x="677" 
d="M388 -53c9 9 20 14 33 14c33 0 49 -18 49 -54c0 -32 -9 -58 -27 -79c-6 -7 -13 -14 -22 -19c-3 -2 -7 -4 -10 -5s-5 -3 -8 -4c-4 -1 -7 0 -10 4l-13 21c-2 3 -2 5 -1 6l2 1l2 1c4 1 8 3 11 4c5 3 9 5 12 8c9 7 14 14 15 23c-13 0 -24 4 -33 13s-14 20 -14 33s5 24 14 33z
M665 0h-52c-8 0 -15 5 -21 14l-345 578v-580c0 -8 -4 -12 -12 -12h-41c-8 0 -12 4 -12 12v676c0 8 4 12 12 12h52c9 0 15 -4 20 -13l346 -587v588c0 8 4 12 12 12h41c8 0 12 -4 12 -12v-676c0 -8 -4 -12 -12 -12z" />
    <glyph glyph-name="Ntilde" unicode="&#xd1;" horiz-adv-x="677" 
d="M665 0h-52c-8 0 -15 5 -21 14l-345 578v-580c0 -8 -4 -12 -12 -12h-41c-8 0 -12 4 -12 12v676c0 8 4 12 12 12h52c9 0 15 -4 20 -13l346 -587v588c0 8 4 12 12 12h41c8 0 12 -4 12 -12v-676c0 -8 -4 -12 -12 -12zM343 788h-33c-6 0 -10 2 -11 7c-2 5 -4 10 -5 15
c-1 7 -2 14 -2 21c0 21 6 37 19 50s31 20 54 20c19 0 44 -6 74 -17l16 -7l17 -6c12 -3 23 -5 34 -5c17 0 25 7 25 22c0 11 -2 20 -6 28c-2 4 1 6 8 6h34c5 0 9 -2 10 -7c4 -8 6 -20 6 -35c0 -44 -23 -66 -70 -66c-24 0 -50 6 -79 18l-16 7l-15 5c-11 4 -20 6 -29 6
c-20 0 -30 -10 -30 -29c0 -5 1 -10 2 -15l2 -6l2 -5c3 -5 0 -7 -7 -7z" />
    <glyph glyph-name="Oacute" unicode="&#xd3;" 
d="M204 76c-60 62 -90 153 -90 273s30 212 90 275c52 55 120 82 203 82s151 -27 204 -82c59 -63 89 -155 89 -275s-30 -211 -89 -273c-52 -55 -120 -82 -204 -82c-83 0 -151 27 -203 82zM564 118c47 52 70 129 70 231c0 103 -23 181 -70 233c-40 45 -92 67 -157 67
s-117 -22 -156 -67c-47 -52 -70 -130 -70 -233c0 -102 23 -179 70 -231c40 -45 92 -67 156 -67c65 0 117 22 157 67zM411 782h-39c-7 0 -9 3 -6 8l47 105c3 5 8 8 14 8h58c7 0 9 -3 6 -9l-65 -104c-3 -5 -8 -8 -15 -8z" />
    <glyph glyph-name="obreve" unicode="&#x14e;" 
d="M204 76c-60 62 -90 153 -90 273s30 212 90 275c52 55 120 82 203 82s151 -27 204 -82c59 -63 89 -155 89 -275s-30 -211 -89 -273c-52 -55 -120 -82 -204 -82c-83 0 -151 27 -203 82zM564 118c47 52 70 129 70 231c0 103 -23 181 -70 233c-40 45 -92 67 -157 67
s-117 -22 -156 -67c-47 -52 -70 -130 -70 -233c0 -102 23 -179 70 -231c40 -45 92 -67 156 -67c65 0 117 22 157 67zM478 867h30c7 0 10 -4 10 -12c-3 -71 -39 -106 -110 -106c-33 0 -60 9 -79 28c-21 19 -31 45 -32 78c0 3 1 6 2 8c2 3 5 4 8 4h30c7 0 11 -2 11 -7
c1 -17 5 -31 12 -42c10 -14 26 -21 47 -22c39 0 59 21 61 64c0 5 3 7 10 7z" />
    <glyph glyph-name="Ocircumflex" unicode="&#xd4;" 
d="M204 76c-60 62 -90 153 -90 273s30 212 90 275c52 55 120 82 203 82s151 -27 204 -82c59 -63 89 -155 89 -275s-30 -211 -89 -273c-52 -55 -120 -82 -204 -82c-83 0 -151 27 -203 82zM564 118c47 52 70 129 70 231c0 103 -23 181 -70 233c-40 45 -92 67 -157 67
s-117 -22 -156 -67c-47 -52 -70 -130 -70 -233c0 -102 23 -179 70 -231c40 -45 92 -67 156 -67c65 0 117 22 157 67zM330 746h-31c-11 0 -14 4 -9 12l75 86c3 8 9 12 18 12h49c9 0 15 -4 18 -12l75 -86c5 -8 1 -12 -10 -12h-31c-8 0 -14 4 -18 11l-59 49l-59 -49
c-4 -7 -10 -11 -18 -11z" />
    <glyph glyph-name="Odieresis" unicode="&#xd6;" 
d="M294 823c-8 8 -12 18 -12 30c0 11 4 21 12 30c9 9 19 13 30 13s21 -4 30 -13c8 -9 12 -19 12 -30c0 -12 -4 -22 -12 -30c-9 -9 -19 -13 -30 -13s-21 4 -30 13zM464 823c-9 8 -13 18 -13 30c0 11 4 21 13 30c8 9 18 13 29 13c12 0 22 -4 31 -13c8 -9 12 -19 12 -30
c0 -12 -4 -22 -12 -30c-9 -9 -19 -13 -31 -13c-11 0 -21 4 -29 13zM204 76c-60 62 -90 153 -90 273s30 212 90 275c52 55 120 82 203 82s151 -27 204 -82c59 -63 89 -155 89 -275s-30 -211 -89 -273c-52 -55 -120 -82 -204 -82c-83 0 -151 27 -203 82zM564 118
c47 52 70 129 70 231c0 103 -23 181 -70 233c-40 45 -92 67 -157 67s-117 -22 -156 -67c-47 -52 -70 -130 -70 -233c0 -102 23 -179 70 -231c40 -45 92 -67 156 -67c65 0 117 22 157 67z" />
    <glyph glyph-name="Ograve" unicode="&#xd2;" 
d="M204 76c-60 62 -90 153 -90 273s30 212 90 275c52 55 120 82 203 82s151 -27 204 -82c59 -63 89 -155 89 -275s-30 -211 -89 -273c-52 -55 -120 -82 -204 -82c-83 0 -151 27 -203 82zM564 118c47 52 70 129 70 231c0 103 -23 181 -70 233c-40 45 -92 67 -157 67
s-117 -22 -156 -67c-47 -52 -70 -130 -70 -233c0 -102 23 -179 70 -231c40 -45 92 -67 156 -67c65 0 117 22 157 67zM445 782h-39c-7 0 -12 3 -16 9l-71 106c-3 6 -1 9 6 9h58c6 0 11 -3 14 -8l54 -108c3 -5 1 -8 -6 -8z" />
    <glyph glyph-name="ohungarumlaut" unicode="&#x150;" 
d="M204 76c-60 62 -90 153 -90 273s30 212 90 275c52 55 120 82 203 82s151 -27 204 -82c59 -63 89 -155 89 -275s-30 -211 -89 -273c-52 -55 -120 -82 -204 -82c-83 0 -151 27 -203 82zM564 118c47 52 70 129 70 231c0 103 -23 181 -70 233c-40 45 -92 67 -157 67
s-117 -22 -156 -67c-47 -52 -70 -130 -70 -233c0 -102 23 -179 70 -231c40 -45 92 -67 156 -67c65 0 117 22 157 67zM451 782h-39c-7 0 -9 3 -6 8l76 146c3 5 8 8 14 8h58c3 0 5 -1 6 -3c1 -1 1 -3 -1 -6l-93 -145c-3 -5 -8 -8 -15 -8zM299 782h-39c-7 0 -9 3 -6 8l76 146
c2 5 7 8 14 8h58c3 0 5 -1 6 -3c1 -1 0 -3 -1 -6l-93 -145c-3 -5 -8 -8 -15 -8z" />
    <glyph glyph-name="omacron" unicode="&#x14c;" 
d="M294 867h236c8 0 12 -4 12 -12v-24c0 -8 -4 -12 -13 -12h-236c-8 0 -12 4 -12 12v24c0 8 4 12 13 12zM204 76c-60 62 -90 153 -90 273s30 212 90 275c52 55 120 82 203 82s151 -27 204 -82c59 -63 89 -155 89 -275s-30 -211 -89 -273c-52 -55 -120 -82 -204 -82
c-83 0 -151 27 -203 82zM564 118c47 52 70 129 70 231c0 103 -23 181 -70 233c-40 45 -92 67 -157 67s-117 -22 -156 -67c-47 -52 -70 -130 -70 -233c0 -102 23 -179 70 -231c40 -45 92 -67 156 -67c65 0 117 22 157 67z" />
    <glyph glyph-name="Oslash" unicode="&#xd8;" 
d="M235 46l-35 -52c-5 -7 -10 -10 -16 -10h-45c-3 0 -5 1 -6 4s-1 5 1 8l59 89c-54 63 -81 151 -81 264c0 120 30 212 90 275c52 55 120 82 203 82c65 0 122 -18 170 -53l35 53c4 7 9 10 15 10h44c9 0 11 -4 6 -11l-59 -90c55 -62 82 -151 82 -266c0 -120 -30 -211 -89 -273
c-52 -55 -120 -82 -204 -82c-66 0 -123 17 -170 52zM562 118c47 52 70 129 70 231c0 88 -18 158 -53 211l-310 -462c37 -31 83 -47 136 -47c65 0 117 22 157 67zM231 140l309 463c-37 31 -82 46 -135 46c-65 0 -117 -22 -156 -67c-47 -52 -70 -130 -70 -233
c0 -89 17 -158 52 -209z" />
    <glyph glyph-name="oslashacute" unicode="&#x1fe;" 
d="M235 46l-35 -52c-5 -7 -10 -10 -16 -10h-45c-3 0 -5 1 -6 4s-1 5 1 8l59 89c-54 63 -81 151 -81 264c0 120 30 212 90 275c52 55 120 82 203 82c65 0 122 -18 170 -53l35 53c4 7 9 10 15 10h44c9 0 11 -4 6 -11l-59 -90c55 -62 82 -151 82 -266c0 -120 -30 -211 -89 -273
c-52 -55 -120 -82 -204 -82c-66 0 -123 17 -170 52zM562 118c47 52 70 129 70 231c0 88 -18 158 -53 211l-310 -462c37 -31 83 -47 136 -47c65 0 117 22 157 67zM231 140l309 463c-37 31 -82 46 -135 46c-65 0 -117 -22 -156 -67c-47 -52 -70 -130 -70 -233
c0 -89 17 -158 52 -209zM409 782h-39c-7 0 -9 3 -6 8l47 105c3 5 8 8 14 8h58c7 0 9 -3 6 -9l-65 -104c-3 -5 -8 -8 -15 -8z" />
    <glyph glyph-name="Otilde" unicode="&#xd5;" 
d="M204 76c-60 62 -90 153 -90 273s30 212 90 275c52 55 120 82 203 82s151 -27 204 -82c59 -63 89 -155 89 -275s-30 -211 -89 -273c-52 -55 -120 -82 -204 -82c-83 0 -151 27 -203 82zM564 118c47 52 70 129 70 231c0 103 -23 181 -70 233c-40 45 -92 67 -157 67
s-117 -22 -156 -67c-47 -52 -70 -130 -70 -233c0 -102 23 -179 70 -231c40 -45 92 -67 156 -67c65 0 117 22 157 67zM318 788h-33c-6 0 -10 2 -11 7c-2 5 -4 10 -5 15c-1 7 -2 14 -2 21c0 21 6 37 19 50s31 20 54 20c13 0 26 -2 39 -5c9 -3 20 -7 35 -12
c30 -12 52 -18 67 -18c17 0 25 7 25 22c0 11 -2 20 -6 28c-2 4 1 6 8 6h34c5 0 9 -2 10 -7c4 -8 6 -20 6 -35c0 -44 -23 -66 -70 -66c-15 0 -29 2 -44 6c-10 3 -22 7 -35 12c-29 12 -49 18 -60 18c-20 0 -30 -10 -30 -29c0 -5 1 -10 2 -15l2 -6l2 -5c3 -5 0 -7 -7 -7z" />
    <glyph glyph-name="racute" unicode="&#x154;" horiz-adv-x="665" 
d="M746 37v-23c0 -5 -5 -10 -14 -13c-3 -1 -7 -1 -13 -2c-5 -1 -11 -1 -17 -1c-39 0 -72 16 -99 47c-17 19 -38 53 -62 102l-14 28l-14 27c-11 19 -21 35 -31 47c-25 31 -56 47 -91 47h-144v-284c0 -8 -4 -12 -12 -12h-41c-8 0 -12 4 -12 12v675c0 9 4 13 12 13h210
c155 0 232 -68 232 -204c0 -49 -14 -89 -42 -122c-25 -29 -58 -49 -100 -59c21 -9 42 -29 62 -59c7 -11 15 -26 24 -43l12 -23l11 -23c19 -38 36 -65 49 -81c21 -24 43 -36 66 -37h15c9 0 13 -4 13 -12zM247 348h149c51 0 92 12 123 37c33 27 50 63 50 109s-14 82 -43 109
c-30 27 -72 41 -125 41h-154v-296zM468 782h-39c-7 0 -9 3 -6 8l47 105c3 5 8 8 14 8h58c7 0 9 -3 6 -9l-65 -104c-3 -5 -8 -8 -15 -8z" />
    <glyph glyph-name="rcaron" unicode="&#x158;" horiz-adv-x="665" 
d="M276 939h31c8 0 14 -4 18 -12l58 -100l59 100c4 8 10 12 18 12h31c11 0 15 -4 10 -12l-75 -139c-4 -8 -10 -12 -18 -12h-48c-7 0 -14 4 -19 12l-75 139c-5 8 -1 12 10 12zM746 37v-23c0 -5 -5 -10 -14 -13c-3 -1 -7 -1 -13 -2c-5 -1 -11 -1 -17 -1c-39 0 -72 16 -99 47
c-17 19 -38 53 -62 102l-14 28l-14 27c-11 19 -21 35 -31 47c-25 31 -56 47 -91 47h-144v-284c0 -8 -4 -12 -12 -12h-41c-8 0 -12 4 -12 12v675c0 9 4 13 12 13h210c155 0 232 -68 232 -204c0 -49 -14 -89 -42 -122c-25 -29 -58 -49 -100 -59c21 -9 42 -29 62 -59
c7 -11 15 -26 24 -43l12 -23l11 -23c19 -38 36 -65 49 -81c21 -24 43 -36 66 -37h15c9 0 13 -4 13 -12zM247 348h149c51 0 92 12 123 37c33 27 50 63 50 109s-14 82 -43 109c-30 27 -72 41 -125 41h-154v-296z" />
    <glyph glyph-name="rcommaaccent" unicode="&#x156;" horiz-adv-x="665" 
d="M383 -53c9 9 20 14 33 14c33 0 49 -18 49 -54c0 -32 -9 -58 -27 -79c-6 -7 -13 -14 -22 -19c-3 -2 -7 -4 -10 -5s-5 -3 -8 -4c-4 -1 -7 0 -10 4l-13 21c-2 3 -2 5 -1 6l2 1l2 1c4 1 8 3 11 4c5 3 9 5 12 8c9 7 14 14 15 23c-13 0 -24 4 -33 13s-14 20 -14 33s5 24 14 33z
M746 37v-23c0 -5 -5 -10 -14 -13c-3 -1 -7 -1 -13 -2c-5 -1 -11 -1 -17 -1c-39 0 -72 16 -99 47c-17 19 -38 53 -62 102l-14 28l-14 27c-11 19 -21 35 -31 47c-25 31 -56 47 -91 47h-144v-284c0 -8 -4 -12 -12 -12h-41c-8 0 -12 4 -12 12v675c0 9 4 13 12 13h210
c155 0 232 -68 232 -204c0 -49 -14 -89 -42 -122c-25 -29 -58 -49 -100 -59c21 -9 42 -29 62 -59c7 -11 15 -26 24 -43l12 -23l11 -23c19 -38 36 -65 49 -81c21 -24 43 -36 66 -37h15c9 0 13 -4 13 -12zM247 348h149c51 0 92 12 123 37c33 27 50 63 50 109s-14 82 -43 109
c-30 27 -72 41 -125 41h-154v-296z" />
    <glyph glyph-name="sacute" unicode="&#x15a;" horiz-adv-x="604" 
d="M576 572l-30 -20c-6 -4 -11 -3 -14 2c-2 3 -4 7 -6 10c-3 5 -7 9 -10 13c-10 12 -21 23 -34 32c-37 27 -83 40 -138 40c-56 0 -100 -13 -132 -40c-29 -24 -44 -54 -44 -91c0 -47 22 -81 67 -103c17 -9 40 -16 69 -23l39 -8l40 -8c69 -15 118 -32 148 -52
c45 -31 67 -77 67 -139c0 -55 -21 -99 -62 -134c-45 -38 -106 -57 -185 -57c-76 0 -140 18 -192 54c-18 13 -34 27 -48 42c-5 6 -10 12 -14 17l-5 7c-1 1 -2 3 -3 5c-3 5 -2 10 3 15l25 24c6 5 11 5 15 -1l3 -5l5 -6c4 -5 8 -9 13 -14c13 -13 27 -25 42 -36
c45 -30 97 -45 156 -45c56 0 100 12 133 36c32 23 48 55 48 96c0 49 -22 84 -67 107c-18 9 -41 16 -69 23c-11 3 -24 5 -39 8l-40 8c-69 14 -119 31 -148 50c-45 30 -67 76 -67 138c0 54 20 98 61 133c43 37 102 56 177 56c71 0 130 -16 177 -49c17 -11 31 -24 43 -38
c5 -5 9 -11 13 -17c3 -4 5 -8 7 -12c4 -7 3 -13 -4 -18zM346 782h-39c-7 0 -9 3 -6 8l47 105c3 5 8 8 14 8h58c7 0 9 -3 6 -9l-65 -104c-3 -5 -8 -8 -15 -8z" />
    <glyph glyph-name="Scaron" unicode="&#x160;" horiz-adv-x="604" 
d="M242 939h31c8 0 14 -4 18 -12l58 -100l59 100c4 8 10 12 18 12h31c11 0 15 -4 10 -12l-75 -139c-4 -8 -10 -12 -18 -12h-48c-7 0 -14 4 -19 12l-75 139c-5 8 -1 12 10 12zM576 572l-30 -20c-6 -4 -11 -3 -14 2c-2 3 -4 7 -6 10c-3 5 -7 9 -10 13c-10 12 -21 23 -34 32
c-37 27 -83 40 -138 40c-56 0 -100 -13 -132 -40c-29 -24 -44 -54 -44 -91c0 -47 22 -81 67 -103c17 -9 40 -16 69 -23l39 -8l40 -8c69 -15 118 -32 148 -52c45 -31 67 -77 67 -139c0 -55 -21 -99 -62 -134c-45 -38 -106 -57 -185 -57c-76 0 -140 18 -192 54
c-18 13 -34 27 -48 42c-5 6 -10 12 -14 17l-5 7c-1 1 -2 3 -3 5c-3 5 -2 10 3 15l25 24c6 5 11 5 15 -1l3 -5l5 -6c4 -5 8 -9 13 -14c13 -13 27 -25 42 -36c45 -30 97 -45 156 -45c56 0 100 12 133 36c32 23 48 55 48 96c0 49 -22 84 -67 107c-18 9 -41 16 -69 23
c-11 3 -24 5 -39 8l-40 8c-69 14 -119 31 -148 50c-45 30 -67 76 -67 138c0 54 20 98 61 133c43 37 102 56 177 56c71 0 130 -16 177 -49c17 -11 31 -24 43 -38c5 -5 9 -11 13 -17c3 -4 5 -8 7 -12c4 -7 3 -13 -4 -18z" />
    <glyph glyph-name="scedilla" unicode="&#x15e;" horiz-adv-x="604" 
d="M576 572l-30 -20c-6 -4 -11 -3 -14 2c-2 3 -4 7 -6 10c-3 5 -7 9 -10 13c-10 12 -21 23 -34 32c-37 27 -83 40 -138 40c-56 0 -100 -13 -132 -40c-29 -24 -44 -54 -44 -91c0 -47 22 -81 67 -103c17 -9 40 -16 69 -23l39 -8l40 -8c69 -15 118 -32 148 -52
c45 -31 67 -77 67 -139c0 -53 -19 -96 -58 -131c-41 -37 -99 -56 -173 -59l-13 -32c17 -1 33 -7 46 -18c15 -13 23 -29 23 -50c0 -22 -8 -39 -24 -52c-15 -12 -36 -18 -61 -18c-16 0 -31 3 -44 9c-5 2 -10 5 -15 8c-3 2 -6 4 -9 7s-4 7 -2 11l9 18c1 3 3 4 5 5
c1 0 3 -1 5 -2l3 -3l5 -2c3 -3 7 -5 11 -7c11 -5 21 -7 32 -7c29 0 44 11 44 34c0 11 -5 20 -16 27c-13 9 -32 13 -57 13c-2 0 -3 1 -4 2s-1 3 0 5l22 52c-69 3 -127 22 -174 57c-17 12 -31 25 -44 40c-5 5 -9 11 -13 16l-4 6l-3 5c-3 5 -2 10 3 15l25 24c6 5 11 5 15 -1
l3 -5l5 -6c4 -5 8 -9 13 -14c13 -13 27 -25 42 -36c45 -30 97 -45 156 -45c56 0 100 12 133 36c32 23 48 55 48 96c0 49 -22 84 -67 107c-18 9 -41 16 -69 23c-11 3 -24 5 -39 8l-40 8c-69 14 -119 31 -148 50c-45 30 -67 76 -67 138c0 54 20 98 61 133c43 37 102 56 177 56
c71 0 130 -16 177 -49c17 -11 31 -24 43 -38c5 -5 9 -11 13 -17c3 -4 5 -8 7 -12c4 -7 3 -13 -4 -18z" />
    <glyph glyph-name="scircumflex" unicode="&#x15c;" horiz-adv-x="604" 
d="M576 572l-30 -20c-6 -4 -11 -3 -14 2c-2 3 -4 7 -6 10c-3 5 -7 9 -10 13c-10 12 -21 23 -34 32c-37 27 -83 40 -138 40c-56 0 -100 -13 -132 -40c-29 -24 -44 -54 -44 -91c0 -47 22 -81 67 -103c17 -9 40 -16 69 -23l39 -8l40 -8c69 -15 118 -32 148 -52
c45 -31 67 -77 67 -139c0 -55 -21 -99 -62 -134c-45 -38 -106 -57 -185 -57c-76 0 -140 18 -192 54c-18 13 -34 27 -48 42c-5 6 -10 12 -14 17l-5 7c-1 1 -2 3 -3 5c-3 5 -2 10 3 15l25 24c6 5 11 5 15 -1l3 -5l5 -6c4 -5 8 -9 13 -14c13 -13 27 -25 42 -36
c45 -30 97 -45 156 -45c56 0 100 12 133 36c32 23 48 55 48 96c0 49 -22 84 -67 107c-18 9 -41 16 -69 23c-11 3 -24 5 -39 8l-40 8c-69 14 -119 31 -148 50c-45 30 -67 76 -67 138c0 54 20 98 61 133c43 37 102 56 177 56c71 0 130 -16 177 -49c17 -11 31 -24 43 -38
c5 -5 9 -11 13 -17c3 -4 5 -8 7 -12c4 -7 3 -13 -4 -18zM265 746h-31c-11 0 -14 4 -9 12l75 86c3 8 9 12 18 12h49c9 0 15 -4 18 -12l75 -86c5 -8 1 -12 -10 -12h-31c-8 0 -14 4 -18 11l-59 49l-59 -49c-4 -7 -10 -11 -18 -11z" />
    <glyph glyph-name="scommaaccent" unicode="&#x218;" horiz-adv-x="604" 
d="M314 -53c9 9 20 14 33 14c33 0 49 -18 49 -54c0 -32 -9 -58 -27 -79c-6 -7 -13 -14 -22 -19c-3 -2 -7 -4 -10 -5s-5 -3 -8 -4c-4 -1 -7 0 -10 4l-13 21c-2 3 -2 5 -1 6l2 1l2 1c4 1 8 3 11 4c5 3 9 5 12 8c9 7 14 14 15 23c-13 0 -24 4 -33 13s-14 20 -14 33s5 24 14 33z
M576 572l-30 -20c-6 -4 -11 -3 -14 2c-2 3 -4 7 -6 10c-3 5 -7 9 -10 13c-10 12 -21 23 -34 32c-37 27 -83 40 -138 40c-56 0 -100 -13 -132 -40c-29 -24 -44 -54 -44 -91c0 -47 22 -81 67 -103c17 -9 40 -16 69 -23l39 -8l40 -8c69 -15 118 -32 148 -52
c45 -31 67 -77 67 -139c0 -55 -21 -99 -62 -134c-45 -38 -106 -57 -185 -57c-76 0 -140 18 -192 54c-18 13 -34 27 -48 42c-5 6 -10 12 -14 17l-5 7c-1 1 -2 3 -3 5c-3 5 -2 10 3 15l25 24c6 5 11 5 15 -1l3 -5l5 -6c4 -5 8 -9 13 -14c13 -13 27 -25 42 -36
c45 -30 97 -45 156 -45c56 0 100 12 133 36c32 23 48 55 48 96c0 49 -22 84 -67 107c-18 9 -41 16 -69 23c-11 3 -24 5 -39 8l-40 8c-69 14 -119 31 -148 50c-45 30 -67 76 -67 138c0 54 20 98 61 133c43 37 102 56 177 56c71 0 130 -16 177 -49c17 -11 31 -24 43 -38
c5 -5 9 -11 13 -17c3 -4 5 -8 7 -12c4 -7 3 -13 -4 -18z" />
    <glyph glyph-name="tbar" unicode="&#x166;" horiz-adv-x="607" 
d="M52 700h540c9 0 13 -4 13 -12v-32c0 -8 -4 -12 -13 -12h-236v-195h132c8 0 12 -4 12 -12v-32c0 -7 -4 -11 -13 -11h-131v-382c0 -8 -4 -12 -12 -12h-41c-8 0 -12 4 -12 12v382h-133c-8 0 -12 4 -12 11v32c0 8 4 12 12 12h133v195h-239c-8 0 -12 4 -12 12v32
c0 8 4 12 12 12z" />
    <glyph glyph-name="tcaron" unicode="&#x164;" horiz-adv-x="594" 
d="M198 939h31c8 0 14 -4 18 -12l58 -100l59 100c4 8 10 12 18 12h31c11 0 15 -4 10 -12l-75 -139c-4 -8 -10 -12 -18 -12h-48c-7 0 -14 4 -19 12l-75 139c-5 8 -1 12 10 12zM42 700h540c9 0 13 -4 13 -12v-32c0 -8 -4 -12 -13 -12h-236v-632c0 -8 -4 -12 -12 -12h-41
c-8 0 -12 4 -12 12v632h-239c-8 0 -12 4 -12 12v32c0 8 4 12 12 12z" />
    <glyph glyph-name="tcedilla" unicode="&#x162;" horiz-adv-x="594" 
d="M272 -53c9 9 20 14 33 14c33 0 49 -18 49 -54c0 -32 -9 -58 -27 -79c-6 -7 -13 -14 -22 -19c-3 -2 -7 -4 -10 -5s-5 -3 -8 -4c-4 -1 -7 0 -10 4l-13 21c-2 3 -2 5 -1 6l2 1l2 1c4 1 8 3 11 4c5 3 9 5 12 8c9 7 14 14 15 23c-13 0 -24 4 -33 13s-14 20 -14 33s5 24 14 33z
M42 700h540c9 0 13 -4 13 -12v-32c0 -8 -4 -12 -13 -12h-236v-632c0 -8 -4 -12 -12 -12h-41c-8 0 -12 4 -12 12v632h-239c-8 0 -12 4 -12 12v32c0 8 4 12 12 12z" />
    <glyph glyph-name="Uacute" unicode="&#xda;" horiz-adv-x="675" 
d="M609 282v406c0 8 4 12 12 12h41c8 0 12 -4 12 -12v-402c0 -195 -84 -292 -252 -292c-169 0 -254 97 -254 292v402c0 8 4 12 13 12h41c8 0 12 -4 12 -12v-406c0 -154 63 -231 188 -231s187 77 187 231zM425 782h-39c-7 0 -9 3 -6 8l47 105c3 5 8 8 14 8h58c7 0 9 -3 6 -9
l-65 -104c-3 -5 -8 -8 -15 -8z" />
    <glyph glyph-name="ubreve" unicode="&#x16c;" horiz-adv-x="675" 
d="M609 282v406c0 8 4 12 12 12h41c8 0 12 -4 12 -12v-402c0 -195 -84 -292 -252 -292c-169 0 -254 97 -254 292v402c0 8 4 12 13 12h41c8 0 12 -4 12 -12v-406c0 -154 63 -231 188 -231s187 77 187 231zM492 867h30c7 0 10 -4 10 -12c-3 -71 -39 -106 -110 -106
c-33 0 -60 9 -79 28c-21 19 -31 45 -32 78c0 3 1 6 2 8c2 3 5 4 8 4h30c7 0 11 -2 11 -7c1 -17 5 -31 12 -42c10 -14 26 -21 47 -22c39 0 59 21 61 64c0 5 3 7 10 7z" />
    <glyph glyph-name="Ucircumflex" unicode="&#xdb;" horiz-adv-x="675" 
d="M609 282v406c0 8 4 12 12 12h41c8 0 12 -4 12 -12v-402c0 -195 -84 -292 -252 -292c-169 0 -254 97 -254 292v402c0 8 4 12 13 12h41c8 0 12 -4 12 -12v-406c0 -154 63 -231 188 -231s187 77 187 231zM344 746h-31c-11 0 -14 4 -9 12l75 86c3 8 9 12 18 12h49
c9 0 15 -4 18 -12l75 -86c5 -8 1 -12 -10 -12h-31c-8 0 -14 4 -18 11l-59 49l-59 -49c-4 -7 -10 -11 -18 -11z" />
    <glyph glyph-name="Udieresis" unicode="&#xdc;" horiz-adv-x="675" 
d="M306 823c-8 8 -12 18 -12 30c0 11 4 21 12 30c9 9 19 13 30 13s21 -4 30 -13c8 -9 12 -19 12 -30c0 -12 -4 -22 -12 -30c-9 -9 -19 -13 -30 -13s-21 4 -30 13zM476 823c-9 8 -13 18 -13 30c0 11 4 21 13 30c8 9 18 13 29 13c12 0 22 -4 31 -13c8 -9 12 -19 12 -30
c0 -12 -4 -22 -12 -30c-9 -9 -19 -13 -31 -13c-11 0 -21 4 -29 13zM609 282v406c0 8 4 12 12 12h41c8 0 12 -4 12 -12v-402c0 -195 -84 -292 -252 -292c-169 0 -254 97 -254 292v402c0 8 4 12 13 12h41c8 0 12 -4 12 -12v-406c0 -154 63 -231 188 -231s187 77 187 231z" />
    <glyph glyph-name="Ugrave" unicode="&#xd9;" horiz-adv-x="675" 
d="M609 282v406c0 8 4 12 12 12h41c8 0 12 -4 12 -12v-402c0 -195 -84 -292 -252 -292c-169 0 -254 97 -254 292v402c0 8 4 12 13 12h41c8 0 12 -4 12 -12v-406c0 -154 63 -231 188 -231s187 77 187 231zM459 782h-39c-7 0 -12 3 -16 9l-71 106c-3 6 -1 9 6 9h58
c6 0 11 -3 14 -8l54 -108c3 -5 1 -8 -6 -8z" />
    <glyph glyph-name="uhungarumlaut" unicode="&#x170;" horiz-adv-x="675" 
d="M609 282v406c0 8 4 12 12 12h41c8 0 12 -4 12 -12v-402c0 -195 -84 -292 -252 -292c-169 0 -254 97 -254 292v402c0 8 4 12 13 12h41c8 0 12 -4 12 -12v-406c0 -154 63 -231 188 -231s187 77 187 231zM465 782h-39c-7 0 -9 3 -6 8l76 146c3 5 8 8 14 8h58c3 0 5 -1 6 -3
c1 -1 1 -3 -1 -6l-93 -145c-3 -5 -8 -8 -15 -8zM313 782h-39c-7 0 -9 3 -6 8l76 146c2 5 7 8 14 8h58c3 0 5 -1 6 -3c1 -1 0 -3 -1 -6l-93 -145c-3 -5 -8 -8 -15 -8z" />
    <glyph glyph-name="umacron" unicode="&#x16a;" horiz-adv-x="675" 
d="M609 282v406c0 8 4 12 12 12h41c8 0 12 -4 12 -12v-402c0 -195 -84 -292 -252 -292c-169 0 -254 97 -254 292v402c0 8 4 12 13 12h41c8 0 12 -4 12 -12v-406c0 -154 63 -231 188 -231s187 77 187 231zM303 867h236c8 0 12 -4 12 -12v-24c0 -8 -4 -12 -13 -12h-236
c-8 0 -12 4 -12 12v24c0 8 4 12 13 12z" />
    <glyph glyph-name="uogonek" unicode="&#x172;" horiz-adv-x="675" 
d="M674 688v-402c0 -183 -73 -280 -219 -290c-7 -3 -13 -7 -18 -10c-8 -5 -15 -10 -20 -16c-14 -15 -21 -32 -21 -51c0 -29 14 -43 42 -43c8 0 16 2 23 5c5 2 10 5 15 9s8 4 10 -1l9 -20c2 -5 2 -9 -1 -12c-2 -2 -5 -4 -8 -7c-4 -3 -8 -5 -13 -7c-13 -5 -26 -8 -40 -8
c-53 0 -80 24 -80 73c0 33 14 62 43 87c-152 8 -228 105 -228 291v402c0 8 4 12 13 12h41c8 0 12 -4 12 -12v-406c0 -154 63 -231 188 -231s187 77 187 231v406c0 8 4 12 12 12h41c8 0 12 -4 12 -12z" />
    <glyph glyph-name="uring" unicode="&#x16e;" horiz-adv-x="675" 
d="M366 800c-14 14 -21 32 -21 53s7 39 21 53c15 14 33 21 54 21s38 -7 52 -21s21 -32 21 -53s-7 -39 -21 -53s-31 -21 -52 -21s-39 7 -54 21zM420 892c-27 0 -40 -13 -40 -39c0 -27 13 -40 40 -40c26 0 39 13 39 40c0 26 -13 39 -39 39zM609 282v406c0 8 4 12 12 12h41
c8 0 12 -4 12 -12v-402c0 -195 -84 -292 -252 -292c-169 0 -254 97 -254 292v402c0 8 4 12 13 12h41c8 0 12 -4 12 -12v-406c0 -154 63 -231 188 -231s187 77 187 231z" />
    <glyph glyph-name="utilde" unicode="&#x168;" horiz-adv-x="675" 
d="M609 282v406c0 8 4 12 12 12h41c8 0 12 -4 12 -12v-402c0 -195 -84 -292 -252 -292c-169 0 -254 97 -254 292v402c0 8 4 12 13 12h41c8 0 12 -4 12 -12v-406c0 -154 63 -231 188 -231s187 77 187 231zM325 779h-33c-6 0 -10 2 -11 7c-2 5 -4 10 -5 15c-1 7 -2 14 -2 21
c0 21 6 37 19 50s31 20 54 20c19 0 44 -6 74 -17l16 -7l17 -6c12 -3 23 -5 34 -5c17 0 25 7 25 22c0 11 -2 20 -6 28c-2 4 1 6 8 6h34c5 0 9 -2 10 -7c4 -8 6 -20 6 -35c0 -44 -23 -66 -70 -66c-24 0 -50 6 -79 18l-16 7l-15 5c-11 4 -20 6 -29 6c-20 0 -30 -10 -30 -29
c0 -5 1 -10 2 -15l2 -6l2 -5c3 -5 0 -7 -7 -7z" />
    <glyph glyph-name="wacute" unicode="&#x1e82;" horiz-adv-x="973" 
d="M556 687l176 -610l160 613c2 7 7 10 14 10h51c11 0 15 -4 12 -13l-197 -674c-3 -9 -8 -13 -15 -13h-49c-8 0 -14 4 -17 13l-170 584l-169 -584c-4 -9 -9 -13 -16 -13h-48c-9 0 -14 4 -17 13l-197 673c-3 9 1 14 12 14h51c7 0 12 -3 14 -10l160 -613l176 610
c2 9 8 13 17 13h37c7 0 12 -4 15 -13zM525 782h-39c-7 0 -9 3 -6 8l47 105c3 5 8 8 14 8h58c7 0 9 -3 6 -9l-65 -104c-3 -5 -8 -8 -15 -8z" />
    <glyph glyph-name="wcircumflex" unicode="&#x174;" horiz-adv-x="973" 
d="M556 687l176 -610l160 613c2 7 7 10 14 10h51c11 0 15 -4 12 -13l-197 -674c-3 -9 -8 -13 -15 -13h-49c-8 0 -14 4 -17 13l-170 584l-169 -584c-4 -9 -9 -13 -16 -13h-48c-9 0 -14 4 -17 13l-197 673c-3 9 1 14 12 14h51c7 0 12 -3 14 -10l160 -613l176 610
c2 9 8 13 17 13h37c7 0 12 -4 15 -13zM444 746h-31c-11 0 -14 4 -9 12l75 86c3 8 9 12 18 12h49c9 0 15 -4 18 -12l75 -86c5 -8 1 -12 -10 -12h-31c-8 0 -14 4 -18 11l-59 49l-59 -49c-4 -7 -10 -11 -18 -11z" />
    <glyph glyph-name="wdieresis" unicode="&#x1e84;" horiz-adv-x="973" 
d="M412 823c-8 8 -12 18 -12 30c0 11 4 21 12 30c9 9 19 13 30 13s21 -4 30 -13c8 -9 12 -19 12 -30c0 -12 -4 -22 -12 -30c-9 -9 -19 -13 -30 -13s-21 4 -30 13zM582 823c-9 8 -13 18 -13 30c0 11 4 21 13 30c8 9 18 13 29 13c12 0 22 -4 31 -13c8 -9 12 -19 12 -30
c0 -12 -4 -22 -12 -30c-9 -9 -19 -13 -31 -13c-11 0 -21 4 -29 13zM556 687l176 -610l160 613c2 7 7 10 14 10h51c11 0 15 -4 12 -13l-197 -674c-3 -9 -8 -13 -15 -13h-49c-8 0 -14 4 -17 13l-170 584l-169 -584c-4 -9 -9 -13 -16 -13h-48c-9 0 -14 4 -17 13l-197 673
c-3 9 1 14 12 14h51c7 0 12 -3 14 -10l160 -613l176 610c2 9 8 13 17 13h37c7 0 12 -4 15 -13z" />
    <glyph glyph-name="wgrave" unicode="&#x1e80;" horiz-adv-x="973" 
d="M556 687l176 -610l160 613c2 7 7 10 14 10h51c11 0 15 -4 12 -13l-197 -674c-3 -9 -8 -13 -15 -13h-49c-8 0 -14 4 -17 13l-170 584l-169 -584c-4 -9 -9 -13 -16 -13h-48c-9 0 -14 4 -17 13l-197 673c-3 9 1 14 12 14h51c7 0 12 -3 14 -10l160 -613l176 610
c2 9 8 13 17 13h37c7 0 12 -4 15 -13zM559 782h-39c-7 0 -12 3 -16 9l-71 106c-3 6 -1 9 6 9h58c6 0 11 -3 14 -8l54 -108c3 -5 1 -8 -6 -8z" />
    <glyph glyph-name="Yacute" unicode="&#xdd;" horiz-adv-x="621" 
d="M361 0h-41c-8 0 -12 4 -12 12v295l-244 381c-3 3 -3 6 0 9c3 2 6 3 10 3h51c6 0 11 -3 15 -10l201 -325l199 325c5 7 10 10 16 10h50c12 0 16 -4 11 -12l-244 -381v-295c0 -8 -4 -12 -12 -12zM344 782h-39c-7 0 -9 3 -6 8l47 105c3 5 8 8 14 8h58c7 0 9 -3 6 -9l-65 -104
c-3 -5 -8 -8 -15 -8z" />
    <glyph glyph-name="ycircumflex" unicode="&#x176;" horiz-adv-x="621" 
d="M361 0h-41c-8 0 -12 4 -12 12v295l-244 381c-3 3 -3 6 0 9c3 2 6 3 10 3h51c6 0 11 -3 15 -10l201 -325l199 325c5 7 10 10 16 10h50c12 0 16 -4 11 -12l-244 -381v-295c0 -8 -4 -12 -12 -12zM263 746h-31c-11 0 -14 4 -9 12l75 86c3 8 9 12 18 12h49c9 0 15 -4 18 -12
l75 -86c5 -8 1 -12 -10 -12h-31c-8 0 -14 4 -18 11l-59 49l-59 -49c-4 -7 -10 -11 -18 -11z" />
    <glyph glyph-name="Ydieresis" unicode="&#x178;" horiz-adv-x="621" 
d="M361 0h-41c-8 0 -12 4 -12 12v295l-244 381c-3 3 -3 6 0 9c3 2 6 3 10 3h51c6 0 11 -3 15 -10l201 -325l199 325c5 7 10 10 16 10h50c12 0 16 -4 11 -12l-244 -381v-295c0 -8 -4 -12 -12 -12zM226 823c-8 8 -12 18 -12 30c0 11 4 21 12 30c9 9 19 13 30 13s21 -4 30 -13
c8 -9 12 -19 12 -30c0 -12 -4 -22 -12 -30c-9 -9 -19 -13 -30 -13s-21 4 -30 13zM396 823c-9 8 -13 18 -13 30c0 11 4 21 13 30c8 9 18 13 29 13c12 0 22 -4 31 -13c8 -9 12 -19 12 -30c0 -12 -4 -22 -12 -30c-9 -9 -19 -13 -31 -13c-11 0 -21 4 -29 13z" />
    <glyph glyph-name="ygrave" unicode="&#x1ef2;" horiz-adv-x="621" 
d="M361 0h-41c-8 0 -12 4 -12 12v295l-244 381c-3 3 -3 6 0 9c3 2 6 3 10 3h51c6 0 11 -3 15 -10l201 -325l199 325c5 7 10 10 16 10h50c12 0 16 -4 11 -12l-244 -381v-295c0 -8 -4 -12 -12 -12zM378 782h-39c-7 0 -12 3 -16 9l-71 106c-3 6 -1 9 6 9h58c6 0 11 -3 14 -8
l54 -108c3 -5 1 -8 -6 -8z" />
    <glyph glyph-name="zacute" unicode="&#x179;" horiz-adv-x="589" 
d="M577 0h-479c-8 0 -12 4 -12 12v33c0 3 1 6 2 9c1 4 3 8 5 11l417 579h-412c-8 0 -12 4 -12 12v32c0 8 4 12 13 12h479c8 0 12 -4 12 -12v-33c0 -8 -2 -15 -7 -20l-415 -579h410c8 0 12 -4 12 -12v-32c0 -8 -4 -12 -13 -12zM342 782h-39c-7 0 -9 3 -6 8l47 105
c3 5 8 8 14 8h58c7 0 9 -3 6 -9l-65 -104c-3 -5 -8 -8 -15 -8z" />
    <glyph glyph-name="Zcaron" unicode="&#x17d;" horiz-adv-x="589" 
d="M243 939h31c8 0 14 -4 18 -12l58 -100l59 100c4 8 10 12 18 12h31c11 0 15 -4 10 -12l-75 -139c-4 -8 -10 -12 -18 -12h-48c-7 0 -14 4 -19 12l-75 139c-5 8 -1 12 10 12zM577 0h-479c-8 0 -12 4 -12 12v33c0 3 1 6 2 9c1 4 3 8 5 11l417 579h-412c-8 0 -12 4 -12 12v32
c0 8 4 12 13 12h479c8 0 12 -4 12 -12v-33c0 -8 -2 -15 -7 -20l-415 -579h410c8 0 12 -4 12 -12v-32c0 -8 -4 -12 -13 -12z" />
    <glyph glyph-name="zdotaccent" unicode="&#x17b;" horiz-adv-x="589" 
d="M577 0h-479c-8 0 -12 4 -12 12v33c0 3 1 6 2 9c1 4 3 8 5 11l417 579h-412c-8 0 -12 4 -12 12v32c0 8 4 12 13 12h479c8 0 12 -4 12 -12v-33c0 -8 -2 -15 -7 -20l-415 -579h410c8 0 12 -4 12 -12v-32c0 -8 -4 -12 -13 -12zM322 829c-9 8 -13 18 -13 30c0 11 4 21 13 30
c9 8 19 12 30 12s21 -4 30 -12c8 -9 12 -19 12 -30c0 -12 -4 -22 -12 -30c-9 -9 -19 -13 -30 -13s-21 4 -30 13z" />
    <glyph glyph-name="AE" unicode="&#xe6;" horiz-adv-x="818" 
d="M777 245h-307v-12c2 -67 21 -117 56 -149c27 -25 60 -37 99 -37c29 0 55 7 79 21c9 5 17 12 25 19l10 9c2 3 4 5 7 8c8 8 14 10 19 5l20 -20c5 -5 6 -11 2 -17c-2 -3 -4 -6 -7 -9c-3 -4 -7 -8 -11 -12c-10 -10 -21 -19 -33 -26c-34 -21 -73 -31 -118 -31
c-51 0 -95 16 -131 47c-14 11 -26 25 -37 40c-8 11 -15 23 -20 36c-6 -13 -13 -25 -22 -37c-11 -15 -24 -28 -38 -40c-37 -31 -80 -46 -129 -46s-86 11 -113 33c-27 21 -40 51 -40 90c0 85 61 127 183 127h136v78c0 75 -39 112 -117 112c-37 0 -67 -9 -88 -26
c-20 -16 -30 -38 -30 -66c0 -7 1 -13 2 -19l1 -8l2 -6c2 -7 -1 -10 -10 -10h-31c-9 0 -16 7 -19 21c-1 5 -2 10 -3 17c-1 5 -1 11 -1 16c0 39 15 71 46 96c32 26 76 39 132 39c81 0 132 -29 155 -87c7 15 20 29 38 44c35 29 79 43 130 43c119 0 178 -75 178 -226
c0 -11 -5 -17 -15 -17zM407 174v24h-136c-79 0 -118 -25 -118 -76c0 -25 9 -44 27 -57c19 -14 44 -21 75 -21c27 0 52 7 74 20c17 11 33 26 47 45c15 22 26 44 31 65zM472 290h260c0 97 -40 145 -121 145c-83 0 -130 -48 -139 -145z" />
    <glyph glyph-name="aeacute" unicode="&#x1fd;" horiz-adv-x="818" 
d="M777 245h-307v-12c2 -67 21 -117 56 -149c27 -25 60 -37 99 -37c29 0 55 7 79 21c9 5 17 12 25 19l10 9c2 3 4 5 7 8c8 8 14 10 19 5l20 -20c5 -5 6 -11 2 -17c-2 -3 -4 -6 -7 -9c-3 -4 -7 -8 -11 -12c-10 -10 -21 -19 -33 -26c-34 -21 -73 -31 -118 -31
c-51 0 -95 16 -131 47c-14 11 -26 25 -37 40c-8 11 -15 23 -20 36c-6 -13 -13 -25 -22 -37c-11 -15 -24 -28 -38 -40c-37 -31 -80 -46 -129 -46s-86 11 -113 33c-27 21 -40 51 -40 90c0 85 61 127 183 127h136v78c0 75 -39 112 -117 112c-37 0 -67 -9 -88 -26
c-20 -16 -30 -38 -30 -66c0 -7 1 -13 2 -19l1 -8l2 -6c2 -7 -1 -10 -10 -10h-31c-9 0 -16 7 -19 21c-1 5 -2 10 -3 17c-1 5 -1 11 -1 16c0 39 15 71 46 96c32 26 76 39 132 39c81 0 132 -29 155 -87c7 15 20 29 38 44c35 29 79 43 130 43c119 0 178 -75 178 -226
c0 -11 -5 -17 -15 -17zM407 174v24h-136c-79 0 -118 -25 -118 -76c0 -25 9 -44 27 -57c19 -14 44 -21 75 -21c27 0 52 7 74 20c17 11 33 26 47 45c15 22 26 44 31 65zM472 290h260c0 97 -40 145 -121 145c-83 0 -130 -48 -139 -145zM444 564h-39c-7 0 -9 3 -6 8l47 105
c3 5 8 8 14 8h58c7 0 9 -3 6 -9l-65 -104c-3 -5 -8 -8 -15 -8z" />
    <glyph glyph-name="OE" unicode="&#x153;" horiz-adv-x="844" 
d="M829 245h-307v-12c1 -67 20 -117 56 -149c27 -25 60 -37 99 -37c29 0 55 7 79 21c9 5 17 12 25 19c6 5 12 11 17 17c8 8 14 10 17 6l22 -21c5 -5 5 -10 1 -17c-2 -3 -4 -6 -7 -9c-3 -4 -7 -8 -11 -12c-10 -10 -21 -19 -33 -26c-33 -21 -72 -31 -117 -31
c-89 0 -149 39 -182 116c-33 -77 -92 -116 -177 -116c-64 0 -114 21 -151 64c-39 44 -58 105 -58 183s19 139 58 183c37 43 87 64 151 64c85 0 143 -38 176 -114c31 76 91 114 179 114c118 0 177 -75 177 -226c0 -11 -5 -17 -14 -17zM415 95c28 34 42 83 42 146
s-14 111 -42 146c-26 32 -61 48 -104 48s-78 -16 -104 -48c-29 -35 -43 -83 -43 -146s14 -112 42 -146c27 -32 62 -48 105 -48s78 16 104 48zM523 290h259c0 97 -40 145 -119 145c-84 0 -131 -48 -140 -145z" />
    <glyph glyph-name="Eth" unicode="&#xd0;" horiz-adv-x="659" 
d="M394 0h-200c-8 0 -12 4 -12 12v676c0 8 4 12 12 12h164c99 0 178 -28 237 -84c65 -62 98 -153 98 -273c0 -115 -28 -201 -83 -260c-52 -55 -124 -83 -216 -83zM247 56h147c73 0 129 23 169 70c43 50 64 122 64 217c0 101 -25 177 -76 229c-47 48 -111 72 -194 72h-110
v-270h208c8 0 12 -4 12 -11v-27c0 -8 -4 -12 -12 -12h-208v-268z" />
    <glyph glyph-name="question" unicode="?" horiz-adv-x="452" 
d="M267 66c9 -9 13 -19 13 -32c0 -12 -4 -22 -13 -31s-19 -13 -32 -13c-12 0 -22 4 -31 13s-13 19 -13 31c0 13 4 23 13 32s19 13 31 13c13 0 23 -4 32 -13zM122 541l-36 9c-5 1 -8 4 -9 7l-1 5v4c3 49 22 90 57 121s78 46 129 46c63 0 111 -18 144 -55
c29 -33 44 -74 44 -125c0 -40 -9 -75 -28 -105c-7 -12 -17 -24 -29 -37l-16 -17l-17 -16c-30 -28 -51 -52 -62 -72c-19 -31 -30 -69 -31 -112v-4l-2 -3c-2 -3 -5 -5 -10 -5h-36c-7 0 -11 4 -11 12c1 51 11 93 30 128c12 24 32 49 60 75l16 15l16 15c11 11 20 22 27 32
c18 26 27 56 27 91c0 37 -10 66 -31 89c-22 25 -53 37 -92 37c-35 0 -65 -12 -88 -35s-35 -52 -38 -87l-1 -5l-1 -4c-2 -4 -6 -5 -11 -4z" />
    <glyph glyph-name="exclamdown" unicode="&#xa1;" horiz-adv-x="222" 
d="M148 431c-9 9 -14 19 -14 32s5 23 14 32s19 13 31 13c13 0 23 -4 32 -13s13 -19 13 -32s-4 -23 -13 -32s-19 -13 -32 -13c-12 0 -22 4 -31 13zM143 -242l8 539c0 8 4 12 11 12h31c9 0 13 -4 13 -12l7 -539c0 -8 -4 -12 -11 -12h-47c-8 0 -12 4 -12 12z" />
    <glyph glyph-name="questiondown" unicode="&#xbf;" horiz-adv-x="444" 
d="M255 432c-9 9 -13 19 -13 31c0 13 4 23 13 32s19 13 32 13s23 -4 32 -13s13 -19 13 -32c0 -12 -4 -22 -13 -31s-19 -13 -32 -13s-23 4 -32 13zM400 -57l37 -9c4 -1 7 -4 8 -7l1 -5v-4c-3 -49 -22 -90 -57 -121s-78 -46 -129 -46c-63 0 -111 19 -144 56
c-29 32 -44 73 -44 124c0 40 9 75 28 105c7 12 17 24 29 37l16 17l17 16c30 28 51 52 62 72c19 31 30 69 31 112v4l2 4c2 3 5 4 10 4h36c7 0 11 -4 11 -12c-1 -51 -11 -93 -30 -128c-12 -24 -32 -49 -60 -75l-16 -15l-16 -15c-11 -11 -20 -22 -27 -32
c-18 -26 -27 -56 -27 -91c0 -37 10 -66 31 -89c22 -25 53 -37 92 -37c35 0 65 12 88 35s35 52 38 87l1 5l1 5c2 3 6 4 11 3z" />
    <glyph glyph-name="dagger" unicode="&#x2020;" horiz-adv-x="371" 
d="M232 121h-15c-7 0 -10 4 -10 12l-8 377h-110c-7 0 -11 4 -11 11v16c0 7 4 11 12 11h109v151c0 8 4 12 12 12h27c8 0 12 -4 12 -12v-151h110c7 0 11 -4 11 -11v-16c0 -7 -4 -11 -11 -11h-110l-9 -378c0 -7 -3 -11 -9 -11z" />
    <glyph glyph-name="daggerdbl" unicode="&#x2021;" horiz-adv-x="406" 
d="M131 349h105l-3 161h-110c-7 0 -11 4 -11 11v16c0 7 4 11 12 11h109v151c0 8 4 12 12 12h27c8 0 12 -4 12 -12v-151h111c7 0 11 -4 11 -11v-16c0 -7 -4 -11 -12 -11h-110l-2 -161h106c7 0 11 -4 11 -11v-17c0 -7 -4 -11 -12 -11h-107l-4 -178c0 -7 -3 -11 -10 -11h-14
c-7 0 -11 4 -11 12l-3 177h-108c-7 0 -11 4 -11 11v17c0 7 4 11 12 11z" />
    <glyph glyph-name="section" unicode="&#xa7;" horiz-adv-x="624" 
d="M571 66c31 -30 47 -71 47 -122c0 -55 -21 -99 -62 -134c-45 -38 -106 -57 -185 -57c-76 0 -140 18 -192 54c-18 12 -34 26 -48 42c-5 5 -10 11 -14 17l-5 7c-1 1 -2 3 -3 5c-3 5 -2 10 3 15l25 24c5 5 10 4 15 -1l3 -5l5 -6c4 -5 8 -9 13 -14c13 -13 27 -25 42 -36
c45 -30 97 -45 156 -45c56 0 100 12 133 36c32 23 48 55 48 96c0 48 -22 83 -67 106c-18 9 -41 16 -69 23c-11 3 -24 6 -39 9l-40 8c-69 13 -119 30 -149 50c-45 30 -67 76 -67 138c0 43 16 82 48 117c-32 30 -48 71 -48 124c0 54 20 98 61 133c43 37 102 56 177 56
c71 0 130 -16 177 -49c17 -11 31 -24 43 -38c5 -5 9 -11 13 -17c3 -4 5 -8 7 -12c4 -7 3 -13 -4 -18l-29 -20c-7 -4 -12 -3 -15 2c-2 3 -4 7 -6 10c-3 5 -7 9 -10 13c-10 12 -21 23 -34 32c-37 27 -83 40 -138 40c-56 0 -100 -13 -132 -40c-29 -24 -44 -54 -44 -91
c0 -47 22 -81 67 -103c17 -9 40 -16 69 -23l39 -8l40 -8c69 -15 118 -32 148 -52c45 -31 67 -77 67 -139c0 -47 -15 -86 -46 -119zM434 308c-14 4 -31 8 -52 12l-27 5l-27 6c-45 9 -79 18 -102 29c-25 -23 -38 -51 -38 -83c0 -60 40 -101 119 -122c13 -3 31 -7 53 -12l27 -5
l28 -6c44 -9 78 -20 102 -32c23 23 34 50 34 83c0 61 -39 103 -117 125z" />
    <glyph glyph-name="cent" unicode="&#xa2;" horiz-adv-x="492" 
d="M217 107c21 -27 47 -45 80 -53v386c-79 -11 -119 -76 -119 -195c0 -58 13 -104 39 -138zM297 -88v84c-51 7 -93 29 -126 68c-37 45 -55 105 -55 181c0 154 60 238 181 251v74c0 8 4 12 12 12h26c8 0 12 -4 12 -13v-73c37 -2 70 -14 99 -36c10 -8 19 -17 28 -28
c7 -8 12 -16 16 -23c3 -5 2 -9 -3 -12l-37 -22c-5 -3 -8 -2 -11 3c-2 5 -5 10 -9 15c-5 7 -10 14 -17 20c-19 16 -41 25 -66 28v-393c35 3 64 15 87 36c8 7 15 16 22 25c2 4 4 8 6 11c1 3 3 6 4 9c2 5 5 6 9 3l26 -23c3 -3 3 -6 2 -10l-2 -4l-2 -5c-3 -5 -5 -9 -8 -14
c-7 -12 -16 -23 -27 -33c-30 -29 -69 -45 -117 -48v-84c0 -8 -4 -12 -12 -12h-26c-8 0 -12 4 -12 13z" />
    <glyph glyph-name="dollar" unicode="$" horiz-adv-x="590" 
d="M315 -100v108c-66 3 -122 21 -168 54c-17 12 -31 25 -44 40c-5 5 -10 11 -14 16c-3 5 -5 9 -8 13c-3 5 -2 10 3 15l25 22c7 6 12 6 15 1c2 -3 5 -7 8 -11c4 -5 8 -10 13 -15c13 -13 27 -25 43 -35c44 -29 95 -44 152 -44c55 0 99 11 130 32c32 22 48 52 48 91
c0 45 -22 78 -66 99c-17 9 -40 16 -68 23l-38 8l-39 7c-69 13 -117 29 -146 48c-44 28 -66 71 -66 128c0 52 19 95 56 130c40 37 95 56 164 59v100c0 8 4 12 12 12h31c8 0 12 -4 12 -12v-102c56 -5 103 -22 141 -50c13 -11 25 -22 36 -34c4 -5 8 -10 11 -15c3 -4 5 -8 7 -12
c4 -7 3 -13 -4 -18l-28 -20c-7 -5 -12 -4 -15 2c-2 4 -4 8 -7 11c-3 5 -7 9 -11 14c-10 11 -21 22 -34 31c-36 25 -80 37 -133 37c-55 0 -98 -13 -129 -40c-29 -24 -43 -55 -43 -92c0 -43 22 -75 66 -95c17 -8 40 -15 68 -22l38 -9l40 -7c67 -14 116 -30 145 -49
c44 -29 66 -72 66 -129c0 -49 -18 -90 -54 -123c-38 -35 -91 -54 -160 -58v-109c0 -8 -4 -12 -12 -12h-31c-8 0 -12 4 -12 12z" />
    <glyph glyph-name="Euro" unicode="&#x20ac;" horiz-adv-x="668" 
d="M111 429h74c12 82 41 145 86 189c47 46 108 69 185 69c82 0 144 -24 187 -73c2 -3 3 -6 3 -9c0 -4 -1 -7 -4 -9l-31 -22c-3 -3 -7 -4 -12 -2l-4 2l-3 3c-34 35 -79 53 -135 53c-51 0 -94 -15 -128 -45c-39 -35 -65 -87 -76 -156h248c8 0 12 -4 12 -12v-32
c0 -8 -4 -12 -12 -12h-255c-1 -21 0 -44 1 -69h254c8 0 12 -4 12 -12v-32c0 -8 -4 -12 -12 -12h-245c13 -61 38 -107 76 -139c37 -31 82 -46 137 -46c27 0 55 6 83 17c21 8 41 19 61 34l4 3l5 3c5 1 9 -1 12 -4l22 -22c3 -4 5 -8 4 -13l-3 -5l-3 -4c-21 -19 -46 -34 -74 -45
c-35 -14 -72 -21 -113 -21c-74 0 -135 19 -182 57c-51 41 -84 103 -98 185h-77c-8 0 -12 4 -12 12v32c0 8 4 12 13 12h69c-1 17 -1 40 0 69h-70c-8 0 -12 4 -12 12v32c0 8 4 12 13 12z" />
    <glyph glyph-name="yen" unicode="&#xa5;" horiz-adv-x="625" 
d="M128 413h112l-171 261c-4 9 0 13 11 13h50c5 0 10 -3 15 -10l199 -316l197 316c5 7 10 10 15 10h51c5 0 8 -1 10 -3c3 -3 3 -6 0 -10l-172 -261h114c9 0 13 -4 13 -12v-26c0 -8 -4 -12 -13 -12h-146l-37 -59v-31h141c8 0 12 -4 12 -12v-25c0 -8 -4 -12 -12 -12h-141v-212
c0 -8 -4 -12 -12 -12h-41c-8 0 -12 4 -12 12v212h-142c-8 0 -12 4 -12 12v25c0 8 4 12 13 12h141v31l-38 59h-146c-8 0 -12 4 -12 12v26c0 8 4 12 13 12z" />
    <glyph glyph-name="AE" unicode="&#xc6;" horiz-adv-x="826" 
d="M351 612l-132 -351h264zM575 11l-72 196h-304l-72 -196c-2 -7 -7 -11 -14 -11h-41c-4 0 -7 1 -10 3c-3 3 -3 6 -2 9l254 675c3 9 8 13 14 13h467c8 0 12 -4 12 -12v-32c0 -8 -4 -12 -13 -12h-388l97 -263h234c8 0 12 -4 12 -13v-31c0 -8 -4 -12 -13 -12h-211l100 -269
h170c8 0 12 -4 12 -12v-32c0 -8 -4 -12 -13 -12h-205c-7 0 -12 4 -14 11z" />
    <glyph glyph-name="aeacute" unicode="&#x1fc;" horiz-adv-x="826" 
d="M351 612l-132 -351h264zM575 11l-72 196h-304l-72 -196c-2 -7 -7 -11 -14 -11h-41c-4 0 -7 1 -10 3c-3 3 -3 6 -2 9l254 675c3 9 8 13 14 13h467c8 0 12 -4 12 -12v-32c0 -8 -4 -12 -13 -12h-388l97 -263h234c8 0 12 -4 12 -13v-31c0 -8 -4 -12 -13 -12h-211l100 -269
h170c8 0 12 -4 12 -12v-32c0 -8 -4 -12 -13 -12h-205c-7 0 -12 4 -14 11zM437 782h-39c-7 0 -9 3 -6 8l47 105c3 5 8 8 14 8h58c7 0 9 -3 6 -9l-65 -104c-3 -5 -8 -8 -15 -8z" />
    <glyph glyph-name="one" unicode="1" horiz-adv-x="399" 
d="M340 688v-676c0 -8 -4 -12 -13 -12h-41c-8 0 -12 4 -12 12v565c-11 -28 -33 -54 -66 -78c-38 -28 -79 -43 -124 -45h-3l-3 2c-3 2 -4 5 -5 9l-6 41c-1 3 0 6 3 9c1 1 3 2 5 2c49 3 92 22 131 57c36 33 58 71 66 113l1 4l3 4c2 3 5 5 9 5h42c9 0 13 -4 13 -12z" />
    <glyph glyph-name="two" unicode="2" horiz-adv-x="559" 
d="M546 0h-417c-8 0 -12 4 -12 12v44c0 56 19 103 58 142c24 24 66 52 127 85l35 18l33 19c24 15 44 29 59 42c39 35 58 78 58 127s-13 88 -40 117s-64 43 -109 43c-49 0 -88 -16 -117 -49c-11 -12 -19 -26 -26 -41c-5 -12 -9 -23 -11 -34c-1 -3 -2 -6 -4 -7
c-3 -2 -6 -2 -10 -1l-43 11c-7 2 -10 6 -9 13c3 14 7 29 14 44c9 21 22 39 37 55c40 44 96 66 167 66c68 0 122 -20 161 -61c38 -39 57 -91 57 -156c0 -56 -19 -105 -57 -146c-26 -27 -68 -57 -125 -89l-34 -18l-33 -19c-24 -13 -43 -26 -58 -38c-38 -30 -57 -64 -57 -102
v-21h357c8 0 12 -4 12 -12v-32c0 -8 -4 -12 -13 -12z" />
    <glyph glyph-name="three" unicode="3" horiz-adv-x="577" 
d="M287 381h49c35 0 65 11 92 34c31 25 47 59 47 100c0 39 -13 70 -40 95c-29 26 -67 39 -116 39c-40 0 -73 -11 -100 -33c-10 -8 -19 -17 -26 -28c-6 -8 -10 -16 -13 -24c-3 -7 -8 -9 -15 -6l-42 15c-6 3 -8 8 -6 13s4 9 6 13c3 6 7 12 11 18c10 15 22 28 37 40
c40 33 91 49 154 49c70 0 125 -19 165 -58c35 -35 52 -77 52 -127c0 -52 -19 -94 -58 -126c-13 -11 -28 -19 -43 -26c-5 -3 -11 -5 -16 -7l-6 -1c-1 -1 -2 -1 -3 -1h1l2 -1c3 -1 5 -1 6 -2c7 -1 13 -3 18 -5c19 -7 35 -16 50 -27c46 -33 69 -80 69 -139
c0 -62 -22 -110 -65 -144c-42 -32 -101 -48 -176 -48c-70 0 -127 17 -171 50c-15 12 -29 26 -40 41c-4 5 -8 11 -11 17c-3 4 -5 8 -7 13c-2 6 0 11 5 14l31 21c6 4 11 3 14 -2c2 -3 4 -7 7 -11c3 -5 6 -9 10 -14c10 -12 21 -23 34 -32c35 -27 76 -40 125 -40
c56 0 99 12 130 36s47 59 47 105c0 45 -19 80 -56 106c-31 21 -66 32 -103 32h-50c-7 0 -11 4 -11 12v27c0 8 4 12 12 12z" />
    <glyph glyph-name="four" unicode="4" horiz-adv-x="566" 
d="M466 165v-153c0 -8 -4 -12 -13 -12h-40c-8 0 -12 4 -12 12v153h-317c-8 0 -12 4 -12 13v27c0 11 2 21 7 30l232 455c3 7 7 10 13 10h47c9 0 12 -4 7 -12l-238 -467h260v162c0 8 4 12 12 12h41c9 0 13 -4 13 -12v-162h88c8 0 12 -4 12 -12v-31c0 -9 -4 -13 -13 -13h-87z
" />
    <glyph glyph-name="five" unicode="5" horiz-adv-x="575" 
d="M202 644v-236c32 25 81 37 147 37c67 0 122 -21 165 -63c43 -41 64 -94 64 -157c0 -66 -19 -119 -56 -160c-43 -47 -104 -71 -185 -71c-59 0 -110 14 -155 42c-15 10 -29 21 -42 34c-5 5 -10 10 -14 15l-9 12c-4 5 -3 11 3 16l34 24c6 5 11 4 15 -2c3 -3 5 -7 7 -10
c4 -4 8 -8 11 -12c10 -11 21 -20 33 -28c34 -23 73 -34 117 -34c55 0 98 15 128 45c31 31 46 74 46 129c0 46 -15 84 -46 115c-32 32 -74 48 -125 48c-30 0 -58 -5 -83 -15c-10 -3 -19 -7 -27 -12c-7 -4 -13 -8 -18 -12c-9 -6 -17 -9 -26 -9h-36c-8 0 -12 4 -12 12v336
c0 8 4 12 12 12h387c8 0 12 -4 12 -12v-32c0 -8 -4 -12 -13 -12h-334z" />
    <glyph glyph-name="six" unicode="6" horiz-adv-x="600" 
d="M193 74c-46 57 -69 140 -69 250c0 255 89 382 268 382c47 0 88 -9 123 -28c13 -7 24 -16 35 -25c4 -3 8 -7 12 -11c3 -3 6 -7 9 -10c2 -3 3 -5 3 -8s-1 -6 -4 -8l-33 -27c-3 -2 -6 -3 -9 -2c-2 1 -4 2 -7 5c-5 6 -10 12 -16 17c-7 7 -16 14 -25 19c-25 15 -55 22 -88 22
c-131 0 -199 -102 -203 -305c13 15 30 31 52 46c45 30 92 45 141 45c65 0 119 -18 161 -54c46 -39 69 -93 69 -162c0 -71 -21 -126 -63 -166c-41 -40 -98 -60 -170 -60c-81 0 -143 27 -186 80zM249 109c33 -39 76 -58 129 -58c52 0 93 15 123 45s45 71 45 124
c0 51 -15 91 -46 119c-30 27 -72 40 -125 40c-47 0 -91 -15 -132 -46c-7 -5 -14 -11 -21 -17c-5 -5 -10 -11 -15 -16l-6 -6l-5 -5c-3 -3 -4 -5 -5 -6c3 -75 22 -133 58 -174z" />
    <glyph glyph-name="seven" unicode="7" horiz-adv-x="507" 
d="M68 656v32c0 8 4 12 12 12h421c8 0 12 -4 12 -12v-23c0 -43 -14 -90 -41 -141c-11 -19 -25 -43 -42 -70l-24 -35l-25 -37c-41 -62 -72 -116 -91 -163c-28 -68 -42 -138 -43 -210v-3l-2 -3c-2 -2 -5 -3 -8 -3h-46c-3 0 -6 1 -8 3l-2 3v3c1 72 15 143 43 212
c20 50 50 106 90 167l24 37l24 34c18 27 32 49 41 65c27 47 41 87 41 120h-365c-7 0 -11 4 -11 12z" />
    <glyph glyph-name="eight" unicode="8" horiz-adv-x="604" 
d="M244 372h1l-2 1l-4 1c-3 1 -7 3 -11 5c-12 6 -23 14 -33 24c-31 30 -47 71 -47 123c0 53 19 96 56 129c39 34 90 51 154 51c71 0 127 -20 166 -59c34 -34 51 -77 51 -128c0 -53 -17 -96 -51 -131c-17 -17 -35 -28 -52 -35c88 -31 132 -89 132 -172
c0 -58 -21 -104 -62 -137c-42 -33 -101 -50 -178 -50c-74 0 -133 16 -177 48c-49 35 -73 85 -73 150c0 56 21 102 63 139c13 11 28 21 45 30c5 3 10 5 15 8c2 1 4 1 5 2zM416 322l-118 28c-19 -5 -39 -16 -58 -31c-39 -30 -59 -69 -59 -118c0 -47 17 -84 50 -111
s77 -40 133 -40c55 0 98 12 128 37s45 60 45 106c0 66 -40 109 -121 129zM309 397l106 -26c15 4 31 13 47 27c31 27 46 65 46 112c0 39 -13 71 -38 97c-28 28 -65 42 -112 42c-43 0 -78 -13 -105 -38c-25 -24 -38 -54 -38 -91c0 -35 10 -64 31 -87c16 -17 37 -29 63 -36z
" />
    <glyph glyph-name="nine" unicode="9" horiz-adv-x="597" 
d="M520 620c44 -57 66 -141 66 -251c0 -250 -89 -375 -266 -375c-46 0 -87 10 -123 29c-14 7 -27 16 -38 26c-9 7 -16 15 -22 23c-3 3 -2 6 1 9l39 32c3 2 6 2 8 0c2 -3 4 -5 6 -8c3 -3 7 -6 10 -9c8 -8 17 -15 27 -21c27 -17 58 -25 92 -25c130 0 197 99 201 296
c-12 -14 -29 -28 -51 -42c-45 -29 -92 -43 -143 -43c-66 0 -119 18 -159 54c-44 39 -66 94 -66 164c0 69 20 124 61 165s98 62 169 62c81 0 144 -29 188 -86zM464 586c-33 42 -77 63 -132 63c-49 0 -89 -15 -118 -45c-30 -31 -45 -72 -45 -125c0 -107 55 -161 165 -161
c49 0 93 14 133 43c13 9 25 19 36 31l6 6l5 5l5 5c-3 76 -21 135 -55 178z" />
    <glyph glyph-name="zero" unicode="0" horiz-adv-x="622" 
d="M124 349c0 238 83 357 248 357c167 0 251 -119 251 -357c0 -237 -84 -355 -251 -355c-165 0 -248 118 -248 355zM556 349c0 200 -61 300 -184 300c-121 0 -181 -100 -181 -300c0 -199 60 -298 181 -298c123 0 184 99 184 298z" />
    <glyph glyph-name="quotesinglbase" unicode="&#x201a;" horiz-adv-x="226" 
d="M142 73c9 9 20 14 33 14c34 0 51 -19 51 -57c0 -37 -9 -67 -27 -90c-7 -9 -14 -16 -23 -23c-3 -2 -7 -4 -10 -7c-3 -1 -5 -3 -8 -4c-5 -2 -8 -1 -11 4l-12 19c-3 5 -2 8 2 10s8 4 11 7c5 4 9 8 12 12c9 11 14 23 15 36c-13 0 -24 4 -33 13s-14 20 -14 33s5 24 14 33z" />
    <glyph glyph-name="quotedblbase" unicode="&#x201e;" horiz-adv-x="352" 
d="M142 73c9 9 20 14 33 14c34 0 51 -19 51 -57c0 -37 -9 -67 -27 -90c-7 -9 -14 -16 -23 -23c-3 -2 -7 -4 -10 -7c-3 -1 -5 -3 -8 -4c-5 -2 -8 -1 -11 4l-12 19c-3 5 -2 8 2 10s8 4 11 7c5 4 9 8 12 12c9 11 14 23 15 36c-13 0 -24 4 -33 13s-14 20 -14 33s5 24 14 33z
M268 73c9 9 20 14 33 14c34 0 51 -19 51 -57c0 -37 -9 -67 -27 -90c-7 -9 -14 -16 -23 -23c-3 -2 -7 -4 -10 -7c-3 -1 -5 -3 -8 -4c-5 -2 -8 -1 -11 4l-12 19c-3 5 -2 8 2 10s8 4 11 7c5 4 9 8 12 12c9 11 14 23 15 36c-13 0 -24 4 -33 13s-14 20 -14 33s5 24 14 33z" />
    <glyph glyph-name="quoteleft" unicode="&#x2018;" horiz-adv-x="178" 
d="M162 661c-9 -9 -20 -14 -33 -14c-15 0 -27 5 -36 16c-10 11 -15 25 -15 42c0 37 9 67 27 90c7 8 14 15 23 22c3 3 7 5 10 7c3 1 5 3 8 4c5 2 8 1 11 -4l12 -19c3 -4 2 -7 -2 -10c-4 -2 -8 -4 -11 -7c-5 -4 -9 -8 -12 -12c-10 -11 -15 -23 -15 -36c13 0 24 -4 33 -13
s14 -20 14 -33s-5 -24 -14 -33z" />
    <glyph glyph-name="quotedblleft" unicode="&#x201c;" horiz-adv-x="309" 
d="M294 662c-9 -9 -21 -14 -34 -14c-15 0 -26 5 -35 16c-10 11 -15 25 -15 42c0 37 9 67 27 90c6 9 13 16 22 22c3 3 7 5 10 7c3 1 5 3 8 4c5 2 9 1 12 -4l11 -18c3 -5 3 -8 -2 -10l-5 -3l-5 -4c-5 -4 -9 -8 -13 -12c-9 -11 -14 -23 -15 -36c13 0 25 -4 34 -13
s14 -21 14 -34s-5 -24 -14 -33zM162 662c-9 -9 -20 -14 -33 -14c-15 0 -27 5 -36 16c-10 11 -15 25 -15 42c0 37 9 67 27 90c7 8 14 15 23 22c3 3 7 5 10 7c3 1 5 3 8 4c5 2 8 1 11 -4l12 -18c3 -5 2 -8 -2 -10s-8 -4 -11 -7c-5 -4 -9 -8 -12 -12c-10 -11 -15 -23 -15 -36
c13 0 24 -4 33 -13s14 -21 14 -34s-5 -24 -14 -33z" />
    <glyph glyph-name="quoteright" unicode="&#x2019;" horiz-adv-x="215" 
d="M138 702c9 9 20 14 33 14c15 0 27 -5 36 -15c10 -11 15 -26 15 -43c0 -37 -9 -67 -27 -90c-7 -8 -14 -15 -23 -22c-3 -3 -7 -5 -10 -7c-3 -1 -5 -3 -8 -4c-5 -2 -8 -1 -11 4l-12 19c-3 4 -2 7 2 10c4 2 8 4 11 7c5 4 9 8 12 12c9 11 14 23 15 36c-13 0 -24 4 -33 13
s-14 20 -14 33s5 24 14 33z" />
    <glyph glyph-name="quotedblright" unicode="&#x201d;" horiz-adv-x="346" 
d="M136 700c9 9 20 14 33 14c15 0 27 -5 36 -15c10 -11 15 -26 15 -43c0 -37 -9 -67 -27 -90c-6 -9 -13 -16 -22 -22c-3 -3 -7 -5 -10 -7c-3 -1 -5 -3 -8 -4c-5 -2 -9 -1 -12 4l-12 18c-2 5 -1 8 2 10c4 2 8 4 11 7c5 4 9 8 13 12c9 11 14 23 14 36c-13 0 -24 4 -33 13
s-14 21 -14 34s5 24 14 33zM267 700c9 9 20 14 33 14c15 0 27 -5 36 -15c10 -11 15 -26 15 -43c0 -37 -9 -67 -27 -90c-6 -9 -13 -16 -22 -22c-3 -3 -7 -5 -10 -7c-3 -1 -5 -3 -8 -4c-5 -2 -9 -1 -12 4l-12 18c-2 5 -1 8 2 10c4 2 8 4 11 7c5 4 9 8 13 12c9 11 14 23 14 36
c-13 0 -24 4 -33 13s-14 21 -14 34s5 24 14 33z" />
    <glyph glyph-name="ampersand" unicode="&#x26;" horiz-adv-x="679" 
d="M621 -95h-39c-8 0 -12 4 -12 11c0 20 -2 43 -7 69c-1 8 -3 17 -5 27l-1 5l-1 5c-1 3 -2 6 -2 7c-3 -1 -7 -3 -12 -5l-6 -4l-8 -3c-13 -6 -24 -11 -35 -15c-34 -12 -70 -18 -107 -18c-77 0 -140 23 -187 68s-71 105 -71 178c0 65 20 119 61 162c13 14 27 26 43 36
c5 3 10 6 15 8c1 1 3 2 5 3l1 1h1l-2 2l-2 3l-6 9c-5 8 -10 16 -14 25c-12 26 -18 53 -18 82c0 49 16 89 49 121c35 34 83 51 142 51c67 0 117 -19 151 -56c28 -31 42 -72 42 -121c0 -4 0 -10 -1 -19c-1 -10 -3 -19 -5 -28c-6 -25 -14 -38 -23 -38h-38c-8 0 -10 8 -7 23l1 6
l2 6l2 15c2 13 3 25 3 36c0 32 -9 59 -27 80c-22 26 -55 39 -98 39c-39 0 -71 -11 -94 -33s-34 -51 -34 -87c0 -29 11 -59 34 -90c14 -20 41 -49 81 -88l25 -24l25 -26c19 -19 36 -38 51 -55c38 -45 68 -92 91 -139l2 4l3 5l6 12c5 11 10 22 14 34c10 33 16 75 18 124
c1 8 5 12 12 12h42c8 0 12 -4 12 -13c0 -103 -28 -184 -84 -243c2 -7 4 -15 7 -25c3 -12 5 -24 8 -37c7 -34 10 -64 10 -91c0 -7 -4 -11 -13 -11zM485 58c9 3 19 8 30 14c3 2 6 4 11 7l5 3l4 2c-25 62 -66 124 -123 185c-10 11 -21 23 -34 36l-17 17l-16 16
c-26 26 -45 46 -56 59l-5 -3l-4 -2l-7 -4c-11 -8 -22 -17 -32 -28c-31 -33 -46 -74 -46 -123c0 -60 20 -108 59 -145c37 -35 84 -52 139 -52c33 0 63 6 92 18z" />
    <glyph glyph-name="copyright" unicode="&#xa9;" horiz-adv-x="871" 
d="M218 89c-71 71 -106 163 -106 274s36 203 107 274s162 106 272 106c111 0 202 -35 273 -106s107 -163 107 -274s-36 -203 -107 -274s-162 -106 -273 -106s-202 35 -273 106zM724 130c61 61 91 139 91 233c0 95 -30 174 -91 236s-139 93 -233 93c-95 0 -172 -31 -233 -93
s-91 -141 -91 -236s30 -172 91 -233s138 -92 233 -92s172 31 233 92zM349 555c35 39 82 59 141 59s105 -17 137 -52c11 -13 21 -27 28 -43c3 -6 5 -12 7 -19c1 -5 3 -11 4 -16c1 -7 -2 -12 -10 -14l-27 -4c-7 -2 -12 1 -15 9c-1 3 -2 7 -3 11l-6 12c-5 11 -12 20 -20 29
c-23 22 -54 33 -94 33s-72 -14 -97 -43c-31 -35 -46 -88 -46 -161c0 -65 17 -115 50 -148c27 -27 60 -40 99 -40c34 0 64 6 90 17c10 4 19 9 27 15c6 4 11 8 16 13c6 5 11 5 15 -1l13 -22c5 -6 5 -12 -1 -18c-5 -5 -10 -11 -17 -16c-10 -7 -21 -14 -33 -19
c-33 -15 -72 -23 -116 -23c-55 0 -100 18 -137 54c-44 43 -66 105 -66 186c0 88 20 155 61 201z" />
    <glyph glyph-name="registered" unicode="&#xae;" horiz-adv-x="871" 
d="M712 169v-29c0 -9 -9 -13 -27 -13c-25 0 -48 10 -67 31c-11 13 -26 36 -43 69l-9 18l-10 18c-7 13 -15 24 -22 32c-17 21 -37 31 -60 31h-94v-186c0 -8 -4 -12 -12 -12h-34c-7 0 -11 4 -11 13v450c0 7 4 11 11 11h155c101 0 151 -46 151 -138c0 -43 -14 -75 -42 -97
c-9 -7 -19 -13 -30 -18l-6 -2l-5 -1l-3 -1l-2 -1c15 -7 28 -21 41 -40c5 -7 10 -16 16 -27l15 -28c24 -47 48 -71 71 -71h10c5 0 7 -3 7 -9zM380 375h96c70 0 105 29 105 86c0 60 -34 90 -102 90h-99v-176zM218 89c-71 71 -106 163 -106 274s36 203 107 274s162 106 272 106
c111 0 202 -35 273 -106s107 -163 107 -274s-36 -203 -107 -274s-162 -106 -273 -106s-202 35 -273 106zM724 130c61 61 91 139 91 233c0 95 -30 174 -91 236s-139 93 -233 93c-95 0 -172 -31 -233 -93s-91 -141 -91 -236s30 -172 91 -233s138 -92 233 -92s172 31 233 92z
" />
    <glyph glyph-name="Thorn" unicode="&#xfe;" horiz-adv-x="537" 
d="M214 319v-164l1 -3l1 -4c1 -5 3 -9 5 -14c5 -13 13 -25 22 -36c27 -34 64 -51 111 -51c44 0 79 16 105 48c27 35 41 84 41 149c0 64 -15 113 -45 147c-26 29 -60 44 -102 44c-46 0 -83 -19 -111 -58c-14 -19 -23 -39 -28 -58zM202 -244h-38c-8 0 -12 4 -12 12v946
c0 8 4 12 11 12h39c8 0 12 -4 12 -12v-311l2 4l4 4c3 5 5 9 8 12c9 11 18 20 29 29c31 24 68 36 111 36c55 0 100 -19 135 -56c39 -43 59 -106 59 -187c0 -85 -20 -150 -59 -193c-35 -39 -81 -58 -138 -58c-27 0 -51 4 -72 13c-17 7 -33 16 -47 28c-15 13 -26 27 -32 40
v-307c0 -8 -4 -12 -12 -12z" />
    <glyph glyph-name="Thorn" unicode="&#xde;" horiz-adv-x="591" 
d="M247 204h147c119 0 179 52 179 157c0 109 -60 164 -181 164h-145v-321zM247 581h150c77 0 137 -18 178 -55c43 -37 64 -92 64 -165c0 -71 -22 -124 -65 -160c-41 -35 -97 -52 -170 -52h-157v-137c0 -8 -4 -12 -12 -12h-41c-8 0 -12 4 -12 12v676c0 8 4 12 12 12h41
c8 0 12 -4 12 -12v-107z" />
    <glyph glyph-name="Eth" unicode="&#xf0;" horiz-adv-x="576" 
d="M509 289l-5 6l-5 5l-6 7c-11 12 -22 23 -35 32c-40 30 -83 45 -128 45c-49 0 -89 -14 -118 -43c-31 -30 -46 -72 -46 -125c0 -51 15 -92 44 -123s68 -46 117 -46c53 0 96 20 127 59c34 42 52 103 55 183zM285 520l-13 21c-5 7 -3 13 4 18l92 56c-2 1 -5 2 -8 3l-5 2l-5 3
c-10 4 -19 7 -27 10c-25 9 -50 13 -74 14h-3l-2 1c-2 1 -3 3 -3 6v38c0 3 1 6 3 8l2 1h3c35 -1 71 -7 107 -20c13 -5 27 -10 40 -16c5 -3 10 -5 16 -8l7 -4l6 -3l94 58c7 5 13 4 18 -4l12 -18c5 -8 3 -14 -4 -17l-78 -49c28 -25 51 -59 70 -102c24 -56 36 -119 36 -189
c0 -108 -21 -190 -62 -247c-42 -59 -104 -88 -185 -88c-69 0 -123 20 -163 61c-39 40 -59 94 -59 161c0 69 21 124 64 165c40 37 92 56 155 56c50 0 95 -12 136 -36c7 -4 13 -9 20 -14c5 -3 11 -7 16 -12l16 -13c0 57 -11 108 -34 151c-9 17 -19 33 -31 46
c-9 11 -19 21 -29 29l-115 -72c-7 -5 -13 -3 -17 4z" />
    <glyph glyph-name="Eng" unicode="&#x14a;" horiz-adv-x="677" 
d="M182 12v676c0 8 4 12 12 12h52c9 0 15 -4 20 -13l346 -587v588c0 8 4 12 12 12h41c8 0 12 -4 12 -12v-740c0 -59 -16 -105 -48 -138c-31 -31 -72 -47 -125 -47c-32 0 -62 7 -89 20c-10 5 -20 10 -29 17c-7 5 -13 10 -18 15s-5 10 -1 15l27 30c5 5 11 5 16 0
c5 -4 9 -8 14 -12c7 -5 14 -10 21 -13c19 -11 39 -16 59 -16c72 0 108 42 108 126v55c-9 1 -16 5 -19 13l-346 579v-580c0 -8 -4 -12 -12 -12h-41c-8 0 -12 4 -12 12z" />
    <glyph glyph-name="Eng" unicode="&#x14b;" horiz-adv-x="524" 
d="M512 300v-309c0 -109 -48 -163 -144 -163c-19 0 -36 3 -53 10c-6 2 -12 5 -18 8l-6 4l-6 4c-6 4 -7 9 -4 16l12 25c3 7 7 9 12 6l4 -3l5 -2c4 -3 8 -5 13 -7c12 -5 24 -7 36 -7c57 0 86 37 86 112v306c0 40 -10 72 -29 96c-21 26 -52 39 -92 39c-43 0 -77 -18 -102 -54
c-22 -31 -33 -67 -33 -106v-263c0 -8 -4 -12 -12 -12h-39c-8 0 -12 4 -12 13v372c0 29 -10 46 -31 49c-3 0 -5 1 -7 3c-3 3 -4 6 -4 11v24c0 8 10 12 30 12c19 0 35 -6 48 -18c13 -13 20 -31 20 -54v-39c9 33 25 60 50 80c29 23 64 35 107 35c58 0 101 -18 130 -55
c26 -33 39 -77 39 -133z" />
    <glyph glyph-name="germandbls" unicode="&#xdf;" horiz-adv-x="525" 
d="M268 13l7 30c2 7 6 9 12 7l5 -1l6 -2c5 -1 11 -3 16 -4c17 -3 34 -4 51 -4c91 0 136 38 136 113c0 48 -29 91 -86 128l-16 11l-16 9c-11 8 -20 14 -27 19c-18 15 -27 29 -27 44c0 13 6 26 18 39c4 5 10 11 17 19l11 9l10 10c37 37 56 78 56 121c0 35 -9 64 -28 87
c-21 25 -49 38 -86 38c-35 0 -63 -12 -83 -36c-20 -25 -30 -59 -30 -103v-535c0 -8 -4 -12 -12 -12h-38c-8 0 -12 4 -12 12v545c0 56 15 100 44 132c31 33 74 50 130 50c55 0 99 -17 132 -50c30 -31 45 -70 45 -115c0 -51 -19 -97 -56 -138c-5 -6 -12 -13 -21 -21l-10 -9
l-8 -9c-12 -13 -18 -23 -18 -31c0 -9 9 -19 27 -30l13 -8l15 -9c13 -7 23 -14 32 -20c57 -41 86 -94 86 -161c0 -51 -18 -89 -54 -115c-33 -25 -77 -37 -134 -37c-22 0 -42 2 -61 5c-8 1 -15 2 -22 4c-5 1 -10 3 -15 4c-7 2 -10 7 -9 14z" />
    <glyph glyph-name="guilsinglright" unicode="&#x203a;" horiz-adv-x="291" 
d="M285 226l-117 -113c-5 -5 -10 -6 -15 -2l-22 24c-3 5 -2 9 2 14l116 115l-116 116c-4 5 -5 9 -2 14l21 23c5 5 10 4 16 -1l117 -114c9 -8 13 -17 13 -26v-23c0 -10 -4 -19 -13 -27z" />
    <glyph glyph-name="guilsinglleft" unicode="&#x2039;" horiz-adv-x="291" 
d="M112 253v23c0 9 4 18 12 26l118 114c6 5 11 6 16 1l20 -23c4 -5 3 -10 -2 -14l-115 -116l115 -115c5 -5 5 -9 2 -14l-21 -24c-4 -4 -9 -3 -16 2l-117 113c-8 8 -12 17 -12 27z" />
    <glyph glyph-name="OE" unicode="&#x152;" horiz-adv-x="1041" 
d="M565 118c47 52 70 129 70 231c0 103 -23 181 -70 233c-41 45 -93 67 -158 67s-117 -22 -156 -67c-47 -52 -70 -130 -70 -233c0 -102 23 -179 70 -231c40 -45 92 -67 156 -67c65 0 117 22 158 67zM701 644v-268h281c8 0 12 -4 12 -12v-31c0 -8 -4 -12 -12 -12h-281v-265
h331c8 0 12 -4 12 -12v-32c0 -8 -4 -12 -13 -12h-383c-8 0 -12 4 -12 12v120c-10 -34 -32 -64 -66 -89c-43 -33 -98 -49 -163 -49c-83 0 -151 27 -203 82c-60 62 -90 153 -90 273s30 212 90 275c52 55 120 82 203 82c63 0 117 -16 161 -49c35 -26 58 -56 68 -89v120
c0 8 4 12 12 12h384c8 0 12 -4 12 -12v-32c0 -8 -4 -12 -13 -12h-330z" />
    <glyph glyph-name="one.sinf" unicode="&#x2081;" horiz-adv-x="206" 
d="M180 163v-249c0 -8 -4 -12 -11 -12h-20c-7 0 -11 4 -11 12v195c-5 -10 -13 -19 -25 -28c-15 -10 -31 -16 -49 -18c-3 -1 -5 0 -8 1s-4 3 -5 6l-3 21c-1 3 0 6 2 8l3 1l3 1c19 2 36 10 51 23c13 11 23 25 28 40l1 3l3 4c2 3 5 4 9 4h21c7 0 11 -4 11 -12z" />
    <glyph glyph-name="uni2070" unicode="&#x2070;" horiz-adv-x="285" 
d="M72 631c0 93 35 139 105 139c72 0 108 -46 108 -139s-36 -139 -108 -139c-70 0 -105 46 -105 139zM241 631c0 67 -21 100 -64 100c-41 0 -62 -33 -62 -100c0 -68 21 -102 62 -102c43 0 64 34 64 102z" />
    <glyph glyph-name="onesuperior" unicode="&#xb9;" horiz-adv-x="205" 
d="M180 753v-249c0 -8 -4 -12 -12 -12h-19c-8 0 -12 4 -12 12v195c-5 -10 -13 -19 -25 -28c-15 -10 -31 -16 -48 -18l-3 -1l-4 1c-3 1 -5 3 -6 7l-4 21c-1 3 0 6 3 8c1 1 3 2 6 2c19 2 36 9 51 22c14 12 23 26 27 41l2 3l2 4c3 3 6 4 10 4h20c8 0 12 -4 12 -12z" />
    <glyph glyph-name="zero.sinf" unicode="&#x2080;" horiz-adv-x="283" 
d="M70 39c0 93 35 139 106 139c72 0 108 -46 108 -139s-36 -139 -108 -139c-71 0 -106 46 -106 139zM240 39c0 67 -21 100 -64 100c-42 0 -63 -33 -63 -100c0 -68 21 -102 63 -102c43 0 64 34 64 102z" />
    <glyph glyph-name="twosuperior" unicode="&#xb2;" horiz-adv-x="251" 
d="M238 493h-155c-8 0 -12 4 -12 11v11c0 34 23 64 68 90l25 15c9 6 16 11 22 16c14 13 21 29 21 46c0 32 -16 48 -48 48c-15 0 -27 -4 -36 -13c-4 -3 -7 -7 -9 -12c-2 -3 -3 -7 -4 -10c-1 -2 -2 -3 -3 -4c-2 -1 -4 -1 -6 0l-26 5c-2 1 -3 2 -4 3l-1 2v2c1 6 3 12 6 19
c4 8 9 15 16 22c17 17 39 25 68 25c28 0 50 -8 66 -24c15 -15 23 -36 23 -61c0 -35 -20 -65 -61 -92l-23 -15c-9 -5 -15 -10 -20 -14c-13 -11 -19 -22 -19 -33v-2h112c8 0 12 -4 12 -12v-12c0 -7 -4 -11 -12 -11z" />
    <glyph glyph-name="two.sinf" unicode="&#x2082;" horiz-adv-x="250" 
d="M238 -98h-155c-8 0 -12 4 -12 11v11c0 34 23 64 68 90l25 15c9 6 16 11 22 16c14 13 21 29 21 46c0 32 -16 48 -48 48c-15 0 -27 -4 -36 -13c-4 -3 -7 -7 -9 -12c-2 -3 -3 -7 -4 -10c-1 -2 -2 -3 -3 -4c-2 -1 -4 -1 -6 0l-26 5c-2 1 -3 2 -4 3l-1 2v2c1 6 3 12 6 19
c4 8 9 15 16 22c17 17 39 25 68 25c28 0 50 -8 66 -24c15 -15 23 -36 23 -61c0 -35 -20 -65 -61 -92l-23 -15c-9 -5 -15 -10 -20 -14c-13 -11 -19 -22 -19 -33v-2h112c8 0 12 -4 12 -12v-12c0 -7 -4 -11 -12 -11z" />
    <glyph glyph-name="threesuperior" unicode="&#xb3;" horiz-adv-x="256" 
d="M157 614h-16c-5 0 -8 3 -8 8v17c0 6 3 9 8 9h16c9 0 18 4 27 11c9 9 14 20 14 34c0 25 -16 37 -48 37c-11 0 -20 -3 -28 -8c-3 -1 -6 -3 -9 -6l-3 -3l-2 -2c-3 -3 -8 -4 -14 -2l-20 7c-5 3 -6 6 -4 11c2 4 5 8 8 12c4 5 9 9 15 14c16 11 36 16 59 16c30 0 53 -8 69 -23
c14 -13 21 -29 21 -49c0 -19 -6 -35 -17 -48c-4 -4 -9 -8 -14 -11c-4 -2 -8 -3 -11 -4l2 -1l3 -1l8 -3c6 -3 12 -7 17 -12c14 -13 21 -30 21 -51c0 -23 -9 -42 -28 -55s-43 -20 -72 -20c-25 0 -47 6 -64 17c-7 5 -12 10 -17 15c-3 4 -6 8 -9 13c-2 4 -1 8 4 11l13 12
c5 3 8 3 10 0s4 -7 7 -10c4 -4 8 -8 13 -11c11 -8 25 -12 41 -12c41 0 61 14 61 43c0 15 -6 26 -18 35c-10 7 -22 10 -35 10z" />
    <glyph glyph-name="three.sinf" unicode="&#x2083;" horiz-adv-x="256" 
d="M157 23h-15c-6 0 -9 3 -9 8v17c0 6 3 9 9 9h15c10 0 19 4 27 11c9 9 14 20 14 34c0 25 -16 37 -47 37c-11 0 -21 -3 -29 -8c-3 -1 -6 -3 -8 -6l-3 -3l-2 -2c-4 -4 -9 -5 -15 -2l-19 7c-5 3 -7 6 -4 11c1 1 2 3 3 5l5 6c4 5 9 10 15 14c16 11 36 17 59 17
c30 0 53 -8 69 -23c14 -13 21 -30 21 -49s-6 -35 -17 -48c-5 -4 -10 -8 -15 -11c-4 -2 -8 -3 -11 -4l3 -1l3 -1l7 -3c7 -3 12 -7 17 -12c14 -13 21 -30 21 -51c0 -23 -9 -42 -28 -55c-18 -13 -42 -20 -71 -20c-26 0 -48 6 -65 17c-6 5 -11 10 -16 15c-4 4 -7 8 -9 13
c-2 3 -1 7 3 11l13 12c5 3 8 3 10 0s5 -7 8 -10c3 -4 7 -8 12 -11c12 -8 26 -12 42 -12c40 0 60 14 60 43c0 15 -6 27 -18 35c-10 7 -22 10 -35 10z" />
    <glyph glyph-name="uni2074" unicode="&#x2074;" horiz-adv-x="265" 
d="M50 566v9c0 6 1 11 4 16l85 165c3 6 8 9 14 9h25c8 0 10 -3 6 -10l-84 -165h86v52c0 8 4 12 12 12h19c8 0 12 -4 12 -11v-53h25c7 0 11 -4 11 -11v-14c0 -7 -4 -11 -12 -11h-24v-50c0 -8 -4 -12 -12 -12h-19c-8 0 -12 4 -12 12v50h-124c-8 0 -12 4 -12 12z" />
    <glyph glyph-name="four.sinf" unicode="&#x2084;" horiz-adv-x="265" 
d="M50 -24v9c0 6 1 11 4 16l85 165c3 6 8 9 14 9h25c8 0 10 -3 6 -10l-84 -165h86v52c0 8 4 12 12 12h19c8 0 12 -4 12 -11v-53h25c7 0 11 -4 11 -11v-14c0 -7 -4 -11 -12 -11h-24v-50c0 -8 -4 -12 -12 -12h-19c-8 0 -12 4 -12 12v50h-124c-8 0 -12 4 -12 12z" />
    <glyph glyph-name="uni2075" unicode="&#x2075;" horiz-adv-x="261" 
d="M116 730v-77c11 9 29 14 52 14c65 0 98 -29 98 -88c0 -27 -9 -48 -26 -64c-19 -17 -44 -26 -77 -26c-23 0 -43 5 -60 14c-6 3 -12 7 -17 12l-6 6l-4 4c-3 4 -2 7 2 10l14 16c3 3 6 4 9 1s5 -5 8 -7c4 -3 8 -6 13 -8c13 -6 26 -9 41 -9c19 0 34 5 46 16c11 10 16 22 16 37
c0 34 -20 51 -60 51c-9 0 -19 -2 -28 -5c-3 -1 -6 -3 -9 -5c-3 -1 -5 -3 -7 -4c-5 -5 -10 -7 -17 -7h-14c-8 0 -12 4 -12 12v131c0 7 4 11 11 11h149c7 0 11 -4 11 -11v-12c0 -8 -4 -12 -11 -12h-122z" />
    <glyph glyph-name="five.sinf" unicode="&#x2085;" horiz-adv-x="260" 
d="M115 142v-77c11 9 28 14 51 14c66 0 99 -29 99 -88c0 -27 -9 -48 -26 -64c-19 -17 -44 -26 -77 -26c-23 0 -43 5 -60 14c-7 3 -12 7 -17 12c-4 3 -7 7 -10 10s-3 7 2 10l14 16c3 3 6 4 8 1c3 -3 5 -5 8 -7c4 -3 8 -6 13 -8c13 -6 27 -9 42 -9c19 0 34 5 45 16
c11 10 16 22 16 37c0 34 -20 51 -60 51c-10 0 -19 -2 -27 -5c-3 -1 -7 -3 -10 -5c-2 -1 -4 -3 -6 -4c-5 -5 -10 -7 -17 -7h-15c-7 0 -11 4 -11 12v131c0 7 4 11 11 11h149c7 0 11 -4 11 -11v-12c0 -8 -4 -12 -12 -12h-121z" />
    <glyph glyph-name="uni2076" unicode="&#x2076;" horiz-adv-x="274" 
d="M187 769c17 0 33 -3 47 -10c5 -3 9 -6 13 -9l5 -4l4 -3c3 -5 3 -9 -1 -13l-12 -15c-3 -3 -7 -3 -12 1l-3 2l-3 2c-3 2 -6 4 -9 5c-9 3 -18 5 -28 5c-21 0 -38 -8 -52 -23c-15 -16 -23 -39 -24 -68c15 17 39 26 71 26c29 0 52 -7 69 -22c19 -15 28 -37 28 -64
s-9 -48 -26 -64c-18 -16 -42 -24 -71 -24c-75 0 -113 43 -113 129c0 99 39 149 117 149zM137 545c12 -10 27 -15 46 -15c37 0 55 16 55 49c0 32 -19 48 -57 48c-18 0 -34 -4 -49 -13l-8 -4l-5 -5l-6 -4c1 -25 9 -43 24 -56z" />
    <glyph glyph-name="six.sinf" unicode="&#x2086;" horiz-adv-x="274" 
d="M255 139l-12 -14c-3 -3 -7 -3 -12 0c-2 1 -4 3 -6 4c-3 2 -6 4 -9 5c-9 4 -18 6 -28 6c-21 0 -38 -8 -52 -23c-15 -16 -23 -39 -24 -68c15 17 39 26 71 26c29 0 52 -7 69 -22c19 -15 28 -37 28 -64s-9 -49 -26 -65c-18 -16 -42 -24 -71 -24c-35 0 -62 11 -81 32
c-21 23 -32 55 -32 98c0 99 39 148 117 148c17 0 33 -3 47 -10c5 -3 9 -6 13 -9l5 -4l4 -3c3 -4 3 -8 -1 -13zM137 -45c12 -11 27 -16 46 -16c37 0 55 17 55 50c0 31 -19 47 -57 47c-18 0 -34 -4 -49 -13l-8 -4l-5 -5l-6 -4c1 -25 9 -43 24 -55z" />
    <glyph glyph-name="uni2077" unicode="&#x2077;" horiz-adv-x="228" 
d="M124 492h-24c-3 0 -6 1 -7 4l-2 3v3c1 27 7 52 18 77c7 18 18 38 32 60c31 46 46 76 46 91h-125c-8 0 -12 4 -12 12v12c0 7 4 11 11 11h158c7 0 11 -4 11 -11v-9c0 -23 -15 -58 -46 -106c-15 -23 -26 -43 -33 -60c-11 -25 -16 -51 -17 -77c0 -3 -1 -5 -2 -6
c-2 -3 -5 -4 -8 -4z" />
    <glyph glyph-name="seven.sinf" unicode="&#x2087;" horiz-adv-x="226" 
d="M123 -98h-24c-3 0 -6 1 -7 4l-2 3v3c1 27 7 52 17 77c7 18 18 38 33 60c31 47 46 77 46 91h-126c-8 0 -12 4 -12 12v12c0 7 4 11 12 11h157c8 0 12 -4 12 -11v-9c0 -23 -16 -58 -47 -106c-15 -23 -26 -43 -33 -60c-11 -25 -16 -51 -17 -77c0 -3 -1 -5 -2 -6
c-1 -3 -4 -4 -7 -4z" />
    <glyph glyph-name="uni2079" unicode="&#x2079;" horiz-adv-x="276" 
d="M86 743c18 16 42 24 71 24c75 0 113 -43 113 -129c0 -99 -39 -149 -117 -149c-17 0 -33 3 -46 10c-5 3 -10 6 -14 9l-5 4l-4 3c-3 5 -3 9 1 13l12 15c3 3 7 3 12 -1l3 -2l3 -2c3 -2 6 -3 9 -4c9 -4 18 -6 28 -6c21 0 38 8 52 23c15 16 23 39 24 68
c-15 -17 -39 -26 -71 -26c-29 0 -52 7 -69 22c-19 15 -28 37 -28 64s9 48 26 64zM203 713c-12 10 -27 15 -46 15c-37 0 -55 -16 -55 -49c0 -32 19 -48 57 -48c18 0 34 4 49 13l8 4l5 5l6 4c-1 25 -9 43 -24 56z" />
    <glyph glyph-name="nine.sinf" unicode="&#x2089;" horiz-adv-x="271" 
d="M76 -61l13 15c3 3 7 3 12 -1l3 -2l3 -2c3 -2 6 -3 9 -4c8 -4 17 -6 27 -6c21 0 39 8 53 23c15 16 23 39 24 68c-15 -17 -39 -26 -71 -26c-29 0 -52 7 -69 22c-19 15 -28 37 -28 64s9 48 26 64c18 16 42 24 71 24c75 0 113 -43 113 -129c0 -99 -39 -149 -117 -149
c-17 0 -33 3 -46 10c-5 3 -10 6 -14 9l-5 4l-4 3c-4 4 -4 8 0 13zM195 124c-12 10 -27 15 -46 15c-37 0 -56 -16 -56 -49c0 -32 19 -48 58 -48c18 0 34 4 49 13l8 4l5 5l6 4c-1 25 -9 43 -24 56z" />
    <glyph glyph-name="uni2078" unicode="&#x2078;" horiz-adv-x="278" 
d="M278 567c0 -23 -9 -42 -28 -56c-18 -13 -43 -20 -74 -20s-57 6 -77 19c-22 13 -33 33 -33 60c0 20 8 37 23 52c5 5 11 9 18 13c2 1 4 3 6 4l3 2l2 1c-1 0 -2 0 -4 1l-5 2c-5 3 -9 6 -13 10c-11 11 -16 25 -16 44c0 21 9 38 26 51s39 19 67 19c29 0 53 -8 70 -23
c15 -13 23 -30 23 -50s-5 -36 -16 -49c-3 -4 -7 -7 -11 -10c-2 -1 -4 -2 -5 -3s-2 -1 -3 -1c31 -12 47 -34 47 -66zM196 616l-46 12c-28 -9 -42 -26 -42 -51c0 -31 23 -47 68 -47c41 0 61 14 61 43c0 23 -14 37 -41 43zM158 657l43 -11c16 3 24 17 24 43c0 11 -5 21 -15 29
s-22 12 -37 12c-34 0 -51 -12 -51 -37c0 -11 4 -19 12 -25c3 -3 7 -5 12 -7c3 -1 7 -3 12 -4z" />
    <glyph glyph-name="eight.sinf" unicode="&#x2088;" horiz-adv-x="278" 
d="M278 -24c0 -23 -9 -42 -28 -56c-18 -13 -43 -20 -74 -20s-57 6 -77 19c-22 13 -33 33 -33 60c0 20 8 37 23 52c5 5 11 9 18 13c2 1 4 3 6 4l3 2l2 1c-1 0 -2 0 -4 1l-5 2c-5 3 -9 6 -13 10c-11 11 -16 25 -16 44c0 21 9 38 26 51s39 19 67 19c29 0 53 -8 70 -23
c15 -13 23 -30 23 -50s-5 -36 -16 -49c-3 -4 -7 -7 -11 -10c-2 -1 -4 -2 -5 -3s-2 -1 -3 -1c31 -12 47 -34 47 -66zM196 25l-46 12c-28 -9 -42 -26 -42 -51c0 -31 23 -47 68 -47c41 0 61 14 61 43c0 23 -14 37 -41 43zM158 66l43 -11c16 3 24 17 24 43c0 11 -5 21 -15 29
s-22 12 -37 12c-34 0 -51 -12 -51 -37c0 -11 4 -19 12 -25c3 -3 7 -5 12 -7c3 -1 7 -3 12 -4z" />
    <glyph glyph-name="fraction" unicode="&#x2044;" horiz-adv-x="90" 
d="M-140 0h-36c-10 0 -14 4 -12 12l213 704c2 7 7 10 15 10h36c10 0 14 -4 12 -12l-213 -704c-3 -7 -8 -10 -15 -10z" />
    <glyph glyph-name="onehalf" unicode="&#xbd;" horiz-adv-x="512" 
d="M407 688l-204 -678c-3 -7 -8 -10 -15 -10h-23c-4 0 -7 1 -10 3c-2 3 -2 6 -1 9l204 678c3 7 8 10 15 10h23c9 0 13 -4 11 -12zM203 688v-249c0 -8 -4 -12 -12 -12h-20c-7 0 -11 4 -11 12v195c-5 -10 -13 -19 -25 -28c-15 -10 -31 -16 -49 -18c-2 -1 -4 0 -7 1s-4 3 -5 6
l-4 21c-1 3 0 6 2 8l3 1l3 1c19 2 36 10 51 23c14 11 23 25 28 40l1 3l3 4c2 3 5 4 9 4h21c8 0 12 -4 12 -12zM489 0h-156c-7 0 -11 4 -11 11v11c0 34 23 64 68 90l25 15c9 6 16 11 22 16c14 13 21 29 21 46c0 32 -16 48 -48 48c-15 0 -27 -4 -36 -13c-4 -3 -7 -7 -9 -12
c-2 -3 -3 -7 -4 -10c-1 -2 -2 -3 -3 -4c-2 -1 -4 -1 -6 0l-26 5c-2 1 -3 2 -4 3l-1 2v2c1 6 3 12 6 19c4 8 9 15 16 22c17 17 39 25 68 25c28 0 50 -8 66 -24c15 -15 23 -36 23 -61c0 -35 -20 -65 -61 -92l-23 -15c-9 -5 -15 -10 -20 -14c-13 -11 -19 -22 -19 -33v-2h112
c8 0 12 -4 12 -12v-12c0 -7 -4 -11 -12 -11z" />
    <glyph glyph-name="onethird" unicode="&#x2153;" horiz-adv-x="521" 
d="M402 688l-205 -678c-2 -7 -7 -10 -14 -10h-24c-3 0 -6 1 -9 3c-2 3 -3 6 -2 9l205 678c3 7 8 10 15 10h23c4 0 7 -1 9 -3c2 -3 3 -6 2 -9zM205 688v-249c0 -8 -4 -12 -12 -12h-19c-8 0 -12 4 -12 12v195c-5 -10 -13 -19 -25 -28c-15 -10 -31 -16 -48 -18c-3 -1 -5 0 -8 1
s-4 3 -5 6l-4 21c-1 3 0 6 2 8c2 1 4 2 7 2c19 2 36 10 51 23c13 11 22 25 27 40c1 3 2 5 4 7c3 3 6 4 10 4h20c8 0 12 -4 12 -12zM421 121h-15c-6 0 -9 3 -9 8v17c0 6 3 9 9 9h15c9 0 18 4 27 11c9 9 14 20 14 34c0 25 -16 37 -47 37c-11 0 -21 -3 -29 -8
c-3 -1 -6 -3 -9 -6l-3 -3l-2 -2c-3 -3 -8 -4 -14 -2l-19 7c-5 2 -7 6 -5 11c1 2 2 4 3 5l5 6c5 5 10 10 16 14c16 11 35 17 58 17c30 0 53 -8 70 -23c14 -13 21 -30 21 -49s-6 -35 -17 -48c-5 -4 -10 -8 -15 -11c-4 -2 -8 -3 -11 -4l3 -1l3 -1l7 -3c7 -3 12 -7 17 -12
c14 -13 21 -30 21 -51c0 -23 -9 -42 -28 -55s-43 -20 -72 -20c-25 0 -47 6 -64 17c-7 5 -12 10 -17 15c-3 4 -6 8 -9 13c-2 4 -1 8 4 11l13 12c5 3 8 3 10 0s5 -7 8 -10c3 -4 7 -8 12 -11c12 -8 26 -12 42 -12c40 0 60 14 60 43c0 15 -6 27 -18 35c-10 7 -22 10 -35 10z" />
    <glyph glyph-name="onequarter" unicode="&#xbc;" horiz-adv-x="514" 
d="M407 688l-204 -678c-3 -7 -8 -10 -15 -10h-23c-4 0 -7 1 -10 3c-2 3 -2 6 -1 9l204 678c3 7 8 10 15 10h23c9 0 13 -4 11 -12zM203 688v-249c0 -8 -4 -12 -12 -12h-20c-7 0 -11 4 -11 12v195c-5 -10 -13 -19 -25 -28c-15 -10 -31 -16 -49 -18c-2 -1 -4 0 -7 1s-4 3 -5 6
l-4 21c-1 3 0 6 2 8l3 1l3 1c19 2 36 10 51 23c14 11 23 25 28 40l1 3l3 4c2 3 5 4 9 4h21c8 0 12 -4 12 -12zM300 74v9c0 6 1 11 4 16l85 165c3 6 8 9 14 9h25c8 0 10 -3 6 -10l-84 -165h86v52c0 8 4 12 12 12h19c8 0 12 -4 12 -11v-53h25c7 0 11 -4 11 -11v-14
c0 -7 -4 -11 -11 -11h-25v-50c0 -8 -4 -12 -12 -12h-19c-8 0 -12 4 -12 12v50h-124c-8 0 -12 4 -12 12z" />
    <glyph glyph-name="oneeighth" unicode="&#x215b;" horiz-adv-x="526" 
d="M407 688l-204 -678c-3 -7 -8 -10 -15 -10h-23c-4 0 -7 1 -10 3c-2 3 -2 6 -1 9l204 678c3 7 8 10 15 10h23c9 0 13 -4 11 -12zM203 688v-249c0 -8 -4 -12 -12 -12h-20c-7 0 -11 4 -11 12v195c-5 -10 -13 -19 -25 -28c-15 -10 -31 -16 -49 -18c-2 -1 -4 0 -7 1s-4 3 -5 6
l-4 21c-1 3 0 6 2 8l3 1l3 1c19 2 36 10 51 23c14 11 23 25 28 40l1 3l3 4c2 3 5 4 9 4h21c8 0 12 -4 12 -12zM520 74c0 -23 -9 -42 -27 -56c-19 -13 -44 -20 -75 -20s-57 6 -76 19c-22 13 -33 33 -33 60c0 20 8 37 23 52c5 5 10 9 17 13l4 3l3 1c2 1 3 2 4 3
c-1 0 -2 0 -3 1l-5 2c-5 3 -9 6 -13 10c-11 11 -17 26 -17 44c0 21 9 38 26 51s40 19 68 19c29 0 53 -8 70 -23c15 -14 23 -31 23 -50c0 -20 -5 -36 -16 -49c-4 -4 -8 -7 -12 -10c-2 -1 -4 -2 -5 -3s-2 -1 -3 -1c31 -12 47 -34 47 -66zM438 123l-46 12
c-28 -9 -42 -26 -42 -51c0 -31 23 -47 68 -47c41 0 61 14 61 43c0 23 -14 38 -41 43zM400 164l43 -11c16 3 24 17 24 43c0 11 -5 21 -14 29c-10 8 -22 12 -37 12c-35 0 -52 -12 -52 -37c0 -11 4 -19 12 -25c3 -3 7 -5 12 -7c3 -1 7 -3 12 -4z" />
    <glyph glyph-name="twothirds" unicode="&#x2154;" horiz-adv-x="554" 
d="M463 688l-204 -678c-2 -7 -7 -10 -14 -10h-24c-9 0 -13 4 -11 12l205 678c2 7 7 10 14 10h23c4 0 7 -1 10 -3c2 -3 2 -6 1 -9zM466 121h-15c-6 0 -9 3 -9 8v17c0 6 3 9 9 9h15c9 0 18 4 27 11c9 9 14 20 14 34c0 25 -16 37 -47 37c-11 0 -21 -3 -29 -8c-3 -1 -6 -3 -9 -6
l-3 -3l-2 -2c-3 -4 -7 -5 -14 -2l-19 7c-5 3 -7 6 -4 11c1 1 2 3 3 5l5 6c4 5 9 10 15 14c16 11 35 17 58 17c30 0 53 -8 70 -23c14 -13 21 -30 21 -49s-6 -35 -17 -48c-5 -4 -10 -8 -15 -11c-4 -2 -8 -3 -11 -4l3 -1l3 -1l7 -3c7 -3 12 -7 17 -12c14 -13 21 -30 21 -51
c0 -23 -9 -42 -28 -55s-43 -20 -72 -20c-26 0 -47 6 -64 17c-6 5 -11 10 -16 15c-4 4 -7 8 -9 13c-2 3 -1 7 3 11l13 12c5 3 8 3 10 0s5 -7 8 -10c3 -4 7 -8 12 -11c12 -8 26 -12 42 -12c40 0 60 14 60 43c0 15 -6 27 -18 35c-10 7 -22 10 -35 10zM263 426h-156
c-7 0 -11 4 -11 11v11c0 22 7 41 21 56c9 10 25 21 47 34l25 15c9 6 16 11 22 16c14 13 21 29 21 46c0 32 -16 48 -48 48c-16 0 -28 -4 -37 -13c-4 -3 -7 -7 -9 -12c-2 -3 -3 -7 -4 -10c-1 -2 -1 -3 -2 -4c-2 -1 -4 -1 -6 0l-26 5c-2 1 -4 2 -5 3l-1 2v2c1 6 3 12 6 19
c4 8 9 15 16 22c17 17 39 25 68 25s51 -8 66 -24c15 -15 23 -35 23 -61c0 -35 -20 -65 -61 -92l-22 -15c-9 -5 -15 -10 -20 -14c-13 -11 -19 -22 -19 -33v-2h111c8 0 12 -4 12 -12v-12c0 -7 -4 -11 -11 -11z" />
    <glyph glyph-name="threequarters" unicode="&#xbe;" horiz-adv-x="551" 
d="M453 688l-204 -678c-3 -7 -8 -10 -15 -10h-23c-4 0 -7 1 -10 3c-2 3 -2 6 -1 9l205 678c2 7 7 10 14 10h23c9 0 13 -4 11 -12zM344 74v9c0 7 1 13 3 16l85 165c3 6 8 9 14 9h25c7 0 10 -3 7 -10l-85 -165h87v52c0 8 4 12 11 12h20c7 0 11 -4 11 -11v-53h25
c7 0 11 -4 11 -11v-14c0 -7 -4 -11 -11 -11h-25v-50c0 -8 -4 -12 -11 -12h-20c-7 0 -11 4 -11 12v50h-125c-7 0 -11 4 -11 12zM179 547h-15c-6 0 -9 3 -9 8v17c0 6 3 9 9 9h15c10 0 19 4 27 11c9 9 14 20 14 34c0 25 -16 37 -47 37c-11 0 -21 -3 -29 -8c-3 -1 -6 -3 -8 -6
l-3 -3l-2 -2c-4 -4 -9 -5 -14 -2l-20 7c-6 2 -7 6 -4 11c1 1 2 3 3 5l5 6c4 5 9 10 15 14c16 11 36 17 59 17c30 0 53 -8 69 -23c14 -13 21 -30 21 -49s-6 -35 -17 -48c-5 -4 -10 -8 -15 -11c-4 -2 -8 -3 -11 -4l3 -1l3 -1l7 -3c7 -3 12 -7 17 -12c14 -13 21 -30 21 -51
c0 -23 -9 -42 -28 -55c-18 -13 -42 -20 -71 -20c-26 0 -47 6 -64 18c-7 4 -12 9 -17 14l-5 7l-4 6c-2 3 -1 7 3 11l13 12c4 4 7 4 10 0c2 -3 5 -7 8 -10c3 -4 7 -8 12 -11c12 -8 26 -12 42 -12c40 0 60 14 60 43c0 15 -6 27 -18 35c-10 7 -22 10 -35 10z" />
    <glyph glyph-name="threeeighths" unicode="&#x215c;" horiz-adv-x="563" 
d="M451 688l-204 -678c-3 -7 -8 -10 -15 -10h-23c-4 0 -7 1 -10 3c-2 3 -2 6 -1 9l204 678c3 7 8 10 15 10h23c9 0 13 -4 11 -12zM178 547h-15c-5 0 -8 3 -8 8v17c0 6 3 9 8 9h15c10 0 19 4 27 11c10 9 15 20 15 34c0 25 -16 37 -48 37c-11 0 -20 -3 -28 -8
c-3 -1 -6 -3 -9 -6l-3 -3l-2 -2c-4 -4 -9 -5 -14 -2l-20 7c-5 3 -6 6 -4 11l1 2l2 3l5 6c5 5 10 10 15 14c16 11 36 17 59 17c30 0 53 -8 69 -23c14 -13 21 -30 21 -49s-6 -35 -17 -48c-5 -4 -10 -8 -15 -11c-4 -2 -8 -3 -11 -4l3 -1l3 -1l7 -3c7 -3 13 -7 18 -12
c14 -13 21 -30 21 -51c0 -23 -9 -42 -28 -55s-43 -20 -72 -20c-26 0 -47 6 -64 17c-7 5 -12 10 -17 15c-4 4 -7 8 -9 13c-2 3 -1 7 3 11l14 12c4 3 7 3 10 0c2 -3 4 -7 7 -10c3 -4 7 -8 12 -11c12 -8 26 -12 42 -12c40 0 60 14 60 43c0 15 -6 27 -18 35c-10 7 -22 10 -35 10
zM564 74c0 -23 -9 -42 -27 -56c-19 -13 -44 -20 -75 -20s-57 6 -76 19c-22 13 -33 33 -33 60c0 20 8 37 23 52c5 5 10 9 17 13l4 3l3 1c2 1 3 2 4 3c-1 0 -2 0 -3 1l-5 2c-5 3 -9 6 -13 10c-11 11 -17 26 -17 44c0 21 9 38 26 51s39 19 67 19c29 0 53 -8 70 -23
c15 -13 23 -30 23 -50s-5 -36 -16 -49c-3 -4 -7 -7 -11 -10c-2 -1 -4 -2 -5 -3s-2 -1 -3 -1c31 -12 47 -34 47 -66zM482 123l-46 12c-28 -9 -42 -26 -42 -51c0 -31 23 -47 68 -47c41 0 61 14 61 43c0 23 -14 38 -41 43zM444 164l43 -11c16 3 24 17 24 43c0 12 -5 22 -14 29
c-10 8 -23 12 -38 12c-34 0 -51 -12 -51 -37c0 -11 4 -19 12 -25c3 -3 7 -5 12 -7c3 -1 7 -3 12 -4z" />
    <glyph glyph-name="fiveeighths" unicode="&#x215d;" horiz-adv-x="574" 
d="M462 688l-205 -678c-2 -7 -7 -10 -14 -10h-24c-3 0 -6 1 -9 3c-2 3 -3 6 -2 9l205 678c2 7 7 10 15 10h23c4 0 7 -1 9 -3c2 -3 3 -6 2 -9zM580 74c0 -23 -9 -42 -27 -56c-19 -13 -44 -20 -75 -20s-57 6 -76 19c-22 13 -33 33 -33 60c0 20 8 37 23 52c5 5 10 9 17 13l4 3
l3 1c2 1 3 2 4 3c-1 0 -2 0 -3 1l-5 2c-5 3 -9 6 -13 10c-11 11 -17 26 -17 44c0 21 9 38 26 51s40 19 68 19c29 0 53 -8 70 -23c15 -14 23 -31 23 -50c0 -20 -5 -36 -16 -49c-4 -4 -8 -7 -12 -10c-2 -1 -4 -2 -5 -3s-2 -1 -3 -1c31 -12 47 -34 47 -66zM498 123l-46 12
c-28 -9 -42 -26 -42 -51c0 -31 23 -47 68 -47c41 0 61 14 61 43c0 23 -14 38 -41 43zM460 164l43 -11c16 3 24 17 24 43c0 11 -5 21 -14 29c-10 8 -22 12 -37 12c-35 0 -52 -12 -52 -37c0 -11 4 -19 12 -25c3 -3 7 -5 12 -7c3 -1 7 -3 12 -4zM134 665v-77c11 9 28 14 51 14
c65 0 98 -29 98 -88c0 -27 -9 -48 -26 -64c-18 -17 -43 -26 -76 -26c-23 0 -43 5 -60 14c-7 3 -12 7 -17 12l-6 6l-4 4c-3 3 -2 7 1 10l15 16c3 3 6 4 8 1c3 -3 5 -5 8 -7c4 -3 8 -6 13 -8c13 -6 27 -9 42 -9c19 0 34 5 45 16c11 10 16 22 16 37c0 34 -20 51 -60 51
c-10 0 -19 -2 -27 -5c-3 -1 -7 -3 -10 -5c-2 -1 -4 -3 -6 -4c-5 -5 -10 -7 -17 -7h-15c-7 0 -11 4 -11 12v131c0 7 3 11 10 11h150c7 0 10 -4 10 -11v-12c0 -8 -4 -12 -11 -12h-121z" />
    <glyph glyph-name="seveneighths" unicode="&#x215e;" horiz-adv-x="550" 
d="M414 688l-204 -678c-3 -7 -8 -10 -15 -10h-23c-4 0 -7 1 -10 3c-2 3 -2 6 -1 9l204 678c3 7 8 10 15 10h23c9 0 13 -4 11 -12zM545 74c0 -23 -9 -42 -27 -56c-19 -13 -44 -20 -75 -20s-57 6 -76 19c-22 13 -33 33 -33 60c0 20 8 37 23 52c5 5 11 9 18 13c2 1 4 3 6 4l3 2
l2 1c-1 0 -2 0 -4 1l-5 2c-5 3 -9 6 -13 10c-11 11 -17 25 -17 44c0 21 9 38 26 51s40 19 68 19c29 0 53 -8 70 -23c15 -14 23 -31 23 -50c0 -20 -5 -36 -16 -49c-4 -4 -8 -7 -12 -10c-2 -1 -4 -2 -5 -3s-2 -1 -3 -1c31 -12 47 -34 47 -66zM464 123l-47 12
c-28 -9 -42 -26 -42 -51c0 -31 23 -47 68 -47c41 0 61 14 61 43c0 23 -13 37 -40 43zM425 164l43 -11c16 3 24 17 24 43c0 11 -5 21 -14 29c-10 8 -22 12 -37 12c-35 0 -52 -12 -52 -37c0 -11 4 -19 12 -25c3 -3 7 -5 12 -7c3 -1 7 -3 12 -4zM142 427h-24c-3 0 -6 1 -7 4
l-2 3v3c1 27 7 52 17 77c7 18 18 38 33 60c31 47 46 77 46 91h-125c-8 0 -12 4 -12 12v12c0 7 4 11 11 11h158c7 0 11 -4 11 -11v-9c0 -23 -16 -58 -47 -106c-15 -23 -26 -43 -33 -60c-10 -25 -16 -51 -17 -77v-3l-1 -3c-2 -3 -5 -4 -8 -4z" />
    </font>
</defs>
</svg>
