<?xml version="1.0" standalone="no"?>
<!DOCTYPE svg PUBLIC "-//W3C//DTD SVG 1.1//EN" "http://www.w3.org/Graphics/SVG/1.1/DTD/svg11.dtd" >
<svg xmlns="http://www.w3.org/2000/svg" xmlns:xlink="http://www.w3.org/1999/xlink" version="1.1">
<metadata>
Created by FontForge 20171206 at Wed Jan  2 14:16:49 2019
 By fw_worker
Copyright (c) 2012 by Mariya Pigoulevskaya. All rights reserved.
</metadata>
<defs>
<font id="SVN-NeusaBold" horiz-adv-x="385" >
  <font-face 
    font-family="SVN-Neusa"
    font-weight="700"
    font-stretch="normal"
    units-per-em="1000"
    panose-1="0 0 8 0 0 0 0 0 0 0"
    ascent="750"
    descent="-250"
    x-height="500"
    cap-height="700"
    bbox="-33 -287 948 1107"
    underline-thickness="50"
    underline-position="-100"
    unicode-range="U+0020-FB02"
  />
<missing-glyph horiz-adv-x="250" 
 />
    <glyph glyph-name=".notdef" horiz-adv-x="250" 
 />
    <glyph glyph-name="NULL" horiz-adv-x="0" 
 />
    <glyph glyph-name="nonmarkingreturn" horiz-adv-x="333" 
 />
    <glyph glyph-name="space" unicode=" " horiz-adv-x="244" 
 />
    <glyph glyph-name="exclam" unicode="!" horiz-adv-x="222" 
d="M52 700h118v-240l-16 -261h-86l-16 260v241zM50 0v121h122v-121h-122z" />
    <glyph glyph-name="quotedbl" unicode="&#x22;" horiz-adv-x="341" 
d="M29 700h120l-19 -268h-83zM192 700h121l-19 -268h-83z" />
    <glyph glyph-name="numbersign" unicode="#" horiz-adv-x="674" 
d="M614 376h-89l-17 -72h89l-37 -130h-92l-46 -174h-141l47 174h-78l-47 -174h-141l47 174h-87l39 130h87l17 72h-87l39 130h87l52 194h141l-52 -194h78l52 194h141l-52 -194h89zM367 304l17 72h-78l-17 -72h78z" />
    <glyph glyph-name="dollar" unicode="$" horiz-adv-x="463" 
d="M429 479h-129q0 48 -18 74t-47 26q-30 0 -47 -22t-17 -59q1 -17 7 -30t13.5 -20.5t22 -13t23.5 -8t27 -5.5q93 -17 134 -72t41 -130q0 -92 -37 -144t-99 -70v-55h-139v54q-60 16 -99.5 69t-40.5 147h130q0 -49 21 -73.5t55 -24.5q38 0 56.5 22.5t18.5 61.5q0 42 -23.5 60
t-83.5 30q-22 4 -41 11t-42 21.5t-39.5 34.5t-27.5 53t-11 73q0 86 35.5 136.5t91.5 68.5v56h139v-55q56 -18 91 -70.5t35 -145.5z" />
    <glyph glyph-name="percent" unicode="%" horiz-adv-x="721" 
d="M50 441v148q0 33 13 57.5t32.5 37t38.5 18.5t37 6q19 0 38.5 -6.5t39 -19.5t31.5 -37t12 -56v-148q0 -32 -12 -56t-31.5 -37t-39 -19t-38.5 -7q-18 0 -37 5.5t-38.5 18t-32.5 37.5t-13 58zM472 700h92l-315 -700h-92zM210 437v155q0 19 -12.5 28.5t-26.5 9.5t-26 -9
t-12 -29v-155q0 -19 12 -28t26 -9q15 0 27 9.5t12 27.5zM429 111v149q0 33 12.5 57.5t32.5 37t39 18t37 5.5q19 0 38.5 -6t39 -19t31.5 -37t12 -56v-149q0 -32 -12 -56t-31.5 -36.5t-39 -19t-38.5 -6.5q-18 0 -37 5.5t-39 18t-32.5 37t-12.5 57.5zM588 108v155q0 19 -12 28
t-26 9t-26.5 -9t-12.5 -28v-155q0 -19 12.5 -28t26.5 -9t26 9t12 28z" />
    <glyph glyph-name="ampersand" unicode="&#x26;" horiz-adv-x="544" 
d="M516 417v-127h-34v-73q0 -65 -17 -111t-49 -70t-69.5 -34t-85.5 -10h-10q-47 0 -86 11t-71 35t-50 67t-18 101v8q0 51 20.5 89t51.5 51q-29 13 -49 50t-20 87v8q0 59 18 101.5t49.5 65.5t68 33t81.5 10h50v-130h-50q-39 0 -59.5 -20t-20.5 -59v-5q0 -36 22 -57t61 -21h99
v124h134v-124h34zM348 221v69h-99q-42 0 -63.5 -20.5t-22.5 -58.5v-6q0 -35 24 -59t67 -24h7q46 0 66.5 23t20.5 76z" />
    <glyph glyph-name="quotesingle" unicode="'" horiz-adv-x="220" 
d="M50 700h120l-18 -268h-83z" />
    <glyph glyph-name="parenleft" unicode="(" horiz-adv-x="316" 
d="M213 750h53v-130h-28q-20 0 -35.5 -16t-15.5 -40v-517q0 -25 15.5 -40.5t35.5 -15.5h28v-130h-53q-74 0 -118.5 43.5t-44.5 120.5v561q0 77 44.5 120.5t118.5 43.5z" />
    <glyph glyph-name="parenright" unicode=")" horiz-adv-x="316" 
d="M50 750h53q74 0 118.5 -43.5t44.5 -120.5v-561q0 -77 -44.5 -120.5t-118.5 -43.5h-53v130h27q21 0 36 15.5t15 40.5v517q0 24 -15 40t-36 16h-27v130z" />
    <glyph glyph-name="asterisk" unicode="*" horiz-adv-x="488" 
d="M186 717h120l-6 -125l116 45l37 -114l-120 -32l78 -97l-97 -71l-68 105l-68 -105l-97 71l79 97l-121 32l37 114l117 -45z" />
    <glyph glyph-name="plus" unicode="+" horiz-adv-x="566" 
d="M214 501h138v-164h164v-130h-163v-164h-139v164h-164v130h164v164z" />
    <glyph glyph-name="comma" unicode="," horiz-adv-x="222" 
d="M50 120h122v-120l-44 -123h-47l21 123h-52v120z" />
    <glyph glyph-name="hyphen" unicode="-" horiz-adv-x="348" 
d="M50 333h248v-130h-248v130z" />
    <glyph glyph-name="period" unicode="." horiz-adv-x="222" 
d="M50 0v120h122v-120h-122z" />
    <glyph glyph-name="slash" unicode="/" horiz-adv-x="426" 
d="M22 0l242 700h140l-242 -700h-140z" />
    <glyph glyph-name="zero" unicode="0" horiz-adv-x="472" 
d="M30 234v193q0 66 17.5 115t48 75.5t65.5 39t75 12.5q39 0 73.5 -12.5t65.5 -39t49 -75.5t18 -115v-193q0 -67 -18 -116t-49 -75.5t-65.5 -38.5t-73.5 -12q-40 0 -75 12.5t-65.5 39t-48 75.5t-17.5 115zM305 241v179q0 119 -69 119t-69 -119v-179q0 -119 69 -119t69 119z
" />
    <glyph glyph-name="one" unicode="1" horiz-adv-x="248" 
d="M20 660h197v-660h-138v530h-59v130z" />
    <glyph glyph-name="two" unicode="2" horiz-adv-x="451" 
d="M224 668h8q37 0 70.5 -12t63 -35.5t47 -66.5t17.5 -99v-2q0 -44 -15.5 -79.5t-39 -59t-53 -47t-56.5 -42t-50.5 -43.5t-34.5 -52h244v-130h-404v66q0 44 12 82t31 64t43.5 50t50 40.5t50 34.5t43.5 34t30.5 36.5t11.5 44.5q0 39 -18 62.5t-46 23.5h-5q-26 -1 -43.5 -25.5
t-22.5 -70.5h-138l1 7q3 59 21.5 103t48.5 68.5t63 36t70 11.5z" />
    <glyph glyph-name="three" unicode="3" horiz-adv-x="451" 
d="M222 669h8q36 0 68.5 -10t62.5 -31t48 -60.5t19 -92.5v-8q0 -47 -20.5 -83.5t-49.5 -49.5q31 -13 52 -50.5t21 -86.5v-6q-1 -53 -18 -92.5t-46 -62t-63.5 -33.5t-72.5 -11h-9q-37 0 -70 11.5t-62.5 35t-48.5 66t-21 97.5v5h134q4 -44 23 -64.5t48 -20.5h5q28 1 45.5 19
t17.5 47v4q0 36 -21.5 57t-62.5 21h-55v128h55q38 0 59.5 19.5t21.5 55.5v4q0 26 -19 44t-42 18h-6q-26 -1 -44.5 -21.5t-23.5 -60.5h-134v6q3 54 21.5 95.5t48 64.5t62.5 34.5t69 11.5z" />
    <glyph glyph-name="four" unicode="4" horiz-adv-x="485" 
d="M465 241v-130h-41v-111h-138v111h-258v158l121 398h135l-119 -426h121v259h138v-259h41z" />
    <glyph glyph-name="five" unicode="5" horiz-adv-x="452" 
d="M45 667h347v-130h-210v-130l49 3q46 1 70 -4q46 -9 77 -40t42.5 -69.5t11.5 -84.5v-26q-1 -50 -18.5 -88.5t-46 -60.5t-62.5 -33t-71 -12h-11q-36 0 -69.5 11.5t-63 35t-48 65.5t-20.5 97v6h133q4 -45 23 -65.5t48 -20.5h6q28 1 45.5 21.5t17.5 60.5v21q0 41 -22.5 55.5
t-74.5 14.5h-153v373z" />
    <glyph glyph-name="six" unicode="6" horiz-adv-x="459" 
d="M22 220v208q0 66 18 115t48.5 75.5t65.5 39t75 12.5q38 0 71 -11t63.5 -34t49 -66.5t19.5 -101.5h-137q-1 41 -19 62t-47 21q-75 0 -75 -117v-62q32 41 91 42h18q40 1 71.5 -11.5t50.5 -32.5t31.5 -48t17 -56t4.5 -58q0 -40 -9.5 -74.5t-30.5 -65t-61 -48t-95 -17.5h-23
q-196 3 -197 228zM222 122h16q62 0 62 75q0 76 -62 76h-16q-63 0 -63 -76q0 -75 63 -75z" />
    <glyph glyph-name="seven" unicode="7" horiz-adv-x="443" 
d="M24 667h397v-105l-225 -562h-139l216 536h-249v131z" />
    <glyph glyph-name="eight" unicode="8" horiz-adv-x="460" 
d="M220 669h20q88 0 142 -56.5t55 -135.5v-7q0 -89 -70 -137q73 -41 73 -134v-7q0 -86 -52 -142.5t-148 -56.5h-19q-95 0 -147.5 56.5t-52.5 142.5v7q1 93 72 133q-70 48 -70 138v7q1 79 54.5 135.5t142.5 56.5zM299 471v4q0 36 -19.5 50t-44.5 14h-11q-25 0 -44 -14
t-20 -50v-4q0 -64 66 -64h6q67 0 67 64zM303 196v5q0 76 -70 76h-6q-69 0 -69 -76v-5q1 -73 66 -73h12q66 0 67 73z" />
    <glyph glyph-name="nine" unicode="9" horiz-adv-x="456" 
d="M436 442v-208q0 -66 -17.5 -115t-48.5 -75.5t-66 -39t-75 -12.5q-37 0 -70.5 11t-63.5 34t-49 66t-20 102h137q1 -41 19.5 -62t46.5 -21q75 0 75 117v62q-32 -41 -91 -42h-18q-40 -1 -71.5 11.5t-50.5 32.5t-31.5 48t-17 56t-4.5 58q0 40 9.5 74.5t30.5 65t61 48t95 17.5
h23q196 -3 197 -228zM236 540h-16q-63 0 -63 -75q0 -76 63 -76h16q62 0 62 76q0 75 -62 75z" />
    <glyph glyph-name="colon" unicode=":" horiz-adv-x="222" 
d="M50 339v121h122v-121h-122zM50 0v120h122v-120h-122z" />
    <glyph glyph-name="semicolon" unicode=";" horiz-adv-x="222" 
d="M50 460h122v-121h-122v121zM50 0v120h122v-120l-44 -123h-47l21 123h-52z" />
    <glyph glyph-name="less" unicode="&#x3c;" horiz-adv-x="531" 
d="M50 309l431 208v-132l-196 -95l196 -95v-132l-431 207v39z" />
    <glyph glyph-name="equal" unicode="=" horiz-adv-x="567" 
d="M50 431h467v-131h-467v131zM50 246h467v-131h-467v131z" />
    <glyph glyph-name="greater" unicode="&#x3e;" horiz-adv-x="531" 
d="M50 385v132l431 -208v-39l-431 -207v132l197 95z" />
    <glyph glyph-name="question" unicode="?" horiz-adv-x="510" 
d="M250 703h9q37 0 71 -11.5t64 -35t48 -66.5t18 -100v-2q0 -39 -9.5 -68.5t-25 -47.5t-33.5 -31.5t-36.5 -25t-33.5 -24.5t-24.5 -33.5t-9.5 -48.5h-112q0 41 8 72.5t21 50.5t28.5 33t31.5 25t29 23t21 30.5t8 43.5q0 39 -18.5 62.5t-45.5 23.5h-4q-27 -1 -44.5 -25.5
t-22.5 -70.5h-138v5q3 59 21.5 103t47.5 69t62 36.5t69 12.5zM171 121h123v-121h-123v121z" />
    <glyph glyph-name="at" unicode="@" horiz-adv-x="843" 
d="M546 -163h-142q-175 0 -264.5 103.5t-89.5 325.5q-1 223 93 322t280 98q91 0 158 -18.5t107.5 -48.5t64 -77.5t32 -98t8.5 -118.5v-168q0 -69 -41 -112.5t-119 -43.5q-91 -1 -133 53q-34 -58 -108 -58q-25 0 -47 9t-41.5 28.5t-31 55t-11.5 83.5v165q0 48 11.5 84t31 55
t41.5 28t47 9q69 0 103 -50l15 41h78v-347q0 -27 9.5 -41t34.5 -14q48 0 48 58v174q0 41 -3 70.5t-12.5 60t-27 50.5t-45 36.5t-69.5 24.5t-97 8q-71 0 -118.5 -13.5t-82 -49t-50 -98t-14.5 -157.5q0 -171 58.5 -249t185.5 -78h141v-102zM373 281v-52q1 -76 12.5 -103.5
t39.5 -27.5q27 0 38.5 28t11.5 103v52q0 75 -12 103t-39 28t-39 -28t-12 -103z" />
    <glyph glyph-name="A" unicode="A" horiz-adv-x="509" 
d="M347 0l-31 155h-122l-32 -155h-134l141 700h171l141 -700h-134zM208 289h92l-46 259z" />
    <glyph glyph-name="B" unicode="B" horiz-adv-x="454" 
d="M37 700h183q38 0 72.5 -9t64 -28t46.5 -52t17 -76v-40q0 -91 -76 -134q91 -42 91 -150v-34q0 -85 -56 -131t-154 -46h-188v700zM290 490v8q0 36 -20.5 54t-51.5 18h-47v-151h47q31 0 51.5 17.5t20.5 53.5zM299 208v9q0 39 -21 59t-57 20h-50v-166h50q36 0 57 19.5
t21 58.5z" />
    <glyph glyph-name="C" unicode="C" horiz-adv-x="462" 
d="M36 234v233q0 66 17.5 115t48 75.5t65.5 39t75 12.5q38 0 72 -12t63.5 -37.5t47 -73t18.5 -112.5v-22h-134v18q-4 109 -67 109q-69 0 -69 -118v-220q0 -119 69 -119q62 0 67 108v20h134v-22q-1 -65 -18.5 -113t-47 -73.5t-63.5 -37.5t-72 -12q-40 0 -75 12.5t-65.5 39
t-48 75.5t-17.5 115z" />
    <glyph glyph-name="D" unicode="D" horiz-adv-x="468" 
d="M37 700h193q40 0 74 -11t64.5 -37t47.5 -75.5t17 -118.5v-216q0 -69 -17 -118.5t-47.5 -75.5t-64.5 -37t-74 -11h-193v700zM300 249v203q0 118 -70 118h-59v-440h59q70 0 70 119z" />
    <glyph glyph-name="E" unicode="E" horiz-adv-x="359" 
d="M340 570h-169v-151h159v-130h-159v-159h169v-130h-303v700h303v-130z" />
    <glyph glyph-name="F" unicode="F" horiz-adv-x="350" 
d="M331 570h-160v-162h150v-130h-150v-278h-134v700h294v-130z" />
    <glyph glyph-name="G" unicode="G" horiz-adv-x="473" 
d="M36 234v233q0 67 17 115.5t47 75t64 39t74 12.5q39 0 72.5 -12t63 -38t46.5 -74.5t17 -114.5v-11h-130v7q-2 113 -69 113q-68 0 -68 -118v-220q0 -119 68 -119q69 0 69 114v33h-68v130h199v-165q0 -67 -17 -116t-46.5 -75.5t-63.5 -38.5t-73 -12q-86 0 -144 57t-58 185z
" />
    <glyph glyph-name="H" unicode="H" horiz-adv-x="467" 
d="M296 700h133v-700h-133v289h-125v-289h-134v700h134v-281h125v281z" />
    <glyph glyph-name="I" unicode="I" horiz-adv-x="213" 
d="M37 0v700h139v-700h-139z" />
    <glyph glyph-name="J" unicode="J" horiz-adv-x="319" 
d="M149 700h134v-466q0 -65 -17 -114t-46 -75.5t-62 -39t-71 -13.5h-59v130h33q88 2 88 119v459z" />
    <glyph glyph-name="K" unicode="K" horiz-adv-x="500" 
d="M473 0h-155l-142 290v-290h-139v700h139v-275l129 276h151l-159 -346z" />
    <glyph glyph-name="L" unicode="L" horiz-adv-x="359" 
d="M171 130h160v-130h-294v700h134v-570z" />
    <glyph glyph-name="M" unicode="M" horiz-adv-x="623" 
d="M420 700h165v-700h-129v390l-105 -390h-82l-104 390v-390h-130v700h165l110 -415z" />
    <glyph glyph-name="N" unicode="N" horiz-adv-x="499" 
d="M335 700h129v-700h-131l-168 392v-392h-130v700h132l168 -392v392z" />
    <glyph glyph-name="O" unicode="O" horiz-adv-x="478" 
d="M33 234v233q0 66 17.5 115t48 75.5t65.5 39t75 12.5q39 0 73.5 -12t65.5 -38.5t49 -75.5t18 -116v-233q0 -67 -18 -116t-49 -75.5t-65.5 -38.5t-73.5 -12q-40 0 -75 12.5t-65.5 39t-48 75.5t-17.5 115zM308 241v220q0 118 -69 118t-69 -118v-220q0 -119 69 -119t69 119z
" />
    <glyph glyph-name="P" unicode="P" horiz-adv-x="458" 
d="M37 700h161q43 0 81 -9.5t71.5 -30.5t53.5 -60.5t20 -93.5v-46q0 -49 -18 -87t-48.5 -59.5t-65.5 -33t-75 -13.5h-46v-267h-134v700zM293 478v10q0 44 -21 63.5t-53 19.5h-48v-175h48q31 0 52.5 19.5t21.5 62.5z" />
    <glyph glyph-name="Q" unicode="Q" horiz-adv-x="510" 
d="M474 122v-129h-217q-10 -1 -19 -1q-40 0 -74 12.5t-64 39t-47 75t-17 115.5v233q0 67 17 115.5t47 75t64 39t74 12.5q39 0 73.5 -12t64.5 -38.5t47.5 -75.5t17.5 -116v-233q0 -64 -16 -112h49zM170 461v-220q0 -119 68 -119h5h2q62 7 62 119v220q0 118 -69 118
q-68 0 -68 -118z" />
    <glyph glyph-name="R" unicode="R" horiz-adv-x="468" 
d="M37 700h164q43 0 81 -9.5t71.5 -30.5t53.5 -60.5t20 -93.5v-43q0 -104 -85 -151l99 -312h-142l-76 270h-52v-270h-134v700zM296 481v7q0 44 -21 63.5t-53 19.5h-51v-172h51q31 0 52.5 19.5t21.5 62.5z" />
    <glyph glyph-name="S" unicode="S" horiz-adv-x="463" 
d="M24 220h130q0 -49 21 -73.5t55 -24.5q38 0 56.5 22t18.5 60q0 44 -23.5 62t-83.5 30q-161 31 -161 193q0 60 17 104.5t46 68.5t62.5 35.5t72.5 11.5q38 0 70.5 -11.5t61.5 -36.5t45.5 -71.5t16.5 -110.5h-129q0 48 -18 74t-47 26q-30 0 -47 -22t-17 -59q0 -18 6.5 -31
t13.5 -20t22.5 -13t23.5 -8t27 -5q93 -17 134 -72t41 -131q0 -62 -17 -107.5t-47 -70.5t-66 -36.5t-79 -11.5q-40 0 -75 11.5t-65 37t-47.5 71.5t-18.5 108z" />
    <glyph glyph-name="T" unicode="T" horiz-adv-x="422" 
d="M394 700v-130h-116v-570h-134v570h-116v130h366z" />
    <glyph glyph-name="U" unicode="U" horiz-adv-x="476" 
d="M171 234q0 -60 17 -86t50 -26q69 0 69 112v466h134v-473q0 -67 -17.5 -114.5t-47.5 -73t-64 -36.5t-74 -11t-73.5 11.5t-63.5 36.5t-47 73t-17 114v473h134v-466v0z" />
    <glyph glyph-name="V" unicode="V" horiz-adv-x="510" 
d="M347 700h135l-140 -700h-174l-140 700h135l92 -487z" />
    <glyph glyph-name="W" unicode="W" horiz-adv-x="769" 
d="M605 700h136l-129 -700h-158l-70 372l-70 -372h-158l-128 700h135l81 -479l78 479h125l78 -479z" />
    <glyph glyph-name="X" unicode="X" horiz-adv-x="512" 
d="M478 700l-133 -341l139 -359h-138l-89 229l-90 -229h-139l138 358l-131 342h140l82 -220l82 220h139z" />
    <glyph glyph-name="Y" unicode="Y" horiz-adv-x="521" 
d="M353 700h140l-164 -429v-271h-138v270l-163 430h139l93 -276z" />
    <glyph glyph-name="Z" unicode="Z" horiz-adv-x="455" 
d="M169 130h261v-130h-406v108l258 462h-250v130h394v-111z" />
    <glyph glyph-name="bracketleft" unicode="[" horiz-adv-x="302" 
d="M253 620h-65v-629h65v-131h-203v890h203v-130z" />
    <glyph glyph-name="backslash" unicode="\" horiz-adv-x="426" 
d="M22 700h140l242 -700h-140z" />
    <glyph glyph-name="bracketright" unicode="]" horiz-adv-x="302" 
d="M50 750h203v-890h-203v131h65v629h-65v130z" />
    <glyph glyph-name="asciicircum" unicode="^" horiz-adv-x="454" 
d="M50 464l177 231l177 -231h-97l-80 105l-80 -105h-97z" />
    <glyph glyph-name="underscore" unicode="_" horiz-adv-x="514" 
d="M50 -15h414v-130h-414v130z" />
    <glyph glyph-name="grave" unicode="`" horiz-adv-x="297" 
d="M58 717h126l56 -161h-88z" />
    <glyph glyph-name="a" unicode="a" 
d="M276 500h78v-500h-78l-14 44q-34 -52 -104 -52q-24 0 -46 9t-42 28.5t-31.5 55t-11.5 83.5v165q0 48 11.5 83.5t31.5 55t42 28.5t46 9q69 0 103 -50zM140 277v-53q0 -75 11.5 -102.5t39.5 -27.5t39.5 27.5t10.5 102.5v53q0 74 -12 102t-38 28q-27 0 -39 -27.5t-12 -102.5
z" />
    <glyph glyph-name="b" unicode="b" 
d="M144 700v-228q31 37 87 37q53 0 90.5 -41.5t37.5 -134.5v-165q0 -93 -37.5 -134.5t-90.5 -41.5q-71 0 -106 53l-15 -45h-78v700h112zM246 224v53q0 75 -12 102.5t-39 27.5q-26 0 -38 -28t-12 -102v-53q-1 -75 10.5 -102.5t38.5 -27.5q28 0 40 27.5t12 102.5z" />
    <glyph glyph-name="c" unicode="c" horiz-adv-x="377" 
d="M27 168v165q0 48 14.5 83.5t39 55t52 28.5t57.5 9t57 -8.5t51 -27.5t38 -54t15 -82v-26h-110q-1 53 -14 74.5t-37 21.5q-27 0 -38.5 -27.5t-11.5 -102.5v-53q0 -75 11.5 -102.5t39.5 -27.5q25 0 37.5 21t13.5 75h109v-25q0 -48 -14.5 -83t-38.5 -53.5t-51 -27.5t-57 -9
t-57.5 9t-52 28.5t-39 55t-14.5 83.5z" />
    <glyph glyph-name="d" unicode="d" 
d="M242 700h112v-700h-78l-15 45q-35 -53 -106 -53q-54 0 -91 41.5t-37 134.5v165q0 93 37 134.5t91 41.5q56 0 87 -37v228zM140 277v-53q0 -75 11.5 -102.5t39.5 -27.5t39.5 27.5t10.5 102.5v53q0 74 -12 102t-38 28q-27 0 -39 -27.5t-12 -102.5z" />
    <glyph glyph-name="e" unicode="e" horiz-adv-x="379" 
d="M27 168v165q0 48 14.5 83.5t39 55t52 28.5t57.5 9t57.5 -9t52 -28t39 -55t14.5 -84v-123h-213v-23q0 -52 12.5 -72.5t38.5 -20.5q48 0 50 72h113q-1 -48 -15.5 -83.5t-39 -54t-52 -27.5t-57.5 -9t-57.5 9t-52 28.5t-39 55t-14.5 83.5zM241 293v28q-1 86 -51 86
q-24 0 -37 -19t-13 -67v-28h101z" />
    <glyph glyph-name="f" unicode="f" horiz-adv-x="293" 
d="M223 709h45v-101h-15q-34 0 -46.5 -19.5t-13.5 -74.5v-14h75v-102h-75v-398h-112v398h-55v102h55v33q0 97 38 136.5t104 39.5z" />
    <glyph glyph-name="g" unicode="g" 
d="M27 176v157q0 92 37 134t91 42q71 0 106 -52l15 44h79v-498q0 -48 -15 -83.5t-39 -54.5t-51.5 -28t-57.5 -9q-36 0 -67.5 11.5t-58 42.5t-34.5 79h114q11 -31 45 -31q25 0 38 18t13 63v27q-30 -38 -87 -38q-54 0 -91 41.5t-37 134.5zM241 227v50q1 74 -10.5 102t-39.5 28
q-27 0 -39 -27.5t-12 -102.5v-50q0 -75 11.5 -103t39.5 -28q26 0 38 28t12 103z" />
    <glyph glyph-name="h" unicode="h" horiz-adv-x="388" 
d="M145 700v-230q31 39 88 39q53 0 90 -41.5t37 -134.5v-333h-112v277q0 75 -12 102.5t-39 27.5q-26 0 -38.5 -22t-13.5 -78v-307h-112v700h112z" />
    <glyph glyph-name="i" unicode="i" horiz-adv-x="187" 
d="M33 567v111h122v-111h-122zM38 0v500h113v-500h-113z" />
    <glyph glyph-name="j" unicode="j" horiz-adv-x="254" 
d="M101 678h122v-111h-122v111zM106 500h113v-496q0 -98 -38.5 -137.5t-104.5 -39.5h-44v101h13q37 1 49 22.5t12 83.5v466z" />
    <glyph glyph-name="k" unicode="k" horiz-adv-x="379" 
d="M356 0h-117l-95 197v-197h-112v700h112v-382l89 182h116l-104 -243z" />
    <glyph glyph-name="l" unicode="l" horiz-adv-x="174" 
d="M33 0v700h113v-700h-113z" />
    <glyph glyph-name="m" unicode="m" horiz-adv-x="600" 
d="M110 500l16 -44q36 53 104 53q72 0 103 -64q35 64 111 64q53 0 90.5 -41.5t37.5 -134.5v-333h-113v277q0 75 -12 102.5t-39 27.5q-46 0 -50 -70v-337h-113v277q0 75 -12 102.5t-39 27.5q-24 0 -37 -19.5t-13 -70.5v-317h-112v500h78z" />
    <glyph glyph-name="n" unicode="n" horiz-adv-x="387" 
d="M110 500l16 -44q36 53 105 53q53 0 90.5 -41.5t37.5 -134.5v-333h-113v277q0 75 -12 102.5t-39 27.5q-25 0 -38 -22t-13 -78v-307h-112v500h78z" />
    <glyph glyph-name="o" unicode="o" horiz-adv-x="381" 
d="M27 168v165q0 48 14.5 83.5t39 55t52 28.5t57.5 9t57.5 -9t52.5 -28t39.5 -55t14.5 -84v-165q0 -48 -14.5 -84t-39.5 -55t-52.5 -28t-57.5 -9t-57.5 9t-52 28.5t-39 55t-14.5 83.5zM241 224v53q0 74 -12 102t-39 28t-38.5 -27.5t-11.5 -102.5v-53q0 -75 11.5 -102.5
t39.5 -27.5q27 0 39 28t11 102z" />
    <glyph glyph-name="p" unicode="p" 
d="M110 501l15 -45q35 53 106 53q53 0 90.5 -42t37.5 -134v-165q0 -93 -37.5 -134.5t-90.5 -41.5q-56 0 -87 37v-192h-112v664h78zM246 224v52q0 76 -11.5 103.5t-39.5 27.5t-39.5 -28t-10.5 -103v-52q0 -75 12 -103t38 -28q27 0 39 28t12 103z" />
    <glyph glyph-name="q" unicode="q" 
d="M276 501h78v-664h-112v192q-31 -37 -87 -37q-54 0 -91 41.5t-37 134.5v165q0 92 37 134t91 42q71 0 106 -53zM140 276v-52q0 -75 12 -103t39 -28q26 0 38 28t12 103v52q1 75 -10.5 103t-39.5 28t-39.5 -27.5t-11.5 -103.5z" />
    <glyph glyph-name="r" unicode="r" horiz-adv-x="278" 
d="M110 500l20 -58q47 67 125 67v-101q-54 0 -82 -30.5t-29 -100.5v-277h-112v500h78z" />
    <glyph glyph-name="s" unicode="s" horiz-adv-x="365" 
d="M133 158v-13q0 -26 14.5 -38.5t35.5 -12.5q50 0 50 48q0 36 -19 52t-61 24q-53 8 -89.5 43.5t-36.5 96.5q0 76 43 113.5t112 37.5q66 0 111 -39.5t46 -109.5v-9h-112v7q-1 25 -13.5 37t-30.5 12q-44 0 -44 -42q1 -41 52 -53q86 -16 120 -58.5t34 -104.5q0 -79 -44.5 -118
t-117.5 -39q-65 0 -113.5 39.5t-49.5 110.5v16h113z" />
    <glyph glyph-name="t" unicode="t" horiz-adv-x="293" 
d="M193 399v-199q0 -65 12 -86t49 -22h14v-101h-45q-66 0 -104 39.5t-38 139.5v229h-55v101h55v153h112v-153h75v-101h-75z" />
    <glyph glyph-name="u" unicode="u" horiz-adv-x="384" 
d="M243 500h113v-500h-78l-17 45q-36 -54 -105 -54q-53 0 -90 42t-37 134v333h112v-277q0 -74 12 -102t39 -28q25 0 38 22t13 78v307z" />
    <glyph glyph-name="v" unicode="v" horiz-adv-x="432" 
d="M295 500h113l-127 -499h-130l-127 499h113l79 -326z" />
    <glyph glyph-name="w" unicode="w" horiz-adv-x="622" 
d="M486 500h113l-97 -500h-137l-54 280l-54 -280h-136l-97 500h113l61 -351l66 351h95l66 -351z" />
    <glyph glyph-name="x" unicode="x" horiz-adv-x="413" 
d="M386 500l-90 -244l94 -256h-116l-67 164l-67 -164h-116l95 255l-90 245h116l62 -185l63 185h116z" />
    <glyph glyph-name="y" unicode="y" horiz-adv-x="375" 
d="M238 501h113v-502q-1 -47 -15.5 -81.5t-39 -53t-51.5 -27.5t-57 -9q-36 0 -67.5 11.5t-58 42.5t-33.5 79h114q10 -31 44 -31q25 0 38 18t13 62v28q-30 -38 -87 -38q-53 0 -90 41.5t-37 134.5v324h112v-268q0 -75 12 -103t39 -28t39 28.5t12 103.5v268z" />
    <glyph glyph-name="z" unicode="z" horiz-adv-x="350" 
d="M147 101h180v-101h-303v83l177 315h-166v102h288v-83z" />
    <glyph glyph-name="braceleft" unicode="{" horiz-adv-x="405" 
d="M302 750h53v-130h-27q-21 0 -36 -16t-15 -40v-108q0 -128 -91 -144q91 -17 91 -128v-137q0 -25 15 -40.5t36 -15.5h27v-130h-53q-73 0 -117 43t-46 121v118q-2 62 -20.5 81.5t-63.5 21.5h-5v131h5q45 1 64 20t21 80v109q1 77 45 120.5t117 43.5z" />
    <glyph glyph-name="bar" unicode="|" horiz-adv-x="237" 
d="M50 700h138v-760h-138v760z" />
    <glyph glyph-name="braceright" unicode="}" horiz-adv-x="405" 
d="M50 750h53q73 0 117 -43.5t46 -120.5v-110q2 -60 20.5 -79t63.5 -20h5v-131h-5q-45 -2 -63.5 -22t-20.5 -83v-116q-2 -78 -46 -121t-117 -43h-53v130h27q21 0 36.5 16t15.5 40v137q0 111 91 128q-92 17 -92 144v108q0 24 -15 40t-36 16h-27v130z" />
    <glyph glyph-name="asciitilde" unicode="~" horiz-adv-x="541" 
d="M148 208h-98q0 79 31.5 131t93.5 52q16 0 32.5 -4.5t27.5 -9t37 -17.5q20 -11 29.5 -16t25 -9t28.5 -3q18 2 28 16.5t10 37.5h98q0 -78 -30 -128.5t-91 -50.5q-12 0 -22.5 1.5t-22 6t-19 8t-23.5 11.5t-25 13q-39 21 -66 18q-21 -2 -32.5 -17.5t-11.5 -39.5z" />
    <glyph glyph-name="exclamdown" unicode="&#xa1;" horiz-adv-x="222" 
d="M50 537h122v-120h-122v120zM68 339h86l16 -262v-240h-118v241z" />
    <glyph glyph-name="cent" unicode="&#xa2;" horiz-adv-x="377" 
d="M134 601h113v-103q46 -14 74.5 -53t29.5 -109v-25h-110q-1 53 -14 74.5t-37 21.5q-27 0 -38.5 -27.5t-11.5 -102.5v-53q0 -75 11.5 -102.5t39.5 -27.5q25 0 37.5 21t13.5 75h109v-25q-2 -131 -104 -162v-100h-113v99q-47 14 -77 54.5t-30 111.5v165q0 71 30 111.5
t77 54.5v102z" />
    <glyph glyph-name="sterling" unicode="&#xa3;" horiz-adv-x="512" 
d="M485 465h-137v4q-4 110 -68 110q-68 0 -68 -118v-60h128v-131h-128v-139h247v-131h-432v131h48v139h-48v131h48v68q0 66 17.5 114.5t48 75t65 38.5t74.5 12q39 0 73.5 -12t64.5 -37.5t48.5 -73.5t18.5 -113v-8z" />
    <glyph glyph-name="currency" unicode="&#xa4;" horiz-adv-x="600" 
 />
    <glyph glyph-name="yen" unicode="&#xa5;" horiz-adv-x="544" 
d="M379 700h139l-101 -227h88v-130h-135l-14 -26l-3 -15h152v-130h-164v-172h-138v172h-164v130h153l-4 15l-14 26h-135v130h88l-101 227h139l107 -270z" />
    <glyph glyph-name="brokenbar" unicode="&#xa6;" horiz-adv-x="238" 
d="M50 700h139v-320h-139v320zM50 260h139v-320h-139v320z" />
    <glyph glyph-name="section" unicode="&#xa7;" horiz-adv-x="407" 
d="M148 96v-13q0 -29 16.5 -43.5t38.5 -14.5q26 0 41 13t15 40q0 41 -21.5 58.5t-68.5 25.5q-59 9 -99 48.5t-40 107.5q0 70 39 111q-39 42 -39 103q0 85 48 127t124 42q75 0 125 -44.5t51 -122.5v-10h-126v7q-1 28 -15 42t-34 14q-21 0 -34.5 -11.5t-13.5 -35.5
q0 -45 58 -59q173 -31 173 -182q0 -65 -32 -108q32 -42 32 -106q0 -87 -50 -130.5t-132 -43.5q-73 0 -127.5 44.5t-54.5 124.5v16h126zM181 374q-34 -11 -34 -48q0 -8 2 -14.5t4 -11t7.5 -9t8.5 -7t10.5 -5.5t10.5 -4t11.5 -4t9.5 -3q24 -9 39 -18q20 15 20 48q0 27 -16 42
t-46 24q-26 9 -27 10z" />
    <glyph glyph-name="dieresis" unicode="&#xa8;" horiz-adv-x="374" 
d="M55 590v110h112v-110h-112zM211 590v110h112v-110h-112z" />
    <glyph glyph-name="copyright" unicode="&#xa9;" horiz-adv-x="623" 
d="M312 700q111 0 189.5 -79.5t78.5 -189.5q0 -111 -78.5 -190.5t-189.5 -79.5q-112 0 -190 79t-78 191q0 111 78.5 190t189.5 79zM121 431q0 -82 53.5 -139.5t137.5 -57.5t138 57.5t54 139.5q0 81 -54 138.5t-138 57.5t-137.5 -57.5t-53.5 -138.5zM211 399v69q0 61 29.5 89
t70.5 28q40 0 68.5 -24t31.5 -79v-12h-61q-3 33 -12.5 45.5t-26.5 12.5q-19 0 -27.5 -19.5t-8.5 -72.5v-6q0 -53 8.5 -72.5t28.5 -19.5q17 0 26.5 12.5t11.5 45.5h61v-12q-3 -54 -31.5 -78.5t-68.5 -24.5q-41 0 -70.5 28t-29.5 90z" />
    <glyph glyph-name="ordfeminine" unicode="&#xaa;" 
d="M276 500h78v-500h-78l-14 44q-34 -52 -104 -52q-24 0 -46 9t-42 28.5t-31.5 55t-11.5 83.5v165q0 48 11.5 83.5t31.5 55t42 28.5t46 9q69 0 103 -50zM140 277v-53q0 -75 11.5 -102.5t39.5 -27.5t39.5 27.5t10.5 102.5v53q0 74 -12 102t-38 28q-27 0 -39 -27.5t-12 -102.5
z" />
    <glyph glyph-name="guillemotleft" unicode="&#xab;" horiz-adv-x="434" 
d="M50 329l154 137v-132l-82 -71l82 -71v-133l-154 138v132zM231 329l154 137v-132l-81 -71l81 -71v-133l-154 138v132z" />
    <glyph glyph-name="logicalnot" unicode="&#xac;" horiz-adv-x="567" 
d="M517 164h-138v103h-329v130h467v-233z" />
    <glyph glyph-name="registered" unicode="&#xae;" horiz-adv-x="623" 
d="M122 613q79 79 190 79t189.5 -79t78.5 -190t-78.5 -190t-189.5 -79t-189.5 79t-78.5 190t78 190zM450 562q-54 57 -138 57t-137.5 -57t-53.5 -139t53.5 -139.5t137.5 -57.5t138 57.5t54 139.5t-54 139zM222 573h91q46 0 72 -23.5t26 -60.5v-14q-1 -48 -44 -68l51 -129
h-66l-42 108h-24v-108h-64v295zM286 451h24q38 0 38 32t-38 32h-24v-64z" />
    <glyph glyph-name="macron" unicode="&#xaf;" horiz-adv-x="375" 
d="M50 700h275v-101h-275v101z" />
    <glyph glyph-name="degree" unicode="&#xb0;" horiz-adv-x="375" 
d="M90 726q40 41 97 41t97.5 -40.5t40.5 -97.5t-40.5 -97t-97.5 -40t-97 40t-40 97t40 97zM220 662q-13 14 -32.5 14t-33 -13.5t-13.5 -33t13.5 -33t33 -13.5t33 13.5t13.5 33t-14 32.5z" />
    <glyph glyph-name="plusminus" unicode="&#xb1;" horiz-adv-x="567" 
d="M214 529h139v-84h164v-130h-164v-83h-139v83h-164v130h164v84zM517 33h-467v131h467v-131z" />
    <glyph glyph-name="acute" unicode="&#xb4;" horiz-adv-x="297" 
d="M114 716h126l-95 -162h-87z" />
    <glyph glyph-name="paragraph" unicode="&#xb6;" horiz-adv-x="674" 
d="M174 700h473v-130h-38v-733h-137v733h-67v-733h-137v471h-94q-63 0 -105.5 42.5t-42.5 105.5v96q0 59 43.5 103.5t104.5 44.5z" />
    <glyph glyph-name="periodcentered" unicode="&#xb7;" horiz-adv-x="222" 
d="M50 298v120h122v-120h-122z" />
    <glyph glyph-name="cedilla" unicode="&#xb8;" horiz-adv-x="249" 
d="M108 0h91v-31q-1 -78 -29.5 -110.5t-103.5 -34.5h-16v82h15q25 2 34 17t9 49v28z" />
    <glyph glyph-name="ordmasculine" unicode="&#xba;" horiz-adv-x="381" 
d="M27 168v165q0 48 14.5 83.5t39 55t52 28.5t57.5 9t57.5 -9t52.5 -28t39.5 -55t14.5 -84v-165q0 -48 -14.5 -84t-39.5 -55t-52.5 -28t-57.5 -9t-57.5 9t-52 28.5t-39 55t-14.5 83.5zM241 224v53q0 74 -12 102t-39 28t-38.5 -27.5t-11.5 -102.5v-53q0 -75 11.5 -102.5
t39.5 -27.5q27 0 39 28t11 102z" />
    <glyph glyph-name="guillemotright" unicode="&#xbb;" horiz-adv-x="434" 
d="M231 334v132l154 -137v-132l-154 -138v133l81 71zM50 334v132l154 -137v-132l-154 -138v133l81 71z" />
    <glyph glyph-name="onequarter" unicode="&#xbc;" horiz-adv-x="652" 
d="M36 700h116v-338h-85v261h-31v77zM377 700h102l-287 -700h-102zM430 338h84l-62 -207h59v123h84v-123h21v-77h-21v-54h-84v54h-145v85z" />
    <glyph glyph-name="onehalf" unicode="&#xbd;" horiz-adv-x="639" 
d="M36 700h116v-338h-85v261h-31v77zM377 700h102l-287 -700h-102zM487 340h7q47 -1 78 -26.5t32 -79.5v-3q0 -29 -15 -52.5t-33.5 -37t-38.5 -31t-28 -33.5h112v-77h-224v36q0 35 14.5 62t35.5 42.5t42 28.5t36 28t15 32t-8 25.5t-20 9.5h-3q-27 0 -32 -39h-84v3
q3 58 36 84.5t78 27.5z" />
    <glyph glyph-name="threequarters" unicode="&#xbe;" horiz-adv-x="731" 
d="M143 707l8 -1q46 0 76.5 -23t30.5 -74v-5q0 -24 -10 -42.5t-24 -23.5q15 -8 25 -27.5t11 -44.5v-4q-1 -51 -31.5 -75t-78.5 -25h-7q-45 0 -76.5 25.5t-33.5 77.5v3h79q3 -27 30 -28h5q11 0 19.5 6.5t9.5 17.5v3q0 14 -10 23t-29 9h-29v78h29q36 -1 37 24l1 4
q0 11 -8 17.5t-20 6.5h-4q-27 0 -31 -27h-79v3q3 49 34.5 75t75.5 27zM459 700h102l-287 -700h-102zM509 338h85l-63 -207h59v123h84v-123h21v-77h-21v-54h-84v54h-144v85z" />
    <glyph glyph-name="questiondown" unicode="&#xbf;" horiz-adv-x="510" 
d="M338 420h-122v120h122v-120zM260 -163h-9q-37 0 -71 11.5t-64 35.5t-48 66.5t-18 99.5v2q0 39 9.5 69t25 47.5t33.5 31t36.5 25t33.5 24.5t24.5 33.5t9.5 48.5h112q0 -41 -8 -72.5t-21 -50t-28.5 -33t-31.5 -25.5t-28.5 -23t-21 -30.5t-8.5 -42.5q0 -40 18.5 -63.5
t45.5 -23.5h4q27 1 45 25.5t22 70.5h138v-5q-3 -59 -21.5 -103t-47.5 -68.5t-61.5 -36.5t-69.5 -13z" />
    <glyph glyph-name="Agrave" unicode="&#xc0;" horiz-adv-x="509" 
d="M169 700h171l141 -700h-134l-31 155h-122l-32 -155h-134zM300 289l-46 259l-46 -259h92zM149 904h87l69 -162h-75z" />
    <glyph glyph-name="Aacute" unicode="&#xc1;" horiz-adv-x="509" 
d="M169 700h171l141 -700h-134l-31 155h-122l-32 -155h-134zM300 289l-46 259l-46 -259h92zM281 742h-75l69 162h87z" />
    <glyph glyph-name="Acircumflex" unicode="&#xc2;" horiz-adv-x="509" 
d="M169 700h171l141 -700h-134l-31 155h-122l-32 -155h-134zM300 289l-46 259l-46 -259h92zM215 903h74l83 -161h-80l-39 81l-36 -81h-80z" />
    <glyph glyph-name="Atilde" unicode="&#xc3;" horiz-adv-x="509" 
d="M169 700h171l141 -700h-134l-31 155h-122l-32 -155h-134zM300 289l-46 259l-46 -259h92zM361 859q0 -31 -1 -47.5t-5 -29.5q-13 -41 -54 -41q-17 0 -29 2.5t-32 17.5l-3.5 3.5t-2.5 1.5q-6 5 -11.5 9t-8.5 6v-40h-65q0 31 1.5 46t3.5 29q12 43 57 43q11 0 25 -8.5
t22 -15.5v1q14 -11 23.5 -18t11.5 -6q1 0 1.5 9t0.5 38h66z" />
    <glyph glyph-name="Adieresis" unicode="&#xc4;" horiz-adv-x="509" 
d="M121 900h112v-110h-112v110zM277 900h112v-110h-112v110zM169 700h171l141 -700h-134l-31 155h-122l-32 -155h-134zM300 289l-46 259l-46 -259h92z" />
    <glyph glyph-name="Aring" unicode="&#xc5;" horiz-adv-x="509" 
d="M366 841q0 -46 -32.5 -78.5t-78.5 -32.5t-78.5 32.5t-32.5 78.5q0 45 32.5 77.5t78.5 32.5t78.5 -32.5t32.5 -77.5zM223 841q0 -14 9 -23.5t22.5 -9.5t23 9.5t9.5 23.5q0 13 -9.5 22.5t-22.5 9.5t-22.5 -9.5t-9.5 -22.5zM169 700h171l141 -700h-134l-31 155h-122
l-32 -155h-134zM300 289l-46 259l-46 -259h92z" />
    <glyph glyph-name="AE" unicode="&#xc6;" horiz-adv-x="602" 
d="M179 700h386v-130h-169v-151h159v-130h-159v-159h169v-130h-303v155h-58l-32 -155h-133zM262 289v248l-43 -248h43z" />
    <glyph glyph-name="Ccedilla" unicode="&#xc7;" horiz-adv-x="462" 
d="M36 234v233q0 66 17.5 115t48 75.5t65.5 39t75 12.5q38 0 72 -12t63.5 -37.5t47 -73t18.5 -112.5v-22h-134v18q-4 109 -67 109q-69 0 -69 -118v-220q0 -119 69 -119q62 0 67 108v20h134v-22q-1 -99 -39 -153.5t-98 -72.5v-27q-1 -80 -28 -114t-100 -37h-22v82l21 1
q21 3 29 17.5t9 44.5v26l-16 2q-71 13 -117 70t-46 167z" />
    <glyph glyph-name="Egrave" unicode="&#xc8;" horiz-adv-x="359" 
d="M37 700h303v-130h-169v-151h159v-130h-159v-159h169v-130h-303v700zM93 904h87l69 -162h-75z" />
    <glyph glyph-name="Eacute" unicode="&#xc9;" horiz-adv-x="359" 
d="M37 700h303v-130h-169v-151h159v-130h-159v-159h169v-130h-303v700zM211 742h-75l69 162h87z" />
    <glyph glyph-name="Ecircumflex" unicode="&#xca;" horiz-adv-x="359" 
d="M37 700h303v-130h-169v-151h159v-130h-159v-159h169v-130h-303v700zM151 903h74l83 -161h-80l-39 81l-36 -81h-80z" />
    <glyph glyph-name="Edieresis" unicode="&#xcb;" horiz-adv-x="359" 
d="M46 900h112v-110h-112v110zM202 900h112v-110h-112v110zM37 700h303v-130h-169v-151h159v-130h-159v-159h169v-130h-303v700z" />
    <glyph glyph-name="Igrave" unicode="&#xcc;" horiz-adv-x="213" 
d="M37 0v700h139v-700h-139zM2 904h87l69 -162h-75z" />
    <glyph glyph-name="Iacute" unicode="&#xcd;" horiz-adv-x="213" 
d="M37 0v700h139v-700h-139zM136 742h-75l69 162h87z" />
    <glyph glyph-name="Icircumflex" unicode="&#xce;" horiz-adv-x="213" 
d="M47 905h121l79 -153h-82l-58 62l-57 -63h-83zM38 0v700h139v-700h-139z" />
    <glyph glyph-name="Idieresis" unicode="&#xcf;" horiz-adv-x="213" 
d="M-26 790v110h112v-110h-112zM129 790v110h112v-110h-112zM38 0v700h139v-700h-139z" />
    <glyph glyph-name="Eth" unicode="&#xd0;" horiz-adv-x="468" 
d="M38 700h193q40 0 74 -11t64.5 -37t47.5 -75.5t17 -118.5v-216q0 -69 -17 -118.5t-47.5 -75.5t-64.5 -37t-74 -11h-193v274h-43v131h43v295zM301 249v203q0 118 -70 118h-59v-165h71v-131h-71v-144h59q70 0 70 119z" />
    <glyph glyph-name="Ntilde" unicode="&#xd1;" horiz-adv-x="499" 
d="M320 904h82q0 -40 -7.5 -71.5t-28.5 -54.5t-54 -23q-18 0 -32.5 6t-37.5 24q-19 16 -39 15q-23 -2 -24 -45h-82q0 40 7.5 71.5t29 54.5t54.5 23q19 0 33 -6.5t37 -23.5q23 -19 43 -13q19 4 19 43zM335 700h129v-700h-131l-168 392v-392h-130v700h132l168 -392v392z" />
    <glyph glyph-name="Ograve" unicode="&#xd2;" horiz-adv-x="478" 
d="M33 234v233q0 66 17.5 115t48 75.5t65.5 39t75 12.5q39 0 73.5 -12t65.5 -38.5t49 -75.5t18 -116v-233q0 -67 -18 -116t-49 -75.5t-65.5 -38.5t-73.5 -12q-40 0 -75 12.5t-65.5 39t-48 75.5t-17.5 115zM308 241v220q0 118 -69 118t-69 -118v-220q0 -119 69 -119t69 119z
M151 904h87l69 -162h-75z" />
    <glyph glyph-name="Oacute" unicode="&#xd3;" horiz-adv-x="478" 
d="M33 234v233q0 66 17.5 115t48 75.5t65.5 39t75 12.5q39 0 73.5 -12t65.5 -38.5t49 -75.5t18 -116v-233q0 -67 -18 -116t-49 -75.5t-65.5 -38.5t-73.5 -12q-40 0 -75 12.5t-65.5 39t-48 75.5t-17.5 115zM308 241v220q0 118 -69 118t-69 -118v-220q0 -119 69 -119t69 119z
M267 742h-75l69 162h87z" />
    <glyph glyph-name="Ocircumflex" unicode="&#xd4;" horiz-adv-x="478" 
d="M33 234v233q0 66 17.5 115t48 75.5t65.5 39t75 12.5q39 0 73.5 -12t65.5 -38.5t49 -75.5t18 -116v-233q0 -67 -18 -116t-49 -75.5t-65.5 -38.5t-73.5 -12q-40 0 -75 12.5t-65.5 39t-48 75.5t-17.5 115zM308 241v220q0 118 -69 118t-69 -118v-220q0 -119 69 -119t69 119z
M199 903h74l83 -161h-80l-39 81l-36 -81h-80z" />
    <glyph glyph-name="Otilde" unicode="&#xd5;" horiz-adv-x="478" 
d="M33 234v233q0 66 17.5 115t48 75.5t65.5 39t75 12.5q39 0 73.5 -12t65.5 -38.5t49 -75.5t18 -116v-233q0 -67 -18 -116t-49 -75.5t-65.5 -38.5t-73.5 -12q-40 0 -75 12.5t-65.5 39t-48 75.5t-17.5 115zM308 241v220q0 118 -69 118t-69 -118v-220q0 -119 69 -119t69 119z
M345 859q0 -31 -1 -47.5t-5 -29.5q-13 -41 -54 -41q-17 0 -29 2.5t-32 17.5l-3.5 3.5t-2.5 1.5q-6 5 -11.5 9t-8.5 6v-40h-65q0 31 1.5 46t3.5 29q12 43 57 43q11 0 25 -8.5t22 -15.5v1q14 -11 23.5 -18t11.5 -6q1 0 1.5 9t0.5 38h66z" />
    <glyph glyph-name="Odieresis" unicode="&#xd6;" horiz-adv-x="478" 
d="M106 790v110h112v-110h-112zM262 790v110h112v-110h-112zM33 234v233q0 66 17.5 115t48 75.5t65.5 39t75 12.5q39 0 73.5 -12t65.5 -38.5t49 -75.5t18 -116v-233q0 -67 -18 -116t-49 -75.5t-65.5 -38.5t-73.5 -12q-40 0 -75 12.5t-65.5 39t-48 75.5t-17.5 115zM308 241
v220q0 118 -69 118t-69 -118v-220q0 -119 69 -119t69 119z" />
    <glyph glyph-name="multiply" unicode="&#xd7;" horiz-adv-x="521" 
d="M264 367l116 116l92 -92l-116 -116l116 -116l-98 -98l-116 116l-116 -116l-92 92l116 116l-116 116l98 98z" />
    <glyph glyph-name="Oslash" unicode="&#xd8;" horiz-adv-x="478" 
d="M418 750l-34 -99q60 -63 60 -184v-233q0 -67 -18 -116t-48.5 -75.5t-65.5 -38.5t-74 -12q-42 0 -78 13l-19 -55h-83l35 99q-61 63 -61 185v233q0 66 18 115t48 75.5t65 39t75 12.5q43 0 79 -14l19 55h82zM170 461v-188l103 295q-15 11 -34 11q-69 0 -69 -118zM308 431
l-104 -299q14 -10 35 -10q69 0 69 119v190z" />
    <glyph glyph-name="Ugrave" unicode="&#xd9;" horiz-adv-x="476" 
d="M171 234v466h-134v-473q0 -66 17 -114t47 -73t63.5 -36.5t73.5 -11.5t74 11t64 36.5t47.5 73t17.5 114.5v473h-134v-466q0 -112 -69 -112q-33 0 -50 26t-17 86zM151 904h87l69 -162h-75z" />
    <glyph glyph-name="Uacute" unicode="&#xda;" horiz-adv-x="476" 
d="M171 234q0 -60 17 -86t50 -26q69 0 69 112v466h134v-473q0 -67 -17.5 -114.5t-47.5 -73t-64 -36.5t-74 -11t-73.5 11.5t-63.5 36.5t-47 73t-17 114v473h134v-466zM256 742h-75l69 162h87z" />
    <glyph glyph-name="Ucircumflex" unicode="&#xdb;" horiz-adv-x="476" 
d="M178 905h120l80 -153h-82l-58 62l-58 -63h-82zM171 234v466h-134v-473q0 -66 17 -114t47 -73t63.5 -36.5t73.5 -11.5t74 11t64 36.5t47.5 73t17.5 114.5v473h-134v-466q0 -112 -69 -112q-33 0 -50 26t-17 86z" />
    <glyph glyph-name="Udieresis" unicode="&#xdc;" horiz-adv-x="476" 
d="M104 790v110h112v-110h-112zM260 790v110h112v-110h-112zM171 234v466h-134v-473q0 -66 17 -114t47 -73t63.5 -36.5t73.5 -11.5t74 11t64 36.5t47.5 73t17.5 114.5v473h-134v-466q0 -112 -69 -112q-33 0 -50 26t-17 86z" />
    <glyph glyph-name="Yacute" unicode="&#xdd;" horiz-adv-x="521" 
d="M353 700h140l-164 -429v-271h-138v270l-163 430h139l93 -276zM275 742h-75l69 162h87z" />
    <glyph glyph-name="Thorn" unicode="&#xde;" horiz-adv-x="449" 
d="M37 703h134v-91h36q41 -1 76 -12t66 -32.5t48.5 -59.5t17.5 -89v-43q0 -50 -17.5 -88t-48.5 -59.5t-66.5 -33t-75.5 -13.5h-36v-182h-134v703zM285 394v7q0 44 -21.5 63.5t-53.5 19.5h-39v-172h39q32 0 53.5 19.5t21.5 62.5z" />
    <glyph glyph-name="germandbls" unicode="&#xdf;" horiz-adv-x="553" 
d="M269 706h18q50 0 91.5 -11t75.5 -34.5t53.5 -63.5t21.5 -93v-14q0 -46 -20 -82t-49 -49q32 -12 53 -50t21 -88v-11q0 -58 -19 -100t-51.5 -65t-71 -34t-84.5 -11h-100v131h100q44 0 66 19.5t23 53.5v10q0 35 -22.5 57t-68.5 22h-45v132h41q86 0 88 67v9q0 35 -25 55
t-78 20h-16q-99 -2 -104 -79v-497h-137v487q0 59 19 102.5t52.5 68t75 36.5t92.5 12z" />
    <glyph glyph-name="agrave" unicode="&#xe0;" 
d="M27 168v165q0 48 11.5 83.5t31.5 55t42 28.5t46 9q69 0 103 -50l15 41h78v-500h-78l-14 44q-34 -52 -104 -52q-24 0 -46 9t-42 28.5t-31.5 55t-11.5 83.5zM241 224v53q0 74 -12 102t-38 28q-27 0 -39 -27.5t-12 -102.5v-53q0 -75 11.5 -102.5t39.5 -27.5t39.5 27.5
t10.5 102.5zM122 710h87l69 -162h-75z" />
    <glyph glyph-name="aacute" unicode="&#xe1;" 
d="M276 500h78v-500h-78l-14 44q-34 -52 -104 -52q-24 0 -46 9t-42 28.5t-31.5 55t-11.5 83.5v165q0 48 11.5 83.5t31.5 55t42 28.5t46 9q69 0 103 -50zM140 277v-53q0 -75 11.5 -102.5t39.5 -27.5t39.5 27.5t10.5 102.5v53q0 74 -12 102t-38 28q-27 0 -39 -27.5t-12 -102.5
zM239 548h-75l69 162h87z" />
    <glyph glyph-name="acircumflex" unicode="&#xe2;" 
d="M276 500h78v-500h-78l-14 44q-34 -52 -104 -52q-24 0 -46 9t-42 28.5t-31.5 55t-11.5 83.5v165q0 48 11.5 83.5t31.5 55t42 28.5t46 9q69 0 103 -50zM140 277v-53q0 -75 11.5 -102.5t39.5 -27.5t39.5 27.5t10.5 102.5v53q0 74 -12 102t-38 28q-27 0 -39 -27.5t-12 -102.5
zM170 709h74l83 -161h-80l-39 81l-36 -81h-80z" />
    <glyph glyph-name="atilde" unicode="&#xe3;" 
d="M276 500h78v-500h-78l-14 44q-34 -52 -104 -52q-24 0 -46 9t-42 28.5t-31.5 55t-11.5 83.5v165q0 48 11.5 83.5t31.5 55t42 28.5t46 9q69 0 103 -50zM140 277v-53q0 -75 11.5 -102.5t39.5 -27.5t39.5 27.5t10.5 102.5v53q0 74 -12 102t-38 28q-27 0 -39 -27.5t-12 -102.5
zM314 673q0 -31 -1 -47.5t-5 -29.5q-13 -41 -54 -41q-17 0 -29 2.5t-32 17.5l-3.5 3.5t-2.5 1.5q-6 5 -11.5 9t-8.5 6v-40h-65q0 31 1.5 46t3.5 29q12 43 57 43q11 0 25 -8.5t22 -15.5v1q14 -11 23.5 -18t11.5 -6q1 0 1.5 9t0.5 38h66z" />
    <glyph glyph-name="adieresis" unicode="&#xe4;" 
d="M59 590v110h112v-110h-112zM215 590v110h112v-110h-112zM276 500h78v-500h-78l-14 44q-34 -52 -104 -52q-24 0 -46 9t-42 28.5t-31.5 55t-11.5 83.5v165q0 48 11.5 83.5t31.5 55t42 28.5t46 9q69 0 103 -50zM140 277v-53q0 -75 11.5 -102.5t39.5 -27.5t39.5 27.5
t10.5 102.5v53q0 74 -12 102t-38 28q-27 0 -39 -27.5t-12 -102.5z" />
    <glyph glyph-name="aring" unicode="&#xe5;" 
d="M304 641q0 -46 -32.5 -78.5t-78.5 -32.5t-78.5 32.5t-32.5 78.5q0 45 32.5 77.5t78.5 32.5t78.5 -32.5t32.5 -77.5zM161 641q0 -14 9 -23.5t22.5 -9.5t23 9.5t9.5 23.5q0 13 -9.5 22.5t-23 9.5t-22.5 -9.5t-9 -22.5zM276 500h78v-500h-78l-14 44q-34 -52 -104 -52
q-24 0 -46 9t-42 28.5t-31.5 55t-11.5 83.5v165q0 48 11.5 83.5t31.5 55t42 28.5t46 9q69 0 103 -50zM140 277v-53q0 -75 11.5 -102.5t39.5 -27.5t39.5 27.5t10.5 102.5v53q0 74 -12 102t-38 28q-27 0 -39 -27.5t-12 -102.5z" />
    <glyph glyph-name="ae" unicode="&#xe6;" horiz-adv-x="639" 
d="M27 168v165q0 48 11.5 83.5t31.5 55t42 28.5t46 9q69 0 103 -50l15 41h78v-25q36 34 94 34q31 0 58 -9t51.5 -28t39.5 -55t15 -84v-123h-214v-23q0 -52 12.5 -72.5t38.5 -20.5q48 0 51 72h112q-1 -48 -15.5 -83.5t-39 -54t-52 -27.5t-57.5 -9q-58 0 -94 34v-26h-78
l-14 44q-34 -52 -104 -52q-24 0 -46 9t-42 28.5t-31.5 55t-11.5 83.5zM241 224v53q0 74 -12 102t-38 28q-27 0 -39 -27.5t-12 -102.5v-53q0 -75 11.5 -102.5t39.5 -27.5t39.5 28t10.5 102zM499 293v28q-1 86 -50 86q-25 0 -38 -19t-13 -67v-28h101z" />
    <glyph glyph-name="ccedilla" unicode="&#xe7;" horiz-adv-x="377" 
d="M27 168v165q0 48 14.5 83.5t39 55t52 28.5t57.5 9t57 -8.5t51 -27.5t38 -54t15 -82v-25h-110q-1 52 -14 73.5t-37 21.5q-27 0 -38.5 -27.5t-11.5 -102.5v-53q0 -75 11.5 -102.5t39.5 -27.5q25 0 37.5 21t13.5 75h109v-25q-1 -120 -88 -158v-33q0 -81 -28.5 -115
t-105.5 -35h-15v82h15q25 1 34 16t9 49v25q-9 0 -25 2q-52 11 -86 52.5t-34 117.5z" />
    <glyph glyph-name="egrave" unicode="&#xe8;" horiz-adv-x="379" 
d="M27 168v165q0 48 14.5 83.5t39 55t52 28.5t57.5 9t57.5 -9t52 -28t39 -55t14.5 -84v-123h-213v-23q0 -52 12.5 -72.5t38.5 -20.5q48 0 50 72h113q-1 -48 -15.5 -83.5t-39 -54t-52 -27.5t-57.5 -9t-57.5 9t-52 28.5t-39 55t-14.5 83.5zM241 293v28q-1 86 -51 86
q-24 0 -37 -19t-13 -67v-28h101zM98 710h87l69 -162h-75z" />
    <glyph glyph-name="eacute" unicode="&#xe9;" horiz-adv-x="379" 
d="M27 168v165q0 48 14.5 83.5t39 55t52 28.5t57.5 9t57.5 -9t52 -28t39 -55t14.5 -84v-123h-213v-23q0 -52 12.5 -72.5t38.5 -20.5q48 0 50 72h113q-1 -48 -15.5 -83.5t-39 -54t-52 -27.5t-57.5 -9t-57.5 9t-52 28.5t-39 55t-14.5 83.5zM241 293v28q-1 86 -51 86
q-24 0 -37 -19t-13 -67v-28h101zM221 548h-75l69 162h87z" />
    <glyph glyph-name="ecircumflex" unicode="&#xea;" horiz-adv-x="379" 
d="M27 168v165q0 48 14.5 83.5t39 55t52 28.5t57.5 9t57.5 -9t52 -28t39 -55t14.5 -84v-123h-213v-23q0 -52 12.5 -72.5t38.5 -20.5q48 0 50 72h113q-1 -48 -15.5 -83.5t-39 -54t-52 -27.5t-57.5 -9t-57.5 9t-52 28.5t-39 55t-14.5 83.5zM241 293v28q-1 86 -51 86
q-24 0 -37 -19t-13 -67v-28h101zM151 709h74l83 -161h-80l-39 81l-36 -81h-80z" />
    <glyph glyph-name="edieresis" unicode="&#xeb;" horiz-adv-x="379" 
d="M56 590v110h112v-110h-112zM212 590v110h112v-110h-112zM27 168v165q0 48 14.5 83.5t39 55t52 28.5t57.5 9t57.5 -9t52 -28t39 -55t14.5 -84v-123h-213v-23q0 -52 12.5 -72.5t38.5 -20.5q48 0 50 72h113q-1 -48 -15.5 -83.5t-39 -54t-52 -27.5t-57.5 -9t-57.5 9t-52 28.5
t-39 55t-14.5 83.5zM241 293v28q-1 86 -51 86q-24 0 -37 -19t-13 -67v-28h101z" />
    <glyph glyph-name="igrave" unicode="&#xec;" horiz-adv-x="262" 
d="M106 0v500h113v-500h-113zM61 710h87l69 -162h-75z" />
    <glyph glyph-name="iacute" unicode="&#xed;" horiz-adv-x="255" 
d="M43 0v500h113v-500h-113zM120 548h-75l69 162h87z" />
    <glyph glyph-name="icircumflex" unicode="&#xee;" horiz-adv-x="297" 
d="M89 705h120l80 -153h-82l-58 62l-58 -63h-82zM95 0v500h113v-500h-113z" />
    <glyph glyph-name="idieresis" unicode="&#xef;" horiz-adv-x="325" 
d="M29 590v110h112v-110h-112zM185 590v110h112v-110h-112zM111 0v500h113v-500h-113z" />
    <glyph glyph-name="eth" unicode="&#xf0;" horiz-adv-x="465" 
d="M419 614l-72 -42q7 -16 7 -38v-366q-1 -47 -15.5 -83t-38.5 -55.5t-51.5 -28.5t-57.5 -9t-57.5 9t-52.5 28t-39.5 55t-14.5 84v165q0 48 14.5 84t39.5 55t52.5 28t57.5 9q32 0 51 -25v40q-1 46 -14 64.5t-37 18.5q-20 0 -31.5 -13.5t-16.5 -47.5h-110l1 10q2 42 17 73
t38 47.5t48.5 24.5t53.5 8q71 0 115 -44l60 35zM241 224v53q0 73 -11.5 101.5t-38.5 28.5t-39 -28t-12 -102v-53q-1 -74 11 -102t39 -28q28 0 39.5 27.5t11.5 102.5z" />
    <glyph glyph-name="ntilde" unicode="&#xf1;" horiz-adv-x="387" 
d="M264 705h82q0 -41 -7.5 -72t-28.5 -54t-54 -23q-18 0 -32.5 6t-37.5 23q-20 17 -39 15q-23 -2 -23 -44h-82q0 40 7 71.5t28.5 54.5t54.5 23q19 0 33 -6.5t36 -23.5q24 -20 44 -13q19 4 19 43zM110 500l16 -44q36 53 105 53q53 0 90.5 -41.5t37.5 -134.5v-333h-113v277
q0 75 -12 102.5t-39 27.5q-25 0 -38 -22t-13 -78v-307h-112v500h78z" />
    <glyph glyph-name="ograve" unicode="&#xf2;" horiz-adv-x="381" 
d="M27 168v165q0 48 14.5 83.5t39 55t52 28.5t57.5 9t57.5 -9t52.5 -28t39.5 -55t14.5 -84v-165q0 -48 -14.5 -84t-39.5 -55t-52.5 -28t-57.5 -9t-57.5 9t-52 28.5t-39 55t-14.5 83.5zM241 224v53q0 74 -12 102t-39 28t-38.5 -27.5t-11.5 -102.5v-53q0 -75 11.5 -102.5
t39.5 -27.5q27 0 39 28t11 102zM101 710h87l69 -162h-75z" />
    <glyph glyph-name="oacute" unicode="&#xf3;" horiz-adv-x="381" 
d="M27 168v165q0 48 14.5 83.5t39 55t52 28.5t57.5 9t57.5 -9t52.5 -28t39.5 -55t14.5 -84v-165q0 -48 -14.5 -84t-39.5 -55t-52.5 -28t-57.5 -9t-57.5 9t-52 28.5t-39 55t-14.5 83.5zM241 224v53q0 74 -12 102t-39 28t-38.5 -27.5t-11.5 -102.5v-53q0 -75 11.5 -102.5
t39.5 -27.5q27 0 39 28t11 102zM215 548h-75l69 162h87z" />
    <glyph glyph-name="ocircumflex" unicode="&#xf4;" horiz-adv-x="381" 
d="M27 168v165q0 48 14.5 83.5t39 55t52 28.5t57.5 9t57.5 -9t52.5 -28t39.5 -55t14.5 -84v-165q0 -48 -14.5 -84t-39.5 -55t-52.5 -28t-57.5 -9t-57.5 9t-52 28.5t-39 55t-14.5 83.5zM241 224v53q0 74 -12 102t-39 28t-38.5 -27.5t-11.5 -102.5v-53q0 -75 11.5 -102.5
t39.5 -27.5q27 0 39 28t11 102zM152 709h74l83 -161h-80l-39 81l-36 -81h-80z" />
    <glyph glyph-name="otilde" unicode="&#xf5;" horiz-adv-x="381" 
d="M27 168v165q0 48 14.5 83.5t39 55t52 28.5t57.5 9t57.5 -9t52.5 -28t39.5 -55t14.5 -84v-165q0 -48 -14.5 -84t-39.5 -55t-52.5 -28t-57.5 -9t-57.5 9t-52 28.5t-39 55t-14.5 83.5zM241 224v53q0 74 -12 102t-39 28t-38.5 -27.5t-11.5 -102.5v-53q0 -75 11.5 -102.5
t39.5 -27.5q27 0 39 28t11 102zM301 673q0 -31 -1 -47.5t-5 -29.5q-13 -41 -54 -41q-17 0 -29 2.5t-32 17.5l-3.5 3.5t-2.5 1.5q-6 5 -11.5 9t-8.5 6v-40h-65q0 31 1.5 46t3.5 29q12 43 57 43q11 0 25 -8.5t22 -15.5v1q14 -11 23.5 -18t11.5 -6q1 0 1.5 9t0.5 38h66z" />
    <glyph glyph-name="odieresis" unicode="&#xf6;" horiz-adv-x="381" 
d="M57 590v110h112v-110h-112zM213 590v110h112v-110h-112zM27 168v165q0 48 14.5 83.5t39 55t52 28.5t57.5 9t57.5 -9t52.5 -28t39.5 -55t14.5 -84v-165q0 -48 -14.5 -84t-39.5 -55t-52.5 -28t-57.5 -9t-57.5 9t-52 28.5t-39 55t-14.5 83.5zM241 224v53q0 74 -12 102
t-39 28t-38.5 -27.5t-11.5 -102.5v-53q0 -75 11.5 -102.5t39.5 -27.5q27 0 39 28t11 102z" />
    <glyph glyph-name="divide" unicode="&#xf7;" horiz-adv-x="567" 
d="M218 387v120h123v-120h-123zM50 330h467v-131h-467v131zM219 21v121h122v-121h-122z" />
    <glyph glyph-name="oslash" unicode="&#xf8;" horiz-adv-x="420" 
d="M352 550l-27 -78q54 -46 54 -139v-165q0 -48 -15 -84t-39.5 -55t-52 -28t-57.5 -9q-29 0 -54 8l-18 -50h-63l27 78q-55 46 -55 140v165q0 48 14.5 83.5t39 55t52 28.5t57.5 9t56 -8l17 49h64zM164 277v-53q0 -16 1 -29l72 206q-9 6 -22 6q-27 0 -39 -27.5t-12 -102.5z
M266 302l-71 -204q8 -4 21 -4q27 0 39 28t12 102v53q0 13 -1 25z" />
    <glyph glyph-name="ugrave" unicode="&#xf9;" horiz-adv-x="384" 
d="M243 500h113v-500h-78l-17 45q-36 -54 -105 -54q-53 0 -90 42t-37 134v333h112v-277q0 -74 12 -102t39 -28q25 0 38 22t13 78v307zM101 710h87l69 -162h-75z" />
    <glyph glyph-name="uacute" unicode="&#xfa;" horiz-adv-x="384" 
d="M243 500h113v-500h-78l-17 45q-36 -54 -105 -54q-53 0 -90 42t-37 134v333h112v-277q0 -74 12 -102t39 -28q25 0 38 22t13 78v307zM215 548h-75l69 162h87z" />
    <glyph glyph-name="ucircumflex" unicode="&#xfb;" horiz-adv-x="384" 
d="M132 705h121l79 -153h-82l-57 62l-58 -63h-83zM243 500h113v-500h-78l-17 45q-36 -54 -105 -54q-53 0 -90 42t-37 134v333h112v-277q0 -74 12 -102t39 -28q25 0 38 22t13 78v307z" />
    <glyph glyph-name="udieresis" unicode="&#xfc;" horiz-adv-x="384" 
d="M59 590v110h112v-110h-112zM215 590v110h111v-110h-111zM243 500h113v-500h-78l-17 45q-36 -54 -105 -54q-53 0 -90 42t-37 134v333h112v-277q0 -74 12 -102t39 -28q25 0 38 22t13 78v307z" />
    <glyph glyph-name="yacute" unicode="&#xfd;" horiz-adv-x="375" 
d="M238 501h113v-502q-1 -47 -15.5 -81.5t-39 -53t-51.5 -27.5t-57 -9q-36 0 -67.5 11.5t-58 42.5t-33.5 79h114q10 -31 44 -31q25 0 38 18t13 62v28q-30 -38 -87 -38q-53 0 -90 41.5t-37 134.5v324h112v-268q0 -75 12 -103t39 -28t39 28.5t12 103.5v268zM215 548h-75
l69 162h87z" />
    <glyph glyph-name="thorn" unicode="&#xfe;" 
d="M144 700v-229q30 38 87 38q53 0 90.5 -42t37.5 -134v-165q0 -93 -37.5 -134.5t-90.5 -41.5q-56 0 -87 37v-192h-112v863h112zM246 224v52q0 76 -11.5 103.5t-39.5 27.5t-39.5 -28t-10.5 -103v-52q0 -75 12 -103t38 -28q27 0 39 28t12 103z" />
    <glyph glyph-name="ydieresis" unicode="&#xff;" horiz-adv-x="375" 
d="M54 590v110h112v-110h-112zM210 590v110h111v-110h-111zM238 501h113v-502q-1 -47 -15.5 -81.5t-39 -53t-51.5 -27.5t-57 -9q-36 0 -67.5 11.5t-58 42.5t-33.5 79h114q10 -31 44 -31q25 0 38 18t13 62v28q-30 -38 -87 -38q-53 0 -90 41.5t-37 134.5v324h112v-268
q0 -75 12 -103t39 -28t39 28.5t12 103.5v268z" />
    <glyph glyph-name="Amacron" unicode="&#x100;" horiz-adv-x="509" 
d="M118 900h274v-101h-274v101zM169 700h171l141 -700h-134l-31 155h-122l-32 -155h-134zM300 289l-46 259l-46 -259h92z" />
    <glyph glyph-name="amacron" unicode="&#x101;" 
d="M56 700h274v-101h-274v101zM276 500h78v-500h-78l-14 44q-34 -52 -104 -52q-24 0 -46 9t-42 28.5t-31.5 55t-11.5 83.5v165q0 48 11.5 83.5t31.5 55t42 28.5t46 9q69 0 103 -50zM140 277v-53q0 -75 11.5 -102.5t39.5 -27.5t39.5 27.5t10.5 102.5v53q0 74 -12 102t-38 28
q-27 0 -39 -27.5t-12 -102.5z" />
    <glyph glyph-name="Abreve" unicode="&#x102;" horiz-adv-x="509" 
d="M169 700h171l141 -700h-134l-31 155h-122l-32 -155h-134zM300 289l-46 259l-46 -259h92zM355 879q0 -59 -25 -98t-77 -39q-27 0 -46.5 10.5t-31.5 29t-17.5 43.5t-5.5 54h65q0 -13 1 -25.5t5 -22t11 -15.5t19 -6q25 0 31.5 21.5t6.5 47.5h64z" />
    <glyph glyph-name="abreve" unicode="&#x103;" 
d="M27 168v165q0 48 11.5 83.5t31.5 55t42 28.5t46 9q69 0 103 -50l15 41h78v-500h-78l-14 44q-34 -52 -104 -52q-24 0 -46 9t-42 28.5t-31.5 55t-11.5 83.5zM241 224v53q0 74 -12 102t-38 28q-27 0 -39 -27.5t-12 -102.5v-53q0 -75 11.5 -102.5t39.5 -27.5t39.5 27.5
t10.5 102.5zM315 685q0 -59 -25 -98t-77 -39q-27 0 -46.5 10.5t-31.5 29t-17.5 43.5t-5.5 54h65q0 -13 1 -25.5t5 -22t11 -15.5t19 -6q25 0 31.5 21.5t6.5 47.5h64z" />
    <glyph glyph-name="Aogonek" unicode="&#x104;" horiz-adv-x="509" 
d="M169 700h171l141 -700q-13 -16 -18.5 -23.5t-12 -21t-4.5 -24.5q2 -23 31 -25l13 -1v-80h-31q-107 8 -106 82q0 9 1.5 17.5t5 17t6 14t8.5 13.5t8 11.5t8.5 11t6.5 8.5h-50l-31 155h-122l-32 -155h-134zM300 289l-46 259l-46 -259h92z" />
    <glyph glyph-name="aogonek" unicode="&#x105;" 
d="M27 168v165q0 48 11.5 83.5t31.5 55t42 28.5t46 9q69 0 103 -50l15 41h78v-500q-39 -47 -34 -71q4 -22 37 -24h7v-81h-7q-124 1 -130 73q-3 47 49 103l-14 44q-34 -52 -104 -52q-24 0 -46 9t-42 28.5t-31.5 55t-11.5 83.5zM241 224v53q0 74 -12 102t-38 28
q-27 0 -39 -27.5t-12 -102.5v-53q0 -75 11.5 -102.5t39.5 -27.5t39.5 27.5t10.5 102.5z" />
    <glyph glyph-name="Cacute" unicode="&#x106;" horiz-adv-x="462" 
d="M196 916h126l-94 -162h-88zM36 234v233q0 66 17.5 115t48 75.5t65 39t74.5 12.5q39 0 72.5 -12t63.5 -37.5t47.5 -73t18.5 -112.5v-22h-134v18q-4 109 -68 109q-68 0 -68 -118v-220q0 -119 68 -119q63 0 68 108v20h134v-22q-1 -65 -18.5 -113t-47 -73.5t-63.5 -37.5
t-73 -12q-40 0 -74.5 12.5t-65 39t-48 75.5t-17.5 115z" />
    <glyph glyph-name="cacute" unicode="&#x107;" horiz-adv-x="377" 
d="M154 716h126l-95 -162h-87zM27 168v165q0 48 14.5 83.5t39 55t52 28.5t57.5 9t57 -8.5t51 -27.5t38 -54t15 -82v-26h-110q-1 53 -14 74.5t-37 21.5q-27 0 -38.5 -27.5t-11.5 -102.5v-53q0 -75 11.5 -102.5t39.5 -27.5q25 0 37.5 21t13.5 75h109v-25q0 -48 -14.5 -83
t-38.5 -53.5t-51 -27.5t-57 -9t-57.5 9t-52 28.5t-39 55t-14.5 83.5z" />
    <glyph glyph-name="Cdotaccent" unicode="&#x10a;" horiz-adv-x="462" 
d="M175 900h112v-110h-112v110zM36 234v233q0 66 17.5 115t48 75.5t65 39t74.5 12.5q39 0 72.5 -12t63.5 -37.5t47.5 -73t18.5 -112.5v-22h-134v18q-4 109 -68 109q-68 0 -68 -118v-220q0 -119 68 -119q63 0 68 108v20h134v-22q-1 -65 -18.5 -113t-47 -73.5t-63.5 -37.5
t-73 -12q-40 0 -74.5 12.5t-65 39t-48 75.5t-17.5 115z" />
    <glyph glyph-name="cdotaccent" unicode="&#x10b;" horiz-adv-x="377" 
d="M133 700h112v-110h-112v110zM27 168v165q0 48 14.5 83.5t39 55t52 28.5t57.5 9t57 -8.5t51 -27.5t38 -54t15 -82v-26h-110q-1 53 -14 74.5t-37 21.5q-27 0 -38.5 -27.5t-11.5 -102.5v-53q0 -75 11.5 -102.5t39.5 -27.5q25 0 37.5 21t13.5 75h109v-25q0 -48 -14.5 -83
t-38.5 -53.5t-51 -27.5t-57 -9t-57.5 9t-52 28.5t-39 55t-14.5 83.5z" />
    <glyph glyph-name="Ccaron" unicode="&#x10c;" horiz-adv-x="462" 
d="M289 905h82l-80 -153h-120l-80 153h82l58 -63zM36 234v233q0 66 17.5 115t48 75.5t65 39t74.5 12.5q39 0 72.5 -12t63.5 -37.5t47.5 -73t18.5 -112.5v-22h-134v18q-4 109 -68 109q-68 0 -68 -118v-220q0 -119 68 -119q63 0 68 108v20h134v-22q-1 -65 -18.5 -113
t-47 -73.5t-63.5 -37.5t-73 -12q-40 0 -74.5 12.5t-65 39t-48 75.5t-17.5 115z" />
    <glyph glyph-name="ccaron" unicode="&#x10d;" horiz-adv-x="377" 
d="M246 705h83l-80 -153h-121l-79 153h82l58 -63zM27 168v165q0 48 14.5 83.5t39 55t52 28.5t57.5 9t57 -8.5t51 -27.5t38 -54t15 -82v-26h-110q-1 53 -14 74.5t-37 21.5q-27 0 -38.5 -27.5t-11.5 -102.5v-53q0 -75 11.5 -102.5t39.5 -27.5q25 0 37.5 21t13.5 75h109v-25
q0 -48 -14.5 -83t-38.5 -53.5t-51 -27.5t-57 -9t-57.5 9t-52 28.5t-39 55t-14.5 83.5z" />
    <glyph glyph-name="Dcaron" unicode="&#x10e;" horiz-adv-x="468" 
d="M295 751h-121l-80 154h83l57 -63l58 63h82zM37 700h193q40 0 74 -11t64.5 -37t47.5 -75.5t17 -118.5v-216q0 -69 -17 -118.5t-47.5 -75.5t-64.5 -37t-74 -11h-193v700zM300 249v203q0 118 -70 118h-59v-440h59q70 0 70 119z" />
    <glyph glyph-name="dcaron" unicode="&#x10f;" horiz-adv-x="542" 
d="M242 472v228h112v-700h-78l-15 45q-35 -53 -106 -53q-54 0 -91 41.5t-37 134.5v165q0 93 37 134.5t91 41.5q56 0 87 -37zM391 700h122v-120l-44 -123h-47l21 123h-52v120zM140 277v-53q0 -75 11.5 -102.5t39.5 -27.5t39.5 27.5t10.5 102.5v53q0 74 -12 102t-38 28
q-27 0 -39 -27.5t-12 -102.5z" />
    <glyph glyph-name="Dcroat" unicode="&#x110;" horiz-adv-x="468" 
d="M41 700h193q40 0 74 -11t64.5 -37t47.5 -75.5t17 -118.5v-216q0 -69 -17 -118.5t-47.5 -75.5t-64.5 -37t-74 -11h-193v291h-38v101h38v308zM304 249v203q0 118 -70 118h-59v-178h59v-101h-59v-161h59q70 0 70 119z" />
    <glyph glyph-name="dcroat" unicode="&#x111;" horiz-adv-x="417" 
d="M414 659v-100h-60v-559h-78l-15 45q-35 -53 -106 -53q-54 0 -91 41.5t-37 134.5v165q0 93 37 134.5t91 41.5q56 0 87 -37v87h-67v100h67v41h112v-41h60zM140 277v-53q0 -75 11.5 -102.5t39.5 -27.5t39.5 27.5t10.5 102.5v53q0 74 -12 102t-38 28q-27 0 -39 -27.5
t-12 -102.5z" />
    <glyph glyph-name="Emacron" unicode="&#x112;" horiz-adv-x="359" 
d="M43 900h274v-101h-274v101zM37 700h303v-130h-169v-151h159v-130h-159v-159h169v-130h-303v700z" />
    <glyph glyph-name="emacron" unicode="&#x113;" horiz-adv-x="379" 
d="M53 700h274v-101h-274v101zM27 168v165q0 48 14.5 83.5t39 55t52 28.5t57.5 9t57.5 -9t52 -28t39 -55t14.5 -84v-123h-213v-23q0 -52 12.5 -72.5t38.5 -20.5q48 0 50 72h113q-1 -48 -15.5 -83.5t-39 -54t-52 -27.5t-57.5 -9t-57.5 9t-52 28.5t-39 55t-14.5 83.5zM241 293
v28q-1 86 -51 86q-24 0 -37 -19t-13 -67v-28h101z" />
    <glyph glyph-name="Edotaccent" unicode="&#x116;" horiz-adv-x="359" 
d="M124 900h112v-110h-112v110zM37 700h303v-130h-169v-151h159v-130h-159v-159h169v-130h-303v700z" />
    <glyph glyph-name="edotaccent" unicode="&#x117;" horiz-adv-x="379" 
d="M134 590v110h112v-110h-112zM27 168v165q0 48 14.5 83.5t39 55t52 28.5t57.5 9t57.5 -9t52 -28t39 -55t14.5 -84v-123h-213v-23q0 -52 12.5 -72.5t38.5 -20.5q48 0 50 72h113q-1 -48 -15.5 -83.5t-39 -54t-52 -27.5t-57.5 -9t-57.5 9t-52 28.5t-39 55t-14.5 83.5z
M241 293v28q-1 86 -51 86q-24 0 -37 -19t-13 -67v-28h101z" />
    <glyph glyph-name="Eogonek" unicode="&#x118;" horiz-adv-x="359" 
d="M37 700h303v-130h-169v-151h159v-130h-159v-159h169v-130h-36q-12 -15 -18 -23t-11.5 -21t-4.5 -24q2 -23 34 -26h11v-81h-13q-115 2 -124 71q-5 43 42 104h-183v700z" />
    <glyph glyph-name="eogonek" unicode="&#x119;" horiz-adv-x="379" 
d="M27 168v165q0 48 14.5 83.5t39 55t52 28.5t57.5 9t57.5 -9t52 -28t39.5 -55t15 -84v-123h-214v-23q0 -52 12.5 -72.5t38.5 -20.5q48 0 50 72h113q-1 -103 -68 -146l-5 -3q-33 -37 -30 -59q1 -23 33 -25h11v-82h-13q-115 2 -124 71q-3 31 25 71q-10 0 -21 2
q-58 8 -96.5 49.5t-38.5 123.5zM241 294v27q-1 86 -51 86q-24 0 -37 -19t-14 -67v-27h102z" />
    <glyph glyph-name="Ecaron" unicode="&#x11a;" horiz-adv-x="359" 
d="M238 905h82l-80 -153h-120l-80 153h82l58 -63zM37 700h303v-130h-169v-151h159v-130h-159v-159h169v-130h-303v700z" />
    <glyph glyph-name="ecaron" unicode="&#x11b;" horiz-adv-x="379" 
d="M248 705h82l-80 -153h-120l-80 153h82l58 -63zM27 168v165q0 48 14.5 83.5t39 55t52 28.5t57.5 9t57.5 -9t52 -28t39 -55t14.5 -84v-123h-213v-23q0 -52 12.5 -72.5t38.5 -20.5q48 0 50 72h113q-1 -48 -15.5 -83.5t-39 -54t-52 -27.5t-57.5 -9t-57.5 9t-52 28.5t-39 55
t-14.5 83.5zM241 293v28q-1 86 -51 86q-24 0 -37 -19t-13 -67v-28h101z" />
    <glyph glyph-name="Gbreve" unicode="&#x11e;" horiz-adv-x="473" 
d="M279 900h95q-3 -54 -42.5 -91.5t-94.5 -37.5t-94.5 37.5t-42.5 91.5h95q3 -15 14.5 -24.5t27 -9.5t27.5 9.5t15 24.5zM36 234v233q0 67 17 115.5t46.5 75t64 39t74.5 12.5q39 0 72.5 -12t63 -38t46.5 -74.5t17 -114.5v-11h-130v7q-2 113 -69 113q-68 0 -68 -118v-220
q0 -119 68 -119q69 0 69 114v33h-68v130h199v-165q0 -67 -17 -116t-46.5 -75.5t-63.5 -38.5t-73 -12q-40 0 -74 12.5t-64 39t-47 75t-17 115.5z" />
    <glyph glyph-name="gbreve" unicode="&#x11f;" 
d="M235 700h95q-3 -54 -42.5 -91.5t-94.5 -37.5t-94.5 37.5t-42.5 91.5h95q3 -15 14.5 -24.5t27 -9.5t27.5 9.5t15 24.5zM27 176v157q0 92 37 134t91 42q71 0 106 -52l15 44h79v-498q0 -48 -15 -83.5t-39 -54.5t-51.5 -28t-57.5 -9q-36 0 -67.5 11.5t-58 42.5t-34.5 79h114
q11 -31 45 -31q25 0 38 18t13 62v28q-30 -38 -87 -38q-54 0 -91 41.5t-37 134.5zM241 227v50q1 74 -10.5 102t-39.5 28q-27 0 -39 -27.5t-12 -102.5v-50q0 -75 11.5 -103t39.5 -28q26 0 38 28t12 103z" />
    <glyph glyph-name="Gdotaccent" unicode="&#x120;" horiz-adv-x="473" 
d="M181 790v110h112v-110h-112zM36 234v233q0 67 17 115.5t46.5 75t64 39t74.5 12.5q39 0 72.5 -12t63 -38t46.5 -74.5t17 -114.5v-11h-130v7q-2 113 -69 113q-68 0 -68 -118v-220q0 -119 68 -119q69 0 69 114v33h-68v130h199v-165q0 -67 -17 -116t-46.5 -75.5t-63.5 -38.5
t-73 -12q-40 0 -74 12.5t-64 39t-47 75t-17 115.5z" />
    <glyph glyph-name="gdotaccent" unicode="&#x121;" 
d="M137 700h112v-110h-112v110zM27 176v157q0 92 37 134t91 42q71 0 106 -52l15 44h79v-498q0 -48 -15 -83.5t-39 -54.5t-51.5 -28t-57.5 -9q-36 0 -67.5 11.5t-58 42.5t-34.5 79h114q11 -31 45 -31q24 0 37 17t14 60v31q-30 -38 -87 -38q-54 0 -91 41.5t-37 134.5zM241 227
v50q1 74 -10.5 102t-39.5 28q-27 0 -39 -27.5t-12 -102.5v-50q0 -75 11.5 -103t39.5 -28q26 0 38 28t12 103z" />
    <glyph glyph-name="Gcommaaccent" unicode="&#x122;" horiz-adv-x="473" 
d="M36 234v233q0 67 17 115.5t47 75t64 39t74 12.5q39 0 72.5 -12t63 -38t46.5 -74.5t17 -114.5v-11h-130v7q-2 113 -69 113q-68 0 -68 -118v-220q0 -119 68 -119q69 0 69 114v33h-68v130h199v-165q0 -67 -17 -116t-46.5 -75.5t-63.5 -38.5t-73 -12q-86 0 -144 57t-58 185z
M176 -44h122v-121l-44 -122h-47l21 122h-52v121z" />
    <glyph glyph-name="gcommaaccent" unicode="&#x123;" horiz-adv-x="384" 
d="M176 810h43l-20 -112h48v-110h-112v110zM27 176v157q0 92 37 134t91 42q71 0 106 -52l15 44h79v-498q0 -48 -15 -83.5t-39 -54.5t-51.5 -28t-57.5 -9q-36 0 -67.5 11.5t-58 42.5t-34.5 79h114q11 -31 45 -31q25 0 38 17.5t13 60.5v30q-30 -38 -87 -38q-54 0 -91 41.5
t-37 134.5zM241 227v50q1 74 -10.5 102t-39.5 28q-27 0 -39 -27.5t-12 -102.5v-50q0 -75 11.5 -103t39.5 -28q26 0 38 28t12 103z" />
    <glyph glyph-name="Hbar" unicode="&#x126;" horiz-adv-x="570" 
d="M547 613v-118h-68v-495h-133v289h-125v-289h-134v494h-68v119h68v87h134v-87h125v87h133v-87h68zM346 419v75h-125v-75h125z" />
    <glyph glyph-name="hbar" unicode="&#x127;" horiz-adv-x="437" 
d="M194 550v-80q31 39 87 39q53 0 90.5 -41.5t37.5 -134.5v-333h-113v277q0 75 -12 102.5t-39 27.5q-25 0 -38 -22t-13 -78v-307h-112v549h-79v102h79v49h112v-48h79v-102h-79z" />
    <glyph glyph-name="Imacron" unicode="&#x12a;" horiz-adv-x="213" 
d="M-30 900h275v-101h-275v101zM38 0v700h139v-700h-139z" />
    <glyph glyph-name="imacron" unicode="&#x12b;" horiz-adv-x="282" 
d="M4 700h275v-101h-275v101zM87 0v500h113v-500h-113z" />
    <glyph glyph-name="Iogonek" unicode="&#x12e;" horiz-adv-x="213" 
d="M37 700h139v-700q-38 -45 -36 -69q3 -23 34 -26h11v-81h-12q-120 2 -125 75q-2 20 7.5 42.5t16 31.5t20.5 27h-55v700z" />
    <glyph glyph-name="iogonek" unicode="&#x12f;" horiz-adv-x="207" 
d="M43 590v110h112v-110h-112zM155 500v-500q-1 -1 -5.5 -7t-6 -7.5t-5.5 -6.5t-5.5 -7.5t-4.5 -7t-4 -7.5t-2.5 -7t-2 -8t-0.5 -8q1 -26 36 -28h9v-82h-13q-121 2 -125 78q0 7 1 14t3 14t4 12.5t6 12t6 10.5t7 10.5t6.5 9t6.5 8.5t6 7h-29v500h112z" />
    <glyph glyph-name="Idotaccent" unicode="&#x130;" horiz-adv-x="213" 
d="M51 790v110h111v-110h-111zM37 0v700h139v-700h-139z" />
    <glyph glyph-name="dotlessi" unicode="&#x131;" horiz-adv-x="198" 
d="M43 0v500h113v-500h-113z" />
    <glyph glyph-name="IJ" unicode="&#x132;" horiz-adv-x="532" 
d="M37 700h139v-700h-139v700zM362 700h134v-466q0 -66 -17 -114.5t-46.5 -75t-62.5 -39t-71 -13.5h-58v130h33q88 2 88 119v459z" />
    <glyph glyph-name="ij" unicode="&#x133;" horiz-adv-x="441" 
d="M33 678h122v-111h-122v111zM288 678h122v-111h-122v111zM38 500h113v-500h-113v500zM293 500h113v-496q0 -97 -38.5 -136.5t-102.5 -40.5h-46v101h13q37 1 49 22.5t12 83.5v466z" />
    <glyph glyph-name="Kcommaaccent" unicode="&#x136;" horiz-adv-x="500" 
d="M297 355l176 -355h-155l-142 290v-290h-139v700h139v-275l129 276h151zM189 -165v121h123v-121l-45 -122h-47l21 122h-52z" />
    <glyph glyph-name="kcommaaccent" unicode="&#x137;" horiz-adv-x="379" 
d="M245 257l111 -257h-117l-95 197v-197h-112v700h112v-382l89 182h116zM129 -165v121h122v-121l-44 -122h-47l21 122h-52z" />
    <glyph glyph-name="Lacute" unicode="&#x139;" horiz-adv-x="359" 
d="M145 916h126l-94 -162h-88zM37 700h134v-570h160v-130h-294v700z" />
    <glyph glyph-name="lacute" unicode="&#x13a;" horiz-adv-x="230" 
d="M85 912h126l-94 -161h-88zM33 0v700h113v-700h-113z" />
    <glyph glyph-name="Lcommaaccent" unicode="&#x13b;" horiz-adv-x="359" 
d="M171 130h160v-130h-294v700h134v-570zM119 -165v121h122v-121l-44 -122h-47l21 122h-52z" />
    <glyph glyph-name="lcommaaccent" unicode="&#x13c;" horiz-adv-x="174" 
d="M146 700v-700h-113v700h113zM26 -44h123v-121l-44 -122h-48l21 122h-52v121z" />
    <glyph glyph-name="Lcaron" unicode="&#x13d;" horiz-adv-x="455" 
d="M171 130h160v-130h-294v700h134v-570zM312 457l21 123h-52v120h122v-120l-44 -123h-47z" />
    <glyph glyph-name="lcaron" unicode="&#x13e;" horiz-adv-x="323" 
d="M33 0v700h113v-700h-113zM186 700h123v-120l-45 -123h-47l21 123h-52v120z" />
    <glyph glyph-name="Ldot" unicode="&#x13f;" horiz-adv-x="438" 
d="M171 130h160v-130h-294v700h134v-570zM276 306v104h106v-104h-106z" />
    <glyph glyph-name="ldot" unicode="&#x140;" horiz-adv-x="340" 
d="M33 0v700h113v-700h-113zM196 298v120h122v-120h-122z" />
    <glyph glyph-name="Lslash" unicode="&#x141;" horiz-adv-x="433" 
d="M224 130h181v-130h-315v302l-78 -33v132l78 33v266h134v-234l79 34v-131l-79 -34v-205z" />
    <glyph glyph-name="lslash" unicode="&#x142;" horiz-adv-x="328" 
d="M310 500v-131l-89 -36v-333h-113v305l-88 -35v131l88 35v264h113v-236z" />
    <glyph glyph-name="Nacute" unicode="&#x143;" horiz-adv-x="499" 
d="M215 916h126l-94 -162h-88zM335 700h129v-700h-131l-168 392v-392h-130v700h132l168 -392v392z" />
    <glyph glyph-name="nacute" unicode="&#x144;" horiz-adv-x="387" 
d="M159 716h126l-94 -162h-88zM110 500l16 -44q36 53 105 53q53 0 90.5 -41.5t37.5 -134.5v-333h-113v277q0 75 -12 102.5t-39 27.5q-25 0 -38 -22t-13 -78v-307h-112v500h78z" />
    <glyph glyph-name="Ncommaaccent" unicode="&#x145;" horiz-adv-x="499" 
d="M335 700h129v-700h-131l-168 392v-392h-130v700h132l168 -392v392zM189 -165v121h122v-121l-44 -122h-47l21 122h-52z" />
    <glyph glyph-name="ncommaaccent" unicode="&#x146;" horiz-adv-x="387" 
d="M110 500l16 -44q36 53 105 53q53 0 90.5 -41.5t37.5 -134.5v-333h-113v277q0 75 -12 102.5t-39 27.5q-25 0 -38 -22t-13 -78v-307h-112v500h78zM133 -165v121h122v-121l-44 -122h-47l21 122h-52z" />
    <glyph glyph-name="Ncaron" unicode="&#x147;" horiz-adv-x="499" 
d="M308 905h82l-80 -153h-120l-80 153h82l58 -63zM335 700h129v-700h-131l-168 392v-392h-130v700h132l168 -392v392z" />
    <glyph glyph-name="ncaron" unicode="&#x148;" horiz-adv-x="387" 
d="M252 705h82l-80 -153h-120l-80 153h82l58 -63zM110 500l16 -44q36 53 105 53q53 0 90.5 -41.5t37.5 -134.5v-333h-113v277q0 75 -12 102.5t-39 27.5q-25 0 -38 -22t-13 -78v-307h-112v500h78z" />
    <glyph glyph-name="Eng" unicode="&#x14a;" horiz-adv-x="600" 
d="M405 700h134v-667q0 -111 -45 -158t-123 -47h-49v127h24q30 0 42.5 11.5t14.5 45.5l-160 407v-419h-134v700h132l164 -419v419z" />
    <glyph glyph-name="eng" unicode="&#x14b;" horiz-adv-x="396" 
d="M113 500l17 -44q36 53 105 53q53 0 90 -41.5t37 -134.5v-329q0 -98 -38 -137.5t-104 -39.5h-45v101h13q35 1 48 18.5t13 70.5v280q1 62 -11.5 86t-38.5 24t-38.5 -22t-13.5 -78v-307h-112v500h78z" />
    <glyph glyph-name="Omacron" unicode="&#x14c;" horiz-adv-x="478" 
d="M102 900h275v-101h-275v101zM33 234v233q0 66 17.5 115t48 75.5t65.5 39t75 12.5q39 0 73.5 -12t65.5 -38.5t49 -75.5t18 -116v-233q0 -67 -18 -116t-49 -75.5t-65.5 -38.5t-73.5 -12q-40 0 -75 12.5t-65.5 39t-48 75.5t-17.5 115zM308 241v220q0 118 -69 118t-69 -118
v-220q0 -119 69 -119t69 119z" />
    <glyph glyph-name="omacron" unicode="&#x14d;" horiz-adv-x="381" 
d="M54 700h275v-101h-275v101zM27 168v165q0 48 14.5 83.5t39 55t52 28.5t57.5 9t57.5 -9t52.5 -28t39.5 -55t14.5 -84v-165q0 -48 -14.5 -84t-39.5 -55t-52.5 -28t-57.5 -9t-57.5 9t-52 28.5t-39 55t-14.5 83.5zM241 224v53q0 74 -12 102t-39 28t-38.5 -27.5t-11.5 -102.5
v-53q0 -75 11.5 -102.5t39.5 -27.5q27 0 39 28t11 102z" />
    <glyph glyph-name="Ohungarumlaut" unicode="&#x150;" horiz-adv-x="478" 
d="M135 916h116l-94 -162h-78zM284 916h116l-94 -162h-78zM33 234v233q0 66 17.5 115t48 75.5t65.5 39t75 12.5q39 0 73.5 -12t65.5 -38.5t49 -75.5t18 -116v-233q0 -67 -18 -116t-49 -75.5t-65.5 -38.5t-73.5 -12q-40 0 -75 12.5t-65.5 39t-48 75.5t-17.5 115zM308 241v220
q0 118 -69 118t-69 -118v-220q0 -119 69 -119t69 119z" />
    <glyph glyph-name="ohungarumlaut" unicode="&#x151;" horiz-adv-x="418" 
d="M113 716h116l-94 -162h-78zM262 716h116l-94 -162h-78zM27 168v165q0 48 14.5 83.5t39 55t52 28.5t57.5 9t57.5 -9t52.5 -28t39.5 -55t14.5 -84v-165q0 -48 -14.5 -84t-39.5 -55t-52.5 -28t-57.5 -9t-57.5 9t-52 28.5t-39 55t-14.5 83.5zM241 224v53q0 74 -12 102t-39 28
t-38.5 -27.5t-11.5 -102.5v-53q0 -75 11.5 -102.5t39.5 -27.5q27 0 39 28t11 102z" />
    <glyph glyph-name="OE" unicode="&#x152;" horiz-adv-x="683" 
d="M27 234v233q0 66 18 115t48 75.5t65 39t75 12.5q72 0 111 -45v36h303v-130h-169v-151h159v-130h-159v-159h169v-130h-303v37q-39 -45 -111 -45q-40 0 -75 12.5t-65 39t-48 75.5t-18 115zM302 241v220q0 118 -69 118q-68 0 -68 -118v-220q0 -119 68 -119q69 0 69 119z" />
    <glyph glyph-name="oe" unicode="&#x153;" horiz-adv-x="647" 
d="M47 168v165q0 48 11.5 83.5t31 55t41.5 28.5t46 9q83 0 116 -67q41 67 131 67q30 0 57.5 -9t52 -28t39 -55t14.5 -84v-123h-213v-25q0 -51 12.5 -71t38.5 -20q48 0 50 72h113q-1 -48 -15.5 -83.5t-39 -54t-52 -27.5t-57.5 -9q-89 0 -131 67q-33 -67 -116 -67q-24 0 -46 9
t-41.5 28.5t-31 55t-11.5 83.5zM261 224v53q0 74 -12.5 102t-38.5 28q-28 0 -39.5 -27.5t-11.5 -102.5v-53q1 -75 12 -102.5t39 -27.5t39.5 28t11.5 102zM474 312v29q-2 66 -50 66q-47 0 -50 -66v-29h100z" />
    <glyph glyph-name="Racute" unicode="&#x154;" horiz-adv-x="468" 
d="M200 916h125l-94 -162h-87zM37 700h164q43 0 81 -9.5t71.5 -30.5t53.5 -60.5t20 -93.5v-43q0 -100 -80 -146l94 -317h-142l-79 248l-49 8v-256h-134v700zM296 481v7q0 44 -21 63.5t-53 19.5h-51v-172h51q31 0 52.5 19.5t21.5 62.5z" />
    <glyph glyph-name="racute" unicode="&#x155;" horiz-adv-x="278" 
d="M104 716h126l-94 -162h-88zM110 500l20 -58q47 67 125 67v-101q-54 0 -82 -30.5t-29 -100.5v-277h-112v500h78z" />
    <glyph glyph-name="Rcommaaccent" unicode="&#x156;" horiz-adv-x="468" 
d="M37 700h164q43 0 81 -9.5t71.5 -30.5t53.5 -60.5t20 -93.5v-43q0 -100 -80 -146l94 -317h-142l-79 248l-49 8v-256h-134v700zM296 481v7q0 44 -21 63.5t-53 19.5h-51v-172h51q31 0 52.5 19.5t21.5 62.5zM174 -44h122v-121l-44 -122h-48l21 122h-51v121z" />
    <glyph glyph-name="rcommaaccent" unicode="&#x157;" horiz-adv-x="278" 
d="M110 500l20 -58q47 67 125 67v-101q-54 0 -82 -30.5t-29 -100.5v-277h-112v500h78zM81 -165v121h122v-121l-44 -122h-47l21 122h-52z" />
    <glyph glyph-name="Rcaron" unicode="&#x158;" horiz-adv-x="468" 
d="M292 905h83l-80 -153h-121l-80 153h83l58 -63zM37 700h164q43 0 81 -9.5t71.5 -30.5t53.5 -60.5t20 -93.5v-43q0 -100 -80 -146l93 -317h-141l-79 249l-49 7v-256h-134v700zM296 481v7q0 44 -21 63.5t-53 19.5h-51v-172h51q31 0 52.5 19.5t21.5 62.5z" />
    <glyph glyph-name="rcaron" unicode="&#x159;" horiz-adv-x="278" 
d="M198 705h82l-79 -153h-121l-80 153h83l57 -63zM111 500l20 -58q47 67 125 67v-101q-54 0 -82 -30.5t-29 -100.5v-277h-112v500h78z" />
    <glyph glyph-name="Sacute" unicode="&#x15a;" horiz-adv-x="463" 
d="M196 916h126l-94 -162h-88zM24 220h130q0 -49 21 -73.5t55 -24.5q38 0 56.5 22t18.5 60q0 44 -23.5 62t-83.5 30q-161 31 -161 193q0 60 17 104.5t46 68.5t62.5 35.5t72.5 11.5q38 0 70.5 -11.5t61.5 -36.5t45.5 -71.5t16.5 -110.5h-129q0 48 -18 74t-47 26
q-30 0 -47 -22t-17 -59q1 -18 7 -31t13 -20t22.5 -13t24 -8t26.5 -5q93 -17 134 -72t41 -131q0 -62 -17 -107.5t-47 -70.5t-66 -36.5t-79 -11.5q-40 0 -75 11.5t-65 37t-47.5 71.5t-18.5 108z" />
    <glyph glyph-name="sacute" unicode="&#x15b;" horiz-adv-x="365" 
d="M148 716h126l-94 -162h-88zM133 158v-13q0 -26 14.5 -38.5t35.5 -12.5q50 0 50 48q0 36 -19 52t-61 24q-53 8 -89.5 43.5t-36.5 96.5q0 76 43 113.5t112 37.5q66 0 111 -39.5t46 -109.5v-9h-112v7q-1 25 -13.5 37t-30.5 12q-44 0 -44 -42q1 -41 52 -53q86 -16 120 -58.5
t34 -104.5q0 -79 -44.5 -118t-117.5 -39q-65 0 -113.5 39.5t-49.5 110.5v16h113z" />
    <glyph glyph-name="Scedilla" unicode="&#x15e;" horiz-adv-x="463" 
d="M24 220h130q0 -49 21 -73.5t55 -24.5q38 0 56.5 22t18.5 60q0 44 -23.5 62t-83.5 30q-161 31 -161 193q0 60 17 104.5t46 68.5t62.5 35.5t72.5 11.5q38 0 70.5 -11.5t61.5 -36.5t45.5 -71.5t16.5 -110.5h-129q0 49 -18 74.5t-47 25.5q-30 0 -47 -22t-17 -59
q0 -18 6.5 -31t13.5 -20t22.5 -13t23.5 -8t27 -5q93 -17 134 -72t41 -131q0 -175 -133 -215v-34q-1 -77 -29.5 -110t-102.5 -35h-17v82h16q23 2 32.5 16t9.5 46v26q-16 1 -23 2q-72 10 -119.5 64t-48.5 160z" />
    <glyph glyph-name="scedilla" unicode="&#x15f;" horiz-adv-x="365" 
d="M133 158v-14q1 -25 15 -37.5t35 -12.5q50 0 50 48q0 36 -19 52t-61 24q-53 8 -89.5 43.5t-36.5 96.5q0 76 43 113.5t112 37.5q66 0 111 -39.5t46 -108.5v-10h-112v8q-1 25 -14 36.5t-30 11.5q-44 0 -44 -42q1 -41 52 -53q86 -16 120 -58.5t34 -104.5q0 -110 -88 -144v-33
q-1 -80 -29 -113t-104 -35h-16v82h14q25 1 34.5 15.5t9.5 46.5v28q-10 0 -25 2q-51 12 -85.5 48.5t-35.5 95.5v16h113z" />
    <glyph glyph-name="Scaron" unicode="&#x160;" horiz-adv-x="463" 
d="M289 905h82l-79 -153h-121l-80 153h83l58 -63zM24 220h130q0 -49 21 -73.5t55 -24.5q38 0 56.5 22t18.5 60q0 44 -23.5 62t-83.5 30q-161 31 -161 193q0 60 17 104.5t46 68.5t62.5 35.5t72.5 11.5q38 0 70.5 -11.5t61.5 -36.5t45.5 -71.5t16.5 -110.5h-129q0 48 -18 74
t-47 26q-30 0 -47 -22t-17 -59q0 -18 6.5 -31t13.5 -20t22.5 -13t23.5 -8t27 -5q93 -17 134 -72t41 -131q0 -62 -17 -107.5t-47 -70.5t-66 -36.5t-79 -11.5q-40 0 -75 11.5t-65 37t-47.5 71.5t-18.5 108z" />
    <glyph glyph-name="scaron" unicode="&#x161;" horiz-adv-x="365" 
d="M241 705h82l-80 -153h-120l-80 153h82l58 -63zM133 158v-13q0 -26 14.5 -38.5t35.5 -12.5q50 0 50 48q0 36 -19 52t-61 24q-53 8 -89.5 43.5t-36.5 96.5q0 76 43 113.5t112 37.5q66 0 111 -39.5t46 -109.5v-9h-112v7q-1 25 -13.5 37t-30.5 12q-44 0 -44 -42q1 -41 52 -53
q86 -16 120 -58.5t34 -104.5q0 -79 -44.5 -118t-117.5 -39q-65 0 -113.5 39.5t-49.5 110.5v16h113z" />
    <glyph glyph-name="Tcedilla" unicode="&#x162;" horiz-adv-x="422" 
d="M28 700h366v-130h-116v-590q0 -84 -28 -119.5t-106 -36.5h-15v81h13q26 2 35 17t10 51v27h-43v570h-116v130z" />
    <glyph glyph-name="tcedilla" unicode="&#x163;" horiz-adv-x="293" 
d="M81 653h112v-153h75v-101h-75v-199q0 -65 12 -86t49 -22h14v-101h-8q-13 0 -33 1v-25q-4 -65 -33 -93.5t-99 -29.5h-16v81h15q25 2 34 17.5t9 49.5v23q-57 39 -56 155v229h-55v101h55v153z" />
    <glyph glyph-name="Tcaron" unicode="&#x164;" horiz-adv-x="422" 
d="M269 905h82l-80 -153h-120l-80 153h82l58 -63zM394 700v-130h-116v-570h-134v570h-116v130h366z" />
    <glyph glyph-name="tcaron" unicode="&#x165;" horiz-adv-x="410" 
d="M258 712h111v-110l-40 -112h-43l19 112h-47v110zM81 653h112v-153h75v-101h-75v-199q0 -64 12 -85.5t48 -22.5h15v-101h-46q-65 0 -103 39.5t-38 139.5v229h-55v101h55v153z" />
    <glyph glyph-name="Tbar" unicode="&#x166;" horiz-adv-x="422" 
d="M28 700h366v-130h-116v-147h72v-100h-72v-323h-134v323h-70v100h70v147h-116v130z" />
    <glyph glyph-name="tbar" unicode="&#x167;" horiz-adv-x="293" 
d="M268 399h-75v-69h75v-100h-75v-50q1 -52 13.5 -70t46.5 -18h15v-101h-46q-65 0 -103 39.5t-38 139.5v60h-55v100h55v69h-55v101h55v153h112v-153h75v-101z" />
    <glyph glyph-name="Umacron" unicode="&#x16a;" horiz-adv-x="476" 
d="M101 900h275v-101h-275v101zM171 234v466h-134v-473q0 -66 17 -114t47 -73t63.5 -36.5t73.5 -11.5t74 11t64 36.5t47.5 73t17.5 114.5v473h-134v-466q0 -112 -69 -112q-33 0 -50 26t-17 86z" />
    <glyph glyph-name="umacron" unicode="&#x16b;" horiz-adv-x="384" 
d="M55 700h275v-101h-275v101zM243 500h113v-500h-79l-16 45q-36 -54 -105 -54q-53 0 -90 42t-37 134v333h112v-277q0 -74 12 -102t39 -28q25 0 38 22t13 78v307z" />
    <glyph glyph-name="Uring" unicode="&#x16e;" horiz-adv-x="476" 
d="M349 841q0 -46 -32.5 -78.5t-78.5 -32.5t-78.5 32.5t-32.5 78.5q0 45 32.5 77.5t78.5 32.5t78.5 -32.5t32.5 -77.5zM206 841q0 -14 9.5 -23.5t23 -9.5t22.5 9.5t9 23.5q0 13 -9.5 22.5t-22.5 9.5t-22.5 -9.5t-9.5 -22.5zM171 234v466h-134v-473q0 -66 17 -114t47 -73
t63.5 -36.5t73.5 -11.5t74 11t64 36.5t47.5 73t17.5 114.5v473h-134v-466q0 -112 -69 -112q-33 0 -50 26t-17 86z" />
    <glyph glyph-name="uring" unicode="&#x16f;" horiz-adv-x="384" 
d="M303 641q0 -46 -32.5 -78.5t-78.5 -32.5t-78 32.5t-32 78.5q0 45 32 77.5t78 32.5t78.5 -32.5t32.5 -77.5zM160 641q0 -14 9.5 -23.5t23 -9.5t23 9.5t9.5 23.5q0 13 -9.5 22.5t-23 9.5t-23 -9.5t-9.5 -22.5zM243 500h113v-500h-78l-17 45q-36 -54 -105 -54q-53 0 -90 42
t-37 134v333h112v-277q0 -74 12 -102t39 -28q25 0 38 22t13 78v307z" />
    <glyph glyph-name="Uhungarumlaut" unicode="&#x170;" horiz-adv-x="476" 
d="M134 916h116l-94 -162h-78zM283 916h116l-94 -162h-78zM171 234v466h-134v-473q0 -66 17 -114t47 -73t63.5 -36.5t73.5 -11.5t74 11t64 36.5t47.5 73t17.5 114.5v473h-134v-466q0 -112 -69 -112q-33 0 -50 26t-17 86z" />
    <glyph glyph-name="uhungarumlaut" unicode="&#x171;" horiz-adv-x="384" 
d="M247 716h116l-94 -162h-78zM98 716h116l-94 -162h-78zM243 500h113v-500h-78l-17 45q-36 -54 -105 -54q-53 0 -90 42t-37 134v333h112v-277q0 -74 12 -102t39 -28q25 0 38 22t13 78v307z" />
    <glyph glyph-name="Uogonek" unicode="&#x172;" horiz-adv-x="476" 
d="M307 700h134v-473q0 -126 -69 -182l-29 -46q-37 -41 -34 -68q2 -23 34 -25h11v-82h-12q-123 2 -126 78q-1 41 38 91l-16 -1q-40 0 -73.5 11.5t-63.5 36.5t-47 73t-17 114v473h134v-466q0 -60 17 -86t50 -26q69 0 69 112v466z" />
    <glyph glyph-name="uogonek" unicode="&#x173;" horiz-adv-x="384" 
d="M243 500h113v-500q-13 -15 -18.5 -22t-12 -20t-5.5 -24q0 -26 34 -29h10v-81h-15q-114 3 -121 72q-4 45 49 104l-16 45q-36 -54 -105 -54q-53 0 -90 42t-37 134v333h112v-277q0 -74 12 -102t39 -28q25 0 38 22t13 78v307z" />
    <glyph glyph-name="Wcircumflex" unicode="&#x174;" horiz-adv-x="769" 
d="M325 905h120l80 -153h-82l-58 62l-58 -63h-82zM605 700h136l-129 -700h-158l-70 372l-70 -372h-158l-128 700h135l81 -479l78 479h125l78 -479z" />
    <glyph glyph-name="wcircumflex" unicode="&#x175;" horiz-adv-x="622" 
d="M251 705h120l80 -153h-82l-58 62l-58 -63h-82zM486 500h113l-97 -500h-137l-54 280l-53 -280h-137l-97 500h113l61 -351l66 351h95l66 -351z" />
    <glyph glyph-name="Ycircumflex" unicode="&#x176;" horiz-adv-x="521" 
d="M200 905h121l79 -153h-82l-58 62l-57 -63h-83zM353 700h140l-164 -429v-271h-138v270l-163 430h139l93 -276z" />
    <glyph glyph-name="ycircumflex" unicode="&#x177;" horiz-adv-x="375" 
d="M127 705h121l79 -153h-82l-57 62l-58 -63h-83zM238 501h113v-502q-1 -47 -15.5 -81.5t-39 -53t-51.5 -27.5t-57 -9q-36 0 -67.5 11.5t-58 42.5t-33.5 79h114q10 -31 44 -31q25 0 38 18t13 62v28q-30 -38 -87 -38q-53 0 -90 41.5t-37 134.5v324h112v-268q0 -75 12 -103
t39 -28t39 28.5t12 103.5v268z" />
    <glyph glyph-name="Ydieresis" unicode="&#x178;" horiz-adv-x="521" 
d="M127 790v110h112v-110h-112zM283 790v110h111v-110h-111zM353 700h140l-164 -429v-271h-138v270l-163 430h139l93 -276z" />
    <glyph glyph-name="Zacute" unicode="&#x179;" horiz-adv-x="455" 
d="M193 916h125l-94 -162h-87zM32 700h394v-111l-257 -459h261v-130h-406v108l258 462h-250v130z" />
    <glyph glyph-name="zacute" unicode="&#x17a;" horiz-adv-x="350" 
d="M140 716h126l-94 -162h-88zM35 500h288v-83l-176 -316h180v-101h-303v83l177 315h-166v102z" />
    <glyph glyph-name="Zdotaccent" unicode="&#x17b;" horiz-adv-x="455" 
d="M172 900h112v-110h-112v110zM32 700h394v-111l-257 -459h261v-130h-406v108l258 462h-250v130z" />
    <glyph glyph-name="zdotaccent" unicode="&#x17c;" horiz-adv-x="350" 
d="M119 700h112v-110h-112v110zM35 500h288v-83l-176 -316h180v-101h-303v83l177 315h-166v102z" />
    <glyph glyph-name="Zcaron" unicode="&#x17d;" horiz-adv-x="455" 
d="M285 905h82l-79 -153h-121l-80 153h83l58 -63zM32 700h394v-111l-257 -459h261v-130h-406v108l258 462h-250v130z" />
    <glyph glyph-name="zcaron" unicode="&#x17e;" horiz-adv-x="350" 
d="M233 705h82l-80 -153h-120l-80 153h82l58 -63zM35 500h288v-83l-176 -316h180v-101h-303v83l177 315h-166v102z" />
    <glyph glyph-name="florin" unicode="&#x192;" horiz-adv-x="340" 
d="M292 703h29v-102h-16q-34 -1 -48 -17t-23 -69l-3 -15h83v-101h-101l-67 -399h-114l68 399h-80v101h97l8 47q9 50 24 82t38 47.5t46.5 20.5t58.5 6z" />
    <glyph glyph-name="Acaron" unicode="&#x1cd;" horiz-adv-x="509" 
d="M313 905h82l-80 -153h-120l-80 153h82l58 -63zM169 700h171l141 -700h-134l-31 155h-122l-32 -155h-134zM300 289l-46 259l-46 -259h92z" />
    <glyph glyph-name="acaron" unicode="&#x1ce;" 
d="M251 705h82l-80 -153h-120l-80 153h82l58 -63zM276 500h78v-500h-78l-14 44q-34 -52 -104 -52q-24 0 -46 9t-42 28.5t-31.5 55t-11.5 83.5v165q0 48 11.5 83.5t31.5 55t42 28.5t46 9q69 0 103 -50zM140 277v-53q0 -75 11.5 -102.5t39.5 -27.5t39.5 27.5t10.5 102.5v53
q0 74 -12 102t-38 28q-27 0 -39 -27.5t-12 -102.5z" />
    <glyph glyph-name="Icaron" unicode="&#x1cf;" horiz-adv-x="213" 
d="M165 905h82l-79 -153h-121l-80 153h82l58 -63zM38 0v700h139v-700h-139z" />
    <glyph glyph-name="icaron" unicode="&#x1d0;" horiz-adv-x="297" 
d="M207 705h82l-80 -153h-120l-80 153h82l58 -63zM94 0v500h113v-500h-113z" />
    <glyph glyph-name="Ocaron" unicode="&#x1d1;" horiz-adv-x="478" 
d="M297 905h83l-80 -153h-121l-79 153h82l58 -63zM33 234v233q0 66 17.5 115t48 75.5t65.5 39t75 12.5q39 0 73.5 -12t65.5 -38.5t49 -75.5t18 -116v-233q0 -67 -18 -116t-49 -75.5t-65.5 -38.5t-73.5 -12q-40 0 -75 12.5t-65.5 39t-48 75.5t-17.5 115zM308 241v220
q0 118 -69 118t-69 -118v-220q0 -119 69 -119t69 119z" />
    <glyph glyph-name="ocaron" unicode="&#x1d2;" horiz-adv-x="381" 
d="M249 705h82l-80 -153h-120l-80 153h82l58 -63zM27 168v165q0 48 14.5 83.5t39 55t52 28.5t57.5 9t57.5 -9t52.5 -28t39.5 -55t14.5 -84v-165q0 -48 -14.5 -84t-39.5 -55t-52.5 -28t-57.5 -9t-57.5 9t-52 28.5t-39 55t-14.5 83.5zM241 224v53q0 74 -12 102t-39 28
t-38.5 -27.5t-11.5 -102.5v-53q0 -75 11.5 -102.5t39.5 -27.5q27 0 39 28t11 102z" />
    <glyph glyph-name="Ucaron" unicode="&#x1d3;" horiz-adv-x="476" 
d="M296 905h82l-80 -153h-120l-80 153h82l58 -63zM171 234v466h-134v-473q0 -66 17 -114t47 -73t63.5 -36.5t73.5 -11.5t74 11t64 36.5t47.5 73t17.5 114.5v473h-134v-466q0 -112 -69 -112q-33 0 -50 26t-17 86z" />
    <glyph glyph-name="ucaron" unicode="&#x1d4;" horiz-adv-x="384" 
d="M250 705h82l-79 -153h-121l-80 153h83l58 -63zM243 500h113v-500h-79l-16 45q-36 -54 -105 -54q-53 0 -90 42t-37 134v333h112v-277q0 -74 12 -102t39 -28q25 0 38 22t13 78v307z" />
    <glyph glyph-name="Udieresismacron" unicode="&#x1d5;" horiz-adv-x="476" 
d="M101 1013h275v-101h-275v101zM104 746v111h112v-111h-112zM260 746v111h112v-111h-112zM171 234v466h-134v-473q0 -66 17 -114t47 -73t63.5 -36.5t73.5 -11.5t74 11t64 36.5t47.5 73t17.5 114.5v473h-134v-466q0 -112 -69 -112q-33 0 -50 26t-17 86z" />
    <glyph glyph-name="udieresismacron" unicode="&#x1d6;" horiz-adv-x="384" 
d="M55 812h275v-100h-275v100zM59 551v110h112v-110h-112zM215 551v110h111v-110h-111zM243 500h113v-500h-78l-17 45q-36 -54 -105 -54q-53 0 -90 42t-37 134v333h112v-277q0 -74 12 -102t39 -28q25 0 38 22t13 78v307z" />
    <glyph glyph-name="Udieresisacute" unicode="&#x1d7;" horiz-adv-x="476" 
d="M207 1049h126l-94 -161h-88zM104 857h112v-111h-112v111zM260 857h112v-111h-112v111zM307 700h134v-473q0 -67 -17.5 -114.5t-47.5 -73t-64 -36.5t-74 -11t-73.5 11.5t-63.5 36.5t-47 73t-17 114v473h134v-466q0 -60 17 -86t50 -26q69 0 69 112v466z" />
    <glyph glyph-name="udieresisacute" unicode="&#x1d8;" horiz-adv-x="384" 
d="M158 846h125l-94 -161h-88zM59 551v110h112v-110h-112zM215 551v110h111v-110h-111zM243 500h113v-500h-78l-17 45q-36 -54 -105 -54q-53 0 -90 42t-37 134v333h112v-277q0 -74 12 -102t39 -28q25 0 38 22t13 78v307z" />
    <glyph glyph-name="Udieresiscaron" unicode="&#x1d9;" horiz-adv-x="476" 
d="M296 1036h82l-80 -154h-120l-80 154h82l58 -63zM104 746v111h112v-111h-112zM260 746v111h112v-111h-112zM171 234v466h-134v-473q0 -66 17 -114t47 -73t63.5 -36.5t73.5 -11.5t74 11t64 36.5t47.5 73t17.5 114.5v473h-134v-466q0 -112 -69 -112q-33 0 -50 26t-17 86z
" />
    <glyph glyph-name="udieresiscaron" unicode="&#x1da;" horiz-adv-x="384" 
d="M250 834h82l-79 -153h-121l-80 153h83l58 -63zM59 551v110h112v-110h-112zM215 551v110h111v-110h-111zM243 500h113v-500h-79l-16 45q-36 -54 -105 -54q-53 0 -90 42t-37 134v333h112v-277q0 -74 12 -102t39 -28q25 0 38 22t13 78v307z" />
    <glyph glyph-name="Udieresisgrave" unicode="&#x1db;" horiz-adv-x="476" 
d="M147 1048h126l56 -161h-88zM104 746v111h112v-111h-112zM260 746v111h112v-111h-112zM171 234v466h-134v-473q0 -66 17 -114t47 -73t63.5 -36.5t73.5 -11.5t74 11t64 36.5t47.5 73t17.5 114.5v473h-134v-466q0 -112 -69 -112q-33 0 -50 26t-17 86z" />
    <glyph glyph-name="udieresisgrave" unicode="&#x1dc;" horiz-adv-x="384" 
d="M101 846h126l56 -161h-87zM59 551v110h112v-110h-112zM215 551v110h111v-110h-111zM243 500h113v-500h-78l-17 45q-36 -54 -105 -54q-53 0 -90 42t-37 134v333h112v-277q0 -74 12 -102t39 -28q25 0 38 22t13 78v307z" />
    <glyph glyph-name="Scommaaccent" unicode="&#x218;" horiz-adv-x="463" 
d="M429 479h-129q0 48 -18 74t-47 26q-30 0 -47 -22t-17 -59q0 -18 6.5 -31t13.5 -20t22.5 -13t23.5 -8t27 -5q93 -17 134 -72t41 -131q0 -62 -17 -107.5t-47 -70.5t-66 -36.5t-79 -11.5q-40 0 -75 11.5t-65 37t-47.5 71.5t-18.5 108h130q0 -49 21 -73.5t55 -24.5
q38 0 56.5 22t18.5 60q0 44 -23.5 62t-83.5 30q-161 31 -161 193q0 60 17 104.5t46 68.5t62.5 35.5t72.5 11.5q38 0 70.5 -11.5t61.5 -36.5t45.5 -71.5t16.5 -110.5zM170 -165v121h123v-121l-44 -122h-48l21 122h-52z" />
    <glyph glyph-name="scommaaccent" unicode="&#x219;" horiz-adv-x="365" 
d="M133 158v-13q0 -26 14.5 -38.5t35.5 -12.5q50 0 50 48q0 36 -19 52t-61 24q-53 8 -89.5 43.5t-36.5 96.5q0 76 43 113.5t112 37.5q66 0 111 -39.5t46 -109.5v-9h-112v7q-1 25 -13.5 37t-30.5 12q-44 0 -44 -42q1 -41 52 -53q86 -16 120 -58.5t34 -104.5q0 -79 -44.5 -118
t-117.5 -39q-65 0 -113.5 39.5t-49.5 110.5v16h113zM122 -44h122v-121l-44 -122h-47l20 122h-51v121z" />
    <glyph glyph-name="uni021A" unicode="&#x21a;" horiz-adv-x="422" 
d="M28 700h366v-130h-116v-570h-134v570h-116v130zM150 -44h122v-121l-44 -122h-47l21 122h-52v121z" />
    <glyph glyph-name="uni021B" unicode="&#x21b;" horiz-adv-x="293" 
d="M193 399v-199q0 -64 12 -85.5t49 -22.5h14v-101h-45q-66 0 -104 39.5t-38 139.5v229h-55v101h55v153h112v-153h75v-101h-75zM116 -44h122v-121l-44 -122h-48l21 122h-51v121z" />
    <glyph glyph-name="circumflex" unicode="&#x2c6;" horiz-adv-x="423" 
d="M151 705h121l80 -153h-82l-58 62l-58 -63h-82z" />
    <glyph glyph-name="caron" unicode="&#x2c7;" horiz-adv-x="423" 
d="M270 705h82l-80 -153h-121l-79 153h82l58 -63z" />
    <glyph glyph-name="breve" unicode="&#x2d8;" horiz-adv-x="394" 
d="M155 700q3 -15 15 -24.5t27.5 -9.5t27 9.5t14.5 24.5h95q-3 -54 -42.5 -91.5t-94.5 -37.5t-94.5 37.5t-42.5 91.5h95v0z" />
    <glyph glyph-name="dotaccent" unicode="&#x2d9;" horiz-adv-x="222" 
d="M55 590v110h112v-110h-112z" />
    <glyph glyph-name="ring" unicode="&#x2da;" horiz-adv-x="357" 
d="M290 641q0 -46 -32.5 -78.5t-79 -32.5t-78.5 32.5t-32 78.5q0 45 32.5 77.5t78 32.5t78.5 -32.5t33 -77.5zM147 641q0 -14 9 -23.5t22.5 -9.5t23 9.5t9.5 23.5q0 13 -9.5 22.5t-23 9.5t-22.5 -9.5t-9 -22.5z" />
    <glyph glyph-name="ogonek" unicode="&#x2db;" horiz-adv-x="237" 
d="M95 0h84q-14 -16 -19.5 -23.5t-11.5 -21t-5 -24.5q2 -23 34 -25h11v-82h-13q-115 2 -124 71q-3 5 -1 13.5t1.5 13t3.5 12.5t4.5 11.5t5 11t6 10.5t6.5 10t6.5 8.5t6 7.5t5.5 7z" />
    <glyph glyph-name="tilde" unicode="&#x2dc;" horiz-adv-x="377" 
d="M259 704h82q0 -40 -7.5 -71.5t-29 -54.5t-54.5 -23q-18 0 -32.5 6t-37.5 24q-20 17 -39 15q-23 -3 -23 -45h-82q0 40 7.5 71.5t28.5 54.5t54 23q19 0 33 -6.5t37 -23.5q21 -18 41 -14q22 3 22 44z" />
    <glyph glyph-name="hungarumlaut" unicode="&#x2dd;" horiz-adv-x="466" 
d="M119 716h116l-94 -162h-78zM268 716h117l-94 -162h-79z" />
    <glyph glyph-name="commaaccentcomb" unicode="&#x326;" horiz-adv-x="0" 
d="M56 -51h112v-110l-41 -112h-43l19 112h-47v110z" />
    <glyph glyph-name="Delta" unicode="&#x394;" horiz-adv-x="456" 
d="M431 137v-137h-406v137l118 563h171zM150 131h157l-78 417z" />
    <glyph glyph-name="Omega" unicode="&#x3a9;" horiz-adv-x="500" 
d="M44 288v179q0 66 17.5 115t48 75.5t65 39t74.5 12.5t74.5 -12t65.5 -38.5t49 -75.5t18 -116v-179q0 -105 -54 -158h70v-130h-198v130q45 43 45 161v170q0 60 -18.5 89t-51.5 29q-67 0 -67 -118v-170q0 -119 44 -160v-131h-197v130h70q-55 55 -55 158z" />
    <glyph glyph-name="mu" unicode="&#x3bc;" horiz-adv-x="442" 
d="M246 500h113v-304q0 -55 15.5 -79t48.5 -24v-101h-11q-61 1 -93 46q-29 -47 -88 -47q-56 0 -87 39v-193h-112v663h112v-307q0 -56 13 -78t38 -22q27 0 39 28t12 103v276z" />
    <glyph glyph-name="pi" unicode="&#x3c0;" horiz-adv-x="488" 
d="M20 500h448v-102h-64v-202q1 -55 16.5 -79t47.5 -24v-101h-34q-28 0 -52 9t-45 28.5t-33 54.5t-12 83v231h-95v-398h-113v398h-64v102z" />
    <glyph glyph-name="afii10017" unicode="&#x410;" horiz-adv-x="509" 
d="M347 0l-31 155h-122l-32 -155h-134l141 700h171l141 -700h-134zM208 289h92l-46 259z" />
    <glyph glyph-name="afii10018" unicode="&#x411;" horiz-adv-x="454" 
d="M37 703h352v-131h-218v-151h47q217 -7 217 -209v-11q-2 -199 -223 -203h-175v705zM225 284h-54v-149h54q37 0 57.5 17.5t21.5 50.5l1 8q0 35 -21 54t-59 19z" />
    <glyph glyph-name="afii10019" unicode="&#x412;" horiz-adv-x="454" 
d="M37 703h186q38 0 72.5 -9.5t64 -28.5t46.5 -52t17 -77v-40q0 -93 -78 -135q90 -43 90 -151v-34q0 -86 -56 -132t-154 -46h-188v705zM293 493v5q0 39 -20.5 56.5t-51.5 17.5h-50v-153h50q30 0 51 17.5t21 56.5zM299 209v6q0 40 -21 60.5t-56 20.5h-51v-169h51q35 0 56 20
t21 62z" />
    <glyph glyph-name="afii10020" unicode="&#x413;" horiz-adv-x="417" 
d="M389 700v-130h-218v-570h-134v700h352z" />
    <glyph glyph-name="afii10021" unicode="&#x414;" horiz-adv-x="572" 
d="M504 130h50v-250h-134v120h-267v-120h-134v250h25q72 12 72 117v453h388v-570zM219 130h151v440h-120v-330q0 -68 -31 -110z" />
    <glyph glyph-name="afii10022" unicode="&#x415;" horiz-adv-x="359" 
d="M340 570h-169v-151h159v-130h-159v-159h169v-130h-303v700h303v-130z" />
    <glyph glyph-name="afii10024" unicode="&#x416;" horiz-adv-x="765" 
d="M738 0h-143l-143 245v-245h-138v244l-143 -244h-143l183 354l-173 346h143l132 -233v233h139v-233l133 233h143l-173 -346z" />
    <glyph glyph-name="afii10025" unicode="&#x417;" horiz-adv-x="451" 
d="M222 709h18q34 -1 65 -12t59.5 -33t46 -62.5t18.5 -94.5v-17q0 -49 -20 -86t-49 -50q31 -13 51.5 -51t20.5 -89v-12q-1 -55 -17.5 -96.5t-45 -65.5t-61 -35.5t-70.5 -12.5h-16q-38 0 -71 12t-63 36.5t-48.5 69.5t-20.5 106v5h133q4 -48 23.5 -73.5t49.5 -25.5h6
q28 2 46 24.5t18 56.5v4q0 39 -21.5 61t-64.5 22h-56v127h56q40 0 61.5 21t21.5 59v5q0 32 -18.5 53.5t-42.5 23.5h-6q-29 0 -48 -24.5t-24 -71.5h-134l1 6q3 60 21.5 104t48 68.5t62.5 36t70 11.5z" />
    <glyph glyph-name="afii10026" unicode="&#x418;" horiz-adv-x="501" 
d="M334 700h131v-700h-134v419l-163 -419h-132v700h134v-419z" />
    <glyph glyph-name="afii10027" unicode="&#x419;" horiz-adv-x="501" 
d="M294 882h95q-3 -54 -42.5 -91.5t-94.5 -37.5t-94.5 37.5t-42.5 91.5h95q3 -15 15 -24.5t27.5 -9.5t27 9.5t14.5 24.5zM334 700h131v-700h-134v419l-163 -419h-132v700h134v-419z" />
    <glyph glyph-name="afii10028" unicode="&#x41a;" horiz-adv-x="489" 
d="M462 0h-143l-143 245v-245h-139v700h139v-233l133 233h143l-173 -346z" />
    <glyph glyph-name="afii10029" unicode="&#x41b;" horiz-adv-x="535" 
d="M110 700h388v-700h-134v570h-120v-336q0 -66 -17.5 -114.5t-46.5 -75.5t-62.5 -39.5t-71.5 -12.5h-27v130q91 0 91 119v459z" />
    <glyph glyph-name="afii10030" unicode="&#x41c;" horiz-adv-x="618" 
d="M415 700h165v-700h-133v389l-98 -389h-82l-97 389v-389h-134v700h165l107 -474z" />
    <glyph glyph-name="afii10031" unicode="&#x41d;" horiz-adv-x="467" 
d="M296 700h133v-700h-133v289h-125v-289h-134v700h134v-281h125v281z" />
    <glyph glyph-name="afii10032" unicode="&#x41e;" horiz-adv-x="481" 
d="M34 234v233q0 66 18 115t48.5 75.5t65 39t74.5 12.5q39 0 74 -12t65.5 -38.5t49 -75.5t18.5 -116v-233q0 -67 -18.5 -116t-49 -75.5t-65.5 -38.5t-74 -12q-40 0 -74.5 12.5t-65 39t-48.5 75.5t-18 115zM309 241v220q0 118 -69 118q-68 0 -68 -118v-220q0 -119 68 -119
q69 0 69 119z" />
    <glyph glyph-name="afii10033" unicode="&#x41f;" horiz-adv-x="467" 
d="M37 700h392v-700h-133v570h-125v-570h-134v700z" />
    <glyph glyph-name="afii10034" unicode="&#x420;" horiz-adv-x="458" 
d="M37 700h161q43 0 81 -9.5t71.5 -30.5t53.5 -60.5t20 -93.5v-46q0 -50 -18 -88t-49 -59.5t-66.5 -32.5t-76.5 -13h-43v-267h-134v700zM293 478v10q0 44 -21 63.5t-53 19.5h-48v-175h48q31 0 52.5 19.5t21.5 62.5z" />
    <glyph glyph-name="afii10035" unicode="&#x421;" horiz-adv-x="462" 
d="M36 234v233q0 66 17.5 115t48 75.5t65.5 39t75 12.5q38 0 72 -12t63.5 -38t47 -73.5t18.5 -113.5v-20h-134v18q-4 109 -67 109q-69 0 -69 -118v-220q0 -119 69 -119q63 0 67 111v17h134v-21q-1 -66 -18.5 -113.5t-47 -73.5t-63.5 -38t-72 -12q-40 0 -75 12.5t-65.5 39
t-48 75.5t-17.5 115z" />
    <glyph glyph-name="afii10036" unicode="&#x422;" horiz-adv-x="422" 
d="M394 700v-130h-116v-570h-134v570h-116v130h366z" />
    <glyph glyph-name="afii10037" unicode="&#x423;" horiz-adv-x="523" 
d="M356 700h139l-164 -431v-269h-138v268l-165 432h139l95 -277z" />
    <glyph glyph-name="afii10038" unicode="&#x424;" horiz-adv-x="689" 
d="M412 703v-74h32q106 -4 159 -57.5t53 -152.5v-7q0 -98 -52.5 -151.5t-159.5 -57.5h-32v-203h-134v203h-32q-212 9 -212 209v7q0 99 53.5 152.5t158.5 57.5h32v74h134zM525 413v5q0 38 -21 55.5t-55 17.5h-37v-150h37q34 0 55 17.5t21 54.5zM278 341v151h-36
q-35 0 -56 -18t-21 -56v-5q0 -37 21 -54.5t56 -17.5h36z" />
    <glyph glyph-name="afii10039" unicode="&#x425;" horiz-adv-x="512" 
d="M478 700l-133 -341l139 -359h-138l-89 229l-90 -229h-139l138 359l-131 341h140l82 -220l82 220h139z" />
    <glyph glyph-name="afii10040" unicode="&#x426;" horiz-adv-x="501" 
d="M429 131h53v-245h-134v114h-311v700h134v-570h125v570h133v-569z" />
    <glyph glyph-name="afii10041" unicode="&#x427;" horiz-adv-x="448" 
d="M283 700h134v-700h-134v258q-31 -40 -97 -40q-162 0 -162 176v306h134v-213q0 -74 14.5 -101t47.5 -27q32 0 47.5 22.5t15.5 83.5v235z" />
    <glyph glyph-name="afii10042" unicode="&#x428;" horiz-adv-x="725" 
d="M554 700h134v-700h-651v700h134v-570h125v570h133v-570h125v570z" />
    <glyph glyph-name="afii10043" unicode="&#x429;" horiz-adv-x="759" 
d="M688 131h52v-245h-134v114h-569v700h134v-570h125v570h133v-570h125v570h134v-569z" />
    <glyph glyph-name="afii10044" unicode="&#x42a;" horiz-adv-x="513" 
d="M220 421h45q213 -8 214 -207v-7q0 -99 -56.5 -154t-176.5 -55h-160v574h-62v131h196v-282zM349 208v3q0 35 -21.5 54t-58.5 19h-49v-149h49q38 0 59 19t21 54z" />
    <glyph glyph-name="afii10045" unicode="&#x42b;" horiz-adv-x="663" 
d="M171 702v-281h44q214 -8 215 -207v-7q0 -99 -57 -154t-176 -55h-160v704h134zM488 700h138v-700h-138v700zM171 136h48q39 0 59.5 18.5t20.5 53.5v3q0 35 -21 54t-59 19h-48v-148z" />
    <glyph glyph-name="afii10046" unicode="&#x42c;" horiz-adv-x="464" 
d="M171 702v-281h44q214 -8 215 -207v-7q0 -99 -57 -154t-176 -55h-160v704h134zM171 136h48q39 0 59.5 18.5t20.5 53.5v3q0 35 -21 54t-59 19h-48v-148z" />
    <glyph glyph-name="afii10047" unicode="&#x42d;" horiz-adv-x="462" 
d="M19 466v6q0 65 17.5 113t47.5 74t63.5 38t72.5 12q40 0 75 -12.5t65 -39t48 -75.5t18 -115v-233q0 -66 -18 -115t-48 -75.5t-65 -39t-75 -12.5q-39 0 -72.5 12t-63.5 38t-47.5 74t-17.5 114v5h133q3 -113 68 -113q68 0 68 119v45h-140v131h140v44q0 118 -68 118
q-65 0 -68 -113h-133z" />
    <glyph glyph-name="afii10048" unicode="&#x42e;" horiz-adv-x="688" 
d="M241 416v51q0 66 17.5 115t48 75.5t65.5 39t75 12.5q39 0 73.5 -12t65.5 -38.5t49 -75.5t18 -116v-233q0 -67 -18 -116t-49 -75.5t-65.5 -38.5t-73.5 -12q-40 0 -75 12.5t-65.5 39t-48 75.5t-17.5 115v52h-70v-286h-134v700h134v-284h70zM516 241v220q0 118 -69 118
t-69 -118v-220q0 -119 69 -119t69 119z" />
    <glyph glyph-name="afii10049" unicode="&#x42f;" horiz-adv-x="468" 
d="M267 702h164v-702h-134v273h-50l-77 -273h-142l100 314q-86 47 -86 152v43q0 53 19.5 92.5t53 60.5t71.5 30.5t81 9.5zM297 401v172h-51q-32 0 -53 -19t-21 -63v-7q0 -44 21.5 -63.5t52.5 -19.5h51z" />
    <glyph glyph-name="afii10065" unicode="&#x430;" 
d="M276 500h78v-500h-78l-14 44q-34 -52 -104 -52q-24 0 -46 9t-42 28.5t-31.5 55t-11.5 83.5v165q0 48 11.5 83.5t31.5 55t42 28.5t46 9q69 0 103 -50zM140 277v-53q0 -75 11.5 -102.5t39.5 -27.5t39.5 27.5t10.5 102.5v53q0 74 -12 102t-38 28q-27 0 -39 -27.5t-12 -102.5
z" />
    <glyph glyph-name="afii10066" unicode="&#x431;" 
d="M31 168v366q0 48 14.5 83t39 54.5t52 28.5t57.5 9q28 0 53.5 -8t48.5 -24.5t38 -47.5t17 -72l1 -11h-110q-5 33 -17 47t-31 14q-25 0 -37.5 -19t-13.5 -67v-46q26 31 72 31q26 0 50 -9t45.5 -27.5t34.5 -54t13 -82.5v-165q0 -48 -15 -84t-39.5 -55t-52 -28t-57.5 -9
t-57.5 9t-52 28.5t-39 55.5t-14.5 83zM245 224v53q0 74 -12.5 102t-38.5 28q-27 0 -39 -28.5t-12 -101.5v-53q1 -75 12.5 -102.5t39.5 -27.5q27 0 39 28t11 102z" />
    <glyph glyph-name="afii10067" unicode="&#x432;" horiz-adv-x="374" 
d="M32 503h136q48 0 83 -13t54.5 -35.5t28 -48t8.5 -55.5q0 -59 -38 -90q50 -37 50 -109q0 -68 -41.5 -111t-136.5 -43h-144v505zM144 306h24q33 0 47.5 10t14.5 34t-13.5 35t-48.5 12h-24v-91zM144 100h24q42 1 58 12t16 39t-16 39.5t-58 12.5h-24v-103z" />
    <glyph glyph-name="afii10068" unicode="&#x433;" horiz-adv-x="330" 
d="M307 500v-102h-163v-398h-112v500h275z" />
    <glyph glyph-name="afii10069" unicode="&#x434;" horiz-adv-x="474" 
d="M95 500h320v-398h39v-206h-112v104h-209v-104h-113v206h25q28 4 39 27t11 73v298zM302 102v296h-94v-225q-1 -43 -19 -71h113z" />
    <glyph glyph-name="afii10070" unicode="&#x435;" horiz-adv-x="379" 
d="M27 168v165q0 48 14.5 83.5t39 55t52 28.5t57.5 9t57.5 -9t52 -28t39 -55t14.5 -84v-123h-213v-23q0 -52 12.5 -72.5t38.5 -20.5q48 0 50 72h113q-1 -48 -15.5 -83.5t-39 -54t-52 -27.5t-57.5 -9t-57.5 9t-52 28.5t-39 55t-14.5 83.5zM241 293v29q-1 85 -51 85
q-24 0 -37 -19t-13 -66v-29h101z" />
    <glyph glyph-name="afii10072" unicode="&#x436;" horiz-adv-x="598" 
d="M565 0h-117l-95 197v-197h-112v198l-95 -198h-117l111 257l-104 243h116l89 -182v182h112v-182l89 182h116l-104 -243z" />
    <glyph glyph-name="afii10073" unicode="&#x437;" horiz-adv-x="373" 
d="M182 509h12q76 -1 113 -39.5t37 -108.5q0 -37 -19.5 -66.5t-60.5 -38.5q45 -8 67 -41.5t22 -85.5q0 -67 -46.5 -101.5t-112.5 -35.5h-12q-29 1 -55 9t-50.5 26t-38.5 50.5t-14 75.5h109q1 -32 16 -45.5t36 -13.5h3q55 0 54 57q1 50 -62 51h-45v101h41q32 1 47.5 11
t15.5 37q0 57 -51 57h-2q-21 0 -36 -14t-16 -46h-110q0 43 14 75.5t38.5 50.5t50.5 26t55 9z" />
    <glyph glyph-name="afii10074" unicode="&#x438;" horiz-adv-x="396" 
d="M252 500h113v-500h-113v264l-108 -264h-112v500h112v-263z" />
    <glyph glyph-name="afii10075" unicode="&#x439;" horiz-adv-x="396" 
d="M240 700h95q-3 -54 -43 -91.5t-94.5 -37.5t-94 37.5t-42.5 91.5h95q3 -15 14.5 -24.5t27 -9.5t27.5 9.5t15 24.5zM252 500h113v-500h-113v264l-108 -264h-112v500h112v-263z" />
    <glyph glyph-name="afii10076" unicode="&#x43a;" horiz-adv-x="380" 
d="M356 0h-116l-95 197v-197h-113v500h113v-182l88 182h117l-105 -243z" />
    <glyph glyph-name="afii10077" unicode="&#x43b;" horiz-adv-x="436" 
d="M84 500h320v-500h-112v398h-95v-231q0 -48 -12.5 -83t-33.5 -54.5t-45 -28.5t-52 -9h-33v101q32 0 47.5 24t15.5 79v304z" />
    <glyph glyph-name="afii10078" unicode="&#x43c;" horiz-adv-x="462" 
d="M311 500h120v-500h-102v256l-73 -256h-50l-73 256v-256h-101v500h119l80 -313z" />
    <glyph glyph-name="afii10079" unicode="&#x43d;" horiz-adv-x="389" 
d="M245 500h113v-500h-113v207h-101v-207h-112v500h112v-191h101v191z" />
    <glyph glyph-name="afii10080" unicode="&#x43e;" horiz-adv-x="381" 
d="M27 168v165q0 48 14.5 83.5t39 55t52 28.5t57.5 9t57.5 -9t52.5 -28t39.5 -55t14.5 -84v-165q0 -48 -14.5 -84t-39.5 -55t-52.5 -28t-57.5 -9t-57.5 9t-52 28.5t-39 55t-14.5 83.5zM241 224v53q0 74 -12 102t-39 28t-38.5 -27.5t-11.5 -102.5v-53q0 -75 11.5 -102.5
t39.5 -27.5q27 0 39 28t11 102z" />
    <glyph glyph-name="afii10081" unicode="&#x43f;" horiz-adv-x="389" 
d="M32 500h326v-500h-113v398h-101v-398h-112v500z" />
    <glyph glyph-name="afii10082" unicode="&#x440;" 
d="M110 501l15 -45q35 53 106 53q53 0 90.5 -42t37.5 -134v-165q0 -93 -37.5 -134.5t-90.5 -41.5q-56 0 -87 37v-192h-112v664h78zM246 224v52q0 76 -11.5 103.5t-39.5 27.5t-39.5 -28t-10.5 -103v-52q0 -75 12 -103t38 -28q27 0 39 28t12 103z" />
    <glyph glyph-name="afii10083" unicode="&#x441;" horiz-adv-x="377" 
d="M27 168v165q0 48 14.5 83.5t39 55t52 28.5t57.5 9t57 -9t51 -27.5t38.5 -54t14.5 -82.5v-25h-110q-1 53 -14 74.5t-37 21.5q-27 0 -38.5 -27.5t-11.5 -102.5v-53q0 -75 11.5 -102.5t39.5 -27.5q25 0 37.5 21t13.5 75h109v-25q0 -47 -14.5 -82.5t-38.5 -54t-51 -27.5
t-57 -9t-57.5 9t-52 28.5t-39 55t-14.5 83.5z" />
    <glyph glyph-name="afii10084" unicode="&#x442;" horiz-adv-x="374" 
d="M24 500h326v-102h-107v-398h-112v398h-107v102z" />
    <glyph glyph-name="afii10085" unicode="&#x443;" horiz-adv-x="375" 
d="M238 501h113v-502q-1 -47 -15.5 -81.5t-39 -53t-51.5 -27.5t-57 -9q-36 0 -67.5 11.5t-58 42.5t-33.5 79h114q10 -31 44 -31q25 0 38 17.5t13 61.5v29q-30 -38 -87 -38q-53 0 -90 41.5t-37 134.5v324h112v-268q0 -75 12 -103t39 -28t39 28.5t12 103.5v268z" />
    <glyph glyph-name="afii10086" unicode="&#x444;" horiz-adv-x="595" 
d="M242 700h112v-229q30 38 87 38q53 0 90.5 -42t37.5 -134v-165q0 -93 -37.5 -134.5t-90.5 -41.5q-56 0 -87 37v-192h-112v192q-31 -37 -87 -37q-54 0 -91 41.5t-37 134.5v165q0 92 37 134t91 42q56 0 87 -38v229zM241 224v52q1 75 -10.5 103t-39.5 28t-39.5 -27.5
t-11.5 -103.5v-52q0 -75 12 -103t39 -28q26 0 38 28t12 103zM456 224v52q0 76 -12 103.5t-40 27.5q-27 0 -38.5 -28t-11.5 -103v-52q0 -75 12.5 -103t38.5 -28q27 0 39 28t12 103z" />
    <glyph glyph-name="afii10087" unicode="&#x445;" horiz-adv-x="413" 
d="M386 500l-90 -244l94 -256h-116l-67 164l-67 -164h-116l95 255l-90 245h116l62 -185l63 185h116z" />
    <glyph glyph-name="afii10088" unicode="&#x446;" horiz-adv-x="419" 
d="M358 102h41v-200h-113v98h-254v500h112v-398h101v398h113v-398z" />
    <glyph glyph-name="afii10089" unicode="&#x447;" horiz-adv-x="387" 
d="M243 500h113v-500h-113v178q-30 -39 -87 -39q-53 0 -90 41.5t-37 134.5v185h112v-129q0 -75 12 -102.5t39 -27.5q25 0 38 22t13 78v159z" />
    <glyph glyph-name="afii10090" unicode="&#x448;" horiz-adv-x="602" 
d="M459 500h112v-500h-539v500h112v-398h101v398h113v-398h101v398z" />
    <glyph glyph-name="afii10091" unicode="&#x449;" horiz-adv-x="632" 
d="M572 102h40v-200h-113v98h-467v500h112v-398h101v398h113v-398h101v398h113v-398z" />
    <glyph glyph-name="afii10092" unicode="&#x44a;" horiz-adv-x="408" 
d="M181 311h30q94 0 136 -39.5t42 -104.5v-27q-1 -65 -44 -103.5t-134 -38.5h-143v400h-48v102h161v-189zM276 150v2q0 29 -16 41t-57 12h-22v-105h22q40 0 56 11t17 39z" />
    <glyph glyph-name="afii10093" unicode="&#x44b;" horiz-adv-x="555" 
d="M32 500h112v-190h30q94 0 136 -39t42 -104v-27q-1 -65 -44 -103.5t-134 -38.5h-142v502zM410 0v500h113v-500h-113zM240 150v2q0 29 -16.5 40.5t-57.5 12.5h-22v-105h22q40 0 56.5 11t17.5 39z" />
    <glyph glyph-name="afii10094" unicode="&#x44c;" horiz-adv-x="372" 
d="M32 500h112v-190h30q94 0 136 -39t42 -104v-27q-1 -65 -44 -103.5t-134 -38.5h-142v502zM240 150v2q0 29 -16.5 40.5t-57.5 12.5h-22v-105h22q40 0 56.5 11t17.5 39z" />
    <glyph glyph-name="afii10095" unicode="&#x44d;" horiz-adv-x="377" 
d="M136 333h-110q0 48 14 84t38.5 55t51.5 28t57 9t57.5 -9t52 -28.5t39 -55t14.5 -83.5v-165q0 -48 -14.5 -83.5t-39 -55t-52 -28.5t-57.5 -9t-57 9t-51.5 28t-38.5 54.5t-14 84.5h109q2 -74 51 -74q25 0 38 18t13 63v26h-94v101h94v27q-1 43 -13.5 60.5t-36.5 17.5
q-48 0 -51 -74z" />
    <glyph glyph-name="afii10096" unicode="&#x44e;" horiz-adv-x="559" 
d="M206 306v27q0 48 14.5 83.5t39 55t52 28.5t57.5 9t57.5 -9t52.5 -28t39.5 -55t14.5 -84v-165q0 -48 -14.5 -84t-39.5 -55t-52.5 -28t-57.5 -9t-57.5 9t-52 28.5t-39 55t-14.5 83.5v37h-62v-205h-112v500h112v-194h62zM420 224v53q0 74 -12 102t-39 28t-38.5 -27.5
t-11.5 -102.5v-53q0 -75 11.5 -102.5t39.5 -27.5q27 0 39 28t11 102z" />
    <glyph glyph-name="afii10097" unicode="&#x44f;" horiz-adv-x="372" 
d="M196 503h145v-503h-113v193l-38 -10l-57 -183h-113l66 222q-64 32 -64 111v27q0 65 41.5 104t132.5 39zM201 298h27v103h-27q-38 -1 -52.5 -13t-14.5 -40q0 -27 14 -38t53 -12z" />
    <glyph glyph-name="Wgrave" unicode="&#x1e80;" horiz-adv-x="769" 
d="M294 917h126l56 -161h-88zM605 700h136l-129 -700h-158l-70 372l-70 -372h-158l-128 700h135l81 -479l78 479h125l78 -479z" />
    <glyph glyph-name="wgrave" unicode="&#x1e81;" horiz-adv-x="622" 
d="M220 717h126l56 -161h-88zM486 500h113l-97 -500h-137l-54 280l-53 -280h-137l-97 500h113l61 -351l66 351h95l66 -351z" />
    <glyph glyph-name="Wacute" unicode="&#x1e82;" horiz-adv-x="769" 
d="M350 916h126l-94 -162h-88zM605 700h136l-129 -700h-158l-70 372l-70 -372h-158l-128 700h135l81 -479l78 479h125l78 -479z" />
    <glyph glyph-name="wacute" unicode="&#x1e83;" horiz-adv-x="622" 
d="M276 716h126l-94 -162h-88zM486 500h113l-97 -500h-137l-54 280l-54 -280h-136l-97 500h113l61 -351l66 351h95l66 -351z" />
    <glyph glyph-name="Wdieresis" unicode="&#x1e84;" horiz-adv-x="769" 
d="M251 900h112v-110h-112v110zM407 900h112v-110h-112v110zM605 700h136l-129 -700h-158l-70 372l-70 -372h-158l-128 700h135l81 -479l78 479h125l78 -479z" />
    <glyph glyph-name="wdieresis" unicode="&#x1e85;" horiz-adv-x="622" 
d="M177 700h112v-110h-112v110zM333 700h112v-110h-112v110zM486 500h113l-97 -500h-137l-54 280l-53 -280h-137l-97 500h113l61 -351l66 351h95l66 -351z" />
    <glyph glyph-name="endash" unicode="&#x2013;" horiz-adv-x="472" 
d="M50 333h372v-130h-372v130z" />
    <glyph glyph-name="emdash" unicode="&#x2014;" horiz-adv-x="640" 
d="M50 333h540v-130h-540v130z" />
    <glyph glyph-name="quoteleft" unicode="&#x2018;" horiz-adv-x="222" 
d="M120 577h52v-120h-122v120l44 123h47z" />
    <glyph glyph-name="quoteright" unicode="&#x2019;" horiz-adv-x="222" 
d="M50 700h122v-120l-44 -123h-47l21 123h-52v120z" />
    <glyph glyph-name="quotesinglbase" unicode="&#x201a;" horiz-adv-x="222" 
d="M50 120h122v-120l-44 -123h-47l21 123h-52v120z" />
    <glyph glyph-name="quotedblleft" unicode="&#x201c;" horiz-adv-x="417" 
d="M141 700l-21 -123h52v-120h-122v120l44 123h47zM315 577h52v-120h-123v120l45 123h47z" />
    <glyph glyph-name="quotedblright" unicode="&#x201d;" horiz-adv-x="417" 
d="M50 580v120h122v-120l-44 -123h-47l21 123h-52zM244 700h123v-120l-44 -123h-48l21 123h-52v120z" />
    <glyph glyph-name="quotedblbase" unicode="&#x201e;" horiz-adv-x="222" 
d="M50 120h122v-120l-44 -123h-47l21 123h-52v120z" />
    <glyph glyph-name="dagger" unicode="&#x2020;" horiz-adv-x="423" 
d="M142 700h139v-200h92v-131h-92v-429h-139v429h-92v131h92v200z" />
    <glyph glyph-name="daggerdbl" unicode="&#x2021;" horiz-adv-x="423" 
d="M142 700h139v-200h92v-131h-92v-151h92v-131h-92v-147h-139v147h-92v131h92v151h-92v131h92v200z" />
    <glyph glyph-name="bullet" unicode="&#x2022;" horiz-adv-x="388" 
d="M76 411q49 49 118 49t117.5 -48.5t48.5 -118t-48.5 -118t-117.5 -48.5t-118 48.5t-49 118t49 117.5z" />
    <glyph glyph-name="ellipsis" unicode="&#x2026;" horiz-adv-x="550" 
d="M50 0v120h122v-120h-122zM214 0v120h122v-120h-122zM378 0v120h122v-120h-122z" />
    <glyph glyph-name="perthousand" unicode="&#x2030;" horiz-adv-x="997" 
d="M50 441v148q0 33 13 57.5t32.5 37t38.5 18.5t37 6q19 0 38.5 -6.5t39 -19.5t31.5 -37t12 -56v-148q0 -32 -12 -56t-31.5 -37t-39 -19t-38.5 -7q-18 0 -37 5.5t-38.5 18t-32.5 37.5t-13 58zM472 700h92l-315 -700h-92zM210 437v155q0 19 -12.5 28.5t-26.5 9.5t-26 -9
t-12 -29v-155q0 -19 12 -28t26 -9q15 0 27 9.5t12 27.5zM706 111v149q0 33 13 57.5t32.5 37t39 18t36.5 5.5q19 0 38.5 -6t39 -19t31.5 -37t12 -56v-149q0 -32 -12 -56t-31.5 -36.5t-39 -19t-38.5 -6.5q-18 0 -37 5.5t-38.5 18t-32.5 37t-13 57.5zM429 111v149
q0 33 12.5 57.5t32.5 37t39 18t37 5.5q19 0 38.5 -6t39 -19t31.5 -37t12 -56v-149q0 -32 -12 -56t-31.5 -36.5t-39 -19t-38.5 -6.5q-18 0 -37 5.5t-39 18t-32.5 37t-12.5 57.5zM866 108v155q0 19 -12.5 28t-26.5 9t-26 -9t-12 -28v-155q0 -19 12 -28t26 -9q15 0 27 9t12 28z
M588 108v155q0 19 -12 28t-26 9t-26.5 -9t-12.5 -28v-155q0 -19 12.5 -28t26.5 -9t26 9t12 28z" />
    <glyph glyph-name="guilsinglleft" unicode="&#x2039;" horiz-adv-x="254" 
d="M50 329l154 137v-132l-82 -71l82 -71v-133l-154 138v132z" />
    <glyph glyph-name="guilsinglright" unicode="&#x203a;" horiz-adv-x="254" 
d="M50 334v132l154 -137v-132l-154 -138v133l81 71z" />
    <glyph glyph-name="fraction" unicode="&#x2044;" horiz-adv-x="432" 
d="M22 0l286 700h102l-286 -700h-102z" />
    <glyph glyph-name="Euro" unicode="&#x20ac;" horiz-adv-x="505" 
d="M76 421v46q0 66 18 115t48 75.5t65 39t75 12.5q39 0 72.5 -12t63 -37.5t47 -73.5t18.5 -113v-21h-133l-1 17q-4 110 -67 110q-68 0 -68 -118v-40h209l-54 -54h-155v-33h122l-55 -55h-67v-38q0 -119 68 -119q63 0 68 111v17h133v-21q0 -66 -18 -113.5t-47.5 -73.5t-63 -38
t-72.5 -12q-40 0 -75 12.5t-65 39t-48 75.5t-18 115v45h-50v55h50v33h-50v54h50z" />
    <glyph glyph-name="trademark" unicode="&#x2122;" horiz-adv-x="658" 
d="M15 611v89h233v-89h-67v-316h-98v316h-68zM517 700h126v-405h-98v219l-58 -171h-63l-59 171v-219h-98v405h126l62 -190z" />
    <glyph glyph-name="partialdiff" unicode="&#x2202;" horiz-adv-x="600" 
 />
    <glyph glyph-name="emptyset" unicode="&#x2205;" horiz-adv-x="616" 
d="M567 415l-38 -38q36 -58 36 -126q0 -107 -75.5 -183t-182.5 -76q-67 0 -125 37l-38 -38l-92 93l36 36q-39 60 -39 131q0 107 75.5 182.5t182.5 75.5q71 0 131 -38l37 37zM200 144q43 -44 107 -44t106 44t42 106.5t-42 106.5t-106 44t-106.5 -44t-42.5 -106.5t42 -106.5z
" />
    <glyph glyph-name="product" unicode="&#x220f;" horiz-adv-x="600" 
 />
    <glyph glyph-name="summation" unicode="&#x2211;" horiz-adv-x="600" 
 />
    <glyph glyph-name="minus" unicode="&#x2212;" horiz-adv-x="567" 
d="M50 397h467v-130h-467v130z" />
    <glyph glyph-name="radical" unicode="&#x221a;" horiz-adv-x="600" 
 />
    <glyph glyph-name="infinity" unicode="&#x221e;" horiz-adv-x="600" 
 />
    <glyph glyph-name="integral" unicode="&#x222b;" horiz-adv-x="377" 
d="M244 714h83v-130h-28q-24 0 -33 -17.5t-8 -55.5v-502q0 -76 -36 -112t-89 -36h-83v131h28q24 0 33 17.5t9 56.5v501q0 76 35.5 111.5t88.5 35.5z" />
    <glyph glyph-name="approxequal" unicode="&#x2248;" horiz-adv-x="541" 
d="M393 436h98q0 -77 -30 -128t-91 -51q-12 0 -22.5 2t-22 6.5t-19 7.5t-23.5 11.5t-25 13.5q-40 21 -66 17q-21 -1 -32.5 -16.5t-11.5 -39.5h-98q0 79 31.5 130.5t93.5 51.5q16 0 32 -4t27.5 -9t37.5 -17q20 -11 29.5 -16t25 -9t28.5 -3q37 5 38 53zM393 229h98
q0 -78 -30 -128.5t-91 -50.5q-15 0 -30.5 4t-22 6.5t-30 14.5t-29.5 15q-40 21 -68 17q-20 -2 -31 -17t-11 -39h-98q0 79 31.5 131t93.5 52q23 0 41 -6.5t56 -23.5q20 -11 30 -16t25 -9.5t29 -2.5q36 4 37 53z" />
    <glyph glyph-name="notequal" unicode="&#x2260;" horiz-adv-x="524" 
d="M495 300h-152l-18 -52h170v-131h-216l-68 -197h-140l68 197h-110v131h155l18 52h-173v131h218l66 189h140l-65 -189h107v-131z" />
    <glyph glyph-name="lessequal" unicode="&#x2264;" horiz-adv-x="531" 
d="M50 371l431 200v-132l-196 -88l196 -87v-132l-431 200v39zM50 88h431v-130h-431v130z" />
    <glyph glyph-name="greaterequal" unicode="&#x2265;" horiz-adv-x="531" 
d="M50 439v132l431 -200v-39l-431 -200v132l197 87zM50 88h431v-130h-431v130z" />
    <glyph glyph-name="lozenge" unicode="&#x25ca;" horiz-adv-x="600" 
 />
    <glyph glyph-name="fi" unicode="&#xfb01;" horiz-adv-x="480" 
d="M223 709h45v-101h-14q-34 0 -47 -19t-14 -72v-17h75v-102h-75v-398h-112v398h-55v102h55v33q0 97 38.5 136.5t103.5 39.5zM326 678h123v-111h-123v111zM331 500h113v-500h-113v500z" />
    <glyph glyph-name="fl" unicode="&#xfb02;" horiz-adv-x="467" 
d="M223 709h45v-101h-14q-35 0 -47.5 -19.5t-13.5 -73.5v-15h75v-102h-75v-398h-112v398h-55v102h55v33q0 97 38.5 136.5t103.5 39.5zM326 700h113v-700h-113v700z" />
    <glyph glyph-name="K.ss01" horiz-adv-x="439" 
d="M264 700h139l-103 -314q39 -12 55.5 -23.5t30.5 -34.5q25 -52 25 -145v-183h-135v199q1 55 -20 78q-18 19 -57 19h-36v-296h-133v700h134v-283z" />
    <glyph glyph-name="R.ss01" horiz-adv-x="456" 
d="M37 0v703h157q230 0 230 -207v-9q-1 -101 -64 -151q24 -15 39 -38q29 -47 29 -128v-170h-135v190q0 48 -19 70q-18 23 -58 23h-46v-283h-133zM217 565h-46v-144h46q32 0 53.5 17t22.5 51v5q0 36 -21 53t-55 18z" />
    <glyph glyph-name="f.ss01" horiz-adv-x="244" 
d="M176 709h43v-101h-12q-37 0 -50 -19.5t-13 -76.5v-12h75v-102h-75v-398h-112v533q0 98 38.5 137t105.5 39z" />
    <glyph glyph-name="k.ss01" horiz-adv-x="376" 
d="M222 500h117l-78 -220q41 -12 61 -37q30 -43 30 -128v-115h-112v131q0 58 -24 78q-16 14 -53 14h-19v-223h-112v700h113v-419z" />
    <glyph glyph-name="t.ss01" horiz-adv-x="244" 
d="M144 399v-199q0 -63 12.5 -84t50.5 -21h12v-101h-43q-67 0 -105.5 39t-38.5 137v483h112v-153h75v-101h-75z" />
    <glyph glyph-name="afii10049.ss01" horiz-adv-x="456" 
d="M262 703h157v-703h-134v283h-45q-40 0 -59 -23q-18 -22 -18 -70v-190h-135v170q0 74 25 119q17 29 43 47q-63 50 -64 151v9q0 206 230 207zM285 420v145h-46q-34 -1 -55 -18t-21 -53v-5q0 -34 22 -51t54 -18h46z" />
    <glyph glyph-name="afii10024.ss01" horiz-adv-x="684" 
d="M648 700l-103 -314q36 -10 51.5 -19.5t27.5 -27.5q32 -53 32 -156v-183h-135v199q1 61 -26 83q-17 14 -51 14h-35v-296h-134v296h-35q-38 0 -55 -18q-22 -22 -22 -79v-199h-135v183q0 99 29 153q12 20 28.5 29.5t53.5 20.5l-103 314h140l99 -283v283h134v-283l100 283
h139z" />
    <glyph glyph-name="afii10097.ss01" horiz-adv-x="372" 
d="M341 503v-503h-113v194h-18q-43 0 -60 -20t-17 -70v-104h-112v88q0 69 19 109q11 24 28 40q-46 31 -46 96v27q0 65 42 104t132 39h145zM229 401h-27q-39 -1 -53 -13t-15 -40q1 -26 13.5 -37t47.5 -13h34v103z" />
    <glyph glyph-name="afii10076.ss01" horiz-adv-x="376" 
d="M222 500h117l-78 -220q44 -13 64 -40q27 -43 27 -125v-115h-112v131q0 57 -23 77q-17 15 -54 15h-19v-223h-112v500h113v-219z" />
    <glyph glyph-name="afii10072.ss01" horiz-adv-x="575" 
d="M538 500l-78 -220q26 -8 40 -16.5t25 -24.5q27 -43 27 -124v-115h-112v131q0 55 -22 76q-17 16 -55 16h-19v-223h-113v223h-18q-39 0 -56 -16q-21 -21 -21 -76v-131h-112v115q0 83 28 125q11 15 24.5 23.5t38.5 16.5l-78 220h116l78 -220v220h113v-220l78 220h116z" />
    <glyph glyph-name="two.dnom" horiz-adv-x="251" 
d="M124 340h8q46 -1 77 -26.5t32 -79.5v-3q0 -29 -14.5 -52.5t-33 -37t-39 -31t-27.5 -33.5h111v-77h-224v36q0 30 11 54t26.5 38t34 27.5t34.5 23t26.5 22.5t10.5 28q0 17 -8 25.5t-20 9.5h-2q-28 0 -33 -39h-84l1 3q2 58 35.5 84.5t77.5 27.5z" />
    <glyph glyph-name="four.dnom" horiz-adv-x="270" 
d="M73 338h85l-62 -207h58v123h85v-123h21v-77h-21v-54h-84v54h-145v85z" />
    <glyph glyph-name="one.numr" horiz-adv-x="164" 
d="M24 700h116v-338h-84v261h-32v77z" />
    <glyph glyph-name="three.numr" horiz-adv-x="276" 
d="M134 707l8 -1q46 0 76.5 -23t31.5 -74v-5q0 -24 -10.5 -42.5t-24.5 -23.5q15 -8 25 -27.5t11 -44.5v-4q-1 -51 -31.5 -75t-78.5 -25h-7q-44 0 -76 25.5t-34 77.5v3h79q4 -27 30 -28h5q12 0 20 6.5t9 17.5v3q0 14 -9.5 23t-28.5 9h-30v78h30q36 -1 37 24v4q0 11 -8 17.5
t-20 6.5h-4q-26 0 -30 -27h-79v3q2 49 34 75t75 27z" />
    <glyph glyph-name="uni1EFA" unicode="&#x1efa;" horiz-adv-x="0" 
d="M470 789v-28v3q0 -27 -1 -44.5t-3.5 -30.5t-7 -22t-10.5 -18q-17 -21 -45 -30.5t-72 -7.5h-44v89h44q24 0 33 4t14 12q1 2 2 16t1 28v8v5t-0.5 5.5t-0.5 10.5h90zM425 586v-27v3q0 -25 -1 -42t-3.5 -29.5t-6.5 -21t-10 -17.5q-16 -20 -43 -29t-69 -7h-42v84h42q23 0 32 4
t13 12q0 2 1 15t1 27v7.5v4.5t-0.5 5.5t-0.5 10.5h87z" />
    <glyph glyph-name="Itilde" unicode="&#x128;" horiz-adv-x="213" 
d="M213 859q0 -31 -1 -47.5t-5 -29.5q-13 -41 -54 -41q-17 0 -29 2.5t-32 17.5l-3.5 3.5t-2.5 1.5q-6 5 -11.5 9t-8.5 6v-40h-65q0 31 1.5 46t3.5 29q12 43 57 43q11 0 25 -8.5t22 -15.5v1q14 -11 23.5 -18t11.5 -6q1 0 1.5 9t0.5 38h66zM37 0v700h139v-700h-139z" />
    <glyph glyph-name="itilde" unicode="&#x129;" horiz-adv-x="187" 
d="M38 0v500h113v-500h-113zM202 673q0 -31 -1 -47.5t-5 -29.5q-13 -41 -54 -41q-17 0 -29 2.5t-32 17.5l-3.5 3.5t-2.5 1.5q-6 5 -11.5 9t-8.5 6v-40h-65q0 31 1.5 46t3.5 29q12 43 57 43q11 0 25 -8.5t22 -15.5v1q14 -11 23.5 -18t11.5 -6q1 0 1.5 9t0.5 38h66z" />
    <glyph glyph-name="Utilde" unicode="&#x168;" horiz-adv-x="476" 
d="M348 859q0 -31 -1 -47.5t-5 -29.5q-13 -41 -54 -41q-17 0 -29 2.5t-32 17.5l-3.5 3.5t-2.5 1.5q-6 5 -11.5 9t-8.5 6v-40h-65q0 31 1.5 46t3.5 29q12 43 57 43q11 0 25 -8.5t22 -15.5v1q14 -11 23.5 -18t11.5 -6q1 0 1.5 9t0.5 38h66zM171 234v466h-134v-473
q0 -66 17 -114t47 -73t63.5 -36.5t73.5 -11.5t74 11t64 36.5t47.5 73t17.5 114.5v473h-134v-466q0 -112 -69 -112q-33 0 -50 26t-17 86z" />
    <glyph glyph-name="utilde" unicode="&#x169;" horiz-adv-x="384" 
d="M297 673q0 -31 -1 -47.5t-5 -29.5q-13 -41 -54 -41q-17 0 -29 2.5t-32 17.5l-3.5 3.5t-2.5 1.5q-6 5 -11.5 9t-8.5 6v-40h-65q0 31 1.5 46t3.5 29q12 43 57 43q11 0 25 -8.5t22 -15.5v1q14 -11 23.5 -18t11.5 -6q1 0 1.5 9t0.5 38h66zM243 500h113v-500h-78l-17 45
q-36 -54 -105 -54q-53 0 -90 42t-37 134v333h112v-277q0 -74 12 -102t39 -28q25 0 38 22t13 78v307z" />
    <glyph glyph-name="Ohorn" unicode="&#x1a0;" horiz-adv-x="478" 
d="M33 234v233q0 66 17.5 115t48 75.5t65.5 39t75 12.5q34 0 65 -9h27q24 0 33 4t14 12q1 2 2 16t1 28v8v5t-0.5 5.5t-0.5 10.5h90v-28q0 -26 -1 -43.5t-4 -30t-7 -21t-10 -17.5q-14 -18 -39 -29q10 -16 18 -37q18 -49 18 -116v-233q0 -67 -18 -116t-49 -75.5t-65.5 -38.5
t-73.5 -12q-40 0 -75 12.5t-65.5 39t-48 75.5t-17.5 115zM308 241v220q0 118 -69 118t-69 -118v-220q0 -119 69 -119t69 119z" />
    <glyph glyph-name="ohorn" unicode="&#x1a1;" horiz-adv-x="381" 
d="M27 168v165q0 48 14.5 83.5t39 55t52 28.5t57.5 9t57 -9h3q23 0 32 4t13 12q0 2 1 15t1 27v7.5v4.5t-0.5 5.5t-0.5 10.5h87v-24q0 -25 -1 -42t-3.5 -29.5t-6.5 -21t-10 -17.5q-13 -15 -28 -23q3 -6 5 -12q15 -36 15 -84v-165q0 -48 -14.5 -84t-39.5 -55t-52.5 -28
t-57.5 -9t-57.5 9t-52 28.5t-39 55t-14.5 83.5zM241 224v53q0 74 -12 102t-39 28t-38.5 -27.5t-11.5 -102.5v-53q0 -75 11.5 -102.5t39.5 -27.5q27 0 39 28t11 102z" />
    <glyph glyph-name="Uhorn" unicode="&#x1af;" horiz-adv-x="506" 
d="M171 234q0 -60 17 -86t50 -26q69 0 69 112v466h69q24 0 33 4t14 12q1 2 2 16t1 28v8v5t-0.5 5.5t-0.5 10.5h90v-28q0 -26 -1 -43.5t-4 -30t-7 -21t-10 -17.5q-20 -24 -52 -33v-389q0 -67 -17.5 -114.5t-47.5 -73t-64 -36.5t-74 -11t-73.5 11.5t-63.5 36.5t-47 73t-17 114
v473h134v-466v0z" />
    <glyph glyph-name="uhorn" unicode="&#x1b0;" horiz-adv-x="404" 
d="M243 500h57q18 1 25.5 5t11.5 11q0 2 1 15t1 27v7.5v4.5t-0.5 5.5t-0.5 10.5h87v-24q0 -25 -1 -42t-3.5 -29.5t-6.5 -21t-10 -17.5q-9 -11 -20.5 -18.5t-27.5 -12.5v-421h-78l-17 45q-36 -54 -105 -54q-53 0 -90 42t-37 134v333h112v-277q0 -74 12 -102t39 -28
q25 0 38 22t13 78v307z" />
    <glyph glyph-name="uni1EA0" unicode="&#x1ea0;" horiz-adv-x="509" 
d="M212 -153v108h75v-108h-75zM347 0l-31 155h-122l-32 -155h-134l141 700h171l141 -700h-134zM208 289h92l-46 259z" />
    <glyph glyph-name="uni1EA1" unicode="&#x1ea1;" 
d="M155 -153v108h75v-108h-75zM276 500h78v-500h-78l-14 44q-34 -52 -104 -52q-24 0 -46 9t-42 28.5t-31.5 55t-11.5 83.5v165q0 48 11.5 83.5t31.5 55t42 28.5t46 9q69 0 103 -50zM140 277v-53q0 -75 11.5 -102.5t39.5 -27.5t39.5 27.5t10.5 102.5v53q0 74 -12 102t-38 28
q-27 0 -39 -27.5t-12 -102.5z" />
    <glyph glyph-name="uni1EA2" unicode="&#x1ea2;" horiz-adv-x="509" 
d="M254 941q36 0 54 -21t16 -69q-1 -23 -9.5 -34.5t-17.5 -19.5l-9 -5h-1q-1 -3 -1 -10v-40h-58v26q0 22 2 35.5t16 26.5q8 6 14 11.5t6 11.5q2 32 -14 32q-13 0 -18 -13t-4 -42h-56q-3 58 19 84.5t58 26.5h3zM347 0l-31 155h-122l-32 -155h-134l141 700h171l141 -700h-134z
M208 289h92l-46 259z" />
    <glyph glyph-name="uni1EA3" unicode="&#x1ea3;" 
d="M214 747q36 0 54 -21t16 -69q-1 -23 -9.5 -34.5t-17.5 -19.5l-9 -5h-1q-1 -3 -1 -10v-40h-58v26q0 22 2 35.5t16 26.5q8 6 14 11.5t6 11.5q2 32 -14 32q-13 0 -18 -13t-4 -42h-56q-3 58 19 84.5t58 26.5h3zM276 500h78v-500h-78l-14 44q-34 -52 -104 -52q-24 0 -46 9
t-42 28.5t-31.5 55t-11.5 83.5v165q0 48 11.5 83.5t31.5 55t42 28.5t46 9q69 0 103 -50zM140 277v-53q0 -75 11.5 -102.5t39.5 -27.5t39.5 27.5t10.5 102.5v53q0 74 -12 102t-38 28q-27 0 -39 -27.5t-12 -102.5z" />
    <glyph glyph-name="uni1EA8" unicode="&#x1ea8;" horiz-adv-x="509" 
d="M380 1055q36 0 54 -21t16 -69q-1 -23 -9.5 -34.5t-17.5 -19.5l-9 -5h-1q-1 -3 -1 -10v-40h-58v26q0 22 2 35.5t16 26.5q8 6 14 11.5t6 11.5q2 32 -14 32q-13 0 -18 -13t-4 -42h-56q-3 58 19 84.5t58 26.5h3zM169 700h171l141 -700h-134l-31 155h-122l-32 -155h-134z
M300 289l-46 259l-46 -259h92zM215 903h74l83 -161h-80l-39 81l-36 -81h-80z" />
    <glyph glyph-name="uni1EA9" unicode="&#x1ea9;" 
d="M335 861q36 0 54 -21t16 -69q-1 -23 -9.5 -34.5t-17.5 -19.5l-9 -5h-1q-1 -3 -1 -10v-40h-58v26q0 22 2 35.5t16 26.5q8 6 14 11.5t6 11.5q2 32 -14 32q-13 0 -18 -13t-4 -42h-56q-3 58 19 84.5t58 26.5h3zM276 500h78v-500h-78l-14 44q-34 -52 -104 -52q-24 0 -46 9
t-42 28.5t-31.5 55t-11.5 83.5v165q0 48 11.5 83.5t31.5 55t42 28.5t46 9q69 0 103 -50zM140 277v-53q0 -75 11.5 -102.5t39.5 -27.5t39.5 27.5t10.5 102.5v53q0 74 -12 102t-38 28q-27 0 -39 -27.5t-12 -102.5zM170 709h74l83 -161h-80l-39 81l-36 -81h-80z" />
    <glyph glyph-name="uni1EB2" unicode="&#x1eb2;" horiz-adv-x="509" 
d="M251 1107q36 0 54 -21t16 -69q-1 -23 -9.5 -34.5t-17.5 -19.5l-9 -5h-1q-1 -3 -1 -10v-40h-58v26q0 22 2 35.5t16 26.5q8 6 14 11.5t6 11.5q2 32 -14 32q-13 0 -18 -13t-4 -42h-56q-3 58 19 84.5t58 26.5h3zM169 700h171l141 -700h-134l-31 155h-122l-32 -155h-134z
M300 289l-46 259l-46 -259h92zM355 879q0 -59 -25 -98t-77 -39q-27 0 -46.5 10.5t-31.5 29t-17.5 43.5t-5.5 54h65q0 -13 1 -25.5t5 -22t11 -15.5t19 -6q25 0 31.5 21.5t6.5 47.5h64z" />
    <glyph glyph-name="uni1EB3" unicode="&#x1eb3;" 
d="M211 913q36 0 54 -21t16 -69q-1 -23 -9.5 -34.5t-17.5 -19.5l-9 -5h-1q-1 -3 -1 -10v-40h-58v26q0 22 2 35.5t16 26.5q8 6 14 11.5t6 11.5q2 32 -14 32q-13 0 -18 -13t-4 -42h-56q-3 58 19 84.5t58 26.5h3zM27 168v165q0 48 11.5 83.5t31.5 55t42 28.5t46 9q69 0 103 -50
l15 41h78v-500h-78l-14 44q-34 -52 -104 -52q-24 0 -46 9t-42 28.5t-31.5 55t-11.5 83.5zM241 224v53q0 74 -12 102t-38 28q-27 0 -39 -27.5t-12 -102.5v-53q0 -75 11.5 -102.5t39.5 -27.5t39.5 27.5t10.5 102.5zM315 685q0 -59 -25 -98t-77 -39q-27 0 -46.5 10.5t-31.5 29
t-17.5 43.5t-5.5 54h65q0 -13 1 -25.5t5 -22t11 -15.5t19 -6q25 0 31.5 21.5t6.5 47.5h64z" />
    <glyph glyph-name="uni1EB8" unicode="&#x1eb8;" horiz-adv-x="359" 
d="M143 -153v108h75v-108h-75zM340 570h-169v-151h159v-130h-159v-159h169v-130h-303v700h303v-130z" />
    <glyph glyph-name="uni1EB9" unicode="&#x1eb9;" horiz-adv-x="379" 
d="M159 -153v108h75v-108h-75zM27 168v165q0 48 14.5 83.5t39 55t52 28.5t57.5 9t57.5 -9t52 -28t39 -55t14.5 -84v-123h-213v-23q0 -52 12.5 -72.5t38.5 -20.5q48 0 50 72h113q-1 -48 -15.5 -83.5t-39 -54t-52 -27.5t-57.5 -9t-57.5 9t-52 28.5t-39 55t-14.5 83.5zM241 293
v28q-1 86 -51 86q-24 0 -37 -19t-13 -67v-28h101z" />
    <glyph glyph-name="uni1EBA" unicode="&#x1eba;" horiz-adv-x="359" 
d="M193 941q36 0 54 -21t16 -69q-1 -23 -9.5 -34.5t-17.5 -19.5l-9 -5h-1q-1 -3 -1 -10v-40h-58v26q0 22 2 35.5t16 26.5q8 6 14 11.5t6 11.5q2 32 -14 32q-13 0 -18 -13t-4 -42h-56q-3 58 19 84.5t58 26.5h3zM340 570h-169v-151h159v-130h-159v-159h169v-130h-303v700h303
v-130z" />
    <glyph glyph-name="uni1EBB" unicode="&#x1ebb;" horiz-adv-x="379" 
d="M203 747q36 0 54 -21t16 -69q-1 -23 -9.5 -34.5t-17.5 -19.5l-9 -5h-1q-1 -3 -1 -10v-40h-58v26q0 22 2 35.5t16 26.5q8 6 14 11.5t6 11.5q2 32 -14 32q-13 0 -18 -13t-4 -42h-56q-3 58 19 84.5t58 26.5h3zM27 168v165q0 48 14.5 83.5t39 55t52 28.5t57.5 9t57.5 -9
t52 -28t39 -55t14.5 -84v-123h-213v-23q0 -52 12.5 -72.5t38.5 -20.5q48 0 50 72h113q-1 -48 -15.5 -83.5t-39 -54t-52 -27.5t-57.5 -9t-57.5 9t-52 28.5t-39 55t-14.5 83.5zM241 293v28q-1 86 -51 86q-24 0 -37 -19t-13 -67v-28h101z" />
    <glyph glyph-name="uni1EC2" unicode="&#x1ec2;" horiz-adv-x="359" 
d="M316 1055q36 0 54 -21t16 -69q-1 -23 -9.5 -34.5t-17.5 -19.5l-9 -5h-1q-1 -3 -1 -10v-40h-58v26q0 22 2 35.5t16 26.5q8 6 14 11.5t6 11.5q2 32 -14 32q-13 0 -18 -13t-4 -42h-56q-3 58 19 84.5t58 26.5h3zM37 700h303v-130h-169v-151h159v-130h-159v-159h169v-130h-303
v700zM151 903h74l83 -161h-80l-39 81l-36 -81h-80z" />
    <glyph glyph-name="uni1EC3" unicode="&#x1ec3;" horiz-adv-x="379" 
d="M316 861q36 0 54 -21t16 -69q-1 -23 -9.5 -34.5t-17.5 -19.5l-9 -5h-1q-1 -3 -1 -10v-40h-58v26q0 22 2 35.5t16 26.5q8 6 14 11.5t6 11.5q2 32 -14 32q-13 0 -18 -13t-4 -42h-56q-3 58 19 84.5t58 26.5h3zM27 168v165q0 48 14.5 83.5t39 55t52 28.5t57.5 9t57.5 -9
t52 -28t39 -55t14.5 -84v-123h-213v-23q0 -52 12.5 -72.5t38.5 -20.5q48 0 50 72h113q-1 -48 -15.5 -83.5t-39 -54t-52 -27.5t-57.5 -9t-57.5 9t-52 28.5t-39 55t-14.5 83.5zM241 293v28q-1 86 -51 86q-24 0 -37 -19t-13 -67v-28h101zM151 709h74l83 -161h-80l-39 81
l-36 -81h-80z" />
    <glyph glyph-name="uni1EC8" unicode="&#x1ec8;" horiz-adv-x="213" 
d="M105 941q36 0 54 -21t16 -69q-1 -23 -9.5 -34.5t-17.5 -19.5l-9 -5h-1q-1 -3 -1 -10v-40h-58v26q0 22 2 35.5t16 26.5q8 6 14 11.5t6 11.5q2 32 -14 32q-13 0 -18 -13t-4 -42h-56q-3 58 19 84.5t58 26.5h3zM37 0v700h139v-700h-139z" />
    <glyph glyph-name="uni1EC9" unicode="&#x1ec9;" horiz-adv-x="187" 
d="M38 0v500h113v-500h-113zM89 747q36 0 54 -21t16 -69q-1 -23 -9.5 -34.5t-17.5 -19.5l-9 -5h-1q-1 -3 -1 -10v-40h-58v26q0 22 2 35.5t16 26.5q8 6 14 11.5t6 11.5q2 32 -14 32q-13 0 -18 -13t-4 -42h-56q-3 58 19 84.5t58 26.5h3z" />
    <glyph glyph-name="uni1ECA" unicode="&#x1eca;" horiz-adv-x="213" 
d="M70 -153v108h75v-108h-75zM37 0v700h139v-700h-139z" />
    <glyph glyph-name="uni1ECB" unicode="&#x1ecb;" horiz-adv-x="187" 
d="M60 -153v108h75v-108h-75zM33 567v111h122v-111h-122zM38 0v500h113v-500h-113z" />
    <glyph glyph-name="uni1ECC" unicode="&#x1ecc;" horiz-adv-x="478" 
d="M202 -153v108h75v-108h-75zM33 234v233q0 66 17.5 115t48 75.5t65.5 39t75 12.5q39 0 73.5 -12t65.5 -38.5t49 -75.5t18 -116v-233q0 -67 -18 -116t-49 -75.5t-65.5 -38.5t-73.5 -12q-40 0 -75 12.5t-65.5 39t-48 75.5t-17.5 115zM308 241v220q0 118 -69 118t-69 -118
v-220q0 -119 69 -119t69 119z" />
    <glyph glyph-name="uni1ECD" unicode="&#x1ecd;" horiz-adv-x="381" 
d="M157 -153v108h75v-108h-75zM27 168v165q0 48 14.5 83.5t39 55t52 28.5t57.5 9t57.5 -9t52.5 -28t39.5 -55t14.5 -84v-165q0 -48 -14.5 -84t-39.5 -55t-52.5 -28t-57.5 -9t-57.5 9t-52 28.5t-39 55t-14.5 83.5zM241 224v53q0 74 -12 102t-39 28t-38.5 -27.5t-11.5 -102.5
v-53q0 -75 11.5 -102.5t39.5 -27.5q27 0 39 28t11 102z" />
    <glyph glyph-name="uni1ECE" unicode="&#x1ece;" horiz-adv-x="478" 
d="M33 234v233q0 66 17.5 115t48 75.5t65.5 39t75 12.5q39 0 73.5 -12t65.5 -38.5t49 -75.5t18 -116v-233q0 -67 -18 -116t-49 -75.5t-65.5 -38.5t-73.5 -12q-40 0 -75 12.5t-65.5 39t-48 75.5t-17.5 115zM308 241v220q0 118 -69 118t-69 -118v-220q0 -119 69 -119t69 119z
M246 941q36 0 54 -21t16 -69q-1 -23 -9.5 -34.5t-17.5 -19.5l-9 -5h-1q-1 -3 -1 -10v-40h-58v26q0 22 2 35.5t16 26.5q8 6 14 11.5t6 11.5q2 32 -14 32q-13 0 -18 -13t-4 -42h-56q-3 58 19 84.5t58 26.5h3z" />
    <glyph glyph-name="uni1ECF" unicode="&#x1ecf;" horiz-adv-x="381" 
d="M27 168v165q0 48 14.5 83.5t39 55t52 28.5t57.5 9t57.5 -9t52.5 -28t39.5 -55t14.5 -84v-165q0 -48 -14.5 -84t-39.5 -55t-52.5 -28t-57.5 -9t-57.5 9t-52 28.5t-39 55t-14.5 83.5zM241 224v53q0 74 -12 102t-39 28t-38.5 -27.5t-11.5 -102.5v-53q0 -75 11.5 -102.5
t39.5 -27.5q27 0 39 28t11 102zM193 747q36 0 54 -21t16 -69q-1 -23 -9.5 -34.5t-17.5 -19.5l-9 -5h-1q-1 -3 -1 -10v-40h-58v26q0 22 2 35.5t16 26.5q8 6 14 11.5t6 11.5q2 32 -14 32q-13 0 -18 -13t-4 -42h-56q-3 58 19 84.5t58 26.5h3z" />
    <glyph glyph-name="uni1ED4" unicode="&#x1ed4;" horiz-adv-x="478" 
d="M364 1055q36 0 54 -21t16 -69q-1 -23 -9.5 -34.5t-17.5 -19.5l-9 -5h-1q-1 -3 -1 -10v-40h-58v26q0 22 2 35.5t16 26.5q8 6 14 11.5t6 11.5q2 32 -14 32q-13 0 -18 -13t-4 -42h-56q-3 58 19 84.5t58 26.5h3zM33 234v233q0 66 17.5 115t48 75.5t65.5 39t75 12.5
q39 0 73.5 -12t65.5 -38.5t49 -75.5t18 -116v-233q0 -67 -18 -116t-49 -75.5t-65.5 -38.5t-73.5 -12q-40 0 -75 12.5t-65.5 39t-48 75.5t-17.5 115zM308 241v220q0 118 -69 118t-69 -118v-220q0 -119 69 -119t69 119zM199 903h74l83 -161h-80l-39 81l-36 -81h-80z" />
    <glyph glyph-name="uni1ED5" unicode="&#x1ed5;" horiz-adv-x="381" 
d="M317 861q36 0 54 -21t16 -69q-1 -23 -9.5 -34.5t-17.5 -19.5l-9 -5h-1q-1 -3 -1 -10v-40h-58v26q0 22 2 35.5t16 26.5q8 6 14 11.5t6 11.5q2 32 -14 32q-13 0 -18 -13t-4 -42h-56q-3 58 19 84.5t58 26.5h3zM27 168v165q0 48 14.5 83.5t39 55t52 28.5t57.5 9t57.5 -9
t52.5 -28t39.5 -55t14.5 -84v-165q0 -48 -14.5 -84t-39.5 -55t-52.5 -28t-57.5 -9t-57.5 9t-52 28.5t-39 55t-14.5 83.5zM241 224v53q0 74 -12 102t-39 28t-38.5 -27.5t-11.5 -102.5v-53q0 -75 11.5 -102.5t39.5 -27.5q27 0 39 28t11 102zM152 709h74l83 -161h-80l-39 81
l-36 -81h-80z" />
    <glyph glyph-name="uni1EDE" unicode="&#x1ede;" horiz-adv-x="478" 
d="M246 941q36 0 54 -21t16 -69q-1 -23 -9.5 -34.5t-17.5 -19.5l-9 -5h-1q-1 -3 -1 -10v-40h-58v26q0 22 2 35.5t16 26.5q8 6 14 11.5t6 11.5q2 32 -14 32q-13 0 -18 -13t-4 -42h-56q-3 58 19 84.5t58 26.5h3zM33 234v233q0 66 17.5 115t48 75.5t65.5 39t75 12.5q34 0 65 -9
h27q24 0 33 4t14 12q1 2 2 16t1 28v8v5t-0.5 5.5t-0.5 10.5h90v-28q0 -26 -1 -43.5t-4 -30t-7 -21t-10 -17.5q-14 -18 -39 -29q10 -16 18 -37q18 -49 18 -116v-233q0 -67 -18 -116t-49 -75.5t-65.5 -38.5t-73.5 -12q-40 0 -75 12.5t-65.5 39t-48 75.5t-17.5 115zM308 241
v220q0 118 -69 118t-69 -118v-220q0 -119 69 -119t69 119z" />
    <glyph glyph-name="uni1EDF" unicode="&#x1edf;" horiz-adv-x="381" 
d="M193 747q36 0 54 -21t16 -69q-1 -23 -9.5 -34.5t-17.5 -19.5l-9 -5h-1q-1 -3 -1 -10v-40h-58v26q0 22 2 35.5t16 26.5q8 6 14 11.5t6 11.5q2 32 -14 32q-13 0 -18 -13t-4 -42h-56q-3 58 19 84.5t58 26.5h3zM27 168v165q0 48 14.5 83.5t39 55t52 28.5t57.5 9t57 -9h3
q23 0 32 4t13 12q0 2 1 15t1 27v7.5v4.5t-0.5 5.5t-0.5 10.5h87v-24q0 -25 -1 -42t-3.5 -29.5t-6.5 -21t-10 -17.5q-13 -15 -28 -23q3 -6 5 -12q15 -36 15 -84v-165q0 -48 -14.5 -84t-39.5 -55t-52.5 -28t-57.5 -9t-57.5 9t-52 28.5t-39 55t-14.5 83.5zM241 224v53
q0 74 -12 102t-39 28t-38.5 -27.5t-11.5 -102.5v-53q0 -75 11.5 -102.5t39.5 -27.5q27 0 39 28t11 102z" />
    <glyph glyph-name="uni1EE2" unicode="&#x1ee2;" horiz-adv-x="478" 
d="M202 -153v108h75v-108h-75zM33 234v233q0 66 17.5 115t48 75.5t65.5 39t75 12.5q34 0 65 -9h27q24 0 33 4t14 12q1 2 2 16t1 28v8v5t-0.5 5.5t-0.5 10.5h90v-28q0 -26 -1 -43.5t-4 -30t-7 -21t-10 -17.5q-14 -18 -39 -29q10 -16 18 -37q18 -49 18 -116v-233
q0 -67 -18 -116t-49 -75.5t-65.5 -38.5t-73.5 -12q-40 0 -75 12.5t-65.5 39t-48 75.5t-17.5 115zM308 241v220q0 118 -69 118t-69 -118v-220q0 -119 69 -119t69 119z" />
    <glyph glyph-name="uni1EE3" unicode="&#x1ee3;" horiz-adv-x="381" 
d="M157 -153v108h75v-108h-75zM27 168v165q0 48 14.5 83.5t39 55t52 28.5t57.5 9t57 -9h3q23 0 32 4t13 12q0 2 1 15t1 27v7.5v4.5t-0.5 5.5t-0.5 10.5h87v-24q0 -25 -1 -42t-3.5 -29.5t-6.5 -21t-10 -17.5q-13 -15 -28 -23q3 -6 5 -12q15 -36 15 -84v-165q0 -48 -14.5 -84
t-39.5 -55t-52.5 -28t-57.5 -9t-57.5 9t-52 28.5t-39 55t-14.5 83.5zM241 224v53q0 74 -12 102t-39 28t-38.5 -27.5t-11.5 -102.5v-53q0 -75 11.5 -102.5t39.5 -27.5q27 0 39 28t11 102z" />
    <glyph glyph-name="uni1EE4" unicode="&#x1ee4;" horiz-adv-x="476" 
d="M171 234q0 -60 17 -86t50 -26q69 0 69 112v466h134v-473q0 -67 -17.5 -114.5t-47.5 -73t-64 -36.5t-74 -11t-73.5 11.5t-63.5 36.5t-47 73t-17 114v473h134v-466zM202 -153v108h75v-108h-75z" />
    <glyph glyph-name="uni1EE5" unicode="&#x1ee5;" horiz-adv-x="384" 
d="M156 -153v108h75v-108h-75zM243 500h113v-500h-78l-17 45q-36 -54 -105 -54q-53 0 -90 42t-37 134v333h112v-277q0 -74 12 -102t39 -28q25 0 38 22t13 78v307z" />
    <glyph glyph-name="uni1EE6" unicode="&#x1ee6;" horiz-adv-x="476" 
d="M238 941q36 0 54 -21t16 -69q-1 -23 -9.5 -34.5t-17.5 -19.5l-9 -5h-1q-1 -3 -1 -10v-40h-58v26q0 22 2 35.5t16 26.5q8 6 14 11.5t6 11.5q2 32 -14 32q-13 0 -18 -13t-4 -42h-56q-3 58 19 84.5t58 26.5h3zM171 234v466h-134v-473q0 -66 17 -114t47 -73t63.5 -36.5
t73.5 -11.5t74 11t64 36.5t47.5 73t17.5 114.5v473h-134v-466q0 -112 -69 -112q-33 0 -50 26t-17 86z" />
    <glyph glyph-name="uni1EE7" unicode="&#x1ee7;" horiz-adv-x="384" 
d="M189 747q36 0 54 -21t16 -69q-1 -23 -9.5 -34.5t-17.5 -19.5l-9 -5h-1q-1 -3 -1 -10v-40h-58v26q0 22 2 35.5t16 26.5q8 6 14 11.5t6 11.5q2 32 -14 32q-13 0 -18 -13t-4 -42h-56q-3 58 19 84.5t58 26.5h3zM243 500h113v-500h-78l-17 45q-36 -54 -105 -54q-53 0 -90 42
t-37 134v333h112v-277q0 -74 12 -102t39 -28q25 0 38 22t13 78v307z" />
    <glyph glyph-name="uni1EEC" unicode="&#x1eec;" horiz-adv-x="506" 
d="M238 941q36 0 54 -21t16 -69q-1 -23 -9.5 -34.5t-17.5 -19.5l-9 -5h-1q-1 -3 -1 -10v-40h-58v26q0 22 2 35.5t16 26.5q8 6 14 11.5t6 11.5q2 32 -14 32q-13 0 -18 -13t-4 -42h-56q-3 58 19 84.5t58 26.5h3zM171 234v466h-134v-473q0 -66 17 -114t47 -73t63.5 -36.5
t73.5 -11.5t74 11t64 36.5t47.5 73t17.5 114.5v389q32 9 52 33q6 9 10 17.5t7 21t4 30t1 43.5v28h-90q0 -7 0.5 -10.5t0.5 -5.5v-5v-8q0 -14 -1 -28t-2 -16q-5 -8 -14 -12t-33 -4h-69v-466q0 -112 -69 -112q-33 0 -50 26t-17 86z" />
    <glyph glyph-name="uni1EED" unicode="&#x1eed;" horiz-adv-x="404" 
d="M189 747q36 0 54 -21t16 -69q-1 -23 -9.5 -34.5t-17.5 -19.5l-9 -5h-1q-1 -3 -1 -10v-40h-58v26q0 22 2 35.5t16 26.5q8 6 14 11.5t6 11.5q2 32 -14 32q-13 0 -18 -13t-4 -42h-56q-3 58 19 84.5t58 26.5h3zM243 500h57q18 1 25.5 5t11.5 11q0 2 1 15t1 27v7.5v4.5
t-0.5 5.5t-0.5 10.5h87v-24q0 -25 -1 -42t-3.5 -29.5t-6.5 -21t-10 -17.5q-9 -11 -20.5 -18.5t-27.5 -12.5v-421h-78l-17 45q-36 -54 -105 -54q-53 0 -90 42t-37 134v333h112v-277q0 -74 12 -102t39 -28q25 0 38 22t13 78v307z" />
    <glyph glyph-name="uni1EF0" unicode="&#x1ef0;" horiz-adv-x="506" 
d="M202 -153v108h75v-108h-75zM171 234q0 -60 17 -86t50 -26q69 0 69 112v466h69q24 0 33 4t14 12q1 2 2 16t1 28v8v5t-0.5 5.5t-0.5 10.5h90v-28q0 -26 -1 -43.5t-4 -30t-7 -21t-10 -17.5q-20 -24 -52 -33v-389q0 -67 -17.5 -114.5t-47.5 -73t-64 -36.5t-74 -11t-73.5 11.5
t-63.5 36.5t-47 73t-17 114v473h134v-466z" />
    <glyph glyph-name="uni1EF1" unicode="&#x1ef1;" horiz-adv-x="404" 
d="M156 -153v108h75v-108h-75zM243 500h57q18 1 25.5 5t11.5 11q0 2 1 15t1 27v7.5v4.5t-0.5 5.5t-0.5 10.5h87v-24q0 -25 -1 -42t-3.5 -29.5t-6.5 -21t-10 -17.5q-9 -11 -20.5 -18.5t-27.5 -12.5v-421h-78l-17 45q-36 -54 -105 -54q-53 0 -90 42t-37 134v333h112v-277
q0 -74 12 -102t39 -28q25 0 38 22t13 78v307z" />
    <glyph glyph-name="uni1EF4" unicode="&#x1ef4;" horiz-adv-x="521" 
d="M223 -153v108h75v-108h-75zM353 700h140l-164 -429v-271h-138v270l-163 430h139l93 -276z" />
    <glyph glyph-name="uni1EF5" unicode="&#x1ef5;" horiz-adv-x="375" 
d="M396 -153v108h75v-108h-75zM238 501h113v-502q-1 -47 -15.5 -81.5t-39 -53t-51.5 -27.5t-57 -9q-36 0 -67.5 11.5t-58 42.5t-33.5 79h114q10 -31 44 -31q25 0 38 18t13 62v28q-30 -38 -87 -38q-53 0 -90 41.5t-37 134.5v324h112v-268q0 -75 12 -103t39 -28t39 28.5
t12 103.5v268z" />
    <glyph glyph-name="uni1EF6" unicode="&#x1ef6;" horiz-adv-x="521" 
d="M264 941q36 0 54 -21t16 -69q-1 -23 -9.5 -34.5t-17.5 -19.5l-9 -5h-1q-1 -3 -1 -10v-40h-58v26q0 22 2 35.5t16 26.5q8 6 14 11.5t6 11.5q2 32 -14 32q-13 0 -18 -13t-4 -42h-56q-3 58 19 84.5t58 26.5h3zM353 700h140l-164 -429v-271h-138v270l-163 430h139l93 -276z
" />
    <glyph glyph-name="uni1EF7" unicode="&#x1ef7;" horiz-adv-x="375" 
d="M185 747q36 0 54 -21t16 -69q-1 -23 -9.5 -34.5t-17.5 -19.5l-9 -5h-1q-1 -3 -1 -10v-40h-58v26q0 22 2 35.5t16 26.5q8 6 14 11.5t6 11.5q2 32 -14 32q-13 0 -18 -13t-4 -42h-56q-3 58 19 84.5t58 26.5h3zM238 501h113v-502q-1 -47 -15.5 -81.5t-39 -53t-51.5 -27.5
t-57 -9q-36 0 -67.5 11.5t-58 42.5t-33.5 79h114q10 -31 44 -31q25 0 38 18t13 62v28q-30 -38 -87 -38q-53 0 -90 41.5t-37 134.5v324h112v-268q0 -75 12 -103t39 -28t39 28.5t12 103.5v268z" />
    <glyph glyph-name="uni1EA4" unicode="&#x1ea4;" horiz-adv-x="509" 
d="M417 860h-75l69 162h87zM169 700h171l141 -700h-134l-31 155h-122l-32 -155h-134zM300 289l-46 259l-46 -259h92zM215 903h74l83 -161h-80l-39 81l-36 -81h-80z" />
    <glyph glyph-name="uni1EA5" unicode="&#x1ea5;" 
d="M372 666h-75l69 162h87zM276 500h78v-500h-78l-14 44q-34 -52 -104 -52q-24 0 -46 9t-42 28.5t-31.5 55t-11.5 83.5v165q0 48 11.5 83.5t31.5 55t42 28.5t46 9q69 0 103 -50zM140 277v-53q0 -75 11.5 -102.5t39.5 -27.5t39.5 27.5t10.5 102.5v53q0 74 -12 102t-38 28
q-27 0 -39 -27.5t-12 -102.5zM170 709h74l83 -161h-80l-39 81l-36 -81h-80z" />
    <glyph glyph-name="uni1EA6" unicode="&#x1ea6;" horiz-adv-x="509" 
d="M279 1023h87l69 -162h-75zM169 700h171l141 -700h-134l-31 155h-122l-32 -155h-134zM300 289l-46 259l-46 -259h92zM215 903h74l83 -161h-80l-39 81l-36 -81h-80z" />
    <glyph glyph-name="uni1EA7" unicode="&#x1ea7;" 
d="M234 829h87l69 -162h-75zM276 500h78v-500h-78l-14 44q-34 -52 -104 -52q-24 0 -46 9t-42 28.5t-31.5 55t-11.5 83.5v165q0 48 11.5 83.5t31.5 55t42 28.5t46 9q69 0 103 -50zM140 277v-53q0 -75 11.5 -102.5t39.5 -27.5t39.5 27.5t10.5 102.5v53q0 74 -12 102t-38 28
q-27 0 -39 -27.5t-12 -102.5zM170 709h74l83 -161h-80l-39 81l-36 -81h-80z" />
    <glyph glyph-name="uni1EAA" unicode="&#x1eaa;" horiz-adv-x="509" 
d="M357 1061q0 -31 -1 -47.5t-5 -29.5q-13 -41 -54 -41q-17 0 -29 2.5t-32 17.5l-3.5 3.5t-2.5 1.5q-6 5 -11.5 9t-8.5 6v-40h-65q0 31 1.5 46t3.5 29q12 43 57 43q11 0 25 -8.5t22 -15.5v1q14 -11 23.5 -18t11.5 -6q1 0 1.5 9t0.5 38h66zM169 700h171l141 -700h-134
l-31 155h-122l-32 -155h-134zM300 289l-46 259l-46 -259h92zM215 903h74l83 -161h-80l-39 81l-36 -81h-80z" />
    <glyph glyph-name="uni1EAB" unicode="&#x1eab;" 
d="M312 867q0 -31 -1 -47.5t-5 -29.5q-13 -41 -54 -41q-17 0 -29 2.5t-32 17.5l-3.5 3.5t-2.5 1.5q-6 5 -11.5 9t-8.5 6v-40h-65q0 31 1.5 46t3.5 29q12 43 57 43q11 0 25 -8.5t22 -15.5v1q14 -11 23.5 -18t11.5 -6q1 0 1.5 9t0.5 38h66zM276 500h78v-500h-78l-14 44
q-34 -52 -104 -52q-24 0 -46 9t-42 28.5t-31.5 55t-11.5 83.5v165q0 48 11.5 83.5t31.5 55t42 28.5t46 9q69 0 103 -50zM140 277v-53q0 -75 11.5 -102.5t39.5 -27.5t39.5 27.5t10.5 102.5v53q0 74 -12 102t-38 28q-27 0 -39 -27.5t-12 -102.5zM170 709h74l83 -161h-80
l-39 81l-36 -81h-80z" />
    <glyph glyph-name="uni1EAC" unicode="&#x1eac;" horiz-adv-x="509" 
d="M212 -153v108h75v-108h-75zM169 700h171l141 -700h-134l-31 155h-122l-32 -155h-134zM300 289l-46 259l-46 -259h92zM215 903h74l83 -161h-80l-39 81l-36 -81h-80z" />
    <glyph glyph-name="uni1EAD" unicode="&#x1ead;" 
d="M155 -153v108h75v-108h-75zM276 500h78v-500h-78l-14 44q-34 -52 -104 -52q-24 0 -46 9t-42 28.5t-31.5 55t-11.5 83.5v165q0 48 11.5 83.5t31.5 55t42 28.5t46 9q69 0 103 -50zM140 277v-53q0 -75 11.5 -102.5t39.5 -27.5t39.5 27.5t10.5 102.5v53q0 74 -12 102t-38 28
q-27 0 -39 -27.5t-12 -102.5zM170 709h74l83 -161h-80l-39 81l-36 -81h-80z" />
    <glyph glyph-name="uni1EAE" unicode="&#x1eae;" horiz-adv-x="509" 
d="M278 910h-75l69 162h87zM169 700h171l141 -700h-134l-31 155h-122l-32 -155h-134zM300 289l-46 259l-46 -259h92zM355 879q0 -59 -25 -98t-77 -39q-27 0 -46.5 10.5t-31.5 29t-17.5 43.5t-5.5 54h65q0 -13 1 -25.5t5 -22t11 -15.5t19 -6q25 0 31.5 21.5t6.5 47.5h64z" />
    <glyph glyph-name="uni1EAF" unicode="&#x1eaf;" 
d="M238 716h-75l69 162h87zM27 168v165q0 48 11.5 83.5t31.5 55t42 28.5t46 9q69 0 103 -50l15 41h78v-500h-78l-14 44q-34 -52 -104 -52q-24 0 -46 9t-42 28.5t-31.5 55t-11.5 83.5zM241 224v53q0 74 -12 102t-38 28q-27 0 -39 -27.5t-12 -102.5v-53q0 -75 11.5 -102.5
t39.5 -27.5t39.5 27.5t10.5 102.5zM315 685q0 -59 -25 -98t-77 -39q-27 0 -46.5 10.5t-31.5 29t-17.5 43.5t-5.5 54h65q0 -13 1 -25.5t5 -22t11 -15.5t19 -6q25 0 31.5 21.5t6.5 47.5h64z" />
    <glyph glyph-name="uni1EB0" unicode="&#x1eb0;" horiz-adv-x="509" 
d="M149 1072h87l69 -162h-75zM169 700h171l141 -700h-134l-31 155h-122l-32 -155h-134zM300 289l-46 259l-46 -259h92zM355 879q0 -59 -25 -98t-77 -39q-27 0 -46.5 10.5t-31.5 29t-17.5 43.5t-5.5 54h65q0 -13 1 -25.5t5 -22t11 -15.5t19 -6q25 0 31.5 21.5t6.5 47.5h64z
" />
    <glyph glyph-name="uni1EB1" unicode="&#x1eb1;" 
d="M109 878h87l69 -162h-75zM27 168v165q0 48 11.5 83.5t31.5 55t42 28.5t46 9q69 0 103 -50l15 41h78v-500h-78l-14 44q-34 -52 -104 -52q-24 0 -46 9t-42 28.5t-31.5 55t-11.5 83.5zM241 224v53q0 74 -12 102t-38 28q-27 0 -39 -27.5t-12 -102.5v-53q0 -75 11.5 -102.5
t39.5 -27.5t39.5 27.5t10.5 102.5zM315 685q0 -59 -25 -98t-77 -39q-27 0 -46.5 10.5t-31.5 29t-17.5 43.5t-5.5 54h65q0 -13 1 -25.5t5 -22t11 -15.5t19 -6q25 0 31.5 21.5t6.5 47.5h64z" />
    <glyph glyph-name="uni1EB4" unicode="&#x1eb4;" horiz-adv-x="509" 
d="M361 1029q0 -31 -1 -47.5t-5 -29.5q-13 -41 -54 -41q-17 0 -29 2.5t-32 17.5l-3.5 3.5t-2.5 1.5q-6 5 -11.5 9t-8.5 6v-40h-65q0 31 1.5 46t3.5 29q12 43 57 43q11 0 25 -8.5t22 -15.5v1q14 -11 23.5 -18t11.5 -6q1 0 1.5 9t0.5 38h66zM169 700h171l141 -700h-134
l-31 155h-122l-32 -155h-134zM300 289l-46 259l-46 -259h92zM355 879q0 -59 -25 -98t-77 -39q-27 0 -46.5 10.5t-31.5 29t-17.5 43.5t-5.5 54h65q0 -13 1 -25.5t5 -22t11 -15.5t19 -6q25 0 31.5 21.5t6.5 47.5h64z" />
    <glyph glyph-name="uni1EB5" unicode="&#x1eb5;" 
d="M321 835q0 -31 -1 -47.5t-5 -29.5q-13 -41 -54 -41q-17 0 -29 2.5t-32 17.5l-3.5 3.5t-2.5 1.5q-6 5 -11.5 9t-8.5 6v-40h-65q0 31 1.5 46t3.5 29q12 43 57 43q11 0 25 -8.5t22 -15.5v1q14 -11 23.5 -18t11.5 -6q1 0 1.5 9t0.5 38h66zM27 168v165q0 48 11.5 83.5t31.5 55
t42 28.5t46 9q69 0 103 -50l15 41h78v-500h-78l-14 44q-34 -52 -104 -52q-24 0 -46 9t-42 28.5t-31.5 55t-11.5 83.5zM241 224v53q0 74 -12 102t-38 28q-27 0 -39 -27.5t-12 -102.5v-53q0 -75 11.5 -102.5t39.5 -27.5t39.5 27.5t10.5 102.5zM315 685q0 -59 -25 -98t-77 -39
q-27 0 -46.5 10.5t-31.5 29t-17.5 43.5t-5.5 54h65q0 -13 1 -25.5t5 -22t11 -15.5t19 -6q25 0 31.5 21.5t6.5 47.5h64z" />
    <glyph glyph-name="uni1EB6" unicode="&#x1eb6;" horiz-adv-x="509" 
d="M212 -153v108h75v-108h-75zM169 700h171l141 -700h-134l-31 155h-122l-32 -155h-134zM300 289l-46 259l-46 -259h92zM355 879q0 -59 -25 -98t-77 -39q-27 0 -46.5 10.5t-31.5 29t-17.5 43.5t-5.5 54h65q0 -13 1 -25.5t5 -22t11 -15.5t19 -6q25 0 31.5 21.5t6.5 47.5h64z
" />
    <glyph glyph-name="uni1EB7" unicode="&#x1eb7;" 
d="M155 -153v108h75v-108h-75zM27 168v165q0 48 11.5 83.5t31.5 55t42 28.5t46 9q69 0 103 -50l15 41h78v-500h-78l-14 44q-34 -52 -104 -52q-24 0 -46 9t-42 28.5t-31.5 55t-11.5 83.5zM241 224v53q0 74 -12 102t-38 28q-27 0 -39 -27.5t-12 -102.5v-53q0 -75 11.5 -102.5
t39.5 -27.5t39.5 27.5t10.5 102.5zM315 685q0 -59 -25 -98t-77 -39q-27 0 -46.5 10.5t-31.5 29t-17.5 43.5t-5.5 54h65q0 -13 1 -25.5t5 -22t11 -15.5t19 -6q25 0 31.5 21.5t6.5 47.5h64z" />
    <glyph glyph-name="uni1EBC" unicode="&#x1ebc;" horiz-adv-x="359" 
d="M299 859q0 -31 -1 -47.5t-5 -29.5q-13 -41 -54 -41q-17 0 -29 2.5t-32 17.5l-3.5 3.5t-2.5 1.5q-6 5 -11.5 9t-8.5 6v-40h-65q0 31 1.5 46t3.5 29q12 43 57 43q11 0 25 -8.5t22 -15.5v1q14 -11 23.5 -18t11.5 -6q1 0 1.5 9t0.5 38h66zM340 570h-169v-151h159v-130h-159
v-159h169v-130h-303v700h303v-130z" />
    <glyph glyph-name="uni1EBD" unicode="&#x1ebd;" horiz-adv-x="379" 
d="M295 673q0 -31 -1 -47.5t-5 -29.5q-13 -41 -54 -41q-17 0 -29 2.5t-32 17.5l-3.5 3.5t-2.5 1.5q-6 5 -11.5 9t-8.5 6v-40h-65q0 31 1.5 46t3.5 29q12 43 57 43q11 0 25 -8.5t22 -15.5v1q14 -11 23.5 -18t11.5 -6q1 0 1.5 9t0.5 38h66zM27 168v165q0 48 14.5 83.5t39 55
t52 28.5t57.5 9t57.5 -9t52 -28t39 -55t14.5 -84v-123h-213v-23q0 -52 12.5 -72.5t38.5 -20.5q48 0 50 72h113q-1 -48 -15.5 -83.5t-39 -54t-52 -27.5t-57.5 -9t-57.5 9t-52 28.5t-39 55t-14.5 83.5zM241 293v28q-1 86 -51 86q-24 0 -37 -19t-13 -67v-28h101z" />
    <glyph glyph-name="uni1EBE" unicode="&#x1ebe;" horiz-adv-x="359" 
d="M353 860h-75l69 162h87zM37 700h303v-130h-169v-151h159v-130h-159v-159h169v-130h-303v700zM151 903h74l83 -161h-80l-39 81l-36 -81h-80z" />
    <glyph glyph-name="uni1EBF" unicode="&#x1ebf;" horiz-adv-x="379" 
d="M353 666h-75l69 162h87zM27 168v165q0 48 14.5 83.5t39 55t52 28.5t57.5 9t57.5 -9t52 -28t39 -55t14.5 -84v-123h-213v-23q0 -52 12.5 -72.5t38.5 -20.5q48 0 50 72h113q-1 -48 -15.5 -83.5t-39 -54t-52 -27.5t-57.5 -9t-57.5 9t-52 28.5t-39 55t-14.5 83.5zM241 293v28
q-1 86 -51 86q-24 0 -37 -19t-13 -67v-28h101zM151 709h74l83 -161h-80l-39 81l-36 -81h-80z" />
    <glyph glyph-name="uni1EC0" unicode="&#x1ec0;" horiz-adv-x="359" 
d="M215 1023h87l69 -162h-75zM37 700h303v-130h-169v-151h159v-130h-159v-159h169v-130h-303v700zM151 903h74l83 -161h-80l-39 81l-36 -81h-80z" />
    <glyph glyph-name="uni1EC1" unicode="&#x1ec1;" horiz-adv-x="379" 
d="M215 829h87l69 -162h-75zM27 168v165q0 48 14.5 83.5t39 55t52 28.5t57.5 9t57.5 -9t52 -28t39 -55t14.5 -84v-123h-213v-23q0 -52 12.5 -72.5t38.5 -20.5q48 0 50 72h113q-1 -48 -15.5 -83.5t-39 -54t-52 -27.5t-57.5 -9t-57.5 9t-52 28.5t-39 55t-14.5 83.5zM241 293
v28q-1 86 -51 86q-24 0 -37 -19t-13 -67v-28h101zM151 709h74l83 -161h-80l-39 81l-36 -81h-80z" />
    <glyph glyph-name="uni1EC4" unicode="&#x1ec4;" horiz-adv-x="359" 
d="M293 1061q0 -31 -1 -47.5t-5 -29.5q-13 -41 -54 -41q-17 0 -29 2.5t-32 17.5l-3.5 3.5t-2.5 1.5q-6 5 -11.5 9t-8.5 6v-40h-65q0 31 1.5 46t3.5 29q12 43 57 43q11 0 25 -8.5t22 -15.5v1q14 -11 23.5 -18t11.5 -6q1 0 1.5 9t0.5 38h66zM37 700h303v-130h-169v-151h159
v-130h-159v-159h169v-130h-303v700zM151 903h74l83 -161h-80l-39 81l-36 -81h-80z" />
    <glyph glyph-name="uni1EC5" unicode="&#x1ec5;" horiz-adv-x="379" 
d="M293 867q0 -31 -1 -47.5t-5 -29.5q-13 -41 -54 -41q-17 0 -29 2.5t-32 17.5l-3.5 3.5t-2.5 1.5q-6 5 -11.5 9t-8.5 6v-40h-65q0 31 1.5 46t3.5 29q12 43 57 43q11 0 25 -8.5t22 -15.5v1q14 -11 23.5 -18t11.5 -6q1 0 1.5 9t0.5 38h66zM27 168v165q0 48 14.5 83.5t39 55
t52 28.5t57.5 9t57.5 -9t52 -28t39 -55t14.5 -84v-123h-213v-23q0 -52 12.5 -72.5t38.5 -20.5q48 0 50 72h113q-1 -48 -15.5 -83.5t-39 -54t-52 -27.5t-57.5 -9t-57.5 9t-52 28.5t-39 55t-14.5 83.5zM241 293v28q-1 86 -51 86q-24 0 -37 -19t-13 -67v-28h101zM151 709h74
l83 -161h-80l-39 81l-36 -81h-80z" />
    <glyph glyph-name="uni1EC6" unicode="&#x1ec6;" horiz-adv-x="359" 
d="M143 -153v108h75v-108h-75zM37 700h303v-130h-169v-151h159v-130h-159v-159h169v-130h-303v700zM151 903h74l83 -161h-80l-39 81l-36 -81h-80z" />
    <glyph glyph-name="uni1EC7" unicode="&#x1ec7;" horiz-adv-x="379" 
d="M159 -153v108h75v-108h-75zM27 168v165q0 48 14.5 83.5t39 55t52 28.5t57.5 9t57.5 -9t52 -28t39 -55t14.5 -84v-123h-213v-23q0 -52 12.5 -72.5t38.5 -20.5q48 0 50 72h113q-1 -48 -15.5 -83.5t-39 -54t-52 -27.5t-57.5 -9t-57.5 9t-52 28.5t-39 55t-14.5 83.5zM241 293
v28q-1 86 -51 86q-24 0 -37 -19t-13 -67v-28h101zM151 709h74l83 -161h-80l-39 81l-36 -81h-80z" />
    <glyph glyph-name="uni1ED0" unicode="&#x1ed0;" horiz-adv-x="478" 
d="M401 860h-75l69 162h87zM33 234v233q0 66 17.5 115t48 75.5t65.5 39t75 12.5q39 0 73.5 -12t65.5 -38.5t49 -75.5t18 -116v-233q0 -67 -18 -116t-49 -75.5t-65.5 -38.5t-73.5 -12q-40 0 -75 12.5t-65.5 39t-48 75.5t-17.5 115zM308 241v220q0 118 -69 118t-69 -118v-220
q0 -119 69 -119t69 119zM199 903h74l83 -161h-80l-39 81l-36 -81h-80z" />
    <glyph glyph-name="uni1ED1" unicode="&#x1ed1;" horiz-adv-x="381" 
d="M354 666h-75l69 162h87zM27 168v165q0 48 14.5 83.5t39 55t52 28.5t57.5 9t57.5 -9t52.5 -28t39.5 -55t14.5 -84v-165q0 -48 -14.5 -84t-39.5 -55t-52.5 -28t-57.5 -9t-57.5 9t-52 28.5t-39 55t-14.5 83.5zM241 224v53q0 74 -12 102t-39 28t-38.5 -27.5t-11.5 -102.5v-53
q0 -75 11.5 -102.5t39.5 -27.5q27 0 39 28t11 102zM152 709h74l83 -161h-80l-39 81l-36 -81h-80z" />
    <glyph glyph-name="uni1ED2" unicode="&#x1ed2;" horiz-adv-x="478" 
d="M263 1023h87l69 -162h-75zM33 234v233q0 66 17.5 115t48 75.5t65.5 39t75 12.5q39 0 73.5 -12t65.5 -38.5t49 -75.5t18 -116v-233q0 -67 -18 -116t-49 -75.5t-65.5 -38.5t-73.5 -12q-40 0 -75 12.5t-65.5 39t-48 75.5t-17.5 115zM308 241v220q0 118 -69 118t-69 -118
v-220q0 -119 69 -119t69 119zM199 903h74l83 -161h-80l-39 81l-36 -81h-80z" />
    <glyph glyph-name="uni1ED3" unicode="&#x1ed3;" horiz-adv-x="381" 
d="M216 829h87l69 -162h-75zM27 168v165q0 48 14.5 83.5t39 55t52 28.5t57.5 9t57.5 -9t52.5 -28t39.5 -55t14.5 -84v-165q0 -48 -14.5 -84t-39.5 -55t-52.5 -28t-57.5 -9t-57.5 9t-52 28.5t-39 55t-14.5 83.5zM241 224v53q0 74 -12 102t-39 28t-38.5 -27.5t-11.5 -102.5
v-53q0 -75 11.5 -102.5t39.5 -27.5q27 0 39 28t11 102zM152 709h74l83 -161h-80l-39 81l-36 -81h-80z" />
    <glyph glyph-name="uni1ED6" unicode="&#x1ed6;" horiz-adv-x="478" 
d="M341 1061q0 -31 -1 -47.5t-5 -29.5q-13 -41 -54 -41q-17 0 -29 2.5t-32 17.5l-3.5 3.5t-2.5 1.5q-6 5 -11.5 9t-8.5 6v-40h-65q0 31 1.5 46t3.5 29q12 43 57 43q11 0 25 -8.5t22 -15.5v1q14 -11 23.5 -18t11.5 -6q1 0 1.5 9t0.5 38h66zM33 234v233q0 66 17.5 115t48 75.5
t65.5 39t75 12.5q39 0 73.5 -12t65.5 -38.5t49 -75.5t18 -116v-233q0 -67 -18 -116t-49 -75.5t-65.5 -38.5t-73.5 -12q-40 0 -75 12.5t-65.5 39t-48 75.5t-17.5 115zM308 241v220q0 118 -69 118t-69 -118v-220q0 -119 69 -119t69 119zM199 903h74l83 -161h-80l-39 81
l-36 -81h-80z" />
    <glyph glyph-name="uni1ED7" unicode="&#x1ed7;" horiz-adv-x="381" 
d="M294 867q0 -31 -1 -47.5t-5 -29.5q-13 -41 -54 -41q-17 0 -29 2.5t-32 17.5l-3.5 3.5t-2.5 1.5q-6 5 -11.5 9t-8.5 6v-40h-65q0 31 1.5 46t3.5 29q12 43 57 43q11 0 25 -8.5t22 -15.5v1q14 -11 23.5 -18t11.5 -6q1 0 1.5 9t0.5 38h66zM27 168v165q0 48 14.5 83.5t39 55
t52 28.5t57.5 9t57.5 -9t52.5 -28t39.5 -55t14.5 -84v-165q0 -48 -14.5 -84t-39.5 -55t-52.5 -28t-57.5 -9t-57.5 9t-52 28.5t-39 55t-14.5 83.5zM241 224v53q0 74 -12 102t-39 28t-38.5 -27.5t-11.5 -102.5v-53q0 -75 11.5 -102.5t39.5 -27.5q27 0 39 28t11 102zM152 709
h74l83 -161h-80l-39 81l-36 -81h-80z" />
    <glyph glyph-name="uni1ED8" unicode="&#x1ed8;" horiz-adv-x="478" 
d="M202 -153v108h75v-108h-75zM33 234v233q0 66 17.5 115t48 75.5t65.5 39t75 12.5q39 0 73.5 -12t65.5 -38.5t49 -75.5t18 -116v-233q0 -67 -18 -116t-49 -75.5t-65.5 -38.5t-73.5 -12q-40 0 -75 12.5t-65.5 39t-48 75.5t-17.5 115zM308 241v220q0 118 -69 118t-69 -118
v-220q0 -119 69 -119t69 119zM199 903h74l83 -161h-80l-39 81l-36 -81h-80z" />
    <glyph glyph-name="uni1ED9" unicode="&#x1ed9;" horiz-adv-x="381" 
d="M27 168v165q0 48 14.5 83.5t39 55t52 28.5t57.5 9t57.5 -9t52.5 -28t39.5 -55t14.5 -84v-165q0 -48 -14.5 -84t-39.5 -55t-52.5 -28t-57.5 -9t-57.5 9t-52 28.5t-39 55t-14.5 83.5zM241 224v53q0 74 -12 102t-39 28t-38.5 -27.5t-11.5 -102.5v-53q0 -75 11.5 -102.5
t39.5 -27.5q27 0 39 28t11 102zM152 709h74l83 -161h-80l-39 81l-36 -81h-80zM157 -153v108h75v-108h-75z" />
    <glyph glyph-name="uni1EDA" unicode="&#x1eda;" horiz-adv-x="478" 
d="M267 742h-75l69 162h87zM33 234v233q0 66 17.5 115t48 75.5t65.5 39t75 12.5q34 0 65 -9h27q24 0 33 4t14 12q1 2 2 16t1 28v8v5t-0.5 5.5t-0.5 10.5h90v-28q0 -26 -1 -43.5t-4 -30t-7 -21t-10 -17.5q-14 -18 -39 -29q10 -16 18 -37q18 -49 18 -116v-233q0 -67 -18 -116
t-49 -75.5t-65.5 -38.5t-73.5 -12q-40 0 -75 12.5t-65.5 39t-48 75.5t-17.5 115zM308 241v220q0 118 -69 118t-69 -118v-220q0 -119 69 -119t69 119z" />
    <glyph glyph-name="uni1EDB" unicode="&#x1edb;" horiz-adv-x="381" 
d="M215 548h-75l69 162h87zM27 168v165q0 48 14.5 83.5t39 55t52 28.5t57.5 9t57 -9h3q23 0 32 4t13 12q0 2 1 15t1 27v7.5v4.5t-0.5 5.5t-0.5 10.5h87v-24q0 -25 -1 -42t-3.5 -29.5t-6.5 -21t-10 -17.5q-13 -15 -28 -23q3 -6 5 -12q15 -36 15 -84v-165q0 -48 -14.5 -84
t-39.5 -55t-52.5 -28t-57.5 -9t-57.5 9t-52 28.5t-39 55t-14.5 83.5zM241 224v53q0 74 -12 102t-39 28t-38.5 -27.5t-11.5 -102.5v-53q0 -75 11.5 -102.5t39.5 -27.5q27 0 39 28t11 102z" />
    <glyph glyph-name="uni1EDC" unicode="&#x1edc;" horiz-adv-x="478" 
d="M151 904h87l69 -162h-75zM33 234v233q0 66 17.5 115t48 75.5t65.5 39t75 12.5q34 0 65 -9h27q24 0 33 4t14 12q1 2 2 16t1 28v8v5t-0.5 5.5t-0.5 10.5h90v-28q0 -26 -1 -43.5t-4 -30t-7 -21t-10 -17.5q-14 -18 -39 -29q10 -16 18 -37q18 -49 18 -116v-233q0 -67 -18 -116
t-49 -75.5t-65.5 -38.5t-73.5 -12q-40 0 -75 12.5t-65.5 39t-48 75.5t-17.5 115zM308 241v220q0 118 -69 118t-69 -118v-220q0 -119 69 -119t69 119z" />
    <glyph glyph-name="uni1EDD" unicode="&#x1edd;" horiz-adv-x="381" 
d="M101 710h87l69 -162h-75zM27 168v165q0 48 14.5 83.5t39 55t52 28.5t57.5 9t57 -9h3q23 0 32 4t13 12q0 2 1 15t1 27v7.5v4.5t-0.5 5.5t-0.5 10.5h87v-24q0 -25 -1 -42t-3.5 -29.5t-6.5 -21t-10 -17.5q-13 -15 -28 -23q3 -6 5 -12q15 -36 15 -84v-165q0 -48 -14.5 -84
t-39.5 -55t-52.5 -28t-57.5 -9t-57.5 9t-52 28.5t-39 55t-14.5 83.5zM241 224v53q0 74 -12 102t-39 28t-38.5 -27.5t-11.5 -102.5v-53q0 -75 11.5 -102.5t39.5 -27.5q27 0 39 28t11 102z" />
    <glyph glyph-name="uni1EE0" unicode="&#x1ee0;" horiz-adv-x="478" 
d="M345 859q0 -31 -1 -47.5t-5 -29.5q-13 -41 -54 -41q-17 0 -29 2.5t-32 17.5l-3.5 3.5t-2.5 1.5q-6 5 -11.5 9t-8.5 6v-40h-65q0 31 1.5 46t3.5 29q12 43 57 43q11 0 25 -8.5t22 -15.5v1q14 -11 23.5 -18t11.5 -6q1 0 1.5 9t0.5 38h66zM33 234v233q0 66 17.5 115t48 75.5
t65.5 39t75 12.5q34 0 65 -9h27q24 0 33 4t14 12q1 2 2 16t1 28v8v5t-0.5 5.5t-0.5 10.5h90v-28q0 -26 -1 -43.5t-4 -30t-7 -21t-10 -17.5q-14 -18 -39 -29q10 -16 18 -37q18 -49 18 -116v-233q0 -67 -18 -116t-49 -75.5t-65.5 -38.5t-73.5 -12q-40 0 -75 12.5t-65.5 39
t-48 75.5t-17.5 115zM308 241v220q0 118 -69 118t-69 -118v-220q0 -119 69 -119t69 119z" />
    <glyph glyph-name="uni1EE1" unicode="&#x1ee1;" horiz-adv-x="381" 
d="M277 669q0 -29 -1 -45.5t-5 -29.5q-9 -39 -47 -39q-15 0 -26 2.5t-28 16.5l-3.5 3.5t-2.5 1.5q-10 10 -18 14v-38h-57q0 29 1.5 44t3.5 29q9 41 50 41q10 0 22.5 -8t18.5 -15v1q13 -10 21.5 -17t10.5 -6q1 0 1.5 9t0.5 36h58zM27 168v165q0 48 14.5 83.5t39 55t52 28.5
t57.5 9t57 -9h3q23 0 32 4t13 12q0 2 1 15t1 27v7.5v4.5t-0.5 5.5t-0.5 10.5h87v-24q0 -25 -1 -42t-3.5 -29.5t-6.5 -21t-10 -17.5q-13 -15 -28 -23q3 -6 5 -12q15 -36 15 -84v-165q0 -48 -14.5 -84t-39.5 -55t-52.5 -28t-57.5 -9t-57.5 9t-52 28.5t-39 55t-14.5 83.5z
M241 224v53q0 74 -12 102t-39 28t-38.5 -27.5t-11.5 -102.5v-53q0 -75 11.5 -102.5t39.5 -27.5q27 0 39 28t11 102z" />
    <glyph glyph-name="uni1EE8" unicode="&#x1ee8;" horiz-adv-x="506" 
d="M256 742h-75l69 162h87zM171 234q0 -60 17 -86t50 -26q69 0 69 112v466h69q24 0 33 4t14 12q1 2 2 16t1 28v8v5t-0.5 5.5t-0.5 10.5h90v-28q0 -26 -1 -43.5t-4 -30t-7 -21t-10 -17.5q-20 -24 -52 -33v-389q0 -67 -17.5 -114.5t-47.5 -73t-64 -36.5t-74 -11t-73.5 11.5
t-63.5 36.5t-47 73t-17 114v473h134v-466z" />
    <glyph glyph-name="uni1EE9" unicode="&#x1ee9;" horiz-adv-x="404" 
d="M215 548h-75l69 162h87zM243 500h57q18 1 25.5 5t11.5 11q0 2 1 15t1 27v7.5v4.5t-0.5 5.5t-0.5 10.5h87v-24q0 -25 -1 -42t-3.5 -29.5t-6.5 -21t-10 -17.5q-9 -11 -20.5 -18.5t-27.5 -12.5v-421h-78l-17 45q-36 -54 -105 -54q-53 0 -90 42t-37 134v333h112v-277
q0 -74 12 -102t39 -28q25 0 38 22t13 78v307z" />
    <glyph glyph-name="uni1EEA" unicode="&#x1eea;" horiz-adv-x="506" 
d="M151 904h87l69 -162h-75zM171 234v466h-134v-473q0 -66 17 -114t47 -73t63.5 -36.5t73.5 -11.5t74 11t64 36.5t47.5 73t17.5 114.5v389q32 9 52 33q6 9 10 17.5t7 21t4 30t1 43.5v28h-90q0 -7 0.5 -10.5t0.5 -5.5v-5v-8q0 -14 -1 -28t-2 -16q-5 -8 -14 -12t-33 -4h-69
v-466q0 -112 -69 -112q-33 0 -50 26t-17 86z" />
    <glyph glyph-name="uni1EEB" unicode="&#x1eeb;" horiz-adv-x="404" 
d="M101 710h87l69 -162h-75zM243 500h57q18 1 25.5 5t11.5 11q0 2 1 15t1 27v7.5v4.5t-0.5 5.5t-0.5 10.5h87v-24q0 -25 -1 -42t-3.5 -29.5t-6.5 -21t-10 -17.5q-9 -11 -20.5 -18.5t-27.5 -12.5v-421h-78l-17 45q-36 -54 -105 -54q-53 0 -90 42t-37 134v333h112v-277
q0 -74 12 -102t39 -28q25 0 38 22t13 78v307z" />
    <glyph glyph-name="uni1EEE" unicode="&#x1eee;" horiz-adv-x="506" 
d="M348 859q0 -31 -1 -47.5t-5 -29.5q-13 -41 -54 -41q-17 0 -29 2.5t-32 17.5l-3.5 3.5t-2.5 1.5q-6 5 -11.5 9t-8.5 6v-40h-65q0 31 1.5 46t3.5 29q12 43 57 43q11 0 25 -8.5t22 -15.5v1q14 -11 23.5 -18t11.5 -6q1 0 1.5 9t0.5 38h66zM171 234v466h-134v-473
q0 -66 17 -114t47 -73t63.5 -36.5t73.5 -11.5t74 11t64 36.5t47.5 73t17.5 114.5v389q32 9 52 33q6 9 10 17.5t7 21t4 30t1 43.5v28h-90q0 -7 0.5 -10.5t0.5 -5.5v-5v-8q0 -14 -1 -28t-2 -16q-5 -8 -14 -12t-33 -4h-69v-466q0 -112 -69 -112q-33 0 -50 26t-17 86z" />
    <glyph glyph-name="uni1EEF" unicode="&#x1eef;" horiz-adv-x="404" 
d="M297 673q0 -31 -1 -47.5t-5 -29.5q-13 -41 -54 -41q-17 0 -29 2.5t-32 17.5l-3.5 3.5t-2.5 1.5q-6 5 -11.5 9t-8.5 6v-40h-65q0 31 1.5 46t3.5 29q12 43 57 43q11 0 25 -8.5t22 -15.5v1q14 -11 23.5 -18t11.5 -6q1 0 1.5 9t0.5 38h66zM243 500h57q18 1 25.5 5t11.5 11
q0 2 1 15t1 27v7.5v4.5t-0.5 5.5t-0.5 10.5h87v-24q0 -25 -1 -42t-3.5 -29.5t-6.5 -21t-10 -17.5q-9 -11 -20.5 -18.5t-27.5 -12.5v-421h-78l-17 45q-36 -54 -105 -54q-53 0 -90 42t-37 134v333h112v-277q0 -74 12 -102t39 -28q25 0 38 22t13 78v307z" />
    <glyph glyph-name="Ygrave" unicode="&#x1ef2;" horiz-adv-x="521" 
d="M163 904h87l69 -162h-75zM353 700h140l-164 -429v-271h-138v270l-163 430h139l93 -276z" />
    <glyph glyph-name="ygrave" unicode="&#x1ef3;" horiz-adv-x="375" 
d="M97 710h87l69 -162h-75zM238 501h113v-502q-1 -47 -15.5 -81.5t-39 -53t-51.5 -27.5t-57 -9q-36 0 -67.5 11.5t-58 42.5t-33.5 79h114q10 -31 44 -31q25 0 38 18t13 62v28q-30 -38 -87 -38q-53 0 -90 41.5t-37 134.5v324h112v-268q0 -75 12 -103t39 -28t39 28.5t12 103.5
v268z" />
    <glyph glyph-name="uni1EF8" unicode="&#x1ef8;" horiz-adv-x="521" 
d="M366 859q0 -31 -1 -47.5t-5 -29.5q-13 -41 -54 -41q-17 0 -29 2.5t-32 17.5l-3.5 3.5t-2.5 1.5q-6 5 -11.5 9t-8.5 6v-40h-65q0 31 1.5 46t3.5 29q12 43 57 43q11 0 25 -8.5t22 -15.5v1q14 -11 23.5 -18t11.5 -6q1 0 1.5 9t0.5 38h66zM353 700h140l-164 -429v-271h-138
v270l-163 430h139l93 -276z" />
    <glyph glyph-name="uni1EF9" unicode="&#x1ef9;" horiz-adv-x="375" 
d="M295 673q0 -31 -1 -47.5t-5 -29.5q-13 -41 -54 -41q-17 0 -29 2.5t-32 17.5l-3.5 3.5t-2.5 1.5q-6 5 -11.5 9t-8.5 6v-40h-65q0 31 1.5 46t3.5 29q12 43 57 43q11 0 25 -8.5t22 -15.5v1q14 -11 23.5 -18t11.5 -6q1 0 1.5 9t0.5 38h66zM238 501h113v-502
q-1 -47 -15.5 -81.5t-39 -53t-51.5 -27.5t-57 -9q-36 0 -67.5 11.5t-58 42.5t-33.5 79h114q10 -31 44 -31q25 0 38 18t13 62v28q-30 -38 -87 -38q-53 0 -90 41.5t-37 134.5v324h112v-268q0 -75 12 -103t39 -28t39 28.5t12 103.5v268z" />
    <glyph glyph-name="uni1EFB" unicode="&#x1efb;" horiz-adv-x="0" 
d="M263 947q39 0 58.5 -23t17.5 -74q-1 -24 -10 -36.5t-19 -21.5l-10 -5h-1q-1 -3 -1 -11v-43h-63v28q0 23 2.5 38t17.5 29q8 6 14.5 12t6.5 13q2 34 -15 34q-14 0 -19 -13.5t-4 -45.5h-61q-3 63 21 91t62 28h3z" />
    </font>
</defs>
</svg>
