<?xml version="1.0" standalone="no"?>
<!DOCTYPE svg PUBLIC "-//W3C//DTD SVG 1.1//EN" "http://www.w3.org/Graphics/SVG/1.1/DTD/svg11.dtd" >
<svg xmlns="http://www.w3.org/2000/svg" xmlns:xlink="http://www.w3.org/1999/xlink" version="1.1">
<metadata>
Created by FontForge 20171206 at Wed Jan  2 14:17:47 2019
 By fw_worker
Copyright (c) 2012 by Mariya Pigoulevskaya. All rights reserved.
</metadata>
<defs>
<font id="SVN-Neusa" horiz-adv-x="396" >
  <font-face 
    font-family="SVN-Neusa"
    font-weight="400"
    font-stretch="normal"
    units-per-em="1000"
    panose-1="0 0 5 0 0 0 0 0 0 0"
    ascent="750"
    descent="-250"
    x-height="500"
    cap-height="700"
    bbox="-50 -187 840 1052"
    underline-thickness="50"
    underline-position="-100"
    unicode-range="U+0020-FB02"
  />
<missing-glyph horiz-adv-x="250" 
 />
    <glyph glyph-name=".notdef" horiz-adv-x="250" 
 />
    <glyph glyph-name="NULL" horiz-adv-x="0" 
 />
    <glyph glyph-name="nonmarkingreturn" horiz-adv-x="333" 
 />
    <glyph glyph-name="space" unicode=" " horiz-adv-x="233" 
 />
    <glyph glyph-name="exclam" unicode="!" horiz-adv-x="146" 
d="M53 701h39v-241l-5 -308h-29l-5 308v241zM50 0v46h46v-46h-46z" />
    <glyph glyph-name="quotedbl" unicode="&#x22;" horiz-adv-x="221" 
d="M46 700h40l-7 -165h-27zM136 700h40l-7 -165h-27z" />
    <glyph glyph-name="numbersign" unicode="#" horiz-adv-x="665" 
d="M610 416h-146l-32 -153h146l-11 -41h-146l-50 -222h-43l49 222h-148l-49 -222h-44l49 222h-141l11 41h141l32 153h-140l11 41h141l54 243h44l-54 -243h147l55 243h43l-54 -243h146zM388 263l32 153h-148l-32 -153h148z" />
    <glyph glyph-name="dollar" unicode="$" horiz-adv-x="512" 
d="M452 493h-41q0 88 -44 131.5t-105.5 43.5t-103.5 -33t-42 -100q1 -21 6.5 -38.5t13 -30.5t21 -24t23.5 -18t26.5 -13.5t25 -9.5t24 -7.5t19.5 -5.5q96 -29 140 -75.5t44 -122.5q0 -94 -48 -141.5t-128 -53.5v-45h-43v44q-34 2 -65.5 15t-59.5 37t-45 65.5t-17 95.5h42
q0 -47 14.5 -82t39 -54.5t51.5 -28.5t56 -9q73 0 117 38.5t44 115.5q0 66 -41 102t-115 59q-3 1 -10 3q-20 7 -32 10.5t-33 12.5t-34 17.5t-29.5 23t-26 30.5t-16 39t-6.5 49q0 83 47.5 125t118.5 48v44h43v-44q33 -3 62 -16.5t53.5 -38t39 -65t14.5 -93.5z" />
    <glyph glyph-name="percent" unicode="%" horiz-adv-x="649" 
d="M50 483v124q0 28 10.5 49t27.5 31.5t33 15t31 4.5q22 0 43.5 -8.5t39.5 -32t18 -59.5v-124q0 -27 -10 -47.5t-26 -31t-32.5 -15.5t-32.5 -6q-15 0 -31 5t-33 15.5t-27.5 31t-10.5 48.5zM511 700h38l-412 -700h-37zM221 482v126q0 34 -21.5 51t-47.5 17q-25 0 -47.5 -16.5
t-22.5 -51.5v-126q0 -35 22.5 -51.5t47.5 -16.5q26 1 47.5 17.5t21.5 50.5zM395 93v124q0 28 11 49t27.5 31t32.5 15t31 5q22 0 44 -8.5t40 -32.5t18 -59v-124q0 -27 -10.5 -47.5t-26.5 -31.5t-32.5 -16t-32.5 -5q-15 0 -31 5t-32.5 15t-27.5 31t-11 49zM566 92v126
q0 34 -21.5 51t-47.5 17q-25 0 -47.5 -16.5t-22.5 -51.5v-126q0 -35 22.5 -51t47.5 -17q26 0 47.5 17t21.5 51z" />
    <glyph glyph-name="ampersand" unicode="&#x26;" horiz-adv-x="553" 
d="M511 381v-40h-41v-156q0 -57 -16 -96t-45 -59t-61.5 -28.5t-75.5 -9.5h-20q-88 0 -149.5 49t-61.5 139v16q0 64 32 107t89 58q-50 16 -81 55t-31 100v16q0 47 16.5 82.5t45 55.5t61 29.5t68.5 9.5h102v-41h-102q-29 0 -54 -7t-47 -22t-34.5 -43.5t-12.5 -67.5v-7
q0 -38 13.5 -66t36.5 -43.5t50 -23t57 -7.5h178v170h42v-170h41zM428 186v155h-178q-76 0 -121 -38t-45 -112v-8q0 -72 49 -111t119 -39h13q36 0 62.5 6t50.5 21.5t37 47t13 78.5z" />
    <glyph glyph-name="quotesingle" unicode="'" horiz-adv-x="140" 
d="M50 700h40l-6 -165h-28z" />
    <glyph glyph-name="parenleft" unicode="(" horiz-adv-x="248" 
d="M139 750h59v-41h-54q-21 0 -36 -16t-15 -41v-695q0 -24 15 -40t36 -16h54v-41h-59q-38 0 -63.5 26t-25.5 67v704q0 41 25.5 67t63.5 26z" />
    <glyph glyph-name="parenright" unicode=")" horiz-adv-x="248" 
d="M50 750h59q38 0 63.5 -26t25.5 -67v-704q0 -41 -25.5 -67t-63.5 -26h-59v41h54q20 0 35.5 16t15.5 40v695q0 25 -15.5 41t-35.5 16h-54v41z" />
    <glyph glyph-name="asterisk" unicode="*" horiz-adv-x="411" 
d="M186 716h40v-134l125 43l13 -38l-128 -40l79 -108l-32 -23l-77 109l-78 -109l-32 23l80 108l-128 40l12 38l126 -43v134z" />
    <glyph glyph-name="plus" unicode="+" horiz-adv-x="524" 
d="M241 516h43v-191h190v-42h-190v-190h-43v190h-191v42h191v191z" />
    <glyph glyph-name="comma" unicode="," horiz-adv-x="146" 
d="M50 46h46v-46l-20 -43h-15l8 43h-19v46z" />
    <glyph glyph-name="hyphen" unicode="-" horiz-adv-x="348" 
d="M50 290h248v-42h-248v42z" />
    <glyph glyph-name="period" unicode="." horiz-adv-x="146" 
d="M50 0v46h46v-46h-46z" />
    <glyph glyph-name="slash" unicode="/" horiz-adv-x="433" 
d="M44 0l301 700h44l-301 -700h-44z" />
    <glyph glyph-name="zero" unicode="0" horiz-adv-x="515" 
d="M54 234v194q0 66 17.5 115t47 75.5t64 39t74.5 12.5q39 0 73.5 -12.5t64.5 -38.5t48 -75.5t18 -115.5v-194q0 -67 -18 -116t-48 -75.5t-64.5 -38.5t-73.5 -12q-40 0 -74.5 12.5t-64 39t-47 75t-17.5 115.5zM417 243v175q0 60 -13 102.5t-37 65.5t-51 33t-59 10
q-33 0 -60 -10t-50.5 -33t-36.5 -65.5t-13 -102.5v-175q0 -59 13 -101.5t36.5 -65.5t50.5 -33t60 -10q32 0 59 10t51 33t37 65.5t13 101.5z" />
    <glyph glyph-name="one" unicode="1" horiz-adv-x="197" 
d="M142 660v-660h-43v619h-59v41h102z" />
    <glyph glyph-name="two" unicode="2" horiz-adv-x="481" 
d="M238 669h17q33 0 64.5 -11t59.5 -33t45 -61.5t17 -89.5v-3q0 -42 -19 -79t-49 -63.5t-67 -51t-74.5 -49t-68.5 -50.5t-51.5 -61t-22.5 -75h346v-42h-395v28q0 43 15.5 80t40.5 63.5t57.5 51.5t66 44.5t65.5 42.5t57.5 45.5t40.5 52.5t15 65q0 42 -13.5 73.5t-35.5 48.5
t-46 25t-49 8h-9q-55 0 -100.5 -35t-59.5 -108h-44l2 8q8 45 28.5 80t48.5 54.5t57.5 30t60.5 11.5z" />
    <glyph glyph-name="three" unicode="3" horiz-adv-x="492" 
d="M240 669h20q28 0 58 -9.5t59 -28t47.5 -52t18.5 -76.5v-16q0 -55 -31 -92.5t-81 -53.5q56 -15 88.5 -56.5t32.5 -100.5v-16q0 -81 -57.5 -128.5t-134.5 -47.5h-20q-32 0 -63.5 10.5t-60 32t-49 59t-26.5 86.5l-1 4h42q6 -41 23.5 -71.5t41.5 -47.5t49 -24.5t51 -7.5h13
q60 0 104.5 36.5t44.5 102.5v7q0 69 -44.5 105.5t-116.5 36.5h-59v40h59q38 0 71 12t57 43t24 76v7q0 35 -14.5 61.5t-37.5 40.5t-45.5 20.5t-43.5 6.5h-12q-34 0 -65.5 -12.5t-59.5 -45.5t-37 -82h-43l1 5q8 45 28.5 79.5t49 54.5t58.5 30.5t61 11.5z" />
    <glyph glyph-name="four" unicode="4" horiz-adv-x="492" 
d="M452 202v-41h-69v-161h-43v161h-298v46l236 454h44l-236 -459h254v298h43v-298h69z" />
    <glyph glyph-name="five" unicode="5" horiz-adv-x="496" 
d="M75 661h335v-40h-291v-222h89h14h23t24.5 -0.5t28.5 -2.5t25 -5q64 -15 98.5 -60t34.5 -109v-54q0 -81 -57.5 -128.5t-134.5 -47.5h-20q-32 0 -63 10.5t-59.5 31.5t-49 58.5t-27.5 85.5l-1 6h43q6 -41 23 -72t41 -47.5t49.5 -24t51.5 -7.5h12q60 0 104.5 37t44.5 105v46
q0 69 -44.5 104.5t-119.5 35.5h-174v300z" />
    <glyph glyph-name="six" unicode="6" horiz-adv-x="496" 
d="M44 189v239q0 66 18.5 115t49.5 75.5t66.5 39t75.5 12.5q35 0 67 -9.5t61 -29.5t46.5 -57t17.5 -86h-43q0 39 -13.5 67.5t-36 44t-47.5 22.5t-52 7q-34 0 -61.5 -9.5t-52.5 -31.5t-39.5 -64t-14.5 -101v-116q42 88 144 88h46q39 0 70 -12.5t50.5 -33t32.5 -47.5t18 -54
t5 -55q0 -36 -9.5 -69t-29 -64t-56 -49.5t-85.5 -18.5h-47q-46 0 -81 16.5t-56 45t-32 62.5t-12 73zM225 33h46q37 0 64.5 14.5t43 38.5t22.5 50.5t7 56.5t-7 57t-22 51t-43 38.5t-65 14.5h-46q-37 0 -65 -14.5t-43 -38.5t-22.5 -51t-7.5 -57t7.5 -56.5t23 -50.5t43 -38.5
t64.5 -14.5z" />
    <glyph glyph-name="seven" unicode="7" horiz-adv-x="468" 
d="M41 661h380v-34l-280 -627h-45l278 620h-333v41z" />
    <glyph glyph-name="eight" unicode="8" horiz-adv-x="499" 
d="M232 669h34q41 0 81.5 -17.5t71.5 -57t31 -91.5v-15q0 -54 -31 -92t-82 -55q58 -17 90 -57.5t32 -98.5v-16q0 -79 -56.5 -128t-135.5 -49h-35q-79 0 -135.5 49t-56.5 128v16q0 58 32 98.5t89 57.5q-51 17 -81.5 55t-30.5 92v15q0 52 30.5 91.5t71.5 57t81 17.5zM407 492
v7q0 36 -15 62.5t-38 40t-45.5 20t-42.5 6.5h-33q-21 0 -43 -6.5t-45 -20t-38 -40t-15 -62.5v-7q0 -35 13.5 -61t36 -40.5t47.5 -21t52 -6.5h16q27 0 52.5 6.5t48 21t36 40.5t13.5 61zM415 173v8q0 70 -43.5 105.5t-114.5 35.5h-15q-71 0 -115 -35.5t-44 -105.5v-8
q0 -67 45 -103.5t105 -36.5h33q60 0 104.5 36.5t44.5 103.5z" />
    <glyph glyph-name="nine" unicode="9" horiz-adv-x="487" 
d="M447 472v-238q0 -66 -18 -115t-49.5 -75.5t-66.5 -39t-75 -12.5q-35 0 -67 9.5t-61 29.5t-46.5 57t-18.5 86h43q0 -39 13.5 -67.5t36.5 -44t47.5 -22.5t52.5 -7q33 0 61 9.5t53 31t39 64t14 101.5v117q-41 -89 -143 -89h-46q-39 0 -70.5 12.5t-50.5 33t-32 47.5t-18 54
t-5 55q0 36 9 69t28.5 64t56.5 49.5t86 18.5h47q46 0 81 -16.5t56 -45t31.5 -62.5t11.5 -74zM267 629h-46q-37 0 -65 -14.5t-43 -38.5t-22.5 -50.5t-7.5 -56.5t7 -57t22.5 -51t43.5 -38.5t65 -14.5h46q37 0 65 14.5t43 38.5t22 51t7 57t-7 56.5t-22.5 50.5t-43 38.5
t-64.5 14.5z" />
    <glyph glyph-name="colon" unicode=":" horiz-adv-x="146" 
d="M50 334v46h46v-46h-46zM50 0v46h46v-46h-46z" />
    <glyph glyph-name="semicolon" unicode=";" horiz-adv-x="146" 
d="M50 380h46v-46h-46v46zM50 0v46h46v-46l-20 -43h-15l8 43h-19z" />
    <glyph glyph-name="less" unicode="&#x3c;" horiz-adv-x="418" 
d="M50 345l318 194v-46l-257 -162l257 -161v-46l-318 193v28z" />
    <glyph glyph-name="equal" unicode="=" horiz-adv-x="524" 
d="M50 436h424v-42h-424v42zM50 277h424v-42h-424v42z" />
    <glyph glyph-name="greater" unicode="&#x3e;" horiz-adv-x="418" 
d="M50 493v46l318 -194v-28l-318 -193v46l256 161z" />
    <glyph glyph-name="question" unicode="?" horiz-adv-x="500" 
d="M246 708h17q33 0 64.5 -11t60 -33t45.5 -61t17 -90v-2q0 -39 -11 -68.5t-29 -48t-39.5 -33t-43 -28.5t-39 -29t-28.5 -39.5t-11 -55.5h-40q0 37 11 64.5t28.5 45t38.5 32t42 28.5t38.5 30.5t28.5 42.5t11 60q0 42 -13.5 73.5t-35.5 48.5t-46 25t-49 8h-9q-54 0 -100 -35
t-60 -108h-44l1 6q8 45 28.5 80.5t48.5 55.5t57.5 30.5t60.5 11.5zM206 46h46v-46h-46v46z" />
    <glyph glyph-name="at" unicode="@" horiz-adv-x="756" 
d="M519 -112h-148q-93 0 -156 25t-99 77t-51 121t-15 166q0 92 15.5 156.5t52.5 113t102.5 71.5t162.5 23q62 0 111 -9.5t83 -25t58 -41.5t37.5 -53t21.5 -66.5t10 -74t2 -83.5v-152q0 -48 -31.5 -80.5t-81.5 -32.5q-76 0 -96 68q-33 -86 -124 -86q-28 0 -52.5 9t-45.5 28
t-33 54.5t-12 84.5v165q0 48 12 84t33 55t45.5 28t52.5 9q87 0 121 -78l3 69h31v-377q0 -39 13 -58t52 -19q35 0 55 21t20 57v153q0 35 -1 59t-4.5 54t-9.5 50t-16 43t-25 38t-36 29.5t-48.5 23t-63.5 13.5t-81 5q-89 0 -147.5 -20t-91 -63.5t-44.5 -101t-12 -143.5
q0 -71 7 -123.5t26 -97.5t50.5 -73t81.5 -43.5t118 -15.5h148v-36zM267 328v-130q0 -159 112 -159q111 0 111 159v130q0 159 -111 159q-112 0 -112 -159z" />
    <glyph glyph-name="A" unicode="A" horiz-adv-x="544" 
d="M448 0l-65 232h-221l-66 -232h-42l193 700h50l194 -700h-43zM169 275h206l-103 369z" />
    <glyph glyph-name="B" unicode="B" horiz-adv-x="483" 
d="M72 700h157q38 0 72.5 -9t63.5 -28t46.5 -52t17.5 -76v-22q0 -57 -30 -94.5t-81 -54.5q62 -17 95.5 -59t33.5 -107v-21q0 -85 -56 -131t-154 -46h-165v700zM387 512v16q0 66 -45.5 98.5t-113.5 32.5h-114v-278h114q70 0 114.5 33t44.5 98zM404 183v16q0 69 -44 106
t-124 37h-122v-301h122q80 0 124 36t44 106z" />
    <glyph glyph-name="C" unicode="C" horiz-adv-x="509" 
d="M71 234v233q0 67 17.5 115.5t47 75t64 39t74.5 12.5q38 0 70.5 -11t61 -35.5t46.5 -69.5t21 -106v-15h-43v14q-6 98 -49 140t-107 42q-33 0 -60 -10t-50.5 -33t-36.5 -65.5t-13 -101.5v-215q0 -59 13 -101.5t36.5 -65.5t50.5 -33t60 -10q64 0 106 41t50 138v17h43v-13
q-3 -62 -20.5 -107t-46.5 -69.5t-61.5 -36t-70.5 -11.5q-40 0 -74.5 12.5t-64 39t-47 75t-17.5 115.5z" />
    <glyph glyph-name="D" unicode="D" horiz-adv-x="517" 
d="M72 700h175q39 0 73.5 -12t64.5 -38.5t47.5 -75.5t17.5 -116v-216q0 -67 -17.5 -116t-47.5 -75.5t-64.5 -38.5t-73.5 -12h-175v700zM408 251v198q0 59 -13.5 102t-37.5 65.5t-51 32.5t-59 10h-133v-618h133q32 0 59 10t51 33t37.5 65.5t13.5 101.5z" />
    <glyph glyph-name="E" unicode="E" horiz-adv-x="410" 
d="M375 659h-261v-278h251v-41h-251v-299h261v-41h-303v700h303v-41z" />
    <glyph glyph-name="F" unicode="F" horiz-adv-x="404" 
d="M368 659h-254v-286h244v-41h-244v-332h-42v700h296v-41z" />
    <glyph glyph-name="G" unicode="G" horiz-adv-x="545" 
d="M71 234v233q0 67 17.5 115.5t47 75t63.5 39t74 12.5q39 0 72.5 -11.5t63.5 -37.5t47.5 -73t19.5 -111v-11h-42v8q-2 55 -16 94.5t-37.5 60.5t-49.5 30.5t-58 9.5q-33 0 -60 -10t-50 -33t-36 -65.5t-13 -101.5v-215q0 -59 13 -101.5t36 -65.5t50 -33t60 -10t60 10
t50.5 32.5t37 65t13.5 101.5v82h-151v41h193v-131q0 -67 -17.5 -116t-47.5 -75.5t-64 -38.5t-74 -12t-74 12.5t-63.5 39t-47 75t-17.5 115.5z" />
    <glyph glyph-name="H" unicode="H" horiz-adv-x="510" 
d="M396 700h42v-700h-42v340h-282v-340h-42v700h42v-319h282v319z" />
    <glyph glyph-name="I" unicode="I" horiz-adv-x="186" 
d="M72 0v700h43v-700h-43z" />
    <glyph glyph-name="J" unicode="J" horiz-adv-x="330" 
d="M216 700h43v-466q0 -63 -16 -110.5t-42.5 -74.5t-57.5 -41t-67 -16h-22v41h14q30 1 55 12.5t46.5 35t34 65t12.5 97.5v457z" />
    <glyph glyph-name="K" unicode="K" horiz-adv-x="509" 
d="M455 0h-53l-287 338v-338h-43v700h43v-317l265 317h52l-280 -340z" />
    <glyph glyph-name="L" unicode="L" horiz-adv-x="422" 
d="M114 41h254v-41h-296v700h42v-659z" />
    <glyph glyph-name="M" unicode="M" horiz-adv-x="640" 
d="M520 700h48v-700h-41v591l-192 -591h-33l-192 591v-591h-41v700h48l201 -621z" />
    <glyph glyph-name="N" unicode="N" horiz-adv-x="512" 
d="M402 700h41v-700h-42l-291 607v-607h-41v700h42l291 -607v607z" />
    <glyph glyph-name="O" unicode="O" horiz-adv-x="532" 
d="M63 234v233q0 67 17 115.5t47 75t64.5 39t73.5 12.5q40 0 74 -12t64.5 -38.5t48 -75.5t17.5 -116v-233q0 -67 -17.5 -116t-48 -75.5t-64.5 -38.5t-74 -12q-39 0 -73.5 12.5t-64.5 39t-47 75t-17 115.5zM426 243v215q0 59 -13.5 102t-37 65.5t-50.5 32.5t-60 10t-60 -10
t-50 -33t-36 -65.5t-13 -101.5v-215q0 -59 13 -101.5t36 -65.5t50 -33t60 -10t60 10t50.5 33t37 65.5t13.5 101.5z" />
    <glyph glyph-name="P" unicode="P" horiz-adv-x="496" 
d="M72 700h153q38 0 73 -9.5t65.5 -29t48.5 -55t18 -82.5v-34q0 -46 -18 -81t-47.5 -55t-64 -30t-72.5 -10h-114v-314h-42v700zM388 497v19q0 41 -13.5 70.5t-37.5 44.5t-50.5 21.5t-57.5 6.5h-115v-305h115q31 0 57.5 7t50.5 22.5t37.5 44.5t13.5 69z" />
    <glyph glyph-name="Q" unicode="Q" horiz-adv-x="574" 
d="M503 33v-41h-221h-9q-40 0 -74 12.5t-63.5 39t-47 75t-17.5 115.5v233q0 67 17.5 115.5t47 75t63.5 39t74 12.5t74 -12t64 -38.5t47.5 -75.5t17.5 -116v-233q0 -140 -76 -201h103zM114 458v-215q0 -59 13 -101.5t36 -65.5t50 -33t60 -10v0h6q31 1 57.5 11.5t49 33.5
t35.5 65t13 100v215q0 59 -13.5 102t-37 65.5t-50.5 32.5t-60 10t-60 -10t-50 -33t-36 -65.5t-13 -101.5z" />
    <glyph glyph-name="R" unicode="R" horiz-adv-x="498" 
d="M72 700h161q39 0 73.5 -9t65 -28.5t48.5 -55.5t18 -83v-26q0 -70 -39.5 -111t-101.5 -54l147 -333h-45l-143 322h-142v-322h-42v700zM396 506v10q0 42 -13.5 71t-37.5 44t-50 21.5t-58 6.5h-123v-296h123q31 0 58 6.5t50.5 22t37 44.5t13.5 70z" />
    <glyph glyph-name="S" unicode="S" horiz-adv-x="512" 
d="M53 207h42q0 -47 14.5 -82t39 -54.5t51.5 -28.5t56 -9q73 0 117 36.5t44 113.5q0 37 -11.5 64.5t-35 46.5t-48.5 31t-61 23q-4 1 -13 4q-20 6 -31.5 10t-33 13t-34 17.5t-28.5 22.5t-25 30t-15.5 39t-6.5 49q0 47 16 82.5t43.5 55t59.5 29t68 9.5t68.5 -12t61 -36
t45 -67.5t16.5 -100.5h-41q0 88 -44 131.5t-105.5 43.5t-103.5 -33t-42 -100q1 -21 6.5 -39t13 -31t20.5 -24t23.5 -18t26.5 -13.5t25.5 -9t24 -7t18.5 -5.5q98 -30 141.5 -76t43.5 -126q0 -53 -16 -91.5t-44.5 -60.5t-64 -32t-78.5 -10q-37 0 -71 11.5t-64.5 35.5t-49 67.5
t-18.5 100.5z" />
    <glyph glyph-name="T" unicode="T" horiz-adv-x="462" 
d="M409 700v-41h-157v-659h-42v659h-156v41h355z" />
    <glyph glyph-name="U" unicode="U" horiz-adv-x="540" 
d="M114 242q0 -111 44 -160t113 -49q32 0 59 10.5t50 33.5t36 65t13 100v458h42v-467q0 -66 -17 -114.5t-46.5 -75t-63.5 -39t-73 -12.5q-40 0 -74 12.5t-63 39t-45.5 75t-16.5 114.5v467h42v-458v0z" />
    <glyph glyph-name="V" unicode="V" horiz-adv-x="545" 
d="M448 700h43l-193 -700h-51l-193 700h42l176 -632z" />
    <glyph glyph-name="W" unicode="W" horiz-adv-x="816" 
d="M719 700h43l-162 -700h-47l-145 605l-145 -605h-48l-161 700h42l145 -624l146 624h41l147 -624z" />
    <glyph glyph-name="X" unicode="X" horiz-adv-x="506" 
d="M451 700l-172 -348l174 -352h-45l-154 308l-155 -308h-45l173 351l-172 349h45l153 -306l153 306h45z" />
    <glyph glyph-name="Y" unicode="Y" horiz-adv-x="510" 
d="M410 700h46l-182 -407v-293h-43v293l-177 407h45l154 -359z" />
    <glyph glyph-name="Z" unicode="Z" horiz-adv-x="527" 
d="M101 42h373v-42h-421v37l367 622h-359v41h406v-38z" />
    <glyph glyph-name="bracketleft" unicode="[" horiz-adv-x="208" 
d="M158 708h-65v-806h65v-42h-108v890h108v-42z" />
    <glyph glyph-name="backslash" unicode="\" horiz-adv-x="433" 
d="M44 700h44l301 -700h-44z" />
    <glyph glyph-name="bracketright" unicode="]" horiz-adv-x="208" 
d="M50 750h108v-890h-108v42h65v806h-65v42z" />
    <glyph glyph-name="asciicircum" unicode="^" horiz-adv-x="492" 
d="M50 392l196 293l197 -293h-39l-158 238l-158 -238h-38z" />
    <glyph glyph-name="underscore" unicode="_" horiz-adv-x="514" 
d="M50 -67h414v-42h-414v42z" />
    <glyph glyph-name="grave" unicode="`" horiz-adv-x="221" 
d="M52 703h58l59 -120h-35z" />
    <glyph glyph-name="a" unicode="a" 
d="M313 500h31v-500h-31l-3 72q-34 -80 -121 -80q-28 0 -52.5 9t-45.5 28t-33 55t-12 84v165q0 48 12 84t33 55t45.5 28t52.5 9q87 0 121 -78zM83 316v-130q0 -160 112 -160q111 0 111 160v130q0 159 -111 159q-112 0 -112 -159z" />
    <glyph glyph-name="b" unicode="b" horiz-adv-x="398" 
d="M92 700v-267q33 76 118 76q28 0 52 -9t45 -28t33 -55t12 -84v-165q0 -48 -12 -84t-33 -55t-45 -28t-52 -9q-88 0 -122 81l-3 -73h-31v700h38zM315 186v130q0 159 -112 159q-111 0 -111 -159v-130q0 -160 111 -160q112 0 112 160z" />
    <glyph glyph-name="c" unicode="c" horiz-adv-x="387" 
d="M46 168v165q0 48 12.5 83.5t34.5 55t47 28.5t54 9q28 0 52.5 -8.5t46.5 -26.5t35 -51t15 -79v-15h-37q-3 146 -112 146q-111 0 -111 -159v-130q0 -160 111 -160q109 0 112 146h37v-13q-1 -46 -14.5 -79.5t-35 -52t-46.5 -27t-53 -8.5q-29 0 -54 9t-47 28.5t-34.5 55
t-12.5 83.5z" />
    <glyph glyph-name="d" unicode="d" 
d="M306 700h38v-700h-31l-3 73q-34 -81 -122 -81q-28 0 -52 9t-45 28t-33 55t-12 84v165q0 48 12 84t33 55t45 28t52 9q85 0 118 -76v267zM83 316v-130q0 -160 112 -160q111 0 111 160v130q0 159 -111 159q-112 0 -112 -159z" />
    <glyph glyph-name="e" unicode="e" horiz-adv-x="386" 
d="M46 168v165q0 48 12.5 83.5t34.5 55t47 28.5t54 9t54 -9t47 -28t35 -55t13 -84v-103h-260v-52q0 -152 111 -152q106 0 111 135h38q-1 -47 -14 -81t-35 -52.5t-47 -27t-53 -8.5q-29 0 -54 9t-47 28.5t-34.5 55t-12.5 83.5zM305 261v63q0 83 -31.5 116.5t-79.5 33.5
q-111 0 -111 -150v-63h222z" />
    <glyph glyph-name="f" unicode="f" horiz-adv-x="320" 
d="M258 709h20v-34h-14q-30 -1 -47 -6t-30.5 -20.5t-19 -45.5t-5.5 -80v-23h116v-35h-116v-465h-38v465h-83v34h83v34q0 55 8.5 90t27 53.5t41 25t57.5 7.5z" />
    <glyph glyph-name="g" unicode="g" 
d="M46 176v157q0 48 12 84t33 55t45 28t52 9q88 0 122 -79l3 70h31v-499q-1 -48 -13.5 -82.5t-34.5 -53.5t-47 -28t-54 -9q-49 0 -87.5 25.5t-52.5 80.5h39q24 -72 101 -72q111 0 111 150v66q-33 -78 -118 -78q-28 0 -52 9t-45 28t-33 55t-12 84zM306 192v123
q0 160 -111 160q-112 0 -112 -160v-123q0 -159 112 -159q111 0 111 159z" />
    <glyph glyph-name="h" unicode="h" horiz-adv-x="405" 
d="M94 700v-269q33 78 119 78q28 0 52 -9t45 -28t33 -55t12 -84v-333h-37v316q0 159 -112 159t-112 -153v-322h-37v700h37z" />
    <glyph glyph-name="i" unicode="i" horiz-adv-x="157" 
d="M57 591v44h46v-44h-46zM61 0v500h38v-500h-38z" />
    <glyph glyph-name="j" unicode="j" horiz-adv-x="266" 
d="M168 635h44v-43h-44v43zM171 500h37v-497q0 -56 -8.5 -91t-27 -53.5t-41.5 -25t-59 -6.5h-18v34h12q31 1 48.5 6t31.5 20.5t19.5 46t5.5 81.5v485z" />
    <glyph glyph-name="k" unicode="k" horiz-adv-x="367" 
d="M326 0h-42l-194 236v-236h-37v700h37v-424l184 224h42l-194 -245z" />
    <glyph glyph-name="l" unicode="l" horiz-adv-x="144" 
d="M57 0v700h38v-700h-38z" />
    <glyph glyph-name="m" unicode="m" horiz-adv-x="661" 
d="M85 500l3 -72q34 81 122 81q45 0 80.5 -23.5t50.5 -74.5q15 49 49 73.5t79 24.5q28 0 52 -9t45 -28t33 -55t12 -84v-333h-37v315q0 160 -112 160q-100 0 -110 -123v-352h-37v316q0 159 -112 159q-111 0 -111 -151v-324h-38v500h31z" />
    <glyph glyph-name="n" unicode="n" horiz-adv-x="402" 
d="M85 500l3 -72q34 81 122 81q28 0 52 -9t45 -28t33 -55t12 -84v-333h-37v316q0 159 -112 159q-111 0 -111 -153v-322h-38v500h31z" />
    <glyph glyph-name="o" unicode="o" horiz-adv-x="389" 
d="M46 168v165q0 48 12.5 83.5t34.5 55t47 28.5t54 9t54.5 -9t47.5 -28t35 -55t13 -84v-165q0 -48 -13 -84t-35 -55t-47.5 -28t-54.5 -9t-54 9t-47 28.5t-34.5 55t-12.5 83.5zM306 186v129q0 160 -112 160q-111 0 -111 -160v-129q0 -160 111 -160q112 0 112 160z" />
    <glyph glyph-name="p" unicode="p" 
d="M83 500l3 -73q34 81 123 81q27 0 51.5 -9t45.5 -28t33 -54.5t12 -84.5v-165q0 -48 -12 -83.5t-33 -55t-45.5 -28.5t-51.5 -9q-85 0 -119 76v-230h-37v663h30zM314 185v130q-1 159 -113 159q-111 0 -111 -159v-130q0 -159 111 -159q113 0 113 159z" />
    <glyph glyph-name="q" unicode="q" 
d="M313 500h31v-663h-38v230q-33 -76 -118 -76q-28 0 -52 9t-45 28t-33 55t-12 84v165q0 49 12 84.5t33 54.5t45 28t52 9q88 0 122 -81zM83 315v-130q0 -159 112 -159q111 0 111 159v130q0 159 -111 159q-112 0 -112 -159z" />
    <glyph glyph-name="r" unicode="r" horiz-adv-x="260" 
d="M85 500l4 -85q19 46 53.5 70t76.5 24v-34q-55 0 -91 -43t-36 -126v-306h-38v500h31z" />
    <glyph glyph-name="s" unicode="s" horiz-adv-x="380" 
d="M78 147l-1 -9q2 -59 34.5 -85.5t78.5 -26.5q113 0 113 106q0 48 -27.5 75t-79.5 44q-24 7 -37 11.5t-36 15.5t-35 24t-22 34.5t-10 48.5q0 63 39.5 93.5t99.5 30.5q55 0 96 -36t44 -107v-10h-37v11q-3 56 -32 82t-71 26q-102 0 -102 -89q0 -13 4 -25t9 -20t14 -16
t15.5 -12.5t18.5 -9.5t17.5 -7t18 -6t14.5 -4q73 -22 104.5 -59t31.5 -93q0 -73 -42 -107.5t-108 -34.5q-36 0 -68 13.5t-56 48t-26 83.5v10h38z" />
    <glyph glyph-name="t" unicode="t" horiz-adv-x="320" 
d="M162 466v-279q0 -45 4 -74t11 -47t21 -26.5t28.5 -11t40.5 -3.5h11v-34h-18q-36 0 -58.5 6t-41.5 24.5t-27.5 56t-8.5 97.5v291h-83v34h83v153h38v-153h116v-34h-116z" />
    <glyph glyph-name="u" unicode="u" horiz-adv-x="398" 
d="M311 500h37v-500h-31l-3 72q-34 -81 -122 -81q-28 0 -52 9t-45 28t-33 55t-12 84v333h37v-315q0 -160 112 -160t112 154v321z" />
    <glyph glyph-name="v" unicode="v" horiz-adv-x="449" 
d="M370 500h38l-162 -500h-43l-162 500h38l145 -443z" />
    <glyph glyph-name="w" unicode="w" horiz-adv-x="681" 
d="M603 500h38l-133 -500h-43l-124 430l-124 -430h-44l-132 500h38l118 -445l126 445h35l127 -445z" />
    <glyph glyph-name="x" unicode="x" horiz-adv-x="395" 
d="M353 500l-130 -248l131 -252h-40l-116 218l-118 -218h-39l131 250l-130 250h40l115 -221l116 221h40z" />
    <glyph glyph-name="y" unicode="y" horiz-adv-x="380" 
d="M302 500h37v-511q-4 -85 -46 -123t-102 -38q-49 0 -88 25.5t-53 80.5h39q24 -72 101 -72q112 0 112 150v66q-33 -78 -119 -78q-28 0 -52 9t-45 28t-33 55t-12 84v324h37v-307q0 -159 112 -159q111 0 112 160v306z" />
    <glyph glyph-name="z" unicode="z" horiz-adv-x="379" 
d="M83 34h255v-34h-297v31l254 434h-243v35h285v-31z" />
    <glyph glyph-name="braceleft" unicode="{" horiz-adv-x="356" 
d="M247 750h59v-41h-54q-20 0 -35.5 -16t-15.5 -41v-226q0 -42 -21.5 -74.5t-60.5 -45.5q39 -13 60.5 -44t21.5 -72v-233q0 -24 15.5 -40t35.5 -16h54v-41h-59q-37 0 -62.5 26t-26.5 67v229q0 46 -28.5 73.5t-74.5 29.5h-5v42h5q46 2 74.5 29.5t28.5 73.5v227q1 41 26.5 67
t62.5 26z" />
    <glyph glyph-name="bar" unicode="|" horiz-adv-x="143" 
d="M50 700h43v-760h-43v760z" />
    <glyph glyph-name="braceright" unicode="}" horiz-adv-x="356" 
d="M50 750h59q37 0 62.5 -26t26.5 -67v-227q0 -46 28.5 -73.5t74.5 -29.5h5v-42h-5q-46 -1 -74.5 -28.5t-28.5 -75.5v-228q-1 -41 -26.5 -67t-62.5 -26h-59v42h54q20 0 35.5 16t15.5 40v232q0 41 21.5 72.5t60.5 43.5q-39 13 -60.5 45.5t-21.5 74.5v226q0 25 -15.5 40.5
t-35.5 15.5h-54v42z" />
    <glyph glyph-name="asciitilde" unicode="~" horiz-adv-x="570" 
d="M85 200h-35q0 64 31 105.5t87 41.5q30 0 54 -11t53 -32q5 -4 19.5 -15.5t21 -16t20 -13t23.5 -12.5t24 -7t27 -3q36 1 55.5 27.5t19.5 67.5h35q0 -59 -28 -97.5t-79 -38.5q-19 0 -35.5 3.5t-34.5 13.5t-26 14.5t-29.5 21t-24.5 19.5q-50 38 -92 38q-40 0 -63 -30t-23 -76
z" />
    <glyph glyph-name="exclamdown" unicode="&#xa1;" horiz-adv-x="146" 
d="M50 538h46v-46h-46v46zM58 386h29l5 -308v-241h-39v241z" />
    <glyph glyph-name="cent" unicode="&#xa2;" horiz-adv-x="388" 
d="M175 601h38v-94q55 -6 91.5 -45t38.5 -119v-14h-37q-3 146 -112 146q-111 0 -111 -160v-129q0 -160 111 -160q109 0 112 146h37v-13q-2 -81 -38.5 -120t-91.5 -45v-92h-38v92q-56 5 -92.5 47t-36.5 127v165q0 85 36.5 126.5t92.5 47.5v94z" />
    <glyph glyph-name="sterling" unicode="&#xa3;" horiz-adv-x="543" 
d="M501 475h-43v7q-6 100 -48.5 143t-107.5 43q-33 0 -60 -10t-50.5 -33t-36.5 -65.5t-13 -101.5v-84h160v-42h-160v-290h331v-42h-431v42h57v290h-57v42h57v98q1 65 18.5 113t47 74t63.5 38t74 12q38 0 70.5 -11.5t61.5 -36t47 -70t20 -107.5v-9z" />
    <glyph glyph-name="currency" unicode="&#xa4;" horiz-adv-x="600" 
 />
    <glyph glyph-name="yen" unicode="&#xa5;" horiz-adv-x="559" 
d="M476 700h46l-163 -279h133v-42h-152l-35 -59v-19h187v-41h-191v-260h-43v260h-190v41h187l-1 19l-35 59h-151v42h132l-163 279h46l196 -342z" />
    <glyph glyph-name="brokenbar" unicode="&#xa6;" horiz-adv-x="143" 
d="M50 700h43v-320h-43v320zM50 260h43v-320h-43v320z" />
    <glyph glyph-name="section" unicode="&#xa7;" horiz-adv-x="422" 
d="M85 83v-6q1 -35 12.5 -61t30.5 -40.5t40 -21t43 -6.5q56 0 90.5 28t34.5 87q0 56 -32 84.5t-91 47.5q-19 5 -27.5 8t-27.5 10t-29 13.5t-24.5 18.5t-22 24.5t-13 31t-5.5 39.5q0 79 62 113q-62 38 -62 110q0 70 43.5 103.5t106.5 33.5q62 0 107 -40.5t47 -119.5v-8h-41v7
q-2 63 -34.5 93.5t-78.5 30.5q-47 0 -78 -24t-31 -74q0 -21 7 -38t16.5 -27t27 -19.5t28.5 -13.5t32 -11q7 -2 10 -3q151 -44 151 -165q0 -73 -46 -113q46 -43 46 -110q0 -77 -47 -116t-119 -39q-28 0 -56 9.5t-53 28t-41 52t-17 77.5v6h41zM167 434q-64 -21 -64 -92
q0 -15 3.5 -27.5t8 -21.5t14.5 -17.5t16 -13t20 -10.5t20 -8.5t22 -7.5t19 -6q46 -16 73 -34q39 29 39 91q0 54 -31 82t-87 47q-50 16 -53 18z" />
    <glyph glyph-name="dieresis" unicode="&#xa8;" horiz-adv-x="249" 
d="M51 656v44h44v-44h-44zM156 656v44h43v-44h-43z" />
    <glyph glyph-name="copyright" unicode="&#xa9;" horiz-adv-x="597" 
d="M110 620q77 80 188.5 80t188.5 -80t77 -190t-77 -190t-188.5 -80t-188.5 80t-77 190t77 190zM467 600q-67 71 -168.5 71t-168.5 -70t-67 -170.5t67 -170.5t168.5 -70t168.5 70t67 170t-67 170zM181 414v31q0 88 33 126.5t84 38.5q104 0 120 -122v-3h-28q-8 54 -31.5 76.5
t-60.5 22.5q-42 0 -66 -33.5t-24 -117.5v-6q0 -85 23.5 -118.5t66.5 -33.5q37 0 60.5 22.5t31.5 76.5h28v-4q-8 -64 -40.5 -92t-79.5 -28q-51 0 -84 38.5t-33 125.5z" />
    <glyph glyph-name="ordfeminine" unicode="&#xaa;" 
d="M313 500h31v-500h-31l-3 72q-34 -80 -121 -80q-28 0 -52.5 9t-45.5 28t-33 55t-12 84v165q0 48 12 84t33 55t45.5 28t52.5 9q87 0 121 -78zM83 316v-130q0 -160 112 -160q111 0 111 160v130q0 159 -111 159q-112 0 -112 -159z" />
    <glyph glyph-name="guillemotleft" unicode="&#xab;" horiz-adv-x="352" 
d="M50 298l123 101v-47l-96 -77l96 -77v-47l-123 101v46zM179 298l123 101v-47l-96 -77l96 -77v-46l-123 100v46z" />
    <glyph glyph-name="logicalnot" unicode="&#xac;" horiz-adv-x="524" 
d="M474 174h-43v121h-381v42h424v-163z" />
    <glyph glyph-name="registered" unicode="&#xae;" horiz-adv-x="597" 
d="M110 618q77 80 188.5 80t188.5 -79.5t77 -190t-77 -190t-188.5 -79.5t-188.5 79.5t-77 190t77 189.5zM467 599q-67 71 -168.5 71t-168.5 -70.5t-67 -171t67 -170.5t168.5 -70t168.5 70t67 170.5t-67 170.5zM205 603h96q46 0 76.5 -26t30.5 -68v-5q-1 -35 -24 -58.5
t-58 -29.5l98 -163h-33l-95 158h-62v-158h-29v350zM234 440h67q35 0 56 18t21 50t-21 50t-56 18h-67v-136z" />
    <glyph glyph-name="macron" unicode="&#xaf;" horiz-adv-x="388" 
d="M50 700h288v-36h-288v36z" />
    <glyph glyph-name="degree" unicode="&#xb0;" horiz-adv-x="344" 
d="M172 720q51 0 86.5 -36t35.5 -86q0 -51 -35.5 -87t-86.5 -36t-86.5 36t-35.5 87q0 50 35.5 86t86.5 36zM172 685q-37 0 -62 -25.5t-25 -62t25.5 -62t61.5 -25.5q37 0 62.5 25.5t25.5 62t-25.5 62t-62.5 25.5z" />
    <glyph glyph-name="plusminus" unicode="&#xb1;" horiz-adv-x="524" 
d="M241 519h43v-135h190v-42h-190v-134h-43v134h-191v42h191v135zM474 7h-424v41h424v-41z" />
    <glyph glyph-name="acute" unicode="&#xb4;" horiz-adv-x="221" 
d="M111 703h58l-83 -120h-34z" />
    <glyph glyph-name="paragraph" unicode="&#xb6;" horiz-adv-x="556" 
d="M189 700h325v-42h-38v-821h-43v821h-107v-821h-43v471h-94q-62 0 -105 42.5t-43 105.5v96q0 59 43.5 103.5t104.5 44.5z" />
    <glyph glyph-name="periodcentered" unicode="&#xb7;" horiz-adv-x="146" 
d="M50 297v46h46v-46h-46z" />
    <glyph glyph-name="cedilla" unicode="&#xb8;" horiz-adv-x="220" 
d="M136 0h34v-61q0 -56 -21 -81t-71 -25h-28v32h28q32 0 45 17.5t13 56.5v61z" />
    <glyph glyph-name="ordmasculine" unicode="&#xba;" horiz-adv-x="389" 
d="M46 168v165q0 48 12.5 83.5t34.5 55t47 28.5t54 9t54.5 -9t47.5 -28t35 -55t13 -84v-165q0 -48 -13 -84t-35 -55t-47.5 -28t-54.5 -9t-54 9t-47 28.5t-34.5 55t-12.5 83.5zM306 186v129q0 160 -112 160q-111 0 -111 -160v-129q0 -160 111 -160q112 0 112 160z" />
    <glyph glyph-name="guillemotright" unicode="&#xbb;" horiz-adv-x="352" 
d="M50 352v47l123 -101v-46l-123 -101v47l96 77zM179 352v47l123 -101v-46l-123 -101v47l96 77z" />
    <glyph glyph-name="onequarter" unicode="&#xbc;" horiz-adv-x="586" 
d="M47 700h66v-338h-32v308h-34v30zM402 700h36l-326 -700h-36zM441 338h35l-124 -234h119v153h33v-153h35v-30h-35v-74h-33v74h-156v32z" />
    <glyph glyph-name="onehalf" unicode="&#xbd;" horiz-adv-x="617" 
d="M47 700h66v-338h-32v308h-34v30zM402 700h36l-326 -700h-36zM463 341h13q36 0 65 -25.5t29 -74.5v-2q0 -31 -17 -55t-41.5 -39.5t-49 -30t-42.5 -35.5t-19 -48h165v-31h-203v22q0 35 18 61t43.5 42t51.5 31t44 36t18 48q0 37 -20 53.5t-43 17.5h-4q-26 0 -47.5 -16.5
t-28.5 -47.5h-32v4q8 43 37 65t63 25z" />
    <glyph glyph-name="threequarters" unicode="&#xbe;" horiz-adv-x="654" 
d="M140 701h14q32 0 61.5 -21t29.5 -61v-8q0 -25 -16 -44.5t-39 -24.5q27 -10 43 -31.5t16 -51.5v-8q0 -41 -29 -64.5t-67 -23.5h-13q-33 0 -64 24t-37 69v2h31q6 -33 27.5 -48.5t47.5 -16.5h8q25 0 44 15.5t19 44.5v4q0 32 -20 51t-49 19h-33v31h33q24 0 45 13.5t21 40.5v4
q0 27 -19.5 41t-40.5 14h-8q-25 0 -45.5 -14.5t-26.5 -44.5h-33v2q8 42 37.5 64.5t62.5 22.5zM479 700h36l-327 -700h-36zM509 338h35l-124 -234h119v153h33v-153h35v-30h-35v-74h-33v74h-156v32z" />
    <glyph glyph-name="questiondown" unicode="&#xbf;" horiz-adv-x="500" 
d="M294 499h-46v46h46v-46zM254 -163h-17q-33 0 -64.5 11t-60 33t-45.5 61t-17 90v2q0 39 11 68.5t29 48t39.5 33t43 28t39 29t29 39.5t11.5 56h39q0 -32 -8.5 -58t-22.5 -42t-31.5 -31t-36 -25t-36.5 -24.5t-32 -29.5t-22.5 -39t-8.5 -54q0 -42 13.5 -73.5t36 -48.5t46 -25
t48.5 -8h9q55 0 101 35t59 108h44v-6q-9 -46 -29.5 -81t-48 -55t-57.5 -30.5t-61 -11.5z" />
    <glyph glyph-name="Agrave" unicode="&#xc0;" horiz-adv-x="544" 
d="M247 700h50l194 -700h-43l-65 232h-221l-66 -232h-42zM375 275l-103 369l-103 -369h206zM205 875h41l59 -134h-31z" />
    <glyph glyph-name="Aacute" unicode="&#xc1;" horiz-adv-x="544" 
d="M247 700h50l194 -700h-43l-65 232h-221l-66 -232h-42zM375 275l-103 369l-103 -369h206zM273 741h-31l59 134h41z" />
    <glyph glyph-name="Acircumflex" unicode="&#xc2;" horiz-adv-x="544" 
d="M256 876h34l73 -134h-40l-51 94l-50 -94h-40zM247 700h50l194 -700h-43l-65 232h-221l-66 -232h-42zM375 275l-103 369l-103 -369h206z" />
    <glyph glyph-name="Atilde" unicode="&#xc3;" horiz-adv-x="544" 
d="M247 700h50l194 -700h-43l-65 232h-221l-66 -232h-42zM375 275l-103 369l-103 -369h206zM365 829q0 -18 -1 -30t-5 -26q-8 -31 -41 -31q-13 0 -25 6.5t-32 27.5q-12 14 -19 17.5t-14 3.5q-10 0 -13.5 -13t-3.5 -42h-32q0 17 1.5 29t4.5 26q8 32 41 32q11 0 21.5 -5
t16.5 -12q26 -28 36 -34t17 -5q10 0 13 13.5t3 42.5h32z" />
    <glyph glyph-name="Adieresis" unicode="&#xc4;" horiz-adv-x="544" 
d="M199 900h44v-44h-44v44zM304 900h43v-44h-43v44zM247 700h50l194 -700h-43l-65 232h-221l-66 -232h-42zM375 275l-103 369l-103 -369h206z" />
    <glyph glyph-name="Aring" unicode="&#xc5;" horiz-adv-x="544" 
d="M273 910q38 0 65.5 -27.5t27.5 -64.5q0 -39 -27.5 -67t-65.5 -28q-39 0 -66 27.5t-27 67.5q0 37 27 64.5t66 27.5zM273 879q-26 0 -43.5 -18.5t-17.5 -42.5q0 -27 17.5 -45t43.5 -18q25 0 43 18.5t18 44.5q0 24 -18 42.5t-43 18.5zM247 700h50l194 -700h-43l-65 232h-221
l-66 -232h-42zM375 275l-103 369l-103 -369h206z" />
    <glyph glyph-name="AE" unicode="&#xc6;" horiz-adv-x="607" 
d="M248 700h319v-41h-260v-278h250v-41h-250v-299h260v-41h-303v232h-100l-66 -232h-42zM264 275v336l-92 -336h92z" />
    <glyph glyph-name="Ccedilla" unicode="&#xc7;" horiz-adv-x="509" 
d="M71 234v233q0 67 17.5 115.5t47 75t64 39t74.5 12.5q38 0 70.5 -11t61 -35.5t46.5 -69.5t21 -106v-15h-43v14q-6 98 -49 140t-107 42q-33 0 -60 -10t-50.5 -33t-36.5 -65.5t-13 -101.5v-215q0 -59 13 -101.5t36.5 -65.5t50.5 -33t60 -10q64 0 106 41t50 138v17h43v-13
q-4 -103 -48 -155.5t-110 -64.5v-56q0 -56 -20.5 -81.5t-70.5 -25.5h-29v32h29q31 1 44 18t13 55v55h-15q-39 1 -72 14t-61.5 39.5t-45 74.5t-16.5 113z" />
    <glyph glyph-name="Egrave" unicode="&#xc8;" horiz-adv-x="410" 
d="M72 700h303v-41h-261v-278h251v-41h-251v-299h261v-41h-303v700zM168 875h41l59 -134h-31z" />
    <glyph glyph-name="Eacute" unicode="&#xc9;" horiz-adv-x="410" 
d="M72 700h303v-41h-261v-278h251v-41h-251v-299h261v-41h-303v700zM226 741h-31l59 134h41z" />
    <glyph glyph-name="Ecircumflex" unicode="&#xca;" horiz-adv-x="410" 
d="M72 700h303v-41h-261v-278h251v-41h-251v-299h261v-41h-303v700zM210 876h34l73 -134h-40l-51 94l-50 -94h-40z" />
    <glyph glyph-name="Edieresis" unicode="&#xcb;" horiz-adv-x="410" 
d="M132 900h44v-44h-44v44zM237 900h43v-44h-43v44zM72 700h303v-41h-261v-278h251v-41h-251v-299h261v-41h-303v700z" />
    <glyph glyph-name="Igrave" unicode="&#xcc;" horiz-adv-x="186" 
d="M72 0v700h43v-700h-43zM25 875h41l59 -134h-31z" />
    <glyph glyph-name="Iacute" unicode="&#xcd;" horiz-adv-x="186" 
d="M72 0v700h43v-700h-43zM92 741h-31l59 134h41z" />
    <glyph glyph-name="Icircumflex" unicode="&#xce;" horiz-adv-x="186" 
d="M71 901h46l108 -131h-39l-92 100l-91 -100h-39zM73 0v700h43v-700h-43z" />
    <glyph glyph-name="Idieresis" unicode="&#xcf;" horiz-adv-x="186" 
d="M20 856v44h43v-44h-43zM124 856v44h44v-44h-44zM72 0v700h43v-700h-43z" />
    <glyph glyph-name="Eth" unicode="&#xd0;" horiz-adv-x="517" 
d="M72 700h175q39 0 73.5 -12t64.5 -38.5t47.5 -75.5t17.5 -116v-216q0 -67 -17.5 -116t-47.5 -75.5t-64.5 -38.5t-73.5 -12h-175v317h-47v41h47v342zM408 251v198q0 59 -13.5 102t-37.5 65.5t-51 32.5t-59 10h-133v-301h159v-41h-159v-276h133q32 0 59 10t51 32.5
t37.5 65.5t13.5 102z" />
    <glyph glyph-name="Ntilde" unicode="&#xd1;" horiz-adv-x="512" 
d="M356 901h32q0 -23 -1.5 -39t-7 -36t-19 -30.5t-34.5 -10.5q-17 0 -34 9.5t-45 38.5q-20 20 -31 25.5t-24 5.5q-20 0 -26.5 -18.5t-6.5 -60.5h-32q0 22 1.5 38t7 36t19 31t34.5 11q14 0 28 -7t23.5 -15t27.5 -27q19 -21 31 -26t25 -4q19 0 25.5 18t6.5 61zM402 700h41
v-700h-42l-291 607v-607h-41v700h42l291 -607v607z" />
    <glyph glyph-name="Ograve" unicode="&#xd2;" horiz-adv-x="532" 
d="M63 234v233q0 67 17 115.5t47 75t64.5 39t73.5 12.5q40 0 74 -12t64.5 -38.5t48 -75.5t17.5 -116v-233q0 -67 -17.5 -116t-48 -75.5t-64.5 -38.5t-74 -12q-39 0 -73.5 12.5t-64.5 39t-47 75t-17 115.5zM426 243v215q0 59 -13.5 102t-37 65.5t-50.5 32.5t-60 10t-60 -10
t-50 -33t-36 -65.5t-13 -101.5v-215q0 -59 13 -101.5t36 -65.5t50 -33t60 -10t60 10t50.5 33t37 65.5t13.5 101.5zM216 875h41l59 -134h-31z" />
    <glyph glyph-name="Oacute" unicode="&#xd3;" horiz-adv-x="532" 
d="M63 234v233q0 67 17 115.5t47 75t64.5 39t73.5 12.5q40 0 74 -12t64.5 -38.5t48 -75.5t17.5 -116v-233q0 -67 -17.5 -116t-48 -75.5t-64.5 -38.5t-74 -12q-39 0 -73.5 12.5t-64.5 39t-47 75t-17 115.5zM426 243v215q0 59 -13.5 102t-37 65.5t-50.5 32.5t-60 10t-60 -10
t-50 -33t-36 -65.5t-13 -101.5v-215q0 -59 13 -101.5t36 -65.5t50 -33t60 -10t60 10t50.5 33t37 65.5t13.5 101.5zM269 741h-31l59 134h41z" />
    <glyph glyph-name="Ocircumflex" unicode="&#xd4;" horiz-adv-x="532" 
d="M63 234v233q0 67 17 115.5t47 75t64.5 39t73.5 12.5q40 0 74 -12t64.5 -38.5t48 -75.5t17.5 -116v-233q0 -67 -17.5 -116t-48 -75.5t-64.5 -38.5t-74 -12q-39 0 -73.5 12.5t-64.5 39t-47 75t-17 115.5zM426 243v215q0 59 -13.5 102t-37 65.5t-50.5 32.5t-60 10t-60 -10
t-50 -33t-36 -65.5t-13 -101.5v-215q0 -59 13 -101.5t36 -65.5t50 -33t60 -10t60 10t50.5 33t37 65.5t13.5 101.5zM249 876h34l73 -134h-40l-51 94l-50 -94h-40z" />
    <glyph glyph-name="Otilde" unicode="&#xd5;" horiz-adv-x="532" 
d="M63 234v233q0 67 17 115.5t47 75t64.5 39t73.5 12.5q40 0 74 -12t64.5 -38.5t48 -75.5t17.5 -116v-233q0 -67 -17.5 -116t-48 -75.5t-64.5 -38.5t-74 -12q-39 0 -73.5 12.5t-64.5 39t-47 75t-17 115.5zM426 243v215q0 59 -13.5 102t-37 65.5t-50.5 32.5t-60 10t-60 -10
t-50 -33t-36 -65.5t-13 -101.5v-215q0 -59 13 -101.5t36 -65.5t50 -33t60 -10t60 10t50.5 32.5t37 65.5t13.5 102zM356 829q0 -18 -1 -30t-5 -26q-8 -31 -41 -31q-13 0 -25 6.5t-32 27.5q-12 14 -19 17.5t-14 3.5q-10 0 -13.5 -13t-3.5 -42h-32q0 17 1.5 29t4.5 26
q8 32 41 32q11 0 21.5 -5t16.5 -12q26 -28 36 -34t17 -5q10 0 13 13.5t3 42.5h32z" />
    <glyph glyph-name="Odieresis" unicode="&#xd6;" horiz-adv-x="532" 
d="M193 856v44h43v-44h-43zM297 856v44h44v-44h-44zM63 234v233q0 67 17 115.5t47 75t64.5 39t73.5 12.5q40 0 74 -12t64.5 -38.5t48 -75.5t17.5 -116v-233q0 -67 -17.5 -116t-48 -75.5t-64.5 -38.5t-74 -12q-39 0 -73.5 12.5t-64.5 39t-47 75t-17 115.5zM426 243v215
q0 59 -13.5 102t-37 65.5t-50.5 32.5t-60 10t-60 -10t-50 -33t-36 -65.5t-13 -101.5v-215q0 -59 13 -101.5t36 -65.5t50 -33t60 -10t60 10t50.5 33t37 65.5t13.5 101.5z" />
    <glyph glyph-name="multiply" unicode="&#xd7;" horiz-adv-x="429" 
d="M215 334l134 134l30 -29l-135 -134l135 -135l-31 -30l-134 134l-135 -134l-29 29l134 135l-134 134l30 31z" />
    <glyph glyph-name="Oslash" unicode="&#xd8;" horiz-adv-x="532" 
d="M455 750l-43 -100q57 -63 57 -183v-233q0 -67 -17.5 -116t-48 -75.5t-64.5 -38.5t-74 -12q-72 0 -122 37l-34 -79h-32l43 100q-57 63 -57 184v233q0 67 17 115.5t47 75t64 39t74 12.5q73 0 124 -38l34 79h32zM106 458v-215q0 -94 34 -147l231 534q-40 38 -106 38
q-33 0 -60 -10t-50 -33t-36 -65.5t-13 -101.5zM426 243v215q0 93 -34 146l-231 -534q39 -37 104 -37q33 0 60 10t50.5 33t37 65.5t13.5 101.5z" />
    <glyph glyph-name="Ugrave" unicode="&#xd9;" horiz-adv-x="540" 
d="M114 242v458h-42v-467q0 -66 16.5 -114.5t45.5 -75t63 -39t74 -12.5q39 0 73 12.5t63.5 39t46.5 75t17 114.5v467h-42v-458q0 -58 -13 -100t-36 -65t-50 -33.5t-59 -10.5q-69 0 -113 49t-44 160zM222 875h41l59 -134h-31z" />
    <glyph glyph-name="Uacute" unicode="&#xda;" horiz-adv-x="540" 
d="M114 242q0 -111 44 -160t113 -49q32 0 59 10.5t50 33.5t36 65t13 100v458h42v-467q0 -66 -17 -114.5t-46.5 -75t-63.5 -39t-73 -12.5q-40 0 -74 12.5t-63 39t-45.5 75t-16.5 114.5v467h42v-458zM271 741h-31l59 134h41z" />
    <glyph glyph-name="Ucircumflex" unicode="&#xdb;" horiz-adv-x="540" 
d="M247 901h46l108 -131h-39l-92 100l-92 -100h-38zM114 242v458h-42v-467q0 -66 16.5 -114.5t45.5 -75t63 -39t74 -12.5q39 0 73 12.5t63.5 39t46.5 75t17 114.5v467h-42v-458q0 -58 -13 -100t-36 -65t-50 -33.5t-59 -10.5q-69 0 -113 49t-44 160z" />
    <glyph glyph-name="Udieresis" unicode="&#xdc;" horiz-adv-x="540" 
d="M196 856v44h44v-44h-44zM301 856v44h44v-44h-44zM114 242v458h-42v-467q0 -66 16.5 -114.5t45.5 -75t63 -39t74 -12.5q39 0 73 12.5t63.5 39t46.5 75t17 114.5v467h-42v-458q0 -58 -13 -100t-36 -65t-50 -33.5t-59 -10.5q-69 0 -113 49t-44 160z" />
    <glyph glyph-name="Yacute" unicode="&#xdd;" horiz-adv-x="510" 
d="M410 700h46l-182 -407v-293h-43v293l-177 407h45l154 -359zM256 741h-31l59 134h41z" />
    <glyph glyph-name="Thorn" unicode="&#xde;" horiz-adv-x="471" 
d="M72 708h42v-121h88q39 0 73 -9.5t64 -29t47.5 -55t17.5 -82.5v-25q0 -47 -17.5 -82t-47.5 -55t-64.5 -29.5t-72.5 -10.5h-88v-209h-42v708zM362 393v10q0 42 -13.5 71t-37.5 44.5t-50.5 22t-57.5 6.5h-89v-297h89q31 0 57.5 7t50.5 22t37.5 44.5t13.5 69.5z" />
    <glyph glyph-name="germandbls" unicode="&#xdf;" horiz-adv-x="515" 
d="M242 701h29q34 0 66.5 -9.5t61.5 -29t46.5 -54t17.5 -79.5v-17q0 -57 -30 -95t-79 -54q59 -15 92 -57t33 -106v-17q0 -90 -57.5 -136.5t-155.5 -46.5h-101v41h101q81 0 125.5 36.5t44.5 104.5v17q0 68 -44.5 105t-125.5 37h-41v41h33q71 0 116.5 33t45.5 98v15
q0 66 -44.5 99t-104.5 33h-29q-59 0 -103.5 -33t-45.5 -100v-527h-43v526q0 46 17.5 81t46 55t61 29.5t67.5 9.5z" />
    <glyph glyph-name="agrave" unicode="&#xe0;" 
d="M46 168v165q0 48 12 84t33 55t45.5 28t52.5 9q87 0 121 -78l3 69h31v-500h-31l-3 72q-34 -80 -121 -80q-28 0 -52.5 9t-45.5 28t-33 55t-12 84zM306 186v129q0 160 -111 160q-112 0 -112 -160v-129q0 -160 112 -160q111 0 111 160zM158 680h41l59 -134h-31z" />
    <glyph glyph-name="aacute" unicode="&#xe1;" 
d="M313 500h31v-500h-31l-3 72q-34 -80 -121 -80q-28 0 -52.5 9t-45.5 28t-33 55t-12 84v165q0 48 12 84t33 55t45.5 28t52.5 9q87 0 121 -78zM83 316v-130q0 -160 112 -160q111 0 111 160v130q0 159 -111 159q-112 0 -112 -159zM208 546h-31l59 134h41z" />
    <glyph glyph-name="acircumflex" unicode="&#xe2;" 
d="M313 500h31v-500h-31l-3 72q-34 -80 -121 -80q-28 0 -52.5 9t-45.5 28t-33 55t-12 84v165q0 48 12 84t33 55t45.5 28t52.5 9q87 0 121 -78zM83 315v-129q0 -160 112 -160q111 0 111 160v129q0 160 -111 160q-112 0 -112 -160zM195 680h34l73 -134h-40l-51 94l-50 -94h-40
z" />
    <glyph glyph-name="atilde" unicode="&#xe3;" 
d="M313 500h31v-500h-31l-3 72q-34 -80 -121 -80q-28 0 -52.5 9t-45.5 28t-33 55t-12 84v165q0 48 12 84t33 55t45.5 28t52.5 9q87 0 121 -78zM83 315v-130q0 -159 112 -159q111 0 111 159v130q0 160 -111 160q-112 0 -112 -160zM306 640q0 -18 -1 -30t-5 -26
q-8 -31 -41 -31q-13 0 -25 6.5t-32 27.5q-12 14 -19 17.5t-14 3.5q-10 0 -13.5 -13t-3.5 -42h-32q0 17 1.5 29t4.5 26q8 32 41 32q11 0 21.5 -5t16.5 -12q26 -28 36 -34t17 -5q10 0 13 13.5t3 42.5h32z" />
    <glyph glyph-name="adieresis" unicode="&#xe4;" 
d="M125 656v44h44v-44h-44zM229 656v44h44v-44h-44zM313 500h31v-500h-31l-3 72q-34 -80 -121 -80q-28 0 -52.5 9t-45.5 28t-33 55t-12 84v165q0 48 12 84t33 55t45.5 28t52.5 9q87 0 121 -78zM83 316v-130q0 -160 112 -160q111 0 111 160v130q0 159 -111 159
q-112 0 -112 -159z" />
    <glyph glyph-name="aring" unicode="&#xe5;" 
d="M199 710q38 0 65.5 -27.5t27.5 -64.5q0 -39 -27.5 -67t-65.5 -28q-39 0 -66 27.5t-27 67.5q0 37 27 64.5t66 27.5zM199 679q-26 0 -43.5 -18.5t-17.5 -42.5q0 -27 17.5 -45t43.5 -18q25 0 43 18.5t18 44.5q0 24 -18 42.5t-43 18.5zM313 500h31v-500h-31l-3 72
q-34 -80 -121 -80q-28 0 -52.5 9t-45.5 28t-33 55t-12 84v165q0 48 12 84t33 55t45.5 28t52.5 9q87 0 121 -78zM83 316v-130q0 -160 112 -160q111 0 111 160v130q0 159 -111 159q-112 0 -112 -159z" />
    <glyph glyph-name="ae" unicode="&#xe6;" horiz-adv-x="657" 
d="M46 168v165q0 48 12 84t33 55t45.5 28t52.5 9q87 0 121 -78l3 69h31v-59q35 68 120 68q28 0 53 -9t47.5 -28t35 -55t12.5 -84v-103h-259v-52q0 -152 111 -152q105 0 111 135h37q-1 -47 -14 -81t-35 -52.5t-46.5 -27t-52.5 -8.5q-85 0 -120 68v-60h-31l-3 72
q-34 -80 -121 -80q-28 0 -52.5 9t-45.5 28t-33 55t-12 84zM306 185v130q0 160 -111 160q-112 0 -112 -160v-130q0 -159 112 -159q111 0 111 159zM575 261v63q0 83 -32 116.5t-80 33.5q-111 0 -111 -150v-63h223z" />
    <glyph glyph-name="ccedilla" unicode="&#xe7;" horiz-adv-x="387" 
d="M46 168v165q0 48 12.5 83.5t34.5 55t47 28.5t54 9q28 0 53 -8.5t46.5 -26.5t34.5 -51t15 -78v-16h-37q-3 146 -112 146q-111 0 -111 -159v-130q0 -160 111 -160q109 0 112 146h37v-13q-4 -123 -89 -156v-63q0 -56 -20.5 -81.5t-71.5 -25.5h-28v32h28q32 0 45 17.5
t13 56.5v57q-15 -3 -34 -3q-60 2 -100 43.5t-40 131.5z" />
    <glyph glyph-name="egrave" unicode="&#xe8;" horiz-adv-x="386" 
d="M46 168v165q0 48 12.5 83.5t34.5 55t47 28.5t54 9t54 -9t47 -28t35 -55t13 -84v-103h-260v-52q0 -152 111 -152q106 0 111 135h38q-1 -47 -14 -81t-35 -52.5t-47 -27t-53 -8.5q-29 0 -54 9t-47 28.5t-34.5 55t-12.5 83.5zM305 261v63q0 83 -31.5 116.5t-79.5 33.5
q-111 0 -111 -150v-63h222zM147 680h41l59 -134h-31z" />
    <glyph glyph-name="eacute" unicode="&#xe9;" horiz-adv-x="386" 
d="M46 168v165q0 48 12.5 83.5t34.5 55t47 28.5t54 9t54 -9t47 -28t35 -55t13 -84v-103h-260v-52q0 -152 111 -152q106 0 111 135h38q-1 -47 -14 -81t-35 -52.5t-47 -27t-53 -8.5q-29 0 -54 9t-47 28.5t-34.5 55t-12.5 83.5zM305 261v63q0 83 -31.5 116.5t-79.5 33.5
q-111 0 -111 -150v-63h222zM197 546h-31l59 134h41z" />
    <glyph glyph-name="ecircumflex" unicode="&#xea;" horiz-adv-x="386" 
d="M46 168v165q0 48 12.5 83.5t34.5 55t47 28.5t54 9t54 -9t47 -28t35 -55t13 -84v-103h-260v-52q0 -152 111 -152q106 0 111 135h38q-1 -47 -14 -81t-35 -52.5t-47 -27t-53 -8.5q-29 0 -54 9t-47 28.5t-34.5 55t-12.5 83.5zM305 261v63q0 83 -31.5 116.5t-79.5 33.5
q-111 0 -111 -150v-63h222zM181 680h34l73 -134h-40l-51 94l-50 -94h-40z" />
    <glyph glyph-name="edieresis" unicode="&#xeb;" horiz-adv-x="386" 
d="M119 656v44h44v-44h-44zM224 656v44h44v-44h-44zM46 168v165q0 48 12.5 83.5t34.5 55t47 28.5t54 9t54 -9t47 -28t35 -55t13 -84v-103h-260v-52q0 -152 111 -152q106 0 111 135h38q-1 -47 -14 -81t-35 -52.5t-47 -27t-53 -8.5q-29 0 -54 9t-47 28.5t-34.5 55t-12.5 83.5z
M305 261v63q0 83 -31.5 116.5t-79.5 33.5q-111 0 -111 -150v-63h222z" />
    <glyph glyph-name="igrave" unicode="&#xec;" horiz-adv-x="227" 
d="M101 0v500h38v-500h-38zM51 680h41l59 -134h-31z" />
    <glyph glyph-name="iacute" unicode="&#xed;" horiz-adv-x="226" 
d="M89 0v500h37v-500h-37zM107 546h-31l59 134h41z" />
    <glyph glyph-name="icircumflex" unicode="&#xee;" horiz-adv-x="234" 
d="M96 701h46l107 -131h-39l-91 100l-92 -100h-39zM100 0v500h37v-500h-37z" />
    <glyph glyph-name="idieresis" unicode="&#xef;" horiz-adv-x="240" 
d="M47 656v44h43v-44h-43zM151 656v44h44v-44h-44zM102 0v500h38v-500h-38z" />
    <glyph glyph-name="eth" unicode="&#xf0;" horiz-adv-x="456" 
d="M400 670l-75 -45q18 -35 18 -88v-369q-2 -90 -44 -133t-104 -43q-29 0 -54.5 9t-47.5 28t-34.5 55t-12.5 84v165q0 48 12.5 84t34.5 55t47.5 28t54.5 9q35 0 64.5 -18.5t46.5 -53.5v88q0 149 -111 149q-79 0 -103 -79h-38l2 8q15 56 53 81t86 25q75 0 114 -53l74 44z
M306 185v130q0 84 -31 122t-80 38q-112 0 -112 -160v-130q0 -159 112 -159q111 0 111 159z" />
    <glyph glyph-name="ntilde" unicode="&#xf1;" horiz-adv-x="402" 
d="M300 701h32q0 -23 -1.5 -39t-7 -36t-19 -30.5t-34.5 -10.5q-17 0 -34 10t-45 38q-20 20 -31 25.5t-24 5.5q-20 0 -26.5 -18.5t-6.5 -60.5h-32q0 23 1.5 39t7 36t19 30.5t34.5 10.5q14 0 28 -7t23.5 -15t27.5 -27q19 -21 31 -26t25 -4q19 0 25.5 18.5t6.5 60.5zM85 500
l3 -72q34 81 122 81q28 0 52 -9t45 -28t33 -55t12 -84v-333h-37v315q0 160 -112 160q-111 0 -111 -154v-321h-38v500h31z" />
    <glyph glyph-name="ograve" unicode="&#xf2;" horiz-adv-x="389" 
d="M46 168v165q0 48 12.5 83.5t34.5 55t47 28.5t54 9t54.5 -9t47.5 -28t35 -55t13 -84v-165q0 -48 -13 -84t-35 -55t-47.5 -28t-54.5 -9t-54 9t-47 28.5t-34.5 55t-12.5 83.5zM306 186v129q0 160 -112 160q-111 0 -111 -160v-129q0 -160 111 -160q112 0 112 160zM144 680h41
l59 -134h-31z" />
    <glyph glyph-name="oacute" unicode="&#xf3;" horiz-adv-x="389" 
d="M46 168v165q0 48 12.5 83.5t34.5 55t47 28.5t54 9t54.5 -9t47.5 -28t35 -55t13 -84v-165q0 -48 -13 -84t-35 -55t-47.5 -28t-54.5 -9t-54 9t-47 28.5t-34.5 55t-12.5 83.5zM306 186v129q0 160 -112 160q-111 0 -111 -160v-129q0 -160 111 -160q112 0 112 160zM202 546
h-31l59 134h41z" />
    <glyph glyph-name="ocircumflex" unicode="&#xf4;" horiz-adv-x="389" 
d="M46 168v165q0 48 12.5 83.5t34.5 55t47 28.5t54 9t54.5 -9t47.5 -28t35 -55t13 -84v-165q0 -48 -13 -84t-35 -55t-47.5 -28t-54.5 -9t-54 9t-47 28.5t-34.5 55t-12.5 83.5zM306 185v130q0 160 -112 160q-111 0 -111 -160v-130q0 -159 111 -159q112 0 112 159zM181 680h34
l73 -134h-40l-51 94l-50 -94h-40z" />
    <glyph glyph-name="otilde" unicode="&#xf5;" horiz-adv-x="389" 
d="M46 168v165q0 48 12.5 83.5t34.5 55t47 28.5t54 9t54.5 -9t47.5 -28t35 -55t13 -84v-165q0 -48 -13 -84t-35 -55t-47.5 -28t-54.5 -9t-54 9t-47 28.5t-34.5 55t-12.5 83.5zM306 185v130q0 160 -112 160q-111 0 -111 -160v-130q0 -159 111 -159q112 0 112 159zM292 640
q0 -18 -1 -30t-5 -26q-8 -31 -41 -31q-13 0 -25 6.5t-32 27.5q-12 14 -19 17.5t-14 3.5q-10 0 -13.5 -13t-3.5 -42h-32q0 17 1.5 29t4.5 26q8 32 41 32q11 0 21.5 -5t16.5 -12q26 -28 36 -34t17 -5q10 0 13 13.5t3 42.5h32z" />
    <glyph glyph-name="odieresis" unicode="&#xf6;" horiz-adv-x="389" 
d="M121 656v44h44v-44h-44zM226 656v44h44v-44h-44zM46 168v165q0 48 12.5 83.5t34.5 55t47 28.5t54 9t54.5 -9t47.5 -28t35 -55t13 -84v-165q0 -48 -13 -84t-35 -55t-47.5 -28t-54.5 -9t-54 9t-47 28.5t-34.5 55t-12.5 83.5zM306 186v129q0 160 -112 160q-111 0 -111 -160
v-129q0 -160 111 -160q112 0 112 160z" />
    <glyph glyph-name="divide" unicode="&#xf7;" horiz-adv-x="524" 
d="M240 405v47h45v-47h-45zM50 279h424v-41h-424v41zM240 63v46h46v-46h-46z" />
    <glyph glyph-name="oslash" unicode="&#xf8;" horiz-adv-x="397" 
d="M345 550l-37 -86q40 -45 40 -131v-165q0 -48 -12.5 -84t-35 -55t-47.5 -28t-54 -9q-49 0 -84 23l-28 -65h-28l35 83q-44 46 -44 135v165q0 48 13 83.5t35 55t47 28.5t54 9q52 0 88 -26l29 67h29zM88 315v-130q0 -73 23 -113l161 375q-27 28 -73 28q-111 0 -111 -160z
M290 422l-160 -373q26 -23 69 -23q112 0 112 159v130q0 68 -21 107z" />
    <glyph glyph-name="ugrave" unicode="&#xf9;" horiz-adv-x="398" 
d="M311 500h37v-500h-31l-3 72q-34 -81 -122 -81q-28 0 -52 9t-45 28t-33 55t-12 84v333h37v-315q0 -160 112 -160t112 153v322zM144 680h41l59 -134h-31z" />
    <glyph glyph-name="uacute" unicode="&#xfa;" horiz-adv-x="398" 
d="M311 500h37v-500h-31l-3 72q-34 -81 -122 -81q-28 0 -52 9t-45 28t-33 55t-12 84v333h37v-315q0 -160 112 -160t112 153v322zM202 546h-31l59 134h41z" />
    <glyph glyph-name="ucircumflex" unicode="&#xfb;" horiz-adv-x="398" 
d="M176 701h46l108 -131h-39l-92 100l-91 -100h-39zM311 500h37v-500h-31l-3 72q-34 -81 -122 -81q-28 0 -52 9t-45 28t-33 55t-12 84v333h37v-315q0 -160 112 -160t112 153v322z" />
    <glyph glyph-name="udieresis" unicode="&#xfc;" horiz-adv-x="398" 
d="M126 656v44h43v-44h-43zM230 656v44h44v-44h-44zM311 500h37v-500h-31l-3 72q-34 -81 -122 -81q-28 0 -52 9t-45 28t-33 55t-12 84v333h37v-315q0 -160 112 -160t112 153v322z" />
    <glyph glyph-name="yacute" unicode="&#xfd;" horiz-adv-x="380" 
d="M302 500h37v-511q-4 -85 -46 -123t-102 -38q-49 0 -88 25.5t-53 80.5h39q24 -72 101 -72q112 0 112 150v66q-33 -78 -119 -78q-28 0 -52 9t-45 28t-33 55t-12 84v324h37v-307q0 -159 112 -159q111 0 112 160v306zM202 546h-31l59 134h41z" />
    <glyph glyph-name="thorn" unicode="&#xfe;" 
d="M90 700v-270q33 78 119 78q27 0 51.5 -9t45.5 -28t33 -54.5t12 -84.5v-165q0 -48 -12 -83.5t-33 -55t-45.5 -28.5t-51.5 -9q-85 0 -119 76v-230h-37v863h37zM314 185v130q-1 159 -113 159q-111 0 -111 -159v-130q0 -159 111 -159q113 0 113 159z" />
    <glyph glyph-name="ydieresis" unicode="&#xff;" horiz-adv-x="380" 
d="M117 656v44h43v-44h-43zM221 656v44h44v-44h-44zM302 500h37v-511q-4 -85 -46 -123t-102 -38q-49 0 -88 25.5t-53 80.5h39q24 -72 101 -72q112 0 112 150v66q-33 -78 -119 -78q-28 0 -52 9t-45 28t-33 55t-12 84v324h37v-307q0 -159 112 -159q111 0 112 160v306z" />
    <glyph glyph-name="Amacron" unicode="&#x100;" horiz-adv-x="544" 
d="M129 900h288v-36h-288v36zM247 700h50l194 -700h-43l-65 232h-221l-66 -232h-42zM375 275l-103 369l-103 -369h206z" />
    <glyph glyph-name="amacron" unicode="&#x101;" 
d="M55 700h288v-36h-288v36zM313 500h31v-500h-31l-3 72q-34 -80 -121 -80q-28 0 -52.5 9t-45.5 28t-33 55t-12 84v165q0 48 12 84t33 55t45.5 28t52.5 9q87 0 121 -78zM83 316v-130q0 -160 112 -160q111 0 111 160v130q0 159 -111 159q-112 0 -112 -159z" />
    <glyph glyph-name="Abreve" unicode="&#x102;" horiz-adv-x="544" 
d="M247 700h50l194 -700h-43l-65 232h-221l-66 -232h-42zM375 275l-103 369l-102 -369h205zM323 849h31q0 -47 -19.5 -77t-60.5 -30t-60 30t-20 77h32q0 -30 11 -53t37 -23q27 0 38 23t11 53z" />
    <glyph glyph-name="abreve" unicode="&#x103;" 
d="M46 168v165q0 48 12 84t33 55t45.5 28t52.5 9q87 0 121 -78l3 69h31v-500h-31l-3 72q-34 -80 -121 -80q-28 0 -52.5 9t-45.5 28t-33 55t-12 84zM306 186v129q0 160 -111 160q-112 0 -112 -160v-129q0 -160 112 -160q111 0 111 160zM268 653h31q0 -47 -19.5 -77t-60.5 -30
t-60 30t-20 77h32q0 -30 11 -53t37 -23q27 0 38 23t11 53z" />
    <glyph glyph-name="Aogonek" unicode="&#x104;" horiz-adv-x="544" 
d="M247 700h50l194 -700q-21 -13 -33.5 -23.5t-24.5 -28.5t-12 -38q0 -44 55 -45h17v-32h-20q-86 2 -86 72q0 14 4 26t8.5 20t15 17t14.5 12.5t16.5 11.5t13.5 8h-11l-65 232h-221l-66 -232h-42zM375 275l-103 369l-103 -369h206z" />
    <glyph glyph-name="aogonek" unicode="&#x105;" 
d="M46 168v165q0 48 12 84t33 55t45.5 28t52.5 9q87 0 121 -78l3 69h31v-500q-32 -20 -50.5 -41t-17.5 -49q0 -45 56 -45h16v-32h-16q-90 0 -91 70q0 11 2.5 20.5t5.5 16.5t9 14.5t9.5 12t12 11t11.5 8.5t12 7.5t10 6.5l-3 72q-34 -80 -121 -80q-28 0 -52.5 9t-45.5 28
t-33 55t-12 84zM306 186v129q0 160 -111 160q-112 0 -112 -160v-129q0 -160 112 -160q111 0 111 160z" />
    <glyph glyph-name="Cacute" unicode="&#x106;" horiz-adv-x="509" 
d="M255 903h58l-83 -120h-35zM71 234v233q0 67 17.5 115.5t47 75t64 39t74.5 12.5q38 0 70.5 -11t61 -35.5t46.5 -69.5t21 -106v-15h-43v14q-6 98 -49 140t-107 42q-33 0 -60 -10t-50.5 -33t-36.5 -65.5t-13 -101.5v-215q0 -59 13 -101.5t36.5 -65.5t50.5 -33t60 -10
q64 0 106 41t50 138v17h43v-13q-3 -62 -20.5 -107t-46.5 -69.5t-61.5 -36t-70.5 -11.5q-40 0 -74.5 12.5t-64 39t-47 75t-17.5 115.5z" />
    <glyph glyph-name="cacute" unicode="&#x107;" horiz-adv-x="387" 
d="M194 703h59l-83 -120h-35zM46 168v165q0 48 12.5 83.5t34.5 55t47 28.5t54 9q28 0 52.5 -8.5t46.5 -26.5t35 -51t15 -79v-15h-37q-3 146 -112 146q-111 0 -111 -159v-130q0 -160 111 -160q109 0 112 146h37v-13q-1 -46 -14.5 -79.5t-35 -52t-46.5 -27t-53 -8.5
q-29 0 -54 9t-47 28.5t-34.5 55t-12.5 83.5z" />
    <glyph glyph-name="Cdotaccent" unicode="&#x10a;" horiz-adv-x="509" 
d="M233 900h44v-44h-44v44zM71 234v233q0 67 17.5 115.5t47 75t64 39t74.5 12.5q38 0 70.5 -11t61 -35.5t46.5 -69.5t21 -106v-15h-43v14q-6 98 -49 140t-107 42q-33 0 -60 -10t-50.5 -33t-36.5 -65.5t-13 -101.5v-215q0 -59 13 -101.5t36.5 -65.5t50.5 -33t60 -10
q64 0 106 41t50 138v17h43v-13q-3 -62 -20.5 -107t-46.5 -69.5t-61.5 -36t-70.5 -11.5q-40 0 -74.5 12.5t-64 39t-47 75t-17.5 115.5z" />
    <glyph glyph-name="cdotaccent" unicode="&#x10b;" horiz-adv-x="387" 
d="M172 700h44v-44h-44v44zM46 168v165q0 48 12.5 83.5t34.5 55t47 28.5t54 9q28 0 52.5 -8.5t46.5 -26.5t35 -51t15 -79v-15h-37q-3 146 -112 146q-111 0 -111 -159v-130q0 -160 111 -160q109 0 112 146h37v-13q-1 -46 -14.5 -79.5t-35 -52t-46.5 -27t-53 -8.5q-29 0 -54 9
t-47 28.5t-34.5 55t-12.5 83.5z" />
    <glyph glyph-name="Ccaron" unicode="&#x10c;" horiz-adv-x="509" 
d="M346 901h39l-108 -131h-46l-107 131h39l91 -100zM71 234v233q0 67 17.5 115.5t47 75t64 39t74.5 12.5q38 0 70.5 -11t61 -35.5t46.5 -69.5t21 -106v-15h-43v14q-6 98 -49 140t-107 42q-33 0 -60 -10t-50.5 -33t-36.5 -65.5t-13 -101.5v-215q0 -59 13 -101.5t36.5 -65.5
t50.5 -33t60 -10q64 0 106 41t50 138v17h43v-13q-3 -62 -20.5 -107t-46.5 -69.5t-61.5 -36t-70.5 -11.5q-40 0 -74.5 12.5t-64 39t-47 75t-17.5 115.5z" />
    <glyph glyph-name="ccaron" unicode="&#x10d;" horiz-adv-x="387" 
d="M285 701h39l-107 -131h-46l-108 131h39l92 -100zM46 168v165q0 48 12.5 83.5t34.5 55t47 28.5t54 9q28 0 52.5 -8.5t46.5 -26.5t35 -51t15 -79v-15h-37q-3 146 -112 146q-111 0 -111 -159v-130q0 -160 111 -160q109 0 112 146h37v-13q-1 -46 -14.5 -79.5t-35 -52
t-46.5 -27t-53 -8.5q-29 0 -54 9t-47 28.5t-34.5 55t-12.5 83.5z" />
    <glyph glyph-name="Dcaron" unicode="&#x10e;" horiz-adv-x="517" 
d="M282 770h-46l-107 131h38l92 -100l92 100h38zM72 700h175q39 0 73.5 -12t64.5 -38.5t47.5 -75.5t17.5 -116v-216q0 -67 -17.5 -116t-47.5 -75.5t-64.5 -38.5t-73.5 -12h-175v700zM408 251v198q0 59 -13.5 102t-37.5 65.5t-51 32.5t-59 10h-133v-618h133q32 0 59 10t51 33
t37.5 65.5t13.5 101.5z" />
    <glyph glyph-name="dcaron" unicode="&#x10f;" horiz-adv-x="495" 
d="M306 433v267h38v-700h-31l-3 73q-34 -81 -122 -81q-28 0 -52 9t-45 28t-33 55t-12 84v165q0 48 12 84t33 55t45 28t52 9q85 0 118 -76zM397 700h46v-46l-20 -43h-15l8 43h-19v46zM83 316v-130q0 -160 112 -160q111 0 111 160v130q0 159 -111 159q-112 0 -112 -159z" />
    <glyph glyph-name="Dcroat" unicode="&#x110;" horiz-adv-x="517" 
d="M84 700h175q39 0 73.5 -12t64.5 -38.5t47.5 -75.5t17.5 -116v-216q0 -67 -17.5 -116t-47.5 -75.5t-64.5 -38.5t-73.5 -12h-175v330h-45v36h45v334zM420 251v198q0 59 -13.5 102t-37.5 65.5t-51 32.5t-59 10h-133v-293h123v-36h-123v-289h133q32 0 59 10t51 33t37.5 65.5
t13.5 101.5z" />
    <glyph glyph-name="dcroat" unicode="&#x111;" horiz-adv-x="403" 
d="M428 622v-34h-84v-588h-31l-3 73q-34 -81 -122 -81q-28 0 -52 9t-45 28t-33 55t-12 84v165q0 48 12 84t33 55t45 28t52 9q85 0 118 -76v155h-100v34h100v78h38v-78h84zM83 316v-130q0 -160 112 -160q111 0 111 160v130q0 159 -111 159q-112 0 -112 -159z" />
    <glyph glyph-name="Emacron" unicode="&#x112;" horiz-adv-x="410" 
d="M62 900h288v-36h-288v36zM72 700h303v-41h-261v-278h251v-41h-251v-299h261v-41h-303v700z" />
    <glyph glyph-name="emacron" unicode="&#x113;" horiz-adv-x="386" 
d="M50 700h287v-36h-287v36zM46 168v165q0 48 12.5 83.5t34.5 55t47 28.5t54 9t54 -9t47 -28t35 -55t13 -84v-103h-260v-52q0 -152 111 -152q106 0 111 135h38q-1 -47 -14 -81t-35 -52.5t-47 -27t-53 -8.5q-29 0 -54 9t-47 28.5t-34.5 55t-12.5 83.5zM305 261v63
q0 83 -31.5 116.5t-79.5 33.5q-111 0 -111 -150v-63h222z" />
    <glyph glyph-name="Edotaccent" unicode="&#x116;" horiz-adv-x="410" 
d="M184 900h44v-44h-44v44zM72 700h303v-41h-261v-278h251v-41h-251v-299h261v-41h-303v700z" />
    <glyph glyph-name="edotaccent" unicode="&#x117;" horiz-adv-x="386" 
d="M172 656v44h43v-44h-43zM46 168v165q0 48 12.5 83.5t34.5 55t47 28.5t54 9t54 -9t47 -28t35 -55t13 -84v-103h-260v-52q0 -152 111 -152q106 0 111 135h38q-1 -47 -14 -81t-35 -52.5t-47 -27t-53 -8.5q-29 0 -54 9t-47 28.5t-34.5 55t-12.5 83.5zM305 261v63
q0 83 -31.5 116.5t-79.5 33.5q-111 0 -111 -150v-63h222z" />
    <glyph glyph-name="Eogonek" unicode="&#x118;" horiz-adv-x="410" 
d="M72 700h303v-41h-261v-278h251v-41h-251v-299h261v-41h-37q-19 -13 -31.5 -23t-23.5 -27.5t-11 -36.5q1 -45 56 -45h17v-33h-17q-88 1 -90 71q0 18 6 33.5t19.5 28t20 17.5t22.5 15h-234v700z" />
    <glyph glyph-name="eogonek" unicode="&#x119;" horiz-adv-x="386" 
d="M46 168v165q0 48 12.5 83.5t34.5 55t47 28.5t54 9t54 -9t47 -28t35 -55t13 -84v-103h-260v-52q0 -152 111 -152q106 0 111 135h38q-3 -119 -82 -155l-7 -3q-21 -13 -33.5 -22.5t-24.5 -27.5t-12 -38q1 -44 56 -45h16v-32h-17q-87 1 -89 70q0 22 10.5 40t20.5 26t27 19
q-7 -1 -19 0q-61 1 -102 42.5t-41 132.5zM305 261v63q0 83 -31.5 117t-79.5 34q-111 0 -111 -151v-63h222z" />
    <glyph glyph-name="Ecaron" unicode="&#x11a;" horiz-adv-x="410" 
d="M297 901h39l-107 -131h-46l-108 131h39l92 -100zM72 700h303v-41h-261v-278h251v-41h-251v-299h261v-41h-303v700z" />
    <glyph glyph-name="ecaron" unicode="&#x11b;" horiz-adv-x="386" 
d="M285 701h39l-108 -131h-46l-107 131h38l92 -100zM46 168v165q0 48 12.5 83.5t34.5 55t47 28.5t54 9t54 -9t47 -28t35 -55t13 -84v-103h-260v-52q0 -152 111 -152q106 0 111 135h38q-1 -47 -14 -81t-35 -52.5t-47 -27t-53 -8.5q-29 0 -54 9t-47 28.5t-34.5 55t-12.5 83.5z
M305 261v63q0 83 -31.5 116.5t-79.5 33.5q-111 0 -111 -150v-63h222z" />
    <glyph glyph-name="Gbreve" unicode="&#x11e;" horiz-adv-x="545" 
d="M355 900h37q-9 -42 -42.5 -69t-77 -27t-77.5 27t-42 69h36q9 -27 32 -44t51 -17q30 0 52.5 17t30.5 44zM71 234v233q0 67 17.5 115.5t47 75t63.5 39t74 12.5q39 0 72.5 -11.5t63.5 -37.5t47.5 -73t19.5 -111v-11h-42v8q-2 55 -16 94.5t-37.5 60.5t-49.5 30.5t-58 9.5
q-33 0 -60 -10t-50 -33t-36 -65.5t-13 -101.5v-215q0 -59 13 -101.5t36 -65.5t50 -33t60 -10t60 10t50.5 32.5t37 65t13.5 101.5v82h-151v41h193v-131q0 -67 -17.5 -116t-47.5 -75.5t-64 -38.5t-74 -12t-74 12.5t-63.5 39t-47 75t-17.5 115.5z" />
    <glyph glyph-name="gbreve" unicode="&#x11f;" 
d="M282 700h36q-9 -42 -42.5 -69t-77 -27t-77 27t-42.5 69h37q8 -27 31 -44t52 -17t51.5 17t31.5 44zM46 176v157q0 48 12 84t33 55t45 28t52 9q88 0 122 -79l3 70h31v-499q-1 -48 -13.5 -82.5t-34.5 -53.5t-47 -28t-54 -9q-49 0 -87.5 25.5t-52.5 80.5h39q24 -72 101 -72
q111 0 111 150v66q-33 -78 -118 -78q-28 0 -52 9t-45 28t-33 55t-12 84zM306 192v123q0 160 -111 160q-112 0 -112 -160v-123q0 -159 112 -159q111 0 111 159z" />
    <glyph glyph-name="Gdotaccent" unicode="&#x120;" horiz-adv-x="545" 
d="M251 856v44h44v-44h-44zM71 234v233q0 67 17.5 115.5t47 75t63.5 39t74 12.5q39 0 72.5 -11.5t63.5 -37.5t47.5 -73t19.5 -111v-11h-42v8q-2 55 -16 94.5t-37.5 60.5t-49.5 30.5t-58 9.5q-33 0 -60 -10t-50 -33t-36 -65.5t-13 -101.5v-215q0 -59 13 -101.5t36 -65.5
t50 -33t60 -10t60 10t50.5 32.5t37 65t13.5 101.5v82h-151v41h193v-131q0 -67 -17.5 -116t-47.5 -75.5t-64 -38.5t-74 -12t-74 12.5t-63.5 39t-47 75t-17.5 115.5z" />
    <glyph glyph-name="gdotaccent" unicode="&#x121;" 
d="M177 700h44v-44h-44v44zM46 176v157q0 48 12 84t33 55t45 28t52 9q88 0 122 -79l3 70h31v-499q-1 -48 -13.5 -82.5t-34.5 -53.5t-47 -28t-54 -9q-49 0 -87.5 25.5t-52.5 80.5h39q24 -72 101 -72q111 0 111 149v67q-33 -78 -118 -78q-28 0 -52 9t-45 28t-33 55t-12 84z
M306 192v123q0 160 -111 160q-112 0 -112 -160v-123q0 -159 112 -159q111 0 111 159z" />
    <glyph glyph-name="Gcommaaccent" unicode="&#x122;" horiz-adv-x="545" 
d="M71 234v233q0 67 17.5 115.5t47 75t63.5 39t74 12.5q39 0 72.5 -11.5t63.5 -37.5t47.5 -73t19.5 -111v-11h-42v8q-2 55 -16 94.5t-37.5 60.5t-49.5 30.5t-58 9.5q-33 0 -60 -10t-50 -33t-36 -65.5t-13 -101.5v-215q0 -59 13 -101.5t36 -65.5t50 -33t60 -10t60 10
t50.5 32.5t37 65t13.5 101.5v82h-151v41h193v-131q0 -67 -17.5 -116t-47.5 -75.5t-64 -38.5t-74 -12t-74 12.5t-63.5 39t-47 75t-17.5 115.5zM250 -99h46v-46l-20 -42h-15l8 42h-19v46z" />
    <glyph glyph-name="gcommaaccent" unicode="&#x123;" 
d="M192 735h14l-8 -41h18v-44h-43v44zM46 176v157q0 48 12 84t33 55t45 28t52 9q88 0 122 -79l3 70h31v-499q-1 -48 -13.5 -82.5t-34.5 -53.5t-47 -28t-54 -9q-49 0 -87.5 25.5t-52.5 80.5h39q24 -72 101 -72q111 0 111 149v67q-33 -78 -118 -78q-28 0 -52 9t-45 28t-33 55
t-12 84zM306 192v123q0 160 -111 160q-112 0 -112 -160v-123q0 -159 112 -159q111 0 111 159z" />
    <glyph glyph-name="Hbar" unicode="&#x126;" horiz-adv-x="642" 
d="M606 548v-39h-102v-509h-42v340h-282v-340h-42v509h-102v39h102v152h42v-152h282v152h42v-152h102zM462 381v128h-282v-128h282z" />
    <glyph glyph-name="hbar" unicode="&#x127;" horiz-adv-x="425" 
d="M115 589v-158q34 78 119 78q28 0 52 -9t45 -28t33 -55t12 -84v-333h-37v316q0 159 -112 159t-112 -153v-322h-37v588h-108v34h108v78h37v-77h109v-34h-109z" />
    <glyph glyph-name="Imacron" unicode="&#x12a;" horiz-adv-x="186" 
d="M-50 900h289v-36h-289v36zM73 0v700h43v-700h-43z" />
    <glyph glyph-name="imacron" unicode="&#x12b;" horiz-adv-x="231" 
d="M-27 700h288v-36h-288v36zM99 0v500h37v-500h-37z" />
    <glyph glyph-name="Iogonek" unicode="&#x12e;" horiz-adv-x="186" 
d="M72 700h43v-700q-21 -13 -33.5 -23t-25 -28.5t-12.5 -38.5q1 -45 56 -45h17v-32h-17q-89 0 -90 71q0 11 2.5 21.5t8 19.5t10 15t14 13.5t13 10t14.5 9.5l11 7h-11v700z" />
    <glyph glyph-name="iogonek" unicode="&#x12f;" horiz-adv-x="217" 
d="M86 656v44h44v-44h-44zM126 500v-500q-21 -13 -33.5 -23t-25 -28.5t-11.5 -37.5q0 -46 56 -46h16v-32h-17q-89 0 -90 71q0 14 4.5 26t9 20t15 17.5t15.5 13t17 11t13 8.5h-6v500h37z" />
    <glyph glyph-name="Idotaccent" unicode="&#x130;" horiz-adv-x="186" 
d="M72 856v44h43v-44h-43zM72 0v700h43v-700h-43z" />
    <glyph glyph-name="dotlessi" unicode="&#x131;" horiz-adv-x="215" 
d="M89 0v500h37v-500h-37z" />
    <glyph glyph-name="IJ" unicode="&#x132;" horiz-adv-x="517" 
d="M72 700h43v-700h-43v700zM403 700h42v-466q0 -63 -15.5 -110.5t-43 -75t-58.5 -41t-66 -15.5h-22v41h14q29 1 54.5 12.5t47.5 35t34.5 65t12.5 97.5v457z" />
    <glyph glyph-name="ij" unicode="&#x133;" horiz-adv-x="423" 
d="M57 635h46v-44h-46v44zM325 635h44v-43h-44v43zM61 500h38v-500h-38v500zM328 500h38v-497q0 -54 -8.5 -89t-26.5 -53.5t-39.5 -25.5t-55.5 -8h-24v34h11q31 1 48.5 6t31.5 20.5t19.5 46t5.5 81.5v485z" />
    <glyph glyph-name="Kcommaaccent" unicode="&#x136;" horiz-adv-x="509" 
d="M152 360l303 -360h-53l-287 338v-338h-43v700h43v-317l265 317h52zM232 -145v46h46v-46l-20 -42h-15l8 42h-19z" />
    <glyph glyph-name="kcommaaccent" unicode="&#x137;" horiz-adv-x="367" 
d="M122 255l204 -255h-42l-194 236v-236h-37v700h37v-424l184 224h42zM161 -145v46h46v-46l-20 -42h-15l8 42h-19z" />
    <glyph glyph-name="Lacute" unicode="&#x139;" horiz-adv-x="422" 
d="M212 903h58l-83 -120h-35zM72 700h42v-659h254v-41h-296v700z" />
    <glyph glyph-name="lacute" unicode="&#x13a;" horiz-adv-x="155" 
d="M79 870h59l-83 -120h-35zM57 0v700h38v-700h-38z" />
    <glyph glyph-name="Lcommaaccent" unicode="&#x13b;" horiz-adv-x="422" 
d="M114 41h254v-41h-296v700h42v-659zM189 -145v46h46v-46l-20 -42h-15l8 42h-19z" />
    <glyph glyph-name="lcommaaccent" unicode="&#x13c;" horiz-adv-x="144" 
d="M95 700v-700h-38v700h38zM50 -99h46v-46l-20 -42h-15l8 42h-19v46z" />
    <glyph glyph-name="Lcaron" unicode="&#x13d;" horiz-adv-x="441" 
d="M114 41h254v-41h-296v700h42v-659zM291 611l8 43h-19v46h46v-46l-20 -43h-15z" />
    <glyph glyph-name="lcaron" unicode="&#x13e;" horiz-adv-x="202" 
d="M57 0v700h38v-700h-38zM153 700h46v-46l-20 -43h-15l8 43h-19v46z" />
    <glyph glyph-name="Ldot" unicode="&#x13f;" horiz-adv-x="437" 
d="M114 41h254v-41h-296v700h42v-659z" />
    <glyph glyph-name="ldot" unicode="&#x140;" horiz-adv-x="252" 
d="M57 0v700h38v-700h-38zM181 297v46h46v-46h-46z" />
    <glyph glyph-name="Lslash" unicode="&#x141;" horiz-adv-x="489" 
d="M163 41h273v-41h-315v366l-106 -70v45l106 70v289h42v-271l107 71v-45l-107 -71v-343z" />
    <glyph glyph-name="lslash" unicode="&#x142;" horiz-adv-x="288" 
d="M272 500v-45l-110 -72v-383h-38v366l-107 -70v45l107 70v289h38v-272z" />
    <glyph glyph-name="Nacute" unicode="&#x143;" horiz-adv-x="512" 
d="M257 903h58l-82 -120h-35zM402 700h41v-700h-42l-291 607v-607h-41v700h42l291 -607v607z" />
    <glyph glyph-name="nacute" unicode="&#x144;" horiz-adv-x="402" 
d="M202 703h58l-83 -120h-35zM85 500l3 -72q34 81 122 81q28 0 52 -9t45 -28t33 -55t12 -84v-333h-37v316q0 159 -112 159q-111 0 -111 -153v-322h-38v500h31z" />
    <glyph glyph-name="Ncommaaccent" unicode="&#x145;" horiz-adv-x="512" 
d="M402 700h41v-700h-42l-291 607v-607h-41v700h42l291 -607v607zM234 -145v46h46v-46l-20 -42h-15l8 42h-19z" />
    <glyph glyph-name="ncommaaccent" unicode="&#x146;" horiz-adv-x="402" 
d="M85 500l3 -72q34 81 122 81q28 0 52 -9t45 -28t33 -55t12 -84v-333h-37v316q0 159 -112 159q-111 0 -111 -153v-322h-38v500h31zM179 -145v46h45v-46l-19 -42h-15l8 42h-19z" />
    <glyph glyph-name="Ncaron" unicode="&#x147;" horiz-adv-x="512" 
d="M348 901h39l-107 -131h-47l-107 131h39l91 -100zM402 700h41v-700h-42l-291 607v-607h-41v700h42l291 -607v607z" />
    <glyph glyph-name="ncaron" unicode="&#x148;" horiz-adv-x="402" 
d="M293 701h39l-108 -131h-46l-107 131h38l92 -100zM85 500l3 -72q34 81 122 81q28 0 52 -9t45 -28t33 -55t12 -84v-333h-37v316q0 159 -112 159q-111 0 -111 -153v-322h-38v500h31z" />
    <glyph glyph-name="Eng" unicode="&#x14a;" horiz-adv-x="600" 
d="M456 700h43v-693q-1 -56 -9.5 -92t-28 -54.5t-43 -25.5t-59.5 -8h-20v40h14q30 0 46.5 4t30.5 18t19.5 41t6.5 72l-289 610v-612h-43v700h42l290 -612v612z" />
    <glyph glyph-name="eng" unicode="&#x14b;" horiz-adv-x="404" 
d="M86 500l3 -72q34 81 122 81q28 0 52 -9t45 -28t33 -55t12 -84v-330q0 -55 -8.5 -90.5t-27 -53.5t-41.5 -24.5t-58 -7.5h-19v34h8q33 1 50.5 5.5t32.5 19.5t20.5 45t5.5 81v307q0 156 -112 156t-112 -153v-322h-37v500h31z" />
    <glyph glyph-name="Omacron" unicode="&#x14c;" horiz-adv-x="532" 
d="M123 900h288v-36h-288v36zM63 234v233q0 67 17 115.5t47 75t64.5 39t73.5 12.5q40 0 74 -12t64.5 -38.5t48 -75.5t17.5 -116v-233q0 -67 -17.5 -116t-48 -75.5t-64.5 -38.5t-74 -12q-39 0 -73.5 12.5t-64.5 39t-47 75t-17 115.5zM426 243v215q0 59 -13.5 102t-37 65.5
t-50.5 32.5t-60 10t-60 -10t-50 -33t-36 -65.5t-13 -101.5v-215q0 -59 13 -101.5t36 -65.5t50 -33t60 -10t60 10t50.5 33t37 65.5t13.5 101.5z" />
    <glyph glyph-name="omacron" unicode="&#x14d;" horiz-adv-x="389" 
d="M52 700h287v-36h-287v36zM46 168v165q0 48 12.5 83.5t34.5 55t47 28.5t54 9t54.5 -9t47.5 -28t35 -55t13 -84v-165q0 -48 -13 -84t-35 -55t-47.5 -28t-54.5 -9t-54 9t-47 28.5t-34.5 55t-12.5 83.5zM306 186v129q0 160 -112 160q-111 0 -111 -160v-129q0 -160 111 -160
q112 0 112 160z" />
    <glyph glyph-name="Ohungarumlaut" unicode="&#x150;" horiz-adv-x="532" 
d="M215 903h57l-83 -120h-33zM321 903h57l-83 -120h-33zM63 234v233q0 67 17 115.5t47 75t64.5 39t73.5 12.5q40 0 74 -12t64.5 -38.5t48 -75.5t17.5 -116v-233q0 -67 -17.5 -116t-48 -75.5t-64.5 -38.5t-74 -12q-39 0 -73.5 12.5t-64.5 39t-47 75t-17 115.5zM426 243v215
q0 59 -13.5 102t-37 65.5t-50.5 32.5t-60 10t-60 -10t-50 -33t-36 -65.5t-13 -101.5v-215q0 -59 13 -101.5t36 -65.5t50 -33t60 -10t60 10t50.5 33t37 65.5t13.5 101.5z" />
    <glyph glyph-name="ohungarumlaut" unicode="&#x151;" 
d="M149 703h57l-83 -120h-33zM255 703h56l-82 -120h-33zM46 168v165q0 48 12.5 83.5t34.5 55t47 28.5t54 9t54.5 -9t47.5 -28t35 -55t13 -84v-165q0 -48 -13 -84t-35 -55t-47.5 -28t-54.5 -9t-54 9t-47 28.5t-34.5 55t-12.5 83.5zM306 186v129q0 160 -112 160
q-111 0 -111 -160v-129q0 -160 111 -160q112 0 112 160z" />
    <glyph glyph-name="OE" unicode="&#x152;" horiz-adv-x="808" 
d="M46 234v233q0 67 17 115.5t47 75t64 39t74 12.5q55 0 100 -25t69 -80v96h303v-41h-261v-278h251v-41h-251v-299h261v-41h-303v97q-24 -55 -69 -80t-100 -25q-40 0 -74 12.5t-64 39t-47 75t-17 115.5zM409 243v215q0 59 -13.5 102t-37 65.5t-50.5 32.5t-60 10t-60 -10
t-50 -33t-36 -65.5t-13 -101.5v-215q0 -59 13 -101.5t36 -65.5t50 -33t60 -10t60 10t50.5 33t37 65.5t13.5 101.5z" />
    <glyph glyph-name="oe" unicode="&#x153;" horiz-adv-x="739" 
d="M90 168v165q0 48 12 83.5t33 55t45 28.5t52 9q45 0 80.5 -22.5t51.5 -72.5q17 50 53 72.5t82 22.5q28 0 53.5 -9t47.5 -28t34.5 -55t12.5 -84v-103h-259v-52q0 -152 111 -152q105 0 111 135h37q-1 -47 -14 -81t-34.5 -52.5t-46.5 -27t-53 -8.5q-46 0 -82 22.5t-53 72.5
q-16 -50 -51.5 -72.5t-80.5 -22.5q-28 0 -52 9t-45 28.5t-33 55t-12 83.5zM350 185v130q0 160 -112 160q-111 0 -111 -160v-130q0 -159 111 -159q112 0 112 159zM610 264v64q0 80 -31.5 113t-79.5 34q-111 -1 -111 -147v-64h222z" />
    <glyph glyph-name="Racute" unicode="&#x154;" horiz-adv-x="498" 
d="M250 903h58l-83 -120h-34zM72 700h161q39 0 73.5 -9t65 -28.5t48.5 -55.5t18 -83v-26q0 -70 -39.5 -110.5t-100.5 -53.5l146 -334h-45l-143 319h-142v-319h-42v700zM396 506v10q0 41 -13.5 70.5t-37.5 44.5t-50 21.5t-58 6.5h-123v-296h123q31 0 58 6.5t50.5 22t37 44.5
t13.5 70z" />
    <glyph glyph-name="racute" unicode="&#x155;" horiz-adv-x="260" 
d="M131 703h58l-83 -120h-35zM85 500l4 -85q19 46 53.5 70t76.5 24v-34q-55 0 -91 -43t-36 -126v-306h-38v500h31z" />
    <glyph glyph-name="Rcommaaccent" unicode="&#x156;" horiz-adv-x="498" 
d="M72 700h161q39 0 73.5 -9t65 -28.5t48.5 -55.5t18 -83v-26q0 -70 -39.5 -110.5t-100.5 -53.5l146 -334h-45l-143 319h-142v-319h-42v700zM396 506v10q0 42 -13.5 71t-37.5 44t-50 21.5t-58 6.5h-123v-296h123q31 0 58 6.5t50.5 22t37 44.5t13.5 70zM227 -99h46v-46
l-20 -42h-15l8 42h-19v46z" />
    <glyph glyph-name="rcommaaccent" unicode="&#x157;" horiz-adv-x="260" 
d="M85 500l4 -85q19 46 53.5 70t76.5 24v-34q-55 0 -91 -43t-36 -126v-306h-38v500h31zM108 -145v46h46v-46l-20 -42h-15l8 42h-19z" />
    <glyph glyph-name="Rcaron" unicode="&#x158;" horiz-adv-x="498" 
d="M341 901h39l-108 -131h-46l-107 131h39l91 -100zM72 700h161q39 0 73.5 -9t65 -28.5t48.5 -55.5t18 -83v-26q0 -70 -39.5 -110.5t-100.5 -53.5l146 -334h-45l-143 319h-142v-319h-42v700zM396 506v10q0 41 -13.5 70.5t-37.5 44.5t-50 21.5t-58 6.5h-123v-296h123
q31 0 58 6.5t50.5 22t37 44.5t13.5 70z" />
    <glyph glyph-name="rcaron" unicode="&#x159;" horiz-adv-x="260" 
d="M223 701h39l-108 -131h-46l-107 131h39l91 -100zM86 500l4 -85q19 46 53.5 70t76.5 24v-34q-55 0 -91 -43t-36 -126v-306h-38v500h31z" />
    <glyph glyph-name="Sacute" unicode="&#x15a;" horiz-adv-x="512" 
d="M256 903h59l-83 -120h-35zM53 207h42q0 -47 14.5 -82t39 -54.5t51.5 -28.5t56 -9q73 0 117 36.5t44 113.5q0 37 -11.5 64.5t-35 46.5t-48.5 31t-61 23q-4 1 -13 4q-20 6 -31.5 10t-33 13t-34 17.5t-28.5 22.5t-25 30t-15.5 39t-6.5 49q0 47 16 82.5t43.5 55t59.5 29
t68 9.5t68.5 -12t61 -36t45 -67.5t16.5 -100.5h-41q0 88 -44 131.5t-105.5 43.5t-103.5 -33t-42 -100q1 -21 6.5 -39t13.5 -31t20.5 -24t23 -18t26.5 -13.5t25.5 -9t24 -7t18.5 -5.5q98 -30 141.5 -76t43.5 -126q0 -53 -16 -91.5t-44.5 -60.5t-64 -32t-78.5 -10
q-37 0 -71 11.5t-64.5 35.5t-49 67.5t-18.5 100.5z" />
    <glyph glyph-name="sacute" unicode="&#x15b;" horiz-adv-x="380" 
d="M191 703h58l-83 -120h-35zM78 147l-1 -9q2 -59 34.5 -85.5t78.5 -26.5q113 0 113 106q0 48 -27.5 75t-79.5 44q-24 7 -37 11.5t-36 15.5t-35 24t-22 34.5t-10 48.5q0 63 39.5 93.5t99.5 30.5q55 0 96 -36t44 -107v-10h-37v11q-3 56 -32 82t-71 26q-102 0 -102 -89
q0 -13 4 -25t9 -20t14 -16t15.5 -12.5t18.5 -9.5t17.5 -7t18 -6t14.5 -4q73 -22 104.5 -59t31.5 -93q0 -73 -42 -107.5t-108 -34.5q-36 0 -68 13.5t-56 48t-26 83.5v10h38z" />
    <glyph glyph-name="Scedilla" unicode="&#x15e;" horiz-adv-x="512" 
d="M53 207h42q0 -47 14.5 -82t39 -54.5t51.5 -28.5t56 -9q73 0 117 36.5t44 113.5q0 37 -11.5 64.5t-35 46.5t-48.5 31t-61 23q-4 1 -13 4q-20 6 -31.5 10t-33 13t-34 17.5t-28.5 22.5t-25 30t-15.5 39t-6.5 49q0 47 16 82.5t43.5 55t59.5 29t68 9.5t68.5 -12t61 -36
t45 -67.5t16.5 -100.5h-41q0 88 -44 131.5t-105.5 43.5t-103.5 -33t-42 -100q1 -21 6.5 -39t13.5 -31t20.5 -24t23 -18t26.5 -13.5t25.5 -9t24 -7t18.5 -5.5q98 -30 141.5 -76t43.5 -126q0 -159 -143 -188v-60q0 -55 -20.5 -80t-70.5 -25h-29v32h28q32 0 45 17.5t13 55.5v56
q-22 -1 -34 -1q-35 1 -68 13t-62 36t-47 66.5t-18 98.5z" />
    <glyph glyph-name="scedilla" unicode="&#x15f;" horiz-adv-x="380" 
d="M78 147l-1 -9q3 -60 35.5 -86t77.5 -26q113 0 113 106q0 48 -27.5 75t-79.5 44q-24 7 -37 11.5t-36 15.5t-35 24t-22 34.5t-10 48.5q0 63 39.5 93.5t99.5 30.5q54 0 95 -35.5t45 -105.5v-12h-37v13q-3 55 -32.5 80.5t-70.5 25.5q-102 0 -102 -89q0 -13 4 -25t9 -20
t14 -16t15.5 -12.5t18.5 -9.5t17.5 -7t18 -6t14.5 -4q73 -22 104.5 -59t31.5 -93q0 -105 -89 -133v-62q-1 -56 -21.5 -81t-70.5 -25h-28v32h27q32 0 45.5 17.5t13.5 55.5v57q-17 -2 -35 -2q-55 3 -97.5 38.5t-44.5 105.5v10h38z" />
    <glyph glyph-name="Scaron" unicode="&#x160;" horiz-adv-x="512" 
d="M348 901h38l-107 -131h-46l-107 131h38l92 -100zM53 207h42q0 -47 14.5 -82t39 -54.5t51.5 -28.5t56 -9q73 0 117 36.5t44 113.5q0 37 -11.5 64.5t-35 46.5t-48.5 31t-61 23q-4 1 -13 4q-20 6 -31.5 10t-33 13t-34 17.5t-28.5 22.5t-25 30t-15.5 39t-6.5 49q0 47 16 82.5
t43.5 55t59.5 29t68 9.5t68.5 -12t61 -36t45 -67.5t16.5 -100.5h-41q0 88 -44 131.5t-105.5 43.5t-103.5 -33t-42 -100q1 -21 6.5 -39t13.5 -31t20.5 -24t23 -18t26.5 -13.5t25.5 -9t24 -7t18.5 -5.5q98 -30 141.5 -76t43.5 -126q0 -53 -16 -91.5t-44.5 -60.5t-64 -32
t-78.5 -10q-37 0 -71 11.5t-64.5 35.5t-49 67.5t-18.5 100.5z" />
    <glyph glyph-name="scaron" unicode="&#x161;" horiz-adv-x="380" 
d="M282 701h39l-108 -131h-46l-107 131h38l92 -100zM78 147l-1 -9q2 -59 34.5 -85.5t78.5 -26.5q113 0 113 106q0 48 -27.5 75t-79.5 44q-24 7 -37 11.5t-36 15.5t-35 24t-22 34.5t-10 48.5q0 63 39.5 93.5t99.5 30.5q55 0 96 -36t44 -107v-10h-37v11q-3 56 -32 82t-71 26
q-102 0 -102 -89q0 -13 4 -25t9 -20t14 -16t15.5 -12.5t18.5 -9.5t17.5 -7t18 -6t14.5 -4q73 -22 104.5 -59t31.5 -93q0 -73 -42 -107.5t-108 -34.5q-36 0 -68 13.5t-56 48t-26 83.5v10h38z" />
    <glyph glyph-name="Tcedilla" unicode="&#x162;" horiz-adv-x="462" 
d="M54 700h355v-41h-157v-718q0 -57 -20.5 -82.5t-71.5 -25.5h-28v32h28q32 0 45 17t14 57v61h-9v659h-156v41z" />
    <glyph glyph-name="tcedilla" unicode="&#x163;" horiz-adv-x="320" 
d="M124 653h38v-153h116v-34h-116v-279q0 -45 4 -74t11 -47t21 -26.5t28.5 -11t40.5 -3.5h11v-34h-11q-27 0 -46 3v-51q-1 -53 -22 -77t-70 -24h-28v32h27q33 0 46 17.5t13 56.5v55q-32 14 -47.5 53t-15.5 119v291h-83v34h83v153z" />
    <glyph glyph-name="Tcaron" unicode="&#x164;" horiz-adv-x="462" 
d="M323 901h38l-107 -131h-46l-107 131h38l92 -100zM409 700v-41h-157v-659h-42v659h-156v41h355z" />
    <glyph glyph-name="tcaron" unicode="&#x165;" horiz-adv-x="342" 
d="M211 702h44v-44l-19 -40h-14l7 40h-18v44zM124 653h38v-153h116v-34h-116v-279q0 -55 5 -87.5t19 -48.5t30.5 -20.5t47.5 -5.5h14v-34h-20q-36 0 -58 6.5t-40.5 25t-27 55.5t-8.5 97v291h-83v34h83v153z" />
    <glyph glyph-name="Tbar" unicode="&#x166;" horiz-adv-x="462" 
d="M54 700h355v-41h-157v-253h102v-35h-102v-371h-42v371h-95v35h95v253h-156v41z" />
    <glyph glyph-name="tbar" unicode="&#x167;" horiz-adv-x="320" 
d="M278 466h-116v-120h116v-34h-116v-129q0 -54 5 -85.5t19.5 -47.5t31 -20t46.5 -5h14v-34h-20q-36 0 -58 6.5t-40.5 25t-27 55.5t-8.5 97v137h-83v34h83v120h-83v34h83v153h38v-153h116v-34z" />
    <glyph glyph-name="Umacron" unicode="&#x16a;" horiz-adv-x="540" 
d="M127 900h288v-36h-288v36zM114 242v458h-42v-467q0 -66 16.5 -114.5t45.5 -75t63 -39t74 -12.5q39 0 73 12.5t63.5 39t46.5 75t17 114.5v467h-42v-458q0 -58 -13 -100t-36 -65t-50 -33.5t-59 -10.5q-69 0 -113 49t-44 160z" />
    <glyph glyph-name="umacron" unicode="&#x16b;" horiz-adv-x="398" 
d="M56 700h288v-36h-288v36zM311 500h37v-500h-31l-3 72q-34 -81 -122 -81q-28 0 -52 9t-45 28t-33 55t-12 84v333h37v-315q0 -160 112 -160t112 154v321z" />
    <glyph glyph-name="Uring" unicode="&#x16e;" horiz-adv-x="540" 
d="M270 910q39 0 66 -27.5t27 -64.5q0 -39 -27 -67t-66 -28t-65.5 27.5t-26.5 67.5q0 37 26.5 64.5t65.5 27.5zM270 879q-26 0 -43.5 -18.5t-17.5 -42.5q0 -27 17.5 -45t43.5 -18t44 18.5t18 44.5q0 24 -18.5 42.5t-43.5 18.5zM114 242v458h-42v-467q0 -66 16.5 -114.5
t45.5 -75t63 -39t74 -12.5q39 0 73 12.5t63.5 39t46.5 75t17 114.5v467h-42v-458q0 -58 -13 -100t-36 -65t-50 -33.5t-59 -10.5q-69 0 -113 49t-44 160z" />
    <glyph glyph-name="uring" unicode="&#x16f;" horiz-adv-x="398" 
d="M199 710q39 0 66.5 -27.5t27.5 -64.5q0 -39 -27.5 -67t-66.5 -28t-65.5 27.5t-26.5 67.5q0 37 27 64.5t65 27.5zM199 679q-25 0 -43 -18.5t-18 -42.5q0 -27 17.5 -45t43.5 -18t44 18.5t18 44.5q0 24 -18 42.5t-44 18.5zM311 500h37v-500h-31l-3 72q-34 -81 -122 -81
q-28 0 -52 9t-45 28t-33 55t-12 84v333h37v-315q0 -160 112 -160t112 154v321z" />
    <glyph glyph-name="Uhungarumlaut" unicode="&#x170;" horiz-adv-x="540" 
d="M219 903h57l-83 -120h-33zM325 903h56l-82 -120h-33zM114 242v458h-42v-467q0 -66 16.5 -114.5t45.5 -75t63 -39t74 -12.5q39 0 73 12.5t63.5 39t46.5 75t17 114.5v467h-42v-458q0 -58 -13 -100t-36 -65t-50 -33.5t-59 -10.5q-69 0 -113 49t-44 160z" />
    <glyph glyph-name="uhungarumlaut" unicode="&#x171;" horiz-adv-x="398" 
d="M150 703h57l-83 -120h-33zM256 703h56l-82 -120h-33zM311 500h37v-500h-31l-3 72q-34 -81 -122 -81q-28 0 -52 9t-45 28t-33 55t-12 84v333h37v-315q0 -160 112 -160t112 153v322z" />
    <glyph glyph-name="Uogonek" unicode="&#x172;" horiz-adv-x="540" 
d="M429 700h42v-467q0 -174 -117 -222l-14 -11q-20 -13 -32.5 -23t-25 -28.5t-12.5 -38.5q1 -45 56 -45h17v-32h-17q-89 0 -90 71q0 23 11.5 42t22.5 28t28 20l-27 -2q-40 0 -74 12.5t-63 39t-45.5 75t-16.5 114.5v467h42v-458q0 -111 44 -160t113 -49q32 0 59 10.5t50 33.5
t36 65t13 100v458z" />
    <glyph glyph-name="uogonek" unicode="&#x173;" horiz-adv-x="398" 
d="M311 500h37v-500q-21 -13 -33.5 -23t-25 -28.5t-12.5 -37.5q0 -46 56 -46h17v-32h-18q-88 1 -89 70q0 11 2.5 20.5t5.5 16.5t9 14.5t10.5 12t12.5 10.5t11.5 8.5t12.5 8t10 6.5l-3 72q-17 -41 -49 -61t-73 -20q-28 0 -52 9t-45 28t-33 55t-12 84v333h37v-315
q0 -160 112 -160t112 154v321z" />
    <glyph glyph-name="Wcircumflex" unicode="&#x174;" horiz-adv-x="816" 
d="M385 901h46l108 -131h-39l-92 100l-91 -100h-39zM719 700h43l-162 -700h-47l-145 605l-145 -605h-48l-161 700h42l145 -624l146 624h41l147 -624z" />
    <glyph glyph-name="wcircumflex" unicode="&#x175;" horiz-adv-x="681" 
d="M318 701h46l107 -131h-39l-91 100l-92 -100h-39zM603 500h38l-132 -500h-44l-124 430l-124 -430h-44l-132 500h38l118 -445l126 445h35l127 -445z" />
    <glyph glyph-name="Ycircumflex" unicode="&#x176;" horiz-adv-x="510" 
d="M232 901h46l108 -131h-39l-92 100l-91 -100h-39zM410 700h46l-182 -407v-293h-43v293l-177 407h45l154 -359z" />
    <glyph glyph-name="ycircumflex" unicode="&#x177;" horiz-adv-x="380" 
d="M167 701h46l108 -131h-39l-92 100l-91 -100h-39zM302 500h37v-511q-4 -85 -46 -123t-102 -38q-49 0 -88 25.5t-53 80.5h39q24 -72 101 -72q112 0 112 150v66q-33 -78 -119 -78q-28 0 -52 9t-45 28t-33 55t-12 84v324h37v-307q0 -159 112 -159q111 0 112 160v306z" />
    <glyph glyph-name="Ydieresis" unicode="&#x178;" horiz-adv-x="510" 
d="M182 856v44h43v-44h-43zM286 856v44h44v-44h-44zM410 700h46l-182 -407v-293h-43v293l-177 407h45l154 -359z" />
    <glyph glyph-name="Zacute" unicode="&#x179;" horiz-adv-x="527" 
d="M264 903h59l-83 -120h-35zM61 700h406v-38l-366 -620h373v-42h-421v37l367 622h-359v41z" />
    <glyph glyph-name="zacute" unicode="&#x17a;" horiz-adv-x="379" 
d="M190 703h58l-82 -120h-35zM52 500h285v-31l-254 -435h255v-34h-297v31l254 434h-243v35z" />
    <glyph glyph-name="Zdotaccent" unicode="&#x17b;" horiz-adv-x="527" 
d="M243 900h43v-44h-43v44zM61 700h406v-38l-366 -620h373v-42h-421v37l367 622h-359v41z" />
    <glyph glyph-name="zdotaccent" unicode="&#x17c;" horiz-adv-x="379" 
d="M168 700h44v-44h-44v44zM52 500h285v-31l-254 -435h255v-34h-297v31l254 434h-243v35z" />
    <glyph glyph-name="Zcaron" unicode="&#x17d;" horiz-adv-x="527" 
d="M356 901h38l-107 -131h-46l-107 131h38l92 -100zM61 700h406v-38l-366 -620h373v-42h-421v37l367 622h-359v41z" />
    <glyph glyph-name="zcaron" unicode="&#x17e;" horiz-adv-x="379" 
d="M281 701h39l-107 -131h-47l-107 131h39l92 -100zM52 500h285v-31l-254 -435h255v-34h-297v31l254 434h-243v35z" />
    <glyph glyph-name="florin" unicode="&#x192;" horiz-adv-x="367" 
d="M312 708h15v-35h-12q-41 0 -61.5 -10t-34 -41.5t-25.5 -99.5l-4 -22h118v-34h-124l-79 -466h-37l79 466h-107v34h113l7 39q9 56 21 89.5t32 51t41.5 22.5t57.5 6z" />
    <glyph glyph-name="Acaron" unicode="&#x1cd;" horiz-adv-x="544" 
d="M364 901h39l-107 -131h-46l-108 131h39l92 -100zM247 700h50l194 -700h-43l-65 232h-221l-66 -232h-42zM375 275l-103 369l-103 -369h206z" />
    <glyph glyph-name="acaron" unicode="&#x1ce;" 
d="M290 701h39l-107 -131h-46l-108 131h39l92 -100zM313 500h31v-500h-31l-3 72q-34 -80 -121 -80q-28 0 -52.5 9t-45.5 28t-33 55t-12 84v165q0 48 12 84t33 55t45.5 28t52.5 9q87 0 121 -78zM83 316v-130q0 -160 112 -160q111 0 111 160v130q0 159 -111 159
q-112 0 -112 -159z" />
    <glyph glyph-name="Icaron" unicode="&#x1cf;" horiz-adv-x="186" 
d="M186 901h39l-108 -131h-46l-107 131h38l92 -100zM73 0v700h43v-700h-43z" />
    <glyph glyph-name="icaron" unicode="&#x1d0;" horiz-adv-x="234" 
d="M210 701h39l-107 -131h-46l-108 131h39l92 -100zM100 0v500h37v-500h-37z" />
    <glyph glyph-name="Ocaron" unicode="&#x1d1;" horiz-adv-x="532" 
d="M358 901h39l-107 -131h-47l-107 131h39l91 -100zM63 234v233q0 67 17 115.5t47 75t64.5 39t73.5 12.5q40 0 74 -12t64.5 -38.5t48 -75.5t17.5 -116v-233q0 -67 -17.5 -116t-48 -75.5t-64.5 -38.5t-74 -12q-39 0 -73.5 12.5t-64.5 39t-47 75t-17 115.5zM426 243v215
q0 59 -13.5 102t-37 65.5t-50.5 32.5t-60 10t-60 -10t-50 -33t-36 -65.5t-13 -101.5v-215q0 -59 13 -101.5t36 -65.5t50 -33t60 -10t60 10t50.5 33t37 65.5t13.5 101.5z" />
    <glyph glyph-name="ocaron" unicode="&#x1d2;" horiz-adv-x="389" 
d="M287 701h38l-107 -131h-46l-107 131h38l92 -100zM46 168v165q0 48 12.5 83.5t34.5 55t47 28.5t54 9t54.5 -9t47.5 -28t35 -55t13 -84v-165q0 -48 -13 -84t-35 -55t-47.5 -28t-54.5 -9t-54 9t-47 28.5t-34.5 55t-12.5 83.5zM306 186v129q0 160 -112 160q-111 0 -111 -160
v-129q0 -160 111 -160q112 0 112 160z" />
    <glyph glyph-name="Ucaron" unicode="&#x1d3;" horiz-adv-x="540" 
d="M362 901h39l-108 -131h-46l-107 131h38l92 -100zM114 242v458h-42v-467q0 -66 16.5 -114.5t45.5 -75t63 -39t74 -12.5q39 0 73 12.5t63.5 39t46.5 75t17 114.5v467h-42v-458q0 -58 -13 -100t-36 -65t-50 -33.5t-59 -10.5q-69 0 -113 49t-44 160z" />
    <glyph glyph-name="ucaron" unicode="&#x1d4;" horiz-adv-x="398" 
d="M291 701h39l-108 -131h-46l-107 131h39l91 -100zM311 500h37v-500h-31l-3 72q-34 -81 -122 -81q-28 0 -52 9t-45 28t-33 55t-12 84v333h37v-315q0 -160 112 -160t112 153v322z" />
    <glyph glyph-name="Udieresismacron" unicode="&#x1d5;" horiz-adv-x="540" 
d="M127 922h288v-36h-288v36zM196 727v44h44v-44h-44zM301 727v44h44v-44h-44zM114 242v458h-42v-467q0 -66 16.5 -114.5t45.5 -75t63 -39t74 -12.5q39 0 73 12.5t63.5 39t46.5 75t17 114.5v467h-42v-458q0 -58 -13 -100t-36 -65t-50 -33.5t-59 -10.5q-69 0 -113 49t-44 160
z" />
    <glyph glyph-name="udieresismacron" unicode="&#x1d6;" horiz-adv-x="398" 
d="M56 722h288v-36h-288v36zM126 541v44h43v-44h-43zM230 541v44h44v-44h-44zM311 500h37v-500h-31l-3 72q-34 -81 -122 -81q-28 0 -52 9t-45 28t-33 55t-12 84v333h37v-315q0 -160 112 -160t112 154v321z" />
    <glyph glyph-name="Udieresisacute" unicode="&#x1d7;" horiz-adv-x="540" 
d="M271 929h59l-83 -120h-35zM196 771h44v-44h-44v44zM301 771h44v-44h-44v44zM429 700h42v-467q0 -66 -17 -114.5t-46.5 -75t-63.5 -39t-73 -12.5q-40 0 -74 12.5t-63 39t-45.5 75t-16.5 114.5v467h42v-458q0 -111 44 -160t113 -49q32 0 59 10.5t50 33.5t36 65t13 100v458z
" />
    <glyph glyph-name="udieresisacute" unicode="&#x1d8;" horiz-adv-x="398" 
d="M200 729h58l-83 -120h-35zM126 541v44h43v-44h-43zM230 541v44h44v-44h-44zM311 500h37v-500h-31l-3 72q-34 -81 -122 -81q-28 0 -52 9t-45 28t-33 55t-12 84v333h37v-315q0 -160 112 -160t112 154v321z" />
    <glyph glyph-name="Udieresiscaron" unicode="&#x1d9;" horiz-adv-x="540" 
d="M362 927h39l-108 -131h-46l-107 131h38l92 -100zM196 727v44h44v-44h-44zM301 727v44h44v-44h-44zM114 242v458h-42v-467q0 -66 16.5 -114.5t45.5 -75t63 -39t74 -12.5q39 0 73 12.5t63.5 39t46.5 75t17 114.5v467h-42v-458q0 -58 -13 -100t-36 -65t-50 -33.5t-59 -10.5
q-69 0 -113 49t-44 160z" />
    <glyph glyph-name="udieresiscaron" unicode="&#x1da;" horiz-adv-x="398" 
d="M291 726h39l-108 -130h-46l-107 130h39l91 -100zM126 541v44h43v-44h-43zM230 541v44h44v-44h-44zM311 500h37v-500h-31l-3 72q-34 -81 -122 -81q-28 0 -52 9t-45 28t-33 55t-12 84v333h37v-315q0 -160 112 -160t112 153v322z" />
    <glyph glyph-name="Udieresisgrave" unicode="&#x1db;" horiz-adv-x="540" 
d="M211 929h59l59 -120h-35zM196 727v44h44v-44h-44zM301 727v44h44v-44h-44zM114 242v458h-42v-467q0 -66 16.5 -114.5t45.5 -75t63 -39t74 -12.5q39 0 73 12.5t63.5 39t46.5 75t17 114.5v467h-42v-458q0 -58 -13 -100t-36 -65t-50 -33.5t-59 -10.5q-69 0 -113 49t-44 160z
" />
    <glyph glyph-name="udieresisgrave" unicode="&#x1dc;" horiz-adv-x="398" 
d="M140 729h59l59 -120h-35zM126 541v44h43v-44h-43zM230 541v44h44v-44h-44zM311 500h37v-500h-31l-3 72q-34 -81 -122 -81q-28 0 -52 9t-45 28t-33 55t-12 84v333h37v-315q0 -160 112 -160t112 154v321z" />
    <glyph glyph-name="Scommaaccent" unicode="&#x218;" horiz-adv-x="512" 
d="M452 493h-41q0 88 -44 131.5t-105.5 43.5t-103.5 -33t-42 -100q1 -21 6.5 -39t13.5 -31t20.5 -24t23 -18t26.5 -13.5t25.5 -9t24 -7t19.5 -5.5q97 -30 140.5 -76t43.5 -126q0 -53 -16 -91.5t-44.5 -60.5t-64 -32t-78.5 -10q-37 0 -71 11.5t-64.5 35.5t-49 67.5
t-18.5 100.5h42q0 -47 14.5 -82t39 -54.5t51.5 -28.5t56 -9q73 0 117 36.5t44 113.5q0 37 -11.5 64.5t-35 46.5t-48.5 31t-61 23q-4 1 -13 4q-20 6 -31.5 10t-33 13t-34 17.5t-28.5 22.5t-25 30t-15.5 39t-6.5 49q0 47 16 82.5t43.5 55t59.5 29t68 9.5t68.5 -12t61 -36
t45 -67.5t16.5 -100.5zM234 -145v46h45v-46l-20 -42h-15l8 42h-18z" />
    <glyph glyph-name="scommaaccent" unicode="&#x219;" horiz-adv-x="380" 
d="M78 147l-1 -9q2 -59 34.5 -85.5t78.5 -26.5q113 0 113 106q0 48 -27.5 75t-79.5 44q-24 7 -37 11.5t-36 15.5t-35 24t-22 34.5t-10 48.5q0 63 39.5 93.5t99.5 30.5q55 0 96 -36t44 -107v-10h-37v11q-3 56 -32 82t-71 26q-102 0 -102 -89q0 -13 4 -25t9 -20t14 -16
t15.5 -12.5t18.5 -9.5t17.5 -7t18 -6t14.5 -4q73 -22 104.5 -59t31.5 -93q0 -73 -42 -107.5t-108 -34.5q-36 0 -68 13.5t-56 48t-26 83.5v10h38zM168 -99h45v-46l-19 -42h-15l8 42h-19v46z" />
    <glyph glyph-name="uni021A" unicode="&#x21a;" horiz-adv-x="462" 
d="M54 700h355v-41h-157v-659h-42v659h-156v41zM209 -99h45v-46l-20 -42h-14l8 42h-19v46z" />
    <glyph glyph-name="uni021B" unicode="&#x21b;" horiz-adv-x="320" 
d="M162 466v-279q0 -44 4 -73.5t11 -47t21 -26.5t28.5 -11.5t39.5 -3.5h12v-34h-19q-36 0 -58 6.5t-41 25t-27.5 55.5t-8.5 97v291h-83v34h83v153h38v-153h116v-34h-116zM143 -99h46v-46l-20 -42h-15l8 42h-19v46z" />
    <glyph glyph-name="circumflex" unicode="&#x2c6;" horiz-adv-x="369" 
d="M162 701h46l107 -131h-39l-91 100l-92 -100h-39z" />
    <glyph glyph-name="caron" unicode="&#x2c7;" horiz-adv-x="369" 
d="M276 701h39l-107 -131h-46l-108 131h39l92 -100z" />
    <glyph glyph-name="breve" unicode="&#x2d8;" horiz-adv-x="342" 
d="M88 700q9 -27 31.5 -44t51.5 -17t52 17t31 44h36q-9 -42 -42 -69t-76.5 -27t-77.5 27t-42 69h36v0z" />
    <glyph glyph-name="dotaccent" unicode="&#x2d9;" horiz-adv-x="146" 
d="M51 656v44h44v-44h-44z" />
    <glyph glyph-name="ring" unicode="&#x2da;" horiz-adv-x="293" 
d="M146 710q38 0 65.5 -27.5t27.5 -64.5q0 -39 -27 -67t-66 -28t-65.5 27.5t-26.5 67.5q0 37 26.5 64.5t65.5 27.5zM146 679q-26 0 -43.5 -18.5t-17.5 -42.5q0 -27 17.5 -45t43.5 -18t44 18.5t18 44.5q0 24 -18.5 42.5t-43.5 18.5z" />
    <glyph glyph-name="ogonek" unicode="&#x2db;" horiz-adv-x="207" 
d="M122 0h33q-21 -13 -33.5 -23t-25 -28.5t-12.5 -38.5q1 -45 56 -45h17v-32h-17q-88 0 -90 70q0 12 2.5 22.5t8 19t10 15t13.5 13.5t13 10.5t13.5 9.5t11.5 7z" />
    <glyph glyph-name="tilde" unicode="&#x2dc;" horiz-adv-x="356" 
d="M277 701h32q0 -23 -1.5 -39t-7 -36t-19 -30.5t-34.5 -10.5q-18 0 -35 9.5t-45 38.5q-19 20 -30 25.5t-25 5.5q-19 0 -26 -18.5t-7 -60.5h-32q0 22 1.5 38t7 36t19 31t34.5 11q14 0 28.5 -7t23.5 -15t28 -27q13 -14 24.5 -21.5t17 -8.5t13.5 0q20 0 26.5 18t6.5 61z" />
    <glyph glyph-name="hungarumlaut" unicode="&#x2dd;" horiz-adv-x="330" 
d="M112 703h56l-82 -120h-33zM217 703h57l-83 -120h-33z" />
    <glyph glyph-name="commaaccentcomb" unicode="&#x326;" horiz-adv-x="0" 
d="M51 -100h44v-44l-19 -41h-14l7 41h-18v44z" />
    <glyph glyph-name="Delta" unicode="&#x394;" horiz-adv-x="507" 
d="M462 46v-46h-417v46l183 654h51zM85 43h337l-168 602z" />
    <glyph glyph-name="Omega" unicode="&#x3a9;" horiz-adv-x="514" 
d="M55 245v222q0 67 17.5 115.5t47 75t64 39t74.5 12.5q39 0 73.5 -12t64.5 -38.5t48 -75.5t18 -116v-222q0 -147 -87 -203h94v-42h-155v42q105 41 105 211v205q0 59 -13.5 102t-37.5 65.5t-51 32.5t-59 10q-33 0 -60 -10t-50.5 -33t-36.5 -65.5t-13 -101.5v-205
q0 -170 102 -210v-43h-154v42h95q-86 57 -86 203z" />
    <glyph glyph-name="mu" unicode="&#x3bc;" horiz-adv-x="506" 
d="M315 501h38v-328q1 -81 33.5 -114t79.5 -34v-34h-10q-39 2 -71.5 24t-47.5 67q-15 -47 -49.5 -68.5t-77.5 -21.5q-85 0 -118 78v-233h-38v664h38v-322q0 -153 111 -153q112 0 112 159v316z" />
    <glyph glyph-name="pi" unicode="&#x3c0;" horiz-adv-x="586" 
d="M40 500h506v-36h-114v-291q2 -81 34.5 -114t79.5 -34v-34h-15q-25 2 -48 11t-43.5 28t-32.5 53.5t-12 80.5v300h-204v-464h-37v464h-114v36z" />
    <glyph glyph-name="afii10017" unicode="&#x410;" horiz-adv-x="544" 
d="M448 0l-65 232h-221l-66 -232h-42l193 700h50l194 -700h-43zM169 275h206l-103 369z" />
    <glyph glyph-name="afii10018" unicode="&#x411;" horiz-adv-x="484" 
d="M72 708h322v-41h-280v-285h123q100 -1 155.5 -49.5t55.5 -137.5v-16q0 -89 -56 -137t-157 -49h-163v715zM238 339h-124v-304h124q79 0 123.5 37t44.5 111v8q0 74 -45.5 111t-122.5 37z" />
    <glyph glyph-name="afii10019" unicode="&#x412;" horiz-adv-x="484" 
d="M72 708h165q39 0 73 -9.5t63.5 -28.5t46.5 -53t17 -78v-22q0 -60 -31 -99t-83 -55q59 -18 92 -60.5t33 -107.5v-21q0 -87 -56.5 -134t-153.5 -47h-166v715zM396 520v8q0 39 -13.5 67.5t-37.5 43t-50.5 21.5t-57.5 7h-123v-286h123q31 0 57.5 7t50 22.5t37.5 43.5t14 66z
M405 184v8q0 75 -45.5 112.5t-122.5 37.5h-123v-308h123q79 0 123.5 37t44.5 113z" />
    <glyph glyph-name="afii10020" unicode="&#x413;" horiz-adv-x="447" 
d="M394 700v-41h-280v-659h-42v700h322z" />
    <glyph glyph-name="afii10021" unicode="&#x414;" horiz-adv-x="639" 
d="M544 41h59v-161h-42v120h-483v-120h-42v161h44q50 15 80.5 64.5t30.5 139.5v455h353v-659zM151 41h351v618h-269v-424q0 -139 -82 -194z" />
    <glyph glyph-name="afii10022" unicode="&#x415;" horiz-adv-x="410" 
d="M375 659h-261v-278h251v-41h-251v-299h261v-41h-303v700h303v-41z" />
    <glyph glyph-name="afii10024" unicode="&#x416;" horiz-adv-x="827" 
d="M773 0h-50l-288 329v-329h-43v329l-288 -329h-50l304 360l-282 340h50l266 -308v308h43v-309l266 309h50l-282 -340z" />
    <glyph glyph-name="afii10025" unicode="&#x417;" horiz-adv-x="492" 
d="M240 709h22q29 0 59.5 -10t59.5 -29.5t47.5 -55t19.5 -81.5v-17q0 -61 -31 -100t-82 -55q57 -15 89 -58t32 -107v-17q0 -89 -57.5 -138t-137.5 -49h-21q-34 1 -65.5 11.5t-60.5 32t-50 58.5t-27 86l-1 6h42q6 -41 23.5 -72t42 -48t50.5 -25t53 -8h13q63 0 108 39t45 111
v7q0 75 -45 113t-120 38h-64v40h64q30 0 56.5 7.5t49.5 23t36.5 44t13.5 65.5v7q0 38 -14.5 67t-37.5 44t-46.5 22t-45.5 7h-13q-58 0 -105.5 -34.5t-60.5 -108.5h-43l1 7q8 46 29 81t49.5 55t59 30t63.5 11z" />
    <glyph glyph-name="afii10026" unicode="&#x418;" horiz-adv-x="517" 
d="M404 700h42v-700h-43v612l-290 -612h-42v700h43v-612z" />
    <glyph glyph-name="afii10027" unicode="&#x419;" horiz-adv-x="517" 
d="M345 847h36q-9 -42 -42 -69t-76.5 -27t-77 27t-42.5 69h37q8 -27 30.5 -44t51.5 -17t52 17t31 44zM404 700h42v-700h-43v612l-290 -612h-42v700h43v-612z" />
    <glyph glyph-name="afii10028" unicode="&#x41a;" horiz-adv-x="507" 
d="M453 0h-51l-287 329v-329h-43v700h43v-309l265 309h51l-282 -340z" />
    <glyph glyph-name="afii10029" unicode="&#x41b;" horiz-adv-x="618" 
d="M193 700h353v-700h-42v659h-269v-425q0 -64 -16 -112.5t-44 -75t-59.5 -40t-67.5 -14.5h-12v41q30 0 56.5 10.5t50 33.5t37 65.5t13.5 100.5v457z" />
    <glyph glyph-name="afii10030" unicode="&#x41c;" horiz-adv-x="625" 
d="M505 700h49v-700h-43v589l-182 -589h-33l-182 589v-589h-43v700h49l192 -632z" />
    <glyph glyph-name="afii10031" unicode="&#x41d;" horiz-adv-x="510" 
d="M396 700h42v-700h-42v340h-282v-340h-42v700h42v-319h282v319z" />
    <glyph glyph-name="afii10032" unicode="&#x41e;" horiz-adv-x="540" 
d="M67 234v233q0 67 17 115.5t47 75t64.5 39t74.5 12.5q39 0 73.5 -12t64.5 -38.5t47.5 -75.5t17.5 -116v-233q0 -67 -17.5 -116t-47.5 -75.5t-64.5 -38.5t-73.5 -12q-40 0 -74.5 12.5t-64.5 39t-47 75t-17 115.5zM430 243v215q0 59 -13 102t-37 65.5t-51 32.5t-59 10
q-33 0 -60 -10t-50.5 -33t-36.5 -65.5t-13 -101.5v-215q0 -59 13 -101.5t36.5 -65.5t50.5 -33t60 -10q32 0 59 10t51 33t37 65.5t13 101.5z" />
    <glyph glyph-name="afii10033" unicode="&#x41f;" horiz-adv-x="510" 
d="M72 700h366v-700h-42v659h-282v-659h-42v700z" />
    <glyph glyph-name="afii10034" unicode="&#x420;" horiz-adv-x="496" 
d="M72 700h153q38 0 73 -9.5t65.5 -29t48.5 -55t18 -82.5v-34q0 -46 -18 -81t-47.5 -55t-64 -30t-72.5 -10h-114v-314h-42v700zM388 497v19q0 41 -13.5 70.5t-37.5 44.5t-50.5 21.5t-57.5 6.5h-115v-305h115q31 0 57.5 7t50.5 22.5t37.5 44.5t13.5 69z" />
    <glyph glyph-name="afii10035" unicode="&#x421;" horiz-adv-x="509" 
d="M71 234v233q0 67 17.5 115.5t47 75t64 39t74.5 12.5q38 0 70.5 -11.5t61.5 -36t47 -70t20 -108.5v-11h-43v12q-6 100 -48.5 142t-107.5 42q-33 0 -60 -10t-50.5 -33t-36.5 -65.5t-13 -101.5v-215q0 -59 13 -101.5t36.5 -65.5t50.5 -33t60 -10q65 0 107.5 43t48.5 143v10
h43v-10q-2 -63 -20 -109t-47 -70.5t-61.5 -36t-70.5 -11.5q-40 0 -74.5 12.5t-64 39t-47 75t-17.5 115.5z" />
    <glyph glyph-name="afii10036" unicode="&#x422;" horiz-adv-x="462" 
d="M409 700v-41h-157v-659h-42v659h-156v41h355z" />
    <glyph glyph-name="afii10037" unicode="&#x423;" horiz-adv-x="517" 
d="M418 700h46l-183 -413v-287h-43v287l-184 413h46l158 -362z" />
    <glyph glyph-name="afii10038" unicode="&#x424;" horiz-adv-x="756" 
d="M399 708v-81h88q40 0 75.5 -10t64.5 -30.5t45.5 -56t16.5 -82.5v-18q0 -46 -16.5 -81t-45.5 -56t-64.5 -31.5t-75.5 -11.5h-88v-250h-42v250h-88q-40 1 -75.5 11.5t-64.5 31.5t-45.5 56t-16.5 81v18q0 47 16.5 82.5t45.5 56t64.5 30.5t75.5 10h88v81h42zM647 434v10
q0 40 -13.5 69t-37.5 44t-50.5 21.5t-57.5 6.5h-89v-292h89q31 0 57.5 6.5t50.5 22t37.5 44t13.5 68.5zM357 293v292h-89q-31 0 -57.5 -6.5t-50.5 -21.5t-37.5 -44t-13.5 -69v-10q0 -40 13.5 -68.5t37 -44t50.5 -22t58 -6.5h89z" />
    <glyph glyph-name="afii10039" unicode="&#x425;" horiz-adv-x="506" 
d="M451 700l-172 -347l174 -353h-45l-155 309l-154 -309h-45l173 351l-172 349h45l153 -306l153 306h45z" />
    <glyph glyph-name="afii10040" unicode="&#x426;" horiz-adv-x="542" 
d="M438 43h68v-146h-43v103h-391v700h42v-659h282v659h42v-657z" />
    <glyph glyph-name="afii10041" unicode="&#x427;" horiz-adv-x="458" 
d="M361 700h42v-700h-42v351q-35 -80 -148 -80q-79 0 -127.5 41t-48.5 135v253h42v-228q0 -89 37.5 -123.5t103.5 -34.5q67 0 104 33t37 120v233z" />
    <glyph glyph-name="afii10042" unicode="&#x428;" horiz-adv-x="833" 
d="M719 700h43v-700h-690v700h42v-659h282v659h42v-659h281v659z" />
    <glyph glyph-name="afii10043" unicode="&#x429;" horiz-adv-x="866" 
d="M762 43h68v-146h-43v103h-715v700h42v-659h282v659h42v-659h281v659h43v-657z" />
    <glyph glyph-name="afii10044" unicode="&#x42a;" horiz-adv-x="591" 
d="M191 382h122q100 -1 155.5 -49.5t55.5 -137.5v-15q0 -89 -56.5 -138t-158.5 -49h-160v672h-96v43h138v-326zM482 184v7q0 74 -45.5 111t-122.5 37h-123v-304h123q79 0 123.5 37t44.5 112z" />
    <glyph glyph-name="afii10045" unicode="&#x42b;" horiz-adv-x="662" 
d="M114 708v-326h122q100 -1 155.5 -49.5t55.5 -137.5v-15q0 -89 -56.5 -138t-158.5 -49h-160v715h42zM547 700h44v-700h-44v700zM114 35h123q79 0 123.5 37t44.5 112v7q0 74 -45.5 111t-122.5 37h-123v-304z" />
    <glyph glyph-name="afii10046" unicode="&#x42c;" horiz-adv-x="514" 
d="M114 708v-326h122q100 -1 155.5 -49.5t55.5 -137.5v-15q0 -89 -56.5 -138t-158.5 -49h-160v715h42zM114 35h123q79 0 123.5 37t44.5 112v7q0 74 -45.5 111t-122.5 37h-123v-304z" />
    <glyph glyph-name="afii10047" unicode="&#x42d;" horiz-adv-x="509" 
d="M36 475v6q2 63 19.5 109t46.5 71t61.5 36.5t71.5 11.5t73.5 -12.5t64.5 -39t47 -75t17 -115.5v-233q0 -67 -17 -115.5t-47 -75t-64.5 -39t-73.5 -12.5t-71.5 11.5t-61.5 36.5t-46.5 71.5t-19.5 109.5v5h42q4 -104 47 -148.5t110 -44.5q33 0 60 10t50 33t36 65.5t13 101.5
v88h-224v43h224v84q0 59 -13 101.5t-36 65.5t-50 33t-60 10q-67 0 -110 -44.5t-47 -148.5h-42z" />
    <glyph glyph-name="afii10048" unicode="&#x42e;" horiz-adv-x="706" 
d="M233 373v94q0 67 17 115.5t47 75t64.5 39t74.5 12.5q39 0 73.5 -12t64.5 -38.5t47.5 -75.5t17.5 -116v-233q0 -67 -17.5 -116t-47.5 -75.5t-64.5 -38.5t-73.5 -12q-40 0 -74.5 12.5t-64.5 39t-47 75t-17 115.5v97h-119v-331h-42v700h42v-327h119zM596 243v215
q0 59 -13.5 102t-37 65.5t-50.5 32.5t-59 10q-33 0 -60 -10t-50.5 -33t-36.5 -65.5t-13 -101.5v-215q0 -59 13 -101.5t36.5 -65.5t50.5 -33t60 -10q32 0 59 10t50.5 33t37 65.5t13.5 101.5z" />
    <glyph glyph-name="afii10049" unicode="&#x42f;" horiz-adv-x="497" 
d="M264 708h161v-708h-42v330h-137l-145 -330h-47l150 341q-63 12 -104 53t-41 112v25q0 48 18 83.5t48.5 55t65 29t73.5 9.5zM383 371v296h-123q-32 0 -58.5 -6.5t-50 -21.5t-37.5 -44.5t-14 -70.5v-10q0 -41 14 -70t37.5 -44.5t50 -22t58.5 -6.5h123z" />
    <glyph glyph-name="afii10065" unicode="&#x430;" 
d="M313 500h31v-500h-31l-3 72q-34 -80 -121 -80q-28 0 -52.5 9t-45.5 28t-33 55t-12 84v165q0 48 12 84t33 55t45.5 28t52.5 9q87 0 121 -78zM83 316v-130q0 -160 112 -160q111 0 111 160v130q0 159 -111 159q-112 0 -112 -159z" />
    <glyph glyph-name="afii10066" unicode="&#x431;" 
d="M53 168v369q0 47 13 82t35 53.5t46.5 27.5t53.5 9q48 0 86 -25t53 -80l2 -9h-38q-24 80 -103 80q-111 0 -111 -151v-89q18 36 48.5 54.5t66.5 18.5q29 0 53.5 -8.5t46 -28t34 -55t12.5 -83.5v-165q0 -48 -13 -84t-35 -55t-47.5 -28t-54.5 -9q-61 0 -103.5 43t-44.5 133z
M313 186v130q0 159 -112 159q-48 0 -79.5 -38t-31.5 -121v-130q0 -160 111 -160q112 0 112 160z" />
    <glyph glyph-name="afii10067" unicode="&#x432;" horiz-adv-x="385" 
d="M54 508h108q95 0 133 -34.5t38 -103.5q0 -44 -16.5 -72t-57.5 -41q46 -13 66 -43.5t20 -80.5q0 -72 -41.5 -106t-140.5 -34h-109v515zM92 273h63q83 0 112.5 22t29.5 74q0 56 -29.5 79.5t-112.5 24.5h-63v-200zM92 28h63q88 0 121 23t33 81.5t-33.5 82t-120.5 23.5h-63
v-210z" />
    <glyph glyph-name="afii10068" unicode="&#x433;" horiz-adv-x="362" 
d="M321 500l1 -34h-230v-466h-38v500h267z" />
    <glyph glyph-name="afii10069" unicode="&#x434;" horiz-adv-x="511" 
d="M141 500h278v-466h52v-138h-37v104h-356v-104h-38v138h29q70 25 72 140v326zM382 34v432h-204v-301q-1 -90 -51 -131h255z" />
    <glyph glyph-name="afii10070" unicode="&#x435;" horiz-adv-x="386" 
d="M46 168v165q0 48 12.5 83.5t34.5 55t47 28.5t54 9t54 -9t47 -28t35 -55t13 -84v-103h-260v-52q0 -152 111 -152q106 0 111 135h38q-1 -47 -14 -81t-35 -52.5t-47 -27t-53 -8.5q-29 0 -54 9t-47 28.5t-34.5 55t-12.5 83.5zM305 261v63q0 83 -31.5 116.5t-79.5 33.5
q-111 0 -111 -150v-63h222z" />
    <glyph glyph-name="afii10072" unicode="&#x436;" horiz-adv-x="594" 
d="M551 0h-42l-194 236v-236h-37v236l-194 -236h-42l204 255l-194 245h42l184 -224v224h37v-224l184 224h42l-194 -245z" />
    <glyph glyph-name="afii10073" unicode="&#x437;" horiz-adv-x="410" 
d="M192 509h24q66 0 104 -37.5t38 -99.5q0 -92 -86 -116q98 -22 98 -127q0 -64 -43.5 -100.5t-111.5 -36.5h-23q-25 2 -47.5 9.5t-45 21.5t-36 40.5t-13.5 60.5h38q0 -28 11.5 -48.5t30 -30.5t36.5 -14.5t37 -4.5h4q59 0 93 28t34 79q0 105 -136 105h-48v35h48
q66 0 95.5 24.5t29.5 71.5q0 49 -30 77.5t-86 28.5h-4q-18 0 -36 -4.5t-37 -14.5t-30.5 -30.5t-11.5 -48.5h-38q0 34 13.5 60.5t36 41t45.5 21.5t47 9z" />
    <glyph glyph-name="afii10074" unicode="&#x438;" horiz-adv-x="406" 
d="M314 500h37v-500h-37v425l-222 -425h-38v500h38v-425z" />
    <glyph glyph-name="afii10075" unicode="&#x439;" horiz-adv-x="406" 
d="M284 700h36q-8 -42 -41.5 -69t-77.5 -27t-77.5 27t-41.5 69h36q9 -27 31.5 -44t51.5 -17t52 17t31 44zM314 500h37v-500h-37v425l-222 -425h-38v500h38v-425z" />
    <glyph glyph-name="afii10076" unicode="&#x43a;" horiz-adv-x="369" 
d="M328 0h-42l-194 236v-236h-37v500h37v-224l184 224h42l-194 -245z" />
    <glyph glyph-name="afii10077" unicode="&#x43b;" horiz-adv-x="487" 
d="M154 500h278v-500h-37v466h-204v-302q0 -47 -12 -81.5t-32.5 -53t-43 -27.5t-48.5 -11h-15v34q47 1 79.5 34t34.5 114v327z" />
    <glyph glyph-name="afii10078" unicode="&#x43c;" horiz-adv-x="453" 
d="M360 500h39v-500h-35v403l-125 -403h-25l-124 403v-403h-36v500h39l134 -439z" />
    <glyph glyph-name="afii10079" unicode="&#x43d;" horiz-adv-x="404" 
d="M313 500h37v-500h-37v241h-221v-241h-38v500h38v-225h221v225z" />
    <glyph glyph-name="afii10080" unicode="&#x43e;" horiz-adv-x="389" 
d="M46 168v165q0 48 12.5 83.5t34.5 55t47 28.5t54 9t54.5 -9t47.5 -28t35 -55t13 -84v-165q0 -48 -13 -84t-35 -55t-47.5 -28t-54.5 -9t-54 9t-47 28.5t-34.5 55t-12.5 83.5zM306 186v129q0 160 -112 160q-111 0 -111 -160v-129q0 -160 111 -160q112 0 112 160z" />
    <glyph glyph-name="afii10081" unicode="&#x43f;" horiz-adv-x="404" 
d="M54 500h296v-500h-37v466h-221v-466h-38v500z" />
    <glyph glyph-name="afii10082" unicode="&#x440;" 
d="M83 500l3 -73q34 81 123 81q27 0 51.5 -9t45.5 -28t33 -54.5t12 -84.5v-165q0 -48 -12 -83.5t-33 -55t-45.5 -28.5t-51.5 -9q-85 0 -119 76v-230h-37v663h30zM314 185v130q-1 159 -113 159q-111 0 -111 -159v-130q0 -159 111 -159q113 0 113 159z" />
    <glyph glyph-name="afii10083" unicode="&#x441;" horiz-adv-x="387" 
d="M46 168v165q0 48 12.5 83.5t34.5 55t47 28.5t54 9q28 0 53 -8.5t46.5 -27t35 -52t14.5 -79.5v-13h-37q-3 146 -112 146q-111 0 -111 -159v-130q0 -160 111 -160q109 0 112 146h37v-13q-1 -46 -14.5 -79.5t-35 -52t-46.5 -27t-53 -8.5q-29 0 -54 9t-47 28.5t-34.5 55
t-12.5 83.5z" />
    <glyph glyph-name="afii10084" unicode="&#x442;" horiz-adv-x="399" 
d="M41 500h317v-34h-140v-466h-37v466h-140v34z" />
    <glyph glyph-name="afii10085" unicode="&#x443;" horiz-adv-x="380" 
d="M302 500h37v-511q-4 -85 -46 -123t-102 -38q-49 0 -88 25.5t-53 80.5h39q24 -72 101 -72q112 0 112 149v67q-33 -78 -119 -78q-28 0 -52 9t-45 28t-33 55t-12 84v324h37v-307q0 -159 112 -159q111 0 112 160v306z" />
    <glyph glyph-name="afii10086" unicode="&#x444;" horiz-adv-x="650" 
d="M306 700h38v-270q33 78 118 78q28 0 52 -9t45 -28t33 -54.5t12 -84.5v-165q0 -48 -12 -83.5t-33 -55t-45 -28.5t-52 -9q-85 0 -118 76v-230h-38v230q-33 -76 -118 -76q-28 0 -52 9t-45 28.5t-33 55t-12 83.5v165q0 49 12 84.5t33 54.5t45 28t52 9q85 0 118 -78v270z
M306 185v130q0 159 -111 159q-112 0 -112 -159v-130q0 -159 112 -159q111 0 111 159zM567 185v130q0 159 -112 159q-111 0 -111 -159v-130q0 -159 111 -159q112 0 112 159z" />
    <glyph glyph-name="afii10087" unicode="&#x445;" horiz-adv-x="395" 
d="M353 500l-130 -248l131 -252h-40l-116 218l-118 -218h-39l131 250l-130 250h40l115 -221l116 221h40z" />
    <glyph glyph-name="afii10088" unicode="&#x446;" horiz-adv-x="445" 
d="M350 34h55v-120h-37v86h-314v500h38v-466h221v466h37v-466z" />
    <glyph glyph-name="afii10089" unicode="&#x447;" horiz-adv-x="402" 
d="M311 500h37v-500h-37v234q-33 -78 -119 -78q-28 0 -52 9t-45 28t-33 54.5t-12 84.5v168h37v-151q0 -159 112 -159t112 153v157z" />
    <glyph glyph-name="afii10090" unicode="&#x448;" horiz-adv-x="662" 
d="M571 500h37v-500h-554v500h38v-466h221v466h37v-466h221v466z" />
    <glyph glyph-name="afii10091" unicode="&#x449;" horiz-adv-x="704" 
d="M608 34h55v-120h-37v86h-572v500h38v-466h221v466h37v-466h221v466h37v-466z" />
    <glyph glyph-name="afii10092" unicode="&#x44a;" horiz-adv-x="427" 
d="M142 274h63q98 0 140 -33.5t42 -104.5v-9q-2 -69 -44 -101.5t-138 -32.5h-101v473h-64v34h102v-226zM350 129v4q0 58 -33.5 82t-119.5 24h-55v-211h55q86 0 119 22.5t34 78.5z" />
    <glyph glyph-name="afii10093" unicode="&#x44b;" horiz-adv-x="507" 
d="M54 500h38v-226h64q97 0 139 -33.5t42 -104.5v-9q-2 -69 -44 -101.5t-138 -32.5h-101v507zM415 0v500h37v-500h-37zM300 129v4q0 58 -33.5 82t-119.5 24h-55v-211h55q86 0 119 22.5t34 78.5z" />
    <glyph glyph-name="afii10094" unicode="&#x44c;" horiz-adv-x="377" 
d="M54 500h38v-226h64q97 0 139 -33.5t42 -104.5v-9q-2 -69 -44 -101.5t-138 -32.5h-101v507zM300 129v4q0 58 -33.5 82t-119.5 24h-55v-211h55q86 0 119 22.5t34 78.5z" />
    <glyph glyph-name="afii10095" unicode="&#x44d;" horiz-adv-x="387" 
d="M81 333h-37q0 49 12.5 84.5t34.5 54.5t47.5 28t54.5 9t54 -9t47 -28.5t34.5 -55t12.5 -83.5v-165q0 -48 -12.5 -83.5t-34.5 -55t-47 -28.5t-54 -9t-54.5 9t-47.5 28t-34.5 55t-12.5 84h36q4 -142 112 -142q112 0 112 150v59h-143v34h143v57q-1 148 -111 149
q-48 0 -79 -32t-33 -110z" />
    <glyph glyph-name="afii10096" unicode="&#x44e;" horiz-adv-x="541" 
d="M197 267v66q0 48 13 83.5t34.5 55t47 28.5t54.5 9t54 -9t47.5 -28t35 -55t12.5 -84v-165q0 -48 -12.5 -84t-35 -55t-47.5 -28t-54 -9t-54.5 9t-47 28.5t-34.5 55t-13 83.5v66h-105v-234h-38v500h38v-233h105zM458 186v129q0 160 -112 160q-111 0 -111 -160v-129
q0 -160 111 -160q112 0 112 160z" />
    <glyph glyph-name="afii10097" unicode="&#x44f;" horiz-adv-x="379" 
d="M215 508h110v-508h-38v236h-105l-104 -236h-38l106 245q-55 11 -78 39.5t-24 78.5v9q0 69 38.5 102.5t132.5 33.5zM223 272h65v201h-64q-84 0 -113.5 -24t-29.5 -80q0 -53 29.5 -75t112.5 -22z" />
    <glyph glyph-name="Wgrave" unicode="&#x1e80;" horiz-adv-x="816" 
d="M349 903h59l59 -120h-35zM719 700h43l-162 -700h-47l-145 605l-145 -605h-48l-161 700h42l145 -624l146 624h41l147 -624z" />
    <glyph glyph-name="wgrave" unicode="&#x1e81;" horiz-adv-x="681" 
d="M282 703h58l60 -120h-35zM603 500h38l-132 -500h-44l-124 430l-124 -430h-44l-132 500h38l118 -445l126 445h35l127 -445z" />
    <glyph glyph-name="Wacute" unicode="&#x1e82;" horiz-adv-x="816" 
d="M409 903h58l-83 -120h-35zM719 700h43l-162 -700h-47l-145 605l-145 -605h-48l-161 700h42l145 -624l146 624h41l147 -624z" />
    <glyph glyph-name="wacute" unicode="&#x1e83;" horiz-adv-x="681" 
d="M341 703h59l-83 -120h-35zM603 500h38l-132 -500h-44l-124 430l-124 -430h-44l-132 500h38l118 -445l126 445h35l127 -445z" />
    <glyph glyph-name="Wdieresis" unicode="&#x1e84;" horiz-adv-x="816" 
d="M335 900h43v-44h-43v44zM439 900h44v-44h-44v44zM719 700h43l-162 -700h-47l-145 605l-145 -605h-48l-161 700h42l145 -624l146 624h41l147 -624z" />
    <glyph glyph-name="wdieresis" unicode="&#x1e85;" horiz-adv-x="681" 
d="M267 700h44v-44h-44v44zM372 700h43v-44h-43v44zM603 500h38l-132 -500h-44l-124 430l-124 -430h-44l-132 500h38l118 -445l126 445h35l127 -445z" />
    <glyph glyph-name="endash" unicode="&#x2013;" horiz-adv-x="472" 
d="M50 290h372v-42h-372v42z" />
    <glyph glyph-name="emdash" unicode="&#x2014;" horiz-adv-x="640" 
d="M50 290h540v-42h-540v42z" />
    <glyph glyph-name="quoteleft" unicode="&#x2018;" horiz-adv-x="146" 
d="M77 657h19v-46h-46v46l20 43h15z" />
    <glyph glyph-name="quoteright" unicode="&#x2019;" horiz-adv-x="146" 
d="M50 700h46v-46l-20 -43h-15l8 43h-19v46z" />
    <glyph glyph-name="quotesinglbase" unicode="&#x201a;" horiz-adv-x="146" 
d="M50 46h46v-46l-20 -43h-15l8 43h-19v46z" />
    <glyph glyph-name="quotedblleft" unicode="&#x201c;" horiz-adv-x="258" 
d="M85 700l-8 -43h19v-46h-46v46l20 43h15zM189 657h19v-46h-46v46l20 43h15z" />
    <glyph glyph-name="quotedblright" unicode="&#x201d;" horiz-adv-x="258" 
d="M50 654v46h46v-46l-20 -43h-15l8 43h-19zM162 700h46v-46l-20 -43h-15l8 43h-19v46z" />
    <glyph glyph-name="quotedblbase" unicode="&#x201e;" horiz-adv-x="146" 
d="M50 46h46v-46l-20 -43h-15l8 43h-19v46z" />
    <glyph glyph-name="dagger" unicode="&#x2020;" horiz-adv-x="363" 
d="M160 700h43v-201h110v-42h-110v-517h-43v517h-110v42h110v201z" />
    <glyph glyph-name="daggerdbl" unicode="&#x2021;" horiz-adv-x="363" 
d="M160 700h43v-201h110v-42h-110v-285h110v-42h-110v-190h-43v190h-110v42h110v285h-110v42h110v201z" />
    <glyph glyph-name="bullet" unicode="&#x2022;" horiz-adv-x="332" 
d="M286 308q0 -50 -35 -85t-85.5 -35t-85 35t-34.5 85t35 85t85 35t85 -35t35 -85z" />
    <glyph glyph-name="ellipsis" unicode="&#x2026;" horiz-adv-x="406" 
d="M50 0v46h46v-46h-46zM180 0v46h46v-46h-46zM310 0v46h46v-46h-46z" />
    <glyph glyph-name="perthousand" unicode="&#x2030;" horiz-adv-x="889" 
d="M50 483v124q0 28 10.5 49t27.5 31t33 15t31 5q22 0 43.5 -8.5t39.5 -32t18 -59.5v-124q0 -27 -10 -47.5t-26 -31t-32.5 -15.5t-32.5 -6q-15 0 -31 5t-33 15.5t-27.5 31t-10.5 48.5zM511 700h38l-412 -700h-37zM221 482v126q0 34 -21.5 51t-47.5 17q-25 0 -47.5 -16.5
t-22.5 -51.5v-126q0 -35 22.5 -51.5t47.5 -16.5q26 1 47.5 17.5t21.5 50.5zM636 93v124q0 28 11 49t27.5 31t32.5 15t31 5q22 0 43.5 -8.5t40 -32.5t18.5 -59v-124q0 -27 -10.5 -47.5t-26.5 -31.5t-32.5 -16t-32.5 -5q-15 0 -31 5t-32.5 15t-27.5 31t-11 49zM395 93v124
q0 28 11 49t27.5 31t32.5 15t31 5q22 0 44 -8.5t40 -32.5t18 -59v-124q0 -27 -10.5 -47.5t-26.5 -31.5t-32.5 -16t-32.5 -5q-15 0 -31 5t-32.5 15t-27.5 31t-11 49zM807 92v126q0 34 -21.5 51t-47.5 17q-25 0 -47.5 -16.5t-22.5 -51.5v-126q0 -35 22.5 -51t47.5 -17
q26 0 47.5 17t21.5 51zM566 92v126q0 34 -21.5 51t-47.5 17q-25 0 -47.5 -16.5t-22.5 -51.5v-126q0 -35 22.5 -51t47.5 -17q26 0 47.5 17t21.5 51z" />
    <glyph glyph-name="guilsinglleft" unicode="&#x2039;" horiz-adv-x="223" 
d="M50 298l123 101v-47l-96 -77l96 -77v-47l-123 101v46z" />
    <glyph glyph-name="guilsinglright" unicode="&#x203a;" horiz-adv-x="223" 
d="M50 352v47l123 -101v-46l-123 -101v47l96 77z" />
    <glyph glyph-name="fraction" unicode="&#x2044;" horiz-adv-x="451" 
d="M44 0l327 700h36l-326 -700h-37z" />
    <glyph glyph-name="Euro" unicode="&#x20ac;" horiz-adv-x="536" 
d="M91 407v60q0 67 17 115.5t47 75t64 39t74 12.5q38 0 70.5 -11.5t61.5 -36t46.5 -69.5t20.5 -107v-13h-42l-1 12q-6 99 -48.5 141.5t-107.5 42.5q-33 0 -60 -10t-50 -33t-36 -65.5t-13 -101.5v-51h280l-27 -26h-253v-62h192l-26 -26h-166v-50q0 -59 13 -101.5t36 -65.5
t50 -33t60 -10q145 0 157 185v11h42v-11q-2 -63 -20 -108.5t-47 -70t-61.5 -36t-70.5 -11.5q-40 0 -74 12.5t-64 39t-47 75t-17 115.5v59h-50v26h50v62h-50v26h50z" />
    <glyph glyph-name="trademark" unicode="&#x2122;" horiz-adv-x="570" 
d="M15 668v32h218v-32h-91v-374h-35v374h-92zM514 700h40v-406h-35v341l-107 -198h-22l-106 198v-341h-35v406h40l112 -211z" />
    <glyph glyph-name="partialdiff" unicode="&#x2202;" horiz-adv-x="600" 
 />
    <glyph glyph-name="emptyset" unicode="&#x2205;" horiz-adv-x="608" 
d="M561 478l-62 -62q63 -72 63 -166q0 -107 -76 -182.5t-182 -75.5q-95 0 -165 62l-63 -63l-30 29l63 63q-63 71 -63 167q0 107 75.5 182.5t182.5 75.5q95 0 166 -63l62 62zM304 30q91 0 155 64t64 156q0 91 -64 155.5t-155 64.5q-92 0 -156 -64.5t-64 -155.5q0 -92 64 -156
t156 -64z" />
    <glyph glyph-name="product" unicode="&#x220f;" horiz-adv-x="600" 
 />
    <glyph glyph-name="summation" unicode="&#x2211;" horiz-adv-x="600" 
 />
    <glyph glyph-name="minus" unicode="&#x2212;" horiz-adv-x="524" 
d="M50 337h424v-42h-424v42z" />
    <glyph glyph-name="radical" unicode="&#x221a;" horiz-adv-x="600" 
 />
    <glyph glyph-name="infinity" unicode="&#x221e;" horiz-adv-x="600" 
 />
    <glyph glyph-name="integral" unicode="&#x222b;" horiz-adv-x="349" 
d="M234 743h65v-41h-54q-21 0 -35 -16.5t-14 -43.5v-692q0 -41 -24 -65.5t-58 -24.5h-64v41h54q21 0 35 16.5t14 43.5v692q0 41 24 65.5t57 24.5z" />
    <glyph glyph-name="approxequal" unicode="&#x2248;" horiz-adv-x="570" 
d="M485 384h35q0 -59 -28 -97.5t-79 -38.5q-19 0 -35.5 3.5t-34.5 13.5t-26 14.5t-29.5 21t-24.5 19.5q-52 38 -92 38q-41 -1 -63.5 -31t-22.5 -75h-35q0 64 31 105t87 41q48 0 106 -41q3 -2 23 -18t27 -20.5t23.5 -14t31.5 -12.5t31 -3q36 0 55.5 26.5t19.5 68.5zM485 210
h35q0 -60 -28 -98t-79 -38q-19 0 -35.5 3.5t-34.5 13.5t-26.5 15t-29.5 21t-25 19q-50 38 -91 37q-41 0 -63.5 -30t-22.5 -75h-35q0 63 31 104.5t87 41.5q29 0 52.5 -10t53.5 -31q2 -2 22.5 -18t27.5 -20.5t23.5 -14t31.5 -12.5t32 -3q35 0 54.5 26.5t19.5 68.5z" />
    <glyph glyph-name="notequal" unicode="&#x2260;" horiz-adv-x="516" 
d="M470 394h-165l-47 -111h212v-42h-230l-111 -257h-43l110 257h-150v42h168l48 111h-216v42h234l106 248h44l-107 -248h147v-42z" />
    <glyph glyph-name="lessequal" unicode="&#x2264;" horiz-adv-x="418" 
d="M50 334l318 192v-46l-257 -160l257 -160v-46l-318 192v28zM50 33h318v-41h-318v41z" />
    <glyph glyph-name="greaterequal" unicode="&#x2265;" horiz-adv-x="418" 
d="M50 480v46l318 -192v-28l-318 -192v46l256 160zM50 33h318v-41h-318v41z" />
    <glyph glyph-name="lozenge" unicode="&#x25ca;" horiz-adv-x="600" 
 />
    <glyph glyph-name="fi" unicode="&#xfb01;" horiz-adv-x="477" 
d="M260 709h18v-34h-11q-31 -1 -48.5 -5.5t-31.5 -20t-19.5 -45.5t-5.5 -81v-23h116v-35h-116v-465h-38v465h-83v34h83v34q0 55 8.5 90.5t27.5 53.5t41.5 24.5t58.5 7.5zM377 635h45v-44h-45v44zM381 500h37v-500h-37v500z" />
    <glyph glyph-name="fl" unicode="&#xfb02;" horiz-adv-x="464" 
d="M260 709h18v-34h-13q-30 -1 -47.5 -5.5t-31 -20.5t-19 -46t-5.5 -80v-23h116v-35h-116v-465h-38v465h-83v34h83v34q0 55 8.5 90.5t27.5 53.5t41.5 24.5t58.5 7.5zM377 700h37v-700h-37v700z" />
    <glyph glyph-name="K.ss01" horiz-adv-x="458" 
d="M344 700h47l-228 -310q98 -2 132.5 -10t60.5 -37q48 -56 48 -187v-156h-43v151q0 124 -43 171q-33 35 -111 35h-95v-357h-42v700h43v-310z" />
    <glyph glyph-name="R.ss01" horiz-adv-x="487" 
d="M72 0v708h152q41 0 77 -10t65.5 -30.5t46.5 -56t17 -82.5v-19q0 -62 -31 -101.5t-81 -57.5q43 -14 70 -48q46 -58 46 -175v-128h-43v124q0 107 -38 158q-37 50 -116 50h-123v-332h-42zM228 665h-114v-291h114q29 0 55 7t50.5 22t39.5 43.5t15 68.5v10q0 40 -13.5 69
t-37.5 43.5t-50.5 21t-58.5 6.5z" />
    <glyph glyph-name="f.ss01" horiz-adv-x="250" 
d="M196 709h12v-34h-6q-33 0 -50.5 -4.5t-33 -20t-21 -46t-5.5 -82.5v-22h116v-35h-116v-465h-38v533q0 56 9 92t29 53.5t43 24t61 6.5z" />
    <glyph glyph-name="k.ss01" horiz-adv-x="374" 
d="M273 500h42l-176 -226q55 -1 83.5 -7t50.5 -24q60 -48 60 -195v-48h-38v43q0 139 -52 181q-31 25 -102 25h-51v-249h-37v700h37v-433z" />
    <glyph glyph-name="t.ss01" horiz-adv-x="250" 
d="M92 466v-279q0 -52 5.5 -83t21 -46.5t33.5 -20t51 -4.5h6v-34h-12q-38 0 -61.5 6t-43.5 23.5t-29 53.5t-9 93v478h38v-153h116v-34h-116z" />
    <glyph glyph-name="afii10049.ss01" horiz-adv-x="487" 
d="M264 708h152v-708h-43v332h-123q-75 0 -112 -44q-42 -51 -42 -164v-124h-42v128q0 117 45 175q27 34 70 48q-50 18 -80.5 57.5t-30.5 101.5v19q0 47 16.5 82.5t46 56t65.5 30.5t78 10zM373 374v291h-114q-32 0 -58.5 -6.5t-50 -21t-37 -43.5t-13.5 -69v-10
q0 -40 14.5 -68.5t39 -43.5t50.5 -22t55 -7h114z" />
    <glyph glyph-name="afii10024.ss01" horiz-adv-x="732" 
d="M666 700l-228 -310q90 -2 122.5 -8t57.5 -27q61 -52 61 -199v-156h-43v151q0 135 -52 179q-32 27 -102 27h-95v-357h-42v357h-95q-76 0 -109 -33q-45 -46 -45 -173v-151h-42v156q0 136 51 191q26 27 60.5 34t128.5 9l-228 310h47l232 -310v310h42v-310l232 310h47z" />
    <glyph glyph-name="afii10097.ss01" horiz-adv-x="374" 
d="M321 508v-508h-37v237h-51q-44 0 -72 -7.5t-47 -31.5q-35 -45 -35 -160v-38h-38v43q0 117 37 169q18 26 47 39q-45 11 -64.5 38.5t-20.5 73.5v9q0 69 38.5 102.5t132.5 33.5h110zM284 473h-64q-84 0 -113.5 -24t-29.5 -80q0 -51 26 -73t99 -24h82v201z" />
    <glyph glyph-name="afii10076.ss01" horiz-adv-x="374" 
d="M273 500h42l-176 -226q59 -1 89.5 -8.5t52.5 -29.5q52 -51 52 -188v-48h-38v43q0 130 -45 174q-19 19 -45 25.5t-64 6.5h-51v-249h-37v500h37v-233z" />
    <glyph glyph-name="afii10072.ss01" horiz-adv-x="604" 
d="M545 500l-176 -226q61 -1 91.5 -9t53.5 -31q49 -52 49 -186v-48h-37v43q0 124 -42 170q-19 22 -46 29t-66 7h-51v-249h-38v249h-51q-76 0 -107 -30q-47 -44 -47 -176v-43h-37v48q0 143 56 193q23 19 52 25.5t86 7.5l-176 226h42l182 -233v233h38v-233l182 233h42z" />
    <glyph glyph-name="two.dnom" horiz-adv-x="229" 
d="M111 341h13q36 0 65 -25.5t30 -74.5v-2q0 -31 -17 -55t-41.5 -39.5t-49.5 -30t-43 -35.5t-19 -48h166v-31h-204v22q0 29 13 52.5t32.5 37.5t42 29t42 27t32.5 31t13 41q0 37 -20 53.5t-43 17.5h-4q-25 0 -46.5 -16.5t-29.5 -47.5h-32l1 4q7 43 36 65t63 25z" />
    <glyph glyph-name="four.dnom" horiz-adv-x="243" 
d="M136 338h34l-124 -234h119v153h34v-153h34v-30h-34v-74h-33v74h-156v32z" />
    <glyph glyph-name="one.numr" horiz-adv-x="92" 
d="M13 700h66v-338h-33v308h-33v30z" />
    <glyph glyph-name="three.numr" horiz-adv-x="236" 
d="M114 701h14q32 0 62 -21t30 -61v-8q0 -25 -16.5 -44.5t-39.5 -24.5q27 -10 43 -31.5t16 -51.5v-8q0 -41 -28.5 -64.5t-66.5 -23.5h-14q-33 0 -63.5 24t-37.5 69v2h32q5 -33 26.5 -48.5t47.5 -16.5h8q25 0 44 15.5t19 44.5v4q0 32 -20 51t-49 19h-33v31h33q24 0 45 13.5
t21 40.5v4q0 27 -19 41t-41 14h-8q-25 0 -45.5 -14.5t-26.5 -44.5h-32v2q7 42 36.5 64.5t62.5 22.5z" />
    <glyph glyph-name="uni1EFA" unicode="&#x1efa;" horiz-adv-x="0" 
d="M364 855q0 -26 -1 -43t-5 -37q-8 -44 -41 -44q-13 0 -25 9t-32 40q-12 19 -19 28.5t-14 9.5q-10 0 -13.5 -22.5t-3.5 -64.5h-32q0 24 1.5 41t4.5 37q8 46 41 46q11 0 21.5 -7.5t16.5 -16.5q26 -40 36 -53t17 -12q10 0 13 23.5t3 65.5h32z" />
    <glyph glyph-name="Ohorn" unicode="&#x1a0;" horiz-adv-x="532" 
d="M63 234v233q0 67 17 115.5t47 75t64.5 39t73.5 12.5q35 0 65 -9h41q28 0 41 11t8 79h36q5 -77 -14 -102q-14 -19 -47 -23l8 -7q31 -26 48.5 -75t17.5 -116v-233q0 -67 -17.5 -116t-48 -75.5t-64.5 -38.5t-74 -12q-39 0 -73.5 12.5t-64.5 39t-47 75t-17 115.5zM426 243
v215q0 59 -13.5 102t-37 65.5t-50.5 32.5t-60 10t-60 -10t-50 -33t-36 -65.5t-13 -101.5v-215q0 -59 13 -101.5t36 -65.5t50 -33t60 -10t60 10t50.5 33t37 65.5t13.5 101.5z" />
    <glyph glyph-name="Uhorn" unicode="&#x1af;" horiz-adv-x="540" 
d="M114 242q0 -111 44 -160t113 -49q32 0 59 10.5t50 33.5t36 65t13 100v458h26q22 1 34 11q13 11 8 79h36q5 -77 -14 -102q-15 -19 -48 -23v-432q0 -66 -17 -114.5t-46.5 -75t-63.5 -39t-73 -12.5q-40 0 -74 12.5t-63 39t-45.5 75t-16.5 114.5v467h42v-458v0z" />
    <glyph glyph-name="uhorn" unicode="&#x1b0;" horiz-adv-x="398" 
d="M311 500h35q15 2 23 9q13 11 8 76h34q5 -73 -13 -97q-15 -20 -50 -22v-466h-31l-3 72q-34 -81 -122 -81q-28 0 -52 9t-45 28t-33 55t-12 84v333h37v-315q0 -160 112 -160t112 154v321z" />
    <glyph glyph-name="ohorn" unicode="&#x1a1;" horiz-adv-x="389" 
d="M46 168v165q0 48 12.5 83.5t34.5 55t47 28.5t54 9t54 -9l6 -2v1h15q27 0 39.5 10.5t7.5 75.5h34q5 -73 -13 -97q-12 -16 -36 -21q18 -18 30 -50q13 -36 13 -84v-165q0 -48 -13 -84t-35 -55t-47.5 -28t-54.5 -9t-54 9t-47 28.5t-34.5 55t-12.5 83.5zM306 186v129
q0 160 -112 160q-111 0 -111 -160v-129q0 -160 111 -160q112 0 112 160z" />
    <glyph glyph-name="uni1EFB" unicode="&#x1efb;" horiz-adv-x="0" 
d="M533 790q5 -77 -14 -102t-71 -23h-17v35h17q28 0 41 11t8 79h36z" />
    <glyph glyph-name="uni1EA2" unicode="&#x1ea2;" horiz-adv-x="544" 
d="M271 914q31 0 45.5 -18t12.5 -59q-1 -18 -9 -27t-16 -16l-4 -4q-6 -4 -6 -5q-3 -5 -3.5 -9.5t-0.5 -10.5v-3v-20h-33v12q0 18 1.5 30.5t10.5 20.5l2 2l3 3q8 6 14.5 11.5t6.5 16.5q3 25 -3 34t-21 9h-2q-10 0 -19 -11t-8 -40h-31q-2 45 16 64t41 20h3zM448 0l-65 232
h-221l-66 -232h-42l193 700h50l194 -700h-43zM169 275h206l-103 369z" />
    <glyph glyph-name="uni1EA0" unicode="&#x1ea0;" horiz-adv-x="544" 
d="M252 -117v66h40v-66h-40zM448 0l-65 232h-221l-66 -232h-42l193 700h50l194 -700h-43zM169 275h206l-103 369z" />
    <glyph glyph-name="uni1EA1" unicode="&#x1ea1;" 
d="M172 -117v66h40v-66h-40zM313 500h31v-500h-31l-3 72q-34 -80 -121 -80q-28 0 -52.5 9t-45.5 28t-33 55t-12 84v165q0 48 12 84t33 55t45.5 28t52.5 9q87 0 121 -78zM83 316v-130q0 -160 112 -160q111 0 111 160v130q0 159 -111 159q-112 0 -112 -159z" />
    <glyph glyph-name="uni1EA3" unicode="&#x1ea3;" 
d="M216 719q31 0 45.5 -18t12.5 -59q-1 -18 -9 -27t-16 -16l-4 -4q-6 -4 -6 -5q-3 -5 -3.5 -9.5t-0.5 -10.5v-3v-20h-33v12q0 18 1.5 30.5t10.5 20.5l2 2l3 3q8 6 14.5 11.5t6.5 16.5q3 25 -3 34t-21 9h-2q-10 0 -19 -11t-8 -40h-31q-2 45 16 64t41 20h3zM313 500h31v-500
h-31l-3 72q-34 -80 -121 -80q-28 0 -52.5 9t-45.5 28t-33 55t-12 84v165q0 48 12 84t33 55t45.5 28t52.5 9q87 0 121 -78zM83 316v-130q0 -160 112 -160q111 0 111 160v130q0 159 -111 159q-112 0 -112 -159z" />
    <glyph glyph-name="uni1EA8" unicode="&#x1ea8;" horiz-adv-x="544" 
d="M366 1012q31 0 45.5 -18t12.5 -59q-1 -18 -9 -27t-16 -16l-4 -4q-6 -4 -6 -5q-3 -5 -3.5 -9.5t-0.5 -10.5v-3v-20h-33v12q0 18 1.5 30.5t10.5 20.5l2 2l3 3q8 6 14.5 11.5t6.5 16.5q3 25 -3 34t-21 9h-2q-10 0 -19 -11t-8 -40h-31q-2 45 16 64t41 20h3zM256 876h34
l73 -134h-40l-51 94l-50 -94h-40zM247 700h50l194 -700h-43l-65 232h-221l-66 -232h-42zM375 275l-103 369l-103 -369h206z" />
    <glyph glyph-name="uni1EA9" unicode="&#x1ea9;" 
d="M305 816q31 0 45.5 -18t12.5 -59q-1 -18 -9 -27t-16 -16l-4 -4q-6 -4 -6 -5q-3 -5 -3.5 -9.5t-0.5 -10.5v-3v-20h-33v12q0 18 1.5 30.5t10.5 20.5l2 2l3 3q8 6 14.5 11.5t6.5 16.5q3 25 -3 34t-21 9h-2q-10 0 -19 -11t-8 -40h-31q-2 45 16 64t41 20h3zM313 500h31v-500
h-31l-3 72q-34 -80 -121 -80q-28 0 -52.5 9t-45.5 28t-33 55t-12 84v165q0 48 12 84t33 55t45.5 28t52.5 9q87 0 121 -78zM83 315v-129q0 -160 112 -160q111 0 111 160v129q0 160 -111 160q-112 0 -112 -160zM195 680h34l73 -134h-40l-51 94l-50 -94h-40z" />
    <glyph glyph-name="uni1EB2" unicode="&#x1eb2;" horiz-adv-x="544" 
d="M273 1052q31 0 45.5 -18t12.5 -59q-1 -18 -9 -27t-16 -16l-4 -4q-6 -4 -6 -5q-3 -5 -3.5 -9.5t-0.5 -10.5v-3v-20h-33v12q0 18 1.5 30.5t10.5 20.5l2 2l3 3q8 6 14.5 11.5t6.5 16.5q3 25 -3 34t-21 9h-2q-10 0 -19 -11t-8 -40h-31q-2 45 16 64t41 20h3zM247 700h50
l194 -700h-43l-65 232h-221l-66 -232h-42zM375 275l-103 369l-102 -369h205zM323 849h31q0 -47 -19.5 -77t-60.5 -30t-60 30t-20 77h32q0 -30 11 -53t37 -23q27 0 38 23t11 53z" />
    <glyph glyph-name="uni1EB3" unicode="&#x1eb3;" 
d="M218 856q31 0 45.5 -18t12.5 -59q-1 -18 -9 -27t-16 -16l-4 -4q-6 -4 -6 -5q-3 -5 -3.5 -9.5t-0.5 -10.5v-3v-20h-33v12q0 18 1.5 30.5t10.5 20.5l2 2l3 3q8 6 14.5 11.5t6.5 16.5q3 25 -3 34t-21 9h-2q-10 0 -19 -11t-8 -40h-31q-2 45 16 64t41 20h3zM46 168v165
q0 48 12 84t33 55t45.5 28t52.5 9q87 0 121 -78l3 69h31v-500h-31l-3 72q-34 -80 -121 -80q-28 0 -52.5 9t-45.5 28t-33 55t-12 84zM306 186v129q0 160 -111 160q-112 0 -112 -160v-129q0 -160 112 -160q111 0 111 160zM268 653h31q0 -47 -19.5 -77t-60.5 -30t-60 30t-20 77
h32q0 -30 11 -53t37 -23q27 0 38 23t11 53z" />
    <glyph glyph-name="uni1EB8" unicode="&#x1eb8;" horiz-adv-x="410" 
d="M205 -117v66h40v-66h-40zM375 659h-261v-278h251v-41h-251v-299h261v-41h-303v700h303v-41z" />
    <glyph glyph-name="uni1EB9" unicode="&#x1eb9;" horiz-adv-x="386" 
d="M172 -117v66h40v-66h-40zM46 168v165q0 48 12.5 83.5t34.5 55t47 28.5t54 9t54 -9t47 -28t35 -55t13 -84v-103h-260v-52q0 -152 111 -152q106 0 111 135h38q-1 -47 -14 -81t-35 -52.5t-47 -27t-53 -8.5q-29 0 -54 9t-47 28.5t-34.5 55t-12.5 83.5zM305 261v63
q0 83 -31.5 116.5t-79.5 33.5q-111 0 -111 -150v-63h222z" />
    <glyph glyph-name="uni1EBA" unicode="&#x1eba;" horiz-adv-x="410" 
d="M229 914q31 0 45.5 -18t12.5 -59q-1 -18 -9 -27t-16 -16l-4 -4q-6 -4 -6 -5q-3 -5 -3.5 -9.5t-0.5 -10.5v-3v-20h-33v12q0 18 1.5 30.5t10.5 20.5l2 2l3 3q8 6 14.5 11.5t6.5 16.5q3 25 -3 34t-21 9h-2q-10 0 -19 -11t-8 -40h-31q-2 45 16 64t41 20h3zM375 659h-261v-278
h251v-41h-251v-299h261v-41h-303v700h303v-41z" />
    <glyph glyph-name="uni1EBB" unicode="&#x1ebb;" horiz-adv-x="386" 
d="M202 719q31 0 45.5 -18t12.5 -59q-1 -18 -9 -27t-16 -16l-4 -4q-6 -4 -6 -5q-3 -5 -3.5 -9.5t-0.5 -10.5v-3v-20h-33v12q0 18 1.5 30.5t10.5 20.5l2 2l3 3q8 6 14.5 11.5t6.5 16.5q3 25 -3 34t-21 9h-2q-10 0 -19 -11t-8 -40h-31q-2 45 16 64t41 20h3zM46 168v165
q0 48 12.5 83.5t34.5 55t47 28.5t54 9t54 -9t47 -28t35 -55t13 -84v-103h-260v-52q0 -152 111 -152q106 0 111 135h38q-1 -47 -14 -81t-35 -52.5t-47 -27t-53 -8.5q-29 0 -54 9t-47 28.5t-34.5 55t-12.5 83.5zM305 261v63q0 83 -31.5 116.5t-79.5 33.5q-111 0 -111 -150v-63
h222z" />
    <glyph glyph-name="uni1EC2" unicode="&#x1ec2;" horiz-adv-x="410" 
d="M320 1012q31 0 45.5 -18t12.5 -59q-1 -18 -9 -27t-16 -16l-4 -4q-6 -4 -6 -5q-3 -5 -3.5 -9.5t-0.5 -10.5v-3v-20h-33v12q0 18 1.5 30.5t10.5 20.5l2 2l3 3q8 6 14.5 11.5t6.5 16.5q3 25 -3 34t-21 9h-2q-10 0 -19 -11t-8 -40h-31q-2 45 16 64t41 20h3zM72 700h303v-41
h-261v-278h251v-41h-251v-299h261v-41h-303v700zM210 876h34l73 -134h-40l-51 94l-50 -94h-40z" />
    <glyph glyph-name="uni1EC3" unicode="&#x1ec3;" horiz-adv-x="386" 
d="M291 816q31 0 45.5 -18t12.5 -59q-1 -18 -9 -27t-16 -16l-4 -4q-6 -4 -6 -5q-3 -5 -3.5 -9.5t-0.5 -10.5v-3v-20h-33v12q0 18 1.5 30.5t10.5 20.5l2 2l3 3q8 6 14.5 11.5t6.5 16.5q3 25 -3 34t-21 9h-2q-10 0 -19 -11t-8 -40h-31q-2 45 16 64t41 20h3zM46 168v165
q0 48 12.5 83.5t34.5 55t47 28.5t54 9t54 -9t47 -28t35 -55t13 -84v-103h-260v-52q0 -152 111 -152q106 0 111 135h38q-1 -47 -14 -81t-35 -52.5t-47 -27t-53 -8.5q-29 0 -54 9t-47 28.5t-34.5 55t-12.5 83.5zM305 261v63q0 83 -31.5 116.5t-79.5 33.5q-111 0 -111 -150v-63
h222zM181 680h34l73 -134h-40l-51 94l-50 -94h-40z" />
    <glyph glyph-name="uni1EC8" unicode="&#x1ec8;" horiz-adv-x="186" 
d="M91 914q31 0 45.5 -18t12.5 -59q-1 -18 -9 -27t-16 -16l-4 -4q-6 -4 -6 -5q-3 -5 -3.5 -9.5t-0.5 -10.5v-3v-20h-33v12q0 18 1.5 30.5t10.5 20.5l2 2l3 3q8 6 14.5 11.5t6.5 16.5q3 25 -3 34t-21 9h-2q-10 0 -19 -11t-8 -40h-31q-2 45 16 64t41 20h3zM72 0v700h43v-700
h-43z" />
    <glyph glyph-name="uni1EC9" unicode="&#x1ec9;" horiz-adv-x="157" 
d="M61 0v500h38v-500h-38zM77 719q31 0 45.5 -18t12.5 -59q-1 -18 -9 -27t-16 -16l-4 -4q-6 -4 -6 -5q-3 -5 -3.5 -9.5t-0.5 -10.5v-3v-20h-33v12q0 18 1.5 30.5t10.5 20.5l2 2l3 3q8 6 14.5 11.5t6.5 16.5q3 25 -3 34t-21 9h-2q-10 0 -19 -11t-8 -40h-31q-2 45 16 64t41 20
h3z" />
    <glyph glyph-name="uni1ECA" unicode="&#x1eca;" horiz-adv-x="186" 
d="M74 -117v66h40v-66h-40zM72 0v700h43v-700h-43z" />
    <glyph glyph-name="uni1ECB" unicode="&#x1ecb;" horiz-adv-x="157" 
d="M63 -117v66h40v-66h-40zM57 591v44h46v-44h-46zM61 0v500h38v-500h-38z" />
    <glyph glyph-name="uni1ECC" unicode="&#x1ecc;" horiz-adv-x="532" 
d="M246 -117v66h40v-66h-40zM63 234v233q0 67 17 115.5t47 75t64.5 39t73.5 12.5q40 0 74 -12t64.5 -38.5t48 -75.5t17.5 -116v-233q0 -67 -17.5 -116t-48 -75.5t-64.5 -38.5t-74 -12q-39 0 -73.5 12.5t-64.5 39t-47 75t-17 115.5zM426 243v215q0 59 -13.5 102t-37 65.5
t-50.5 32.5t-60 10t-60 -10t-50 -33t-36 -65.5t-13 -101.5v-215q0 -59 13 -101.5t36 -65.5t50 -33t60 -10t60 10t50.5 33t37 65.5t13.5 101.5z" />
    <glyph glyph-name="uni1ECD" unicode="&#x1ecd;" horiz-adv-x="389" 
d="M177 -117v66h40v-66h-40zM46 168v165q0 48 12.5 83.5t34.5 55t47 28.5t54 9t54.5 -9t47.5 -28t35 -55t13 -84v-165q0 -48 -13 -84t-35 -55t-47.5 -28t-54.5 -9t-54 9t-47 28.5t-34.5 55t-12.5 83.5zM306 186v129q0 160 -112 160q-111 0 -111 -160v-129q0 -160 111 -160
q112 0 112 160z" />
    <glyph glyph-name="uni1ECE" unicode="&#x1ece;" horiz-adv-x="532" 
d="M63 234v233q0 67 17 115.5t47 75t64.5 39t73.5 12.5q40 0 74 -12t64.5 -38.5t48 -75.5t17.5 -116v-233q0 -67 -17.5 -116t-48 -75.5t-64.5 -38.5t-74 -12q-39 0 -73.5 12.5t-64.5 39t-47 75t-17 115.5zM426 243v215q0 59 -13.5 102t-37 65.5t-50.5 32.5t-60 10t-60 -10
t-50 -33t-36 -65.5t-13 -101.5v-215q0 -59 13 -101.5t36 -65.5t50 -33t60 -10t60 10t50.5 33t37 65.5t13.5 101.5zM275 914q31 0 45.5 -18t12.5 -59q-1 -18 -9 -27t-16 -16l-4 -4q-6 -4 -6 -5q-3 -5 -3.5 -9.5t-0.5 -10.5v-3v-20h-33v12q0 18 1.5 30.5t10.5 20.5l2 2l3 3
q8 6 14.5 11.5t6.5 16.5q3 25 -3 34t-21 9h-2q-10 0 -19 -11t-8 -40h-31q-2 45 16 64t41 20h3z" />
    <glyph glyph-name="uni1ECF" unicode="&#x1ecf;" horiz-adv-x="389" 
d="M46 168v165q0 48 12.5 83.5t34.5 55t47 28.5t54 9t54.5 -9t47.5 -28t35 -55t13 -84v-165q0 -48 -13 -84t-35 -55t-47.5 -28t-54.5 -9t-54 9t-47 28.5t-34.5 55t-12.5 83.5zM306 186v129q0 160 -112 160q-111 0 -111 -160v-129q0 -160 111 -160q112 0 112 160zM202 719
q31 0 45.5 -18t12.5 -59q-1 -18 -9 -27t-16 -16l-4 -4q-6 -4 -6 -5q-3 -5 -3.5 -9.5t-0.5 -10.5v-3v-20h-33v12q0 18 1.5 30.5t10.5 20.5l2 2l3 3q8 6 14.5 11.5t6.5 16.5q3 25 -3 34t-21 9h-2q-10 0 -19 -11t-8 -40h-31q-2 45 16 64t41 20h3z" />
    <glyph glyph-name="uni1ED4" unicode="&#x1ed4;" horiz-adv-x="532" 
d="M359 1012q31 0 45.5 -18t12.5 -59q-1 -18 -9 -27t-16 -16l-4 -4q-6 -4 -6 -5q-3 -5 -3.5 -9.5t-0.5 -10.5v-3v-20h-33v12q0 18 1.5 30.5t10.5 20.5l2 2l3 3q8 6 14.5 11.5t6.5 16.5q3 25 -3 34t-21 9h-2q-10 0 -19 -11t-8 -40h-31q-2 45 16 64t41 20h3zM63 234v233
q0 67 17 115.5t47 75t64.5 39t73.5 12.5q40 0 74 -12t64.5 -38.5t48 -75.5t17.5 -116v-233q0 -67 -17.5 -116t-48 -75.5t-64.5 -38.5t-74 -12q-39 0 -73.5 12.5t-64.5 39t-47 75t-17 115.5zM426 243v215q0 59 -13.5 102t-37 65.5t-50.5 32.5t-60 10t-60 -10t-50 -33
t-36 -65.5t-13 -101.5v-215q0 -59 13 -101.5t36 -65.5t50 -33t60 -10t60 10t50.5 33t37 65.5t13.5 101.5zM249 876h34l73 -134h-40l-51 94l-50 -94h-40z" />
    <glyph glyph-name="uni1ED5" unicode="&#x1ed5;" horiz-adv-x="389" 
d="M291 816q31 0 45.5 -18t12.5 -59q-1 -18 -9 -27t-16 -16l-4 -4q-6 -4 -6 -5q-3 -5 -3.5 -9.5t-0.5 -10.5v-3v-20h-33v12q0 18 1.5 30.5t10.5 20.5l2 2l3 3q8 6 14.5 11.5t6.5 16.5q3 25 -3 34t-21 9h-2q-10 0 -19 -11t-8 -40h-31q-2 45 16 64t41 20h3zM46 168v165
q0 48 12.5 83.5t34.5 55t47 28.5t54 9t54.5 -9t47.5 -28t35 -55t13 -84v-165q0 -48 -13 -84t-35 -55t-47.5 -28t-54.5 -9t-54 9t-47 28.5t-34.5 55t-12.5 83.5zM306 185v130q0 160 -112 160q-111 0 -111 -160v-130q0 -159 111 -159q112 0 112 159zM181 680h34l73 -134h-40
l-51 94l-50 -94h-40z" />
    <glyph glyph-name="uni1EDE" unicode="&#x1ede;" horiz-adv-x="532" 
d="M275 914q31 0 45.5 -18t12.5 -59q-1 -18 -9 -27t-16 -16l-4 -4q-6 -4 -6 -5q-3 -5 -3.5 -9.5t-0.5 -10.5v-3v-20h-33v12q0 18 1.5 30.5t10.5 20.5l2 2l3 3q8 6 14.5 11.5t6.5 16.5q3 25 -3 34t-21 9h-2q-10 0 -19 -11t-8 -40h-31q-2 45 16 64t41 20h3zM63 234v233
q0 67 17 115.5t47 75t64.5 39t73.5 12.5q35 0 65 -9h41q28 0 41 11t8 79h36q5 -77 -14 -102q-14 -19 -47 -23l8 -7q31 -26 48.5 -75t17.5 -116v-233q0 -67 -17.5 -116t-48 -75.5t-64.5 -38.5t-74 -12q-39 0 -73.5 12.5t-64.5 39t-47 75t-17 115.5zM426 243v215
q0 59 -13.5 102t-37 65.5t-50.5 32.5t-60 10t-60 -10t-50 -33t-36 -65.5t-13 -101.5v-215q0 -59 13 -101.5t36 -65.5t50 -33t60 -10t60 10t50.5 33t37 65.5t13.5 101.5z" />
    <glyph glyph-name="uni1EDF" unicode="&#x1edf;" horiz-adv-x="389" 
d="M202 719q31 0 45.5 -18t12.5 -59q-1 -18 -9 -27t-16 -16l-4 -4q-6 -4 -6 -5q-3 -5 -3.5 -9.5t-0.5 -10.5v-3v-20h-33v12q0 18 1.5 30.5t10.5 20.5l2 2l3 3q8 6 14.5 11.5t6.5 16.5q3 25 -3 34t-21 9h-2q-10 0 -19 -11t-8 -40h-31q-2 45 16 64t41 20h3zM46 168v165
q0 48 12.5 83.5t34.5 55t47 28.5t54 9t54 -9l6 -2v1h15q27 0 39.5 10.5t7.5 75.5h34q5 -73 -13 -97q-12 -16 -36 -21q18 -18 30 -50q13 -36 13 -84v-165q0 -48 -13 -84t-35 -55t-47.5 -28t-54.5 -9t-54 9t-47 28.5t-34.5 55t-12.5 83.5zM306 186v129q0 160 -112 160
q-111 0 -111 -160v-129q0 -160 111 -160q112 0 112 160z" />
    <glyph glyph-name="uni1EE2" unicode="&#x1ee2;" horiz-adv-x="532" 
d="M246 -117v66h40v-66h-40zM63 234v233q0 67 17 115.5t47 75t64.5 39t73.5 12.5q35 0 65 -9h41q28 0 41 11t8 79h36q5 -77 -14 -102q-14 -19 -47 -23l8 -7q31 -26 48.5 -75t17.5 -116v-233q0 -67 -17.5 -116t-48 -75.5t-64.5 -38.5t-74 -12q-39 0 -73.5 12.5t-64.5 39
t-47 75t-17 115.5zM426 243v215q0 59 -13.5 102t-37 65.5t-50.5 32.5t-60 10t-60 -10t-50 -33t-36 -65.5t-13 -101.5v-215q0 -59 13 -101.5t36 -65.5t50 -33t60 -10t60 10t50.5 33t37 65.5t13.5 101.5z" />
    <glyph glyph-name="uni1EE3" unicode="&#x1ee3;" horiz-adv-x="389" 
d="M177 -117v66h40v-66h-40zM46 168v165q0 48 12.5 83.5t34.5 55t47 28.5t54 9t54 -9l6 -2v1h15q27 0 39.5 10.5t7.5 75.5h34q5 -73 -13 -97q-12 -16 -36 -21q18 -18 30 -50q13 -36 13 -84v-165q0 -48 -13 -84t-35 -55t-47.5 -28t-54.5 -9t-54 9t-47 28.5t-34.5 55
t-12.5 83.5zM306 186v129q0 160 -112 160q-111 0 -111 -160v-129q0 -160 111 -160q112 0 112 160z" />
    <glyph glyph-name="uni1EE4" unicode="&#x1ee4;" horiz-adv-x="540" 
d="M114 242q0 -111 44 -160t113 -49q32 0 59 10.5t50 33.5t36 65t13 100v458h42v-467q0 -66 -17 -114.5t-46.5 -75t-63.5 -39t-73 -12.5q-40 0 -74 12.5t-63 39t-45.5 75t-16.5 114.5v467h42v-458zM252 -117v66h40v-66h-40z" />
    <glyph glyph-name="uni1EE5" unicode="&#x1ee5;" horiz-adv-x="398" 
d="M185 -117v66h40v-66h-40zM311 500h37v-500h-31l-3 72q-34 -81 -122 -81q-28 0 -52 9t-45 28t-33 55t-12 84v333h37v-315q0 -160 112 -160t112 154v321z" />
    <glyph glyph-name="uni1EE6" unicode="&#x1ee6;" horiz-adv-x="540" 
d="M276 914q31 0 45.5 -18t12.5 -59q-1 -18 -9 -27t-16 -16l-4 -4q-6 -4 -6 -5q-3 -5 -3.5 -9.5t-0.5 -10.5v-3v-20h-33v12q0 18 1.5 30.5t10.5 20.5l2 2l3 3q8 6 14.5 11.5t6.5 16.5q3 25 -3 34t-21 9h-2q-10 0 -19 -11t-8 -40h-31q-2 45 16 64t41 20h3zM114 242v458h-42
v-467q0 -66 16.5 -114.5t45.5 -75t63 -39t74 -12.5q39 0 73 12.5t63.5 39t46.5 75t17 114.5v467h-42v-458q0 -58 -13 -100t-36 -65t-50 -33.5t-59 -10.5q-69 0 -113 49t-44 160z" />
    <glyph glyph-name="uni1EE7" unicode="&#x1ee7;" horiz-adv-x="398" 
d="M202 719q31 0 45.5 -18t12.5 -59q-1 -18 -9 -27t-16 -16l-4 -4q-6 -4 -6 -5q-3 -5 -3.5 -9.5t-0.5 -10.5v-3v-20h-33v12q0 18 1.5 30.5t10.5 20.5l2 2l3 3q8 6 14.5 11.5t6.5 16.5q3 25 -3 34t-21 9h-2q-10 0 -19 -11t-8 -40h-31q-2 45 16 64t41 20h3zM311 500h37v-500
h-31l-3 72q-34 -81 -122 -81q-28 0 -52 9t-45 28t-33 55t-12 84v333h37v-315q0 -160 112 -160t112 154v321z" />
    <glyph glyph-name="uni1EEC" unicode="&#x1eec;" horiz-adv-x="540" 
d="M276 914q31 0 45.5 -18t12.5 -59q-1 -18 -9 -27t-16 -16l-4 -4q-6 -4 -6 -5q-3 -5 -3.5 -9.5t-0.5 -10.5v-3v-20h-33v12q0 18 1.5 30.5t10.5 20.5l2 2l3 3q8 6 14.5 11.5t6.5 16.5q3 25 -3 34t-21 9h-2q-10 0 -19 -11t-8 -40h-31q-2 45 16 64t41 20h3zM114 242v458h-42
v-467q0 -66 16.5 -114.5t45.5 -75t63 -39t74 -12.5q39 0 73 12.5t63.5 39t46.5 75t17 114.5v432q33 4 48 23q19 25 14 102h-36q5 -68 -8 -79q-12 -10 -34 -11h-26v-458q0 -58 -13 -100t-36 -65t-50 -33.5t-59 -10.5q-69 0 -113 49t-44 160z" />
    <glyph glyph-name="uni1EED" unicode="&#x1eed;" horiz-adv-x="398" 
d="M202 719q31 0 45.5 -18t12.5 -59q-1 -18 -9 -27t-16 -16l-4 -4q-6 -4 -6 -5q-3 -5 -3.5 -9.5t-0.5 -10.5v-3v-20h-33v12q0 18 1.5 30.5t10.5 20.5l2 2l3 3q8 6 14.5 11.5t6.5 16.5q3 25 -3 34t-21 9h-2q-10 0 -19 -11t-8 -40h-31q-2 45 16 64t41 20h3zM311 500h35
q15 2 23 9q13 11 8 76h34q5 -73 -13 -97q-15 -20 -50 -22v-466h-31l-3 72q-34 -81 -122 -81q-28 0 -52 9t-45 28t-33 55t-12 84v333h37v-315q0 -160 112 -160t112 154v321z" />
    <glyph glyph-name="uni1EF0" unicode="&#x1ef0;" horiz-adv-x="540" 
d="M252 -117v66h40v-66h-40zM114 242q0 -111 44 -160t113 -49q32 0 59 10.5t50 33.5t36 65t13 100v458h26q22 1 34 11q13 11 8 79h36q5 -77 -14 -102q-15 -19 -48 -23v-432q0 -66 -17 -114.5t-46.5 -75t-63.5 -39t-73 -12.5q-40 0 -74 12.5t-63 39t-45.5 75t-16.5 114.5v467
h42v-458z" />
    <glyph glyph-name="uni1EF1" unicode="&#x1ef1;" horiz-adv-x="398" 
d="M185 -117v66h40v-66h-40zM311 500h35q15 2 23 9q13 11 8 76h34q5 -73 -13 -97q-15 -20 -50 -22v-466h-31l-3 72q-34 -81 -122 -81q-28 0 -52 9t-45 28t-33 55t-12 84v333h37v-315q0 -160 112 -160t112 154v321z" />
    <glyph glyph-name="uni1EF4" unicode="&#x1ef4;" horiz-adv-x="510" 
d="M234 -117v66h40v-66h-40zM410 700h46l-182 -407v-293h-43v293l-177 407h45l154 -359z" />
    <glyph glyph-name="uni1EF5" unicode="&#x1ef5;" horiz-adv-x="380" 
d="M379 -117v66h40v-66h-40zM302 500h37v-511q-4 -85 -46 -123t-102 -38q-49 0 -88 25.5t-53 80.5h39q24 -72 101 -72q112 0 112 150v66q-33 -78 -119 -78q-28 0 -52 9t-45 28t-33 55t-12 84v324h37v-307q0 -159 112 -159q111 0 112 160v306z" />
    <glyph glyph-name="uni1EF6" unicode="&#x1ef6;" horiz-adv-x="510" 
d="M259 914q31 0 45.5 -18t12.5 -59q-1 -18 -9 -27t-16 -16l-4 -4q-6 -4 -6 -5q-3 -5 -3.5 -9.5t-0.5 -10.5v-3v-20h-33v12q0 18 1.5 30.5t10.5 20.5l2 2l3 3q8 6 14.5 11.5t6.5 16.5q3 25 -3 34t-21 9h-2q-10 0 -19 -11t-8 -40h-31q-2 45 16 64t41 20h3zM410 700h46
l-182 -407v-293h-43v293l-177 407h45l154 -359z" />
    <glyph glyph-name="uni1EF7" unicode="&#x1ef7;" horiz-adv-x="380" 
d="M192 719q31 0 45.5 -18t12.5 -59q-1 -18 -9 -27t-16 -16l-4 -4q-6 -4 -6 -5q-3 -5 -3.5 -9.5t-0.5 -10.5v-3v-20h-33v12q0 18 1.5 30.5t10.5 20.5l2 2l3 3q8 6 14.5 11.5t6.5 16.5q3 25 -3 34t-21 9h-2q-10 0 -19 -11t-8 -40h-31q-2 45 16 64t41 20h3zM302 500h37v-511
q-4 -85 -46 -123t-102 -38q-49 0 -88 25.5t-53 80.5h39q24 -72 101 -72q112 0 112 150v66q-33 -78 -119 -78q-28 0 -52 9t-45 28t-33 55t-12 84v324h37v-307q0 -159 112 -159q111 0 112 160v306z" />
    <glyph glyph-name="uni1EA4" unicode="&#x1ea4;" horiz-adv-x="544" 
d="M374 844h-31l59 134h41zM256 876h34l73 -134h-40l-51 94l-50 -94h-40zM247 700h50l194 -700h-43l-65 232h-221l-66 -232h-42zM375 275l-103 369l-103 -369h206z" />
    <glyph glyph-name="uni1EA5" unicode="&#x1ea5;" 
d="M314 648h-31l59 134h41zM313 500h31v-500h-31l-3 72q-34 -80 -121 -80q-28 0 -52.5 9t-45.5 28t-33 55t-12 84v165q0 48 12 84t33 55t45.5 28t52.5 9q87 0 121 -78zM83 315v-129q0 -160 112 -160q111 0 111 160v129q0 160 -111 160q-112 0 -112 -160zM195 680h34l73 -134
h-40l-51 94l-50 -94h-40z" />
    <glyph glyph-name="uni1EA6" unicode="&#x1ea6;" horiz-adv-x="544" 
d="M291 978h41l59 -134h-31zM256 876h34l73 -134h-40l-51 94l-50 -94h-40zM247 700h50l194 -700h-43l-65 232h-221l-66 -232h-42zM375 275l-103 369l-103 -369h206z" />
    <glyph glyph-name="uni1EA7" unicode="&#x1ea7;" 
d="M230 782h41l59 -134h-31zM313 500h31v-500h-31l-3 72q-34 -80 -121 -80q-28 0 -52.5 9t-45.5 28t-33 55t-12 84v165q0 48 12 84t33 55t45.5 28t52.5 9q87 0 121 -78zM83 315v-129q0 -160 112 -160q111 0 111 160v129q0 160 -111 160q-112 0 -112 -160zM195 680h34
l73 -134h-40l-51 94l-50 -94h-40z" />
    <glyph glyph-name="uni1EAA" unicode="&#x1eaa;" horiz-adv-x="544" 
d="M365 997q0 -18 -1 -30t-5 -26q-8 -31 -41 -31q-13 0 -25 6.5t-32 27.5q-12 14 -19 17.5t-14 3.5q-10 0 -13.5 -13t-3.5 -42h-32q0 17 1.5 29t4.5 26q8 32 41 32q11 0 21.5 -5t16.5 -12q26 -28 36 -34t17 -5q10 0 13 13.5t3 42.5h32zM256 876h34l73 -134h-40l-51 94
l-50 -94h-40zM247 700h50l194 -700h-43l-65 232h-221l-66 -232h-42zM375 275l-103 369l-103 -369h206z" />
    <glyph glyph-name="uni1EAB" unicode="&#x1eab;" 
d="M304 801q0 -18 -1 -30t-5 -26q-8 -31 -41 -31q-13 0 -25 6.5t-32 27.5q-12 14 -19 17.5t-14 3.5q-10 0 -13.5 -13t-3.5 -42h-32q0 17 1.5 29t4.5 26q8 32 41 32q11 0 21.5 -5t16.5 -12q26 -28 36 -34t17 -5q10 0 13 13.5t3 42.5h32zM313 500h31v-500h-31l-3 72
q-34 -80 -121 -80q-28 0 -52.5 9t-45.5 28t-33 55t-12 84v165q0 48 12 84t33 55t45.5 28t52.5 9q87 0 121 -78zM83 315v-129q0 -160 112 -160q111 0 111 160v129q0 160 -111 160q-112 0 -112 -160zM195 680h34l73 -134h-40l-51 94l-50 -94h-40z" />
    <glyph glyph-name="uni1EAC" unicode="&#x1eac;" horiz-adv-x="544" 
d="M252 -117v66h40v-66h-40zM256 876h34l73 -134h-40l-51 94l-50 -94h-40zM247 700h50l194 -700h-43l-65 232h-221l-66 -232h-42zM375 275l-103 369l-103 -369h206z" />
    <glyph glyph-name="uni1EAD" unicode="&#x1ead;" 
d="M172 -117v66h40v-66h-40zM313 500h31v-500h-31l-3 72q-34 -80 -121 -80q-28 0 -52.5 9t-45.5 28t-33 55t-12 84v165q0 48 12 84t33 55t45.5 28t52.5 9q87 0 121 -78zM83 315v-129q0 -160 112 -160q111 0 111 160v129q0 160 -111 160q-112 0 -112 -160zM195 680h34
l73 -134h-40l-51 94l-50 -94h-40z" />
    <glyph glyph-name="uni1EAE" unicode="&#x1eae;" horiz-adv-x="544" 
d="M281 885h-31l59 134h41zM247 700h50l194 -700h-43l-65 232h-221l-66 -232h-42zM375 275l-103 369l-102 -369h205zM323 849h31q0 -47 -19.5 -77t-60.5 -30t-60 30t-20 77h32q0 -30 11 -53t37 -23q27 0 38 23t11 53z" />
    <glyph glyph-name="uni1EAF" unicode="&#x1eaf;" 
d="M226 689h-31l59 134h41zM46 168v165q0 48 12 84t33 55t45.5 28t52.5 9q87 0 121 -78l3 69h31v-500h-31l-3 72q-34 -80 -121 -80q-28 0 -52.5 9t-45.5 28t-33 55t-12 84zM306 186v129q0 160 -111 160q-112 0 -112 -160v-129q0 -160 112 -160q111 0 111 160zM268 653h31
q0 -47 -19.5 -77t-60.5 -30t-60 30t-20 77h32q0 -30 11 -53t37 -23q27 0 38 23t11 53z" />
    <glyph glyph-name="uni1EB0" unicode="&#x1eb0;" horiz-adv-x="544" 
d="M203 1019h41l59 -134h-31zM247 700h50l194 -700h-43l-65 232h-221l-66 -232h-42zM375 275l-103 369l-102 -369h205zM323 849h31q0 -47 -19.5 -77t-60.5 -30t-60 30t-20 77h32q0 -30 11 -53t37 -23q27 0 38 23t11 53z" />
    <glyph glyph-name="uni1EB1" unicode="&#x1eb1;" 
d="M148 823h41l59 -134h-31zM46 168v165q0 48 12 84t33 55t45.5 28t52.5 9q87 0 121 -78l3 69h31v-500h-31l-3 72q-34 -80 -121 -80q-28 0 -52.5 9t-45.5 28t-33 55t-12 84zM306 186v129q0 160 -111 160q-112 0 -112 -160v-129q0 -160 112 -160q111 0 111 160zM268 653h31
q0 -47 -19.5 -77t-60.5 -30t-60 30t-20 77h32q0 -30 11 -53t37 -23q27 0 38 23t11 53z" />
    <glyph glyph-name="uni1EB4" unicode="&#x1eb4;" horiz-adv-x="544" 
d="M370 972q0 -18 -1 -30t-5 -26q-8 -31 -41 -31q-13 0 -25 6.5t-32 27.5q-12 14 -19 17.5t-14 3.5q-10 0 -13.5 -13t-3.5 -42h-32q0 17 1.5 29t4.5 26q8 32 41 32q11 0 21.5 -5t16.5 -12q26 -28 36 -34t17 -5q10 0 13 13.5t3 42.5h32zM247 700h50l194 -700h-43l-65 232
h-221l-66 -232h-42zM375 275l-103 369l-102 -369h205zM323 849h31q0 -47 -19.5 -77t-60.5 -30t-60 30t-20 77h32q0 -30 11 -53t37 -23q27 0 38 23t11 53z" />
    <glyph glyph-name="uni1EB5" unicode="&#x1eb5;" 
d="M315 776q0 -18 -1 -30t-5 -26q-8 -31 -41 -31q-13 0 -25 6.5t-32 27.5q-12 14 -19 17.5t-14 3.5q-10 0 -13.5 -13t-3.5 -42h-32q0 17 1.5 29t4.5 26q8 32 41 32q11 0 21.5 -5t16.5 -12q26 -28 36 -34t17 -5q10 0 13 13.5t3 42.5h32zM46 168v165q0 48 12 84t33 55t45.5 28
t52.5 9q87 0 121 -78l3 69h31v-500h-31l-3 72q-34 -80 -121 -80q-28 0 -52.5 9t-45.5 28t-33 55t-12 84zM306 186v129q0 160 -111 160q-112 0 -112 -160v-129q0 -160 112 -160q111 0 111 160zM268 653h31q0 -47 -19.5 -77t-60.5 -30t-60 30t-20 77h32q0 -30 11 -53t37 -23
q27 0 38 23t11 53z" />
    <glyph glyph-name="uni1EB6" unicode="&#x1eb6;" horiz-adv-x="544" 
d="M252 -117v66h40v-66h-40zM247 700h50l194 -700h-43l-65 232h-221l-66 -232h-42zM375 275l-103 369l-102 -369h205zM323 849h31q0 -47 -19.5 -77t-60.5 -30t-60 30t-20 77h32q0 -30 11 -53t37 -23q27 0 38 23t11 53z" />
    <glyph glyph-name="uni1EB7" unicode="&#x1eb7;" 
d="M172 -117v66h40v-66h-40zM46 168v165q0 48 12 84t33 55t45.5 28t52.5 9q87 0 121 -78l3 69h31v-500h-31l-3 72q-34 -80 -121 -80q-28 0 -52.5 9t-45.5 28t-33 55t-12 84zM306 186v129q0 160 -111 160q-112 0 -112 -160v-129q0 -160 112 -160q111 0 111 160zM268 653h31
q0 -47 -19.5 -77t-60.5 -30t-60 30t-20 77h32q0 -30 11 -53t37 -23q27 0 38 23t11 53z" />
    <glyph glyph-name="uni1EBC" unicode="&#x1ebc;" horiz-adv-x="410" 
d="M319 829q0 -18 -1 -30t-5 -26q-8 -31 -41 -31q-13 0 -25 6.5t-32 27.5q-12 14 -19 17.5t-14 3.5q-10 0 -13.5 -13t-3.5 -42h-32q0 17 1.5 29t4.5 26q8 32 41 32q11 0 21.5 -5t16.5 -12q26 -28 36 -34t17 -5q10 0 13 13.5t3 42.5h32zM375 659h-261v-278h251v-41h-251v-299
h261v-41h-303v700h303v-41z" />
    <glyph glyph-name="uni1EBD" unicode="&#x1ebd;" horiz-adv-x="386" 
d="M293 640q0 -18 -1 -30t-5 -26q-8 -31 -41 -31q-13 0 -25 6.5t-32 27.5q-12 14 -19 17.5t-14 3.5q-10 0 -13.5 -13t-3.5 -42h-32q0 17 1.5 29t4.5 26q8 32 41 32q11 0 21.5 -5t16.5 -12q26 -28 36 -34t17 -5q10 0 13 13.5t3 42.5h32zM46 168v165q0 48 12.5 83.5t34.5 55
t47 28.5t54 9t54 -9t47 -28t35 -55t13 -84v-103h-260v-52q0 -152 111 -152q106 0 111 135h38q-1 -47 -14 -81t-35 -52.5t-47 -27t-53 -8.5q-29 0 -54 9t-47 28.5t-34.5 55t-12.5 83.5zM305 261v63q0 83 -31.5 116.5t-79.5 33.5q-111 0 -111 -150v-63h222z" />
    <glyph glyph-name="uni1EBE" unicode="&#x1ebe;" horiz-adv-x="410" 
d="M328 844h-31l59 134h41zM72 700h303v-41h-261v-278h251v-41h-251v-299h261v-41h-303v700zM210 876h34l73 -134h-40l-51 94l-50 -94h-40z" />
    <glyph glyph-name="uni1EBF" unicode="&#x1ebf;" horiz-adv-x="386" 
d="M300 648h-31l59 134h41zM46 168v165q0 48 12.5 83.5t34.5 55t47 28.5t54 9t54 -9t47 -28t35 -55t13 -84v-103h-260v-52q0 -152 111 -152q106 0 111 135h38q-1 -47 -14 -81t-35 -52.5t-47 -27t-53 -8.5q-29 0 -54 9t-47 28.5t-34.5 55t-12.5 83.5zM305 261v63
q0 83 -31.5 116.5t-79.5 33.5q-111 0 -111 -150v-63h222zM181 680h34l73 -134h-40l-51 94l-50 -94h-40z" />
    <glyph glyph-name="uni1EC0" unicode="&#x1ec0;" horiz-adv-x="410" 
d="M245 978h41l59 -134h-31zM72 700h303v-41h-261v-278h251v-41h-251v-299h261v-41h-303v700zM210 876h34l73 -134h-40l-51 94l-50 -94h-40z" />
    <glyph glyph-name="uni1EC1" unicode="&#x1ec1;" horiz-adv-x="386" 
d="M216 782h41l59 -134h-31zM46 168v165q0 48 12.5 83.5t34.5 55t47 28.5t54 9t54 -9t47 -28t35 -55t13 -84v-103h-260v-52q0 -152 111 -152q106 0 111 135h38q-1 -47 -14 -81t-35 -52.5t-47 -27t-53 -8.5q-29 0 -54 9t-47 28.5t-34.5 55t-12.5 83.5zM305 261v63
q0 83 -31.5 116.5t-79.5 33.5q-111 0 -111 -150v-63h222zM181 680h34l73 -134h-40l-51 94l-50 -94h-40z" />
    <glyph glyph-name="uni1EC4" unicode="&#x1ec4;" horiz-adv-x="410" 
d="M319 997q0 -18 -1 -30t-5 -26q-8 -31 -41 -31q-13 0 -25 6.5t-32 27.5q-12 14 -19 17.5t-14 3.5q-10 0 -13.5 -13t-3.5 -42h-32q0 17 1.5 29t4.5 26q8 32 41 32q11 0 21.5 -5t16.5 -12q26 -28 36 -34t17 -5q10 0 13 13.5t3 42.5h32zM72 700h303v-41h-261v-278h251v-41
h-251v-299h261v-41h-303v700zM210 876h34l73 -134h-40l-51 94l-50 -94h-40z" />
    <glyph glyph-name="uni1EC5" unicode="&#x1ec5;" horiz-adv-x="386" 
d="M290 801q0 -18 -1 -30t-5 -26q-8 -31 -41 -31q-13 0 -25 6.5t-32 27.5q-12 14 -19 17.5t-14 3.5q-10 0 -13.5 -13t-3.5 -42h-32q0 17 1.5 29t4.5 26q8 32 41 32q11 0 21.5 -5t16.5 -12q26 -28 36 -34t17 -5q10 0 13 13.5t3 42.5h32zM46 168v165q0 48 12.5 83.5t34.5 55
t47 28.5t54 9t54 -9t47 -28t35 -55t13 -84v-103h-260v-52q0 -152 111 -152q106 0 111 135h38q-1 -47 -14 -81t-35 -52.5t-47 -27t-53 -8.5q-29 0 -54 9t-47 28.5t-34.5 55t-12.5 83.5zM305 261v63q0 83 -31.5 116.5t-79.5 33.5q-111 0 -111 -150v-63h222zM181 680h34
l73 -134h-40l-51 94l-50 -94h-40z" />
    <glyph glyph-name="uni1EC6" unicode="&#x1ec6;" horiz-adv-x="410" 
d="M205 -117v66h40v-66h-40zM72 700h303v-41h-261v-278h251v-41h-251v-299h261v-41h-303v700zM210 876h34l73 -134h-40l-51 94l-50 -94h-40z" />
    <glyph glyph-name="uni1EC7" unicode="&#x1ec7;" horiz-adv-x="386" 
d="M172 -117v66h40v-66h-40zM46 168v165q0 48 12.5 83.5t34.5 55t47 28.5t54 9t54 -9t47 -28t35 -55t13 -84v-103h-260v-52q0 -152 111 -152q106 0 111 135h38q-1 -47 -14 -81t-35 -52.5t-47 -27t-53 -8.5q-29 0 -54 9t-47 28.5t-34.5 55t-12.5 83.5zM305 261v63
q0 83 -31.5 116.5t-79.5 33.5q-111 0 -111 -150v-63h222zM181 680h34l73 -134h-40l-51 94l-50 -94h-40z" />
    <glyph glyph-name="uni1ED0" unicode="&#x1ed0;" horiz-adv-x="532" 
d="M367 844h-31l59 134h41zM63 234v233q0 67 17 115.5t47 75t64.5 39t73.5 12.5q40 0 74 -12t64.5 -38.5t48 -75.5t17.5 -116v-233q0 -67 -17.5 -116t-48 -75.5t-64.5 -38.5t-74 -12q-39 0 -73.5 12.5t-64.5 39t-47 75t-17 115.5zM426 243v215q0 59 -13.5 102t-37 65.5
t-50.5 32.5t-60 10t-60 -10t-50 -33t-36 -65.5t-13 -101.5v-215q0 -59 13 -101.5t36 -65.5t50 -33t60 -10t60 10t50.5 33t37 65.5t13.5 101.5zM249 876h34l73 -134h-40l-51 94l-50 -94h-40z" />
    <glyph glyph-name="uni1ED1" unicode="&#x1ed1;" horiz-adv-x="389" 
d="M300 648h-31l59 134h41zM46 168v165q0 48 12.5 83.5t34.5 55t47 28.5t54 9t54.5 -9t47.5 -28t35 -55t13 -84v-165q0 -48 -13 -84t-35 -55t-47.5 -28t-54.5 -9t-54 9t-47 28.5t-34.5 55t-12.5 83.5zM306 185v130q0 160 -112 160q-111 0 -111 -160v-130q0 -159 111 -159
q112 0 112 159zM181 680h34l73 -134h-40l-51 94l-50 -94h-40z" />
    <glyph glyph-name="uni1ED2" unicode="&#x1ed2;" horiz-adv-x="532" 
d="M284 978h41l59 -134h-31zM63 234v233q0 67 17 115.5t47 75t64.5 39t73.5 12.5q40 0 74 -12t64.5 -38.5t48 -75.5t17.5 -116v-233q0 -67 -17.5 -116t-48 -75.5t-64.5 -38.5t-74 -12q-39 0 -73.5 12.5t-64.5 39t-47 75t-17 115.5zM426 243v215q0 59 -13.5 102t-37 65.5
t-50.5 32.5t-60 10t-60 -10t-50 -33t-36 -65.5t-13 -101.5v-215q0 -59 13 -101.5t36 -65.5t50 -33t60 -10t60 10t50.5 33t37 65.5t13.5 101.5zM249 876h34l73 -134h-40l-51 94l-50 -94h-40z" />
    <glyph glyph-name="uni1ED3" unicode="&#x1ed3;" horiz-adv-x="389" 
d="M216 782h41l59 -134h-31zM46 168v165q0 48 12.5 83.5t34.5 55t47 28.5t54 9t54.5 -9t47.5 -28t35 -55t13 -84v-165q0 -48 -13 -84t-35 -55t-47.5 -28t-54.5 -9t-54 9t-47 28.5t-34.5 55t-12.5 83.5zM306 185v130q0 160 -112 160q-111 0 -111 -160v-130q0 -159 111 -159
q112 0 112 159zM181 680h34l73 -134h-40l-51 94l-50 -94h-40z" />
    <glyph glyph-name="uni1ED6" unicode="&#x1ed6;" horiz-adv-x="532" 
d="M358 997q0 -18 -1 -30t-5 -26q-8 -31 -41 -31q-13 0 -25 6.5t-32 27.5q-12 14 -19 17.5t-14 3.5q-10 0 -13.5 -13t-3.5 -42h-32q0 17 1.5 29t4.5 26q8 32 41 32q11 0 21.5 -5t16.5 -12q26 -28 36 -34t17 -5q10 0 13 13.5t3 42.5h32zM63 234v233q0 67 17 115.5t47 75
t64.5 39t73.5 12.5q40 0 74 -12t64.5 -38.5t48 -75.5t17.5 -116v-233q0 -67 -17.5 -116t-48 -75.5t-64.5 -38.5t-74 -12q-39 0 -73.5 12.5t-64.5 39t-47 75t-17 115.5zM426 243v215q0 59 -13.5 102t-37 65.5t-50.5 32.5t-60 10t-60 -10t-50 -33t-36 -65.5t-13 -101.5v-215
q0 -59 13 -101.5t36 -65.5t50 -33t60 -10t60 10t50.5 33t37 65.5t13.5 101.5zM249 876h34l73 -134h-40l-51 94l-50 -94h-40z" />
    <glyph glyph-name="uni1ED7" unicode="&#x1ed7;" horiz-adv-x="389" 
d="M290 801q0 -18 -1 -30t-5 -26q-8 -31 -41 -31q-13 0 -25 6.5t-32 27.5q-12 14 -19 17.5t-14 3.5q-10 0 -13.5 -13t-3.5 -42h-32q0 17 1.5 29t4.5 26q8 32 41 32q11 0 21.5 -5t16.5 -12q26 -28 36 -34t17 -5q10 0 13 13.5t3 42.5h32zM46 168v165q0 48 12.5 83.5t34.5 55
t47 28.5t54 9t54.5 -9t47.5 -28t35 -55t13 -84v-165q0 -48 -13 -84t-35 -55t-47.5 -28t-54.5 -9t-54 9t-47 28.5t-34.5 55t-12.5 83.5zM306 185v130q0 160 -112 160q-111 0 -111 -160v-130q0 -159 111 -159q112 0 112 159zM181 680h34l73 -134h-40l-51 94l-50 -94h-40z" />
    <glyph glyph-name="uni1ED8" unicode="&#x1ed8;" horiz-adv-x="532" 
d="M63 234v233q0 67 17 115.5t47 75t64.5 39t73.5 12.5q40 0 74 -12t64.5 -38.5t48 -75.5t17.5 -116v-233q0 -67 -17.5 -116t-48 -75.5t-64.5 -38.5t-74 -12q-39 0 -73.5 12.5t-64.5 39t-47 75t-17 115.5zM426 243v215q0 59 -13.5 102t-37 65.5t-50.5 32.5t-60 10t-60 -10
t-50 -33t-36 -65.5t-13 -101.5v-215q0 -59 13 -101.5t36 -65.5t50 -33t60 -10t60 10t50.5 33t37 65.5t13.5 101.5zM249 876h34l73 -134h-40l-51 94l-50 -94h-40zM246 -117v66h40v-66h-40z" />
    <glyph glyph-name="uni1ED9" unicode="&#x1ed9;" horiz-adv-x="389" 
d="M46 168v165q0 48 12.5 83.5t34.5 55t47 28.5t54 9t54.5 -9t47.5 -28t35 -55t13 -84v-165q0 -48 -13 -84t-35 -55t-47.5 -28t-54.5 -9t-54 9t-47 28.5t-34.5 55t-12.5 83.5zM306 185v130q0 160 -112 160q-111 0 -111 -160v-130q0 -159 111 -159q112 0 112 159zM181 680h34
l73 -134h-40l-51 94l-50 -94h-40zM177 -117v66h40v-66h-40z" />
    <glyph glyph-name="uni1EDA" unicode="&#x1eda;" horiz-adv-x="532" 
d="M269 741h-31l59 134h41zM63 234v233q0 67 17 115.5t47 75t64.5 39t73.5 12.5q35 0 65 -9h41q28 0 41 11t8 79h36q5 -77 -14 -102q-14 -19 -47 -23l8 -7q31 -26 48.5 -75t17.5 -116v-233q0 -67 -17.5 -116t-48 -75.5t-64.5 -38.5t-74 -12q-39 0 -73.5 12.5t-64.5 39
t-47 75t-17 115.5zM426 243v215q0 59 -13.5 102t-37 65.5t-50.5 32.5t-60 10t-60 -10t-50 -33t-36 -65.5t-13 -101.5v-215q0 -59 13 -101.5t36 -65.5t50 -33t60 -10t60 10t50.5 33t37 65.5t13.5 101.5z" />
    <glyph glyph-name="uni1EDB" unicode="&#x1edb;" horiz-adv-x="389" 
d="M202 546h-31l59 134h41zM46 168v165q0 48 12.5 83.5t34.5 55t47 28.5t54 9t54 -9l6 -2v1h15q27 0 39.5 10.5t7.5 75.5h34q5 -73 -13 -97q-12 -16 -36 -21q18 -18 30 -50q13 -36 13 -84v-165q0 -48 -13 -84t-35 -55t-47.5 -28t-54.5 -9t-54 9t-47 28.5t-34.5 55
t-12.5 83.5zM306 186v129q0 160 -112 160q-111 0 -111 -160v-129q0 -160 111 -160q112 0 112 160z" />
    <glyph glyph-name="uni1EDC" unicode="&#x1edc;" horiz-adv-x="532" 
d="M216 875h41l59 -134h-31zM63 234v233q0 67 17 115.5t47 75t64.5 39t73.5 12.5q35 0 65 -9h41q28 0 41 11t8 79h36q5 -77 -14 -102q-14 -19 -47 -23l8 -7q31 -26 48.5 -75t17.5 -116v-233q0 -67 -17.5 -116t-48 -75.5t-64.5 -38.5t-74 -12q-39 0 -73.5 12.5t-64.5 39
t-47 75t-17 115.5zM426 243v215q0 59 -13.5 102t-37 65.5t-50.5 32.5t-60 10t-60 -10t-50 -33t-36 -65.5t-13 -101.5v-215q0 -59 13 -101.5t36 -65.5t50 -33t60 -10t60 10t50.5 33t37 65.5t13.5 101.5z" />
    <glyph glyph-name="uni1EDD" unicode="&#x1edd;" horiz-adv-x="389" 
d="M144 680h41l59 -134h-31zM46 168v165q0 48 12.5 83.5t34.5 55t47 28.5t54 9t54 -9l6 -2v1h15q27 0 39.5 10.5t7.5 75.5h34q5 -73 -13 -97q-12 -16 -36 -21q18 -18 30 -50q13 -36 13 -84v-165q0 -48 -13 -84t-35 -55t-47.5 -28t-54.5 -9t-54 9t-47 28.5t-34.5 55
t-12.5 83.5zM306 186v129q0 160 -112 160q-111 0 -111 -160v-129q0 -160 111 -160q112 0 112 160z" />
    <glyph glyph-name="uni1EE0" unicode="&#x1ee0;" horiz-adv-x="532" 
d="M356 829q0 -18 -1 -30t-5 -26q-8 -31 -41 -31q-13 0 -25 6.5t-32 27.5q-12 14 -19 17.5t-14 3.5q-10 0 -13.5 -13t-3.5 -42h-32q0 17 1.5 29t4.5 26q8 32 41 32q11 0 21.5 -5t16.5 -12q26 -28 36 -34t17 -5q10 0 13 13.5t3 42.5h32zM63 234v233q0 67 17 115.5t47 75
t64.5 39t73.5 12.5q35 0 65 -9h41q28 0 41 11t8 79h36q5 -77 -14 -102q-14 -19 -47 -23l8 -7q31 -26 48.5 -75t17.5 -116v-233q0 -67 -17.5 -116t-48 -75.5t-64.5 -38.5t-74 -12q-39 0 -73.5 12.5t-64.5 39t-47 75t-17 115.5zM426 243v215q0 59 -13.5 102t-37 65.5
t-50.5 32.5t-60 10t-60 -10t-50 -33t-36 -65.5t-13 -101.5v-215q0 -59 13 -101.5t36 -65.5t50 -33t60 -10t60 10t50.5 33t37 65.5t13.5 101.5z" />
    <glyph glyph-name="uni1EE1" unicode="&#x1ee1;" horiz-adv-x="389" 
d="M292 640q0 -18 -1 -30t-5 -26q-8 -31 -41 -31q-13 0 -25 6.5t-32 27.5q-12 14 -19 17.5t-14 3.5q-10 0 -13.5 -13t-3.5 -42h-32q0 17 1.5 29t4.5 26q8 32 41 32q11 0 21.5 -5t16.5 -12q26 -28 36 -34t17 -5q10 0 13 13.5t3 42.5h32zM46 168v165q0 48 12.5 83.5t34.5 55
t47 28.5t54 9t54 -9l6 -2v1h15q27 0 39.5 10.5t7.5 75.5h34q5 -73 -13 -97q-12 -16 -36 -21q18 -18 30 -50q13 -36 13 -84v-165q0 -48 -13 -84t-35 -55t-47.5 -28t-54.5 -9t-54 9t-47 28.5t-34.5 55t-12.5 83.5zM306 186v129q0 160 -112 160q-111 0 -111 -160v-129
q0 -160 111 -160q112 0 112 160z" />
    <glyph glyph-name="uni1EE8" unicode="&#x1ee8;" horiz-adv-x="540" 
d="M271 741h-31l59 134h41zM114 242q0 -111 44 -160t113 -49q32 0 59 10.5t50 33.5t36 65t13 100v458h26q22 1 34 11q13 11 8 79h36q5 -77 -14 -102q-15 -19 -48 -23v-432q0 -66 -17 -114.5t-46.5 -75t-63.5 -39t-73 -12.5q-40 0 -74 12.5t-63 39t-45.5 75t-16.5 114.5v467
h42v-458z" />
    <glyph glyph-name="uni1EE9" unicode="&#x1ee9;" horiz-adv-x="398" 
d="M202 546h-31l59 134h41zM311 500h35q15 2 23 9q13 11 8 76h34q5 -73 -13 -97q-15 -20 -50 -22v-466h-31l-3 72q-34 -81 -122 -81q-28 0 -52 9t-45 28t-33 55t-12 84v333h37v-315q0 -160 112 -160t112 154v321z" />
    <glyph glyph-name="uni1EEA" unicode="&#x1eea;" horiz-adv-x="540" 
d="M222 875h41l59 -134h-31zM114 242v458h-42v-467q0 -66 16.5 -114.5t45.5 -75t63 -39t74 -12.5q39 0 73 12.5t63.5 39t46.5 75t17 114.5v432q33 4 48 23q19 25 14 102h-36q5 -68 -8 -79q-12 -10 -34 -11h-26v-458q0 -58 -13 -100t-36 -65t-50 -33.5t-59 -10.5
q-69 0 -113 49t-44 160z" />
    <glyph glyph-name="uni1EEB" unicode="&#x1eeb;" horiz-adv-x="398" 
d="M144 680h41l59 -134h-31zM311 500h35q15 2 23 9q13 11 8 76h34q5 -73 -13 -97q-15 -20 -50 -22v-466h-31l-3 72q-34 -81 -122 -81q-28 0 -52 9t-45 28t-33 55t-12 84v333h37v-315q0 -160 112 -160t112 154v321z" />
    <glyph glyph-name="uni1EEE" unicode="&#x1eee;" horiz-adv-x="540" 
d="M368 829q0 -18 -1 -30t-5 -26q-8 -31 -41 -31q-13 0 -25 6.5t-32 27.5q-12 14 -19 17.5t-14 3.5q-10 0 -13.5 -13t-3.5 -42h-32q0 17 1.5 29t4.5 26q8 32 41 32q11 0 21.5 -5t16.5 -12q26 -28 36 -34t17 -5q10 0 13 13.5t3 42.5h32zM114 242v458h-42v-467
q0 -66 16.5 -114.5t45.5 -75t63 -39t74 -12.5q39 0 73 12.5t63.5 39t46.5 75t17 114.5v432q33 4 48 23q19 25 14 102h-36q5 -68 -8 -79q-12 -10 -34 -11h-26v-458q0 -58 -13 -100t-36 -65t-50 -33.5t-59 -10.5q-69 0 -113 49t-44 160z" />
    <glyph glyph-name="uni1EEF" unicode="&#x1eef;" horiz-adv-x="398" 
d="M293 640q0 -18 -1 -30t-5 -26q-8 -31 -41 -31q-13 0 -25 6.5t-32 27.5q-12 14 -19 17.5t-14 3.5q-10 0 -13.5 -13t-3.5 -42h-32q0 17 1.5 29t4.5 26q8 32 41 32q11 0 21.5 -5t16.5 -12q26 -28 36 -34t17 -5q10 0 13 13.5t3 42.5h32zM311 500h35q15 2 23 9q13 11 8 76h34
q5 -73 -13 -97q-15 -20 -50 -22v-466h-31l-3 72q-34 -81 -122 -81q-28 0 -52 9t-45 28t-33 55t-12 84v333h37v-315q0 -160 112 -160t112 154v321z" />
    <glyph glyph-name="Ygrave" unicode="&#x1ef2;" horiz-adv-x="510" 
d="M202 875h41l59 -134h-31zM410 700h46l-182 -407v-293h-43v293l-177 407h45l154 -359z" />
    <glyph glyph-name="ygrave" unicode="&#x1ef3;" horiz-adv-x="380" 
d="M134 680h41l59 -134h-31zM302 500h37v-511q-4 -85 -46 -123t-102 -38q-49 0 -88 25.5t-53 80.5h39q24 -72 101 -72q112 0 112 150v66q-33 -78 -119 -78q-28 0 -52 9t-45 28t-33 55t-12 84v324h37v-307q0 -159 112 -159q111 0 112 160v306z" />
    <glyph glyph-name="uni1EF8" unicode="&#x1ef8;" horiz-adv-x="510" 
d="M349 829q0 -18 -1 -30t-5 -26q-8 -31 -41 -31q-13 0 -25 6.5t-32 27.5q-12 14 -19 17.5t-14 3.5q-10 0 -13.5 -13t-3.5 -42h-32q0 17 1.5 29t4.5 26q8 32 41 32q11 0 21.5 -5t16.5 -12q26 -28 36 -34t17 -5q10 0 13 13.5t3 42.5h32zM410 700h46l-182 -407v-293h-43v293
l-177 407h45l154 -359z" />
    <glyph glyph-name="uni1EF9" unicode="&#x1ef9;" horiz-adv-x="380" 
d="M286 640q0 -18 -1 -30t-5 -26q-8 -31 -41 -31q-13 0 -25 6.5t-32 27.5q-12 14 -19 17.5t-14 3.5q-10 0 -13.5 -13t-3.5 -42h-32q0 17 1.5 29t4.5 26q8 32 41 32q11 0 21.5 -5t16.5 -12q26 -28 36 -34t17 -5q10 0 13 13.5t3 42.5h32zM302 500h37v-511q-4 -85 -46 -123
t-102 -38q-49 0 -88 25.5t-53 80.5h39q24 -72 101 -72q112 0 112 150v66q-33 -78 -119 -78q-28 0 -52 9t-45 28t-33 55t-12 84v324h37v-307q0 -159 112 -159q111 0 112 160v306z" />
    <glyph glyph-name="Itilde" unicode="&#x128;" horiz-adv-x="186" 
d="M185 829q0 -18 -1 -30t-5 -26q-8 -31 -41 -31q-13 0 -25 6.5t-32 27.5q-12 14 -19 17.5t-14 3.5q-10 0 -13.5 -13t-3.5 -42h-32q0 17 1.5 29t4.5 26q8 32 41 32q11 0 21.5 -5t16.5 -12q26 -28 36 -34t17 -5q10 0 13 13.5t3 42.5h32zM72 0v700h43v-700h-43z" />
    <glyph glyph-name="itilde" unicode="&#x129;" horiz-adv-x="157" 
d="M61 0v500h38v-500h-38zM171 640q0 -18 -1 -30t-5 -26q-8 -31 -41 -31q-13 0 -25 6.5t-32 27.5q-12 14 -19 17.5t-14 3.5q-10 0 -13.5 -13t-3.5 -42h-32q0 17 1.5 29t4.5 26q8 32 41 32q11 0 21.5 -5t16.5 -12q26 -28 36 -34t17 -5q10 0 13 13.5t3 42.5h32z" />
    <glyph glyph-name="Utilde" unicode="&#x168;" horiz-adv-x="540" 
d="M368 829q0 -18 -1 -30t-5 -26q-8 -31 -41 -31q-13 0 -25 6.5t-32 27.5q-12 14 -19 17.5t-14 3.5q-10 0 -13.5 -13t-3.5 -42h-32q0 17 1.5 29t4.5 26q8 32 41 32q11 0 21.5 -5t16.5 -12q26 -28 36 -34t17 -5q10 0 13 13.5t3 42.5h32zM114 242v458h-42v-467
q0 -66 16.5 -114.5t45.5 -75t63 -39t74 -12.5q39 0 73 12.5t63.5 39t46.5 75t17 114.5v467h-42v-458q0 -58 -13 -100t-36 -65t-50 -33.5t-59 -10.5q-69 0 -113 49t-44 160z" />
    <glyph glyph-name="utilde" unicode="&#x169;" horiz-adv-x="398" 
d="M293 640q0 -18 -1 -30t-5 -26q-8 -31 -41 -31q-13 0 -25 6.5t-32 27.5q-12 14 -19 17.5t-14 3.5q-10 0 -13.5 -13t-3.5 -42h-32q0 17 1.5 29t4.5 26q8 32 41 32q11 0 21.5 -5t16.5 -12q26 -28 36 -34t17 -5q10 0 13 13.5t3 42.5h32zM311 500h37v-500h-31l-3 72
q-34 -81 -122 -81q-28 0 -52 9t-45 28t-33 55t-12 84v333h37v-315q0 -160 112 -160t112 154v321z" />
    </font>
</defs>
</svg>
